<svg width="36" height="36" viewBox="0 0 36 36" fill="none" xmlns="http://www.w3.org/2000/svg">
<path d="M17 0H36V30H21C18.7909 30 17 28.2091 17 26V0Z" fill="#B7B7B7"/>
<path d="M30 21.7605L25 23.5736V19.046L30 15.8317V21.7605Z" fill="#333333" stroke="black" stroke-width="2"/>
<path d="M25 22H30.2317L33.6984 35H25V22Z" fill="url(#paint0_linear_4045_29310)" stroke="black" stroke-width="2"/>
<path d="M28 22L32 19.5V15H27M19 20H23V15H26V19" stroke="black" stroke-width="2"/>
<path d="M27 11.3333L28 10V11V13H27V11.3333Z" fill="#3E3E3E" stroke="black" stroke-width="2"/>
<rect x="19" y="11" width="2" height="25" fill="black"/>
<path d="M17 12H20H23" stroke="black" stroke-width="2"/>
<defs>
<linearGradient id="paint0_linear_4045_29310" x1="28.5" y1="21" x2="28.5" y2="36" gradientUnits="userSpaceOnUse">
<stop stop-color="#373737"/>
<stop offset="1"/>
</linearGradient>
</defs>
</svg>
