<svg width="112" height="160" viewBox="0 0 112 160" fill="none" xmlns="http://www.w3.org/2000/svg">
<path d="M0 0H112V160H0V0Z" fill="#F3F2E8"/>
<rect opacity="0.5" x="9" y="9" width="94" height="142" stroke="black" stroke-opacity="0.5" stroke-width="2"/>
<rect opacity="0.24" x="17" y="17" width="78" height="126" stroke="black" stroke-opacity="0.2" stroke-width="2"/>
<rect opacity="0.2" x="17" y="17" width="39" height="126" stroke="black" stroke-opacity="0.2" stroke-width="2"/>
<rect opacity="0.1" x="17" y="17" width="78" height="63" stroke="black" stroke-opacity="0.2" stroke-width="2"/>
<path d="M9 21V9H22" stroke="black" stroke-width="2"/>
<path d="M103 37L103 9L91 9" stroke="black" stroke-width="2"/>
<path d="M103 139V151H90" stroke="black" stroke-width="2"/>
<path d="M9 123L9 151L21 151" stroke="black" stroke-width="2"/>
<path d="M59.0513 87.3162L60.6126 92H51.3874L52.9487 87.3162L53.5811 85.4189L51.6838 86.0513L49.3313 86.8355L45.3298 82.0337L56 70.4743L66.6702 82.0337L62.6687 86.8355L60.3162 86.0513L58.4189 85.4189L59.0513 87.3162Z" fill="#756D6D" stroke="black" stroke-width="2"/>
</svg>
