<svg width="112" height="160" viewBox="0 0 112 160" fill="none" xmlns="http://www.w3.org/2000/svg">
<g clip-path="url(#clip0_3768_75981)">
<path d="M0 0H112V160H0V0Z" fill="#B5974A"/>
<rect opacity="0.5" x="9" y="9" width="94" height="142" stroke="black" stroke-opacity="0.5" stroke-width="2"/>
<rect opacity="0.24" x="17" y="17" width="78" height="126" stroke="black" stroke-opacity="0.2" stroke-width="2"/>
<rect opacity="0.2" x="17" y="17" width="39" height="126" stroke="black" stroke-opacity="0.2" stroke-width="2"/>
<rect opacity="0.1" x="17" y="17" width="78" height="63" stroke="black" stroke-opacity="0.2" stroke-width="2"/>
<path d="M9 21V9H22" stroke="black" stroke-width="2"/>
<path d="M103 37L103 9L91 9" stroke="black" stroke-width="2"/>
<path d="M103 139V151H90" stroke="black" stroke-width="2"/>
<path d="M9 123L9 151L21 151" stroke="black" stroke-width="2"/>
<path d="M40.0941 81.6726C39.8202 81.4189 39.5848 81.1919 39.3909 81C39.5848 80.8081 39.8202 80.5811 40.0941 80.3274C40.9784 79.5082 42.2593 78.415 43.8404 77.3228C47.0218 75.1253 51.3205 73 56 73C60.6795 73 64.9782 75.1253 68.1596 77.3228C69.7407 78.415 71.0216 79.5082 71.9059 80.3274C72.1798 80.5811 72.4152 80.8081 72.6091 81C72.4152 81.1919 72.1798 81.4189 71.9059 81.6726C71.0216 82.4918 69.7407 83.585 68.1596 84.6772C64.9782 86.8747 60.6795 89 56 89C51.3205 89 47.0218 86.8747 43.8404 84.6772C42.2593 83.585 40.9784 82.4918 40.0941 81.6726Z" fill="#B5974A" stroke="black" stroke-width="2"/>
<circle cx="56" cy="80" r="36" stroke="black" stroke-width="2"/>
<circle cx="56" cy="80" r="20" stroke="black" stroke-width="2"/>
<path d="M56 100C54.8133 100 53.6533 100.352 52.6666 101.011C51.6799 101.67 50.9108 102.608 50.4567 103.704C50.0026 104.8 49.8838 106.007 50.1153 107.171C50.3468 108.334 50.9182 109.404 51.7574 110.243C52.5965 111.082 53.6656 111.653 54.8295 111.885C55.9933 112.116 57.1997 111.997 58.2961 111.543C59.3925 111.089 60.3295 110.32 60.9888 109.333C61.6481 108.347 62 107.187 62 106H56" stroke="black" stroke-width="2"/>
<path d="M56 60C57.1867 60 58.3467 59.6481 59.3334 58.9888C60.3201 58.3295 61.0892 57.3925 61.5433 56.2961C61.9974 55.1997 62.1162 53.9933 61.8847 52.8295C61.6532 51.6656 61.0818 50.5965 60.2426 49.7574C59.4035 48.9182 58.3344 48.3468 57.1705 48.1153C56.0067 47.8838 54.8003 48.0026 53.7039 48.4567C52.6075 48.9108 51.6705 49.6799 51.0112 50.6666C50.3519 51.6533 50 52.8133 50 54H56" stroke="black" stroke-width="2"/>
<path d="M36 80C36 78.8133 35.6481 77.6533 34.9888 76.6666C34.3295 75.6799 33.3925 74.9108 32.2961 74.4567C31.1997 74.0026 29.9933 73.8838 28.8295 74.1153C27.6656 74.3468 26.5965 74.9182 25.7574 75.7574C24.9182 76.5965 24.3468 77.6656 24.1153 78.8295C23.8838 79.9933 24.0026 81.1997 24.4567 82.2961C24.9108 83.3925 25.6799 84.3295 26.6666 84.9888C27.6533 85.6481 28.8133 86 30 86L30 80" stroke="black" stroke-width="2"/>
<path d="M76 80C76 81.1867 76.3519 82.3467 77.0112 83.3334C77.6705 84.3201 78.6075 85.0892 79.7039 85.5433C80.8003 85.9974 82.0067 86.1162 83.1705 85.8847C84.3344 85.6532 85.4035 85.0818 86.2426 84.2426C87.0818 83.4035 87.6532 82.3344 87.8847 81.1705C88.1162 80.0067 87.9974 78.8003 87.5433 77.7039C87.0892 76.6075 86.3201 75.6705 85.3334 75.0112C84.3467 74.3519 83.1867 74 82 74L82 80" stroke="black" stroke-width="2"/>
<path d="M41.8579 94.1421C41.0188 93.303 39.9497 92.7316 38.7858 92.5001C37.6219 92.2685 36.4155 92.3874 35.3191 92.8415C34.2228 93.2956 33.2857 94.0646 32.6264 95.0513C31.9671 96.038 31.6152 97.1981 31.6152 98.3848C31.6152 99.5715 31.9671 100.731 32.6264 101.718C33.2857 102.705 34.2228 103.474 35.3191 103.928C36.4155 104.382 37.6219 104.501 38.7858 104.269C39.9497 104.038 41.0188 103.467 41.8579 102.627L37.6152 98.3848" stroke="black" stroke-width="2"/>
<path d="M70.1421 65.8578C70.9812 66.6969 72.0503 67.2683 73.2142 67.4998C74.3781 67.7313 75.5845 67.6125 76.6809 67.1584C77.7772 66.7043 78.7143 65.9352 79.3736 64.9485C80.0329 63.9618 80.3848 62.8018 80.3848 61.6151C80.3848 60.4284 80.0329 59.2684 79.3736 58.2817C78.7143 57.295 77.7772 56.526 76.6809 56.0718C75.5845 55.6177 74.3781 55.4989 73.2142 55.7304C72.0503 55.9619 70.9812 56.5334 70.1421 57.3725L74.3848 61.6151" stroke="black" stroke-width="2"/>
<path d="M41.8579 65.8578C42.697 65.0187 43.2684 63.9496 43.4999 62.7857C43.7315 61.6218 43.6126 60.4154 43.1585 59.3191C42.7044 58.2227 41.9354 57.2856 40.9487 56.6263C39.962 55.9671 38.8019 55.6152 37.6152 55.6152C36.4285 55.6152 35.2685 55.9671 34.2818 56.6263C33.2951 57.2856 32.5261 58.2227 32.072 59.3191C31.6178 60.4154 31.499 61.6218 31.7305 62.7857C31.962 63.9496 32.5335 65.0187 33.3726 65.8578L37.6152 61.6152" stroke="black" stroke-width="2"/>
<path d="M70.1421 94.1421C69.303 94.9812 68.7316 96.0503 68.5001 97.2142C68.2685 98.3781 68.3874 99.5845 68.8415 100.681C69.2956 101.777 70.0646 102.714 71.0513 103.374C72.038 104.033 73.1981 104.385 74.3848 104.385C75.5715 104.385 76.7315 104.033 77.7182 103.374C78.7049 102.714 79.4739 101.777 79.928 100.681C80.3822 99.5845 80.501 98.3781 80.2695 97.2142C80.038 96.0503 79.4665 94.9812 78.6274 94.1421L74.3848 98.3847" stroke="black" stroke-width="2"/>
<path d="M68.5079 77.9649C68.5079 77.9649 63.8152 84.5104 57.2266 85.2266C50.638 85.9429 44.6484 80.5586 44.6484 80.5586C44.6484 80.5586 49.3411 74.0131 55.9297 73.2969C62.5183 72.5807 68.5079 77.9649 68.5079 77.9649Z" fill="white"/>
<circle cx="56.4089" cy="79.409" r="4" transform="rotate(-6.20408 56.4089 79.409)" fill="black"/>
</g>
<defs>
<clipPath id="clip0_3768_75981">
<rect width="112" height="160" fill="white"/>
</clipPath>
</defs>
</svg>
