<svg width="112" height="160" viewBox="0 0 112 160" fill="none" xmlns="http://www.w3.org/2000/svg">
<path d="M0 0H112V160H0V0Z" fill="#F3F2E8"/>
<rect opacity="0.5" x="9" y="9" width="94" height="142" stroke="black" stroke-opacity="0.5" stroke-width="2"/>
<rect opacity="0.24" x="17" y="17" width="78" height="126" stroke="black" stroke-opacity="0.2" stroke-width="2"/>
<rect opacity="0.2" x="17" y="17" width="39" height="126" stroke="black" stroke-opacity="0.2" stroke-width="2"/>
<rect opacity="0.1" x="17" y="17" width="78" height="63" stroke="black" stroke-opacity="0.2" stroke-width="2"/>
<path d="M9 21V9H22" stroke="black" stroke-width="2"/>
<path d="M103 37L103 9L91 9" stroke="black" stroke-width="2"/>
<path d="M103 139V151H90" stroke="black" stroke-width="2"/>
<path d="M9 123L9 151L21 151" stroke="black" stroke-width="2"/>
<path d="M64.8087 80.5882L65.2365 80L64.8087 79.4118L56.8087 68.4118L56 67.2998L55.1913 68.4118L47.1913 79.4118L46.7635 80L47.1913 80.5882L55.1913 91.5882L56 92.7002L56.8087 91.5882L64.8087 80.5882Z" fill="#E96D6D" stroke="black" stroke-width="2"/>
</svg>
