<svg width="112" height="160" viewBox="0 0 112 160" fill="none" xmlns="http://www.w3.org/2000/svg">
<path d="M0 0H112V160H0V0Z" fill="#F3F2E8"/>
<rect opacity="0.5" x="9" y="9" width="94" height="142" stroke="black" stroke-opacity="0.5" stroke-width="2"/>
<rect opacity="0.24" x="17" y="17" width="78" height="126" stroke="black" stroke-opacity="0.2" stroke-width="2"/>
<rect opacity="0.2" x="17" y="17" width="39" height="126" stroke="black" stroke-opacity="0.2" stroke-width="2"/>
<rect opacity="0.1" x="17" y="17" width="78" height="63" stroke="black" stroke-opacity="0.2" stroke-width="2"/>
<path d="M9 21V9H22" stroke="black" stroke-width="2"/>
<path d="M103 37L103 9L91 9" stroke="black" stroke-width="2"/>
<path d="M103 139V151H90" stroke="black" stroke-width="2"/>
<path d="M9 123L9 151L21 151" stroke="black" stroke-width="2"/>
<path d="M56.6892 75.2898L56 75.9453L55.3108 75.2898L51.189 71.3696L45.3782 76.7217L56 89.44L66.6218 76.7217L60.811 71.3696L56.6892 75.2898Z" fill="#E96D6D" stroke="black" stroke-width="2"/>
</svg>
