<svg width="120" height="120" viewBox="0 0 120 120" fill="none" xmlns="http://www.w3.org/2000/svg">
<g clip-path="url(#clip0_3552_44744)">
<path opacity="0.22" d="M84.3523 74.5433L84.0557 72.5654" stroke="black" stroke-width="2"/>
<path opacity="0.22" d="M53.7445 86.2123L53.4479 84.2344" stroke="black" stroke-width="2"/>
<path opacity="0.22" d="M88.7531 76.9168L88.4564 74.939" stroke="black" stroke-width="2"/>
<rect x="-1" y="1" width="5" height="42" transform="matrix(-1 0 0 1 70 36)" fill="white" stroke="black" stroke-width="2"/>
<rect x="71" y="37" width="7" height="46" fill="white" stroke="black" stroke-width="2"/>
<path opacity="0.2" d="M34.1355 66.9954L34 65" stroke="black" stroke-width="2"/>
<rect x="-1" y="1" width="24" height="40" transform="matrix(-1 0 0 1 60 44)" fill="#D9D9D9" stroke="black" stroke-width="2"/>
<rect x="-1" y="1" width="18" height="32" transform="matrix(-1 0 0 1 81 52)" fill="white" stroke="black" stroke-width="2"/>
<rect x="-1" y="1" width="14" height="40" transform="matrix(-1 0 0 1 50 44)" fill="white" stroke="black" stroke-width="2"/>
<path d="M76 56L76 73" stroke="black" stroke-width="2"/>
<path d="M44 38L35 44V45H53V44L44 38Z" fill="white"/>
<path d="M44 38L35 44V45H53V44L44 38Z" fill="#9D3F3F"/>
<path d="M44 38L53 44V45H63V44L53 38H44Z" fill="white"/>
<path d="M44 38L53 44V45H63V44L53 38H44Z" fill="#9D3F3F"/>
<path d="M49 29V32V34H54V29H49Z" fill="#FA1616"/>
<path d="M44 32H49V29V28H44V32Z" fill="#FA1616"/>
<path d="M44 38L35 44V45M44 38L53 44V45M44 38H53L63 44V45M44 38V32M53 48V45M35 48V45M63 48V45M35 45H53M53 45H63M44 32H49M44 32V28H49V29M49 32V29M49 32V34H54V29H49" stroke="black" stroke-width="2"/>
<rect x="48" y="61" width="24" height="12" fill="white" stroke="black" stroke-width="2"/>
<rect x="43.5" y="46.5" width="1" height="3" fill="white" stroke="black"/>
<rect x="43.5" y="55.5" width="1" height="3" fill="white" stroke="black"/>
<rect x="53.5" y="60.5" width="1" height="3" fill="white" stroke="black"/>
<rect x="61.5" y="60.5" width="1" height="3" fill="white" stroke="black"/>
<rect x="69.5" y="60.5" width="1" height="3" fill="white" stroke="black"/>
<rect x="32" y="73" width="56" height="12" fill="#D9D9D9" stroke="black" stroke-width="2"/>
<path d="M30 69H31V70V85H41V70V69H42H43V66H29V69H30Z" fill="white" stroke="black" stroke-width="2"/>
<rect x="45.5" y="72.5" width="1" height="3" fill="white" stroke="black"/>
<rect x="53.5" y="72.5" width="1" height="3" fill="white" stroke="black"/>
<rect x="61.5" y="72.5" width="1" height="3" fill="white" stroke="black"/>
<rect x="69.5" y="72.5" width="1" height="3" fill="white" stroke="black"/>
<rect x="77.5" y="72.5" width="1" height="3" fill="white" stroke="black"/>
<path d="M78 69H79V70V85H89V70V69H90H91V66H77V69H78Z" fill="#D9D9D9" stroke="black" stroke-width="2"/>
<path d="M65 85H55V84C55 81.2386 57.2386 79 60 79C62.7614 79 65 81.2386 65 84V85Z" fill="white" stroke="black" stroke-width="2"/>
<path d="M84 55V56H71V49H78C81.3137 49 84 51.6863 84 55Z" fill="white"/>
<path d="M84 55V56H71V49H78C81.3137 49 84 51.6863 84 55Z" fill="#9D3F3F"/>
<path d="M84 55V56H71V49H78C81.3137 49 84 51.6863 84 55Z" stroke="black" stroke-width="2"/>
<path d="M77 56L63 56C63 52.134 66.134 49 70 49C73.866 49 77 52.134 77 56Z" fill="white"/>
<path d="M77 56L63 56C63 52.134 66.134 49 70 49C73.866 49 77 52.134 77 56Z" fill="#9D3F3F"/>
<path d="M77 56L63 56C63 52.134 66.134 49 70 49C73.866 49 77 52.134 77 56Z" stroke="black" stroke-width="2"/>
<path d="M66 37V34" stroke="black" stroke-width="2"/>
<path d="M70 37V34" stroke="black" stroke-width="2"/>
<path d="M74 37V34" stroke="black" stroke-width="2"/>
<path d="M78 37V34" stroke="black" stroke-width="2"/>
</g>
<defs>
<clipPath id="clip0_3552_44744">
<rect width="72" height="72" fill="white" transform="translate(24 24)"/>
</clipPath>
</defs>
</svg>
