<svg width="124" height="120" viewBox="0 0 124 120" fill="none" xmlns="http://www.w3.org/2000/svg">
<rect x="19" y="20" width="2" height="4" fill="black" fill-opacity="0.2"/>
<rect x="38" y="48" width="2" height="4" fill="black" fill-opacity="0.2"/>
<path d="M56 88.9167L61 79L65.5 88H64L70 98H68L73 109H63H59H49L54 99H52L57.5 88.9167H56Z" fill="#4E5B49"/>
<path d="M63 113V109M59 109H49L54 99H52L57.5 88.9167H56L61 79L65.5 88H64L70 98H68L73 109H63M59 109H63M59 109V113" stroke="black" stroke-width="2"/>
<rect opacity="0.2" x="58" y="98" width="2" height="4" fill="black"/>
<rect opacity="0.2" x="60" y="94" width="2" height="4" fill="black"/>
<rect x="65" y="106" width="2" height="4" fill="black"/>
<path d="M104 76V83M116 110H112M104 116V110M104 110V106M104 110H112M104 106V100M104 106H99M94 106H99M104 100H112M104 100V95M104 95H97M104 95V92M104 92H110M104 92V86M104 86H99M104 86V83M104 83H108M112 110V105M99 106V102" stroke="black" stroke-width="2"/>
<path d="M32 40L32 47M32 65L32 53M32 53L40 53L40 44M32 53L32 47M40 22L40 33M32 47L28 47L28 41M28 29.5L28 36M40 44L36 44M40 44L40 39M40 39L44 39M40 39L40 33M40 33L36 33M28 41L24 41M28 41L28 36M28 36L32 36" stroke="black" stroke-width="2"/>
<path d="M62 29.9167L67 20L71.5 29H70L75 39H73L77 47L75 46L79 54H69H65H55L59 46L55.5 47L61.0909 38H59.0909L63.5 29.9167H62Z" fill="#5B5549"/>
<path d="M69 58V54M65 54H55L59 46L55.5 47L61.0909 38H59.0909L63.5 29.9167H62L67 20L71.5 29H70L75 39H73L77 47L75 46L79 54H69M65 54H69M65 54V58" stroke="black" stroke-width="2"/>
<rect opacity="0.4" x="64" y="44" width="2" height="4" fill="black"/>
<rect opacity="0.4" x="68" y="40" width="2" height="4" fill="black"/>
<rect opacity="0.4" x="72" y="49" width="2" height="4" fill="black"/>
<rect x="64" y="50" width="2" height="4" fill="black"/>
<rect x="69" y="64" width="10" height="5" fill="#795F51" stroke="black" stroke-width="2"/>
<rect x="1" y="-1" width="10" height="4" transform="matrix(1 0 0 -1 68 63)" fill="#795F51" stroke="black" stroke-width="2"/>
<rect x="73" y="63" width="2" height="4" fill="black"/>
<path d="M15 51.9167L20 42L24.5 51H23L29 61H27L32 72H22H18H8L13 62H11L16.5 51.9167H15Z" fill="#4E5B49"/>
<path d="M22 76V72M18 72H8L13 62H11L16.5 51.9167H15L20 42L24.5 51H23L29 61H27L32 72H22M18 72H22M18 72V76" stroke="black" stroke-width="2"/>
<rect opacity="0.2" x="17" y="61" width="2" height="4" fill="black"/>
<rect opacity="0.2" x="19" y="57" width="2" height="4" fill="black"/>
<rect x="24" y="69" width="2" height="4" fill="black"/>
<path d="M85 41.9167L90 32L94.5 41H93L98 51H96L100 59L98 58L102 66H92H88H78L82 58L78.5 59L84.0909 50H82.0909L86.5 41.9167H85Z" fill="#5B5549"/>
<path d="M92 70V66M88 66H78L82 58L78.5 59L84.0909 50H82.0909L86.5 41.9167H85L90 32L94.5 41H93L98 51H96L100 59L98 58L102 66H92M88 66H92M88 66V70" stroke="black" stroke-width="2"/>
<rect opacity="0.4" x="87" y="56" width="2" height="4" fill="black"/>
<rect opacity="0.4" x="91" y="52" width="2" height="4" fill="black"/>
<rect opacity="0.4" x="95" y="61" width="2" height="4" fill="black"/>
<rect x="87" y="62" width="2" height="4" fill="black"/>
</svg>
