<svg width="120" height="120" viewBox="0 0 120 120" fill="none" xmlns="http://www.w3.org/2000/svg">
<rect x="110" y="17" width="2" height="4" transform="rotate(180 110 17)" fill="black" fill-opacity="0.2"/>
<rect x="96" y="11" width="2" height="4" transform="rotate(180 96 11)" fill="black" fill-opacity="0.2"/>
<path d="M34 95H30M24 101V95M24 95V91M24 95H30M24 91V85M24 91H19M14 91H19M24 85H30M24 85V80M24 80H17M24 80V77M24 77H29M24 77V71V68M30 95V90M19 91V87" stroke="black" stroke-width="2"/>
<path opacity="0.2" d="M34 107H30M24 101V107M24 107V111M24 107H30M24 111V117M24 111H19M14 111H19M30 107V112M19 111V115" stroke="url(#paint0_linear_4041_16660)" stroke-width="2"/>
<path d="M35 74H85V82H81V106H39V82H35V74Z" fill="url(#paint1_linear_4041_16660)" fill-opacity="0.2"/>
<rect x="36" y="45" width="48" height="28" fill="#4C5168" stroke="black" stroke-width="2"/>
<rect x="36" y="73" width="20" height="4" fill="#4C5168"/>
<rect x="36" y="73" width="20" height="4" fill="black" fill-opacity="0.4"/>
<rect x="36" y="73" width="20" height="4" stroke="black" stroke-width="2"/>
<rect x="64" y="73" width="20" height="4" fill="#4C5168"/>
<rect x="64" y="73" width="20" height="4" fill="black" fill-opacity="0.4"/>
<rect x="64" y="73" width="20" height="4" stroke="black" stroke-width="2"/>
<rect width="40" height="24" transform="matrix(1 0 0 -1 40 41)" fill="#4C5168" stroke="black" stroke-width="2"/>
<rect x="40" y="37" width="8" height="4" fill="#4C5168"/>
<rect x="40" y="37" width="8" height="4" fill="black" fill-opacity="0.4"/>
<rect x="40" y="37" width="8" height="4" stroke="black" stroke-width="2"/>
<rect x="72" y="37" width="8" height="4" fill="#4C5168"/>
<rect x="72" y="37" width="8" height="4" fill="black" fill-opacity="0.4"/>
<rect x="72" y="37" width="8" height="4" stroke="black" stroke-width="2"/>
<path d="M72 33H76V29H80V33V37H72V33Z" fill="#4C5168" stroke="black" stroke-width="2"/>
<path d="M48 33H44V29H40V33V37H48V33Z" fill="#4C5168" stroke="black" stroke-width="2"/>
<g filter="url(#filter0_d_4041_16660)">
<rect width="4" height="4" transform="matrix(-1 0 0 1 76 17)" fill="#4C5168"/>
<rect width="4" height="4" transform="matrix(-1 0 0 1 76 17)" fill="black" fill-opacity="0.4"/>
<rect width="4" height="4" transform="matrix(-1 0 0 1 76 17)" stroke="black" stroke-width="2"/>
<rect width="4" height="4" transform="matrix(-1 0 0 1 80 21)" fill="#4C5168"/>
<rect width="4" height="4" transform="matrix(-1 0 0 1 80 21)" fill="black" fill-opacity="0.4"/>
<rect width="4" height="4" transform="matrix(-1 0 0 1 80 21)" stroke="black" stroke-width="2"/>
<path d="M72 17H76V21H80V17V13H72V17Z" fill="#4C5168" stroke="black" stroke-width="2"/>
</g>
<rect x="56" y="37" width="8" height="4" fill="#4C5168"/>
<rect x="56" y="37" width="8" height="4" fill="black" fill-opacity="0.4"/>
<rect x="56" y="37" width="8" height="4" stroke="black" stroke-width="2"/>
<rect x="56" y="33" width="8" height="4" fill="#4C5168" stroke="black" stroke-width="2"/>
<g filter="url(#filter1_d_4041_16660)">
<rect x="56" y="13" width="8" height="4" fill="#4C5168" stroke="black" stroke-width="2"/>
<rect x="56" y="17" width="8" height="4" fill="#4C5168"/>
<rect x="56" y="17" width="8" height="4" fill="black" fill-opacity="0.4"/>
<rect x="56" y="17" width="8" height="4" stroke="black" stroke-width="2"/>
</g>
<g filter="url(#filter2_d_4041_16660)">
<rect x="44" y="17" width="4" height="4" fill="#4C5168"/>
<rect x="44" y="17" width="4" height="4" fill="black" fill-opacity="0.4"/>
<rect x="44" y="17" width="4" height="4" stroke="black" stroke-width="2"/>
<rect x="40" y="21" width="4" height="4" fill="#4C5168"/>
<rect x="40" y="21" width="4" height="4" fill="black" fill-opacity="0.4"/>
<rect x="40" y="21" width="4" height="4" stroke="black" stroke-width="2"/>
<path d="M48 17H44V21H40V17V13H48V17Z" fill="#4C5168" stroke="black" stroke-width="2"/>
</g>
<path d="M40 37H48V41H56V37H64V41H72V37H80V41V69H40V37Z" fill="#4C5168"/>
<path d="M40 37H48V41H56V37H64V41H72V37H80V41V69H40V37Z" fill="black" fill-opacity="0.4"/>
<path d="M40 37H48V41H56V37H64V41H72V37H80V41V69H40V37Z" stroke="black" stroke-width="2"/>
<path d="M56 65C56 62.7909 57.7909 61 60 61V61C62.2091 61 64 62.7909 64 65V73H56V65Z" fill="black" stroke="black" stroke-width="2"/>
<rect x="57" y="70" width="6" height="8" fill="url(#paint2_linear_4041_16660)"/>
<rect x="64" y="72" width="2" height="2" fill="black"/>
<rect x="59" y="58" width="2" height="4" fill="black"/>
<rect x="54" y="76" width="2" height="2" fill="black"/>
<rect x="85" y="76" width="2" height="2" fill="black"/>
<rect x="33" y="48" width="2" height="2" fill="black"/>
<defs>
<filter id="filter0_d_4041_16660" x="71" y="12" width="10" height="18" filterUnits="userSpaceOnUse" color-interpolation-filters="sRGB">
<feFlood flood-opacity="0" result="BackgroundImageFix"/>
<feColorMatrix in="SourceAlpha" type="matrix" values="0 0 0 0 0 0 0 0 0 0 0 0 0 0 0 0 0 0 127 0" result="hardAlpha"/>
<feOffset dy="4"/>
<feComposite in2="hardAlpha" operator="out"/>
<feColorMatrix type="matrix" values="0 0 0 0 0 0 0 0 0 0 0 0 0 0 0 0 0 0 0.25 0"/>
<feBlend mode="normal" in2="BackgroundImageFix" result="effect1_dropShadow_4041_16660"/>
<feBlend mode="normal" in="SourceGraphic" in2="effect1_dropShadow_4041_16660" result="shape"/>
</filter>
<filter id="filter1_d_4041_16660" x="55" y="12" width="10" height="14" filterUnits="userSpaceOnUse" color-interpolation-filters="sRGB">
<feFlood flood-opacity="0" result="BackgroundImageFix"/>
<feColorMatrix in="SourceAlpha" type="matrix" values="0 0 0 0 0 0 0 0 0 0 0 0 0 0 0 0 0 0 127 0" result="hardAlpha"/>
<feOffset dy="4"/>
<feComposite in2="hardAlpha" operator="out"/>
<feColorMatrix type="matrix" values="0 0 0 0 0 0 0 0 0 0 0 0 0 0 0 0 0 0 0.25 0"/>
<feBlend mode="normal" in2="BackgroundImageFix" result="effect1_dropShadow_4041_16660"/>
<feBlend mode="normal" in="SourceGraphic" in2="effect1_dropShadow_4041_16660" result="shape"/>
</filter>
<filter id="filter2_d_4041_16660" x="39" y="12" width="10" height="18" filterUnits="userSpaceOnUse" color-interpolation-filters="sRGB">
<feFlood flood-opacity="0" result="BackgroundImageFix"/>
<feColorMatrix in="SourceAlpha" type="matrix" values="0 0 0 0 0 0 0 0 0 0 0 0 0 0 0 0 0 0 127 0" result="hardAlpha"/>
<feOffset dy="4"/>
<feComposite in2="hardAlpha" operator="out"/>
<feColorMatrix type="matrix" values="0 0 0 0 0 0 0 0 0 0 0 0 0 0 0 0 0 0 0.25 0"/>
<feBlend mode="normal" in2="BackgroundImageFix" result="effect1_dropShadow_4041_16660"/>
<feBlend mode="normal" in="SourceGraphic" in2="effect1_dropShadow_4041_16660" result="shape"/>
</filter>
<linearGradient id="paint0_linear_4041_16660" x1="24" y1="114.5" x2="24" y2="101" gradientUnits="userSpaceOnUse">
<stop stop-opacity="0"/>
<stop offset="1"/>
</linearGradient>
<linearGradient id="paint1_linear_4041_16660" x1="60" y1="74" x2="60" y2="106" gradientUnits="userSpaceOnUse">
<stop/>
<stop offset="1" stop-opacity="0"/>
</linearGradient>
<linearGradient id="paint2_linear_4041_16660" x1="60" y1="70" x2="60" y2="78" gradientUnits="userSpaceOnUse">
<stop/>
<stop offset="1" stop-color="#5D5E5C"/>
</linearGradient>
</defs>
</svg>
