<svg width="120" height="124" viewBox="0 0 120 124" fill="none" xmlns="http://www.w3.org/2000/svg">
<path d="M16 53L21 43L25 53H23.5L29 62.5H26L33.5 73H21H17.5H7L13.5 63.5H11L17.5 53H16Z" fill="#4E5B49"/>
<path d="M21 79V73M17.5 73H7L13.5 63.5H11L17.5 53H16L21 43L25 53H23.5L29 62.5H26L33.5 73H21M17.5 73H21M17.5 73V79" stroke="black" stroke-width="2"/>
<path d="M54 13L59 3L63 13H61.5L67 24.5H64L71.5 33H59H55.5H45L51.5 24.5H49L55.5 13H54Z" fill="#4E5B49"/>
<path d="M59 39V33M55.5 33H45L51.5 24.5H49L55.5 13H54L59 3L63 13H61.5L67 24.5H64L71.5 33H59M55.5 33H59M55.5 33V39H52.5" stroke="black" stroke-width="2"/>
<path d="M90 31L95 21L99 31H97.5L103 42.5H100L107.5 51H95H91.5H81L87.5 42.5H85L91.5 31H90Z" fill="#4E5B49"/>
<path d="M95 57V51M91.5 51H81L87.5 42.5H85L91.5 31H90L95 21L99 31H97.5L103 42.5H100L107.5 51H95M91.5 51H95M91.5 51V57H88.5" stroke="black" stroke-width="2"/>
<path d="M98 90L103 80L107 90H105.5L111 101.5H108L115.5 110H103H99.5H89L95.5 101.5H93L99.5 90H98Z" fill="#4E5B49"/>
<path d="M103 116V110M99.5 110H89L95.5 101.5H93L99.5 90H98L103 80L107 90H105.5L111 101.5H108L115.5 110H103M99.5 110H103M99.5 110V116H96.5V119L94 117" stroke="black" stroke-width="2"/>
<path d="M65 54V52H70L73 56V67H75V74V78H57H45V69L49 66.7143V62L55 58V54H65Z" fill="#AAAAAA"/>
<path d="M65 54L62 56V58L57 63H52V65L49 66.7143M65 54V52H70L73 56V67H75V74M65 54H55V58L49 62V66.7143M49 66.7143L45 69V78H57H75V74M75 74H70" stroke="black" stroke-width="2"/>
<path d="M62 63V70H68V63L65 60L62 63Z" fill="#5A6367" stroke="black" stroke-width="2"/>
<path d="M67 70H59V73" stroke="black" stroke-width="2"/>
<path d="M60 72H56V75" stroke="black" stroke-width="2"/>
<path d="M57 74H53V77" stroke="black" stroke-width="2"/>
<path d="M54 76H50V79" stroke="black" stroke-width="2"/>
</svg>
