<svg width="124" height="120" viewBox="0 0 124 120" fill="none" xmlns="http://www.w3.org/2000/svg">
<path d="M91 24V22H96L99 26V37H101V44V48H83H71V39L75 36.7143V32L81 28V24H91Z" fill="#AAAAAA"/>
<path d="M91 24L88 26V28L83 33H78V35L75 36.7143M91 24V22H96L99 26V37H101V44M91 24H81V28L75 32V36.7143M75 36.7143L71 39V48H83H101V44M101 44H96" stroke="black" stroke-width="2"/>
<path d="M88 33V40H94V33L91 30L88 33Z" fill="#5A6367" stroke="black" stroke-width="2"/>
<path d="M93 40H85V43" stroke="black" stroke-width="2"/>
<path d="M86 42H82V45" stroke="black" stroke-width="2"/>
<path d="M83 44H79V47" stroke="black" stroke-width="2"/>
<path d="M80 46H76V49" stroke="black" stroke-width="2"/>
<path d="M79 83.9167L84 74L88.5 83H87L92 93H90L94 101L92 100L96 108H86H82H72L76 100L72.5 101L78.0909 92H76.0909L80.5 83.9167H79Z" fill="#5B5549"/>
<path d="M86 112V108M82 108H72L76 100L72.5 101L78.0909 92H76.0909L80.5 83.9167H79L84 74L88.5 83H87L92 93H90L94 101L92 100L96 108H86M82 108H86M82 108V112" stroke="black" stroke-width="2"/>
<rect opacity="0.4" x="81" y="98" width="2" height="4" fill="black"/>
<rect opacity="0.4" x="85" y="94" width="2" height="4" fill="black"/>
<rect opacity="0.4" x="89" y="103" width="2" height="4" fill="black"/>
<rect x="81" y="104" width="2" height="4" fill="black"/>
<path d="M31 23.9167L36 14L40.5 23H39L45 33H43L48 44H38H34H24L29 34H27L32.5 23.9167H31Z" fill="#4E5B49"/>
<path d="M38 48V44M34 44H24L29 34H27L32.5 23.9167H31L36 14L40.5 23H39L45 33H43L48 44H38M34 44H38M34 44V48" stroke="black" stroke-width="2"/>
<rect opacity="0.2" x="33" y="33" width="2" height="4" fill="black"/>
<rect opacity="0.2" x="35" y="29" width="2" height="4" fill="black"/>
<rect x="40" y="41" width="2" height="4" fill="black"/>
<path d="M99 31.9167L104 22L108.5 31H107L113 41H111L116 52H106H102H92L97 42H95L100.5 31.9167H99Z" fill="#4E5B49"/>
<path d="M106 56V52M102 52H92L97 42H95L100.5 31.9167H99L104 22L108.5 31H107L113 41H111L116 52H106M102 52H106M102 52V56" stroke="black" stroke-width="2"/>
<rect opacity="0.2" x="101" y="41" width="2" height="4" fill="black"/>
<rect opacity="0.2" x="103" y="37" width="2" height="4" fill="black"/>
<rect x="108" y="49" width="2" height="4" fill="black"/>
<path d="M15 27.9167L20 18L24.5 27H23L28 37H26L30 45L28 44L32 52H22H18H8L12 44L8.5 45L14.0909 36H12.0909L16.5 27.9167H15Z" fill="#5B5549"/>
<path d="M22 56V52M18 52H8L12 44L8.5 45L14.0909 36H12.0909L16.5 27.9167H15L20 18L24.5 27H23L28 37H26L30 45L28 44L32 52H22M18 52H22M18 52V56" stroke="black" stroke-width="2"/>
<rect opacity="0.4" x="17" y="42" width="2" height="4" fill="black"/>
<rect opacity="0.4" x="21" y="38" width="2" height="4" fill="black"/>
<rect opacity="0.4" x="25" y="47" width="2" height="4" fill="black"/>
<rect x="17" y="48" width="2" height="4" fill="black"/>
<rect x="18" y="87" width="2" height="4" fill="black" fill-opacity="0.2"/>
<rect x="32" y="93" width="2" height="4" fill="black" fill-opacity="0.2"/>
<rect x="78" y="66" width="2" height="4" transform="rotate(-180 78 66)" fill="black" fill-opacity="0.2"/>
<rect x="64" y="60" width="2" height="4" transform="rotate(-180 64 60)" fill="black" fill-opacity="0.2"/>
</svg>
