<svg width="120" height="120" viewBox="0 0 120 120" fill="none" xmlns="http://www.w3.org/2000/svg">
<path d="M87 83.9167L92 74L96.5 83H95L100 93H98L102 101L100 100L104 108H94H90H80L84 100L80.5 101L86.0909 92H84.0909L88.5 83.9167H87Z" fill="#5B5549"/>
<path d="M94 112V108M90 108H80L84 100L80.5 101L86.0909 92H84.0909L88.5 83.9167H87L92 74L96.5 83H95L100 93H98L102 101L100 100L104 108H94M90 108H94M90 108V112" stroke="black" stroke-width="2"/>
<rect opacity="0.4" x="89" y="98" width="2" height="4" fill="black"/>
<rect opacity="0.4" x="93" y="94" width="2" height="4" fill="black"/>
<rect opacity="0.4" x="97" y="103" width="2" height="4" fill="black"/>
<rect x="89" y="104" width="2" height="4" fill="black"/>
<rect x="18" y="87" width="2" height="4" fill="black" fill-opacity="0.2"/>
<rect x="32" y="93" width="2" height="4" fill="black" fill-opacity="0.2"/>
<rect x="99" y="24" width="2" height="4" fill="black" fill-opacity="0.2"/>
<rect x="118" y="52" width="2" height="4" fill="black" fill-opacity="0.2"/>
</svg>
