<svg width="36" height="36" viewBox="0 0 36 36" fill="none" xmlns="http://www.w3.org/2000/svg">
<path d="M20 0H36V30H26C22.6863 30 20 27.3137 20 24V0Z" fill="#B7B7B7"/>
<path d="M30 28H26V26V20H27V17H28V20H30L32 24H30V28Z" fill="#D9D9D9"/>
<path d="M26 20V19H25V20H26ZM27 17V16H26V17H27ZM28 17H29V16H28V17ZM30 20L30.8944 19.5528L30.618 19H30V20ZM32 24V25L32.8944 23.5528L32 24ZM29 28V36H31V28H29ZM27 36V28H25V36H27ZM30 27H26V29H30V27ZM26 21H27V19H26V21ZM28 20V17H26V20H28ZM27 18H28V16H27V18ZM27 21H28V19H27V21ZM28 21H30V19H28V21ZM27 17V20H29V17H27ZM29.1056 20.4472L31.1056 24.4472L32.8944 23.5528L30.8944 19.5528L29.1056 20.4472ZM32 23H30V25H32V23ZM29 20V24H31V20H29ZM29 24V28H31V24H29ZM30 23H27V25H30V23ZM27 28V26H25V28H27ZM27 26V20H25V26H27ZM25.2929 25.2929L20.2929 30.2929L21.7071 31.7071L26.7071 26.7071L25.2929 25.2929Z" fill="black"/>
<path d="M35 24C35 25.6569 33.6569 27 32 27C30.3431 27 29 25.6569 29 24C29 22.3431 30.3431 21 32 21C33.6569 21 35 22.3431 35 24Z" fill="#D9D9D9" stroke="black" stroke-width="2"/>
</svg>
