<svg width="36" height="36" viewBox="0 0 36 36" fill="none" xmlns="http://www.w3.org/2000/svg">
<path d="M20 0H36V30H26C22.6863 30 20 27.3137 20 24V0Z" fill="#B7B7B7"/>
<path d="M30 28H26V26V20H27V17H28V20H30L32 24H30V28Z" fill="#D9D9D9"/>
<path d="M26 20V19H25V20H26ZM27 17V16H26V17H27ZM28 17H29V16H28V17ZM30 20L30.8944 19.5528L30.618 19H30V20ZM32 24V25L32.8944 23.5528L32 24ZM29 28V36H31V28H29ZM27 36V28H25V36H27ZM30 27H26V29H30V27ZM26 21H27V19H26V21ZM28 20V17H26V20H28ZM27 18H28V16H27V18ZM27 21H28V19H27V21ZM28 21H30V19H28V21ZM27 17V20H29V17H27ZM29.1056 20.4472L31.1056 24.4472L32.8944 23.5528L30.8944 19.5528L29.1056 20.4472ZM32 23H30V25H32V23ZM29 20V24H31V20H29ZM29 24V28H31V24H29ZM30 23H27V25H30V23ZM27 28V26H25V28H27ZM27 26V20H25V26H27ZM25.2929 25.2929L20.2929 30.2929L21.7071 31.7071L26.7071 26.7071L25.2929 25.2929Z" fill="black"/>
<path d="M35 24C35 25.6569 33.6569 27 32 27C30.3431 27 29 25.6569 29 24C29 22.3431 30.3431 21 32 21C33.6569 21 35 22.3431 35 24Z" fill="#D9D9D9" stroke="black" stroke-width="2"/>
<path d="M22 28H18V26V20H19V17H20V20H22L24 24H22V28Z" fill="#D9D9D9"/>
<path d="M18 20V19H17.6972L17.4453 19.1679L18 20ZM19 17V16H18V17H19ZM20 17H21V16H20V17ZM22 20L22.8944 19.5528L22.618 19H22V20ZM24 24V25L24.8944 23.5528L24 24ZM15 22V23H15.3028L15.5547 22.8321L15 22ZM21 28V36H23V28H21ZM19 36V28H17V36H19ZM22 27H18V29H22V27ZM18 21H19V19H18V21ZM20 20V17H18V20H20ZM19 18H20V16H19V18ZM19 21H20V19H19V21ZM20 21H22V19H20V21ZM19 17V20H21V17H19ZM21.1056 20.4472L23.1056 24.4472L24.8944 23.5528L22.8944 19.5528L21.1056 20.4472ZM24 23H22V25H24V23ZM21 20V24H23V20H21ZM21 24V28H23V24H21ZM19 28V26H17V28H19ZM19 26V20H17V26H19ZM17.4453 19.1679L14.4453 21.1679L15.5547 22.8321L18.5547 20.8321L17.4453 19.1679ZM15 21H10V23H15V21Z" fill="black"/>
<path d="M14 14V16L12 22L14 28V30" stroke="black" stroke-width="2"/>
</svg>
