<svg width="44" height="36" viewBox="0 0 44 36" fill="none" xmlns="http://www.w3.org/2000/svg">
<path d="M39 28H35V26V20H36V17H37V20H39L41 24H39V28Z" fill="#D9D9D9"/>
<path d="M35 20V19H34V20H35ZM36 17V16H35V17H36ZM37 17H38V16H37V17ZM39 20L39.8944 19.5528L39.618 19H39V20ZM41 24V25L41.8944 23.5528L41 24ZM38 28V36H40V28H38ZM36 36V28H34V36H36ZM39 27H35V29H39V27ZM35 21H36V19H35V21ZM37 20V17H35V20H37ZM36 18H37V16H36V18ZM36 21H37V19H36V21ZM37 21H39V19H37V21ZM36 17V20H38V17H36ZM38.1056 20.4472L40.1056 24.4472L41.8944 23.5528L39.8944 19.5528L38.1056 20.4472ZM41 23H39V25H41V23ZM38 20V24H40V20H38ZM38 24V28H40V24H38ZM39 23H36V25H39V23ZM36 28V26H34V28H36ZM36 26V20H34V26H36ZM34.2929 25.2929L29.2929 30.2929L30.7071 31.7071L35.7071 26.7071L34.2929 25.2929Z" fill="black"/>
<path d="M43 28L41 31L39 28V21.5001L43 21.5V28Z" fill="#D9D9D9" stroke="black" stroke-width="2"/>
<path d="M27 28H23V20H24V17H25V20H27V26V28Z" fill="#D9D9D9"/>
<path d="M23 20V19H22.382L22.1056 19.5528L23 20ZM24 17V16H23V17H24ZM25 17H26V16H25V17ZM27 20L27.8944 19.5528L27.618 19H27V20ZM29 24H30L29.8944 23.5528L29 24ZM21 24L20.4453 24.8321L21.3878 25.4604L21.8944 24.4472L21 24ZM26 28V36H28V28H26ZM27 27H23V29H27V27ZM23 21H24V19H23V21ZM25 20V17H23V20H25ZM24 18H25V16H24V18ZM24 21H25V19H24V21ZM25 21H27V19H25V21ZM24 17V20H26V17H24ZM26.1056 20.4472L28.1056 24.4472L29.8944 23.5528L27.8944 19.5528L26.1056 20.4472ZM26 20V26H28V20H26ZM26 26V28H28V26H26ZM22.1056 19.5528L20.1056 23.5528L21.8944 24.4472L23.8944 20.4472L22.1056 19.5528ZM21.5547 23.1679L18.5547 21.1679L17.4453 22.8321L20.4453 24.8321L21.5547 23.1679ZM24 28V20H22V28H24ZM24 36V28H22V36H24ZM28 24V28H30V24H28Z" fill="black"/>
<path d="M18 14L18 36" stroke="black" stroke-width="2"/>
</svg>
