<svg width="38" height="36" viewBox="0 0 38 36" fill="none" xmlns="http://www.w3.org/2000/svg">
<path d="M20 2C20 0.89543 20.8954 0 22 0H34C35.1046 0 36 0.895431 36 2V30H30C24.4772 30 20 25.5228 20 20V2Z" fill="#EC4730"/>
<path d="M31 24H27V22V16H28V13H29V16H31L33 20H31V24Z" fill="#D9D9D9"/>
<path d="M31 24V25H32V24H31ZM27 24H26V25H27V24ZM27 16V15H26V16H27ZM28 13V12H27V13H28ZM29 13H30V12H29V13ZM31 16L31.8944 15.5528L31.618 15H31V16ZM33 20V21L33.8944 19.5528L33 20ZM31 23H27V25H31V23ZM27 17H28V15H27V17ZM29 16V13H27V16H29ZM28 14H29V12H28V14ZM28 17H29V15H28V17ZM29 17H31V15H29V17ZM28 13V16H30V13H28ZM30.1056 16.4472L32.1056 20.4472L33.8944 19.5528L31.8944 15.5528L30.1056 16.4472ZM33 19H31V21H33V19ZM30 16V20H32V16H30ZM30 20V24H32V20H30ZM28 24V22H26V24H28ZM28 22V16H26V22H28Z" fill="black"/>
<path d="M25 28H34V24H25V28Z" fill="#D9D9D9"/>
<path d="M34 34V28M34 28H25M34 28V24M25 28V34M25 28V24M34 24H25M34 24V24C35.6569 24 37 25.3431 37 27V27M25 24V24C25 21.7909 23.2091 20 21 20H20" stroke="black" stroke-width="2"/>
<path d="M36 21C36 22.6569 34.6569 24 33 24C31.3431 24 30 22.6569 30 21C30 19.3431 31.3431 18 33 18C34.6569 18 36 19.3431 36 21Z" fill="#D9D9D9" stroke="black" stroke-width="2"/>
</svg>
