<svg width="36" height="36" viewBox="0 0 36 36" fill="none" xmlns="http://www.w3.org/2000/svg">
<path d="M20 0H36V30H26C22.6863 30 20 27.3137 20 24V0Z" fill="#B7B7B7"/>
<path d="M27 26H23V24V18H24V15H25V18H27L29 22H27V26Z" fill="#D9D9D9"/>
<path d="M27 26V27H28V26H27ZM23 26H22V27H23V26ZM23 18V17H22V18H23ZM24 15V14H23V15H24ZM25 15H26V14H25V15ZM27 18L27.8944 17.5528L27.618 17H27V18ZM29 22V23L29.8944 21.5528L29 22ZM27 25H23V27H27V25ZM23 19H24V17H23V19ZM25 18V15H23V18H25ZM24 16H25V14H24V16ZM24 19H25V17H24V19ZM25 19H27V17H25V19ZM24 15V18H26V15H24ZM26.1056 18.4472L28.1056 22.4472L29.8944 21.5528L27.8944 17.5528L26.1056 18.4472ZM29 21H27V23H29V21ZM26 18V22H28V18H26ZM26 22V26H28V22H26ZM24 26V24H22V26H24ZM24 24V18H22V24H24Z" fill="black"/>
<path d="M21 30H30V26H21V30Z" fill="#D9D9D9"/>
<path d="M30 36V30M30 30H21M30 30V26M21 30V36M21 30V26M30 26H21M30 26V26C31.6569 26 33 27.3431 33 29V29M21 26V26C21 23.7909 19.2091 22 17 22H16" stroke="black" stroke-width="2"/>
<path d="M32 23C32 24.6569 30.6569 26 29 26C27.3431 26 26 24.6569 26 23C26 21.3431 27.3431 20 29 20C30.6569 20 32 21.3431 32 23Z" fill="#D9D9D9" stroke="black" stroke-width="2"/>
</svg>
