<svg width="36" height="36" viewBox="0 0 36 36" fill="none" xmlns="http://www.w3.org/2000/svg">
<path d="M20 2C20 0.89543 20.8954 0 22 0H34C35.1046 0 36 0.895431 36 2V30H30C24.4772 30 20 25.5228 20 20V2Z" fill="#EC4730"/>
<path d="M31 26H27V24V18H28V15H29V18H31L33 22H31V26Z" fill="#D9D9D9"/>
<path d="M27 18V17H26.6972L26.4453 17.1679L27 18ZM28 15V14H27V15H28ZM29 15H30V14H29V15ZM31 18L31.8944 17.5528L31.618 17H31V18ZM33 22V23L33.8944 21.5528L33 22ZM24 20V21H24.3028L24.5547 20.8321L24 20ZM30 26V34H32V26H30ZM28 34V26H26V34H28ZM31 25H27V27H31V25ZM27 19H28V17H27V19ZM29 18V15H27V18H29ZM28 16H29V14H28V16ZM28 19H29V17H28V19ZM29 19H31V17H29V19ZM28 15V18H30V15H28ZM30.1056 18.4472L32.1056 22.4472L33.8944 21.5528L31.8944 17.5528L30.1056 18.4472ZM33 21H31V23H33V21ZM30 18V22H32V18H30ZM30 22V26H32V22H30ZM28 26V24H26V26H28ZM28 24V18H26V24H28ZM26.4453 17.1679L23.4453 19.1679L24.5547 20.8321L27.5547 18.8321L26.4453 17.1679ZM24 19H19V21H24V19Z" fill="black"/>
<path d="M23 12V14L21 20L23 26V28" stroke="black" stroke-width="2"/>
</svg>
