<svg width="44" height="36" viewBox="0 0 44 36" fill="none" xmlns="http://www.w3.org/2000/svg">
<path d="M20 28H16V26V20H17V17H18V20H20L22 24H20V28Z" fill="#D9D9D9"/>
<path d="M16 20V19H15.6972L15.4453 19.1679L16 20ZM17 17V16H16V17H17ZM18 17H19V16H18V17ZM20 20L20.8944 19.5528L20.618 19H20V20ZM22 24V25L22.8944 23.5528L22 24ZM13 22V23H13.3028L13.5547 22.8321L13 22ZM19 28V36H21V28H19ZM17 36V28H15V36H17ZM20 27H16V29H20V27ZM16 21H17V19H16V21ZM18 20V17H16V20H18ZM17 18H18V16H17V18ZM17 21H18V19H17V21ZM18 21H20V19H18V21ZM17 17V20H19V17H17ZM19.1056 20.4472L21.1056 24.4472L22.8944 23.5528L20.8944 19.5528L19.1056 20.4472ZM22 23H20V25H22V23ZM19 20V24H21V20H19ZM19 24V28H21V24H19ZM17 28V26H15V28H17ZM17 26V20H15V26H17ZM15.4453 19.1679L12.4453 21.1679L13.5547 22.8321L16.5547 20.8321L15.4453 19.1679ZM13 21H8V23H13V21Z" fill="black"/>
<path d="M12 14V16L10 22L12 28V30" stroke="black" stroke-width="2"/>
<path d="M38 28H34V26V20H35V17H36V20H38L40 24H38V28Z" fill="#D9D9D9"/>
<path d="M34 20V19H33V20H34ZM35 17V16H34V17H35ZM36 17H37V16H36V17ZM38 20L38.8944 19.5528L38.618 19H38V20ZM40 24V25L40.8944 23.5528L40 24ZM37 28V36H39V28H37ZM35 36V28H33V36H35ZM38 27H34V29H38V27ZM34 21H35V19H34V21ZM36 20V17H34V20H36ZM35 18H36V16H35V18ZM35 21H36V19H35V21ZM36 21H38V19H36V21ZM35 17V20H37V17H35ZM37.1056 20.4472L39.1056 24.4472L40.8944 23.5528L38.8944 19.5528L37.1056 20.4472ZM40 23H38V25H40V23ZM37 20V24H39V20H37ZM37 24V28H39V24H37ZM38 23H35V25H38V23ZM35 28V26H33V28H35ZM35 26V20H33V26H35Z" fill="black"/>
<path d="M43 24C43 25.6569 41.6569 27 40 27C38.3431 27 37 25.6569 37 24C37 22.3431 38.3431 21 40 21C41.6569 21 43 22.3431 43 24Z" fill="#D9D9D9" stroke="black" stroke-width="2"/>
<path d="M29 28H25V26V20H26V17H27V20H29L31 24H29V28Z" fill="#D9D9D9"/>
<path d="M25 20V19H24V20H25ZM26 17V16H25V17H26ZM27 17H28V16H27V17ZM29 20L29.8944 19.5528L29.618 19H29V20ZM31 24V25L31.8944 23.5528L31 24ZM28 28V36H30V28H28ZM26 36V28H24V36H26ZM29 27H25V29H29V27ZM25 21H26V19H25V21ZM27 20V17H25V20H27ZM26 18H27V16H26V18ZM26 21H27V19H26V21ZM27 21H29V19H27V21ZM26 17V20H28V17H26ZM28.1056 20.4472L30.1056 24.4472L31.8944 23.5528L29.8944 19.5528L28.1056 20.4472ZM31 23H29V25H31V23ZM28 20V24H30V20H28ZM28 24V28H30V24H28ZM29 23H26V25H29V23ZM26 28V26H24V28H26ZM26 26V20H24V26H26ZM24.2929 25.2929L19.2929 30.2929L20.7071 31.7071L25.7071 26.7071L24.2929 25.2929Z" fill="black"/>
<path d="M34 24C34 25.6569 32.6569 27 31 27C29.3431 27 28 25.6569 28 24C28 22.3431 29.3431 21 31 21C32.6569 21 34 22.3431 34 24Z" fill="#D9D9D9" stroke="black" stroke-width="2"/>
<path d="M11 28H7V26V20H8V17H9V20H11L13 24H11V28Z" fill="#D9D9D9"/>
<path d="M7 20V19H6V20H7ZM8 17V16H7V17H8ZM9 17H10V16H9V17ZM11 20L11.8944 19.5528L11.618 19H11V20ZM13 24V25L13.8944 23.5528L13 24ZM10 28V36H12V28H10ZM8 36V28H6V36H8ZM11 27H7V29H11V27ZM7 21H8V19H7V21ZM9 20V17H7V20H9ZM8 18H9V16H8V18ZM8 21H9V19H8V21ZM9 21H11V19H9V21ZM8 17V20H10V17H8ZM10.1056 20.4472L12.1056 24.4472L13.8944 23.5528L11.8944 19.5528L10.1056 20.4472ZM13 23H11V25H13V23ZM10 20V24H12V20H10ZM10 24V28H12V24H10ZM11 23H8V25H11V23ZM8 28V26H6V28H8ZM8 26V20H6V26H8ZM6.29289 25.2929L1.29289 30.2929L2.70711 31.7071L7.70711 26.7071L6.29289 25.2929Z" fill="black"/>
<path d="M16 24C16 25.6569 14.6569 27 13 27C11.3431 27 10 25.6569 10 24C10 22.3431 11.3431 21 13 21C14.6569 21 16 22.3431 16 24Z" fill="#D9D9D9" stroke="black" stroke-width="2"/>
</svg>
