<svg width="48" height="36" viewBox="0 0 48 36" fill="none" xmlns="http://www.w3.org/2000/svg">
<path d="M24 28H20V26V20H21V17H22V20H24L26 24H24V28Z" fill="#D9D9D9"/>
<path d="M20 20V19H19.4648L19.1679 19.4453L20 20ZM21 17V16H20V17H21ZM22 17H23V16H22V17ZM24 20L24.8944 19.5528L24.618 19H24V20ZM26 24V25L26.8944 23.5528L26 24ZM18 23V24H18.5352L18.8321 23.5547L18 23ZM23 28V36H25V28H23ZM21 36V28H19V36H21ZM24 27H20V29H24V27ZM20 21H21V19H20V21ZM22 20V17H20V20H22ZM21 18H22V16H21V18ZM21 21H22V19H21V21ZM22 21H24V19H22V21ZM21 17V20H23V17H21ZM23.1056 20.4472L25.1056 24.4472L26.8944 23.5528L24.8944 19.5528L23.1056 20.4472ZM26 23H24V25H26V23ZM23 20V24H25V20H23ZM23 24V28H25V24H23ZM21 28V26H19V28H21ZM21 26V20H19V26H21ZM19.1679 19.4453L17.1679 22.4453L18.8321 23.5547L20.8321 20.5547L19.1679 19.4453ZM18 22H15.5V24H18V22Z" fill="black"/>
<path d="M16 12V36" stroke="black" stroke-width="2"/>
<path d="M42 28H38V26V20H39V17H40V20H42L44 24H42V28Z" fill="#D9D9D9"/>
<path d="M38 20V19H37V20H38ZM39 17V16H38V17H39ZM40 17H41V16H40V17ZM42 20L42.8944 19.5528L42.618 19H42V20ZM44 24V25L44.8944 23.5528L44 24ZM41 28V36H43V28H41ZM39 36V28H37V36H39ZM42 27H38V29H42V27ZM38 21H39V19H38V21ZM40 20V17H38V20H40ZM39 18H40V16H39V18ZM39 21H40V19H39V21ZM40 21H42V19H40V21ZM39 17V20H41V17H39ZM41.1056 20.4472L43.1056 24.4472L44.8944 23.5528L42.8944 19.5528L41.1056 20.4472ZM44 23H42V25H44V23ZM41 20V24H43V20H41ZM41 24V28H43V24H41ZM42 23H39V25H42V23ZM39 28V26H37V28H39ZM39 26V20H37V26H39Z" fill="black"/>
<path d="M47 24C47 25.6569 45.6569 27 44 27C42.3431 27 41 25.6569 41 24C41 22.3431 42.3431 21 44 21C45.6569 21 47 22.3431 47 24Z" fill="#D9D9D9" stroke="black" stroke-width="2"/>
<path d="M33 28H29V26V20H30V17H31V20H33L35 24H33V28Z" fill="#D9D9D9"/>
<path d="M29 20V19H28V20H29ZM30 17V16H29V17H30ZM31 17H32V16H31V17ZM33 20L33.8944 19.5528L33.618 19H33V20ZM35 24V25L35.8944 23.5528L35 24ZM32 28V36H34V28H32ZM30 36V28H28V36H30ZM33 27H29V29H33V27ZM29 21H30V19H29V21ZM31 20V17H29V20H31ZM30 18H31V16H30V18ZM30 21H31V19H30V21ZM31 21H33V19H31V21ZM30 17V20H32V17H30ZM32.1056 20.4472L34.1056 24.4472L35.8944 23.5528L33.8944 19.5528L32.1056 20.4472ZM35 23H33V25H35V23ZM32 20V24H34V20H32ZM32 24V28H34V24H32ZM33 23H30V25H33V23ZM30 28V26H28V28H30ZM30 26V20H28V26H30ZM28.2929 25.2929L23.2929 30.2929L24.7071 31.7071L29.7071 26.7071L28.2929 25.2929Z" fill="black"/>
<path d="M38 24C38 25.6569 36.6569 27 35 27C33.3431 27 32 25.6569 32 24C32 22.3431 33.3431 21 35 21C36.6569 21 38 22.3431 38 24Z" fill="#D9D9D9" stroke="black" stroke-width="2"/>
<path d="M10 28H6V26V20H7V17H8V20H10L12 24H10V28Z" fill="#D9D9D9"/>
<path d="M6 20V19H5V20H6ZM7 17V16H6V17H7ZM8 17H9V16H8V17ZM10 20L10.8944 19.5528L10.618 19H10V20ZM12 24V25L12.8944 23.5528L12 24ZM9 28V36H11V28H9ZM7 36V28H5V36H7ZM10 27H6V29H10V27ZM6 21H7V19H6V21ZM8 20V17H6V20H8ZM7 18H8V16H7V18ZM7 21H8V19H7V21ZM8 21H10V19H8V21ZM7 17V20H9V17H7ZM9.10557 20.4472L11.1056 24.4472L12.8944 23.5528L10.8944 19.5528L9.10557 20.4472ZM12 23H10V25H12V23ZM9 20V24H11V20H9ZM9 24V28H11V24H9ZM10 23H7V25H10V23ZM7 28V26H5V28H7ZM7 26V20H5V26H7ZM5.29289 25.2929L0.292893 30.2929L1.70711 31.7071L6.70711 26.7071L5.29289 25.2929Z" fill="black"/>
<path d="M15 24C15 25.6569 13.6569 27 12 27C10.3431 27 9 25.6569 9 24C9 22.3431 10.3431 21 12 21C13.6569 21 15 22.3431 15 24Z" fill="#D9D9D9" stroke="black" stroke-width="2"/>
</svg>
