<svg width="44" height="36" viewBox="0 0 44 36" fill="none" xmlns="http://www.w3.org/2000/svg">
<path d="M27 28H23V26V20H24V17H25V20H27L29 24H27V28Z" fill="#D9D9D9"/>
<path d="M23 20V19H22V20H23ZM24 17V16H23V17H24ZM25 17H26V16H25V17ZM27 20L27.8944 19.5528L27.618 19H27V20ZM29 24V25L29.8944 23.5528L29 24ZM26 28V36H28V28H26ZM24 36V28H22V36H24ZM27 27H23V29H27V27ZM23 21H24V19H23V21ZM25 20V17H23V20H25ZM24 18H25V16H24V18ZM24 21H25V19H24V21ZM25 21H27V19H25V21ZM24 17V20H26V17H24ZM26.1056 20.4472L28.1056 24.4472L29.8944 23.5528L27.8944 19.5528L26.1056 20.4472ZM29 23H27V25H29V23ZM26 20V24H28V20H26ZM26 24V28H28V24H26ZM27 23H24V25H27V23ZM24 28V26H22V28H24ZM24 26V20H22V26H24ZM22.2929 25.2929L17.2929 30.2929L18.7071 31.7071L23.7071 26.7071L22.2929 25.2929Z" fill="black"/>
<path d="M32 24C32 25.6569 30.6569 27 29 27C27.3431 27 26 25.6569 26 24C26 22.3431 27.3431 21 29 21C30.6569 21 32 22.3431 32 24Z" fill="#D9D9D9" stroke="black" stroke-width="2"/>
<path d="M38 28H34V26V20H35V17H36V20H38L40 24H38V28Z" fill="#D9D9D9"/>
<path d="M34 20V19H33V20H34ZM35 17V16H34V17H35ZM36 17H37V16H36V17ZM38 20L38.8944 19.5528L38.618 19H38V20ZM40 24V25L40.8944 23.5528L40 24ZM37 28V36H39V28H37ZM35 36V28H33V36H35ZM38 27H34V29H38V27ZM34 21H35V19H34V21ZM36 20V17H34V20H36ZM35 18H36V16H35V18ZM35 21H36V19H35V21ZM36 21H38V19H36V21ZM35 17V20H37V17H35ZM37.1056 20.4472L39.1056 24.4472L40.8944 23.5528L38.8944 19.5528L37.1056 20.4472ZM40 23H38V25H40V23ZM37 20V24H39V20H37ZM37 24V28H39V24H37ZM38 23H35V25H38V23ZM35 28V26H33V28H35ZM35 26V20H33V26H35Z" fill="black"/>
<path d="M43 24C43 25.6569 41.6569 27 40 27C38.3431 27 37 25.6569 37 24C37 22.3431 38.3431 21 40 21C41.6569 21 43 22.3431 43 24Z" fill="#D9D9D9" stroke="black" stroke-width="2"/>
<path d="M13 26H9V24V18H10V15H11V18H13L15 22H13V26Z" fill="#D9D9D9"/>
<path d="M13 26V27H14V26H13ZM9 26H8V27H9V26ZM9 18V17H8V18H9ZM10 15V14H9V15H10ZM11 15H12V14H11V15ZM13 18L13.8944 17.5528L13.618 17H13V18ZM15 22V23L15.8944 21.5528L15 22ZM13 25H9V27H13V25ZM9 19H10V17H9V19ZM11 18V15H9V18H11ZM10 16H11V14H10V16ZM10 19H11V17H10V19ZM11 19H13V17H11V19ZM10 15V18H12V15H10ZM12.1056 18.4472L14.1056 22.4472L15.8944 21.5528L13.8944 17.5528L12.1056 18.4472ZM15 21H13V23H15V21ZM12 18V22H14V18H12ZM12 22V26H14V22H12ZM10 26V24H8V26H10ZM10 24V18H8V24H10Z" fill="black"/>
<path d="M7 30H16V26H7V30Z" fill="#D9D9D9"/>
<path d="M16 36V30M16 30H7M16 30V26M7 30V36M7 30V26M16 26H7M16 26V26C17.6569 26 19 27.3431 19 29V29M7 26V26C7 23.7909 5.20914 22 3 22H2" stroke="black" stroke-width="2"/>
<path d="M18 23C18 24.6569 16.6569 26 15 26C13.3431 26 12 24.6569 12 23C12 21.3431 13.3431 20 15 20C16.6569 20 18 21.3431 18 23Z" fill="#D9D9D9" stroke="black" stroke-width="2"/>
</svg>
