<svg width="44" height="36" viewBox="0 0 44 36" fill="none" xmlns="http://www.w3.org/2000/svg">
<path d="M38 28H34V26V20H35V17H36V20H38L40 24H38V28Z" fill="#D9D9D9"/>
<path d="M34 20V19H33V20H34ZM35 17V16H34V17H35ZM36 17H37V16H36V17ZM38 20L38.8944 19.5528L38.618 19H38V20ZM40 24V25L40.8944 23.5528L40 24ZM37 28V36H39V28H37ZM35 36V28H33V36H35ZM38 27H34V29H38V27ZM34 21H35V19H34V21ZM36 20V17H34V20H36ZM35 18H36V16H35V18ZM35 21H36V19H35V21ZM36 21H38V19H36V21ZM35 17V20H37V17H35ZM37.1056 20.4472L39.1056 24.4472L40.8944 23.5528L38.8944 19.5528L37.1056 20.4472ZM40 23H38V25H40V23ZM37 20V24H39V20H37ZM37 24V28H39V24H37ZM38 23H35V25H38V23ZM35 28V26H33V28H35ZM35 26V20H33V26H35ZM33.2929 25.2929L28.2929 30.2929L29.7071 31.7071L34.7071 26.7071L33.2929 25.2929Z" fill="black"/>
<path d="M43 24C43 25.6569 41.6569 27 40 27C38.3431 27 37 25.6569 37 24C37 22.3431 38.3431 21 40 21C41.6569 21 43 22.3431 43 24Z" fill="#D9D9D9" stroke="black" stroke-width="2"/>
</svg>
