<svg width="120" height="120" viewBox="0 0 120 120" fill="none" xmlns="http://www.w3.org/2000/svg">
<rect opacity="0.05" y="48" width="48" height="24" fill="url(#paint0_linear_4041_16926)"/>
<rect opacity="0.05" width="44" height="24" transform="matrix(-1 0 0 1 116 48)" fill="url(#paint1_linear_4041_16926)"/>
<rect opacity="0.05" x="48" y="48" width="24" height="24" fill="black"/>
<rect opacity="0.05" x="48" y="72" width="24" height="48" fill="url(#paint2_linear_4041_16926)"/>
<path opacity="0.2" d="M58 49L120 49" stroke="black" stroke-width="2"/>
<path opacity="0.4" d="M13 67V71M13 71H16M13 71H0" stroke="black" stroke-width="2"/>
<rect width="6" height="8" transform="matrix(-1 0 0 1 49 49)" fill="#172801" fill-opacity="0.24" stroke="black" stroke-width="2"/>
<rect width="6" height="8" transform="matrix(-1 0 0 1 37 49)" fill="#172801" fill-opacity="0.24" stroke="black" stroke-width="2"/>
<rect width="6" height="8" transform="matrix(-1 0 0 1 25 49)" fill="black" fill-opacity="0.4" stroke="black" stroke-width="2"/>
<rect width="6" height="8" transform="matrix(-1 0 0 1 49 57)" fill="black" fill-opacity="0.4" stroke="black" stroke-width="2"/>
<rect width="6" height="9" transform="matrix(-1 0 0 1 89 57)" fill="black" fill-opacity="0.4" stroke="black" stroke-width="2"/>
<rect width="6" height="9" transform="matrix(-1 0 0 1 83 54)" fill="black" fill-opacity="0.4" stroke="black" stroke-width="2"/>
<rect width="6" height="9" transform="matrix(-1 0 0 1 95 54)" fill="#646562" stroke="black" stroke-width="2"/>
<rect width="6" height="9" transform="matrix(-1 0 0 1 107 62)" fill="#646562" stroke="black" stroke-width="2"/>
<rect width="6" height="5" transform="matrix(-1 0 0 1 71 88)" fill="black" fill-opacity="0.4" stroke="black" stroke-width="2"/>
<rect width="6" height="5" transform="matrix(-1 0 0 1 95 49)" fill="#646562" stroke="black" stroke-width="2"/>
<rect width="6" height="5" transform="matrix(-1 0 0 1 89 66)" fill="black" fill-opacity="0.4" stroke="black" stroke-width="2"/>
<rect width="6" height="5" transform="matrix(-1 0 0 1 101 66)" fill="black" fill-opacity="0.4" stroke="black" stroke-width="2"/>
<rect width="6" height="8" transform="matrix(-1 0 0 1 37 57)" fill="black" fill-opacity="0.4" stroke="black" stroke-width="2"/>
<rect x="25" y="71" width="6" height="5" transform="rotate(180 25 71)" fill="#172801" fill-opacity="0.24" stroke="black" stroke-width="2"/>
<rect width="6" height="5" transform="matrix(-1 0 0 1 43 49)" fill="black" fill-opacity="0.4" stroke="black" stroke-width="2"/>
<rect width="6" height="5" transform="matrix(-1 0 0 1 19 49)" fill="black" fill-opacity="0.4" stroke="black" stroke-width="2"/>
<rect width="6" height="9" transform="matrix(-1 0 0 1 43 62)" fill="#172801" fill-opacity="0.24" stroke="black" stroke-width="2"/>
<rect width="6" height="9" transform="matrix(-1 0 0 1 31 62)" fill="black" fill-opacity="0.4" stroke="black" stroke-width="2"/>
<path d="M18 71L16 71" stroke="black" stroke-width="2"/>
<path d="M54 49L50 49" stroke="black" stroke-width="2"/>
<path d="M88 49L84 49" stroke="black" stroke-width="2"/>
<path d="M100 49L96 49" stroke="black" stroke-width="2"/>
<path d="M82 71L78 71" stroke="black" stroke-width="2"/>
<path d="M112 71L108 71" stroke="black" stroke-width="2"/>
<path opacity="0.4" d="M27 48V50" stroke="black" stroke-width="2"/>
<path opacity="0.4" d="M10 49L2.98023e-07 49" stroke="black" stroke-width="2"/>
<path opacity="0.4" d="M7 50V54" stroke="black" stroke-width="2"/>
<path opacity="0.1" d="M53 117L49 117M49 117L49 120M49 117L49 112" stroke="black" stroke-width="2"/>
<path opacity="0.2" d="M117 67V71M117 71H120M117 71H112" stroke="black" stroke-width="2"/>
<path opacity="0.2" d="M71 102L71 120" stroke="black" stroke-width="2"/>
<path opacity="0.4" d="M49 79L49 71L40 71" stroke="black" stroke-width="2"/>
<path opacity="0.1" d="M82 71L71 71L71 80" stroke="black" stroke-width="2"/>
<path d="M32 49H43" stroke="black" stroke-width="2"/>
<path d="M40 41V48M40 41H37M40 41H43" stroke="black" stroke-width="2"/>
<path d="M34 41V48M34 41H31M34 41H37" stroke="black" stroke-width="2"/>
<path d="M46 41V48M46 41H43M46 41H49" stroke="black" stroke-width="2"/>
<path d="M22 48V16" stroke="black" stroke-width="2"/>
<path d="M6 17H15V23H6L7.8 20.6L8.25 20L7.8 19.4L6 17Z" fill="#CD8736" stroke="black" stroke-width="2"/>
<path d="M15 19H22V25H15V19Z" fill="#CD8736" stroke="black" stroke-width="2"/>
<defs>
<linearGradient id="paint0_linear_4041_16926" x1="48" y1="60" x2="-3.12924e-07" y2="60" gradientUnits="userSpaceOnUse">
<stop/>
<stop offset="1" stop-opacity="0"/>
</linearGradient>
<linearGradient id="paint1_linear_4041_16926" x1="44" y1="12" x2="-2.86847e-07" y2="12" gradientUnits="userSpaceOnUse">
<stop/>
<stop offset="1" stop-opacity="0"/>
</linearGradient>
<linearGradient id="paint2_linear_4041_16926" x1="60" y1="72" x2="60" y2="120" gradientUnits="userSpaceOnUse">
<stop/>
<stop offset="1" stop-opacity="0"/>
</linearGradient>
</defs>
</svg>
