<svg width="120" height="120" viewBox="0 0 120 120" fill="none" xmlns="http://www.w3.org/2000/svg">
<rect opacity="0.05" width="48" height="24" transform="matrix(1 0 0 -1 0 72)" fill="url(#paint0_linear_4041_17058)"/>
<rect opacity="0.05" x="120" y="72" width="48" height="24" transform="rotate(-180 120 72)" fill="url(#paint1_linear_4041_17058)"/>
<rect opacity="0.05" width="24" height="24" transform="matrix(1 0 0 -1 48 72)" fill="black"/>
<rect opacity="0.05" width="24" height="48" transform="matrix(1 0 0 -1 48 48)" fill="url(#paint2_linear_4041_17058)"/>
<path d="M117 46V48" stroke="black" stroke-width="2"/>
<path d="M93 48V16" stroke="black" stroke-width="2"/>
<path d="M77 17H86V23H77L78.8 20.6L79.25 20L78.8 19.4L77 17Z" fill="#CD8736" stroke="black" stroke-width="2"/>
<path d="M86 19H93V25H86V19Z" fill="#CD8736" stroke="black" stroke-width="2"/>
<rect x="78" y="49" width="6" height="12" fill="#3C3D3B" stroke="black" stroke-width="2"/>
<rect x="84" y="57" width="6" height="7" fill="black" fill-opacity="0.4" stroke="black" stroke-width="2"/>
<rect x="84" y="64" width="6" height="7" fill="black" fill-opacity="0.4" stroke="black" stroke-width="2"/>
<rect x="90" y="49" width="6" height="5" fill="black" fill-opacity="0.4" stroke="black" stroke-width="2"/>
<rect x="90" y="61" width="6" height="10" fill="#172801" fill-opacity="0.24" stroke="black" stroke-width="2"/>
<path d="M87 46V48" stroke="black" stroke-width="2"/>
<path d="M93 72V74" stroke="black" stroke-width="2"/>
<path d="M99 72V74" stroke="black" stroke-width="2"/>
<path opacity="0.4" d="M114 72V74" stroke="black" stroke-width="2"/>
<path d="M81 46V48" stroke="black" stroke-width="2"/>
<path d="M87 72V74" stroke="black" stroke-width="2"/>
<path opacity="0.4" d="M96 54V58" stroke="black" stroke-width="2"/>
<path opacity="0.4" d="M102 49V53" stroke="black" stroke-width="2"/>
<path d="M97 49H120" stroke="black" stroke-width="2"/>
<path opacity="0.4" d="M102 61V65" stroke="black" stroke-width="2"/>
<path opacity="0.4" d="M108 66V70" stroke="black" stroke-width="2"/>
<path opacity="0.4" d="M78 68V71H81" stroke="black" stroke-width="2"/>
<rect x="96" y="66" width="6" height="5" fill="#172801" fill-opacity="0.24" stroke="black" stroke-width="2"/>
<path d="M99 41H96M99 41H102M99 41V49" stroke="black" stroke-width="2"/>
<path d="M105 41H102M105 41H108M105 41V49" stroke="black" stroke-width="2"/>
<path d="M111 41H108M111 41H114M111 41V49" stroke="black" stroke-width="2"/>
<rect x="84" y="49" width="6" height="8" fill="#172801" fill-opacity="0.24" stroke="black" stroke-width="2"/>
<path opacity="0.1" d="M67 3L71 3M71 3L71 1.74846e-07M71 3L71 8" stroke="black" stroke-width="2"/>
<path opacity="0.1" d="M3 53L3 49M3 49H0M3 49H8" stroke="black" stroke-width="2"/>
<path opacity="0.2" d="M49 18L49 0" stroke="black" stroke-width="2"/>
<path opacity="0.1" d="M71 71L0 71" stroke="black" stroke-width="2"/>
<path opacity="0.2" d="M71 41L71 49L80 49" stroke="black" stroke-width="2"/>
<path opacity="0.2" d="M41 49L49 49L49 40" stroke="black" stroke-width="2"/>
<defs>
<linearGradient id="paint0_linear_4041_17058" x1="48" y1="12" x2="-3.12924e-07" y2="12" gradientUnits="userSpaceOnUse">
<stop/>
<stop offset="1" stop-opacity="0"/>
</linearGradient>
<linearGradient id="paint1_linear_4041_17058" x1="168" y1="84" x2="120" y2="84" gradientUnits="userSpaceOnUse">
<stop/>
<stop offset="1" stop-opacity="0"/>
</linearGradient>
<linearGradient id="paint2_linear_4041_17058" x1="12" y1="0" x2="12" y2="48" gradientUnits="userSpaceOnUse">
<stop/>
<stop offset="1" stop-opacity="0"/>
</linearGradient>
</defs>
</svg>
