<svg width="120" height="120" viewBox="0 0 120 120" fill="none" xmlns="http://www.w3.org/2000/svg">
<path d="M15 51.9167L20 42L24.5 51H23L29 61H27L32 72H22H18H8L13 62H11L16.5 51.9167H15Z" fill="#4E5B49"/>
<path d="M22 76V72M18 72H8L13 62H11L16.5 51.9167H15L20 42L24.5 51H23L29 61H27L32 72H22M18 72H22M18 72V76" stroke="black" stroke-width="2"/>
<rect opacity="0.2" x="17" y="61" width="2" height="4" fill="black"/>
<rect opacity="0.2" x="19" y="57" width="2" height="4" fill="black"/>
<rect x="24" y="69" width="2" height="4" fill="black"/>
<rect x="19" y="20" width="2" height="4" fill="black" fill-opacity="0.2"/>
<rect x="23" y="20" width="2" height="4" fill="black" fill-opacity="0.2"/>
<rect x="27" y="20" width="2" height="4" fill="black" fill-opacity="0.2"/>
<rect x="11" y="41" width="2" height="4" fill="black" fill-opacity="0.2"/>
<path d="M98 91L98 98M98 116L98 104M98 104L106 104L106 95M98 104L98 98M106 73L106 84M98 98L94 98L94 92M94 80.5L94 87M106 95L102 95M106 95L106 90M106 90L110 90M106 90L106 84M106 84L102 84M94 92L90 92M94 92L94 87M94 87L98 87" stroke="black" stroke-width="2"/>
<path d="M67 91.9167L72 82L76.5 91H75L81 101H79L84 112H74H70H60L65 102H63L68.5 91.9167H67Z" fill="#4E5B49"/>
<path d="M74 116V112M70 112H60L65 102H63L68.5 91.9167H67L72 82L76.5 91H75L81 101H79L84 112H74M70 112H74M70 112V116" stroke="black" stroke-width="2"/>
<rect opacity="0.2" x="69" y="101" width="2" height="4" fill="black"/>
<rect opacity="0.2" x="71" y="97" width="2" height="4" fill="black"/>
<rect x="76" y="109" width="2" height="4" fill="black"/>
<path d="M91 35.9167L96 26L100.5 35H99L105 45H103L108 56H98H94H84L89 46H87L92.5 35.9167H91Z" fill="#4E5B49"/>
<path d="M98 60V56M94 56H84L89 46H87L92.5 35.9167H91L96 26L100.5 35H99L105 45H103L108 56H98M94 56H98M94 56V60" stroke="black" stroke-width="2"/>
<rect opacity="0.2" x="93" y="45" width="2" height="4" fill="black"/>
<rect opacity="0.2" x="95" y="41" width="2" height="4" fill="black"/>
<rect x="100" y="53" width="2" height="4" fill="black"/>
<path d="M63 15.9167L68 6L72.5 15H71L76 25H74L78 33L76 32L80 40H70H66H56L60 32L56.5 33L62.0909 24H60.0909L64.5 15.9167H63Z" fill="#5B5549"/>
<path d="M70 44V40M66 40H56L60 32L56.5 33L62.0909 24H60.0909L64.5 15.9167H63L68 6L72.5 15H71L76 25H74L78 33L76 32L80 40H70M66 40H70M66 40V44" stroke="black" stroke-width="2"/>
<rect opacity="0.4" x="65" y="30" width="2" height="4" fill="black"/>
<rect opacity="0.4" x="69" y="26" width="2" height="4" fill="black"/>
<rect opacity="0.4" x="73" y="35" width="2" height="4" fill="black"/>
<rect x="65" y="36" width="2" height="4" fill="black"/>
</svg>
