<svg width="120" height="124" viewBox="0 0 120 124" fill="none" xmlns="http://www.w3.org/2000/svg">
<path d="M16 53L21 43L25 53H23.5L29 62.5H26L33.5 73H21H17.5H7L13.5 63.5H11L17.5 53H16Z" fill="#4E5B49"/>
<path d="M21 79V73M17.5 73H7L13.5 63.5H11L17.5 53H16L21 43L25 53H23.5L29 62.5H26L33.5 73H21M17.5 73H21M17.5 73V79" stroke="black" stroke-width="2"/>
<path d="M54 13L59 3L63 13H61.5L67 24.5H64L71.5 33H59H55.5H45L51.5 24.5H49L55.5 13H54Z" fill="#4E5B49"/>
<path d="M59 39V33M55.5 33H45L51.5 24.5H49L55.5 13H54L59 3L63 13H61.5L67 24.5H64L71.5 33H59M55.5 33H59M55.5 33V39H52.5" stroke="black" stroke-width="2"/>
<path d="M90 31L95 21L99 31H97.5L103 42.5H100L107.5 51H95H91.5H81L87.5 42.5H85L91.5 31H90Z" fill="#4E5B49"/>
<path d="M95 57V51M91.5 51H81L87.5 42.5H85L91.5 31H90L95 21L99 31H97.5L103 42.5H100L107.5 51H95M91.5 51H95M91.5 51V57H88.5" stroke="black" stroke-width="2"/>
<path d="M98 90L103 80L107 90H105.5L111 101.5H108L115.5 110H103H99.5H89L95.5 101.5H93L99.5 90H98Z" fill="#4E5B49"/>
<path d="M103 116V110M99.5 110H89L95.5 101.5H93L99.5 90H98L103 80L107 90H105.5L111 101.5H108L115.5 110H103M99.5 110H103M99.5 110V116H96.5V119L94 117" stroke="black" stroke-width="2"/>
<path d="M69 65L74 55L78 65H76.5L82 76.5H79L86.5 85H74H70.5H60L66.5 76.5H64L70.5 65H69Z" fill="#4E5B49"/>
<path d="M74 87V85M70.5 85H60L66.5 76.5H64L70.5 65H69L74 55L78 65H76.5L82 76.5H79L86.5 85H74M70.5 85H74M70.5 85V89" stroke="black" stroke-width="2"/>
<path opacity="0.2" d="M63 78V80" stroke="black" stroke-width="2"/>
<path opacity="0.2" d="M15 28V32" stroke="black" stroke-width="2"/>
<path opacity="0.2" d="M23 28V30" stroke="black" stroke-width="2"/>
<path opacity="0.2" d="M67 78V80" stroke="black" stroke-width="2"/>
<path d="M32 90L37 80L41 90H39.5L45 101.5H42L49.5 110H37H33.5H23L29.5 101.5H27L33.5 90H32Z" fill="#4E5B49"/>
<path d="M37 116V110M33.5 110H23L29.5 101.5H27L33.5 90H32L37 80L41 90H39.5L45 101.5H42L49.5 110H37M33.5 110H37M33.5 110V116H30.5" stroke="black" stroke-width="2"/>
<path d="M54 79L59 69L63 79H61.5L67 90.5H64L71.5 99H59H55.5H45L51.5 90.5H49L55.5 79H54Z" fill="#4E5B49"/>
<path d="M59 101V99M55.5 99H45L51.5 90.5H49L55.5 79H54L59 69L63 79H61.5L67 90.5H64L71.5 99H59M55.5 99H59M55.5 99V103" stroke="black" stroke-width="2"/>
<path d="M72 88L77 78L81 88H79.5L85 97.5H82L89.5 108H77H73.5H63L69.5 98.5H67L73.5 88H72Z" fill="#4E5B49"/>
<path d="M77 114V108M73.5 108H63L69.5 98.5H67L73.5 88H72L77 78L81 88H79.5L85 97.5H82L89.5 108H77M73.5 108H77M73.5 108V114" stroke="black" stroke-width="2"/>
</svg>
