<svg width="124" height="120" viewBox="0 0 124 120" fill="none" xmlns="http://www.w3.org/2000/svg">
<path d="M91 83.9167L96 74L100.5 83H99L104 93H102L106 101L104 100L108 108H98H94H84L88 100L84.5 101L90.0909 92H88.0909L92.5 83.9167H91Z" fill="#5B5549"/>
<path d="M98 112V108M94 108H84L88 100L84.5 101L90.0909 92H88.0909L92.5 83.9167H91L96 74L100.5 83H99L104 93H102L106 101L104 100L108 108H98M94 108H98M94 108V112" stroke="black" stroke-width="2"/>
<rect opacity="0.4" x="93" y="98" width="2" height="4" fill="black"/>
<rect opacity="0.4" x="97" y="94" width="2" height="4" fill="black"/>
<rect opacity="0.4" x="101" y="103" width="2" height="4" fill="black"/>
<rect x="93" y="104" width="2" height="4" fill="black"/>
<rect x="62" y="95" width="2" height="4" fill="black" fill-opacity="0.2"/>
<rect x="76" y="101" width="2" height="4" fill="black" fill-opacity="0.2"/>
<path d="M64 4V11M76 38H72M64 44V38M64 38V34M64 38H72M64 34V28M64 34H59M54 34H59M64 28H72M64 28V23M64 23H57M64 23V20M64 20H70M64 20V14M64 14H59M64 14V11M64 11H68M72 38V33M59 34V30" stroke="black" stroke-width="2"/>
<path d="M31 19.9167L36 10L40.5 19H39L44 29H42L46 37L44 36L48 44H38H34H24L28 36L24.5 37L30.0909 28H28.0909L32.5 19.9167H31Z" fill="#5B5549"/>
<path d="M38 48V44M34 44H24L28 36L24.5 37L30.0909 28H28.0909L32.5 19.9167H31L36 10L40.5 19H39L44 29H42L46 37L44 36L48 44H38M34 44H38M34 44V48" stroke="black" stroke-width="2"/>
<rect opacity="0.4" x="33" y="34" width="2" height="4" fill="black"/>
<rect opacity="0.4" x="37" y="30" width="2" height="4" fill="black"/>
<rect opacity="0.4" x="41" y="39" width="2" height="4" fill="black"/>
<rect x="33" y="40" width="2" height="4" fill="black"/>
<path d="M91 39.9167L96 30L100.5 39H99L105 49H103L108 60H98H94H84L89 50H87L92.5 39.9167H91Z" fill="#4E5B49"/>
<path d="M98 64V60M94 60H84L89 50H87L92.5 39.9167H91L96 30L100.5 39H99L105 49H103L108 60H98M94 60H98M94 60V64" stroke="black" stroke-width="2"/>
<rect opacity="0.2" x="93" y="49" width="2" height="4" fill="black"/>
<rect opacity="0.2" x="95" y="45" width="2" height="4" fill="black"/>
<rect x="100" y="57" width="2" height="4" fill="black"/>
<path d="M47 31.9167L52 22L56.5 31H55L60 41H58L62 49L60 48L64 56H54H50H40L44 48L40.5 49L46.0909 40H44.0909L48.5 31.9167H47Z" fill="#5B5549"/>
<path d="M54 60V56M50 56H40L44 48L40.5 49L46.0909 40H44.0909L48.5 31.9167H47L52 22L56.5 31H55L60 41H58L62 49L60 48L64 56H54M50 56H54M50 56V60" stroke="black" stroke-width="2"/>
<rect opacity="0.4" x="49" y="46" width="2" height="4" fill="black"/>
<rect opacity="0.4" x="53" y="42" width="2" height="4" fill="black"/>
<rect opacity="0.4" x="57" y="51" width="2" height="4" fill="black"/>
<rect x="49" y="52" width="2" height="4" fill="black"/>
<path d="M15 35.9167L20 26L24.5 35H23L29 45H27L32 56H22H18H8L13 46H11L16.5 35.9167H15Z" fill="#4E5B49"/>
<path d="M22 60V56M18 56H8L13 46H11L16.5 35.9167H15L20 26L24.5 35H23L29 45H27L32 56H22M18 56H22M18 56V60" stroke="black" stroke-width="2"/>
<rect opacity="0.2" x="17" y="45" width="2" height="4" fill="black"/>
<rect opacity="0.2" x="19" y="41" width="2" height="4" fill="black"/>
<rect x="24" y="53" width="2" height="4" fill="black"/>
<path d="M31 51.9167L36 42L40.5 51H39L45 61H43L48 72H38H34H24L29 62H27L32.5 51.9167H31Z" fill="#4E5B49"/>
<path d="M38 76V72M34 72H24L29 62H27L32.5 51.9167H31L36 42L40.5 51H39L45 61H43L48 72H38M34 72H38M34 72V76" stroke="black" stroke-width="2"/>
<rect opacity="0.2" x="33" y="61" width="2" height="4" fill="black"/>
<rect opacity="0.2" x="35" y="57" width="2" height="4" fill="black"/>
<rect x="40" y="69" width="2" height="4" fill="black"/>
</svg>
