<svg width="124" height="121" viewBox="0 0 124 121" fill="none" xmlns="http://www.w3.org/2000/svg">
<path d="M15 52.9167L20 43L24.5 52H23L29 62H27L32 73H22H18H8L13 63H11L16.5 52.9167H15Z" fill="#4E5B49"/>
<path d="M22 77V73M18 73H8L13 63H11L16.5 52.9167H15L20 43L24.5 52H23L29 62H27L32 73H22M18 73H22M18 73V77" stroke="black" stroke-width="2"/>
<rect opacity="0.2" x="17" y="62" width="2" height="4" fill="black"/>
<rect opacity="0.2" x="19" y="58" width="2" height="4" fill="black"/>
<rect x="24" y="70" width="2" height="4" fill="black"/>
<rect x="19" y="21" width="2" height="4" fill="black" fill-opacity="0.2"/>
<rect x="38" y="49" width="2" height="4" fill="black" fill-opacity="0.2"/>
<path d="M31 84.9167L36 75L40.5 84H39L45 94H43L48 105H38H34H24L29 95H27L32.5 84.9167H31Z" fill="#4E5B49"/>
<path d="M38 109V105M34 105H24L29 95H27L32.5 84.9167H31L36 75L40.5 84H39L45 94H43L48 105H38M34 105H38M34 105V109" stroke="black" stroke-width="2"/>
<rect opacity="0.2" x="33" y="94" width="2" height="4" fill="black"/>
<rect opacity="0.2" x="35" y="90" width="2" height="4" fill="black"/>
<rect x="40" y="102" width="2" height="4" fill="black"/>
<path d="M104 77V84M116 111H112M104 117V111M104 111V107M104 111H112M104 107V101M104 107H99M94 107H99M104 101H112M104 101V96M104 96H97M104 96V93M104 93H110M104 93V87M104 87H99M104 87V84M104 84H108M112 111V106M99 107V103" stroke="black" stroke-width="2"/>
<path d="M54 76L54 83M54 101L54 89M54 89L62 89L62 80M54 89L54 83M62 58L62 69M54 83L50 83L50 77M50 65.5L50 72M62 80L58 80M62 80L62 75M62 75L66 75M62 75L62 69M62 69L58 69M50 77L46 77M50 77L50 72M50 72L54 72" stroke="black" stroke-width="2"/>
<path d="M55 12.9167L60 3L64.5 12H63L68 22H66L70 30L68 29L72 37H62H58H48L52 29L48.5 30L54.0909 21H52.0909L56.5 12.9167H55Z" fill="#5B5549"/>
<path d="M62 41V37M58 37H48L52 29L48.5 30L54.0909 21H52.0909L56.5 12.9167H55L60 3L64.5 12H63L68 22H66L70 30L68 29L72 37H62M58 37H62M58 37V41" stroke="black" stroke-width="2"/>
<rect opacity="0.4" x="57" y="27" width="2" height="4" fill="black"/>
<rect opacity="0.4" x="61" y="23" width="2" height="4" fill="black"/>
<rect opacity="0.4" x="65" y="32" width="2" height="4" fill="black"/>
<rect x="57" y="33" width="2" height="4" fill="black"/>
<path d="M71 80.9167L76 71L80.5 80H79L84 90H82L86 98L84 97L88 105H78H74H64L68 97L64.5 98L70.0909 89H68.0909L72.5 80.9167H71Z" fill="#5B5549"/>
<path d="M78 109V105M74 105H64L68 97L64.5 98L70.0909 89H68.0909L72.5 80.9167H71L76 71L80.5 80H79L84 90H82L86 98L84 97L88 105H78M74 105H78M74 105V109" stroke="black" stroke-width="2"/>
<rect opacity="0.4" x="73" y="95" width="2" height="4" fill="black"/>
<rect opacity="0.4" x="77" y="91" width="2" height="4" fill="black"/>
<rect opacity="0.4" x="81" y="100" width="2" height="4" fill="black"/>
<rect x="73" y="101" width="2" height="4" fill="black"/>
</svg>
