<svg width="124" height="120" viewBox="0 0 124 120" fill="none" xmlns="http://www.w3.org/2000/svg">
<path fill-rule="evenodd" clip-rule="evenodd" d="M83.055 106C83.0186 105.835 83 105.669 83 105.5C83 102.462 89.0442 100 96.5 100C103.956 100 110 102.462 110 105.5C110 105.669 109.981 105.835 109.945 106H110L109.937 106.034C109.441 108.132 106.05 109.886 101.411 110.625L97 113L92.5122 110.756C87.4023 110.113 83.5881 108.268 83.0621 106.031L83 106H83.055Z" fill="url(#paint0_linear_3722_31878)" fill-opacity="0.2"/>
<path d="M101 84.9167L96 75L91.5 84H93L87 94H89L84 101C84 101.657 84.3233 102.307 84.9515 102.913C85.5797 103.52 86.5004 104.071 87.6612 104.536C88.8219 105 90.1999 105.368 91.7165 105.619C93.233 105.871 94.8585 106 96.5 106C98.1415 106 99.767 105.871 101.284 105.619C102.8 105.368 104.178 105 105.339 104.536C106.5 104.071 107.42 103.52 108.048 102.913C108.677 102.307 109 101.657 109 101L103 93H105L99.5 84.9167H101Z" fill="#605237" stroke="black" stroke-width="2"/>
<rect opacity="0.2" width="2" height="4" transform="matrix(-1 0 0 1 99 97)" fill="black"/>
<rect width="2" height="4" transform="matrix(-1 0 0 1 104 103)" fill="#605237"/>
<rect x="86" y="102" width="2" height="4" fill="#605237"/>
<rect x="88" y="102" width="2" height="4" fill="black"/>
<rect x="100" y="103" width="2" height="4" fill="black"/>
<rect opacity="0.2" width="2" height="4" transform="matrix(-1 0 0 1 97 93)" fill="black"/>
<rect x="62" y="95" width="2" height="4" fill="black" fill-opacity="0.2"/>
<rect x="76" y="101" width="2" height="4" fill="black" fill-opacity="0.2"/>
<path d="M74 31H70M64 37V31M64 31V27M64 31H70M64 27V21M64 27H59M54 27H59M64 21H70M64 21V16M64 16H57M64 16V13M64 13H69M64 13V7V4M70 31V26M59 27V23" stroke="black" stroke-width="2"/>
<path opacity="0.2" d="M74 43H70M64 37V43M64 43V47M64 43H70M64 47V53M64 47H59M54 47H59M70 43V48M59 47V51" stroke="url(#paint1_linear_3722_31878)" stroke-width="2"/>
<path d="M31 19.9167L36 10L40.5 19H39L44 29H42L46 37L44 36L48 44H38H34H24L28 36L24.5 37L30.0909 28H28.0909L32.5 19.9167H31Z" fill="#5B5549"/>
<path d="M38 48V44M34 44H24L28 36L24.5 37L30.0909 28H28.0909L32.5 19.9167H31L36 10L40.5 19H39L44 29H42L46 37L44 36L48 44H38M34 44H38M34 44V48" stroke="black" stroke-width="2"/>
<rect opacity="0.4" x="33" y="34" width="2" height="4" fill="black"/>
<rect opacity="0.4" x="37" y="30" width="2" height="4" fill="black"/>
<rect opacity="0.4" x="41" y="39" width="2" height="4" fill="black"/>
<rect x="33" y="40" width="2" height="4" fill="black"/>
<path fill-rule="evenodd" clip-rule="evenodd" d="M83.055 58C83.0186 57.8353 83 57.6685 83 57.5C83 54.4624 89.0442 52 96.5 52C103.956 52 110 54.4624 110 57.5C110 57.6685 109.981 57.8353 109.945 58H110L109.937 58.0338C109.441 60.1324 106.05 61.8862 101.411 62.6247L97 65L92.5122 62.7561C87.4023 62.1133 83.5881 60.2678 83.0621 58.0311L83 58H83.055Z" fill="url(#paint2_linear_3722_31878)" fill-opacity="0.2"/>
<path d="M102.988 40L96 27L91.5 36H93L87 46H89L84 53C84 53.6566 84.3233 54.3068 84.9515 54.9134C85.5797 55.52 86.5004 56.0712 87.6612 56.5355C88.8219 56.9998 90.1999 57.3681 91.7165 57.6194C93.233 57.8707 94.8585 58 96.5 58C98.1415 58 99.767 57.8707 101.284 57.6194C102.8 57.3681 104.178 56.9998 105.339 56.5355C106.5 56.0712 107.42 55.52 108.048 54.9134C108.677 54.3068 109 53.6566 109 53L104 47H106L101.488 40H102.988Z" fill="#4E5B49" stroke="black" stroke-width="2"/>
<rect opacity="0.2" width="2" height="4" transform="matrix(-1 0 0 1 102 48)" fill="black"/>
<rect opacity="0.2" width="2" height="4" transform="matrix(-1 0 0 1 98 46)" fill="black"/>
<rect opacity="0.2" width="2" height="4" transform="matrix(-1 0 0 1 94 48)" fill="black"/>
<rect width="2" height="4" transform="matrix(-1 0 0 1 89 55)" fill="black"/>
<rect width="2" height="4" transform="matrix(-1 0 0 1 108 53)" fill="black"/>
<rect width="2" height="4" transform="matrix(-1 0 0 1 104 55)" fill="black"/>
<rect width="2" height="5" transform="matrix(-1 0 0 1 106 54)" fill="#4E5B49"/>
<path fill-rule="evenodd" clip-rule="evenodd" d="M64.945 54C64.9814 53.8353 65 53.6685 65 53.5C65 50.4624 58.9558 48 51.5 48C44.0442 48 38 50.4624 38 53.5C38 53.6685 38.0186 53.8353 38.055 54H38L38.0628 54.0338C38.5589 56.1324 41.9496 57.8862 46.5888 58.6247L51 61L55.4878 58.7561C60.5977 58.1133 64.4119 56.2678 64.9379 54.0311L65 54H64.945Z" fill="url(#paint3_linear_3722_31878)" fill-opacity="0.2"/>
<path d="M47 32.9167L52 23L56.5 32H55L61 42H59L64 49C64 49.6566 63.6767 50.3068 63.0485 50.9134C62.4203 51.52 61.4996 52.0712 60.3388 52.5355C59.1781 52.9998 57.8001 53.3681 56.2835 53.6194C54.767 53.8707 53.1415 54 51.5 54C49.8585 54 48.233 53.8707 46.7165 53.6194C45.1999 53.3681 43.8219 52.9998 42.6612 52.5355C41.5004 52.0712 40.5797 51.52 39.9515 50.9134C39.3233 50.3068 39 49.6566 39 49L45 41H43L48.5 32.9167H47Z" fill="#605237" stroke="black" stroke-width="2"/>
<rect opacity="0.2" x="49" y="45" width="2" height="4" fill="black"/>
<rect x="44" y="51" width="2" height="4" fill="#605237"/>
<rect width="2" height="4" transform="matrix(-1 -8.74228e-08 -8.74228e-08 1 62 50)" fill="#605237"/>
<rect width="2" height="4" transform="matrix(-1 -8.74228e-08 -8.74228e-08 1 60 50)" fill="black"/>
<rect width="2" height="4" transform="matrix(-1 8.74228e-08 8.74228e-08 1 48 51)" fill="black"/>
<rect opacity="0.2" x="51" y="41" width="2" height="4" fill="black"/>
<path fill-rule="evenodd" clip-rule="evenodd" d="M32.945 54C32.9814 53.8353 33 53.6685 33 53.5C33 50.4624 26.9558 48 19.5 48C12.0442 48 6 50.4624 6 53.5C6 53.6685 6.01861 53.8353 6.05503 54H6L6.06277 54.0338C6.55886 56.1324 9.94962 57.8862 14.5888 58.6247L19 61L23.4878 58.7561C28.5977 58.1133 32.4119 56.2678 32.9379 54.0311L33 54H32.945Z" fill="url(#paint4_linear_3722_31878)" fill-opacity="0.2"/>
<path d="M13.0124 36L20 23L24.5 32H23L29 42H27L32 49C32 49.6566 31.6767 50.3068 31.0485 50.9134C30.4203 51.52 29.4996 52.0712 28.3388 52.5355C27.1781 52.9998 25.8001 53.3681 24.2835 53.6194C22.767 53.8707 21.1415 54 19.5 54C17.8585 54 16.233 53.8707 14.7165 53.6194C13.1999 53.3681 11.8219 52.9998 10.6612 52.5355C9.50043 52.0712 8.57969 51.52 7.95151 50.9134C7.32332 50.3068 7 49.6566 7 49L12 43H10L14.5124 36H13.0124Z" fill="#4E5B49" stroke="black" stroke-width="2"/>
<rect opacity="0.2" x="14" y="44" width="2" height="4" fill="black"/>
<rect opacity="0.2" x="18" y="42" width="2" height="4" fill="black"/>
<rect opacity="0.2" x="22" y="44" width="2" height="4" fill="black"/>
<rect x="27" y="51" width="2" height="4" fill="black"/>
<rect x="8" y="49" width="2" height="4" fill="black"/>
<rect x="12" y="51" width="2" height="4" fill="black"/>
<rect x="10" y="50" width="2" height="5" fill="#4E5B49"/>
<path fill-rule="evenodd" clip-rule="evenodd" d="M23.055 70C23.0186 69.8353 23 69.6685 23 69.5C23 66.4624 29.0442 64 36.5 64C43.9558 64 50 66.4624 50 69.5C50 69.6685 49.9814 69.8353 49.945 70H50L49.9372 70.0338C49.4411 72.1324 46.0504 73.8862 41.4112 74.6247L37 77L32.5122 74.7561C27.4023 74.1133 23.5881 72.2678 23.0621 70.0311L23 70H23.055Z" fill="url(#paint5_linear_3722_31878)" fill-opacity="0.2"/>
<path d="M42.9876 52L36 39L31.5 48H33L27 58H29L24 65C24 65.6566 24.3233 66.3068 24.9515 66.9134C25.5797 67.52 26.5004 68.0712 27.6612 68.5355C28.8219 68.9998 30.1999 69.3681 31.7165 69.6194C33.233 69.8707 34.8585 70 36.5 70C38.1415 70 39.767 69.8707 41.2835 69.6194C42.8001 69.3681 44.1781 68.9998 45.3388 68.5355C46.4996 68.0712 47.4203 67.52 48.0485 66.9134C48.6767 66.3068 49 65.6566 49 65L44 59H46L41.4876 52H42.9876Z" fill="#4E5B49" stroke="black" stroke-width="2"/>
<rect opacity="0.2" width="2" height="4" transform="matrix(-1 0 0 1 42 60)" fill="black"/>
<rect opacity="0.2" width="2" height="4" transform="matrix(-1 0 0 1 38 58)" fill="black"/>
<rect opacity="0.2" width="2" height="4" transform="matrix(-1 0 0 1 34 60)" fill="black"/>
<rect width="2" height="4" transform="matrix(-1 0 0 1 29 67)" fill="black"/>
<rect width="2" height="4" transform="matrix(-1 0 0 1 48 65)" fill="black"/>
<rect width="2" height="4" transform="matrix(-1 0 0 1 44 67)" fill="black"/>
<rect width="2" height="5" transform="matrix(-1 0 0 1 46 66)" fill="#4E5B49"/>
<defs>
<linearGradient id="paint0_linear_3722_31878" x1="96.5" y1="100" x2="96.5" y2="113" gradientUnits="userSpaceOnUse">
<stop/>
<stop offset="1" stop-opacity="0"/>
</linearGradient>
<linearGradient id="paint1_linear_3722_31878" x1="64" y1="50.5" x2="64" y2="37.0001" gradientUnits="userSpaceOnUse">
<stop stop-opacity="0"/>
<stop offset="1"/>
</linearGradient>
<linearGradient id="paint2_linear_3722_31878" x1="96.5" y1="59" x2="96.5" y2="65" gradientUnits="userSpaceOnUse">
<stop/>
<stop offset="1" stop-opacity="0"/>
</linearGradient>
<linearGradient id="paint3_linear_3722_31878" x1="51.5" y1="48" x2="51.5" y2="61" gradientUnits="userSpaceOnUse">
<stop/>
<stop offset="1" stop-opacity="0"/>
</linearGradient>
<linearGradient id="paint4_linear_3722_31878" x1="19.5" y1="55" x2="19.5" y2="61" gradientUnits="userSpaceOnUse">
<stop/>
<stop offset="1" stop-opacity="0"/>
</linearGradient>
<linearGradient id="paint5_linear_3722_31878" x1="36.5" y1="71" x2="36.5" y2="77" gradientUnits="userSpaceOnUse">
<stop/>
<stop offset="1" stop-opacity="0"/>
</linearGradient>
</defs>
</svg>
