<svg width="120" height="124" viewBox="0 0 120 124" fill="none" xmlns="http://www.w3.org/2000/svg">
<path d="M28 18L33 8L37 18H35.5L41 27.5H38L45.5 38H33H29H19L25.5 28.5H23L29.5 18H28Z" fill="#4E5B49"/>
<path d="M33 44V38M29 38H19L25.5 28.5H23L29.5 18H28L33 8L37 18H35.5L41 27.5H38L45.5 38H33M29 38H33M29 38V44" stroke="black" stroke-width="2"/>
<path d="M54 13L59 3L63 13H61.5L67 24.5H64L71.5 33H59H55.5H45L51.5 24.5H49L55.5 13H54Z" fill="#4E5B49"/>
<path d="M59 39V33M55.5 33H45L51.5 24.5H49L55.5 13H54L59 3L63 13H61.5L67 24.5H64L71.5 33H59M55.5 33H59M55.5 33V39H52.5" stroke="black" stroke-width="2"/>
<path d="M90 31L95 21L99 31H97.5L103 42.5H100L107.5 51H95H91.5H81L87.5 42.5H85L91.5 31H90Z" fill="#4E5B49"/>
<path d="M95 57V51M91.5 51H81L87.5 42.5H85L91.5 31H90L95 21L99 31H97.5L103 42.5H100L107.5 51H95M91.5 51H95M91.5 51V57H88.5" stroke="black" stroke-width="2"/>
<path d="M14 38L19 28L23 38H21.5L27 49.5H24L31.5 58H19H15H5L11.5 49.5H9L15.5 38H14Z" fill="#4E5B49"/>
<path d="M19 64V58M15 58H5L11.5 49.5H9L15.5 38H14L19 28L23 38H21.5L27 49.5H24L31.5 58H19M15 58H19M15 58V64H12V67" stroke="black" stroke-width="2"/>
<path d="M43 31L48 21L52 31H50.5L56 42.5H53L60.5 51H48H44.5H34L40.5 42.5H38L44.5 31H43Z" fill="#4E5B49"/>
<path d="M48 53V51M44.5 51H34L40.5 42.5H38L44.5 31H43L48 21L52 31H50.5L56 42.5H53L60.5 51H48M44.5 51H48M44.5 51V55" stroke="black" stroke-width="2"/>
<path opacity="0.2" d="M63 78V80" stroke="black" stroke-width="2"/>
<path opacity="0.2" d="M15 28V32" stroke="black" stroke-width="2"/>
<path opacity="0.2" d="M23 28V30" stroke="black" stroke-width="2"/>
<path opacity="0.2" d="M67 78V80" stroke="black" stroke-width="2"/>
<path d="M32 56L37 46L41 56H39.5L45 65.5H42L49.5 76H37H33H23L29.5 66.5H27L33.5 56H32Z" fill="#4E5B49"/>
<path d="M37 82V76M33 76H23L29.5 66.5H27L33.5 56H32L37 46L41 56H39.5L45 65.5H42L49.5 76H37M33 76H37M33 76V82" stroke="black" stroke-width="2"/>
<path d="M80 83L85 73L89 83H87.5L93 94.5H90L97.5 103H85H81H71L77.5 94.5H75L81.5 83H80Z" fill="#4E5B49"/>
<path d="M85 109V103M81 103H71L77.5 94.5H75L81.5 83H80L85 73L89 83H87.5L93 94.5H90L97.5 103H85M81 103H85M81 103V109H78" stroke="black" stroke-width="2"/>
</svg>
