<svg width="120" height="120" viewBox="0 0 120 120" fill="none" xmlns="http://www.w3.org/2000/svg">
<path opacity="0.1" d="M68.8592 62.8983L69.3534 58.929" stroke="black" stroke-opacity="0.4" stroke-width="2"/>
<path opacity="0.1" d="M14.9254 107.577L15.1725 105.592" stroke="black" stroke-opacity="0.4" stroke-width="2"/>
<path fill-rule="evenodd" clip-rule="evenodd" d="M49 86V98H37H32H28H23V86H37H49ZM27 80.1429V78H25V81.5714L27 80.1429Z" fill="white"/>
<path d="M37 83L30 78L27 80.1429L25 81.5714L23 83V86H37V83Z" fill="white"/>
<path d="M37 83L30 78L27 80.1429L25 81.5714L23 83V86H37V83Z" fill="#9D3F3F"/>
<path d="M30 78L37 83V86H49V83L42 78H30Z" fill="white"/>
<path d="M30 78L37 83V86H49V83L42 78H30Z" fill="#9D3F3F"/>
<path d="M37 98V86M37 98H49M37 98H32M49 98H32M49 98V86M30 78L37 83V86M30 78H42L49 83V86M30 78L27 80.1429M28 98H23V86M28 98H32M28 98V94V90H32V98M43 89V94M23 86V83L25 81.5714M23 86H37M37 86H49M25 81.5714V78H27V80.1429M25 81.5714L27 80.1429" stroke="black" stroke-width="2"/>
<path opacity="0.1" d="M106.859 54.8983L107.353 50.929" stroke="black" stroke-opacity="0.4" stroke-width="2"/>
<path opacity="0.1" d="M52.9254 99.5767L53.1725 97.592" stroke="black" stroke-opacity="0.4" stroke-width="2"/>
<path fill-rule="evenodd" clip-rule="evenodd" d="M87 78V90H75H70H66H61V78H75H87ZM65 72.1429V70H63V73.5714L65 72.1429Z" fill="white"/>
<path d="M75 75L68 70L65 72.1429L63 73.5714L61 75V78H75V75Z" fill="white"/>
<path d="M75 75L68 70L65 72.1429L63 73.5714L61 75V78H75V75Z" fill="#9D3F3F"/>
<path d="M68 70L75 75V78H87V75L80 70H68Z" fill="white"/>
<path d="M68 70L75 75V78H87V75L80 70H68Z" fill="#9D3F3F"/>
<path d="M75 90V78M75 90H87M75 90H70M87 90H70M87 90V78M68 70L75 75V78M68 70H80L87 75V78M68 70L65 72.1429M66 90H61V78M66 90H70M66 90V86V82H70V90M81 81V86M61 78V75L63 73.5714M61 78H75M75 78H87M63 73.5714V70H65V72.1429M63 73.5714L65 72.1429" stroke="black" stroke-width="2"/>
<path d="M42 27L47 17L51 27H49.5L55 38.5H52L59.5 47H47H43.5H33L39.5 38.5H37L43.5 27H42Z" fill="#4E5B49"/>
<path d="M47 53V47M43.5 47H33L39.5 38.5H37L43.5 27H42L47 17L51 27H49.5L55 38.5H52L59.5 47H47M43.5 47H47M43.5 47V53H40.5" stroke="black" stroke-width="2"/>
</svg>
