<svg width="120" height="120" viewBox="0 0 120 120" fill="none" xmlns="http://www.w3.org/2000/svg">
<path d="M48 83L68 87L88 83V79H48V83Z" fill="url(#paint0_linear_63_14062)" fill-opacity="0.2"/>
<path fill-rule="evenodd" clip-rule="evenodd" d="M52.945 62C52.9814 61.8353 53 61.6685 53 61.5C53 58.4624 46.9558 56 39.5 56C32.0442 56 26 58.4624 26 61.5C26 61.6685 26.0186 61.8353 26.055 62H26L26.0628 62.0338C26.5589 64.1324 29.9496 65.8862 34.5888 66.6247L39 69L43.4878 66.7561C48.5977 66.1133 52.4119 64.2678 52.9379 62.0311L53 62H52.945Z" fill="url(#paint1_linear_63_14062)" fill-opacity="0.2"/>
<path d="M33.0124 44L40 31L44.5 40H43L49 50H47L52 57C52 57.6566 51.6767 58.3068 51.0485 58.9134C50.4203 59.52 49.4996 60.0712 48.3388 60.5355C47.1781 60.9998 45.8001 61.3681 44.2835 61.6194C42.767 61.8707 41.1415 62 39.5 62C37.8585 62 36.233 61.8707 34.7165 61.6194C33.1999 61.3681 31.8219 60.9998 30.6612 60.5355C29.5004 60.0712 28.5797 59.52 27.9515 58.9134C27.3233 58.3068 27 57.6566 27 57L32 51H30L34.5124 44H33.0124Z" fill="#4E5B49" stroke="black" stroke-width="2"/>
<rect opacity="0.2" x="34" y="52" width="2" height="4" fill="black"/>
<rect opacity="0.2" x="38" y="50" width="2" height="4" fill="black"/>
<rect opacity="0.2" x="42" y="52" width="2" height="4" fill="black"/>
<rect x="47" y="59" width="2" height="4" fill="black"/>
<rect x="28" y="57" width="2" height="4" fill="black"/>
<rect x="32" y="59" width="2" height="4" fill="black"/>
<rect x="30" y="58" width="2" height="5" fill="#4E5B49"/>
<path opacity="0.1" d="M92.8593 38.8985L93.3535 34.9292" stroke="black" stroke-opacity="0.4" stroke-width="2"/>
<path opacity="0.1" d="M38.9252 83.5765L39.1724 81.5918" stroke="black" stroke-opacity="0.4" stroke-width="2"/>
<path d="M49 36L68 32L87 36V58H49V36Z" fill="#2C2C2C"/>
<path d="M49 78H87V58H49V78Z" fill="#646970"/>
<path d="M49 78H87V58H49V78Z" fill="black" fill-opacity="0.2"/>
<path d="M87 53.9999V57.9999M87 53.9999L68 50M87 53.9999V49.9999M49 53.9999V57.9999M49 53.9999L68 50M49 53.9999V49.9999M49 57.9999V78H54H61H87V57.9999M49 57.9999H87M49 57.9999H45M87 57.9999H91M68 50V32M68 32L87 35.9999V38.9999M68 32L49 35.9999V38.9999M87 38.9999H91M87 38.9999V49.9999M49 38.9999H45M49 38.9999V49.9999M49 49.9999H45M87 49.9999H91" stroke="black" stroke-width="2"/>
<rect x="56" y="79" width="8" height="2" fill="black" fill-opacity="0.5"/>
<rect x="53" y="79" width="5" height="2" fill="black" fill-opacity="0.5"/>
<rect x="53" y="83" width="5" height="2" fill="black" fill-opacity="0.5"/>
<rect x="59" y="87" width="5" height="2" fill="black" fill-opacity="0.5"/>
<rect opacity="0.5" x="53" y="87" width="2" height="2" fill="black" fill-opacity="0.5"/>
<rect opacity="0.5" x="58" y="83" width="6" height="2" fill="black" fill-opacity="0.5"/>
<rect opacity="0.5" x="57" y="87" width="2" height="2" fill="black" fill-opacity="0.5"/>
<rect x="87" y="66" width="6" height="9" fill="#50443E"/>
<rect x="87" y="66" width="6" height="9" fill="black" fill-opacity="0.4"/>
<rect x="87" y="66" width="6" height="9" stroke="black" stroke-width="2"/>
<rect x="87" y="66" width="6" height="4" fill="#50443E" stroke="black" stroke-width="2"/>
<rect x="86" y="76" width="8" height="3" fill="url(#paint2_linear_63_14062)" fill-opacity="0.2"/>
<rect x="19" y="88" width="2" height="4" fill="black" fill-opacity="0.2"/>
<rect x="23" y="88" width="2" height="4" fill="black" fill-opacity="0.2"/>
<rect x="27" y="88" width="2" height="4" fill="black" fill-opacity="0.2"/>
<rect x="11" y="109" width="2" height="4" fill="black" fill-opacity="0.2"/>
<rect x="77" y="64" width="4" height="7" fill="#1F1F1F" stroke="black" stroke-width="2"/>
<rect x="55" y="64" width="7" height="14" fill="#3C332A" stroke="black" stroke-width="2"/>
<rect x="67" y="57" width="2" height="2" fill="#613D3D"/>
<rect opacity="0.4" x="83" y="75" width="3" height="2" fill="#D9D9D9"/>
<defs>
<linearGradient id="paint0_linear_63_14062" x1="73.3846" y1="80" x2="73.3846" y2="99" gradientUnits="userSpaceOnUse">
<stop/>
<stop offset="1" stop-opacity="0"/>
</linearGradient>
<linearGradient id="paint1_linear_63_14062" x1="39.5" y1="63" x2="39.5" y2="69" gradientUnits="userSpaceOnUse">
<stop/>
<stop offset="1" stop-opacity="0"/>
</linearGradient>
<linearGradient id="paint2_linear_63_14062" x1="90" y1="76" x2="90" y2="79" gradientUnits="userSpaceOnUse">
<stop/>
<stop offset="1" stop-opacity="0"/>
</linearGradient>
</defs>
</svg>
