<svg width="120" height="120" viewBox="0 0 120 120" fill="none" xmlns="http://www.w3.org/2000/svg">
<g clip-path="url(#clip0_3563_22109)">
<path opacity="0.1" d="M92.8592 38.8983L93.3534 34.929" stroke="black" stroke-opacity="0.4" stroke-width="2"/>
<path opacity="0.1" d="M38.9254 83.5767L39.1725 81.592" stroke="black" stroke-opacity="0.4" stroke-width="2"/>
<path d="M49 44L62 40L75 44V62H49V44Z" fill="#A54444"/>
<path d="M49 74H75V62H49V74Z" fill="#F5F3E6"/>
<path d="M75 58V62M75 58L62 54M75 58V54M75 74H58M75 74V62M75 74H63H58M49 58V62M49 58L62 54M49 58V54M54 74H49V62M54 74H58M54 74V70V66H58V74M69 65V70M49 62H75M49 62H45M75 62H79M62 54V40M62 40L75 44V47M62 40L49 44V47M75 47H79M75 47V54M49 47H45M49 47V54M49 54H45M75 54H79" stroke="black" stroke-width="2"/>
<rect x="82" y="69" width="5" height="5" fill="#D9D9D9" stroke="black" stroke-width="2"/>
<rect x="1" y="-1" width="5" height="4" transform="matrix(1 0 0 -1 81 68)" fill="#D9D9D9" stroke="black" stroke-width="2"/>
<rect x="53" y="75" width="6" height="2" fill="#D9D9D9"/>
<rect x="53" y="79" width="6" height="2" fill="#D9D9D9"/>
<rect x="53" y="83" width="6" height="2" fill="#D9D9D9"/>
</g>
<rect x="39" y="28" width="2" height="4" fill="black" fill-opacity="0.2"/>
<rect x="58" y="56" width="2" height="4" fill="black" fill-opacity="0.2"/>
<rect width="2" height="4" transform="matrix(1 0 0 -1 87 44)" fill="black" fill-opacity="0.2"/>
<rect width="2" height="4" transform="matrix(1 0 0 -1 106 16)" fill="black" fill-opacity="0.2"/>
<defs>
<clipPath id="clip0_3563_22109">
<rect width="72" height="72" fill="white" transform="translate(24 24)"/>
</clipPath>
</defs>
</svg>
