<svg width="120" height="120" viewBox="0 0 120 120" fill="none" xmlns="http://www.w3.org/2000/svg">
<path d="M35 43.9167L40 34L44.5 43H43L49 53H47L52 64H42H38H28L33 54H31L36.5 43.9167H35Z" fill="#4E5B49"/>
<path d="M42 68V64M38 64H28L33 54H31L36.5 43.9167H35L40 34L44.5 43H43L49 53H47L52 64H42M38 64H42M38 64V68" stroke="black" stroke-width="2"/>
<rect opacity="0.2" x="37" y="53" width="2" height="4" fill="black"/>
<rect opacity="0.2" x="39" y="49" width="2" height="4" fill="black"/>
<rect x="44" y="61" width="2" height="4" fill="black"/>
<path fill-rule="evenodd" clip-rule="evenodd" d="M68 55V67H56H51H47H42V55H56H68ZM46 49.1429V47H44V50.5714L46 49.1429Z" fill="white"/>
<path d="M56 52L49 47L46 49.1429L44 50.5714L42 52V55H56V52Z" fill="white"/>
<path d="M56 52L49 47L46 49.1429L44 50.5714L42 52V55H56V52Z" fill="#9D3F3F"/>
<path d="M49 47L56 52V55H68V52L61 47H49Z" fill="white"/>
<path d="M49 47L56 52V55H68V52L61 47H49Z" fill="#9D3F3F"/>
<path d="M56 67V55M56 67H68M56 67H51M68 67H51M68 67V55M49 47L56 52V55M49 47H61L68 52V55M49 47L46 49.1429M47 67H42V55M47 67H51M47 67V63V59H51V67M62 58V63M42 55V52L44 50.5714M42 55H56M56 55H68M44 50.5714V47H46V49.1429M44 50.5714L46 49.1429" stroke="black" stroke-width="2"/>
</svg>
