<svg width="120" height="120" viewBox="0 0 120 120" fill="none" xmlns="http://www.w3.org/2000/svg">
<path d="M87 81.5V96C87 100.418 83.4183 104 79 104H24C19.5817 104 16 100.418 16 96V60H35.7415C39.5041 60 43.1903 61.0614 46.3768 63.0622L61.0493 72.2751C62.3239 73.0755 63.7984 73.5 65.3034 73.5H79C83.4183 73.5 87 77.0817 87 81.5Z" fill="url(#paint0_linear_3568_10045)" fill-opacity="0.8"/>
<rect x="26" y="75" width="2" height="4" fill="black" fill-opacity="0.2"/>
<rect x="40" y="81" width="2" height="4" fill="black" fill-opacity="0.2"/>
<rect x="87" y="16" width="2" height="4" fill="black" fill-opacity="0.2"/>
<rect x="106" y="44" width="2" height="4" fill="black" fill-opacity="0.2"/>
<path d="M36 16V23M48 50H44M36 56V50M36 50V46M36 50H44M36 46V40M36 46H29M26 46H29M36 40H44M36 40V35M36 35H29M36 35V32M36 32H42M36 32V26M36 26H31M36 26V23M36 23H40M44 50V45M29 46V42" stroke="black" stroke-width="2"/>
<path d="M37 48H42V44H46V48H48" stroke="#DEDEDE" stroke-width="2"/>
<path d="M37 38C37.56 38 41.9 38 44 38" stroke="#DEDEDE" stroke-width="2"/>
<path d="M29 33C29.64 33 34.6 33 37 33" stroke="#DEDEDE" stroke-width="2"/>
<path d="M37 30C37.4 30 40.5 30 42 30" stroke="#DEDEDE" stroke-width="2"/>
<path d="M31 24C31.32 24 33.8 24 35 24" stroke="#DEDEDE" stroke-width="2"/>
<path d="M37 21C37.24 21 39.1 21 40 21" stroke="#DEDEDE" stroke-width="2"/>
<path d="M29 55C29.48 55 33.2 55 35 55" stroke="#DEDEDE" stroke-width="2"/>
<path d="M35 44H31V41H28" stroke="#DEDEDE" stroke-width="2"/>
<path d="M37 55C37.48 55 41.2 55 43 55" stroke="#DEDEDE" stroke-width="2"/>
<mask id="mask0_3568_10045" style="mask-type:alpha" maskUnits="userSpaceOnUse" x="16" y="60" width="71" height="44">
<path d="M87 81.5V96C87 100.418 83.4183 104 79 104H24C19.5817 104 16 100.418 16 96V60H35.7415C39.5041 60 43.1903 61.0614 46.3768 63.0622L61.0493 72.2751C62.3239 73.0755 63.7984 73.5 65.3034 73.5H79C83.4183 73.5 87 77.0817 87 81.5Z" fill="url(#paint1_linear_3568_10045)" fill-opacity="0.8"/>
</mask>
<g mask="url(#mask0_3568_10045)">
<path d="M36 96V89M48 62H44M36 56V62M36 62V66M36 62H44M36 66V72M36 66H29M26 66H29M36 72H44M36 72V77M36 77H29M36 77V80M36 80H42M36 80V86M36 86H31M36 86V89M36 89H40M44 62V67M29 66V70" stroke="black" stroke-width="2"/>
<path d="M37 64H42V68H46V64H48" stroke="#DEDEDE" stroke-width="2"/>
<path d="M37 74C37.56 74 41.9 74 44 74" stroke="#DEDEDE" stroke-width="2"/>
<path d="M29 79C29.64 79 34.6 79 37 79" stroke="#DEDEDE" stroke-width="2"/>
<path d="M37 82C37.4 82 40.5 82 42 82" stroke="#DEDEDE" stroke-width="2"/>
<path d="M31 88C31.32 88 33.8 88 35 88" stroke="#DEDEDE" stroke-width="2"/>
<path d="M37 91C37.24 91 39.1 91 40 91" stroke="#DEDEDE" stroke-width="2"/>
<path d="M35 68H31V71H28" stroke="#DEDEDE" stroke-width="2"/>
<rect x="74" y="89" width="2" height="8" fill="#1B2719"/>
<rect x="70" y="92" width="2" height="8" fill="#1B2719"/>
</g>
<rect x="66" y="100" width="2" height="7" fill="#1B2719"/>
<rect x="74" y="99" width="2" height="7" fill="#1B2719"/>
<defs>
<linearGradient id="paint0_linear_3568_10045" x1="51.5" y1="60" x2="51.5" y2="104" gradientUnits="userSpaceOnUse">
<stop stop-color="#42515F" stop-opacity="0"/>
<stop offset="1" stop-color="#42515F"/>
</linearGradient>
<linearGradient id="paint1_linear_3568_10045" x1="51.5" y1="60" x2="51.5" y2="104" gradientUnits="userSpaceOnUse">
<stop stop-color="#42515F" stop-opacity="0"/>
<stop offset="1" stop-color="#42515F"/>
</linearGradient>
</defs>
</svg>
