<svg width="120" height="124" viewBox="0 0 120 124" fill="none" xmlns="http://www.w3.org/2000/svg">
<g clip-path="url(#clip0_3552_45456)">
<path opacity="0.2" d="M78.1806 88.8418L82.1714 88.5708" stroke="black" stroke-width="2"/>
<path d="M88.9519 108.427C99.5279 104.19 104.117 101.301 103.998 89.6629C103.887 78.8448 97.9411 69.47 86.4427 65.9847C64.6473 59.3783 51.334 70.8991 49.3278 76.707C47.3215 82.5148 54.3546 83.7557 56.3484 89.6629C59.0863 97.7746 43.6159 92.7107 46.3183 100.832C50.3322 112.894 78.7554 112.512 88.9519 108.427Z" fill="#4D6E8D" stroke="black" stroke-width="2"/>
<path opacity="0.2" d="M77.7437 111.925L77.6082 109.929" stroke="black" stroke-width="2"/>
<path opacity="0.2" d="M105.815 112.023L105.679 110.027" stroke="black" stroke-width="2"/>
<circle cx="55" cy="102" r="2" fill="#D9D9D9"/>
<circle cx="59.5" cy="105.5" r="1.5" fill="#D9D9D9"/>
<path opacity="0.2" d="M101 64V60" stroke="black" stroke-width="2"/>
<path opacity="0.2" d="M72 96L74.638 93.362C75.3983 92.6017 76.6238 92.5786 77.4123 93.3099L78.8417 94.6358C79.6533 95.3885 80.922 95.3389 81.6722 94.525L82.5882 93.5315C83.3584 92.6959 84.6693 92.6693 85.4729 93.4729L86.5858 94.5858C87.3668 95.3668 88.6332 95.3668 89.4142 94.5858L90.5858 93.4142C91.3668 92.6332 92.6332 92.6332 93.4142 93.4142L94.5858 94.5858C95.3668 95.3668 96.6332 95.3668 97.4142 94.5858L100 92" stroke="black" stroke-width="2"/>
<path opacity="0.2" d="M62 89L64.638 86.362C65.3983 85.6017 66.6238 85.5786 67.4123 86.3099L68.8417 87.6358C69.6533 88.3885 70.922 88.3389 71.6722 87.525L72.5882 86.5315C73.3584 85.6959 74.6693 85.6693 75.4729 86.4729L76.5858 87.5858C77.3668 88.3668 78.6332 88.3668 79.4142 87.5858L80.5858 86.4142C81.3668 85.6332 82.6332 85.6332 83.4142 86.4142L84.5858 87.5858C85.3668 88.3668 86.6332 88.3668 87.4142 87.5858L90 85" stroke="black" stroke-width="2"/>
</g>
<path d="M94 27L94 34M94 52L94 40M94 40L102 40L102 9M94 40L94 34M94 34L90 34L90 16.5" stroke="black" stroke-width="2"/>
<path d="M58 51L58 58M58 76L58 64M58 64L50 64L50 33M58 64L58 58M58 58L62 58L62 40.5" stroke="black" stroke-width="2"/>
<path d="M20 16V24H22V40H38V24H40V16H35H30H25H20Z" fill="white"/>
<path d="M25 16H20V24H22V40M25 16V19M25 16H30M30 16H35M30 16V19M35 16V19M35 16H40V24H38V40M22 40H38M22 40H16M38 40H44M28 23V26M28 31V34" stroke="black" stroke-width="2"/>
<defs>
<clipPath id="clip0_3552_45456">
<rect width="72" height="72" fill="white" transform="translate(40 52)"/>
</clipPath>
</defs>
</svg>
