<svg width="120" height="120" viewBox="0 0 120 120" fill="none" xmlns="http://www.w3.org/2000/svg">
<rect x="18" y="87" width="2" height="4" fill="black" fill-opacity="0.2"/>
<rect x="32" y="93" width="2" height="4" fill="black" fill-opacity="0.2"/>
<path d="M90 43L90 50M90 68L90 56M90 56L98 56L98 47M90 56L90 50M98 25L98 36M90 50L86 50L86 44M86 32.5L86 39M98 47L94 47M98 47L98 42M98 42L102 42M98 42L98 36M98 36L94 36M86 44L82 44M86 44L86 39M86 39L90 39" stroke="black" stroke-width="2"/>
<path d="M111.998 88V92.0011C111.998 96.4188 108.417 100 103.999 100H102C98.6864 100 96.0001 102.686 96.0001 106C96.0001 109.314 93.3138 112 90.0001 112H68.0001C61.3726 112 56.0001 106.627 56.0001 100V96.9706C56.0001 93.788 54.7358 90.7357 52.4853 88.4853L49.6569 85.6569C48.5961 84.596 48.0001 83.1571 48.0001 81.6569C48.0001 78.5327 50.5327 76 53.6569 76H63.9995L68.4214 73.789C70.6737 72.6628 73.3247 72.6628 75.577 73.789L79.9989 76H99.9978C106.625 76 111.998 81.3726 111.998 88Z" fill="url(#paint0_linear_3552_45456)"/>
<mask id="mask0_3552_45456" style="mask-type:alpha" maskUnits="userSpaceOnUse" x="48" y="76" width="64" height="36">
<path d="M111.998 88V92.0011C111.998 96.4188 108.417 100 103.999 100H102C98.6864 100 96.0001 102.686 96.0001 106C96.0001 109.314 93.3138 112 90.0001 112H72.0001C65.3726 112 60.0001 106.627 60.0001 100V98.4222C60.0001 94.41 57.9949 90.6632 54.6565 88.4376L50.3206 85.547C48.8708 84.5805 48.0001 82.9535 48.0001 81.2111C48.0001 78.3331 50.3331 76 53.2112 76H99.9978C106.625 76 111.998 81.3726 111.998 88Z" fill="#42515F"/>
</mask>
<g mask="url(#mask0_3552_45456)">
<g opacity="0.3">
<path d="M90 93L90 86M90 68L90 80M90 80L98 80L98 89M90 80L90 86M98 111L98 100M90 86L86 86L86 92M86 103.5L86 97M98 89L94 89M98 89L98 94M98 94L102 94M98 94L98 100M98 100L94 100M86 92L82 92M86 92L86 97M86 97L90 97" stroke="black" stroke-width="2"/>
</g>
</g>
<circle cx="66" cy="101" r="3" fill="#6E9357"/>
<circle cx="71" cy="106" r="2" fill="#6E9357"/>
<rect x="68" y="99" width="3" height="3" fill="white"/>
<defs>
<linearGradient id="paint0_linear_3552_45456" x1="79.9989" y1="112" x2="79.9989" y2="72" gradientUnits="userSpaceOnUse">
<stop stop-color="#42515F"/>
<stop offset="1" stop-color="#42515F" stop-opacity="0"/>
</linearGradient>
</defs>
</svg>
