<svg width="120" height="120" viewBox="0 0 120 120" fill="none" xmlns="http://www.w3.org/2000/svg">
<path d="M16 81.5V88C16 92.4183 19.5817 96 24 96H35C37.2091 96 39 97.7909 39 100C39 102.209 40.7909 104 43 104H79C83.4183 104 87 100.418 87 96V60H67.2585C63.4959 60 59.8097 61.0614 56.6232 63.0622L41.9507 72.2751C40.6761 73.0755 39.2016 73.5 37.6966 73.5H24C19.5817 73.5 16 77.0817 16 81.5Z" fill="url(#paint0_linear_3563_21502)" fill-opacity="0.8"/>
<rect x="26" y="75" width="2" height="4" fill="black" fill-opacity="0.2"/>
<rect x="40" y="81" width="2" height="4" fill="black" fill-opacity="0.2"/>
<rect width="2" height="4" transform="matrix(-1 0 0 1 93 16)" fill="black" fill-opacity="0.2"/>
<rect width="2" height="4" transform="matrix(-1 0 0 1 74 44)" fill="black" fill-opacity="0.2"/>
<path d="M60 12V19M72 46H68M60 52V46M60 46V42M60 46H68M60 42V36M60 42H55M50 42H55M60 36H68M60 36V31M60 31H53M60 31V28M60 28H66M60 28V22M60 22H55M60 22V19M60 19H64M68 46V41M55 42V38" stroke="black" stroke-width="2"/>
<mask id="mask0_3563_21502" style="mask-type:alpha" maskUnits="userSpaceOnUse" x="16" y="60" width="71" height="44">
<path d="M16 81.5V88C16 92.4183 19.5817 96 24 96H35C37.2091 96 39 97.7909 39 100C39 102.209 40.7909 104 43 104H79C83.4183 104 87 100.418 87 96V60H67.2585C63.4959 60 59.8097 61.0614 56.6232 63.0622L41.9507 72.2751C40.6761 73.0755 39.2016 73.5 37.6966 73.5H24C19.5817 73.5 16 77.0817 16 81.5Z" fill="url(#paint1_linear_3563_21502)"/>
</mask>
<g mask="url(#mask0_3563_21502)">
<g opacity="0.3">
<path d="M60 92V85M72 58H68M60 52V58M60 58V62M60 58H68M60 62V68M60 62H55M50 62H55M60 68H68M60 68V73M60 73H53M60 73V76M60 76H66M60 76V82M60 82H55M60 82V85M60 85H64M68 58V63M55 62V66" stroke="black" stroke-width="2"/>
</g>
</g>
<circle cx="77" cy="95" r="3" fill="#83867D"/>
<defs>
<linearGradient id="paint0_linear_3563_21502" x1="51.5" y1="60" x2="51.5" y2="104" gradientUnits="userSpaceOnUse">
<stop stop-color="#42515F" stop-opacity="0"/>
<stop offset="1" stop-color="#42515F"/>
</linearGradient>
<linearGradient id="paint1_linear_3563_21502" x1="51.5" y1="60" x2="51.5" y2="104" gradientUnits="userSpaceOnUse">
<stop stop-color="#42515F" stop-opacity="0"/>
<stop offset="1" stop-color="#42515F"/>
</linearGradient>
</defs>
</svg>
