<svg width="120" height="120" viewBox="0 0 120 120" fill="none" xmlns="http://www.w3.org/2000/svg">
<rect x="39" y="22" width="30" height="25" fill="#2E2B29" stroke="black" stroke-width="2"/>
<rect x="52" y="43" width="17" height="10" fill="#725F55"/>
<rect x="52" y="43" width="17" height="10" fill="black" fill-opacity="0.4"/>
<rect x="52" y="43" width="17" height="10" stroke="black" stroke-width="2"/>
<rect x="39" y="43" width="14" height="10" fill="#725F55"/>
<rect x="39" y="43" width="14" height="10" fill="black" fill-opacity="0.4"/>
<rect x="39" y="43" width="14" height="10" stroke="black" stroke-width="2"/>
<rect width="2" height="4" transform="matrix(-1 0 0 1 91 87)" fill="black" fill-opacity="0.2"/>
<rect width="2" height="4" transform="matrix(-1 0 0 1 77 93)" fill="black" fill-opacity="0.2"/>
<path d="M36 81H27V77H36V81Z" fill="#D9D9D9"/>
<path d="M27 87V81M27 81H36M27 81V77M36 81V87M36 81V77M27 77H36M27 77V77C25.3431 77 24 78.3431 24 80V80M36 77V77C36 74.7909 37.7909 73 40 73H41" stroke="black" stroke-width="2"/>
<path d="M45 91H54V87H45V91Z" fill="#D9D9D9"/>
<path d="M54 97V91M54 91H45M54 91V87M45 91V97M45 91V87M54 87H45M54 87V87C55.6569 87 57 88.3431 57 90V90M45 87V87C45 84.7909 43.2091 83 41 83H40" stroke="black" stroke-width="2"/>
<rect x="92" y="48" width="6" height="9" fill="#50443E"/>
<rect x="92" y="48" width="6" height="9" fill="black" fill-opacity="0.4"/>
<rect x="92" y="48" width="6" height="9" stroke="black" stroke-width="2"/>
<rect x="92" y="48" width="6" height="4" fill="#50443E" stroke="black" stroke-width="2"/>
<rect x="39" y="28" width="30" height="25" stroke="black" stroke-width="2"/>
<rect x="35" y="43" width="18" height="4" fill="#725F55"/>
<rect x="35" y="43" width="18" height="4" fill="black" fill-opacity="0.4"/>
<rect x="35" y="43" width="18" height="4" stroke="black" stroke-width="2"/>
<path d="M35 47V48L39 52" stroke="black" stroke-width="2"/>
<rect x="53" y="43" width="16" height="4" fill="#725F55"/>
<rect x="53" y="43" width="16" height="4" fill="black" fill-opacity="0.4"/>
<rect x="53" y="43" width="16" height="4" stroke="black" stroke-width="2"/>
<rect x="38" y="50" width="32" height="15" fill="url(#paint0_linear_4032_21666)" fill-opacity="0.4"/>
<rect x="80" y="57" width="6" height="3" fill="url(#paint1_linear_4032_21666)" fill-opacity="0.2"/>
<path d="M85 49H81V45H78L81 41H82V38H83V41H85L87 45H85V49Z" fill="#5A5757"/>
<path d="M81 41V40H80.5L80.2 40.4L81 41ZM82 38V37H81V38H82ZM83 38H84V37H83V38ZM85 41L85.8944 40.5528L85.618 40H85V41ZM87 45V46L87.8944 44.5528L87 45ZM78 45L77.2 44.4L78 46V45ZM84 49V57H86V49H84ZM82 57V49H80V57H82ZM85 48H81V50H85V48ZM81 42H82V40H81V42ZM83 41V38H81V41H83ZM82 39H83V37H82V39ZM82 42H83V40H82V42ZM83 42H85V40H83V42ZM82 38V41H84V38H82ZM84.1056 41.4472L86.1056 45.4472L87.8944 44.5528L85.8944 40.5528L84.1056 41.4472ZM87 44H85V46H87V44ZM84 41V45H86V41H84ZM84 45V49H86V45H84ZM80.2 40.4L77.2 44.4L78.8 45.6L81.8 41.6L80.2 40.4ZM78 46H81V44H78V46ZM82 49V45H80V49H82ZM82 45V41H80V45H82Z" fill="black"/>
<rect x="42" y="44" width="2" height="2" fill="#FFD600"/>
<rect x="48" y="44" width="4" height="2" fill="#CA39A1"/>
<rect x="54" y="44" width="2" height="2" fill="#4D39CA"/>
<rect x="58" y="44" width="4" height="2" fill="#39CA73"/>
<rect x="64" y="44" width="4" height="2" fill="#39CA73"/>
<rect x="64" y="44" width="4" height="2" fill="black" fill-opacity="0.2"/>
<rect x="40" y="44" width="2" height="2" fill="#343337"/>
<rect x="46" y="44" width="2" height="2" transform="rotate(90 46 44)" fill="#00B3FF"/>
<rect x="58" y="48" width="2" height="4" fill="#8E8E8E"/>
<rect x="48" y="48" width="2" height="4" fill="#D9D9D9"/>
<rect x="42" y="48" width="2" height="4" fill="#8E8E8E"/>
<rect x="62" y="44" width="2" height="8" fill="black"/>
<path d="M69 43H73V45L69 47V49" stroke="black" stroke-width="2"/>
<circle cx="69" cy="53" r="4" stroke="black" stroke-width="2"/>
<rect x="68" y="49" width="2" height="8" fill="black"/>
<rect x="73" y="52" width="2" height="8" transform="rotate(90 73 52)" fill="black"/>
<rect x="38" y="44" width="2" height="14" fill="black"/>
<path d="M36 22H42V36.5858L39 39.5858L36 36.5858V22Z" fill="#AF4444" stroke="black" stroke-width="2"/>
<path d="M48 22H54V36.5858L51 39.5858L48 36.5858V22Z" fill="#AF4444" stroke="black" stroke-width="2"/>
<path d="M60 22H66V36.5858L63 39.5858L60 36.5858V22Z" fill="#AF4444" stroke="black" stroke-width="2"/>
<path d="M42 22H48V36.5858L45 39.5858L42 36.5858V22Z" fill="#DADADA" stroke="black" stroke-width="2"/>
<path d="M54 22H60V36.5858L57 39.5858L54 36.5858V22Z" fill="#DADADA" stroke="black" stroke-width="2"/>
<path d="M66 22H72V36.5858L69 39.5858L66 36.5858V22Z" fill="#DADADA" stroke="black" stroke-width="2"/>
<path d="M36 27H42V37.5858L39 40.5858L36 37.5858V27Z" fill="#AF4444" stroke="black" stroke-width="2"/>
<path d="M48 27H54V37.5858L51 40.5858L48 37.5858V27Z" fill="#AF4444" stroke="black" stroke-width="2"/>
<path d="M60 27H66V37.5858L63 40.5858L60 37.5858V27Z" fill="#AF4444" stroke="black" stroke-width="2"/>
<path d="M42 27H48V37.5858L45 40.5858L42 37.5858V27Z" fill="#DADADA" stroke="black" stroke-width="2"/>
<path d="M54 27H60V37.5858L57 40.5858L54 37.5858V27Z" fill="#DADADA" stroke="black" stroke-width="2"/>
<path d="M66 27H72V37.5858L69 40.5858L66 37.5858V27Z" fill="#DADADA" stroke="black" stroke-width="2"/>
<rect x="35" y="28" width="38" height="8" fill="black" fill-opacity="0.36"/>
<circle opacity="0.5" cx="42" cy="35" r="9" fill="url(#paint2_radial_4032_21666)"/>
<rect x="41" y="34" width="2" height="3" fill="#FF5C00"/>
<rect x="41" y="37" width="2" height="2" fill="#321C01"/>
<circle opacity="0.5" cx="66" cy="35" r="9" fill="url(#paint3_radial_4032_21666)"/>
<rect x="65" y="34" width="2" height="3" fill="#FF5C00"/>
<rect x="65" y="37" width="2" height="2" fill="#321C01"/>
<path fill-rule="evenodd" clip-rule="evenodd" d="M73.945 103C73.9814 102.835 74 102.669 74 102.5C74 99.4624 67.9558 97 60.5 97C53.0442 97 47 99.4624 47 102.5C47 102.669 47.0186 102.835 47.055 103H47L47.0628 103.034C47.5589 105.132 50.9496 106.886 55.5888 107.625L60 110L64.4878 107.756C69.5977 107.113 73.4119 105.268 73.9379 103.031L74 103H73.945Z" fill="url(#paint4_linear_4032_21666)" fill-opacity="0.2"/>
<path d="M54.0124 85L61 72L65.5 81H64L70 91H68L73 98C73 98.6566 72.6767 99.3068 72.0485 99.9134C71.4203 100.52 70.4996 101.071 69.3388 101.536C68.1781 102 66.8001 102.368 65.2835 102.619C63.767 102.871 62.1415 103 60.5 103C58.8585 103 57.233 102.871 55.7165 102.619C54.1999 102.368 52.8219 102 51.6612 101.536C50.5004 101.071 49.5797 100.52 48.9515 99.9134C48.3233 99.3068 48 98.6566 48 98L53 92H51L55.5124 85H54.0124Z" fill="#4E5B49" stroke="black" stroke-width="2"/>
<rect opacity="0.2" x="55" y="93" width="2" height="4" fill="black"/>
<rect opacity="0.2" x="59" y="91" width="2" height="4" fill="black"/>
<rect opacity="0.2" x="63" y="93" width="2" height="4" fill="black"/>
<rect x="68" y="100" width="2" height="4" fill="black"/>
<rect x="49" y="98" width="2" height="4" fill="black"/>
<rect x="53" y="100" width="2" height="4" fill="black"/>
<rect x="51" y="99" width="2" height="5" fill="#4E5B49"/>
<defs>
<linearGradient id="paint0_linear_4032_21666" x1="54" y1="50" x2="54" y2="65" gradientUnits="userSpaceOnUse">
<stop/>
<stop offset="1" stop-opacity="0"/>
</linearGradient>
<linearGradient id="paint1_linear_4032_21666" x1="83" y1="57" x2="83" y2="60" gradientUnits="userSpaceOnUse">
<stop/>
<stop offset="1" stop-opacity="0"/>
</linearGradient>
<radialGradient id="paint2_radial_4032_21666" cx="0" cy="0" r="1" gradientUnits="userSpaceOnUse" gradientTransform="translate(42 35) rotate(90) scale(9)">
<stop stop-color="#FF7A00"/>
<stop offset="1" stop-color="#FF9900" stop-opacity="0"/>
</radialGradient>
<radialGradient id="paint3_radial_4032_21666" cx="0" cy="0" r="1" gradientUnits="userSpaceOnUse" gradientTransform="translate(66 35) rotate(90) scale(9)">
<stop stop-color="#FF7A00"/>
<stop offset="1" stop-color="#FF9900" stop-opacity="0"/>
</radialGradient>
<linearGradient id="paint4_linear_4032_21666" x1="60.5" y1="104" x2="60.5" y2="110" gradientUnits="userSpaceOnUse">
<stop/>
<stop offset="1" stop-opacity="0"/>
</linearGradient>
</defs>
</svg>
