<svg width="120" height="120" viewBox="0 0 120 120" fill="none" xmlns="http://www.w3.org/2000/svg">
<path opacity="0.3" d="M40 96V100H44" stroke="black" stroke-width="2"/>
<path d="M88 88V91" stroke="black" stroke-width="2"/>
<path d="M72 88V91" stroke="black" stroke-width="2"/>
<path d="M80 88V91" stroke="black" stroke-width="2"/>
<path d="M64 88V91" stroke="black" stroke-width="2"/>
<path d="M50 58V70H62V58L56 54L50 58Z" fill="#535353"/>
<path d="M50 58L56 54L62 58H66V70H82H90V66H86V62H82V54L70 42V38L66 34H54L46 46L34 58V70H38H46V58H50Z" fill="#535353"/>
<path d="M62 58V70H66V58H62Z" fill="#535353"/>
<path d="M50 70V58H46V70H50Z" fill="#535353"/>
<path d="M50 70V58M50 70H46M50 70H62M50 58L56 54L62 58M50 58H46V70M62 58V70M62 58H66V70M62 70H66M34 70H30M34 70V58L46 46L54 34H66L70 38V42L82 54V62M34 70H38H46M82 62H74V66H70M82 62H86M66 70H82H90V66H86V62M86 58V62" stroke="black" stroke-width="2"/>
<path d="M68 82V74H84V82H68Z" fill="#544D42"/>
<path d="M64 74H68M68 74V82H84V74M68 74H84M84 74H86" stroke="black" stroke-width="2"/>
<path d="M60 88L92 88" stroke="black" stroke-width="2"/>
<path opacity="0.3" d="M49 74H35L41 79L33 88M16 78.5L27 76V74H22" stroke="black" stroke-width="2"/>
<circle cx="70" cy="85" r="2" stroke="black" stroke-width="2"/>
<circle cx="81" cy="85" r="2" stroke="black" stroke-width="2"/>
<path d="M50 69V58L56 54L62 58V69H50Z" fill="url(#paint0_linear_3563_18980)"/>
<rect x="23" y="84" width="6" height="8" fill="#D9D9D9" stroke="black" stroke-width="2"/>
<rect x="17" y="84" width="6" height="8" fill="#D9D9D9" stroke="black" stroke-width="2"/>
<rect x="94" y="62" width="6" height="8" fill="#D9D9D9" stroke="black" stroke-width="2"/>
<defs>
<linearGradient id="paint0_linear_3563_18980" x1="60.5" y1="54" x2="60.5" y2="89" gradientUnits="userSpaceOnUse">
<stop/>
<stop offset="1" stop-opacity="0"/>
</linearGradient>
</defs>
</svg>
