<svg width="120" height="120" viewBox="0 0 120 120" fill="none" xmlns="http://www.w3.org/2000/svg">
<rect x="34" y="99" width="2" height="4" fill="black" fill-opacity="0.2"/>
<rect x="48" y="105" width="2" height="4" fill="black" fill-opacity="0.2"/>
<path opacity="0.2" d="M32 46H56V49V63H32V60V46Z" fill="black"/>
<rect x="33" y="45" width="22" height="14" fill="#D9D9D9" stroke="black" stroke-width="2"/>
<rect x="33" y="45" width="22" height="14" fill="#404045" stroke="black" stroke-width="2"/>
<rect x="33" y="41" width="22" height="14" fill="#404045" stroke="black" stroke-width="2"/>
<rect x="33" y="45" width="22" height="14" fill="#404045"/>
<rect x="33" y="45" width="22" height="14" fill="black" fill-opacity="0.4"/>
<rect x="33" y="45" width="22" height="14" stroke="black" stroke-width="2"/>
<rect x="33" y="41" width="22" height="14" fill="#404045" stroke="black" stroke-width="2"/>
<rect x="38" y="30" width="12" height="14" fill="#404045" stroke="black" stroke-width="2"/>
<rect x="38" y="34" width="12" height="14" fill="#404045"/>
<rect x="38" y="34" width="12" height="14" fill="black" fill-opacity="0.2"/>
<rect x="38" y="34" width="12" height="14" stroke="black" stroke-width="2"/>
<rect x="39" y="49" width="10" height="2" fill="black"/>
<rect opacity="0.3" x="39" y="51" width="10" height="2" fill="black"/>
<rect opacity="0.3" x="37" y="53" width="14" height="3" fill="black"/>
<rect opacity="0.2" x="37" y="63" width="14" height="7" fill="url(#paint0_linear_3722_27073)"/>
<rect opacity="0.5" x="41" y="37" width="2" height="2" fill="black"/>
<rect opacity="0.5" x="45" y="43" width="2" height="2" fill="black"/>
<rect opacity="0.3" x="45" y="37" width="2" height="2" fill="black"/>
<rect opacity="0.5" x="45" y="41" width="2" height="2" fill="black"/>
<rect opacity="0.5" x="43" y="37" width="2" height="2" fill="black"/>
<rect x="41" y="43" width="2" height="2" fill="black"/>
<rect x="41" y="39" width="2" height="2" fill="black"/>
<rect x="43" y="43" width="2" height="2" fill="black"/>
<defs>
<linearGradient id="paint0_linear_3722_27073" x1="44" y1="63" x2="44" y2="70" gradientUnits="userSpaceOnUse">
<stop/>
<stop offset="1" stop-opacity="0"/>
</linearGradient>
</defs>
</svg>
