<svg width="18" height="32" viewBox="0 0 18 32" fill="none" xmlns="http://www.w3.org/2000/svg">
<path d="M7 24H11V22V16H10V13H9V16H7L5 20H7V24Z" fill="white"/>
<path d="M11 16V15H12V16H11ZM10 13V12H11V13H10ZM9 13H8V12H9V13ZM7 16L6.10557 15.5528L6.38197 15H7V16ZM5 20V21L4.10557 19.5528L5 20ZM8 24V32H6V24H8ZM10 32V24H12V32H10ZM7 23H11V25H7V23ZM11 17H10V15H11V17ZM9 16V13H11V16H9ZM10 14H9V12H10V14ZM10 17H9V15H10V17ZM9 17H7V15H9V17ZM10 13V16H8V13H10ZM7.89443 16.4472L5.89443 20.4472L4.10557 19.5528L6.10557 15.5528L7.89443 16.4472ZM5 19H7V21H5V19ZM8 16V20H6V16H8ZM8 20V24H6V20H8ZM7 19H10V21H7V19ZM10 24V22H12V24H10ZM10 22V16H12V22H10Z" fill="black"/>
</svg>
