<svg width="120" height="120" viewBox="0 0 120 120" fill="none" xmlns="http://www.w3.org/2000/svg">
<rect opacity="0.05" y="48" width="48" height="24" fill="url(#paint0_linear_4043_26477)"/>
<rect opacity="0.05" width="44" height="24" transform="matrix(-1 0 0 1 116 48)" fill="url(#paint1_linear_4043_26477)"/>
<path opacity="0.05" d="M48 48H72V72H48V48Z" fill="black"/>
<rect opacity="0.05" width="24" height="24" transform="matrix(1 0 0 -1 48 48)" fill="url(#paint2_linear_4043_26477)"/>
<rect opacity="0.05" x="48" y="72" width="24" height="30" fill="url(#paint3_linear_4043_26477)"/>
<path opacity="0.1" d="M88 71H103" stroke="black" stroke-width="2"/>
<path opacity="0.1" d="M71 27L71 49L87 49" stroke="black" stroke-width="2"/>
<path opacity="0.1" d="M22 49L49 49L49 18" stroke="black" stroke-width="2"/>
<path opacity="0.1" d="M13 71L49 71L49 90" stroke="black" stroke-width="2"/>
<rect x="86" y="72" width="2" height="2" fill="black" fill-opacity="0.2"/>
<rect x="46" y="46" width="2" height="2" fill="black" fill-opacity="0.2"/>
<rect x="48" y="48" width="2" height="2" fill="black" fill-opacity="0.2"/>
<rect x="70" y="25" width="2" height="2" fill="black" fill-opacity="0.2"/>
<path opacity="0.1" d="M71 113V71H86" stroke="black" stroke-width="2"/>
<defs>
<linearGradient id="paint0_linear_4043_26477" x1="48" y1="60" x2="-3.12924e-07" y2="60" gradientUnits="userSpaceOnUse">
<stop/>
<stop offset="1" stop-opacity="0"/>
</linearGradient>
<linearGradient id="paint1_linear_4043_26477" x1="44" y1="12" x2="-2.86847e-07" y2="12" gradientUnits="userSpaceOnUse">
<stop/>
<stop offset="1" stop-opacity="0"/>
</linearGradient>
<linearGradient id="paint2_linear_4043_26477" x1="12" y1="0" x2="12" y2="24" gradientUnits="userSpaceOnUse">
<stop/>
<stop offset="1" stop-opacity="0"/>
</linearGradient>
<linearGradient id="paint3_linear_4043_26477" x1="60" y1="72" x2="60" y2="102" gradientUnits="userSpaceOnUse">
<stop/>
<stop offset="1" stop-opacity="0"/>
</linearGradient>
</defs>
</svg>
