<svg width="120" height="120" viewBox="0 0 120 120" fill="none" xmlns="http://www.w3.org/2000/svg">
<path d="M28 63H58" stroke="black" stroke-width="2"/>
<path d="M28 67H58" stroke="black" stroke-width="2"/>
<path d="M31 70V60" stroke="black" stroke-width="2"/>
<path d="M55 70V60" stroke="black" stroke-width="2"/>
<path d="M43 70V60" stroke="black" stroke-width="2"/>
<path d="M66 57H60V70H66H78H84V57H78H72H66Z" fill="white"/>
<path d="M66 57H60V70H66H78H84V57H78M66 57V61M66 57H72M72 57V61M72 57H78M78 57V61" stroke="black" stroke-width="2"/>
<path fill-rule="evenodd" clip-rule="evenodd" d="M72 49L58 54V57H86V54L72 49Z" fill="white"/>
<path fill-rule="evenodd" clip-rule="evenodd" d="M72 49L58 54V57H86V54L72 49Z" fill="#9D3F3F"/>
<path fill-rule="evenodd" clip-rule="evenodd" d="M72 49L58 54V57H86V54L72 49Z" stroke="black" stroke-width="2"/>
<path d="M79 42H72V46H79V42Z" fill="url(#paint0_linear_3562_18793)"/>
<path d="M72 50V46M72 46V42H79V46H72Z" stroke="black" stroke-width="2"/>
<defs>
<linearGradient id="paint0_linear_3562_18793" x1="75.5" y1="42" x2="75.5" y2="50" gradientUnits="userSpaceOnUse">
<stop stop-color="#FFC800"/>
<stop offset="1" stop-color="#F0A22E"/>
</linearGradient>
</defs>
</svg>
