<svg width="37" height="36" viewBox="0 0 37 36" fill="none" xmlns="http://www.w3.org/2000/svg">
<path d="M6 26H10V24V18H9V15H8V18H6L4 22H6V26Z" fill="#D9D9D9"/>
<path d="M10 18V17H11V18H10ZM9 15V14H10V15H9ZM8 15H7V14H8V15ZM6 18L5.10557 17.5528L5.38197 17H6V18ZM4 22V23L3.10557 21.5528L4 22ZM7 26V34H5V26H7ZM9 34V26H11V34H9ZM6 25H10V27H6V25ZM10 19H9V17H10V19ZM8 18V15H10V18H8ZM9 16H8V14H9V16ZM9 19H8V17H9V19ZM8 19H6V17H8V19ZM9 15V18H7V15H9ZM6.89443 18.4472L4.89443 22.4472L3.10557 21.5528L5.10557 17.5528L6.89443 18.4472ZM4 21H6V23H4V21ZM7 18V22H5V18H7ZM7 22V26H5V22H7ZM6 21H9V23H6V21ZM9 26V24H11V26H9ZM9 24V18H11V24H9ZM10.7071 23.2929L15.7071 28.2929L14.2929 29.7071L9.29289 24.7071L10.7071 23.2929Z" fill="black"/>
<path d="M1 22C1 23.6569 2.34315 25 4 25C5.65685 25 7 23.6569 7 22C7 20.3431 5.65685 19 4 19C2.34315 19 1 20.3431 1 22Z" fill="#D9D9D9" stroke="black" stroke-width="2"/>
</svg>
