<svg width="52" height="52" viewBox="0 0 52 52" fill="none" xmlns="http://www.w3.org/2000/svg">
<path d="M16 41L11 36M16 41L14 43L10 42M16 41L19 44M11 36L9 38L10 42M11 36L8 33M7 45L10 42M5 30L8 33M22 47L19 44M8 33L33 8M19 44L44 19" stroke="#B3B3B3" stroke-width="2"/>
<path d="M41 36L36 41M41 36L43 38L42 42M41 36L44 33M36 41L38 43L42 42M36 41L33 44M42 42L45 45M47 30L44 33M30 47L33 44M44 33L19 8M33 44L8 19" stroke="#B3B3B3" stroke-width="2"/>
<rect x="26" y="9" width="24.0417" height="24.0417" transform="rotate(45 26 9)" fill="url(#paint0_linear_3709_16666)" stroke="black" stroke-width="2"/>
<path d="M23 33L19 29L26 26L23 33Z" fill="white"/>
<path d="M23 19L19 23L26 26L23 19Z" fill="#FF5C00" fill-opacity="0.5"/>
<path d="M29 19L33 23L26 26L29 19Z" fill="#D17100"/>
<path d="M29 33L33 29L26 26L29 33Z" fill="black" fill-opacity="0.3"/>
<path d="M23 40L12 29L19 29L23 33L23 40Z" fill="white"/>
<path d="M22.9999 12L12 23L19 23L22.9999 19L22.9999 12Z" fill="#FF5C00" fill-opacity="0.5"/>
<path d="M29 12L40 23L33 23L29 19L29 12Z" fill="#D17100"/>
<path d="M26 43L9.00002 26H16L26 36L26 43Z" stroke="black" stroke-width="2" stroke-linejoin="bevel"/>
<path d="M26 8.99996L43 26L36 26L25.9999 15.9999L26 8.99996Z" fill="#843700" fill-opacity="0.5" stroke="black" stroke-width="2" stroke-linejoin="bevel"/>
<path d="M26 36L36 26L26 16L16 26L26 36Z" fill="url(#paint1_linear_3709_16666)" stroke="black" stroke-width="2"/>
<path d="M40 29L29.1001 40.0001L29.0001 33.0001L33.0001 29.0001L40 29Z" fill="black" fill-opacity="0.3"/>
<path d="M16 11L11 16M16 11L14 9L10 10M16 11L22 5M11 16L9 14L10 10M11 16L5 22M10 10L7 7" stroke="#B3B3B3" stroke-width="2"/>
<path d="M36 11L41 16M36 11L38 9L42 10M36 11L30 5M41 16L43 14L42 10M41 16L47 22M42 10L45 7" stroke="#B3B3B3" stroke-width="2"/>
<rect x="26" y="9" width="24.0417" height="24.0417" transform="rotate(45 26 9)" stroke="black" stroke-width="2"/>
<defs>
<linearGradient id="paint0_linear_3709_16666" x1="26.7072" y1="9.70715" x2="49.6881" y2="32.6881" gradientUnits="userSpaceOnUse">
<stop stop-color="#FFE500"/>
<stop offset="1" stop-color="#FF8A00"/>
</linearGradient>
<linearGradient id="paint1_linear_3709_16666" x1="26" y1="35.3946" x2="26" y2="16.6051" gradientUnits="userSpaceOnUse">
<stop stop-color="white"/>
<stop offset="1" stop-color="white" stop-opacity="0"/>
</linearGradient>
</defs>
</svg>
