<svg width="52" height="52" viewBox="0 0 52 52" fill="none" xmlns="http://www.w3.org/2000/svg">
<path d="M13.052 14.4854L16.5875 12.364L42.0434 37.8199L39.215 40.6483L13.052 14.4854Z" fill="#B3B3B3"/>
<path d="M42.0434 43.477L44.8718 40.6485L42.7505 37.113L38.5079 41.3557L42.0434 43.477Z" fill="#B3B3B3"/>
<path d="M43.4576 44.8911L46.2861 42.0627L42.0434 37.82H39.215V40.6485L43.4576 44.8911Z" fill="#B3B3B3"/>
<path d="M10.2236 20.1426L19.416 29.335L17.2947 32.8705L10.9307 26.5065L10.5772 24.7388L9.87008 25.4459L7.39521 22.971L9.51653 20.8497L10.2236 20.1426Z" fill="#B3B3B3"/>
<path d="M10.2236 20.1426L18.0018 27.9208L19.416 27.9208L27.1942 17.3142L20.1231 10.2431L10.2236 20.1426Z" fill="#B3B3B3"/>
<path d="M10.2236 20.1426L18.0018 27.9208L19.416 27.9208L27.1942 17.3142L20.1231 10.2431L10.2236 20.1426Z" fill="#B3B3B3"/>
<path d="M22.2444 18.0212L20.123 15.8999L17.2946 18.7283L19.4159 20.8496" stroke="#B3B3B3" stroke-width="2"/>
<path d="M13.052 11.6567L16.5875 9.53542L42.0434 34.9913L39.215 37.8197L13.052 11.6567Z" fill="black"/>
<path d="M42.0434 40.6484L44.8718 37.8199L42.7505 34.2844L38.5079 38.527L42.0434 40.6484Z" fill="black"/>
<path d="M43.4576 42.0625L46.2861 39.2341L42.0434 34.9914H39.215V37.8199L43.4576 42.0625Z" fill="black"/>
<path d="M10.2236 17.314L19.416 26.5064L17.2947 30.0419L10.9307 23.6779L10.5772 21.9102L9.87008 22.6173L7.39521 20.1424L9.51653 18.0211L10.2236 17.314Z" fill="#6D6D6D"/>
<path d="M10.2236 17.314L18.0018 25.0921L19.416 25.0921L27.1942 14.4855L20.1231 7.41447L10.2236 17.314Z" fill="#686969"/>
<path d="M10.2236 17.314L18.0018 25.0921L19.416 25.0921L27.1942 14.4855L20.1231 7.41447L10.2236 17.314Z" fill="black" fill-opacity="0.2"/>
</svg>
