<svg width="52" height="52" viewBox="0 0 52 52" fill="none" xmlns="http://www.w3.org/2000/svg">
<g opacity="0.2">
<path d="M12 12H26H40V26V40H26H12V26V12Z" stroke="#B3B3B3" stroke-width="2"/>
<path opacity="0.4" d="M12 16V12H16" stroke="white" stroke-width="2"/>
<path opacity="0.4" d="M40 16V12H36" stroke="white" stroke-width="2"/>
<path opacity="0.4" d="M12 36V40H16" stroke="white" stroke-width="2"/>
<path opacity="0.4" d="M40 36V40H36" stroke="white" stroke-width="2"/>
<rect x="11" y="25" width="4" height="2" fill="#D9D9D9"/>
<rect x="37" y="25" width="4" height="2" fill="#D9D9D9"/>
<rect x="27" y="11" width="4" height="2" transform="rotate(90 27 11)" fill="#D9D9D9"/>
<rect x="27" y="37" width="4" height="2" transform="rotate(90 27 37)" fill="#D9D9D9"/>
</g>
<path d="M17.1245 43.5068L20.5886 45.5068L21.3207 48.2389L20.3207 49.9709L15.1245 46.9709L17.1245 43.5068Z" fill="black"/>
<rect x="36.6245" y="9.73193" width="4" height="2" transform="rotate(30 36.6245 9.73193)" fill="black"/>
<path d="M39.0886 13.4639L19.5887 47.2387L16.1245 45.2389L35.6245 11.4639L39.0886 13.4639Z" fill="black"/>
<path d="M39.8208 16.1958L36.3207 22.2582L31.1245 19.2582C29.2113 18.1536 26.765 18.8091 25.6604 20.7223L24.6604 22.4543L18.3303 23.4185L17.2322 19.3204L18.8662 14.4903L27.9643 4.73193L31.6604 10.33L39.8208 16.1958Z" fill="url(#paint0_linear_63_12596)"/>
<rect x="32.8921" y="12.1963" width="2" height="2" transform="rotate(30 32.8921 12.1963)" fill="black"/>
<path d="M20.5623 23.5526L16.9642 23.7847C16.9642 23.7847 13.768 17.3206 20.3662 11.8924C25.5466 7.63059 26.3662 1.5001 26.3662 1.5001L29.2633 5.48208C29.2633 5.48208 29.6113 10.8792 24.9128 14.5174C20.2143 18.1555 20.5623 23.5526 20.5623 23.5526Z" fill="url(#paint1_linear_63_12596)"/>
<rect x="22.2319" y="10.6602" width="3" height="2" transform="rotate(30 22.2319 10.6602)" fill="#9A1D1D" fill-opacity="0.87"/>
<rect x="22.0981" y="12.8921" width="4" height="10" transform="rotate(30 22.0981 12.8921)" fill="url(#paint2_linear_63_12596)" fill-opacity="0.87"/>
<path d="M26.8285 3.83529L31.3518 10.0524L31.4766 10.224L31.6604 10.3301L39.4546 14.8301L38.9546 15.6962L35.9546 20.8924L35.4546 21.7584L31.1245 19.2584C28.733 17.8777 25.675 18.6971 24.2943 21.0885L23.5619 22.3571L17.6289 22.7397C17.5968 22.6422 17.5633 22.5341 17.5297 22.4162C17.3532 21.7958 17.1793 20.9156 17.1908 19.8853C17.2135 17.8609 17.9489 15.176 21.0015 12.6647C23.7539 10.4003 25.338 7.64842 26.2332 5.47959C26.4796 4.88266 26.6748 4.32745 26.8285 3.83529Z" stroke="black" stroke-width="2"/>
<path d="M16.0981 23.2845L26.0263 22.0884" stroke="black" stroke-width="2"/>
<rect x="38.0884" y="15.1963" width="4" height="6" transform="rotate(30 38.0884 15.1963)" fill="black"/>
<path d="M37.4185 26.3562L43.4185 15.9639" stroke="black" stroke-width="2"/>
<rect x="25.8301" y="10.4282" width="2" height="2" transform="rotate(30 25.8301 10.4282)" fill="#9A1D1D" fill-opacity="0.87"/>
<defs>
<linearGradient id="paint0_linear_63_12596" x1="33.4595" y1="10.2139" x2="24.4595" y2="25.8024" gradientUnits="userSpaceOnUse">
<stop stop-color="#BEBEBE"/>
<stop offset="1" stop-color="#323232"/>
</linearGradient>
<linearGradient id="paint1_linear_63_12596" x1="28.6005" y1="2.79007" x2="16.6005" y2="23.5747" gradientUnits="userSpaceOnUse">
<stop stop-color="#D9D9D9"/>
<stop offset="1" stop-color="#D9D9D9" stop-opacity="0"/>
</linearGradient>
<linearGradient id="paint2_linear_63_12596" x1="24.0981" y1="12.8921" x2="24.0981" y2="22.8921" gradientUnits="userSpaceOnUse">
<stop stop-color="#952806"/>
<stop offset="1" stop-color="#9A1D1D" stop-opacity="0"/>
</linearGradient>
</defs>
</svg>
