<svg width="52" height="52" viewBox="0 0 52 52" fill="none" xmlns="http://www.w3.org/2000/svg">
<path d="M12 12H26H40V26V40H26H12V26V12Z" stroke="#B3B3B3" stroke-width="2"/>
<path opacity="0.4" d="M12 16V12H16" stroke="white" stroke-width="2"/>
<path opacity="0.4" d="M40 16V12H36" stroke="white" stroke-width="2"/>
<path opacity="0.4" d="M12 36V40H16" stroke="white" stroke-width="2"/>
<path opacity="0.4" d="M40 36V40H36" stroke="white" stroke-width="2"/>
<rect x="11" y="25" width="4" height="2" fill="#D9D9D9"/>
<rect x="37" y="25" width="4" height="2" fill="#D9D9D9"/>
<rect x="27" y="11" width="4" height="2" transform="rotate(90 27 11)" fill="#D9D9D9"/>
<rect x="27" y="37" width="4" height="2" transform="rotate(90 27 37)" fill="#D9D9D9"/>
<path d="M17.1243 43.507L20.5884 45.507L21.3205 48.2391L20.3205 49.9711L15.1243 46.9711L17.1243 43.507Z" fill="black"/>
<rect x="36.6243" y="9.73206" width="4" height="2" transform="rotate(30 36.6243 9.73206)" fill="black"/>
<path d="M39.0884 13.4641L19.5885 47.239L16.1243 45.2391L35.6243 11.4641L39.0884 13.4641Z" fill="black"/>
<path d="M39.8206 16.1959L36.3205 22.2583L31.1243 19.2583C29.2111 18.1537 26.7648 18.8092 25.6602 20.7224L24.6602 22.4545L18.3301 23.4186L17.2321 19.3205L18.866 14.4904L27.9641 4.73206L31.6602 10.3301L39.8206 16.1959Z" fill="url(#paint0_linear_4030_16743)"/>
<rect x="32.8923" y="12.1962" width="2" height="2" transform="rotate(30 32.8923 12.1962)" fill="black"/>
<path d="M20.5622 23.5526L16.9641 23.7846C16.9641 23.7846 13.768 17.3205 20.3661 11.8923C25.5465 7.63053 26.3661 1.50004 26.3661 1.50004L29.2632 5.48202C29.2632 5.48202 29.6112 10.8792 24.9127 14.5173C20.2142 18.1554 20.5622 23.5526 20.5622 23.5526Z" fill="url(#paint1_linear_4030_16743)"/>
<rect x="22.2321" y="10.6603" width="3" height="2" transform="rotate(30 22.2321 10.6603)" fill="#9A1D1D" fill-opacity="0.87"/>
<rect x="22.0981" y="12.8923" width="4" height="10" transform="rotate(30 22.0981 12.8923)" fill="url(#paint2_linear_4030_16743)" fill-opacity="0.87"/>
<path d="M26.8284 3.83523L31.3517 10.0523L31.4766 10.2239L31.6604 10.33L39.4546 14.83L38.9545 15.6962L35.9545 20.8923L35.4545 21.7584L31.1244 19.2583C28.7329 17.8776 25.675 18.697 24.2943 21.0885L23.5619 22.357L17.6289 22.7397C17.5967 22.6422 17.5632 22.5341 17.5296 22.4161C17.3531 21.7957 17.1792 20.9156 17.1907 19.8852C17.2134 17.8608 17.9488 15.1759 21.0014 12.6646C23.7538 10.4003 25.338 7.64836 26.2331 5.47953C26.4795 4.8826 26.6747 4.32739 26.8284 3.83523Z" stroke="black" stroke-width="2"/>
<path d="M16.0981 23.2846L26.0263 22.0884" stroke="black" stroke-width="2"/>
<rect x="38.0884" y="15.1962" width="4" height="6" transform="rotate(30 38.0884 15.1962)" fill="black"/>
<path d="M37.4186 26.3564L43.4186 15.9641" stroke="black" stroke-width="2"/>
<rect x="25.8301" y="10.4282" width="2" height="2" transform="rotate(30 25.8301 10.4282)" fill="#9A1D1D" fill-opacity="0.87"/>
<defs>
<linearGradient id="paint0_linear_4030_16743" x1="33.4594" y1="10.214" x2="24.4593" y2="25.8026" gradientUnits="userSpaceOnUse">
<stop stop-color="#BEBEBE"/>
<stop offset="1" stop-color="#323232"/>
</linearGradient>
<linearGradient id="paint1_linear_4030_16743" x1="28.6004" y1="2.79001" x2="16.6004" y2="23.5746" gradientUnits="userSpaceOnUse">
<stop stop-color="#D9D9D9"/>
<stop offset="1" stop-color="#D9D9D9" stop-opacity="0"/>
</linearGradient>
<linearGradient id="paint2_linear_4030_16743" x1="24.0981" y1="12.8923" x2="24.0981" y2="22.8923" gradientUnits="userSpaceOnUse">
<stop stop-color="#952806"/>
<stop offset="1" stop-color="#9A1D1D" stop-opacity="0"/>
</linearGradient>
</defs>
</svg>
