<svg width="52" height="52" viewBox="0 0 52 52" fill="none" xmlns="http://www.w3.org/2000/svg">
<path d="M35 25V5H47V25H41V6" stroke="#A9A689" stroke-width="2"/>
<rect x="5" y="21" width="17" height="26" fill="url(#paint0_linear_717_44468)" stroke="black" stroke-width="2"/>
<rect x="5" y="21" width="17" height="8" fill="black" fill-opacity="0.5" stroke="black" stroke-width="2"/>
<rect x="5" y="5" width="17" height="12" fill="url(#paint1_linear_717_44468)" stroke="black" stroke-width="2"/>
<rect x="5" y="5" width="17" height="8" fill="#CDE5B4" fill-opacity="0.5" stroke="black" stroke-width="2"/>
<rect x="13" y="28" width="2" height="4" fill="black"/>
<rect opacity="0.1" x="16" y="43" width="2" height="2" fill="#523C15"/>
<rect opacity="0.6" x="18" y="41" width="2" height="2" fill="#523C15"/>
<rect opacity="0.6" x="17" y="14" width="2" height="2" fill="#523C15"/>
<rect opacity="0.2" x="10" y="41" width="6" height="2" fill="#523C15"/>
<rect opacity="0.2" x="8" y="22" width="2" height="6" fill="#A4701A"/>
<rect opacity="0.2" x="12" y="22" width="2" height="6" fill="#A4701A"/>
<rect opacity="0.2" x="16" y="22" width="2" height="6" fill="#A4701A"/>
<rect opacity="0.2" x="13" y="10" width="6" height="2" fill="#523C15"/>
<rect opacity="0.3" x="14" y="39" width="6" height="2" fill="#523C15"/>
<rect x="25" y="4" width="2" height="44" fill="black"/>
<rect width="2" height="20" transform="matrix(-1 0 0 1 33 28)" fill="#BD884A"/>
<rect width="2" height="2" transform="matrix(-1 0 0 1 31 36)" fill="black"/>
<rect width="2" height="2" transform="matrix(-1 0 0 1 31 40)" fill="black"/>
<rect width="2" height="2" transform="matrix(-1 0 0 1 31 32)" fill="black"/>
<rect width="2" height="2" transform="matrix(-1 0 0 1 31 28)" fill="black"/>
<rect width="3" height="2" transform="matrix(-1 0 0 1 36 28)" fill="#BD884A"/>
<path d="M48 5H37C35.8954 5 35 5.89543 35 7V8C35 9.10457 35.8954 10 37 10H45C46.1046 10 47 10.8954 47 12V13C47 14.1046 46.1046 15 45 15H37C35.8954 15 35 15.8954 35 17V18C35 19.1046 35.8954 20 37 20H45C46.1046 20 47 20.8954 47 22V23C47 24.1046 46.1046 25 45 25H34" stroke="#FBEEBE" stroke-width="2"/>
<rect x="36" y="33" width="11" height="14" rx="4" stroke="black" stroke-width="2"/>
<rect x="36" y="39" width="11" height="8" fill="url(#paint2_linear_717_44468)" stroke="black" stroke-width="2"/>
<rect x="39" y="29" width="5" height="4" fill="#CF3B3B" stroke="black" stroke-width="2"/>
<path d="M26 25H29C30.1046 25 31 24.1046 31 23V4" stroke="black" stroke-width="2"/>
<defs>
<linearGradient id="paint0_linear_717_44468" x1="22" y1="47" x2="5" y2="29" gradientUnits="userSpaceOnUse">
<stop stop-color="#A46200"/>
<stop offset="1" stop-color="#A27D35"/>
</linearGradient>
<linearGradient id="paint1_linear_717_44468" x1="22" y1="17" x2="16.2425" y2="3.79171" gradientUnits="userSpaceOnUse">
<stop stop-color="#A46200"/>
<stop offset="1" stop-color="#A27D35"/>
</linearGradient>
<linearGradient id="paint2_linear_717_44468" x1="41.5" y1="39" x2="41.5" y2="47" gradientUnits="userSpaceOnUse">
<stop stop-color="#FF8A00"/>
<stop offset="1" stop-color="#C6FF26" stop-opacity="0"/>
</linearGradient>
</defs>
</svg>
