<svg width="52" height="52" viewBox="0 0 52 52" fill="none" xmlns="http://www.w3.org/2000/svg">
<path d="M11 9H41V46H12.4806L11 44.1492V9Z" fill="white" stroke="black" stroke-width="2"/>
<path d="M40 44L39.25 43L40 42V44Z" stroke="black" stroke-width="2"/>
<path d="M41 7V40H11V8.41421L12.4142 7H41Z" fill="#D57373" stroke="black" stroke-width="2"/>
<rect x="20" y="16" width="12" height="15" fill="white" fill-opacity="0.24" stroke="black" stroke-width="2"/>
<path d="M26.7894 24.1139L29.3814 20.7813L32 25.2703V31H20V16H21.8303L25.0753 23.8807L25.7314 25.4741L26.7894 24.1139Z" fill="#FF5353" stroke="black" stroke-width="2"/>
<path d="M20.7071 48.2929L20 47.5858L19.2929 48.2929L17.5858 50H17V44H23V50H22.4142L20.7071 48.2929Z" fill="#FF3232" stroke="black" stroke-width="2"/>
</svg>
