<svg width="52" height="53" viewBox="0 0 52 53" fill="none" xmlns="http://www.w3.org/2000/svg">
<path d="M11.3137 46.4262L42.4264 15.3135" stroke="#B3B3B3" stroke-width="2"/>
<path d="M45.2548 12.4853L43.1335 14.6066L41.4364 12.9095C41.4364 12.9095 29.6985 11.0711 19.799 20.9706L19.7424 23.7424" stroke="#B3B3B3" stroke-width="2"/>
<path d="M8.48528 49.2548L10.6066 47.1335L8.90955 45.4364C8.90955 45.4364 7.07107 33.6985 16.9706 23.799L19.7424 23.7424" stroke="#B3B3B3" stroke-width="2"/>
<rect x="16.2634" y="25.9204" width="8" height="2" transform="rotate(-45 16.2634 25.9204)" fill="#B3B3B3"/>
<path d="M11.3137 42.4262L42.4264 11.3135" stroke="#767676" stroke-width="2"/>
<path d="M45.2548 8.48528L43.1335 10.6066L41.4364 8.90955C41.4364 8.90955 29.6985 7.07107 19.799 16.9706L19.7424 19.7424" stroke="black" stroke-width="2"/>
<path d="M8.48528 45.2548L10.6066 43.1335L8.90955 41.4364C8.90955 41.4364 7.07107 29.6985 16.9706 19.799L19.7424 19.7424" stroke="black" stroke-width="2"/>
<rect x="16.2634" y="21.9204" width="8" height="2" transform="rotate(-45 16.2634 21.9204)" fill="black"/>
</svg>
