<svg width="52" height="52" viewBox="0 0 52 52" fill="none" xmlns="http://www.w3.org/2000/svg">
<path d="M47 9.80796V19.0076L40.2137 17.5231L39 17.2576V18.5V28.5C39 29.3284 38.3284 30 37.5 30H36.0382L36.568 31.3624L40 40.1876V45H36V44V43H35H33H32V44V45H28V44V43H27H25H24V44V45H20V44V43H19H17H16V44V45H12V40.1876L15.432 31.3624L15.9618 30H14.5H13V18.5V17.2576L11.7863 17.5231L5 19.0076V9.80796L12.1884 7H21.4316C21.4418 7.01529 21.4521 7.03082 21.4627 7.04657C21.6903 7.38482 22.0341 7.83394 22.5045 8.28458C23.4484 9.18889 24.9338 10.125 27 10.125C29.0662 10.125 30.5516 9.18889 31.4955 8.28458C31.9659 7.83394 32.3097 7.38482 32.5373 7.04657C32.5479 7.03082 32.5582 7.01529 32.5684 7H39.8116L47 9.80796Z" fill="#AFAFAF" stroke="black" stroke-width="2"/>
<path d="M12 6H22C22 6 23.5235 9.125 27 9.125C30.4765 9.125 32 6 32 6L14 29H27L14 44L12 46V40L14.5 31H12V18.5L4 20.25V9.125L12 6Z" fill="black" fill-opacity="0.2"/>
<path d="M15 30L37 30" stroke="black" stroke-width="2"/>
<path d="M19 35.9998L20 29.9998L28 37.9998" stroke="black" stroke-width="2"/>
</svg>
