<svg width="52" height="52" viewBox="0 0 52 52" fill="none" xmlns="http://www.w3.org/2000/svg">
<path d="M12 12H26H40V26V40H26H12V26V12Z" stroke="#B3B3B3" stroke-width="2"/>
<path opacity="0.4" d="M12 16V12H16" stroke="white" stroke-width="2"/>
<path opacity="0.4" d="M40 16V12H36" stroke="white" stroke-width="2"/>
<path opacity="0.4" d="M12 36V40H16" stroke="white" stroke-width="2"/>
<path opacity="0.4" d="M40 36V40H36" stroke="white" stroke-width="2"/>
<rect x="11" y="25" width="4" height="2" fill="#D9D9D9"/>
<rect x="37" y="25" width="4" height="2" fill="#D9D9D9"/>
<rect x="27" y="11" width="4" height="2" transform="rotate(90 27 11)" fill="#D9D9D9"/>
<rect x="27" y="37" width="4" height="2" transform="rotate(90 27 37)" fill="#D9D9D9"/>
<rect width="4" height="21" transform="matrix(-0.707107 -0.707107 -0.707107 0.707107 22.182 24.1465)" fill="black"/>
<path d="M22.182 29.8033L17.9394 25.5607L13.6967 21.3181" stroke="black" stroke-width="2"/>
<path d="M21.4749 27.682H15.8181V22.0252" stroke="black" stroke-width="2"/>
<path d="M19.464 27.3952L15.168 26.9179L16.5252 25.5607L17.2323 24.8536L16.5252 24.1465L15.8181 23.4394L28.546 10.7114C29.7175 9.53986 31.617 9.53986 32.7886 10.7114L34.9099 12.8328L20.0607 27.682L19.8127 27.434L19.464 27.3952Z" fill="#8B9DA5" stroke="black" stroke-width="2"/>
<path d="M27.8388 18.4895L29.9601 16.3682L23.5962 17.0753L21.4749 19.1967L27.8388 18.4895Z" fill="#D9D9D9"/>
<rect width="6" height="2" transform="matrix(-0.707107 -0.707107 -0.707107 0.707107 7.33276 38.9957)" fill="black"/>
<rect width="4" height="21" transform="matrix(0.707107 0.707107 0.707107 -0.707107 29.8181 27.8535)" fill="black"/>
<path d="M29.8181 22.1967L34.0607 26.4393L38.3033 30.6819" stroke="black" stroke-width="2"/>
<path d="M30.5251 24.318H36.182V29.9748" stroke="black" stroke-width="2"/>
<path d="M32.536 24.6048L36.8321 25.0821L35.4749 26.4393L34.7678 27.1464L35.4749 27.8535L36.182 28.5606L23.4541 41.2886C22.2825 42.4601 20.383 42.4601 19.2114 41.2886L17.0901 39.1672L31.9394 24.318L32.1874 24.566L32.536 24.6048Z" fill="#8B9DA5" stroke="black" stroke-width="2"/>
<path d="M27.6967 35.6317L29.8181 33.5104L24.1612 33.5104L22.0399 35.6317L27.6967 35.6317Z" fill="#D9D9D9"/>
<rect width="6" height="2" transform="matrix(-0.707107 -0.707107 -0.707107 0.707107 50.3242 15.8328)" fill="black"/>
</svg>
