<svg width="52" height="52" viewBox="0 0 52 52" fill="none" xmlns="http://www.w3.org/2000/svg">
<path d="M12 12H26H40V26V40H26H12V26V12Z" stroke="#B3B3B3" stroke-width="2"/>
<path opacity="0.4" d="M12 16V12H16" stroke="white" stroke-width="2"/>
<path opacity="0.4" d="M40 16V12H36" stroke="white" stroke-width="2"/>
<path opacity="0.4" d="M12 36V40H16" stroke="white" stroke-width="2"/>
<path opacity="0.4" d="M40 36V40H36" stroke="white" stroke-width="2"/>
<rect x="11" y="25" width="4" height="2" fill="#D9D9D9"/>
<rect x="37" y="25" width="4" height="2" fill="#D9D9D9"/>
<rect x="27" y="11" width="4" height="2" transform="rotate(90 27 11)" fill="#D9D9D9"/>
<rect x="27" y="37" width="4" height="2" transform="rotate(90 27 37)" fill="#D9D9D9"/>
<rect x="29.818" y="24.1465" width="4" height="21" transform="rotate(-45 29.818 24.1465)" fill="black"/>
<path d="M29.818 29.8033L34.0606 25.5607L38.3033 21.3181" stroke="black" stroke-width="2"/>
<path d="M30.5251 27.682H36.1819V22.0252" stroke="black" stroke-width="2"/>
<path d="M32.536 27.3952L36.832 26.9179L35.4748 25.5607L34.7677 24.8536L35.4748 24.1465L36.1819 23.4394L23.454 10.7114C22.2825 9.53986 20.383 9.53986 19.2114 10.7114L17.0901 12.8328L31.9393 27.682L32.1873 27.434L32.536 27.3952Z" fill="#8B9DA5" stroke="black" stroke-width="2"/>
<path d="M24.1612 18.4895L22.0399 16.3682L28.4038 17.0753L30.5251 19.1967L24.1612 18.4895Z" fill="#D9D9D9"/>
<rect x="44.6672" y="38.9957" width="6" height="2" transform="rotate(-45 44.6672 38.9957)" fill="black"/>
<rect x="22.1819" y="27.8535" width="4" height="21" transform="rotate(135 22.1819 27.8535)" fill="black"/>
<path d="M22.1819 22.1967L17.9393 26.4393L13.6967 30.6819" stroke="black" stroke-width="2"/>
<path d="M21.4749 24.318H15.818V29.9748" stroke="black" stroke-width="2"/>
<path d="M16.5251 27.8535L15.818 28.5606L28.5459 41.2886C29.7175 42.4601 31.617 42.4601 32.7886 41.2886L34.9099 39.1672L20.0606 24.318L19.8126 24.566L19.464 24.6048L15.1679 25.0821L16.5251 26.4393L17.2322 27.1464L16.5251 27.8535Z" fill="#8B9DA5" stroke="black" stroke-width="2"/>
<path d="M24.3033 35.6317L22.1819 33.5104L27.8388 33.5104L29.9601 35.6317L24.3033 35.6317Z" fill="#D9D9D9"/>
<rect x="1.67584" y="15.8328" width="6" height="2" transform="rotate(-45 1.67584 15.8328)" fill="black"/>
</svg>
