<svg width="52" height="52" viewBox="0 0 52 52" fill="none" xmlns="http://www.w3.org/2000/svg">
<path d="M7 22.4806V29.5194L26 44.7194L45 29.5194V22.4806L26 7.28062L7 22.4806Z" fill="#727272" stroke="black" stroke-width="2"/>
<path d="M7 22L25 8L15 30H7V22Z" fill="white" fill-opacity="0.44"/>
<path d="M7 22.4806V29.5194L26 44.7194L45 29.5194V22.4806L26 7.28062L7 22.4806Z" stroke="black" stroke-width="2"/>
<path d="M8 30L26 30M44 30L26 30M26 30L26 44" stroke="black" stroke-width="2"/>
<path d="M26 34.8986L37.6129 29.5388L26 8.09959L14.3871 29.5388L26 34.8986Z" fill="#727272" stroke="black" stroke-width="2"/>
<path d="M26 26V24H30V26V28H26V26Z" stroke="black" stroke-width="2"/>
<path d="M22 23V29" stroke="black" stroke-width="2"/>
</svg>
