<svg width="52" height="52" viewBox="0 0 52 52" fill="none" xmlns="http://www.w3.org/2000/svg">
<path d="M13 25L26 15V8L6 24L13 25Z" fill="#84BA5A"/>
<path d="M33 39L39 25L26 15L13 25L19 39H33Z" fill="#84BA5A"/>
<path d="M26 15L39 25L46 24L26 8V15Z" fill="#84BA5A"/>
<path d="M39 25L33 39L37 45L46 24L39 25Z" fill="#84BA5A"/>
<path d="M33 39H19L15 45H37L33 39Z" fill="#84BA5A"/>
<path d="M19 39L13 25L6 24L15 45L19 39Z" fill="#84BA5A"/>
<path d="M13 25L19 39M13 25L26 15M13 25L6 24M39 25L33 39M39 25L26 15M39 25L46 24M33 39H19M33 39L37 45M19 39L15 45M26 15V8M37 45L46 24M37 45H15M15 45L6 24M6 24L26 8M46 24L26 8" stroke="black" stroke-width="2"/>
<path d="M23 24V34" stroke="black" stroke-width="2"/>
<path d="M26 25H30V29H27V33H31" stroke="black" stroke-width="2"/>
</svg>
