<svg width="52" height="52" viewBox="0 0 52 52" fill="none" xmlns="http://www.w3.org/2000/svg">
<rect x="17" y="10" width="18" height="2" fill="black"/>
<rect x="19" y="42" width="14" height="2" fill="black"/>
<path d="M26 46V13" stroke="black" stroke-width="2"/>
<path d="M34 14V7H38C39.1046 7 40 7.89543 40 9V19C40 20.1046 39.1046 21 38 21H36V24" stroke="black" stroke-width="2"/>
<path d="M38 14V7H42C43.1046 7 44 7.89543 44 9V19C44 20.1046 43.1046 21 42 21H40V24" stroke="black" stroke-width="2"/>
<path opacity="0.5" d="M38 46V41H38.263C39.8604 41 40.8131 39.2197 39.9271 37.8906L38.5937 35.8906C38.2228 35.3342 37.5983 35 36.9296 35H34V43H30" stroke="black" stroke-width="2"/>
<path opacity="0.5" d="M14 46V41H13.737C12.1396 41 11.1869 39.2197 12.0729 37.8906L13.4063 35.8906C13.7772 35.3342 14.4017 35 15.0704 35H18V43H22" stroke="black" stroke-width="2"/>
<path d="M18 14V7H14C12.8954 7 12 7.89543 12 9V19C12 20.1046 12.8954 21 14 21H16V24" stroke="black" stroke-width="2"/>
<path d="M14 14V7H10C8.89543 7 8 7.89543 8 9V19C8 20.1046 8.89543 21 10 21H12V24" stroke="black" stroke-width="2"/>
<path d="M26.5145 38.8575L30 36.7662V45H22V36.7662L25.4855 38.8575L26 39.1662L26.5145 38.8575Z" fill="#9A9A9A" stroke="black" stroke-width="2"/>
<path d="M26.5145 27.8575L30 25.7662V34H22V25.7662L25.4855 27.8575L26 28.1662L26.5145 27.8575Z" fill="#9A9A9A" stroke="black" stroke-width="2"/>
<path d="M26.5145 16.8575L30 14.7662V23H22V14.7662L25.4855 16.8575L26 17.1662L26.5145 16.8575Z" fill="#9A9A9A" stroke="black" stroke-width="2"/>
<circle cx="26" cy="23" r="2" fill="#24FF00" stroke="black" stroke-width="2"/>
<circle cx="26" cy="34" r="2" fill="#24FF00" stroke="black" stroke-width="2"/>
<circle cx="26" cy="10" r="3" fill="#24FF00" stroke="black" stroke-width="2"/>
<circle cx="17" cy="13" r="2" fill="#24FF00" stroke="black" stroke-width="2"/>
<circle cx="35" cy="13" r="2" fill="#24FF00" stroke="black" stroke-width="2"/>
<path opacity="0.5" d="M7 42V30C7 28.8954 7.89543 28 9 28H11V25" stroke="black" stroke-width="2"/>
<path opacity="0.5" d="M45 42V30C45 28.8954 44.1046 28 43 28H41V25" stroke="black" stroke-width="2"/>
<path d="M41 24C41 22.3431 39.6569 21 38 21H36V28H41V24Z" fill="#D9D9D9" stroke="black" stroke-width="2"/>
<path d="M11 24C11 22.3431 12.3431 21 14 21H16V28H11V24Z" fill="#D9D9D9" stroke="black" stroke-width="2"/>
</svg>
