<svg width="52" height="52" viewBox="0 0 52 52" fill="none" xmlns="http://www.w3.org/2000/svg">
<path d="M13.2168 37.8025L15 39.5858L18.2929 36.2929L20 34.5858V37V41V42H19H16.0806L18.4806 45H29.3602L32 39.2804V35.5938C32 33.6001 31.4582 31.6439 30.4324 29.9343L29.1425 27.7845L28.8435 27.2862L29.1284 26.7797L37.5589 11.7922C37.4307 11.7532 37.2921 11.7142 37.1445 11.6767C36.2466 11.4487 35.052 11.2869 33.7963 11.5052C32.5594 11.7204 31.2352 12.3079 30.0379 13.6291C28.8292 14.9628 27.7026 17.0973 26.9778 20.4796L25 20.2701C25 13.471 22.8336 11.207 21.0939 10.4338C20.1653 10.0211 19.218 9.96261 18.4801 10.0173C18.3558 10.0265 18.2386 10.0388 18.13 10.0529L20.4887 25.6202L20.5699 26.1557L20.1657 26.5162L17.8087 28.6187L13.2168 37.8025Z" fill="#A68B61" stroke="black" stroke-width="2"/>
<rect x="23" y="39" width="2" height="6" fill="black"/>
<rect x="27" y="39" width="2" height="6" fill="black"/>
<path d="M14 21L32 28H24" stroke="black" stroke-width="2"/>
<rect x="29" y="25.1714" width="4" height="4" transform="rotate(45 29 25.1714)" fill="#DCEE08" stroke="black" stroke-width="2"/>
</svg>
