<svg width="52" height="52" viewBox="0 0 52 52" fill="none" xmlns="http://www.w3.org/2000/svg">
<g opacity="0.2">
<path d="M12 12H26H40V26V40H26H12V26V12Z" stroke="#B3B3B3" stroke-width="2"/>
<path opacity="0.4" d="M12 16V12H16" stroke="white" stroke-width="2"/>
<path opacity="0.4" d="M40 16V12H36" stroke="white" stroke-width="2"/>
<path opacity="0.4" d="M12 36V40H16" stroke="white" stroke-width="2"/>
<path opacity="0.4" d="M40 36V40H36" stroke="white" stroke-width="2"/>
<rect x="11" y="25" width="4" height="2" fill="#D9D9D9"/>
<rect x="37" y="25" width="4" height="2" fill="#D9D9D9"/>
<rect x="27" y="11" width="4" height="2" transform="rotate(90 27 11)" fill="#D9D9D9"/>
<rect x="27" y="37" width="4" height="2" transform="rotate(90 27 37)" fill="#D9D9D9"/>
</g>
<rect x="28.4331" y="18.4556" width="4" height="13" transform="rotate(30 28.4331 18.4556)" fill="black"/>
<path d="M14.9331 41.8384L18.3972 43.8384L19.1293 46.5704L18.1293 48.3025L12.9331 45.3025L14.9331 41.8384Z" fill="black"/>
<path d="M38.3972 9.19727L18.3973 43.8382L14.9331 41.8383L34.9331 7.19727L38.3972 9.19727Z" fill="black"/>
<path d="M24.8743 4.85386L27.3708 6.29522L40.0024 13.5881L39.6024 13.6952L39.2023 13.8024L38.9952 14.1611L35.9951 19.3575L31.665 16.8575C29.2735 15.4768 26.2155 16.2961 24.8348 18.6876L22.8348 22.1517L18.4139 19.5993L24.8743 4.85386Z" fill="url(#paint0_linear_63_12584)" stroke="black" stroke-width="2"/>
<path d="M25.1387 6.16162L27.7367 7.66162L22.4688 20.786L18.1387 18.286L25.1387 6.16162Z" fill="url(#paint1_linear_63_12584)"/>
<rect x="34.7988" y="9.42969" width="2" height="4" transform="rotate(30 34.7988 9.42969)" fill="black"/>
<path d="M24.8743 4.85386L27.3708 6.29522L40.0024 13.5881L39.6024 13.6952L39.2023 13.8024L38.9952 14.1611L35.9951 19.3575L31.665 16.8575C29.2735 15.4768 26.2155 16.2961 24.8348 18.6876L22.8348 22.1517L18.4139 19.5993L24.8743 4.85386Z" stroke="black" stroke-width="2"/>
<rect x="23.4688" y="19.0537" width="2" height="2" transform="rotate(30 23.4688 19.0537)" fill="#A47048"/>
<rect x="30.335" y="9.16162" width="2" height="2" transform="rotate(30 30.335 9.16162)" fill="#A47048"/>
<rect x="31.0669" y="11.8936" width="2" height="2" transform="rotate(30 31.0669 11.8936)" fill="#A47048"/>
<defs>
<linearGradient id="paint0_linear_63_12584" x1="33.5" y1="8.6792" x2="24.4999" y2="24.2678" gradientUnits="userSpaceOnUse">
<stop stop-color="#D5AF76"/>
<stop offset="1" stop-color="#8E5534"/>
</linearGradient>
<linearGradient id="paint1_linear_63_12584" x1="26.4377" y1="6.91162" x2="19.4377" y2="19.036" gradientUnits="userSpaceOnUse">
<stop stop-color="white"/>
<stop offset="1" stop-color="#D9D9D9" stop-opacity="0"/>
</linearGradient>
</defs>
</svg>
