<svg width="56" height="57" viewBox="0 0 56 57" fill="none" xmlns="http://www.w3.org/2000/svg">
<path d="M10.071 18.8491L13.6066 16.7278L39.0624 42.1836L36.234 45.0121L10.071 18.8491Z" fill="#B3B3B3"/>
<path d="M36.234 45.0121L40.4766 40.7695L44.0121 42.8908L38.3553 48.5477L36.234 45.0121Z" fill="#B3B3B3"/>
<path d="M34.8198 43.5981L37.6483 40.7697L41.8909 45.0124V47.8408H39.0625L34.8198 43.5981Z" fill="#B3B3B3"/>
<path d="M7.24263 24.5064L14.3137 31.5775L13.6066 33.6988L12.1924 35.113L3.70709 26.6277L5.82842 24.5064L7.24263 24.5064Z" fill="#B3B3B3"/>
<path d="M18.5564 13.1925L25.6274 20.2635L27.7487 19.5564L29.163 18.1422L20.6777 9.65692L18.5563 11.7782L18.5564 13.1925Z" fill="#B3B3B3"/>
<path d="M7.24268 24.5063L13.7245 30.9882L15.0209 30.8703L25.6275 20.2637L18.5564 13.1926L7.24268 24.5063Z" fill="#B3B3B3"/>
<path d="M7.24268 24.5063L13.7245 30.9882L15.0209 30.8703L25.6275 20.2637L18.5564 13.1926L7.24268 24.5063Z" fill="#B3B3B3"/>
<rect x="14.4349" y="20.3848" width="4" height="4" stroke="#B3B3B3" stroke-width="2"/>
<circle cx="45.4264" cy="38.6484" r="2" transform="rotate(-45 45.4264 38.6484)" fill="#B3B3B3" stroke="#B3B3B3" stroke-width="2"/>
<circle cx="39.7696" cy="32.9917" r="2" transform="rotate(-45 39.7696 32.9917)" fill="#B3B3B3" stroke="#B3B3B3" stroke-width="2"/>
<circle cx="45.4264" cy="27.3345" r="2" transform="rotate(-45 45.4264 27.3345)" fill="#B3B3B3" stroke="#B3B3B3" stroke-width="2"/>
<rect x="39.7695" y="34.4058" width="2" height="6" transform="rotate(-45 39.7695 34.4058)" fill="#B3B3B3"/>
<rect x="44.0122" y="38.6484" width="2" height="6" transform="rotate(45 44.0122 38.6484)" fill="#B3B3B3"/>
<rect x="44.0122" y="27.3345" width="2" height="6" transform="rotate(45 44.0122 27.3345)" fill="#B3B3B3"/>
<path d="M10.071 14.8491L13.6066 12.7278L39.0624 38.1836L36.234 41.0121L10.071 14.8491Z" fill="black"/>
<path d="M36.234 41.0121L40.4766 36.7695L44.0121 38.8908L38.3553 44.5477L36.234 41.0121Z" fill="black"/>
<path d="M34.8198 39.5981L37.6483 36.7697L41.8909 41.0124V43.8408H39.0625L34.8198 39.5981Z" fill="black"/>
<path d="M7.24263 20.5064L14.3137 27.5775L13.6066 29.6988L12.1924 31.113L3.70709 22.6277L5.82842 20.5064L7.24263 20.5064Z" fill="#686969"/>
<path d="M18.5564 9.19246L25.6274 16.2635L27.7487 15.5564L29.163 14.1422L20.6777 5.65692L18.5563 7.77824L18.5564 9.19246Z" fill="#686969"/>
<path d="M6.53557 21.2135L5.82846 20.5063L6.53557 19.7992L17.8493 8.48553L18.5564 7.77843L19.2635 8.48553L26.3346 15.5566L27.0417 16.2637L26.3346 16.9708L15.728 27.5774L15.4719 27.8334L15.1114 27.8662L13.815 27.9841L13.3486 28.0265L13.0174 27.6953L6.53557 21.2135Z" fill="#686969"/>
<path d="M6.53557 21.2135L5.82846 20.5063L6.53557 19.7992L17.8493 8.48553L18.5564 7.77843L19.2635 8.48553L26.3346 15.5566L27.0417 16.2637L26.3346 16.9708L15.728 27.5774L15.4719 27.8334L15.1114 27.8662L13.815 27.9841L13.3486 28.0265L13.0174 27.6953L6.53557 21.2135Z" fill="black" fill-opacity="0.2"/>
<path d="M6.53557 21.2135L5.82846 20.5063L6.53557 19.7992L17.8493 8.48553L18.5564 7.77843L19.2635 8.48553L26.3346 15.5566L27.0417 16.2637L26.3346 16.9708L15.728 27.5774L15.4719 27.8334L15.1114 27.8662L13.815 27.9841L13.3486 28.0265L13.0174 27.6953L6.53557 21.2135Z" stroke="black" stroke-width="2"/>
<rect x="14.4349" y="16.3848" width="4" height="4" stroke="black" stroke-opacity="0.2" stroke-width="2"/>
<circle cx="45.4264" cy="34.6484" r="2" transform="rotate(-45 45.4264 34.6484)" fill="#D9D9D9" stroke="black" stroke-width="2"/>
<circle cx="39.7696" cy="28.9917" r="2" transform="rotate(-45 39.7696 28.9917)" fill="#D9D9D9" stroke="black" stroke-width="2"/>
<circle cx="45.4264" cy="23.3345" r="2" transform="rotate(-45 45.4264 23.3345)" fill="#D9D9D9" stroke="black" stroke-width="2"/>
<rect x="39.7695" y="30.4058" width="2" height="6" transform="rotate(-45 39.7695 30.4058)" fill="black"/>
<rect x="44.0122" y="34.6484" width="2" height="6" transform="rotate(45 44.0122 34.6484)" fill="black"/>
<rect x="44.0122" y="23.3345" width="2" height="6" transform="rotate(45 44.0122 23.3345)" fill="black"/>
</svg>
