<svg width="52" height="52" viewBox="0 0 52 52" fill="none" xmlns="http://www.w3.org/2000/svg">
<path d="M12 12H26H40V26V40H26H12V26V12Z" stroke="#B3B3B3" stroke-width="2"/>
<path opacity="0.4" d="M12 16V12H16" stroke="white" stroke-width="2"/>
<path opacity="0.4" d="M40 16V12H36" stroke="white" stroke-width="2"/>
<path opacity="0.4" d="M12 36V40H16" stroke="white" stroke-width="2"/>
<path opacity="0.4" d="M40 36V40H36" stroke="white" stroke-width="2"/>
<rect x="11" y="25" width="4" height="2" fill="#D9D9D9"/>
<rect x="37" y="25" width="4" height="2" fill="#D9D9D9"/>
<rect x="27" y="11" width="4" height="2" transform="rotate(90 27 11)" fill="#D9D9D9"/>
<rect x="27" y="37" width="4" height="2" transform="rotate(90 27 37)" fill="#D9D9D9"/>
<circle cx="2" cy="2" r="2" transform="matrix(0.707107 0.707107 0.707107 -0.707107 36.6127 12.5625)" stroke="black" stroke-width="2"/>
<path d="M9.74268 39.4326L12.5711 42.261L38.7341 16.0981L35.9056 13.2697L9.74268 39.4326Z" fill="black"/>
<path d="M36.6127 13.9767L38.0269 15.3909L39.4411 13.9767L38.0269 12.5625L36.6127 13.9767Z" fill="black"/>
<path d="M10.4497 37.3113L14.6923 41.5539L12.571 42.261L9.7426 39.4326L10.4497 37.3113Z" fill="black"/>
<path d="M7.62126 31.6545L6.91416 32.3616L7.62126 33.0687L18.935 44.3824L19.6421 45.0895L20.3492 44.3824L24.5918 40.1397L25.2989 39.4326L24.5918 38.7255L13.2781 27.4118L12.571 26.7047L11.8639 27.4118L7.62126 31.6545Z" fill="#686969"/>
<path d="M7.62126 31.6545L6.91416 32.3616L7.62126 33.0687L18.935 44.3824L19.6421 45.0895L20.3492 44.3824L24.5918 40.1397L25.2989 39.4326L24.5918 38.7255L13.2781 27.4118L12.571 26.7047L11.8639 27.4118L7.62126 31.6545Z" fill="black" fill-opacity="0.2"/>
<path d="M7.62126 31.6545L6.91416 32.3616L7.62126 33.0687L18.935 44.3824L19.6421 45.0895L20.3492 44.3824L24.5918 40.1397L25.2989 39.4326L24.5918 38.7255L13.2781 27.4118L12.571 26.7047L11.8639 27.4118L7.62126 31.6545Z" stroke="black" stroke-width="2"/>
<path d="M7.62126 31.6545L6.91416 32.3616L7.62126 33.0687L16.1065 41.554L16.8137 42.2611L17.5208 41.554L21.7634 37.3113L22.4705 36.6042L21.7634 35.8971L13.2781 27.4118L12.571 26.7047L11.8639 27.4118L7.62126 31.6545Z" fill="#919191" stroke="black" stroke-width="2"/>
</svg>
