<svg width="52" height="52" viewBox="0 0 52 52" fill="none" xmlns="http://www.w3.org/2000/svg">
<g opacity="0.2">
<path d="M12 12H26H40V26V40H26H12V26V12Z" stroke="#B3B3B3" stroke-width="2"/>
<path opacity="0.4" d="M12 16V12H16" stroke="white" stroke-width="2"/>
<path opacity="0.4" d="M40 16V12H36" stroke="white" stroke-width="2"/>
<path opacity="0.4" d="M12 36V40H16" stroke="white" stroke-width="2"/>
<path opacity="0.4" d="M40 36V40H36" stroke="white" stroke-width="2"/>
<rect x="11" y="25" width="4" height="2" fill="#D9D9D9"/>
<rect x="37" y="25" width="4" height="2" fill="#D9D9D9"/>
<rect x="27" y="11" width="4" height="2" transform="rotate(90 27 11)" fill="#D9D9D9"/>
<rect x="27" y="37" width="4" height="2" transform="rotate(90 27 37)" fill="#D9D9D9"/>
</g>
<circle cx="2" cy="2" r="2" transform="matrix(0.707107 0.707107 0.707107 -0.707107 36.6123 12.5625)" stroke="black" stroke-width="2"/>
<path d="M9.74219 39.4326L12.5706 42.261L38.7336 16.0981L35.9051 13.2697L9.74219 39.4326Z" fill="black"/>
<path d="M36.6123 13.9766L38.0265 15.3908L39.4407 13.9766L38.0265 12.5623L36.6123 13.9766Z" fill="black"/>
<path d="M10.4502 37.311L14.6928 41.5537L12.5715 42.2608L9.74309 39.4324L10.4502 37.311Z" fill="black"/>
<path d="M7.62102 31.6542L6.91391 32.3613L7.62102 33.0684L18.9347 44.3821L19.6418 45.0893L20.3489 44.3821L24.5916 40.1395L25.2987 39.4324L24.5916 38.7253L13.2779 27.4116L12.5708 26.7045L11.8637 27.4116L7.62102 31.6542Z" fill="#686969"/>
<path d="M7.62102 31.6542L6.91391 32.3613L7.62102 33.0684L18.9347 44.3821L19.6418 45.0893L20.3489 44.3821L24.5916 40.1395L25.2987 39.4324L24.5916 38.7253L13.2779 27.4116L12.5708 26.7045L11.8637 27.4116L7.62102 31.6542Z" fill="black" fill-opacity="0.2"/>
<path d="M7.62102 31.6542L6.91391 32.3613L7.62102 33.0684L18.9347 44.3821L19.6418 45.0893L20.3489 44.3821L24.5916 40.1395L25.2987 39.4324L24.5916 38.7253L13.2779 27.4116L12.5708 26.7045L11.8637 27.4116L7.62102 31.6542Z" stroke="black" stroke-width="2"/>
<path d="M7.62102 31.6542L6.91391 32.3613L7.62102 33.0684L16.1063 41.5537L16.8134 42.2608L17.5205 41.5537L21.7632 37.3111L22.4703 36.604L21.7632 35.8969L13.2779 27.4116L12.5708 26.7045L11.8637 27.4116L7.62102 31.6542Z" fill="#919191" stroke="black" stroke-width="2"/>
</svg>
