<svg width="52" height="52" viewBox="0 0 52 52" fill="none" xmlns="http://www.w3.org/2000/svg">
<path d="M22 23.5L26 26.5L30 23.5L26 20L22 23.5Z" fill="#D5BE6D"/>
<path d="M16 36.5H18C22.4183 36.5 26 32.9183 26 28.5V26.5M26 26.5L22 23.5L26 20L30 23.5L26 26.5Z" stroke="#383836" stroke-width="2"/>
<path d="M36 36L26 44L16 36L16 30L36 30L36 36Z" fill="url(#paint0_linear_3351_90445)"/>
<path opacity="0.8" d="M16 31L16 28L36 28L36 31L26 39L16 31Z" fill="url(#paint1_linear_3351_90445)"/>
<path d="M36 24L36 36L26 44M36 24L26 16L16 24M36 24L26 32M16 24L16 36L26 44M16 24L26 32M26 32L26 44" stroke="black" stroke-width="2"/>
<path d="M21 40L18.5 38" stroke="white" stroke-width="2"/>
<path opacity="0.4" d="M21 28L18.5 26" stroke="white" stroke-width="2"/>
<path d="M28 23V19.5H24V23L26 24.5L28 23Z" fill="#C16F23" stroke="black" stroke-width="2"/>
<circle cx="26" cy="16" r="4" fill="#C16F23" stroke="black" stroke-width="2"/>
<defs>
<linearGradient id="paint0_linear_3351_90445" x1="36" y1="36" x2="16" y2="36" gradientUnits="userSpaceOnUse">
<stop stop-color="#FF0000"/>
<stop offset="1" stop-color="#FF3D00" stop-opacity="0"/>
</linearGradient>
<linearGradient id="paint1_linear_3351_90445" x1="26" y1="44" x2="26" y2="20" gradientUnits="userSpaceOnUse">
<stop stop-color="#FF0000" stop-opacity="0"/>
<stop offset="0.588542" stop-color="#FF0000"/>
</linearGradient>
</defs>
</svg>
