<svg width="52" height="52" viewBox="0 0 52 52" fill="none" xmlns="http://www.w3.org/2000/svg">
<path d="M11.1328 41L14.8828 11H37.1172L40.8672 41H26H11.1328Z" fill="#B0B0B0" stroke="black" stroke-width="2"/>
<path d="M11.2808 19H26H40.7192L39.0299 25.7575L38.9692 26L39.0299 26.2425L40.8353 33.4643L26 40.882L11.1647 33.4643L12.9701 26.2425L13.0308 26L12.9701 25.7575L11.2808 19Z" fill="#D9D9D9" stroke="black" stroke-width="2"/>
<path d="M26 12L26 8" stroke="black" stroke-width="2"/>
<path d="M26 36L26 14" stroke="black" stroke-width="2"/>
<path d="M26 42L26 38" stroke="black" stroke-width="2"/>
<path d="M26 44L26 40" stroke="black" stroke-width="2"/>
<path d="M22 26L22 22" stroke="black" stroke-width="2"/>
<path d="M18 26L18 22" stroke="black" stroke-width="2"/>
<path d="M30 26L30 22" stroke="black" stroke-width="2"/>
<path d="M34 26L34 22" stroke="black" stroke-width="2"/>
<path d="M15 12L15 8" stroke="black" stroke-width="2"/>
<path d="M37 12L37 8" stroke="black" stroke-width="2"/>
</svg>
