<svg width="52" height="52" viewBox="0 0 52 52" fill="none" xmlns="http://www.w3.org/2000/svg">
<path d="M25 47C33.8366 47 41 43.4183 41 39C41 35.6426 36.8637 32.7683 31 31.5815" stroke="black" stroke-width="2"/>
<path d="M20 32.2634C7 45.2634 33.9072 45.4165 39.7821 38.3249C40.9931 36.8631 41.3099 35.2546 40.6926 33.7027C40.0752 32.1509 38.5513 30.7254 36.3137 29.6066C34.0761 28.4878 31.2251 27.7258 28.1214 27.4171C25.0177 27.1085 21.8007 27.2669 18.8771 27.8724C-2.18557e-07 32.2634 9.7063 46.9999 25 46.9999" stroke="black" stroke-width="2"/>
<rect x="-1.41421" y="1.19209e-07" width="6" height="10" transform="matrix(-0.707107 -0.707107 -0.707107 0.707107 28.092 26.4558)" fill="#A5A076" stroke="black" stroke-width="2"/>
<path d="M29.0919 27.4558L24.8493 23.2131L29.0919 18.9705L33.3346 23.2131L29.0919 27.4558Z" fill="#A5A076" stroke="black" stroke-width="2"/>
<path d="M29.0919 23.2131L36.163 16.1421C38.5061 13.7989 38.5061 9.99992 36.163 7.65677V7.65677C33.8199 5.31363 30.0209 5.31363 27.6777 7.65677L20.6066 14.7278L25.1836 14.7793" stroke="black" stroke-width="2"/>
</svg>
