<svg width="52" height="52" viewBox="0 0 52 52" fill="none" xmlns="http://www.w3.org/2000/svg">
<path d="M12.5355 17.5356L18.1924 18.9499L28.0919 28.8494L27.3848 29.5565L25.2634 30.2636L12.5355 17.5356Z" fill="#B3B3B3"/>
<path d="M12.5355 17.5356L13.9497 23.1925L23.8492 33.092L24.5563 32.3849L25.2634 30.2636L12.5355 17.5356Z" fill="#B3B3B3"/>
<path d="M24.5564 32.3852L21.7279 26.7284L27.3848 29.5568L37.9914 40.1634L35.163 42.9918L24.5564 32.3852Z" fill="#B3B3B3"/>
<path d="M35.163 42.9917L37.9914 40.1633L40.8198 42.9917H37.9914V45.8201L35.163 42.9917Z" fill="#B3B3B3"/>
<path d="M23.1421 35.2134L26.6776 31.6778L30.2132 28.1423" stroke="#B3B3B3" stroke-width="2"/>
<path d="M23.8492 34.5063H29.5061V28.8495" stroke="#B3B3B3" stroke-width="2"/>
<rect x="25.9706" y="30.9707" width="2" height="2" fill="#B3B3B3"/>
<path d="M12.5355 13.5356L18.1924 14.9499L28.0919 24.8494L27.3848 25.5565L25.2634 26.2636L12.5355 13.5356Z" fill="#4B4B4B"/>
<path d="M12.5355 13.5356L13.9497 19.1925L23.8492 29.092L24.5563 28.3849L25.2634 26.2636L12.5355 13.5356Z" fill="#4B4B4B"/>
<path d="M24.5564 28.3852L21.7279 22.7284L27.3848 25.5568L37.9914 36.1634L35.163 38.9918L24.5564 28.3852Z" fill="black"/>
<path d="M35.163 38.9917L37.9914 36.1633L40.8198 38.9917H37.9914V41.8201L35.163 38.9917Z" fill="black"/>
<path d="M23.1421 31.2134L26.6776 27.6778L30.2132 24.1423" stroke="black" stroke-width="2"/>
<path d="M23.8492 30.5063H29.5061V24.8495" stroke="black" stroke-width="2"/>
<rect x="25.9706" y="26.9707" width="2" height="2" fill="#D9D9D9"/>
</svg>
