<svg width="52" height="52" viewBox="0 0 52 52" fill="none" xmlns="http://www.w3.org/2000/svg">
<path d="M12.5649 41.6067L25.2929 28.8788L28.1213 31.7072L13.2721 46.5564L12.5649 41.6067Z" fill="#B3B3B3" stroke="#B3B3B3" stroke-width="2"/>
<path d="M29.4941 28.9202V27.4643H28.1215L39.0763 16.4992L40.1421 16.8579L40.4957 17.9186L29.4941 28.9202Z" fill="#B3B3B3"/>
<path d="M30.9291 34.5562L29.4941 33.1212V28.9202M22.4438 26.0709L23.8373 27.4643H28.1215M35.8787 15.4229L39.0763 16.4992M41.5564 21.1005L40.4957 17.9186M29.4941 28.9202V27.4643H28.1215M29.4941 28.9202L40.4957 17.9186M40.4957 17.9186L40.1421 16.8579L39.0763 16.4992M28.1215 27.4643L39.0763 16.4992" stroke="#B3B3B3" stroke-width="2"/>
<path d="M12.5649 37.6067L25.2929 24.8788L28.1213 27.7072L13.2721 42.5564L12.5649 37.6067Z" fill="#97999B" stroke="black" stroke-width="2"/>
<path d="M29.4941 24.9202V23.4643H28.1215L39.0763 12.4992L40.1421 12.8579L40.4957 13.9186L29.4941 24.9202Z" fill="black"/>
<path d="M30.9291 30.5562L29.4941 29.1212V24.9202M22.4438 22.0709L23.8373 23.4643H28.1215M35.8787 11.4229L39.0763 12.4992M41.5564 17.1005L40.4957 13.9186M29.4941 24.9202V23.4643H28.1215M29.4941 24.9202L40.4957 13.9186M40.4957 13.9186L40.1421 12.8579L39.0763 12.4992M28.1215 23.4643L39.0763 12.4992" stroke="black" stroke-width="2"/>
</svg>
