<svg width="52" height="52" viewBox="0 0 52 52" fill="none" xmlns="http://www.w3.org/2000/svg">
<g opacity="0.2">
<path d="M12 12H26H40V26V40H26H12V26V12Z" stroke="#B3B3B3" stroke-width="2"/>
<path opacity="0.4" d="M12 16V12H16" stroke="white" stroke-width="2"/>
<path opacity="0.4" d="M40 16V12H36" stroke="white" stroke-width="2"/>
<path opacity="0.4" d="M12 36V40H16" stroke="white" stroke-width="2"/>
<path opacity="0.4" d="M40 36V40H36" stroke="white" stroke-width="2"/>
<rect x="11" y="25" width="4" height="2" fill="#D9D9D9"/>
<rect x="37" y="25" width="4" height="2" fill="#D9D9D9"/>
<rect x="27" y="11" width="4" height="2" transform="rotate(90 27 11)" fill="#D9D9D9"/>
<rect x="27" y="37" width="4" height="2" transform="rotate(90 27 37)" fill="#D9D9D9"/>
</g>
<path d="M22 42L10 30" stroke="black" stroke-width="2"/>
<path fill-rule="evenodd" clip-rule="evenodd" d="M39 10L42 13L24 31L21 28L39 10Z" fill="#B39E7E"/>
<path d="M16 39L13 36L21 28L24 31L16 39Z" fill="#B39E7E"/>
<path d="M16 39L13 36L21 28L24 31L16 39Z" fill="black"/>
<path d="M24 31L16 39L13 36L21 28M24 31L42 13L39 10L21 28M24 31L21 28" stroke="black" stroke-width="2"/>
<path d="M10 42L22 30" stroke="black" stroke-width="2"/>
<path d="M16 44V27" stroke="black" stroke-width="2"/>
<path d="M8 36L25 36" stroke="black" stroke-width="2"/>
</svg>
