<svg width="52" height="52" viewBox="0 0 52 52" fill="none" xmlns="http://www.w3.org/2000/svg">
<circle cx="26" cy="26" r="17" stroke="url(#paint0_linear_3462_9068)" stroke-width="2"/>
<circle cx="26" cy="26" r="17" stroke="black" stroke-opacity="0.4" stroke-width="2"/>
<rect x="50" y="23" width="6" height="48" transform="rotate(90 50 23)" fill="white"/>
<rect x="12" y="25" width="2" height="10" transform="rotate(90 12 25)" fill="url(#paint1_linear_3462_9068)"/>
<rect x="50" y="25" width="2" height="10" transform="rotate(90 50 25)" fill="url(#paint2_linear_3462_9068)"/>
<rect x="42.2634" y="8.32233" width="2" height="48" transform="rotate(45 42.2634 8.32233)" fill="url(#paint3_linear_3462_9068)"/>
<rect x="43.6776" y="42.2634" width="2" height="48" transform="rotate(135 43.6776 42.2634)" fill="url(#paint4_linear_3462_9068)"/>
<rect x="23" y="2" width="6" height="48" fill="white"/>
<circle cx="26" cy="26" r="21" stroke="url(#paint5_linear_3462_9068)" stroke-width="2"/>
<rect x="25" y="2" width="2" height="10" fill="url(#paint6_linear_3462_9068)"/>
<rect x="25" y="40" width="2" height="10" fill="url(#paint7_linear_3462_9068)"/>
<path d="M11 29.5858L26 44.5858L41 29.5858V22.4142L26 7.41422L11 22.4142V29.5858Z" fill="url(#paint8_linear_3462_9068)" stroke="black" stroke-width="2"/>
<path d="M11 22L24 10L13 29H11V22Z" fill="white" fill-opacity="0.44"/>
<path d="M11 29.5858L26 44.5858L41 29.5858V22.4142L26 7.41422L11 22.4142V29.5858Z" stroke="black" stroke-width="2"/>
<path d="M11.8685 29H40.1315L26 7.80278L11.8685 29Z" fill="url(#paint9_linear_3462_9068)" stroke="black" stroke-width="2"/>
<defs>
<linearGradient id="paint0_linear_3462_9068" x1="26" y1="8" x2="26" y2="44" gradientUnits="userSpaceOnUse">
<stop stop-color="#D89B64"/>
<stop offset="1" stop-color="#9E7660"/>
</linearGradient>
<linearGradient id="paint1_linear_3462_9068" x1="13" y1="25" x2="13" y2="35" gradientUnits="userSpaceOnUse">
<stop stop-color="#D89B64"/>
<stop offset="1" stop-color="#9E7660"/>
</linearGradient>
<linearGradient id="paint2_linear_3462_9068" x1="51" y1="25" x2="51" y2="35" gradientUnits="userSpaceOnUse">
<stop stop-color="#D89B64"/>
<stop offset="1" stop-color="#9E7660"/>
</linearGradient>
<linearGradient id="paint3_linear_3462_9068" x1="43.2634" y1="8.32233" x2="43.2634" y2="56.3223" gradientUnits="userSpaceOnUse">
<stop stop-color="#D89B64"/>
<stop offset="1" stop-color="#9E7660"/>
</linearGradient>
<linearGradient id="paint4_linear_3462_9068" x1="44.6776" y1="42.2634" x2="44.6776" y2="90.2634" gradientUnits="userSpaceOnUse">
<stop stop-color="#D89B64"/>
<stop offset="1" stop-color="#9E7660"/>
</linearGradient>
<linearGradient id="paint5_linear_3462_9068" x1="26" y1="4" x2="26" y2="48" gradientUnits="userSpaceOnUse">
<stop stop-color="#D89B64"/>
<stop offset="1" stop-color="#9E7660"/>
</linearGradient>
<linearGradient id="paint6_linear_3462_9068" x1="26" y1="2" x2="26" y2="12" gradientUnits="userSpaceOnUse">
<stop stop-color="#D89B64"/>
<stop offset="1" stop-color="#9E7660"/>
</linearGradient>
<linearGradient id="paint7_linear_3462_9068" x1="26" y1="40" x2="26" y2="50" gradientUnits="userSpaceOnUse">
<stop stop-color="#D89B64"/>
<stop offset="1" stop-color="#9E7660"/>
</linearGradient>
<linearGradient id="paint8_linear_3462_9068" x1="26" y1="46" x2="26" y2="6" gradientUnits="userSpaceOnUse">
<stop stop-color="#FF8D4E"/>
<stop offset="1" stop-color="#EA2727"/>
</linearGradient>
<linearGradient id="paint9_linear_3462_9068" x1="26" y1="30" x2="26" y2="6" gradientUnits="userSpaceOnUse">
<stop stop-color="#FF8D4E"/>
<stop offset="1" stop-color="#EA2727"/>
</linearGradient>
</defs>
</svg>
