<svg width="52" height="52" viewBox="0 0 52 52" fill="none" xmlns="http://www.w3.org/2000/svg">
<path d="M12 23H32V42C32 43.6569 30.6569 45 29 45H15C13.3431 45 12 43.6569 12 42V23Z" fill="url(#paint0_linear_970_29497)"/>
<rect opacity="0.8" x="19" y="16" width="2" height="21" fill="#1F1E1C"/>
<path d="M38 13H39C41.2091 13 43 14.7909 43 17V46H38V13Z" fill="url(#paint1_linear_970_29497)"/>
<path d="M11 20C11 17.2386 13.2386 15 16 15V15H28V15C30.7614 15 33 17.2386 33 20V28H11V20Z" stroke="black" stroke-width="2"/>
<path d="M11 41C11 43.2091 12.7909 45 15 45H29C31.2091 45 33 43.2091 33 41V32H11V41Z" stroke="black" stroke-width="2"/>
<rect x="16" y="7" width="12" height="4" fill="#784281" stroke="black" stroke-width="2"/>
<path d="M17 13H39C41.2091 13 43 14.7909 43 17V45H45" stroke="#BAAB98" stroke-width="2"/>
<rect x="12" y="29" width="20" height="2" fill="#47382B"/>
<rect opacity="0.5" x="17" y="35" width="2" height="2" fill="black"/>
<rect opacity="0.5" x="23" y="8" width="2" height="2" fill="black"/>
<rect opacity="0.5" x="19" y="37" width="2" height="2" fill="black"/>
<rect opacity="0.5" x="21" y="35" width="2" height="2" fill="black"/>
<rect opacity="0.5" x="17" y="12" width="2" height="2" fill="black"/>
<rect x="19" y="4" width="2" height="8" fill="#BAAB98"/>
<rect opacity="0.4" x="14" y="27" width="2" height="6" fill="black"/>
<rect opacity="0.4" x="18" y="27" width="2" height="6" fill="black"/>
<rect x="26" y="27" width="2" height="6" fill="black"/>
<rect x="32" y="27" width="2" height="6" fill="black"/>
<rect x="10" y="27" width="2" height="6" fill="black"/>
<path d="M17 13H30.7133C33.8697 13 35.7825 16.4846 34.088 19.1475L25.956 31.9262C25.1087 33.2577 26.0652 35 27.6433 35H35V29" stroke="#BAAB98" stroke-width="2"/>
<defs>
<linearGradient id="paint0_linear_970_29497" x1="22" y1="23" x2="22" y2="45" gradientUnits="userSpaceOnUse">
<stop stop-color="#F89F1A"/>
<stop offset="1" stop-color="#560000" stop-opacity="0.91"/>
</linearGradient>
<linearGradient id="paint1_linear_970_29497" x1="40.5" y1="13" x2="40.5" y2="46" gradientUnits="userSpaceOnUse">
<stop stop-color="#A28F78"/>
<stop offset="1" stop-color="#5B5B5B"/>
</linearGradient>
</defs>
</svg>
