<svg width="52" height="52" viewBox="0 0 52 52" fill="none" xmlns="http://www.w3.org/2000/svg">
<path d="M39 18L30 18L30 15.5L38 5L47 5L47 10C47 14.4183 43.4183 18 39 18Z" fill="url(#paint0_linear_717_44388)" stroke="black" stroke-width="2"/>
<path d="M26 31L25 31L25 28L25 18L34 18L34 23C34 27.4183 30.4183 31 26 31Z" fill="url(#paint1_linear_717_44388)" stroke="black" stroke-width="2"/>
<path d="M17 19L28 19L29 17L29 13C29 8.58172 25.4183 5 21 5L17 5L17 19Z" fill="url(#paint2_linear_717_44388)" stroke="black" stroke-width="2"/>
<rect x="-1" y="-1" width="8" height="8" transform="matrix(4.37114e-08 -1 -1 -4.37114e-08 32 17)" fill="#A6B872" stroke="black" stroke-width="2"/>
<path d="M30 22L30 32C30 33.6568 31.3431 35 33 35L44 35C45.6569 35 47 36.3431 47 38L47 44C47 45.6568 45.6569 47 44 47L9 47" stroke="#A6B872" stroke-width="2"/>
<path d="M27 43L17 43C17 38.5817 20.5817 35 25 35L35 35C35 39.4183 31.4183 43 27 43Z" fill="#65705A" stroke="#A6B872" stroke-width="2"/>
<path d="M14 5L8.00003 5C6.34317 5 5.00002 6.34315 5.00003 8.00001L5.00006 23.4L5.00002 44C5.00002 45.6569 6.34317 47 8.00002 47L9 47" stroke="#A6B872" stroke-width="2"/>
<path d="M13 33L5 33C5 28.5817 8.58172 25 13 25L21 25C21 29.4183 17.4183 33 13 33Z" fill="#65705A" stroke="#A6B872" stroke-width="2"/>
<path d="M39 18L31 18L31 21L39 31L47 31L47 26C47 21.5817 43.4183 18 39 18Z" fill="url(#paint3_linear_717_44388)" stroke="black" stroke-width="2"/>
<path d="M21 21L33 21L33 18L27 18L22 13L13 13C13 17.4183 16.5817 21 21 21Z" fill="url(#paint4_linear_717_44388)" stroke="black" stroke-width="2"/>
<rect width="2" height="2" transform="matrix(4.37114e-08 -1 -1 -4.37114e-08 38 46)" fill="#A6B872"/>
<rect width="2" height="2" transform="matrix(4.37114e-08 -1 -1 -4.37114e-08 8 38)" fill="#A6B872"/>
<rect width="4" height="2" transform="matrix(4.37114e-08 -1 -1 -4.37114e-08 14 10)" fill="#A6B872"/>
<rect width="4" height="2" transform="matrix(4.37114e-08 -1 -1 -4.37114e-08 38 36)" fill="#A6B872"/>
<rect width="2" height="2" transform="matrix(4.37114e-08 -1 -1 -4.37114e-08 30 13)" fill="#F1DF41"/>
<rect width="2" height="2" transform="matrix(4.37114e-08 -1 -1 -4.37114e-08 32 15)" fill="#F1DF41"/>
<rect width="2" height="2" transform="matrix(4.37114e-08 -1 -1 -4.37114e-08 30 17)" fill="#F1DF41"/>
<rect width="2" height="2" transform="matrix(4.37114e-08 -1 -1 -4.37114e-08 28 15)" fill="#F1DF41"/>
<defs>
<linearGradient id="paint0_linear_717_44388" x1="45" y1="12.25" x2="30" y2="12.25" gradientUnits="userSpaceOnUse">
<stop stop-color="#D890E4"/>
<stop offset="1" stop-color="#E43BFF"/>
</linearGradient>
<linearGradient id="paint1_linear_717_44388" x1="32" y1="25.25" x2="17" y2="25.25" gradientUnits="userSpaceOnUse">
<stop stop-color="#D890E4"/>
<stop offset="1" stop-color="#E43BFF"/>
</linearGradient>
<linearGradient id="paint2_linear_717_44388" x1="19" y1="12" x2="28" y2="12" gradientUnits="userSpaceOnUse">
<stop stop-color="#D890E4"/>
<stop offset="1" stop-color="#E43BFF"/>
</linearGradient>
<linearGradient id="paint3_linear_717_44388" x1="48" y1="22" x2="31" y2="22" gradientUnits="userSpaceOnUse">
<stop stop-color="#D890E4"/>
<stop offset="1" stop-color="#E43BFF"/>
</linearGradient>
<linearGradient id="paint4_linear_717_44388" x1="13" y1="17" x2="30" y2="17" gradientUnits="userSpaceOnUse">
<stop stop-color="#D890E4"/>
<stop offset="1" stop-color="#E43BFF"/>
</linearGradient>
</defs>
</svg>
