<svg width="52" height="52" viewBox="0 0 52 52" fill="none" xmlns="http://www.w3.org/2000/svg">
<path d="M25.1056 43.5528L24.382 45H13V24V23H12H5V15H47V23H40H39V24V45H27.618L26.8944 43.5528L26 41.7639L25.1056 43.5528Z" fill="#5A5A5A" stroke="black" stroke-width="2"/>
<path d="M13.2597 5.14181C14.771 4.51583 16.3723 4.14212 18 4.03337L18 18L4.03337 18C4.14212 16.3723 4.51583 14.771 5.14181 13.2597C5.89563 11.4399 7.00052 9.78628 8.3934 8.3934C9.78628 7.00052 11.4399 5.89563 13.2597 5.14181Z" fill="#D9D9D9" stroke="black" stroke-width="2"/>
<path d="M38.7403 5.14181C37.229 4.51583 35.6277 4.14212 34 4.03337L34 18L47.9666 18C47.8579 16.3723 47.4842 14.771 46.8582 13.2597C46.1044 11.4399 44.9995 9.78628 43.6066 8.3934C42.2137 7.00052 40.5601 5.89563 38.7403 5.14181Z" fill="#D9D9D9" stroke="black" stroke-width="2"/>
<path d="M20.8316 38.9349L9.46243 36.3112L12.8944 29.4472L13.0953 29.0456L12.9285 28.6286L11.057 23.95L15.7482 8H19H19.2656L19.4961 7.86824L26 4.15175L32.5039 7.86824L32.7344 8H33H36.2518L40.943 23.95L39.0715 28.6286L38.9047 29.0456L39.1056 29.4472L42.5376 36.3112L31.1684 38.9349L26.5145 36.1425L26 35.8338L25.4855 36.1425L20.8316 38.9349Z" fill="#D9D9D9" stroke="black" stroke-width="2"/>
<rect x="36" y="12" width="6" height="6" rx="3" fill="#D9D9D9" stroke="black" stroke-width="2"/>
<rect x="10" y="12" width="6" height="6" rx="3" fill="#D9D9D9" stroke="black" stroke-width="2"/>
<path d="M26 9V36" stroke="black" stroke-width="2"/>
<path d="M39.5 29L12.5 29" stroke="black" stroke-width="2"/>
</svg>
