<svg width="52" height="52" viewBox="0 0 52 52" fill="none" xmlns="http://www.w3.org/2000/svg">
<rect x="7" y="9" width="14" height="36" fill="#A68A61"/>
<rect x="7" y="9" width="14" height="36" fill="black" fill-opacity="0.2"/>
<rect x="7" y="9" width="14" height="36" stroke="black" stroke-width="2"/>
<path d="M15 9H42C43.6569 9 45 10.3431 45 12V47H15V9Z" fill="#A68A61" stroke="black" stroke-width="2"/>
<path d="M4 21L48 21" stroke="black" stroke-width="2"/>
<rect x="22.5" y="18.5" width="1" height="5" fill="#D9D9D9" stroke="black"/>
<rect x="36.5" y="18.5" width="1" height="5" fill="#D9D9D9" stroke="black"/>
<rect x="28" y="19" width="4" height="4" fill="#D9D9D9" stroke="black" stroke-width="2"/>
<rect x="22" y="26" width="16" height="16" fill="#D9D9D9"/>
<rect x="27" y="26" width="6" height="16" fill="#943131"/>
<rect x="38" y="31" width="6" height="16" transform="rotate(90 38 31)" fill="#943131"/>
<rect x="5" y="36" width="24" height="11" rx="5.5" fill="#C4C6AC" stroke="black" stroke-width="2"/>
<rect x="5" y="36" width="11" height="11" rx="5.5" fill="#C4C6AC" stroke="black" stroke-width="2"/>
<rect opacity="0.3" x="9" y="40" width="3" height="3" rx="1.5" fill="#C4C6AC" stroke="black" stroke-width="2"/>
<path d="M15 6C15 5.44772 15.4477 5 16 5H32C32.5523 5 33 5.44772 33 6V9H15V6Z" stroke="black" stroke-width="2"/>
<path d="M19 6C19 5.44772 19.4477 5 20 5H36C36.5523 5 37 5.44772 37 6V9H19V6Z" stroke="black" stroke-width="2"/>
<rect x="16" y="6" width="2" height="2" fill="#A68A61"/>
<rect x="34" y="6" width="2" height="2" fill="#A68A61"/>
</svg>
