<svg width="52" height="52" viewBox="0 0 52 52" fill="none" xmlns="http://www.w3.org/2000/svg">
<path d="M35.634 43.3285L32.75 46.5108L29.866 43.3285L29.125 42.5108L28.384 43.3285L25.5 46.5108L22.616 43.3285L21.875 42.5108L21.134 43.3285L18.25 46.5108L15.366 43.3285L15.0683 43H14.625H12V40V39H11H5V12C5 8.13401 8.13401 5 12 5H40C43.866 5 47 8.13401 47 12V39H40H39V40V43H36.375H35.9317L35.634 43.3285Z" fill="#7AA8C1" stroke="black" stroke-width="2"/>
<path d="M26 15L26 4" stroke="black" stroke-width="2"/>
<path d="M5 32L12 32" stroke="black" stroke-width="2"/>
<path d="M39 32L47 32" stroke="black" stroke-width="2"/>
<rect x="11" y="17" width="2" height="21" fill="black"/>
<rect x="38" y="17" width="2" height="21" fill="black"/>
</svg>
