<svg width="52" height="52" viewBox="0 0 52 52" fill="none" xmlns="http://www.w3.org/2000/svg">
<path d="M8 21H20V44C20 45.1046 20.8954 46 22 46H26V48H12C9.79086 48 8 46.2091 8 44V21Z" fill="url(#paint0_linear_3807_76593)"/>
<path d="M9 22H19V44C19 45.6569 20.3431 47 22 47H12C10.3431 47 9 45.6569 9 44V22Z" stroke="black" stroke-opacity="0.3" stroke-width="2"/>
<path d="M41.4453 36.1679L37 39.1315V8C37 6.34315 35.6569 5 34 5H44C45.6569 5 47 6.34315 47 8V39.1315L42.5547 36.1679L42 35.7981L41.4453 36.1679Z" fill="url(#paint1_linear_3807_76593)" stroke="#783729" stroke-width="2"/>
<path d="M27 5H34H36C34.3431 5 33 6.34315 33 8V44C33 45.6569 31.6569 47 30 47H22H20C21.6569 47 23 45.6569 23 44V9C23 6.79086 24.7909 5 27 5Z" fill="url(#paint2_linear_3807_76593)" fill-opacity="0.5" stroke="black" stroke-width="2"/>
<rect x="18" y="28" width="2" height="13" fill="#9E2E15"/>
<rect x="8" y="25" width="2" height="9" fill="#99270E"/>
<path d="M23 28V9C23 6.79086 24.7909 5 27 5H29" stroke="#9E2E15" stroke-width="2"/>
<circle cx="14" cy="14" r="9" fill="url(#paint3_linear_3807_76593)" stroke="#F8DC7F" stroke-width="2"/>
<circle cx="14" cy="14" r="11" stroke="black" stroke-width="2"/>
<circle cx="14" cy="14" r="5" stroke="url(#paint4_linear_3807_76593)" stroke-width="2"/>
<rect x="13" y="4" width="2" height="5" fill="#F7DA7C"/>
<rect x="13" y="19" width="2" height="5" fill="#B17B42"/>
<rect opacity="0.3" x="15" y="15" width="2" height="2" transform="rotate(-180 15 15)" fill="black"/>
<rect x="15" y="6" width="2" height="2" transform="rotate(-180 15 6)" fill="black"/>
<rect opacity="0.3" x="10" y="15" width="2" height="2" transform="rotate(-180 10 15)" fill="black"/>
<rect opacity="0.3" x="20" y="15" width="2" height="2" transform="rotate(-180 20 15)" fill="black"/>
<path d="M8 13L10 15L4 15L4 13L8 13Z" fill="#D4A95E"/>
<path d="M24 13L24 15L18 15L19.5 13L24 13Z" fill="#D5AC60"/>
<rect x="6" y="15" width="2" height="2" transform="rotate(-180 6 15)" fill="black"/>
<rect x="24" y="15" width="2" height="2" transform="rotate(-180 24 15)" fill="black"/>
<rect x="15" y="24" width="2" height="2" transform="rotate(-180 15 24)" fill="black"/>
<defs>
<linearGradient id="paint0_linear_3807_76593" x1="16.5263" y1="21" x2="16.5263" y2="48" gradientUnits="userSpaceOnUse">
<stop stop-color="#D87964"/>
<stop offset="1" stop-color="#8E1A00"/>
</linearGradient>
<linearGradient id="paint1_linear_3807_76593" x1="39.579" y1="4" x2="39.579" y2="41" gradientUnits="userSpaceOnUse">
<stop stop-color="#783729"/>
<stop offset="1" stop-color="#CB614A"/>
</linearGradient>
<linearGradient id="paint2_linear_3807_76593" x1="28" y1="4" x2="28" y2="48" gradientUnits="userSpaceOnUse">
<stop stop-color="#D87964"/>
<stop offset="1" stop-color="#8E1A00"/>
</linearGradient>
<linearGradient id="paint3_linear_3807_76593" x1="14" y1="4" x2="14" y2="24" gradientUnits="userSpaceOnUse">
<stop stop-color="#CBAC70"/>
<stop offset="1" stop-color="#EDB850"/>
</linearGradient>
<linearGradient id="paint4_linear_3807_76593" x1="14" y1="8" x2="14" y2="20" gradientUnits="userSpaceOnUse">
<stop stop-color="#FEE281"/>
<stop offset="1" stop-color="#A9703B"/>
</linearGradient>
</defs>
</svg>
