<svg width="52" height="52" viewBox="0 0 52 52" fill="none" xmlns="http://www.w3.org/2000/svg">
<g opacity="0.2">
<path d="M12 12H26H40V26V40H26H12V26V12Z" stroke="#B3B3B3" stroke-width="2"/>
<path opacity="0.4" d="M12 16V12H16" stroke="white" stroke-width="2"/>
<path opacity="0.4" d="M40 16V12H36" stroke="white" stroke-width="2"/>
<path opacity="0.4" d="M12 36V40H16" stroke="white" stroke-width="2"/>
<path opacity="0.4" d="M40 36V40H36" stroke="white" stroke-width="2"/>
<rect x="11" y="25" width="4" height="2" fill="#D9D9D9"/>
<rect x="37" y="25" width="4" height="2" fill="#D9D9D9"/>
<rect x="27" y="11" width="4" height="2" transform="rotate(90 27 11)" fill="#D9D9D9"/>
<rect x="27" y="37" width="4" height="2" transform="rotate(90 27 37)" fill="#D9D9D9"/>
</g>
<path d="M20 28L24 28L24 32L7 45L20 28Z" fill="#999167"/>
<path d="M17 31L20 28V35L17 37V31Z" fill="#D9D9D9"/>
<path d="M24 28L20 28L4.00002 48L24 32L24 28Z" stroke="black" stroke-width="2"/>
<path d="M23.4565 25.7065L26.285 28.535L48.0278 6.79211L48.0001 4.00012L45.1994 3.96368L23.4565 25.7065Z" fill="black"/>
<path fill-rule="evenodd" clip-rule="evenodd" d="M25 24H23V27H20V29H23V32H25V29H28V27H25V24Z" fill="#555452"/>
</svg>
