<svg width="52" height="55" viewBox="0 0 52 55" fill="none" xmlns="http://www.w3.org/2000/svg">
<path d="M39.0004 37.0015L19.0002 17.0016" stroke="#B3B3B3" stroke-width="2"/>
<path d="M46.0005 13.002L31.0005 28.002L28.0005 25.002L43.0005 10.002L46.0005 13.002Z" fill="#B3B3B3"/>
<path d="M26 26L5 46.9998L13.0002 46.9998L30 30L30.0001 26.0001L26 26Z" fill="#B3B3B3"/>
<path d="M5 46.9998L26 26L30.0001 26.0001L30 30L13.0002 46.9998L5 46.9998ZM5 46.9998L5 36.9998" stroke="#B3B3B3" stroke-width="2"/>
<path d="M41.0005 8.00195L47.0005 14.002V16.002" stroke="#B3B3B3" stroke-width="2"/>
<path d="M39.0004 33.0015L19.0002 13.0016" stroke="black" stroke-width="2"/>
<path d="M46.0005 9.00195L31.0005 24.002L28.0005 21.002L43.0005 6.00195L46.0005 9.00195Z" fill="black"/>
<path fill-rule="evenodd" clip-rule="evenodd" d="M30.0005 22.0015H26.0005L4.00049 44.0015V48.0015H8.00049L30.0005 26.0015V22.0015Z" fill="#999167"/>
<path d="M14.0005 34.002L17.0005 31.002V39.002L14.0005 42.002V34.002Z" fill="#D9D9D9"/>
<path d="M48.0005 11.002L41.0005 4.00195" stroke="black" stroke-width="2"/>
<path fill-rule="evenodd" clip-rule="evenodd" d="M6.58652 48.0017L29.0005 25.5877L29.0006 23.0021L26.4147 23.002L4.00049 45.416V42.5875L25.2934 21.2949L25.5863 21.002L26.0005 21.002L30.0006 21.0021L31.0006 21.0021L31.0006 22.0021L31.0005 26.002L31.0005 26.4162L30.7076 26.7091L9.41494 48.0017H6.58652Z" fill="black"/>
</svg>
