<svg width="52" height="52" viewBox="0 0 52 52" fill="none" xmlns="http://www.w3.org/2000/svg">
<path d="M11 12L26 16L41 12V39.8538C41 43.4782 38.5633 46.6498 35.0613 47.5837L26 50L16.9387 47.5837C13.4367 46.6498 11 43.4782 11 39.8538V12Z" fill="#B3B3B3"/>
<path d="M12 36.5837V9.30161L25.7423 12.9662L26 13.0349L26.2577 12.9662L40 9.30161V36.5837C40 39.4461 38.2573 42.02 35.5997 43.0831L26 46.923L16.4003 43.0831C13.7427 42.02 12 39.4461 12 36.5837Z" fill="url(#paint0_linear_3462_8870)" stroke="black" stroke-width="2"/>
<path d="M26 24L26 47" stroke="black" stroke-width="2"/>
<rect x="31" y="8" width="2" height="10" transform="rotate(90 31 8)" fill="black"/>
<rect x="25" y="13" width="2" height="3" fill="black"/>
<path d="M19 17L26 30L33 17L26 23.5L19 17Z" fill="#404040" stroke="black" stroke-width="2"/>
<path d="M19 29L26 42L33 29L26 35.5L19 29Z" fill="#404040" stroke="black" stroke-width="2"/>
<defs>
<linearGradient id="paint0_linear_3462_8870" x1="26" y1="8" x2="26" y2="48" gradientUnits="userSpaceOnUse">
<stop stop-color="#696969"/>
<stop offset="1"/>
</linearGradient>
</defs>
</svg>
