<svg width="52" height="52" viewBox="0 0 52 52" fill="none" xmlns="http://www.w3.org/2000/svg">
<path d="M9 9L16 16" stroke="#715648" stroke-width="2"/>
<path d="M45 26C45 23.6131 42.9982 21.3239 39.435 19.636C35.8718 17.9482 31.0391 17 26 17C20.9609 17 16.1282 17.9482 12.565 19.636C9.00178 21.3239 7 23.6131 7 26" stroke="#A58975" stroke-width="2"/>
<path d="M45 26C45 23.6131 42.9982 21.3239 39.435 19.636C35.8718 17.9482 31.0391 17 26 17C20.9609 17 16.1282 17.9482 12.565 19.636C9.00178 21.3239 7 23.6131 7 26" stroke="black" stroke-opacity="0.4" stroke-width="2"/>
<circle cx="26" cy="26" r="19" stroke="url(#paint0_linear_3731_57006)" stroke-width="2"/>
<path d="M15 21H37.9488L37.0205 39.5653L33.5858 43H24.8375L15 35.5047V21Z" fill="#4A335B" stroke="black" stroke-width="2"/>
<path d="M25 35H36V31L39 29V25L37 23L39 21V20C39 13.3726 33.6274 8 27 8C20.3726 8 15 13.3726 15 20V28L22 31V37L25 35Z" fill="url(#paint1_linear_3731_57006)" stroke="black" stroke-width="2"/>
<path d="M34 20H38V26H36L34 24V20Z" fill="#020202"/>
<path d="M25.5858 25L27 23.5858V21H22V25H25.5858Z" fill="#252424" stroke="black" stroke-width="2"/>
<path d="M33 30V27H31L29 29" stroke="black" stroke-width="2"/>
<path d="M26 38V35" stroke="black" stroke-width="2"/>
<path d="M30 38V35" stroke="black" stroke-width="2"/>
<path d="M34 38V35" stroke="black" stroke-width="2"/>
<path d="M30 19H26" stroke="black" stroke-width="2"/>
<path d="M36 19H33" stroke="black" stroke-width="2"/>
<path d="M15 28L13 26.6V21H17V24" stroke="black" stroke-width="2"/>
<path d="M4 26H10" stroke="#AD6650" stroke-width="2"/>
<path d="M42 26H48" stroke="#825B4A" stroke-width="2"/>
<path d="M27 4V10" stroke="#AD6650" stroke-width="2"/>
<path d="M26 42L26 48" stroke="#AC6650" stroke-width="2"/>
<path d="M37 37L43 43" stroke="#AD6650" stroke-width="2"/>
<path d="M43 9L33 19" stroke="#AD6650" stroke-width="2"/>
<path d="M18 34L9 43" stroke="#A4644F" stroke-width="2"/>
<path d="M45 26C45 28.3869 42.9982 30.6761 39.435 32.364C35.8718 34.0518 31.0391 35 26 35C20.9609 35 16.1282 34.0518 12.565 32.364C9.00178 30.6761 7 28.3869 7 26" stroke="url(#paint2_linear_3731_57006)" stroke-width="2" stroke-linecap="round"/>
<path d="M13 12C22.2619 2.73814 49.0414 30.0628 39.87 39.2341" stroke="url(#paint3_linear_3731_57006)" stroke-width="2" stroke-linecap="round"/>
<defs>
<linearGradient id="paint0_linear_3731_57006" x1="26" y1="6" x2="26" y2="46" gradientUnits="userSpaceOnUse">
<stop stop-color="#635246"/>
<stop offset="1" stop-color="#AD6650"/>
</linearGradient>
<linearGradient id="paint1_linear_3731_57006" x1="27" y1="37" x2="27" y2="8" gradientUnits="userSpaceOnUse">
<stop stop-color="#41403C"/>
<stop offset="1" stop-color="#694C45"/>
</linearGradient>
<linearGradient id="paint2_linear_3731_57006" x1="7" y1="26" x2="45" y2="26" gradientUnits="userSpaceOnUse">
<stop stop-color="#AD6650"/>
<stop offset="1" stop-color="#825B4A"/>
</linearGradient>
<linearGradient id="paint3_linear_3731_57006" x1="33.3485" y1="18.7036" x2="21.5" y2="11" gradientUnits="userSpaceOnUse">
<stop stop-color="#AD6650"/>
<stop offset="1" stop-color="#715648"/>
</linearGradient>
</defs>
</svg>
