<svg width="52" height="52" viewBox="0 0 52 52" fill="none" xmlns="http://www.w3.org/2000/svg">
<path d="M9 9L16 16" stroke="#C69751" stroke-width="2"/>
<path d="M45 26C45 23.6131 42.9982 21.3239 39.435 19.636C35.8718 17.9482 31.0391 17 26 17C20.9609 17 16.1282 17.9482 12.565 19.636C9.00178 21.3239 7 23.6131 7 26" stroke="#A58975" stroke-width="2"/>
<path d="M45 26C45 23.6131 42.9982 21.3239 39.435 19.636C35.8718 17.9482 31.0391 17 26 17C20.9609 17 16.1282 17.9482 12.565 19.636C9.00178 21.3239 7 23.6131 7 26" stroke="black" stroke-opacity="0.4" stroke-width="2"/>
<circle cx="26" cy="26" r="19" stroke="url(#paint0_linear_4106_34108)" stroke-width="2"/>
<path d="M32 32L32 28L22 28L22 45L26 45L26 44L26 43L27 43L33 43L33 42.0499L32.005 32.0995L32 32.0499L32 32Z" fill="url(#paint1_linear_4106_34108)" stroke="black" stroke-width="2"/>
<path d="M20 11L21 16L25 16L22 8L20 11Z" fill="#040404" stroke="black" stroke-width="2"/>
<path d="M26 7L29 14L29 10L32 10L34 16L33 20L33 27L29 31L24 31L19 29L16 22L16 15L19 21L21 21L21 15L25 15L25 14L23 10L26 7Z" fill="url(#paint2_linear_4106_34108)"/>
<path d="M29 20L29 14L26 7L23 10L25 14L25 15L21 15L21 21L19 21L16 15L16 22L19 29L24 31L29 31L33 27L33 20L34 16L32 10L29 10L29 16L29 20Z" stroke="black" stroke-width="2"/>
<rect width="2" height="2" transform="matrix(-1 -8.74228e-08 -8.74228e-08 1 31 15)" fill="black"/>
<rect width="2" height="2" transform="matrix(-1 -8.74228e-08 -8.74228e-08 1 26 16)" fill="black"/>
<rect width="2" height="4" transform="matrix(-1 -8.74228e-08 -8.74228e-08 1 27 30)" fill="black"/>
<rect width="2" height="2" transform="matrix(-1 -8.74228e-08 -8.74228e-08 1 27 30)" fill="#68467B"/>
<rect width="2" height="2" transform="matrix(-1 -8.74228e-08 -8.74228e-08 1 28 16)" fill="#5C4D82"/>
<rect opacity="0.3" width="2" height="8" transform="matrix(-1 -8.74228e-08 -8.74228e-08 1 27 36)" fill="black"/>
<path d="M22 23V23C24.2091 23 26 24.7909 26 27V27" stroke="black" stroke-width="2"/>
<rect x="25" y="40" width="4" height="2" fill="black"/>
<path d="M4 26L10 26" stroke="#AD6650" stroke-width="2"/>
<path d="M42 26L48 26" stroke="#825B4A" stroke-width="2"/>
<path d="M27 4L27 10" stroke="#C69751" stroke-width="2"/>
<path d="M26 42L26 48" stroke="#AC6650" stroke-width="2"/>
<path d="M37 37L43 43" stroke="#AD6650" stroke-width="2"/>
<path d="M43 9L33 19" stroke="#AD6650" stroke-width="2"/>
<path d="M18 34L9 43" stroke="#A4644F" stroke-width="2"/>
<path d="M45 26C45 28.387 42.9982 30.6761 39.435 32.364C35.8718 34.0518 31.0391 35 26 35C20.9609 35 16.1282 34.0518 12.565 32.364C9.00178 30.6761 7 28.3869 7 26" stroke="url(#paint3_linear_4106_34108)" stroke-width="2" stroke-linecap="round"/>
<path d="M13 12C22.2619 2.73814 49.0414 30.0628 39.87 39.2341" stroke="url(#paint4_linear_4106_34108)" stroke-width="2" stroke-linecap="round"/>
<path d="M26 9H31L33 13L26 12V9Z" fill="black"/>
<defs>
<linearGradient id="paint0_linear_4106_34108" x1="26" y1="6" x2="26" y2="46" gradientUnits="userSpaceOnUse">
<stop stop-color="#C69751"/>
<stop offset="1" stop-color="#AD6650"/>
</linearGradient>
<linearGradient id="paint1_linear_4106_34108" x1="33" y1="42" x2="30" y2="32" gradientUnits="userSpaceOnUse">
<stop stop-color="#2D769F"/>
<stop offset="1" stop-color="#65447C"/>
</linearGradient>
<linearGradient id="paint2_linear_4106_34108" x1="25.5" y1="8" x2="25.5" y2="31" gradientUnits="userSpaceOnUse">
<stop stop-color="#9A7A6D"/>
<stop offset="1" stop-color="#62407C"/>
</linearGradient>
<linearGradient id="paint3_linear_4106_34108" x1="7" y1="26" x2="45" y2="26" gradientUnits="userSpaceOnUse">
<stop stop-color="#AD6650"/>
<stop offset="1" stop-color="#825B4A"/>
</linearGradient>
<linearGradient id="paint4_linear_4106_34108" x1="33.3485" y1="18.7036" x2="21.5" y2="11" gradientUnits="userSpaceOnUse">
<stop stop-color="#AD6650"/>
<stop offset="1" stop-color="#C69751"/>
</linearGradient>
</defs>
</svg>
