<svg width="52" height="52" viewBox="0 0 52 52" fill="none" xmlns="http://www.w3.org/2000/svg">
<g opacity="0.2">
<path d="M12 12H26H40V26V40H26H12V26V12Z" stroke="#B3B3B3" stroke-width="2"/>
<path opacity="0.4" d="M12 16V12H16" stroke="white" stroke-width="2"/>
<path opacity="0.4" d="M40 16V12H36" stroke="white" stroke-width="2"/>
<path opacity="0.4" d="M12 36V40H16" stroke="white" stroke-width="2"/>
<path opacity="0.4" d="M40 36V40H36" stroke="white" stroke-width="2"/>
<rect x="11" y="25" width="4" height="2" fill="#D9D9D9"/>
<rect x="37" y="25" width="4" height="2" fill="#D9D9D9"/>
<rect x="27" y="11" width="4" height="2" transform="rotate(90 27 11)" fill="#D9D9D9"/>
<rect x="27" y="37" width="4" height="2" transform="rotate(90 27 37)" fill="#D9D9D9"/>
</g>
<path d="M30 40V21.3757L35 15.6614V40H30Z" fill="#C2BE95" stroke="black" stroke-width="2"/>
<path d="M29 21L36 14V26L29 33V21Z" fill="black"/>
<path d="M47 9L7 49H3L3 45L43 5L47 9Z" fill="url(#paint0_linear_63_12399)" stroke="black" stroke-width="2"/>
<path d="M2 47L6 44L8 46L5 50H2V47Z" fill="#A86D48"/>
<path d="M25 23L32 16V24L25 31V23Z" fill="#C2BE95" stroke="black" stroke-width="2"/>
<path d="M31 17L38 10V18L31 25V17Z" fill="#C2BE95" stroke="black" stroke-width="2"/>
<defs>
<linearGradient id="paint0_linear_63_12399" x1="2" y1="50" x2="45.5" y2="6.49999" gradientUnits="userSpaceOnUse">
<stop stop-color="#B1704B"/>
<stop offset="1" stop-color="#86603E"/>
</linearGradient>
</defs>
</svg>
