<svg width="52" height="52" viewBox="0 0 52 52" fill="none" xmlns="http://www.w3.org/2000/svg">
<rect x="10" y="23.2427" width="6" height="2" transform="rotate(-45 10 23.2427)" fill="#B3B3B3"/>
<path fill-rule="evenodd" clip-rule="evenodd" d="M11.4142 16.5858C10.6332 17.3668 10.6332 18.6332 11.4142 19.4142L24 32L26 32L37 43L39 39L29 29L29 27L16.4143 14.4142C15.6332 13.6331 14.3669 13.6331 13.5858 14.4142L11.4142 16.5858Z" fill="#B3B3B3"/>
<path d="M11.4142 19.4142L12.1213 18.7071L11.4142 19.4142ZM11.4142 16.5858L12.1213 17.2929L11.4142 16.5858ZM24 32L23.2929 32.7071L23.5858 33L24 33L24 32ZM26 32L26.7071 31.2929L26.4142 31L26 31L26 32ZM37 43L36.2929 43.7071L37.2739 44.6882L37.8944 43.4472L37 43ZM39 39L39.8944 39.4472L40.2167 38.8025L39.7071 38.2929L39 39ZM29 29H28L28 29.4142L28.2929 29.7071L29 29ZM29 27L30 27L30 26.5858L29.7071 26.2929L29 27ZM16.4143 14.4142L17.1214 13.7071L17.1214 13.7071L16.4143 14.4142ZM13.5858 14.4142L12.8787 13.7071L13.5858 14.4142ZM12.1213 18.7071C11.7308 18.3166 11.7308 17.6834 12.1213 17.2929L10.7071 15.8787C9.53553 17.0503 9.53553 18.9497 10.7071 20.1213L12.1213 18.7071ZM24.7071 31.2929L12.1213 18.7071L10.7071 20.1213L23.2929 32.7071L24.7071 31.2929ZM26 31L24 31L24 33L26 33L26 31ZM25.2929 32.7071L36.2929 43.7071L37.7071 42.2929L26.7071 31.2929L25.2929 32.7071ZM37.8944 43.4472L39.8944 39.4472L38.1056 38.5528L36.1056 42.5528L37.8944 43.4472ZM39.7071 38.2929L29.7071 28.2929L28.2929 29.7071L38.2929 39.7071L39.7071 38.2929ZM28 27L28 29L30 29V27L28 27ZM15.7072 15.1213L28.2929 27.7071L29.7071 26.2929L17.1214 13.7071L15.7072 15.1213ZM14.2929 15.1213C14.6835 14.7307 15.3166 14.7307 15.7072 15.1213L17.1214 13.7071C15.9498 12.5355 14.0503 12.5355 12.8787 13.7071L14.2929 15.1213ZM12.1213 17.2929L14.2929 15.1213L12.8787 13.7071L10.7071 15.8787L12.1213 17.2929Z" fill="#B3B3B3"/>
<rect x="16" y="17.2427" width="6" height="2" transform="rotate(-45 16 17.2427)" fill="#B3B3B3"/>
<rect x="10" y="19.2427" width="6" height="2" transform="rotate(-45 10 19.2427)" fill="black"/>
<path fill-rule="evenodd" clip-rule="evenodd" d="M11.4142 12.5858C10.6332 13.3668 10.6332 14.6332 11.4142 15.4142L24 28L26 28L37 39L39 35L29 25L29 23L16.4143 10.4142C15.6332 9.63311 14.3669 9.63311 13.5858 10.4142L11.4142 12.5858Z" fill="#81664D"/>
<path d="M11.4142 15.4142L12.1213 14.7071L11.4142 15.4142ZM11.4142 12.5858L12.1213 13.2929L11.4142 12.5858ZM24 28L23.2929 28.7071L23.5858 29L24 29L24 28ZM26 28L26.7071 27.2929L26.4142 27L26 27L26 28ZM37 39L36.2929 39.7071L37.2739 40.6882L37.8944 39.4472L37 39ZM39 35L39.8944 35.4472L40.2167 34.8025L39.7071 34.2929L39 35ZM29 25H28L28 25.4142L28.2929 25.7071L29 25ZM29 23L30 23L30 22.5858L29.7071 22.2929L29 23ZM16.4143 10.4142L17.1214 9.70706L17.1214 9.70706L16.4143 10.4142ZM13.5858 10.4142L12.8787 9.70705L13.5858 10.4142ZM12.1213 14.7071C11.7308 14.3166 11.7308 13.6834 12.1213 13.2929L10.7071 11.8787C9.53553 13.0503 9.53553 14.9497 10.7071 16.1213L12.1213 14.7071ZM24.7071 27.2929L12.1213 14.7071L10.7071 16.1213L23.2929 28.7071L24.7071 27.2929ZM26 27L24 27L24 29L26 29L26 27ZM25.2929 28.7071L36.2929 39.7071L37.7071 38.2929L26.7071 27.2929L25.2929 28.7071ZM37.8944 39.4472L39.8944 35.4472L38.1056 34.5528L36.1056 38.5528L37.8944 39.4472ZM39.7071 34.2929L29.7071 24.2929L28.2929 25.7071L38.2929 35.7071L39.7071 34.2929ZM28 23L28 25L30 25V23L28 23ZM15.7072 11.1213L28.2929 23.7071L29.7071 22.2929L17.1214 9.70706L15.7072 11.1213ZM14.2929 11.1213C14.6835 10.7307 15.3166 10.7307 15.7072 11.1213L17.1214 9.70706C15.9498 8.53548 14.0503 8.53548 12.8787 9.70705L14.2929 11.1213ZM12.1213 13.2929L14.2929 11.1213L12.8787 9.70705L10.7071 11.8787L12.1213 13.2929Z" fill="black"/>
</svg>
