<svg width="52" height="52" viewBox="0 0 52 52" fill="none" xmlns="http://www.w3.org/2000/svg">
<path d="M14 9H43C44.6569 9 46 10.3431 46 12V44C46 45.6569 44.6569 47 43 47H14V9Z" fill="#727272" stroke="black" stroke-width="2"/>
<path d="M21 23H47" stroke="black" stroke-width="2"/>
<path d="M21 34H47" stroke="black" stroke-width="2"/>
<path d="M22 5H32V9H22V5Z" stroke="black" stroke-width="2"/>
<path d="M14 9H19C20.6569 9 22 10.3431 22 12V47H14V9Z" fill="black" fill-opacity="0.2" stroke="black" stroke-width="2"/>
<path d="M9 43H14V47H7C5.34315 47 4 45.6569 4 44V20.4142L14 10.4142V10.5858L8.29289 16.2929L8 16.5858V17V42V43H9Z" fill="#727272"/>
<path d="M9 43H14V47H7C5.34315 47 4 45.6569 4 44V20.4142L14 10.4142V10.5858L8.29289 16.2929L8 16.5858V17V42V43H9Z" fill="black" fill-opacity="0.2"/>
<path d="M9 43H14V47H7C5.34315 47 4 45.6569 4 44V20.4142L14 10.4142V10.5858L8.29289 16.2929L8 16.5858V17V42V43H9Z" stroke="black" stroke-width="2"/>
<rect x="27.5" y="19.5" width="1" height="7" fill="#D9D9D9" stroke="black"/>
<rect x="39.5" y="19.5" width="1" height="7" fill="#D9D9D9" stroke="black"/>
<path d="M12.3874 38L13.7208 34H21.6126L20.2792 38H12.3874Z" fill="#727272" stroke="black" stroke-width="2"/>
<path d="M47.6126 38L46.2792 34H46V38H47.6126Z" fill="#727272" stroke="black" stroke-width="2"/>
</svg>
