<svg width="52" height="52" viewBox="0 0 52 52" fill="none" xmlns="http://www.w3.org/2000/svg">
<path fill-rule="evenodd" clip-rule="evenodd" d="M26.5 16.5L14 12L17 30L13 35L4 36L8 42H19.0909L18 48H26H41C44.866 48 48 44.866 48 41H41.831C38.2134 41 34.8612 39.102 33 36L42 20C42 20 36.3112 18.9657 32 23.5914V12L26.5 16.5Z" fill="#B3B3B3"/>
<path d="M17.9864 25.8356L15.2669 9.51893L26.1613 13.4409L26.6946 13.6329L27.1332 13.274L31 10.1102V37H8.53518L5.74347 32.8124L13.1104 31.9939L13.5221 31.9481L13.7809 31.6247L17.7809 26.6247L18.0598 26.276L17.9864 25.8356Z" fill="#727272"/>
<path d="M17.9864 25.8356L15.2669 9.51893L26.1613 13.4409L26.6946 13.6329L27.1332 13.274L31 10.1102V37H8.53518L5.74347 32.8124L13.1104 31.9939L13.5221 31.9481L13.7809 31.6247L17.7809 26.6247L18.0598 26.276L17.9864 25.8356Z" fill="black" fill-opacity="0.2"/>
<path d="M17.9864 25.8356L15.2669 9.51893L26.1613 13.4409L26.6946 13.6329L27.1332 13.274L31 10.1102V37H8.53518L5.74347 32.8124L13.1104 31.9939L13.5221 31.9481L13.7809 31.6247L17.7809 26.6247L18.0598 26.276L17.9864 25.8356Z" stroke="black" stroke-width="2"/>
<path d="M32.1425 32.5145L33 32L32.1284 31.5097L40.3443 16.9038C40.3176 16.9044 40.2906 16.905 40.2633 16.9058C39.2711 16.9346 37.9239 17.1075 36.4964 17.6785C33.7033 18.7957 30.4133 21.5106 28.9778 28.2095L27 28C27 21.1914 25.0609 18.007 23.3415 16.5026C22.4824 15.7508 21.6317 15.3757 21 15.1876V33V33.0902L20.9839 33.1789L19.1982 43H26H41C43.973 43 46.441 40.8377 46.917 38H41.831C37.8622 38 34.1844 35.9177 32.1425 32.5145Z" fill="#727272" stroke="black" stroke-width="2"/>
<rect x="24" y="40" width="2" height="2" fill="black"/>
<path d="M14 25L32 32H19" stroke="black" stroke-width="2"/>
<rect x="33" y="29.1714" width="4" height="4" transform="rotate(45 33 29.1714)" fill="#DCEE08" stroke="black" stroke-width="2"/>
</svg>
