<svg width="240" height="192" viewBox="0 0 240 192" fill="none" xmlns="http://www.w3.org/2000/svg">
<path d="M162.724 42H169V78H155V74V73H154H151.628L154.926 45.6692L162.724 42Z" fill="#C88242" stroke="black" stroke-width="2"/>
<path d="M159 107H164V106V104.753L165.217 105.024L172.91 106.733L169.067 51H159V107Z" fill="#952A2A"/>
<path d="M159 107H164V106V104.753L165.217 105.024L172.91 106.733L169.067 51H159V107Z" fill="url(#paint0_linear_4115_23365)" fill-opacity="0.6"/>
<path d="M159 107H164V106V104.753L165.217 105.024L172.91 106.733L169.067 51H159V107Z" stroke="black" stroke-width="2"/>
<path d="M158 47L162 47L155 167L152 167L158 47Z" fill="#434040" stroke="black" stroke-width="2"/>
<path d="M150 92V90H154L156 89L160 88V92L159 94H157L155 95.5H152.5L150 92Z" fill="#423326"/>
<path d="M150 90V89H149V90H150ZM150 92H149V92.3205L149.186 92.5812L150 92ZM152.5 95.5L151.686 96.0812L151.985 96.5H152.5V95.5ZM159 96L159.832 95.4453L159.578 95.0645L159.124 95.0077L159 96ZM161 94L161.949 94.3162L161 93V94ZM157 94V93H156.667L156.4 93.2L157 94ZM160 88V87H159.877L159.757 87.0299L160 88ZM161 88H162V87H161V88ZM156 89L155.757 88.0299L155.651 88.0565L155.553 88.1056L156 89ZM154 90V91H154.236L154.447 90.8944L154 90ZM155 86V85H154.219L154.03 85.7575L155 86ZM149 90V92H151V90H149ZM149.186 92.5812L151.686 96.0812L153.314 94.9188L150.814 91.4188L149.186 92.5812ZM152.5 96.5H155V94.5H152.5V96.5ZM154.876 96.4923L158.876 96.9923L159.124 95.0077L155.124 94.5077L154.876 96.4923ZM158.168 96.5547L160.168 99.5547L161.832 98.4453L159.832 95.4453L158.168 96.5547ZM159 95H161V93H159V95ZM155.6 96.3L157.6 94.8L156.4 93.2L154.4 94.7L155.6 96.3ZM157 95H159V93H157V95ZM159.894 94.4472L160.894 92.4472L159.106 91.5528L158.106 93.5528L159.894 94.4472ZM160 93H162V91H160V93ZM161 92V88H159V92H161ZM160 89H161V87H160V89ZM160 88V91H162V88H160ZM159.757 87.0299L155.757 88.0299L156.243 89.9701L160.243 88.9701L159.757 87.0299ZM155.553 88.1056L153.553 89.1056L154.447 90.8944L156.447 89.8944L155.553 88.1056ZM154 89H150V91H154V89ZM160.051 93.6838L159.051 96.6838L160.949 97.3162L161.949 94.3162L160.051 93.6838ZM154.97 90.2425L155.97 86.2425L154.03 85.7575L153.03 89.7575L154.97 90.2425ZM155 87H156V85H155V87Z" fill="black"/>
<path d="M128 56H136L139 59V62L141.5 65L146 75L149.5 78.5L153 92H150L143 81L142.5 77.5L136.5 72L133 66H132C129.791 66 128 64.2091 128 62V56Z" fill="#7D6147"/>
<path d="M128 56H136L139 59V62L141.5 65L146 75L149.5 78.5L153 92H150L143 81L142.5 77.5L136.5 72L133 66H132C129.791 66 128 64.2091 128 62V56Z" fill="url(#paint1_linear_4115_23365)" fill-opacity="0.6"/>
<path d="M133 66H132C129.791 66 128 64.2091 128 62V56H136L139 59V62L141.5 65L146 75L149.5 78.5L153 92H150L143 81L142.5 77.5L136.5 72L133 66ZM133 66V61.5" stroke="black" stroke-width="2"/>
<circle cx="160" cy="38" r="9" stroke="black" stroke-width="2"/>
<rect x="159" y="24" width="2" height="6" fill="black"/>
<rect x="158" y="63" width="2" height="6" fill="#797979"/>
<rect opacity="0.2" x="163" y="68" width="2" height="36" fill="black"/>
<rect x="174" y="37" width="2" height="6" transform="rotate(90 174 37)" fill="black"/>
<rect x="152" y="37" width="2" height="6" transform="rotate(90 152 37)" fill="black"/>
<rect x="171" y="41" width="2" height="6" transform="rotate(90 171 41)" fill="black"/>
<rect x="159" y="45" width="2" height="7" fill="#C88242"/>
<defs>
<linearGradient id="paint0_linear_4115_23365" x1="166" y1="50" x2="166" y2="107.275" gradientUnits="userSpaceOnUse">
<stop stop-opacity="0"/>
<stop offset="1"/>
</linearGradient>
<linearGradient id="paint1_linear_4115_23365" x1="146.25" y1="59" x2="146.25" y2="98.5" gradientUnits="userSpaceOnUse">
<stop stop-opacity="0"/>
<stop offset="1"/>
</linearGradient>
</defs>
</svg>
