<svg width="240" height="192" viewBox="0 0 240 192" fill="none" xmlns="http://www.w3.org/2000/svg">
<path d="M98 102L94 105L94 106" stroke="black" stroke-width="2"/>
<path d="M90 109V106H68L71.5 109H90Z" fill="white"/>
<path d="M92 113V102H90V113H92Z" fill="white"/>
<path d="M108 109V106H90V109H108Z" fill="white"/>
<path d="M107 109V112L111 114V115" stroke="white" stroke-width="2"/>
<path d="M111 56H113.853C114.602 56 115.337 56.2107 115.973 56.608L123 61V63C123 67.4183 119.418 71 115 71V71V69V72.5L109 83.5V88L102 99V101H98V99L102 86.5L104.5 82.5L107.5 72L109 68L108 61L111 56Z" fill="#7D6147"/>
<path d="M111 56H113.853C114.602 56 115.337 56.2107 115.973 56.608L123 61V63C123 67.4183 119.418 71 115 71V71V69V72.5L109 83.5V88L102 99V101H98V99L102 86.5L104.5 82.5L107.5 72L109 68L108 61L111 56Z" fill="url(#paint0_linear_4111_37118)" fill-opacity="0.6"/>
<path d="M115 69L116.5 64M115 69V71V71C119.418 71 123 67.4183 123 63V61L115.973 56.608C115.337 56.2107 114.602 56 113.853 56H111L108 61L109 68L107.5 72L104.5 82.5L102 86.5L98 99V101H102V99L109 88V83.5L115 72.5V69Z" stroke="black" stroke-width="2"/>
<path d="M98.0001 107L95.0001 107L98.0001 102L98.0001 98.9998L101.964 98.9997L101.964 103L101.129 107L98.0001 107Z" fill="#33281D"/>
<path d="M95.0001 107L98.0001 107M95.0001 107L95.0001 109L96 110M95.0001 107L98.0001 102L98.0001 98.9998L101.964 98.9997L101.964 103L101.129 107M98.0001 107L101.129 107M98.0001 107L98.0001 109L99.5 110M101.129 107L101.129 109L101.964 110" stroke="black" stroke-width="2"/>
<path d="M88 115V113L91 111V109" stroke="white" stroke-width="2"/>
<path d="M88 100V102L91 104V106" stroke="white" stroke-width="2"/>
<defs>
<linearGradient id="paint0_linear_4111_37118" x1="126.25" y1="59" x2="126.25" y2="98.5" gradientUnits="userSpaceOnUse">
<stop stop-opacity="0"/>
<stop offset="1"/>
</linearGradient>
</defs>
</svg>
