<svg width="240" height="192" viewBox="0 0 240 192" fill="none" xmlns="http://www.w3.org/2000/svg">
<path d="M156 82.084H159L155 124L153 116L156 82.084Z" fill="white"/>
<path d="M150 92V90H154L156 88H160V92L159 94H157L155 95.5H152.5L150 92Z" fill="#423326"/>
<path d="M150 90V89H149V90H150ZM150 92H149V92.3205L149.186 92.5812L150 92ZM152.5 95.5L151.686 96.0812L151.985 96.5H152.5V95.5ZM155 95.5V96.5H155.333L155.6 96.3L155 95.5ZM160 94L160.707 94.7071L160 93V94ZM157 94V93H156.667L156.4 93.2L157 94ZM160 92L160.894 92.4472L161 92.2361V92H160ZM162 88L162.97 88.2425L163.281 87H162V88ZM156 88V87H155.586L155.293 87.2929L156 88ZM154 90V91H154.414L154.707 90.7071L154 90ZM155 86V85H154.219L154.03 85.7575L155 86ZM149 90V92H151V90H149ZM149.186 92.5812L151.686 96.0812L153.314 94.9188L150.814 91.4188L149.186 92.5812ZM152.5 96.5H155V94.5H152.5V96.5ZM159 95H160V93H159V95ZM155.6 96.3L157.6 94.8L156.4 93.2L154.4 94.7L155.6 96.3ZM157 95H159V93H157V95ZM159.894 94.4472L160.894 92.4472L159.106 91.5528L158.106 93.5528L159.894 94.4472ZM161 92V88H159V92H161ZM160 89H162V87H160V89ZM161.03 87.7575L160.03 91.7575L161.97 92.2425L162.97 88.2425L161.03 87.7575ZM160 87H156V89H160V87ZM155.293 87.2929L153.293 89.2929L154.707 90.7071L156.707 88.7071L155.293 87.2929ZM154 89H150V91H154V89ZM159.293 93.2929L156.293 96.2929L157.707 97.7071L160.707 94.7071L159.293 93.2929ZM154.97 90.2425L155.97 86.2425L154.03 85.7575L153.03 89.7575L154.97 90.2425ZM155 87H157V85H155V87Z" fill="black"/>
<path d="M128 56H136L139 59V62L141.5 65L146 75L149.5 78.5L153 92H150L143 81L142.5 77.5L136.5 72L133 66H132C129.791 66 128 64.2091 128 62V56Z" fill="#7D6147"/>
<path d="M128 56H136L139 59V62L141.5 65L146 75L149.5 78.5L153 92H150L143 81L142.5 77.5L136.5 72L133 66H132C129.791 66 128 64.2091 128 62V56Z" fill="url(#paint0_linear_4115_24112)" fill-opacity="0.6"/>
<path d="M133 66H132C129.791 66 128 64.2091 128 62V56H136L139 59V62L141.5 65L146 75L149.5 78.5L153 92H150L143 81L142.5 77.5L136.5 72L133 66ZM133 66V61.5" stroke="black" stroke-width="2"/>
<path d="M152 101L156.5 96L160 102" stroke="white" stroke-width="2"/>
<defs>
<linearGradient id="paint0_linear_4115_24112" x1="146.25" y1="59" x2="146.25" y2="98.5" gradientUnits="userSpaceOnUse">
<stop stop-opacity="0"/>
<stop offset="1"/>
</linearGradient>
</defs>
</svg>
