<svg width="240" height="192" viewBox="0 0 240 192" fill="none" xmlns="http://www.w3.org/2000/svg">
<path d="M127 38H123H117L115 40.5V52L118 51V56H124V49L127 45.5V38Z" fill="#7D6147"/>
<path d="M127 38H123H117L115 40.5V52L118 51V56H124V49L127 45.5V38Z" fill="black" fill-opacity="0.4"/>
<path d="M127 38H123H117L115 40.5V52L118 51V56H124V49L127 45.5V38Z" stroke="black" stroke-width="2"/>
<path d="M119 44H116L113 51H115V56H116L119 52V44Z" fill="black" stroke="black" stroke-width="2"/>
<rect x="116" y="43" width="2" height="2" fill="black"/>
<path d="M128 47L134 51L129 54L131 58H121V56H117L114 51L117 48V41.5L112 36H119.5H124C126.209 36 128 37.7909 128 40V47Z" fill="#6A6B2C"/>
<path d="M128 47L134 51L129 54L131 58H121V56H117L114 51L117 48V41.5L112 36H119.5H124C126.209 36 128 37.7909 128 40V47Z" fill="url(#paint0_linear_4115_23414)" fill-opacity="0.4"/>
<path d="M128 47L134 51L129 54L131 58H121V56H117L114 51L117 48V41.5L112 36H119.5H124C126.209 36 128 37.7909 128 40V47Z" stroke="black" stroke-width="2"/>
<rect opacity="0.4" x="124" y="53" width="5" height="2" fill="black"/>
<defs>
<linearGradient id="paint0_linear_4115_23414" x1="136.804" y1="35.6" x2="136.804" y2="56.6667" gradientUnits="userSpaceOnUse">
<stop stop-opacity="0"/>
<stop offset="1"/>
</linearGradient>
</defs>
</svg>
