<svg width="240" height="192" viewBox="0 0 240 192" fill="none" xmlns="http://www.w3.org/2000/svg">
<path d="M141.5 164V168L144.5 171L138 175H132V174.5L137 172L141.5 164Z" fill="#3B3E34" stroke="black" stroke-width="2"/>
<path d="M129 122H126V143H134V139L129 122Z" fill="#3B3E34" stroke="black" stroke-width="2"/>
<path d="M103 124H111V128L115 135V157L114 162H110.5V152L104 129H103V124Z" fill="#3B3E34"/>
<path d="M103 124H111V128L115 135V157L114 162H110.5V152L104 129H103V124Z" fill="black" fill-opacity="0.3"/>
<path d="M103 124H111V128L115 135V157L114 162H110.5V152L104 129H103V124Z" stroke="black" stroke-width="2"/>
<path opacity="0.3" d="M120 183H155V173H145.5L117 163H103V164L120 176V183Z" fill="url(#paint0_linear_4115_23523)"/>
<path d="M111 155V158H114V162H104V161.5L109.5 159L111 155Z" fill="#3B3E34"/>
<path d="M111 155V158H114V162H104V161.5L109.5 159L111 155Z" fill="black" fill-opacity="0.3"/>
<path d="M111 155V158H114V162H104V161.5L109.5 159L111 155Z" stroke="black" stroke-width="2"/>
<path d="M114 154V154.162L114.051 154.316L116 160.162V162H111V160.162L112.949 154.316L113 154.162V154V151H114V154Z" fill="#3B3E34"/>
<path d="M114 154V154.162L114.051 154.316L116 160.162V162H111V160.162L112.949 154.316L113 154.162V154V151H114V154Z" fill="black" fill-opacity="0.3"/>
<path d="M114 154V154.162L114.051 154.316L116 160.162V162H111V160.162L112.949 154.316L113 154.162V154V151H114V154Z" stroke="black" stroke-width="2"/>
<path d="M111 127V128H103V123.237L115.93 97.4482L116.036 97.2367V97V87L125.18 87L126.019 91.1961L126.081 91.5029L126.306 91.7198L126.306 91.7199L126.306 91.72L126.306 91.72L126.307 91.7212L126.314 91.7279L126.344 91.7571C126.371 91.7834 126.411 91.8235 126.464 91.8761C126.569 91.9814 126.722 92.1369 126.909 92.3339C127.284 92.7286 127.795 93.2871 128.337 93.941C129.444 95.2775 130.588 96.9059 131.05 98.3121C131.533 99.7827 131.55 101.864 131.414 103.678C131.348 104.565 131.248 105.352 131.165 105.918C131.129 106.163 131.096 106.365 131.071 106.515L111.293 126.293L111 126.586V127Z" fill="#3B3E34"/>
<path d="M111 127V128H103V123.237L115.93 97.4482L116.036 97.2367V97V87L125.18 87L126.019 91.1961L126.081 91.5029L126.306 91.7198L126.306 91.7199L126.306 91.72L126.306 91.72L126.307 91.7212L126.314 91.7279L126.344 91.7571C126.371 91.7834 126.411 91.8235 126.464 91.8761C126.569 91.9814 126.722 92.1369 126.909 92.3339C127.284 92.7286 127.795 93.2871 128.337 93.941C129.444 95.2775 130.588 96.9059 131.05 98.3121C131.533 99.7827 131.55 101.864 131.414 103.678C131.348 104.565 131.248 105.352 131.165 105.918C131.129 106.163 131.096 106.365 131.071 106.515L111.293 126.293L111 126.586V127Z" fill="black" fill-opacity="0.3"/>
<path d="M111 127V128H103V123.237L115.93 97.4482L116.036 97.2367V97V87L125.18 87L126.019 91.1961L126.081 91.5029L126.306 91.7198L126.306 91.7199L126.306 91.72L126.306 91.72L126.307 91.7212L126.314 91.7279L126.344 91.7571C126.371 91.7834 126.411 91.8235 126.464 91.8761C126.569 91.9814 126.722 92.1369 126.909 92.3339C127.284 92.7286 127.795 93.2871 128.337 93.941C129.444 95.2775 130.588 96.9059 131.05 98.3121C131.533 99.7827 131.55 101.864 131.414 103.678C131.348 104.565 131.248 105.352 131.165 105.918C131.129 106.163 131.096 106.365 131.071 106.515L111.293 126.293L111 126.586V127Z" stroke="black" stroke-width="2"/>
<path d="M122 136L128 136L128 127L130 127C130 119 127.804 112.382 124 107L126 98.9999L122 91.9999L122 88.0002L109 88.0002L108 107L114 122L122 136Z" fill="#3B3E34"/>
<path d="M116.5 87.0006L110 87.0005C110 87.0005 108 95.9999 108 103C108 115.837 122.5 136 122.5 136L124 136" stroke="black" stroke-width="2"/>
<path d="M130 127C130 126 128 112 124 107C126 105 126 102 126 99" stroke="black" stroke-width="2"/>
<path d="M124 136H127V137H132L137 140L146 160L150 165L145 170L141 168V161.5L127 143L124 141V136Z" fill="#3B3E34" stroke="black" stroke-width="2"/>
<path d="M150.659 166.792L147.2 169.559L143.943 165H149.465L150.659 166.792Z" fill="#3B3E34" stroke="black" stroke-width="2"/>
<path opacity="0.3" d="M119 108C117 108 115 106 115 106" stroke="black" stroke-width="2"/>
<path d="M110 124V129H107H104V124H110Z" fill="#3B3E34"/>
<path d="M110 124V129H107H104V124H110Z" fill="black" fill-opacity="0.3"/>
<path d="M125 130H130V138H125V130Z" fill="#3B3E34"/>
<path d="M125 130H130V138H125V130Z" fill="#3B3E34"/>
<rect x="127" y="136" width="5" height="4" fill="#3B3E34"/>
<rect x="127" y="136" width="5" height="4" fill="#3B3E34"/>
<defs>
<linearGradient id="paint0_linear_4115_23523" x1="101.5" y1="183" x2="101.5" y2="167" gradientUnits="userSpaceOnUse">
<stop stop-opacity="0"/>
<stop offset="1"/>
</linearGradient>
</defs>
</svg>
