<svg width="240" height="192" viewBox="0 0 240 192" fill="none" xmlns="http://www.w3.org/2000/svg">
<path d="M129 56H113L109 73.5V87H125V83L126.5 77.5L133 69V66L129 56Z" fill="#363D55"/>
<path d="M129 56H113L109 73.5V87H125V83L126.5 77.5L133 69V66L129 56Z" fill="url(#paint0_linear_4115_24475)" fill-opacity="0.4"/>
<path d="M129 56H113L109 73.5V87H125V83L126.5 77.5L133 69V66L129 56Z" stroke="black" stroke-width="2"/>
<path opacity="0.3" d="M124 79V83H120V77L118 70.5" stroke="black" stroke-width="2"/>
<path d="M128 56H133V64V66H132C129.791 66 128 64.2091 128 62V56Z" fill="#363D55"/>
<path d="M128 56H133V64V66H132C129.791 66 128 64.2091 128 62V56Z" fill="#7D6147"/>
<path d="M128 56H133V64V66H132C129.791 66 128 64.2091 128 62V56Z" stroke="black" stroke-width="2"/>
<rect x="132" y="57" width="2" height="5" fill="#7A5F46"/>
<rect x="112" y="83" width="2" height="3" fill="black"/>
<rect x="120" y="83" width="2" height="3" fill="black"/>
<rect x="116" y="83" width="2" height="3" fill="black"/>
<defs>
<linearGradient id="paint0_linear_4115_24475" x1="105.941" y1="58.0667" x2="105.941" y2="85.2778" gradientUnits="userSpaceOnUse">
<stop stop-opacity="0"/>
<stop offset="1"/>
</linearGradient>
</defs>
</svg>
