<svg width="240" height="192" viewBox="0 0 240 192" fill="none" xmlns="http://www.w3.org/2000/svg">
<path d="M141.5 164V168L144.5 171L138 175H132V174.5L137 172L141.5 164Z" fill="#383838" stroke="black" stroke-width="2"/>
<path d="M129 122H126V143H134V139L129 122Z" fill="#383838" stroke="black" stroke-width="2"/>
<path opacity="0.3" d="M136 192H146L147 188L151 182L139 176H131V178L137 180L140 186V189L136 192Z" fill="url(#paint0_linear_4115_24919)"/>
<mask id="path-4-inside-1_4115_24919" fill="white">
<path fill-rule="evenodd" clip-rule="evenodd" d="M103 128L103 128L104 136H105L108 158.286V162L107 165L102 168V169H104V169H115V169L114 161L116 142L113 135V134H113L132 107C132 107 133.097 101.339 132 98C130.952 94.8083 127 91 127 91L126 86H115.036L115.036 102.145L113.5 105.5L103 128Z"/>
</mask>
<path fill-rule="evenodd" clip-rule="evenodd" d="M103 128L103 128L104 136H105L108 158.286V162L107 165L102 168V169H104V169H115V169L114 161L116 142L113 135V134H113L132 107C132 107 133.097 101.339 132 98C130.952 94.8083 127 91 127 91L126 86H115.036L115.036 102.145L113.5 105.5L103 128Z" fill="url(#paint1_linear_4115_24919)"/>
<path d="M103 128L103.702 129.873L104.467 129.586L104.812 128.846L103 128ZM103 128L102.298 126.127L100.82 126.682L101.015 128.248L103 128ZM104 136L102.015 136.248L102.234 138H104V136ZM105 136L106.982 135.733L106.749 134H105V136ZM108 158.286H110V158.152L109.982 158.019L108 158.286ZM108 162L109.897 162.632L110 162.325V162H108ZM107 165L108.029 166.715L108.663 166.334L108.897 165.632L107 165ZM102 168L100.971 166.285L100 166.868V168H102ZM102 169H100V171H102V169ZM104 169H106V167H104V169ZM104 169H102V171H104V169ZM115 169V171H117V169H115ZM115 169H117V168.875L116.985 168.752L115 169ZM114 161L112.011 160.791L111.987 161.02L112.015 161.248L114 161ZM116 142L117.989 142.209L118.044 141.691L117.838 141.212L116 142ZM113 135H111V135.411L111.162 135.788L113 135ZM113 134V132H111V134H113ZM113 134V136H114.038L114.636 135.151L113 134ZM132 107L133.636 108.151L133.882 107.801L133.963 107.38L132 107ZM132 98L133.9 97.3759L133.9 97.3759L132 98ZM127 91L125.039 91.3922L125.162 92.0058L125.612 92.4401L127 91ZM126 86L127.961 85.6078L127.64 84H126V86ZM115.036 86V84H113.036L113.036 86L115.036 86ZM115.036 102.145L116.855 102.977L117.036 102.581L117.036 102.145L115.036 102.145ZM113.5 105.5L115.312 106.345L115.315 106.339L115.318 106.332L113.5 105.5ZM102.298 126.127L102.298 126.127L103.702 129.873L103.702 129.873L102.298 126.127ZM101.015 128.248L102.015 136.248L105.985 135.752L104.985 127.752L101.015 128.248ZM104 138H105V134H104V138ZM103.018 136.267L106.018 158.553L109.982 158.019L106.982 135.733L103.018 136.267ZM106 158.286V162H110V158.286H106ZM106.103 161.368L105.103 164.368L108.897 165.632L109.897 162.632L106.103 161.368ZM105.971 163.285L100.971 166.285L103.029 169.715L108.029 166.715L105.971 163.285ZM100 168V169H104V168H100ZM102 171H104V167H102V171ZM102 169V169H106V169H102ZM104 171H115V167H104V171ZM117 169V169H113V169H117ZM116.985 168.752L115.985 160.752L112.015 161.248L113.015 169.248L116.985 168.752ZM115.989 161.209L117.989 142.209L114.011 141.791L112.011 160.791L115.989 161.209ZM117.838 141.212L114.838 134.212L111.162 135.788L114.162 142.788L117.838 141.212ZM115 135V134H111V135H115ZM113 136H113V132H113V136ZM114.636 135.151L133.636 108.151L130.364 105.849L111.364 132.849L114.636 135.151ZM132 107C133.963 107.38 133.964 107.38 133.964 107.38C133.964 107.38 133.964 107.379 133.964 107.379C133.964 107.378 133.964 107.378 133.964 107.377C133.964 107.376 133.965 107.374 133.965 107.372C133.966 107.367 133.967 107.362 133.968 107.355C133.971 107.341 133.975 107.321 133.979 107.297C133.988 107.248 134.001 107.179 134.016 107.09C134.046 106.915 134.087 106.664 134.133 106.354C134.224 105.737 134.333 104.876 134.406 103.901C134.546 102.03 134.579 99.4434 133.9 97.3759L130.1 98.6241C130.518 99.8958 130.551 101.809 130.417 103.603C130.353 104.461 130.256 105.224 130.176 105.772C130.135 106.046 130.099 106.263 130.074 106.41C130.061 106.483 130.052 106.539 130.045 106.574C130.042 106.592 130.039 106.605 130.038 106.613C130.037 106.616 130.037 106.619 130.036 106.62C130.036 106.621 130.036 106.621 130.036 106.621C130.036 106.621 130.036 106.621 130.036 106.62C130.036 106.62 130.036 106.62 130.036 106.62C130.036 106.62 130.037 106.62 132 107ZM133.9 97.3759C133.251 95.4007 131.79 93.4075 130.647 92.0274C130.052 91.3086 129.493 90.6982 129.083 90.2669C128.878 90.0506 128.708 89.8779 128.588 89.7574C128.528 89.6971 128.48 89.6498 128.446 89.6165C128.429 89.5999 128.416 89.5868 128.406 89.5773C128.401 89.5726 128.397 89.5687 128.394 89.5658C128.392 89.5644 128.391 89.5632 128.39 89.5622C128.39 89.5617 128.389 89.5612 128.389 89.5609C128.389 89.5607 128.388 89.5604 128.388 89.5603C128.388 89.5601 128.388 89.5599 127 91C125.612 92.4401 125.612 92.4399 125.612 92.4397C125.612 92.4397 125.612 92.4396 125.612 92.4395C125.611 92.4393 125.611 92.4392 125.611 92.4392C125.611 92.4392 125.611 92.4393 125.612 92.4397C125.613 92.4405 125.614 92.4422 125.617 92.4447C125.622 92.4499 125.631 92.4585 125.643 92.4706C125.668 92.4947 125.706 92.5323 125.756 92.5824C125.856 92.6826 126.003 92.8323 126.184 93.023C126.548 93.4054 127.043 93.9466 127.567 94.5788C128.661 95.9009 129.7 97.4076 130.1 98.6241L133.9 97.3759ZM128.961 90.6078L127.961 85.6078L124.039 86.3922L125.039 91.3922L128.961 90.6078ZM126 84H115.036V88H126V84ZM113.036 86L113.036 102.145L117.036 102.145L117.036 86L113.036 86ZM113.218 101.312L111.682 104.667L115.318 106.332L116.855 102.977L113.218 101.312ZM111.688 104.654L101.188 127.154L104.812 128.846L115.312 106.345L111.688 104.654Z" fill="url(#paint2_linear_4115_24919)" mask="url(#path-4-inside-1_4115_24919)"/>
<path d="M122 136L128 136L128 127L130 127C130 119 127.804 112.382 124 107L126 98.9999L122 91.9999L122 88.0002L109 88.0002L108 107L114 122L122 136Z" fill="#383838"/>
<path d="M116.5 87.0006L110 87.0005C110 87.0005 108 95.9999 108 103C108 115.837 122.5 136 122.5 136L124 136" stroke="black" stroke-width="2"/>
<path d="M130 127C130 126 128 112 124 107C126 105 126 102 126 99" stroke="black" stroke-width="2"/>
<path d="M123 137L127 133V137H132L137 140L146 160L150 165L145 170L141 168V161.5L127 143L124 141L123 137Z" fill="#383838" stroke="black" stroke-width="2"/>
<path d="M150.659 166.792L147.2 169.559L143.943 165H149.465L150.659 166.792Z" fill="#383838" stroke="black" stroke-width="2"/>
<path opacity="0.3" d="M119 108C117 108 115 106 115 106" stroke="black" stroke-width="2"/>
<defs>
<linearGradient id="paint0_linear_4115_24919" x1="143.5" y1="192" x2="143.5" y2="176" gradientUnits="userSpaceOnUse">
<stop stop-opacity="0"/>
<stop offset="1"/>
</linearGradient>
<linearGradient id="paint1_linear_4115_24919" x1="117.244" y1="86" x2="117.244" y2="169" gradientUnits="userSpaceOnUse">
<stop stop-color="#383838"/>
<stop offset="1" stop-color="#212121" stop-opacity="0"/>
</linearGradient>
<linearGradient id="paint2_linear_4115_24919" x1="117.244" y1="86" x2="117.244" y2="169" gradientUnits="userSpaceOnUse">
<stop/>
<stop offset="1" stop-opacity="0"/>
</linearGradient>
</defs>
</svg>
