<svg width="240" height="192" viewBox="0 0 240 192" fill="none" xmlns="http://www.w3.org/2000/svg">
<g filter="url(#filter0_d_4115_23487)">
<path d="M129 56H113L109 73.5V87H125V83L126.5 77.5L133 69V66L129 56Z" fill="#7D6147"/>
<path d="M129 56H113L109 73.5V87H125V83L126.5 77.5L133 69V66L129 56Z" fill="url(#paint0_linear_4115_23487)" fill-opacity="0.6"/>
<path d="M129 56H113L109 73.5V87H125V83L126.5 77.5L133 69V66L129 56Z" stroke="black" stroke-width="2"/>
<path opacity="0.3" d="M124 79V83H120V77L118 70.5" stroke="black" stroke-width="2"/>
<path d="M128 56H133V64V66H132C129.791 66 128 64.2091 128 62V56Z" fill="#7D6147"/>
<path d="M128 56H133V64V66H132C129.791 66 128 64.2091 128 62V56Z" fill="url(#paint1_linear_4115_23487)" fill-opacity="0.6"/>
<path d="M128 56H133V64V66H132C129.791 66 128 64.2091 128 62V56Z" stroke="black" stroke-width="2"/>
<rect x="132" y="57" width="2" height="5" fill="#7A5F46"/>
<rect x="112" y="83" width="2" height="3" fill="black"/>
<rect x="120" y="83" width="2" height="3" fill="black"/>
<rect x="116" y="83" width="2" height="3" fill="black"/>
</g>
<defs>
<filter id="filter0_d_4115_23487" x="-4" y="0" width="248" height="200" filterUnits="userSpaceOnUse" color-interpolation-filters="sRGB">
<feFlood flood-opacity="0" result="BackgroundImageFix"/>
<feColorMatrix in="SourceAlpha" type="matrix" values="0 0 0 0 0 0 0 0 0 0 0 0 0 0 0 0 0 0 127 0" result="hardAlpha"/>
<feOffset dy="4"/>
<feGaussianBlur stdDeviation="2"/>
<feComposite in2="hardAlpha" operator="out"/>
<feColorMatrix type="matrix" values="0 0 0 0 0 0 0 0 0 0 0 0 0 0 0 0 0 0 0.25 0"/>
<feBlend mode="normal" in2="BackgroundImageFix" result="effect1_dropShadow_4115_23487"/>
<feBlend mode="normal" in="SourceGraphic" in2="effect1_dropShadow_4115_23487" result="shape"/>
</filter>
<linearGradient id="paint0_linear_4115_23487" x1="105.941" y1="58.0667" x2="105.941" y2="85.2778" gradientUnits="userSpaceOnUse">
<stop stop-opacity="0"/>
<stop offset="1"/>
</linearGradient>
<linearGradient id="paint1_linear_4115_23487" x1="146.25" y1="59" x2="146.25" y2="98.5" gradientUnits="userSpaceOnUse">
<stop stop-opacity="0"/>
<stop offset="1"/>
</linearGradient>
</defs>
</svg>
