<svg width="28" height="28" viewBox="0 0 28 28" fill="none" xmlns="http://www.w3.org/2000/svg">
<g clip-path="url(#clip0_400_42558)">
<path fill-rule="evenodd" clip-rule="evenodd" d="M13.5858 6L15 7.41421V10H13V8V6L13.5858 6ZM17 11V7V6.58579L16.7071 6.29289L14.7071 4.29289L14.4142 4H14H12H11V5V7H4V9H11L11 11V12H12H16L17 12V11ZM9 14H8V15V19V20H9H11V22H4V24H11H12H16H17H24V22H17V20H20H20.7808L20.9701 19.2425L21.9701 15.2425L22.2808 14H21H9ZM15 19V18H19.2192L19.7192 16H10V18H13V19V20V22H15V20V19Z" fill="#C1A43D"/>
</g>
<defs>
<clipPath id="clip0_400_42558">
<rect width="28" height="28" fill="white"/>
</clipPath>
</defs>
</svg>
