<svg width="44" height="44" viewBox="0 0 44 44" fill="none" xmlns="http://www.w3.org/2000/svg">
<path fill-rule="evenodd" clip-rule="evenodd" d="M21.5858 14L23 15.4142V18H21V16V14L21.5858 14ZM25 19V15V14.5858L24.7071 14.2929L22.7071 12.2929L22.4142 12H22H20H19V13V15H12V17H19L19 19V20H20H24L25 20V19ZM17 22H16V23V27V28H17H19V30H12V32H19H20H24H25H32V30H25V28H28H28.7808L28.9701 27.2425L29.9701 23.2425L30.2808 22H29H17ZM23 27V26H27.2192L27.7192 24H18V26H21V27V28V30H23V28V27Z" fill="#B3926B"/>
</svg>
