<svg width="44" height="44" viewBox="0 0 44 44" fill="none" xmlns="http://www.w3.org/2000/svg">
<path fill-rule="evenodd" clip-rule="evenodd" d="M14 18.5C14 17.1193 15.1193 16 16.5 16C17.8807 16 19 17.1193 19 18.5V19H14V18.5ZM21 18.5V19H25H27H30C30 17.3431 28.6569 16 27 16H20.2422C20.7209 16.715 21 17.5749 21 18.5ZM25 21V23H27V21H30V28H21V21H25ZM14 28V21H19V28H14ZM30 30H21H19H14H12V28V21V19V18.5C12 16.1837 13.75 14.2762 16 14.0275V14H16.5H27C29.7614 14 32 16.2386 32 19V20V21V28V30H30Z" fill="black" fill-opacity="0.5"/>
</svg>
