<svg width="28" height="28" viewBox="0 0 28 28" fill="none" xmlns="http://www.w3.org/2000/svg">
<path fill-rule="evenodd" clip-rule="evenodd" d="M16.0002 4H13.0002V7H11.0002V10.2676C11.598 10.6134 12.0002 11.2597 12.0002 12C12.0002 12.7403 11.598 13.3866 11.0002 13.7324V24H13.0002V17H15.0002V24H17.0002V16.4141L19.95 19.364L21.3643 17.9497L17.0002 13.5857V7H16.0002V4ZM13.0002 11V9H15.0002V11H13.0002ZM13.0002 15V13H15.0002V15H13.0002Z" fill="#B3926B"/>
<path fill-rule="evenodd" clip-rule="evenodd" d="M10 16C7.79086 16 6 14.2091 6 12C6 9.79086 7.79086 8 10 8C12.2091 8 14 9.79086 14 12C14 14.2091 12.2091 16 10 16ZM10 14C8.89543 14 8 13.1046 8 12C8 10.8954 8.89543 10 10 10C11.1046 10 12 10.8954 12 12C12 13.1046 11.1046 14 10 14Z" fill="#B3926B"/>
</svg>
