<svg width="44" height="44" viewBox="0 0 44 44" fill="none" xmlns="http://www.w3.org/2000/svg">
<rect width="44" height="44" fill="#2F3138"/>
<path d="M10.4707 11H9.41602V4.2793C9.16211 4.52148 8.82812 4.76367 8.41406 5.00586C8.00391 5.24805 7.63477 5.42969 7.30664 5.55078V4.53125C7.89648 4.25391 8.41211 3.91797 8.85352 3.52344C9.29492 3.12891 9.60742 2.74609 9.79102 2.375H10.4707V11Z" fill="white"/>
<path d="M26.0003 16L29.001 19L22.0013 28C22.0006 23.1744 22.0014 21.1022 22.0013 18.4213L26.0003 16Z" fill="#FFC327"/>
<path d="M17.9997 16L14.9998 19L21.9995 28C22.0002 23.1744 21.9994 21.1022 21.9995 18.4213L17.9997 16Z" fill="#FFC327"/>
</svg>
