<svg width="44" height="44" viewBox="0 0 44 44" fill="none" xmlns="http://www.w3.org/2000/svg">
<rect width="44" height="44" fill="#2F3138"/>
<path d="M12.041 9.98633V11H6.36328C6.35547 10.7461 6.39648 10.502 6.48633 10.2676C6.63086 9.88086 6.86133 9.5 7.17773 9.125C7.49805 8.75 7.95898 8.31641 8.56055 7.82422C9.49414 7.05859 10.125 6.45312 10.4531 6.00781C10.7812 5.55859 10.9453 5.13477 10.9453 4.73633C10.9453 4.31836 10.7949 3.9668 10.4941 3.68164C10.1973 3.39258 9.80859 3.24805 9.32812 3.24805C8.82031 3.24805 8.41406 3.40039 8.10938 3.70508C7.80469 4.00977 7.65039 4.43164 7.64648 4.9707L6.5625 4.85938C6.63672 4.05078 6.91602 3.43555 7.40039 3.01367C7.88477 2.58789 8.53516 2.375 9.35156 2.375C10.1758 2.375 10.8281 2.60352 11.3086 3.06055C11.7891 3.51758 12.0293 4.08398 12.0293 4.75977C12.0293 5.10352 11.959 5.44141 11.8184 5.77344C11.6777 6.10547 11.4434 6.45508 11.1152 6.82227C10.791 7.18945 10.25 7.69336 9.49219 8.33398C8.85938 8.86523 8.45312 9.22656 8.27344 9.41797C8.09375 9.60547 7.94531 9.79492 7.82812 9.98633H12.041Z" fill="white"/>
<path d="M13.7625 9.00059C9.37936 9.05062 6.97462 13.6956 7.0002 16.2533C7.12811 20.1978 9.91659 22.8747 13.3787 25.8268C16.3975 28.3953 19.8681 31.0972 21.9829 35C21.9915 34.9917 21.9915 34.9833 22 34.975C22.0085 34.9833 22.0085 34.9917 22.0171 35C24.1319 31.0972 27.6025 28.3953 30.6213 25.8268C34.0834 22.8747 36.8719 20.1978 36.9998 16.2533C37.0254 13.6956 34.6206 9.05062 30.2375 9.00059C26.9971 8.95889 23.1938 11.1438 22 14.6463C20.8062 11.1438 17.0029 8.95889 13.7625 9.00059Z" fill="#BE3128"/>
<path d="M12.3945 16.9453C12.3945 15.7188 12.7031 14.6758 13.3203 13.8164C13.9375 12.957 14.832 12.5273 16.0039 12.5273C17.082 12.5273 17.9727 12.9141 18.6758 13.6875C19.3867 14.4531 19.7422 15.582 19.7422 17.0742C19.7422 18.5273 19.3828 19.6484 18.6641 20.4375C17.9531 21.2188 17.0742 21.6094 16.0273 21.6094C14.9883 21.6094 14.1211 21.2227 13.4258 20.4492C12.7383 19.6758 12.3945 18.5078 12.3945 16.9453ZM16.0625 13.9805C15.5391 13.9805 15.1016 14.207 14.75 14.6602C14.4062 15.1133 14.2344 15.9453 14.2344 17.1562C14.2344 18.2578 14.4102 19.0352 14.7617 19.4883C15.1133 19.9336 15.5469 20.1562 16.0625 20.1562C16.5938 20.1562 17.0312 19.9297 17.375 19.4766C17.7266 19.0234 17.9023 18.1953 17.9023 16.9922C17.9023 15.8828 17.7266 15.1055 17.375 14.6602C17.0234 14.207 16.5859 13.9805 16.0625 13.9805ZM16.0742 30.6328L25.4727 12.5273H27.1836L17.8203 30.6328H16.0742ZM23.5039 25.9688C23.5039 24.7344 23.8125 23.6914 24.4297 22.8398C25.0469 21.9805 25.9453 21.5508 27.125 21.5508C28.2031 21.5508 29.0938 21.9375 29.7969 22.7109C30.5078 23.4766 30.8633 24.6055 30.8633 26.0977C30.8633 27.5508 30.5039 28.6719 29.7852 29.4609C29.0742 30.2422 28.1914 30.6328 27.1367 30.6328C26.0977 30.6328 25.2305 30.2461 24.5352 29.4727C23.8477 28.6914 23.5039 27.5234 23.5039 25.9688ZM27.1836 23.0039C26.6523 23.0039 26.2109 23.2305 25.8594 23.6836C25.5156 24.1367 25.3438 24.9688 25.3438 26.1797C25.3438 27.2734 25.5195 28.0469 25.8711 28.5C26.2227 28.9531 26.6562 29.1797 27.1719 29.1797C27.7109 29.1797 28.1523 28.9531 28.4961 28.5C28.8477 28.0469 29.0234 27.2188 29.0234 26.0156C29.0234 24.9062 28.8477 24.1289 28.4961 23.6836C28.1445 23.2305 27.707 23.0039 27.1836 23.0039Z" fill="white"/>
</svg>
