<svg width="44" height="44" viewBox="0 0 44 44" fill="none" xmlns="http://www.w3.org/2000/svg">
<rect width="44" height="44" fill="#2F3138"/>
<path d="M6.50391 8.73242L7.55859 8.5918C7.67969 9.18945 7.88477 9.62109 8.17383 9.88672C8.4668 10.1484 8.82227 10.2793 9.24023 10.2793C9.73633 10.2793 10.1543 10.1074 10.4941 9.76367C10.8379 9.41992 11.0098 8.99414 11.0098 8.48633C11.0098 8.00195 10.8516 7.60352 10.5352 7.29102C10.2188 6.97461 9.81641 6.81641 9.32812 6.81641C9.12891 6.81641 8.88086 6.85547 8.58398 6.93359L8.70117 6.00781C8.77148 6.01562 8.82812 6.01953 8.87109 6.01953C9.32031 6.01953 9.72461 5.90234 10.084 5.66797C10.4434 5.43359 10.623 5.07227 10.623 4.58398C10.623 4.19727 10.4922 3.87695 10.2305 3.62305C9.96875 3.36914 9.63086 3.24219 9.2168 3.24219C8.80664 3.24219 8.46484 3.37109 8.19141 3.62891C7.91797 3.88672 7.74219 4.27344 7.66406 4.78906L6.60938 4.60156C6.73828 3.89453 7.03125 3.34766 7.48828 2.96094C7.94531 2.57031 8.51367 2.375 9.19336 2.375C9.66211 2.375 10.0938 2.47656 10.4883 2.67969C10.8828 2.87891 11.1836 3.15234 11.3906 3.5C11.6016 3.84766 11.707 4.2168 11.707 4.60742C11.707 4.97852 11.6074 5.31641 11.4082 5.62109C11.209 5.92578 10.9141 6.16797 10.5234 6.34766C11.0312 6.46484 11.4258 6.70898 11.707 7.08008C11.9883 7.44727 12.1289 7.9082 12.1289 8.46289C12.1289 9.21289 11.8555 9.84961 11.3086 10.373C10.7617 10.8926 10.0703 11.1523 9.23438 11.1523C8.48047 11.1523 7.85352 10.9277 7.35352 10.4785C6.85742 10.0293 6.57422 9.44727 6.50391 8.73242Z" fill="white"/>
<path d="M17 16H27V25L22 29L17 25V16Z" fill="#FFC327"/>
</svg>
