<svg width="44" height="44" viewBox="0 0 44 44" fill="none" xmlns="http://www.w3.org/2000/svg">
<rect width="44" height="44" fill="#2F3138"/>
<path d="M9.87891 11V8.94336H6.15234V7.97656L10.0723 2.41016H10.9336V7.97656H12.0938V8.94336H10.9336V11H9.87891ZM9.87891 7.97656V4.10352L7.18945 7.97656H9.87891Z" fill="white"/>
<path d="M13.6313 7.09473L17.6626 16.0622L24.1938 13.256L21.4126 7.09473H18.2188L20.4563 12.1416L19.4313 12.5935L16.9938 7.09473H13.6313ZM30.2063 11.9541L12.9001 19.4497L13.6501 21.2122L31.0313 13.7247L30.2063 11.9541ZM25.8501 18.1122L24.3563 18.831C25.1563 19.1685 25.9813 19.6872 26.7501 19.806C27.8813 18.9872 26.4438 17.8997 25.8501 18.1122ZM22.0563 18.806L19.7938 19.8497C19.0501 20.9997 18.8688 22.7247 18.6563 24.206C19.9438 26.0872 20.5626 28.106 21.1251 30.081C22.2438 29.8497 23.1376 29.656 24.1688 29.3622C22.6438 26.9435 21.5313 24.4622 20.8188 21.931C20.8188 21.931 21.1688 21.2747 21.3438 20.9435C22.0876 21.3997 22.9001 21.7185 23.6313 21.5622C24.2563 21.306 24.9751 21.0685 25.3626 20.5247C24.2626 20.0935 23.0438 19.431 22.0563 18.806ZM27.8438 20.4685C27.1688 20.831 26.4063 21.1685 25.8501 21.6497C25.5188 21.9435 25.0938 22.1997 24.5688 22.4185C24.6376 22.8747 24.5626 23.6435 25.0751 23.5935C26.3563 23.206 27.6063 22.656 28.8063 21.8185C28.8001 21.2435 28.3063 20.3122 27.8438 20.4685ZM22.2063 22.606C22.9126 24.781 23.9313 26.9185 25.2876 29.0185C25.5813 28.9185 25.8688 28.8122 26.1313 28.706C25.6751 28.3185 25.4001 27.7122 25.3813 27.1247C24.3438 26.8685 24.0813 25.2872 24.3063 24.5247C23.7126 24.0872 23.4563 23.3935 23.4188 22.731C22.9688 22.7747 22.5688 22.7247 22.2063 22.606ZM28.6626 23.256C27.8126 23.7622 26.9376 24.1497 26.0626 24.456L25.5001 24.731C25.2251 25.0185 25.2188 25.706 25.5626 25.9997C26.1688 26.2185 28.6938 24.6747 29.1688 24.256C29.2501 23.8935 28.9501 23.3247 28.6626 23.256ZM17.5313 24.581L7.19385 26.9872V36.9372C13.1751 35.356 16.3751 33.9935 20.3001 31.2997C19.6251 28.9247 19.0188 26.6247 17.5313 24.581ZM29.2688 25.6372C28.4188 26.2747 27.5688 26.6497 26.5876 26.9747C26.5626 27.3935 26.7438 28.106 27.3438 27.9747C28.5876 27.706 29.6126 26.881 29.6313 26.4372C29.6438 26.206 29.5063 25.781 29.2688 25.6372ZM28.8001 28.6747C27.9063 29.1872 26.8313 29.6685 25.8813 30.0122L27.0501 31.9997L29.5063 30.8247L28.8001 28.6747ZM30.1876 31.7435L27.4313 33.0622L27.6251 34.431C28.5688 34.4622 30.5376 33.7247 31.0876 32.7997V32.7935L30.1876 31.7435Z" fill="#BE3128"/>
</svg>
