<svg width="44" height="44" viewBox="0 0 44 44" fill="none" xmlns="http://www.w3.org/2000/svg">
<rect width="44" height="44" fill="#2F3138"/>
<path d="M6.49805 8.75L7.60547 8.65625C7.6875 9.19531 7.87695 9.60156 8.17383 9.875C8.47461 10.1445 8.83594 10.2793 9.25781 10.2793C9.76562 10.2793 10.1953 10.0879 10.5469 9.70508C10.8984 9.32227 11.0742 8.81445 11.0742 8.18164C11.0742 7.58008 10.9043 7.10547 10.5645 6.75781C10.2285 6.41016 9.78711 6.23633 9.24023 6.23633C8.90039 6.23633 8.59375 6.31445 8.32031 6.4707C8.04688 6.62305 7.83203 6.82227 7.67578 7.06836L6.68555 6.93945L7.51758 2.52734H11.7891V3.53516H8.36133L7.89844 5.84375C8.41406 5.48438 8.95508 5.30469 9.52148 5.30469C10.2715 5.30469 10.9043 5.56445 11.4199 6.08398C11.9355 6.60352 12.1934 7.27148 12.1934 8.08789C12.1934 8.86523 11.9668 9.53711 11.5137 10.1035C10.9629 10.7988 10.2109 11.1465 9.25781 11.1465C8.47656 11.1465 7.83789 10.9277 7.3418 10.4902C6.84961 10.0527 6.56836 9.47266 6.49805 8.75Z" fill="white"/>
<path fill-rule="evenodd" clip-rule="evenodd" d="M27 16H17L16 17V27L17 28H27L28 27V17L27 16ZM20 18H18V20H20V18ZM18 24H20V26H18V24ZM26 18H24V20H26V18ZM24 24H26V26H24V24ZM23 21H21V23H23V21Z" fill="#FFC327"/>
</svg>
