<svg width="44" height="44" viewBox="0 0 44 44" fill="none" xmlns="http://www.w3.org/2000/svg">
<rect width="44" height="44" fill="#2F3138"/>
<path d="M11.9707 4.51367L10.9219 4.5957C10.8281 4.18164 10.6953 3.88086 10.5234 3.69336C10.2383 3.39258 9.88672 3.24219 9.46875 3.24219C9.13281 3.24219 8.83789 3.33594 8.58398 3.52344C8.25195 3.76562 7.99023 4.11914 7.79883 4.58398C7.60742 5.04883 7.50781 5.71094 7.5 6.57031C7.75391 6.18359 8.06445 5.89648 8.43164 5.70898C8.79883 5.52148 9.18359 5.42773 9.58594 5.42773C10.2891 5.42773 10.8867 5.6875 11.3789 6.20703C11.875 6.72266 12.123 7.39062 12.123 8.21094C12.123 8.75 12.0059 9.25195 11.7715 9.7168C11.541 10.1777 11.2227 10.5312 10.8164 10.7773C10.4102 11.0234 9.94922 11.1465 9.43359 11.1465C8.55469 11.1465 7.83789 10.8242 7.2832 10.1797C6.72852 9.53125 6.45117 8.46484 6.45117 6.98047C6.45117 5.32031 6.75781 4.11328 7.37109 3.35938C7.90625 2.70312 8.62695 2.375 9.5332 2.375C10.209 2.375 10.7617 2.56445 11.1914 2.94336C11.625 3.32227 11.8848 3.8457 11.9707 4.51367ZM7.66406 8.2168C7.66406 8.58008 7.74023 8.92773 7.89258 9.25977C8.04883 9.5918 8.26562 9.8457 8.54297 10.0215C8.82031 10.1934 9.11133 10.2793 9.41602 10.2793C9.86133 10.2793 10.2441 10.0996 10.5645 9.74023C10.8848 9.38086 11.0449 8.89258 11.0449 8.27539C11.0449 7.68164 10.8867 7.21484 10.5703 6.875C10.2539 6.53125 9.85547 6.35938 9.375 6.35938C8.89844 6.35938 8.49414 6.53125 8.16211 6.875C7.83008 7.21484 7.66406 7.66211 7.66406 8.2168Z" fill="white"/>
<path d="M21 17H17V27H21" stroke="#FFC327" stroke-width="2"/>
<path d="M23 17H27V27H23" stroke="#FFC327" stroke-width="2"/>
</svg>
