<svg width="44" height="44" viewBox="0 0 44 44" fill="none" xmlns="http://www.w3.org/2000/svg">
<rect width="44" height="44" fill="#2F3138"/>
<path d="M30.3107 6C24.7705 6 22 10.6786 22 10.6786C22 10.6786 19.2295 6.00071 13.6893 6.00071C11.0394 6.00071 6 8.40087 6 14.9074C6 26.3843 22 38 22 38C22 38 38 26.3843 38 14.9074C38 8.40016 32.9606 6.00071 30.3107 6ZM15.1505 12.9603H28.8495V14.2415H15.1505V12.9603ZM16.7915 15.1668H18.0758V27.6943H16.7915V15.1668ZM19.146 15.1668H24.854C24.854 15.1668 24.2832 20.8611 22 20.8611C19.7168 20.8611 19.146 15.1668 19.146 15.1668ZM25.9242 15.1668H27.2085V27.6943H25.9242V15.1668ZM22 22C24.2832 22 24.854 27.6943 24.854 27.6943H19.146C19.146 27.6943 19.7168 22 22 22ZM15.1505 28.6197H28.8495V29.9009H15.1505V28.6197Z" fill="#BE3128"/>
<path d="M6.56836 3.53516V2.52148H12.1289V3.3418C11.582 3.92383 11.0391 4.69727 10.5 5.66211C9.96484 6.62695 9.55078 7.61914 9.25781 8.63867C9.04688 9.35742 8.91211 10.1445 8.85352 11H7.76953C7.78125 10.3242 7.91406 9.50781 8.16797 8.55078C8.42188 7.59375 8.78516 6.67188 9.25781 5.78516C9.73438 4.89453 10.2402 4.14453 10.7754 3.53516H6.56836Z" fill="white"/>
</svg>
