<svg width="44" height="44" viewBox="0 0 44 44" fill="none" xmlns="http://www.w3.org/2000/svg">
<rect width="44" height="44" fill="#BE3128"/>
<rect width="44" height="44" fill="url(#paint0_linear_315_143760)" fill-opacity="0.6"/>
<rect x="-1" y="-1" width="18" height="7" rx="1" transform="matrix(1.19249e-08 -1 -1 -1.19249e-08 34 34)" fill="#D9D9D9" stroke="black" stroke-width="2"/>
<path d="M25 17H9V35H25V17Z" stroke="black" stroke-width="2"/>
<path d="M25 21H9V35H25V21Z" fill="url(#paint1_linear_315_143760)" stroke="black" stroke-width="2"/>
<path d="M20 9H14V13H20V9Z" fill="#D9D9D9" stroke="black" stroke-width="2"/>
<path d="M13 17L13 35" stroke="black" stroke-width="2"/>
<path opacity="0.3" d="M23 16L23 35" stroke="black" stroke-width="2"/>
<rect x="12" y="18" width="2" height="2" fill="white"/>
<rect x="15" y="10" width="2" height="2" fill="white"/>
<rect x="15" y="14" width="4" height="2" fill="black"/>
<rect x="-1" y="1" width="26" height="10" rx="5" transform="matrix(-1 0 0 1 34 24)" fill="#DECAB3" stroke="black" stroke-width="2"/>
<rect opacity="0.2" x="-1" y="1" width="18" height="10" rx="5" transform="matrix(-1 0 0 1 26 24)" fill="#DECAB3" stroke="black" stroke-width="2"/>
<rect x="9" y="25" width="10" height="10" rx="5" fill="#DECAB3" stroke="black" stroke-width="2"/>
<rect opacity="0.3" x="13.5" y="29.5" width="1" height="1" rx="0.5" fill="#DECAB3" stroke="black"/>
<path opacity="0.3" d="M9 14V9H11" stroke="black" stroke-width="2"/>
<path opacity="0.3" d="M35 14V9H23" stroke="black" stroke-width="2"/>
<path opacity="0.3" d="M6 35H0" stroke="black" stroke-width="2"/>
<path opacity="0.3" d="M44 35H38" stroke="black" stroke-width="2"/>
<path opacity="0.3" d="M5 44L5 34" stroke="black" stroke-width="2"/>
<path opacity="0.3" d="M9 44L9 38" stroke="black" stroke-width="2"/>
<path opacity="0.3" d="M13 44L13 38" stroke="black" stroke-width="2"/>
<path opacity="0.3" d="M17 44L17 38" stroke="black" stroke-width="2"/>
<path opacity="0.3" d="M21 44L21 38" stroke="black" stroke-width="2"/>
<path opacity="0.3" d="M25 44L25 38" stroke="black" stroke-width="2"/>
<path opacity="0.3" d="M29 44L29 38" stroke="black" stroke-width="2"/>
<path opacity="0.3" d="M33 44L33 38" stroke="black" stroke-width="2"/>
<path opacity="0.3" d="M37 44L37 34" stroke="black" stroke-width="2"/>
<rect x="1" y="1" width="42" height="42" stroke="black" stroke-opacity="0.4" stroke-width="2"/>
<defs>
<linearGradient id="paint0_linear_315_143760" x1="22" y1="0" x2="22" y2="44" gradientUnits="userSpaceOnUse">
<stop stop-color="#FF0000"/>
<stop offset="1" stop-color="#FF0000" stop-opacity="0"/>
</linearGradient>
<linearGradient id="paint1_linear_315_143760" x1="9" y1="21" x2="23.242" y2="26.3659" gradientUnits="userSpaceOnUse">
<stop stop-color="#9430A4"/>
<stop offset="1" stop-color="#FF9900"/>
</linearGradient>
</defs>
</svg>
