<svg width="44" height="44" viewBox="0 0 44 44" fill="none" xmlns="http://www.w3.org/2000/svg">
<g clip-path="url(#clip0_315_143778)">
<rect width="44" height="44" fill="url(#paint0_linear_315_143778)"/>
<path d="M38.4884 45.7933L41.3992 59.4874L47.2681 58.2399L44.3573 44.5459L51 40V36L44 41L33 8L38 42L29 38.97V43L38.4884 45.7933Z" fill="#7C7C7C" stroke="black" stroke-width="2"/>
<path d="M35.0001 48.5002L31.5001 47.5002L34.2285 52.3419L37.0001 60.0002L34.0001 60.0002L34.0001 62.0002L29.0001 62L29.9998 64.9999L44.9998 64.9999L44.9998 43.9996L33 33L38.9997 43.9996L38.9997 52.9996L35.0001 48.5002Z" fill="#5C5B6A" stroke="black" stroke-width="2"/>
<path d="M0 0H21L24 6V16L27 23L24 24.5L23.5 39L15 38V44H0V0Z" fill="url(#paint1_linear_315_143778)"/>
<path d="M20 0L24 6V12L25 13L24 16L27 22V23L24 24V26H20L17 28H20L24 30.5V31.5L23 33L24 37L23 39L16.1928 38.5138C11.6555 38.1897 7.52326 35.7849 5 32V32" stroke="black" stroke-width="2"/>
<path d="M21 10V7L25 10H26C26 10 23.0183 -0.245621 21 -3H-3V13L-0.5 9H6L10 14V9L21 10Z" fill="#2B2B2B" stroke="black" stroke-width="2"/>
<path d="M15 38V43H20" stroke="black" stroke-width="2"/>
<path d="M5 23H3L1 15H5V18" stroke="black" stroke-width="2"/>
<rect x="1" y="1" width="42" height="42" stroke="black" stroke-opacity="0.4" stroke-width="2"/>
<path d="M13 16H16.75H20V17L18 19" stroke="black" stroke-width="2"/>
<rect x="17" y="15" width="2" height="2" fill="#4A5366"/>
<rect opacity="0.5" x="16" y="13" width="5" height="2" fill="black"/>
<rect x="16" y="29" width="2" height="2" fill="black"/>
<path d="M18 28H21.3944C23.7454 28 26.0438 27.3041 28 26V26L26.2 28.4C25.4446 29.4072 24.259 30 23 30V30" stroke="url(#paint2_linear_315_143778)" stroke-width="2"/>
<path opacity="0.2" d="M5 22V22C11.0751 22 16 26.9249 16 33V35H5V22Z" fill="url(#paint3_linear_315_143778)"/>
<path opacity="0.5" d="M0 31V31C6.07513 31 11 35.9249 11 42V44H0V31Z" fill="url(#paint4_linear_315_143778)"/>
</g>
<defs>
<linearGradient id="paint0_linear_315_143778" x1="22" y1="0" x2="22" y2="44" gradientUnits="userSpaceOnUse">
<stop stop-color="#465C35"/>
<stop offset="1" stop-color="#3D9550"/>
</linearGradient>
<linearGradient id="paint1_linear_315_143778" x1="13.5" y1="0" x2="13.5" y2="44" gradientUnits="userSpaceOnUse">
<stop stop-color="#302828"/>
<stop offset="1" stop-color="#505D75"/>
</linearGradient>
<linearGradient id="paint2_linear_315_143778" x1="31" y1="28" x2="20" y2="29" gradientUnits="userSpaceOnUse">
<stop stop-color="#AC130F"/>
<stop offset="1"/>
</linearGradient>
<linearGradient id="paint3_linear_315_143778" x1="10.5" y1="22" x2="10.5" y2="35" gradientUnits="userSpaceOnUse">
<stop/>
<stop offset="1" stop-opacity="0"/>
</linearGradient>
<linearGradient id="paint4_linear_315_143778" x1="5.5" y1="31" x2="5.5" y2="44" gradientUnits="userSpaceOnUse">
<stop/>
<stop offset="1" stop-opacity="0"/>
</linearGradient>
<clipPath id="clip0_315_143778">
<rect width="44" height="44" fill="white"/>
</clipPath>
</defs>
</svg>
