<svg width="44" height="44" viewBox="0 0 44 44" fill="none" xmlns="http://www.w3.org/2000/svg">
<rect width="44" height="44" fill="#2F3138"/>
<path d="M8.12109 6.3418C7.68359 6.18164 7.35938 5.95312 7.14844 5.65625C6.9375 5.35938 6.83203 5.00391 6.83203 4.58984C6.83203 3.96484 7.05664 3.43945 7.50586 3.01367C7.95508 2.58789 8.55273 2.375 9.29883 2.375C10.0488 2.375 10.6523 2.59375 11.1094 3.03125C11.5664 3.46484 11.7949 3.99414 11.7949 4.61914C11.7949 5.01758 11.6895 5.36523 11.4785 5.66211C11.2715 5.95508 10.9551 6.18164 10.5293 6.3418C11.0566 6.51367 11.457 6.79102 11.7305 7.17383C12.0078 7.55664 12.1465 8.01367 12.1465 8.54492C12.1465 9.2793 11.8867 9.89648 11.3672 10.3965C10.8477 10.8965 10.1641 11.1465 9.31641 11.1465C8.46875 11.1465 7.78516 10.8965 7.26562 10.3965C6.74609 9.89258 6.48633 9.26562 6.48633 8.51562C6.48633 7.95703 6.62695 7.49023 6.9082 7.11523C7.19336 6.73633 7.59766 6.47852 8.12109 6.3418ZM7.91016 4.55469C7.91016 4.96094 8.04102 5.29297 8.30273 5.55078C8.56445 5.80859 8.9043 5.9375 9.32227 5.9375C9.72852 5.9375 10.0605 5.81055 10.3184 5.55664C10.5801 5.29883 10.7109 4.98438 10.7109 4.61328C10.7109 4.22656 10.5762 3.90234 10.3066 3.64062C10.041 3.375 9.70898 3.24219 9.31055 3.24219C8.9082 3.24219 8.57422 3.37109 8.30859 3.62891C8.04297 3.88672 7.91016 4.19531 7.91016 4.55469ZM7.57031 8.52148C7.57031 8.82227 7.64062 9.11328 7.78125 9.39453C7.92578 9.67578 8.13867 9.89453 8.41992 10.0508C8.70117 10.2031 9.00391 10.2793 9.32812 10.2793C9.83203 10.2793 10.248 10.1172 10.5762 9.79297C10.9043 9.46875 11.0684 9.05664 11.0684 8.55664C11.0684 8.04883 10.8984 7.62891 10.5586 7.29688C10.2227 6.96484 9.80078 6.79883 9.29297 6.79883C8.79688 6.79883 8.38477 6.96289 8.05664 7.29102C7.73242 7.61914 7.57031 8.0293 7.57031 8.52148Z" fill="white"/>
<path d="M15.3249 7.875L7.81738 21.825L10.7405 36.4375H13.0374L10.1824 22.175L16.6749 10.125H27.3249L33.8186 22.175L30.9624 36.4375H33.2624L36.1811 21.825L28.6749 7.875H15.3249ZM14.9999 15L15.9624 19.825C16.1811 19.8875 16.3999 19.9438 16.6186 20H16.6311C16.5061 19.3625 16.4374 18.6938 16.4374 18C16.4374 17.5 16.4749 17.0125 16.5374 16.5375L14.9999 15ZM28.9999 15L27.4624 16.5375C27.5249 17.0125 27.5624 17.5 27.5624 18C27.5624 18.6938 27.4936 19.3625 27.3686 20H27.3811C27.5999 19.9438 27.8186 19.8875 28.0374 19.825L28.9999 15ZM19.5624 15.4125C19.4374 15.4125 19.3124 15.4187 19.1874 15.4312C18.6874 15.4875 18.2124 15.6375 17.8999 15.7937C17.8749 15.8062 17.8499 15.825 17.8249 15.8375C17.6561 16.5125 17.5624 17.2375 17.5624 18C17.5624 19.825 18.0936 21.4688 18.9249 22.625C19.7499 23.7812 20.8311 24.4375 21.9999 24.4375C23.1686 24.4375 24.2499 23.7812 25.0749 22.625C25.9061 21.4688 26.4374 19.825 26.4374 18C26.4374 17.2375 26.3436 16.5125 26.1749 15.8375C26.1499 15.825 26.1249 15.8062 26.0999 15.7937C25.7874 15.6375 25.3124 15.4875 24.8124 15.4312C24.6874 15.4187 24.5624 15.4125 24.4374 15.4125C24.0624 15.4063 23.6874 15.45 23.3811 15.55C22.9686 15.6875 22.6749 15.9 22.5061 16.25L21.9999 17.2563L21.4936 16.25C21.3249 15.9 21.0311 15.6875 20.6186 15.55C20.3124 15.45 19.9374 15.4063 19.5624 15.4125ZM20.9749 18.225L21.7749 19.025C21.2124 19.5812 20.5811 19.9438 19.8936 19.9563C19.2061 19.9625 18.5561 19.6063 17.9749 19.0188L18.7749 18.2312C19.2249 18.6875 19.5749 18.8313 19.8811 18.8313C20.1811 18.825 20.5374 18.6688 20.9749 18.225ZM25.2249 18.225L26.0249 19.025C25.4624 19.5812 24.8311 19.9438 24.1436 19.9563C23.4561 19.9625 22.8061 19.6063 22.2249 19.0188L23.0249 18.2312C23.4749 18.6875 23.8249 18.8313 24.1311 18.8313C24.4311 18.825 24.7874 18.6688 25.2249 18.225ZM12.6186 19.8562C12.8624 21.7625 13.9186 23.2938 15.4561 24.4188C16.5124 25.1938 17.7874 25.7625 19.1561 26.0938L19.6499 24.8625C19.0249 24.4687 18.4686 23.925 18.0061 23.275C17.5749 22.675 17.2249 21.9812 16.9624 21.2188C15.5374 20.9 14.0936 20.4437 12.6186 19.8562ZM31.3811 19.8562C29.9061 20.4437 28.4624 20.9 27.0374 21.2188C26.7749 21.9812 26.4249 22.675 25.9936 23.275C25.5311 23.925 24.9749 24.4687 24.3499 24.8625L24.8436 26.0938C26.2124 25.7625 27.4874 25.1938 28.5436 24.4188C30.0811 23.2938 31.1374 21.7625 31.3811 19.8562ZM19.6249 21.1875H24.3749V22.3125H23.6561L22.9999 23.625L22.3436 22.3125H21.6561L20.9999 23.625L20.3436 22.3125H19.6249V21.1875ZM13.5749 24.2563L12.4249 24.4875C12.3186 24.875 12.2624 25.5 12.3124 26.275C12.3686 27.2375 12.5561 28.4063 12.7999 29.6375C13.2624 31.9563 13.9374 34.4688 14.4374 36.4375H16.3749L15.4436 28.0625L16.5561 27.9375L17.4999 36.4375H21.4374V31.5625H20.6999L18.3686 28.0688L18.7374 27.15C17.2936 26.7812 15.9374 26.1687 14.7936 25.3312C14.3561 25.0062 13.9436 24.65 13.5749 24.2563ZM30.4249 24.2563C30.0561 24.65 29.6436 25.0062 29.2061 25.3312C28.0624 26.1687 26.7061 26.7875 25.2624 27.15L25.6311 28.0688L23.2999 31.5625H22.5624V36.4375H26.4999L27.4436 27.9375L28.5561 28.0625L27.6249 36.4375H29.5624C30.0624 34.4688 30.7374 31.9563 31.1999 29.6375C31.4436 28.4063 31.6311 27.2375 31.6874 26.275C31.7374 25.5 31.6811 24.875 31.5749 24.4875L30.4249 24.2563ZM20.6686 25.3438L19.6311 27.9312L21.2999 30.4375H22.6999L24.3686 27.9312L23.3311 25.3438C22.9061 25.4875 22.4624 25.5625 21.9999 25.5625C21.5374 25.5625 21.0936 25.4875 20.6686 25.3438Z" fill="#769520"/>
</svg>
