<svg width="44" height="44" viewBox="0 0 44 44" fill="none" xmlns="http://www.w3.org/2000/svg">
<g clip-path="url(#clip0_315_143796)">
<rect width="44" height="44" fill="#BE3128"/>
<rect width="44" height="44" fill="url(#paint0_linear_315_143796)" fill-opacity="0.6"/>
<path d="M19 20L11 12V10" stroke="black" stroke-width="2"/>
<path d="M16 34L10 45H16L22 39L28 45H34L28 34V24L34 30L43 28V23L41 25H36L30 17L25.5 16H24V10H20V16H18L14 17L8 25H3L1 23V28L10 30L16 24V34Z" fill="#2D2D2D"/>
<path d="M16 34L10 45H16L22 39L28 45H34L28 34V24L34 30L43 28V23L41 25H36L30 17L25.5 16H24V10H20V16H18L14 17L8 25H3L1 23V28L10 30L16 24V34Z" fill="url(#paint1_linear_315_143796)" fill-opacity="0.6"/>
<path d="M16 34L10 45H16L22 39L28 45H34L28 34V24L34 30L43 28V23L41 25H36L30 17L25.5 16H24V10H20V16H18L14 17L8 25H3L1 23V28L10 30L16 24V34Z" stroke="black" stroke-width="2"/>
<path d="M32 8L24 22V24" stroke="black" stroke-width="2"/>
<rect x="1" y="1" width="42" height="42" stroke="black" stroke-opacity="0.4" stroke-width="2"/>
<rect opacity="0.5" x="17" y="17" width="10" height="16" fill="url(#paint2_linear_315_143796)"/>
<rect x="38" y="22" width="2" height="2" fill="black"/>
<rect x="6" y="20" width="2" height="5" fill="black"/>
<path d="M19 20L22 29V31" stroke="black" stroke-width="2"/>
<rect x="23" y="24" width="2" height="2" fill="#920900"/>
<rect x="21" y="31" width="2" height="2" fill="#920900"/>
<rect x="10" y="21" width="2" height="3" fill="#920900"/>
<rect width="2" height="3" transform="matrix(-1 0 0 1 32 19)" fill="#920900"/>
<path d="M11 22V20L7 16V14" stroke="black" stroke-width="2"/>
<path d="M31 20V18L35 14V12" stroke="black" stroke-width="2"/>
<path opacity="0.3" d="M11 12L11 0" stroke="black" stroke-width="2"/>
<path opacity="0.3" d="M22 9L22 0" stroke="black" stroke-width="2"/>
<path opacity="0.3" d="M31 10L31 2.38419e-07" stroke="black" stroke-width="2"/>
<path opacity="0.3" d="M35 14L35 4.76837e-07" stroke="black" stroke-width="2"/>
<path opacity="0.3" d="M39 22L39 -4.76837e-07" stroke="black" stroke-width="2"/>
<path opacity="0.3" d="M7 20L7 4.76837e-07" stroke="black" stroke-width="2"/>
<path opacity="0.3" d="M18 16L18 -4.76837e-07" stroke="black" stroke-width="2"/>
<path d="M8 34L1 32V43H7L13 32L10.5 34H8Z" fill="black" fill-opacity="0.2" stroke="black" stroke-width="2"/>
<path d="M36 34L43 32V43H37L31 32L33.5 34H36Z" fill="black" fill-opacity="0.2" stroke="black" stroke-width="2"/>
</g>
<defs>
<linearGradient id="paint0_linear_315_143796" x1="22" y1="0" x2="22" y2="44" gradientUnits="userSpaceOnUse">
<stop stop-color="#FF0000"/>
<stop offset="1" stop-color="#FF0000" stop-opacity="0"/>
</linearGradient>
<linearGradient id="paint1_linear_315_143796" x1="22" y1="10" x2="22" y2="45" gradientUnits="userSpaceOnUse">
<stop/>
<stop offset="1" stop-opacity="0"/>
</linearGradient>
<linearGradient id="paint2_linear_315_143796" x1="22" y1="17" x2="22" y2="33" gradientUnits="userSpaceOnUse">
<stop/>
<stop offset="1" stop-opacity="0"/>
</linearGradient>
<clipPath id="clip0_315_143796">
<rect width="44" height="44" fill="white"/>
</clipPath>
</defs>
</svg>
