<svg width="44" height="44" viewBox="0 0 44 44" fill="none" xmlns="http://www.w3.org/2000/svg">
<rect width="44" height="44" fill="#2F3138"/>
<path d="M6.65625 9.01367L7.66992 8.91992C7.75586 9.39648 7.91992 9.74219 8.16211 9.95703C8.4043 10.1719 8.71484 10.2793 9.09375 10.2793C9.41797 10.2793 9.70117 10.2051 9.94336 10.0566C10.1895 9.9082 10.3906 9.71094 10.5469 9.46484C10.7031 9.21484 10.834 8.87891 10.9395 8.45703C11.0449 8.03516 11.0977 7.60547 11.0977 7.16797C11.0977 7.12109 11.0957 7.05078 11.0918 6.95703C10.8809 7.29297 10.5918 7.56641 10.2246 7.77734C9.86133 7.98438 9.4668 8.08789 9.04102 8.08789C8.33008 8.08789 7.72852 7.83008 7.23633 7.31445C6.74414 6.79883 6.49805 6.11914 6.49805 5.27539C6.49805 4.4043 6.75391 3.70312 7.26562 3.17188C7.78125 2.64062 8.42578 2.375 9.19922 2.375C9.75781 2.375 10.2676 2.52539 10.7285 2.82617C11.1934 3.12695 11.5449 3.55664 11.7832 4.11523C12.0254 4.66992 12.1465 5.47461 12.1465 6.5293C12.1465 7.62695 12.0273 8.50195 11.7891 9.1543C11.5508 9.80273 11.1953 10.2969 10.7227 10.6367C10.2539 10.9766 9.70312 11.1465 9.07031 11.1465C8.39844 11.1465 7.84961 10.9609 7.42383 10.5898C6.99805 10.2148 6.74219 9.68945 6.65625 9.01367ZM10.9746 5.22266C10.9746 4.61719 10.8125 4.13672 10.4883 3.78125C10.168 3.42578 9.78125 3.24805 9.32812 3.24805C8.85938 3.24805 8.45117 3.43945 8.10352 3.82227C7.75586 4.20508 7.58203 4.70117 7.58203 5.31055C7.58203 5.85742 7.74609 6.30273 8.07422 6.64648C8.40625 6.98633 8.81445 7.15625 9.29883 7.15625C9.78711 7.15625 10.1875 6.98633 10.5 6.64648C10.8164 6.30273 10.9746 5.82812 10.9746 5.22266Z" fill="white"/>
<path d="M14 10.5625C12.4066 10.5625 11.2456 10.9625 10.5019 11.4288C9.75837 11.895 9.5 12.49 9.5 12.5394V15.0565C9.89644 15.2148 10.2519 15.3954 10.5639 15.5906C11.6119 16.2463 12.25 16.9973 12.25 17.8464V21.5695C12.7894 21.4851 13.3723 21.4374 14 21.4374C14.6277 21.4374 15.2106 21.4852 15.75 21.5695V17.8464C15.75 16.9973 16.3881 16.2461 17.4361 15.5905C17.7481 15.3952 18.1036 15.2146 18.5 15.0564V12.5394C18.5 12.4899 18.2417 11.895 17.4981 11.4288C16.7544 10.9625 15.5934 10.5625 14 10.5625ZM30 10.5625C28.4066 10.5625 27.2456 10.9625 26.5019 11.4288C25.7584 11.895 25.5 12.49 25.5 12.5394V15.0565C25.8964 15.2148 26.2519 15.3954 26.5639 15.5906C27.6119 16.2463 28.25 16.9973 28.25 17.8464V21.5695C28.7894 21.4851 29.3723 21.4374 30 21.4374C30.6277 21.4374 31.2106 21.4852 31.75 21.5695V17.8464C31.75 16.9973 32.3881 16.2461 33.4361 15.5905C33.7481 15.3952 34.1036 15.2146 34.5 15.0564V12.5394C34.5 12.4899 34.2417 11.895 33.4981 11.4288C32.7544 10.9625 31.5934 10.5625 30 10.5625ZM13.4375 11.6929H14.5625V13.6698H17.375V14.7948H14.5625V21.0035H13.4375V14.7948H10.625V13.6698H13.4375V11.6929ZM29.4375 11.6929H30.5625V13.6698H33.375V14.7948H30.5625V21.0035H29.4375V14.7948H26.625V13.6698H29.4375V11.6929ZM22 15.5625C20.198 15.5625 18.8806 16.0139 18.0327 16.5444C17.1849 17.0747 16.875 17.7466 16.875 17.8464V21.8147C17.6298 22.0291 18.2722 22.3191 18.7981 22.6479C19.8981 23.3354 20.5625 24.125 20.5625 25V28.6697H23.4375V25C23.4375 24.125 24.1019 23.3355 25.2019 22.6479C25.7278 22.3192 26.3702 22.0292 27.125 21.8148V17.8464C27.125 17.7467 26.8151 17.0748 25.9673 16.5443C25.1194 16.0137 23.802 15.5625 22 15.5625ZM7.125 15.626V19.1815H9.79163V20.3065H7.125V28.6696H7.4375V25C7.4375 24.125 8.10187 23.3355 9.20187 22.6479C9.72781 22.3192 10.3702 22.0292 11.125 21.8148V17.8464C11.125 17.7467 10.8151 17.0748 9.96731 16.5443C9.30731 16.1312 8.36125 15.7675 7.125 15.6259V15.626ZM36.875 15.626C35.6387 15.7674 34.6928 16.1314 34.0327 16.5443C33.1849 17.0747 32.875 17.7466 32.875 17.8464V21.8147C33.6298 22.0291 34.2722 22.3191 34.7981 22.6479C35.8981 23.3354 36.5625 24.125 36.5625 25V28.6697H36.875V20.3066H34.2084V19.1816H36.875V15.6259V15.626ZM21.4375 16.8975H22.5625V19.1815H25.7916V20.3065H22.5625V27.3345H21.4375V20.3065H18.2084V19.1815H21.4375V16.8975ZM14 22.5625C12.0938 22.5625 10.6981 23.0396 9.79813 23.6021C8.89813 24.1646 8.5625 24.875 8.5625 25V36.4375H19.4375V25C19.4375 24.875 19.1019 24.1645 18.2019 23.6021C17.3019 23.0396 15.9062 22.5625 14 22.5625ZM30 22.5625C28.0938 22.5625 26.6981 23.0396 25.7981 23.6021C24.8981 24.1646 24.5625 24.875 24.5625 25V36.4375H35.4375V25C35.4375 24.875 35.1019 24.1645 34.2019 23.6021C33.3019 23.0396 31.9062 22.5625 30 22.5625ZM13.4375 24H14.5625V26.4375H18V27.5625H14.5625V35H13.4375V27.5625H10V26.4375H13.4375V24ZM29.4375 24H30.5625V26.4375H34V27.5625H30.5625V35H29.4375V27.5625H26V26.4375H29.4375V24Z" fill="#BE3128"/>
</svg>
