<svg width="44" height="44" viewBox="0 0 44 44" fill="none" xmlns="http://www.w3.org/2000/svg">
<g clip-path="url(#clip0_315_143769)">
<rect width="44" height="44" fill="url(#paint0_linear_315_143769)"/>
<rect opacity="0.1" x="31" y="-1" width="46" height="18" transform="rotate(90 31 -1)" stroke="black" stroke-width="2"/>
<rect opacity="0.1" x="37" y="-1" width="46" height="30" transform="rotate(90 37 -1)" stroke="black" stroke-width="2"/>
<path d="M5 19L5 33L-1 33L-1 19L5 19Z" fill="#4A4A4A" stroke="black" stroke-width="2"/>
<path d="M20 19L20 35C14 35 10 32 5 32L5 19L20 19Z" fill="#4A4A4A" stroke="black" stroke-width="2"/>
<rect x="26" y="19" width="4" height="6" transform="rotate(90 26 19)" fill="#4A4A4A" stroke="black" stroke-width="2"/>
<path d="M24 15L24 17L18 19L10 19L13 15L24 15Z" fill="#4A4A4A" stroke="black" stroke-width="2"/>
<rect x="26" y="23" width="4" height="6" transform="rotate(90 26 23)" fill="#4A4A4A" stroke="black" stroke-width="2"/>
<rect x="25" y="27" width="4" height="5" transform="rotate(90 25 27)" fill="#4A4A4A" stroke="black" stroke-width="2"/>
<rect x="25" y="31" width="4" height="5" transform="rotate(90 25 31)" fill="#4A4A4A" stroke="black" stroke-width="2"/>
<rect x="19" y="24" width="2" height="2" transform="rotate(90 19 24)" fill="black"/>
<rect x="19" y="28" width="2" height="2" transform="rotate(90 19 28)" fill="black"/>
<rect x="19" y="20" width="2" height="2" transform="rotate(90 19 20)" fill="black"/>
<rect x="30" y="14" width="2" height="2" fill="#427A44"/>
<rect x="6" y="16" width="2" height="2" fill="#427A44"/>
<rect x="6" y="40" width="2" height="2" fill="#3E924F"/>
<rect x="36" y="6" width="2" height="2" fill="#427A44"/>
<rect x="6" y="8" width="2" height="2" fill="#427A44"/>
<rect x="12" y="4" width="2" height="2" fill="#427A44"/>
<rect x="26" y="7" width="38" height="8" transform="rotate(90 26 7)" fill="#273D25" stroke="black" stroke-width="2"/>
<path d="M19 11L12 11L12 7L19 7L20 7L20 6L20 -2L24 -2L24 6L24 7L25 7L32 7L32 11L25 11L24.4648 11L24.1679 11.4453L22.4648 14L21.5352 14L19.8321 11.4453L19.5352 11L19 11Z" fill="#273D25"/>
<path d="M19 11L12 11L12 7L19 7L20 7L20 6L20 -2L24 -2L24 6L24 7L25 7L32 7L32 11L25 11L24.4648 11L24.1679 11.4453L22.4648 14L21.5352 14L19.8321 11.4453L19.5352 11L19 11Z" fill="black" fill-opacity="0.2"/>
<path d="M19 11L12 11L12 7L19 7L20 7L20 6L20 -2L24 -2L24 6L24 7L25 7L32 7L32 11L25 11L24.4648 11L24.1679 11.4453L22.4648 14L21.5352 14L19.8321 11.4453L19.5352 11L19 11Z" fill="black" fill-opacity="0.2"/>
<path d="M19 11L12 11L12 7L19 7L20 7L20 6L20 -2L24 -2L24 6L24 7L25 7L32 7L32 11L25 11L24.4648 11L24.1679 11.4453L22.4648 14L21.5352 14L19.8321 11.4453L19.5352 11L19 11Z" stroke="black" stroke-width="2"/>
<rect x="1" y="1" width="42" height="42" stroke="black" stroke-opacity="0.4" stroke-width="2"/>
<path d="M40 23L40 36L45 36L45 23L40 23Z" fill="#B3B3B3" stroke="black" stroke-width="2"/>
<path d="M26 23L26 39C32.5 39 34 36.0285 40 36.0285L40 23.0285L26 23Z" fill="#B3B3B3" stroke="black" stroke-width="2"/>
<rect width="4" height="11" transform="matrix(4.37114e-08 1 1 -4.37114e-08 15 23)" fill="#B3B3B3" stroke="black" stroke-width="2"/>
<path d="M22 19L22 22L28 23L36 23L33 19L22 19Z" fill="#B3B3B3" stroke="black" stroke-width="2"/>
<rect width="4" height="13" transform="matrix(4.37114e-08 1 1 -4.37114e-08 13 27)" fill="#B3B3B3" stroke="black" stroke-width="2"/>
<rect width="4" height="11" transform="matrix(4.37114e-08 1 1 -4.37114e-08 15 31)" fill="#B3B3B3" stroke="black" stroke-width="2"/>
<rect width="4" height="8" transform="matrix(4.37114e-08 1 1 -4.37114e-08 18 35)" fill="#B3B3B3" stroke="black" stroke-width="2"/>
<rect width="2" height="2" transform="matrix(4.37114e-08 1 1 -4.37114e-08 27 28)" fill="black"/>
<rect width="2" height="2" transform="matrix(4.37114e-08 1 1 -4.37114e-08 27 32)" fill="black"/>
<rect opacity="0.3" width="2" height="2" transform="matrix(4.37114e-08 1 1 -4.37114e-08 21 36)" fill="black"/>
<rect opacity="0.3" width="2" height="2" transform="matrix(4.37114e-08 1 1 -4.37114e-08 19 32)" fill="black"/>
<rect opacity="0.3" width="2" height="2" transform="matrix(4.37114e-08 1 1 -4.37114e-08 19 28)" fill="black"/>
<rect opacity="0.3" width="2" height="2" transform="matrix(4.37114e-08 1 1 -4.37114e-08 20 24)" fill="black"/>
<rect opacity="0.3" width="2" height="3" transform="matrix(4.37114e-08 1 1 -4.37114e-08 41 33)" fill="black"/>
<rect width="2" height="2" transform="matrix(4.37114e-08 1 1 -4.37114e-08 27 24)" fill="black"/>
<rect x="12" y="34" width="2" height="2" fill="#3E924F"/>
<rect x="6" y="35" width="2" height="2" fill="#3E924F"/>
<rect x="33" y="10" width="2" height="2" fill="black"/>
<rect x="9" y="10" width="2" height="2" fill="black"/>
<rect x="36" y="16" width="2" height="2" fill="#427A44"/>
</g>
<defs>
<linearGradient id="paint0_linear_315_143769" x1="22" y1="0" x2="22" y2="44" gradientUnits="userSpaceOnUse">
<stop stop-color="#465C35"/>
<stop offset="1" stop-color="#3D9550"/>
</linearGradient>
<clipPath id="clip0_315_143769">
<rect width="44" height="44" fill="white"/>
</clipPath>
</defs>
</svg>
