<svg width="44" height="44" viewBox="0 0 44 44" fill="none" xmlns="http://www.w3.org/2000/svg">
<rect width="44" height="44" fill="#2F3138"/>
<path d="M5.4707 11H4.41602V4.2793C4.16211 4.52148 3.82812 4.76367 3.41406 5.00586C3.00391 5.24805 2.63477 5.42969 2.30664 5.55078V4.53125C2.89648 4.25391 3.41211 3.91797 3.85352 3.52344C4.29492 3.12891 4.60742 2.74609 4.79102 2.375H5.4707V11ZM8.17773 6.76367C8.17773 5.74805 8.28125 4.93164 8.48828 4.31445C8.69922 3.69336 9.00977 3.21484 9.41992 2.87891C9.83398 2.54297 10.3535 2.375 10.9785 2.375C11.4395 2.375 11.8438 2.46875 12.1914 2.65625C12.5391 2.83984 12.8262 3.10742 13.0527 3.45898C13.2793 3.80664 13.457 4.23242 13.5859 4.73633C13.7148 5.23633 13.7793 5.91211 13.7793 6.76367C13.7793 7.77148 13.6758 8.58594 13.4688 9.20703C13.2617 9.82422 12.9512 10.3027 12.5371 10.6426C12.127 10.9785 11.6074 11.1465 10.9785 11.1465C10.1504 11.1465 9.5 10.8496 9.02734 10.2559C8.46094 9.54102 8.17773 8.37695 8.17773 6.76367ZM9.26172 6.76367C9.26172 8.17383 9.42578 9.11328 9.75391 9.58203C10.0859 10.0469 10.4941 10.2793 10.9785 10.2793C11.4629 10.2793 11.8691 10.0449 12.1973 9.57617C12.5293 9.10742 12.6953 8.16992 12.6953 6.76367C12.6953 5.34961 12.5293 4.41016 12.1973 3.94531C11.8691 3.48047 11.459 3.24805 10.9668 3.24805C10.4824 3.24805 10.0957 3.45312 9.80664 3.86328C9.44336 4.38672 9.26172 5.35352 9.26172 6.76367Z" fill="white"/>
<path d="M18.1626 7.1416C19.7688 8.90785 19.4626 11.5379 17.2376 12.2466C14.1376 13.2316 11.6595 11.1872 9.34072 9.7266C9.94447 11.9779 11.4501 15.1629 14.2501 16.9754C12.5938 18.0504 10.417 18.4566 8.14697 18.7441C10.6901 20.0066 13.2688 21.1629 16.2563 21.3816C13.8313 23.6504 11.6163 25.2441 8.28447 26.1879C11.0145 27.0254 13.8938 27.2129 16.5813 26.4879C14.2063 29.2254 12.8938 32.0441 12.0782 34.9066C14.2626 33.8941 16.1126 32.1566 19.4251 32.4816C19.2876 34.0754 19.6688 35.5504 20.8813 36.8566C21.4313 34.8691 22.6938 33.0566 24.9876 31.4879C26.6626 33.6941 29.4563 35.0379 32.6188 36.1004C31.1938 34.0004 29.4313 31.9441 30.0063 29.5129C30.4001 27.8941 32.2251 26.4629 34.9938 26.7191C33.8501 25.1129 30.7563 23.4629 27.5938 22.3066C31.2876 21.3879 33.9313 19.0566 35.8501 16.7066C32.8938 16.9879 29.0376 18.1379 27.0063 16.0754C29.3188 13.7254 31.5313 10.9254 31.9063 8.13535C29.4001 9.81723 26.8751 11.3785 24.1001 10.9791C22.9751 9.53535 21.5376 8.08848 18.1626 7.1416ZM25.3126 11.7029L25.9063 14.7629L25.2376 14.8941C25.3626 15.9691 25.3001 17.4004 24.9626 18.7566C24.7688 19.5566 24.4688 20.3316 24.0188 20.9629C23.9126 21.1129 23.7876 21.2566 23.6626 21.3941C23.8313 21.4629 23.9938 21.5504 24.1501 21.6504C24.8063 22.0629 25.3688 22.6629 25.8501 23.3316C26.6751 24.4566 27.2688 25.7566 27.5626 26.7941L28.2251 26.6629L28.8313 29.7191L18.7251 31.7379L18.2376 29.2254L18.1313 28.6754L18.8001 28.5441C18.6751 27.4691 18.7376 26.0379 19.0751 24.6816C19.2688 23.8816 19.5688 23.1066 20.0188 22.4754C20.1251 22.3254 20.2438 22.1816 20.3688 22.0504C20.2001 21.9754 20.0438 21.8879 19.8876 21.7879C19.2313 21.3754 18.6688 20.7754 18.1813 20.1066C17.3626 18.9816 16.7688 17.6816 16.4751 16.6441L15.8063 16.7754L15.3188 14.2691L15.2063 13.7191L25.3126 11.7029ZM24.4251 13.0254L16.5313 14.6066L16.6938 15.4504L24.5938 13.8754L24.4251 13.0254ZM24.1188 15.1129L17.5938 16.4191C17.8626 17.2941 18.3876 18.4816 19.0938 19.4441C19.5188 20.0316 20.0063 20.5316 20.4876 20.8379C20.7813 21.0191 21.0626 21.1379 21.3438 21.1816L21.6001 22.4754C21.3501 22.6254 21.1376 22.8379 20.9376 23.1254C20.6001 23.5941 20.3376 24.2441 20.1626 24.9504C19.8751 26.1129 19.8376 27.4129 19.9188 28.3254L26.4438 27.0191C26.1751 26.1441 25.6501 24.9566 24.9438 23.9941C24.5188 23.4066 24.0313 22.9066 23.5501 22.6004C23.2563 22.4129 22.9751 22.3004 22.6938 22.2566L22.4376 20.9629C22.6876 20.8129 22.9001 20.6004 23.1001 20.3129C23.4376 19.8441 23.6938 19.1941 23.8751 18.4879C24.1626 17.3254 24.1938 16.0254 24.1188 15.1129ZM27.3438 27.9879L19.4438 29.5629L19.6126 30.4129L27.5063 28.8316L27.3438 27.9879Z" fill="#769520"/>
</svg>
