<svg width="44" height="44" viewBox="0 0 44 44" fill="none" xmlns="http://www.w3.org/2000/svg">
<rect width="44" height="44" fill="#2F3138"/>
<path d="M6.4707 11H5.41602V4.2793C5.16211 4.52148 4.82812 4.76367 4.41406 5.00586C4.00391 5.24805 3.63477 5.42969 3.30664 5.55078V4.53125C3.89648 4.25391 4.41211 3.91797 4.85352 3.52344C5.29492 3.12891 5.60742 2.74609 5.79102 2.375H6.4707V11ZM12.2598 11H11.2051V4.2793C10.9512 4.52148 10.6172 4.76367 10.2031 5.00586C9.79297 5.24805 9.42383 5.42969 9.0957 5.55078V4.53125C9.68555 4.25391 10.2012 3.91797 10.6426 3.52344C11.084 3.12891 11.3965 2.74609 11.5801 2.375H12.2598V11Z" fill="white"/>
<path d="M12.3188 7.55469L14.4688 15.8122L19.975 16.1122L19.7875 15.0372L19.6688 14.3372L27.375 14.7997L27.6813 16.5372L32.425 16.7997L30.3938 9.01094L12.3188 7.55469ZM11.1425 7.65469C9.23626 8.39844 7.66126 10.9734 8.03001 12.3622L8.23626 13.0997C8.27376 12.9872 8.31751 12.8809 8.36751 12.7684C8.98626 11.2859 10.0238 9.84219 11.5113 9.08594L11.1425 7.65469ZM11.8175 10.2547C10.7738 10.8797 9.94876 12.0109 9.44251 13.2184C9.11751 13.9997 8.94251 14.8184 8.89876 15.4997L9.99001 19.4684C10.79 18.1434 11.8769 16.8247 13.3625 16.1934L11.8175 10.2547ZM21.0188 15.5497L22.2813 22.8872L27.7188 23.1559L26.425 15.8747L21.0188 15.5497ZM23.9438 16.8747C23.9933 16.8725 24.0434 16.8725 24.0938 16.8747C24.2939 16.8832 24.4968 16.9263 24.6906 17.0014C24.8845 17.0764 25.0657 17.182 25.2236 17.3121C25.3816 17.4422 25.5133 17.5942 25.6111 17.7594C25.7089 17.9246 25.771 18.0997 25.7938 18.2747C25.8293 18.5455 25.7694 18.8056 25.622 19.0201C25.4745 19.2345 25.2466 19.3932 24.9688 19.4747L26.2688 21.8184L23.225 21.6809L23.9063 19.4247C23.6033 19.3175 23.3302 19.1368 23.1235 18.9067C22.9169 18.6766 22.7866 18.4081 22.75 18.1372C22.706 17.8074 22.8037 17.4955 23.0244 17.2621C23.245 17.0288 23.5727 16.8907 23.9438 16.8747ZM14.7688 16.9559L15.7063 20.5559L20.7813 20.7684L20.1688 17.2559L14.7688 16.9559ZM13.65 17.3059C12.2875 17.9684 11.18 19.5747 10.4169 21.0184L11.1956 23.8497C11.8375 22.8684 12.6938 21.7997 14.5438 20.7309L13.65 17.3059ZM27.8875 17.6747L28.4938 21.0934L33.6 21.3122L32.7188 17.9434L27.8875 17.6747ZM16 21.6934L17.95 29.1684L36.025 30.6184L33.9 22.4559L28.6938 22.2372L29.0688 24.3559L21.3313 23.9622L20.975 21.9059L16 21.6934ZM14.8375 21.8622C12.8375 23.0747 12.3563 24.1059 11.6006 25.3247L12.9438 30.2059C12.9625 30.1747 12.9813 30.1372 13 30.1059C13.6625 28.8997 14.7375 27.7497 16.1938 27.0747L14.8375 21.8622ZM16.5 28.2309C15.3938 28.7997 14.55 29.7122 14.025 30.6684C13.7438 31.1747 13.5688 31.6872 13.4813 32.1497L14.2125 34.7997L14.3125 34.8122C14.075 33.0872 15.025 31.0309 16.8938 29.7434L16.5 28.2309ZM18.1438 30.3559C16.1063 31.4372 15.2375 33.6309 15.5313 34.9122L33.6438 36.4434C33.3125 35.9559 33.1 35.3247 33.1063 34.6622L31.7063 34.0997L34.6 33.6434L33.7563 32.8434C34.1063 32.4059 34.6125 32.0247 35.3125 31.7372L18.1438 30.3559Z" fill="#9938A9"/>
</svg>
