<svg width="44" height="44" viewBox="0 0 44 44" fill="none" xmlns="http://www.w3.org/2000/svg">
<g clip-path="url(#clip0_315_143922)">
<rect width="44" height="44" fill="url(#paint0_linear_315_143922)"/>
<path d="M18 44V36H12V44" stroke="black" stroke-width="2"/>
<path opacity="0.5" d="M24 29H39V44" stroke="black" stroke-width="2"/>
<path opacity="0.5" d="M9 36H12V44" stroke="black" stroke-width="2"/>
<path d="M18 36H12V24H7" stroke="black" stroke-width="2"/>
<path opacity="0.5" d="M5 8.3871L8 5L11 8.3871V20H5V8.3871Z" stroke="black" stroke-width="2"/>
<rect x="1" y="1" width="42" height="42" stroke="black" stroke-opacity="0.4" stroke-width="2"/>
<path d="M15 19L20 17L23 14H26L27 17L24 20V25L28 26V29H22V31L28 33V45H24L23 36H13L15 19Z" fill="#414141" stroke="black" stroke-width="2"/>
<path d="M32 44V29H47V44" stroke="black" stroke-width="2"/>
<rect x="29" y="26" width="6" height="2" fill="#D9D9D9"/>
<rect x="38" y="28" width="7" height="2" transform="rotate(-90 38 28)" fill="#D9D9D9"/>
<rect x="40" y="28" width="6" height="2" transform="rotate(-90 40 28)" fill="black"/>
<rect x="38" y="44" width="14" height="2" transform="rotate(-90 38 44)" fill="url(#paint1_linear_315_143922)"/>
<rect x="7" y="44" width="19" height="2" transform="rotate(-90 7 44)" fill="url(#paint2_linear_315_143922)"/>
<rect x="36" y="28" width="5" height="2" transform="rotate(-90 36 28)" fill="#274C2A"/>
<rect x="34" y="16" width="10" height="2" transform="rotate(90 34 16)" fill="url(#paint3_linear_315_143922)"/>
<rect width="8" height="2" transform="matrix(-6.55671e-08 -1 -1 2.91409e-08 16 8)" fill="url(#paint4_linear_315_143922)"/>
<rect width="8" height="2" transform="matrix(-6.55671e-08 -1 -1 2.91409e-08 24 8)" fill="url(#paint5_linear_315_143922)"/>
<rect width="8" height="2" transform="matrix(-6.55671e-08 -1 -1 2.91409e-08 32 8)" fill="url(#paint6_linear_315_143922)"/>
<rect width="8" height="2" transform="matrix(-6.55671e-08 -1 -1 2.91409e-08 40 8)" fill="url(#paint7_linear_315_143922)"/>
<rect x="32" y="14" width="2" height="2" fill="#EF952B"/>
<rect opacity="0.3" x="34" y="12" width="2" height="2" fill="#EF952B"/>
<rect opacity="0.3" x="32" y="10" width="2" height="2" fill="#EF952B"/>
<rect opacity="0.3" x="30" y="16" width="2" height="2" fill="#EF952B"/>
<rect opacity="0.3" x="36" y="18" width="2" height="2" fill="#EF952B"/>
<rect opacity="0.3" x="34" y="16" width="2" height="2" fill="#D9D9D9"/>
<rect opacity="0.3" x="30" y="12" width="2" height="2" fill="#D9D9D9"/>
<rect opacity="0.3" x="28" y="14" width="2" height="2" fill="#D9D9D9"/>
<rect opacity="0.3" x="26" y="10" width="2" height="2" fill="#D9D9D9"/>
<rect opacity="0.3" x="28" y="18" width="2" height="2" fill="#D9D9D9"/>
</g>
<defs>
<linearGradient id="paint0_linear_315_143922" x1="22" y1="0" x2="22" y2="44" gradientUnits="userSpaceOnUse">
<stop stop-color="#465C35"/>
<stop offset="1" stop-color="#3D9550"/>
</linearGradient>
<linearGradient id="paint1_linear_315_143922" x1="52" y1="45" x2="38" y2="45" gradientUnits="userSpaceOnUse">
<stop/>
<stop offset="1" stop-opacity="0"/>
</linearGradient>
<linearGradient id="paint2_linear_315_143922" x1="26" y1="45" x2="7" y2="45" gradientUnits="userSpaceOnUse">
<stop/>
<stop offset="1" stop-opacity="0"/>
</linearGradient>
<linearGradient id="paint3_linear_315_143922" x1="44" y1="17" x2="34" y2="17" gradientUnits="userSpaceOnUse">
<stop/>
<stop offset="1" stop-opacity="0"/>
</linearGradient>
<linearGradient id="paint4_linear_315_143922" x1="8" y1="1" x2="-7.8888e-08" y2="1" gradientUnits="userSpaceOnUse">
<stop/>
<stop offset="1" stop-opacity="0"/>
</linearGradient>
<linearGradient id="paint5_linear_315_143922" x1="8" y1="1" x2="-7.8888e-08" y2="1" gradientUnits="userSpaceOnUse">
<stop/>
<stop offset="1" stop-opacity="0"/>
</linearGradient>
<linearGradient id="paint6_linear_315_143922" x1="8" y1="1" x2="-7.8888e-08" y2="1" gradientUnits="userSpaceOnUse">
<stop/>
<stop offset="1" stop-opacity="0"/>
</linearGradient>
<linearGradient id="paint7_linear_315_143922" x1="8" y1="1" x2="-7.8888e-08" y2="1" gradientUnits="userSpaceOnUse">
<stop/>
<stop offset="1" stop-opacity="0"/>
</linearGradient>
<clipPath id="clip0_315_143922">
<rect width="44" height="44" fill="white"/>
</clipPath>
</defs>
</svg>
