<svg width="44" height="44" viewBox="0 0 44 44" fill="none" xmlns="http://www.w3.org/2000/svg">
<rect width="44" height="44" fill="#2F3138"/>
<path d="M5.4707 11H4.41602V4.2793C4.16211 4.52148 3.82812 4.76367 3.41406 5.00586C3.00391 5.24805 2.63477 5.42969 2.30664 5.55078V4.53125C2.89648 4.25391 3.41211 3.91797 3.85352 3.52344C4.29492 3.12891 4.60742 2.74609 4.79102 2.375H5.4707V11ZM11.5586 11V8.94336H7.83203V7.97656L11.752 2.41016H12.6133V7.97656H13.7734V8.94336H12.6133V11H11.5586ZM11.5586 7.97656V4.10352L8.86914 7.97656H11.5586Z" fill="white"/>
<path d="M14.9752 7.58887C14.4502 7.59387 13.8377 7.61012 13.3377 7.71074C13.0315 7.77199 12.7815 7.86699 12.6627 7.95199C12.5877 8.00199 12.5627 8.02824 12.5502 8.05637L14.0252 11.7557C14.0252 11.7532 14.0315 11.7501 14.0315 11.7476C14.3502 11.2901 14.7565 10.9095 15.319 10.9095H16.6315L14.9752 7.58887ZM29.0252 7.58887L27.369 10.9095H28.6815C29.2502 10.9095 29.6502 11.2982 29.969 11.7626L31.4502 8.05637C31.4377 8.02824 31.4127 8.00199 31.3377 7.95199C31.219 7.86699 30.969 7.77199 30.6627 7.71074C30.1627 7.61012 29.5502 7.59512 29.0252 7.58887ZM22.0002 8.40449C20.0502 8.40449 18.094 9.42699 18.094 11.472H19.219C19.219 8.88324 24.7815 8.88324 24.7815 11.472H25.9065C25.9065 9.42699 23.9502 8.40449 22.0002 8.40449ZM15.319 12.0345C15.319 12.0345 15.1752 12.0726 14.9565 12.3939C14.7315 12.7064 14.4752 13.2376 14.2315 13.9251C13.744 15.3001 13.2752 17.3064 12.8752 19.6564C12.0883 24.3251 11.5708 30.3876 11.564 35.8876C11.6477 35.9439 11.8427 36.0376 12.1127 36.1189C12.6565 36.2876 13.494 36.4439 14.5065 36.5689C16.5315 36.8126 19.269 36.9376 22.0002 36.9376C24.7315 36.9376 27.469 36.8126 29.494 36.5689C30.5065 36.4439 31.344 36.2876 31.8877 36.1189C32.1565 36.0376 32.3502 35.9439 32.4377 35.8876C32.4315 30.5689 31.9127 24.5126 31.1252 19.7939C30.7252 17.4189 30.2565 15.3814 29.769 13.9751C29.519 13.2751 29.269 12.7314 29.044 12.4001C28.819 12.0732 28.669 12.0345 28.6815 12.0345H15.319ZM22.0002 13.4376C23.444 13.4376 24.8877 13.6939 26.0752 14.2376C27.269 14.7814 28.244 15.6501 28.544 16.8626L28.5502 16.8689L30.5065 25.3876H13.494L15.4502 16.8689L15.4565 16.8626C15.7565 15.6501 16.7315 14.7814 17.9252 14.2376C19.1127 13.6939 20.5565 13.4376 22.0002 13.4376ZM22.0002 14.5626C20.694 14.5626 19.3877 14.8064 18.3877 15.2626C17.394 15.7189 16.744 16.3501 16.544 17.1314L14.9065 24.2626H29.094L27.4565 17.1314C27.2565 16.3501 26.6065 15.7189 25.6127 15.2626C24.6127 14.8064 23.3065 14.5626 22.0002 14.5626ZM18.0002 17.4376H26.0002V18.5626H20.5627V20.2251H19.4377V18.5626H18.0002V17.4376ZM13.6377 27.0501H14.7627C14.7627 29.2314 15.0502 30.8314 15.5377 31.8126C16.0315 32.7876 16.619 33.1689 17.544 33.1689H26.4565C27.3815 33.1689 27.969 32.7876 28.4627 31.8126C28.9502 30.8314 29.2377 29.2314 29.2377 27.0501H30.3627C30.3627 29.3251 30.0877 31.0689 29.4627 32.3126C28.8377 33.5626 27.7565 34.2939 26.4565 34.2939H17.544C16.244 34.2939 15.1627 33.5626 14.5377 32.3126C13.9127 31.0689 13.6377 29.3251 13.6377 27.0501Z" fill="#769520"/>
<path d="M10.7344 25.3281L12.1875 25.5078C11.9583 26.3568 11.5339 27.0156 10.9141 27.4844C10.2943 27.9531 9.5026 28.1875 8.53906 28.1875C7.32552 28.1875 6.36198 27.8151 5.64844 27.0703C4.9401 26.3203 4.58594 25.2708 4.58594 23.9219C4.58594 22.526 4.94531 21.4427 5.66406 20.6719C6.38281 19.901 7.3151 19.5156 8.46094 19.5156C9.57031 19.5156 10.4766 19.8932 11.1797 20.6484C11.8828 21.4036 12.2344 22.4661 12.2344 23.8359C12.2344 23.9193 12.2318 24.0443 12.2266 24.2109H6.03906C6.09115 25.1224 6.34896 25.8203 6.8125 26.3047C7.27604 26.7891 7.85417 27.0312 8.54688 27.0312C9.0625 27.0312 9.5026 26.8958 9.86719 26.625C10.2318 26.3542 10.5208 25.9219 10.7344 25.3281ZM6.11719 23.0547H10.75C10.6875 22.3568 10.5104 21.8333 10.2188 21.4844C9.77083 20.9427 9.1901 20.6719 8.47656 20.6719C7.83073 20.6719 7.28646 20.888 6.84375 21.3203C6.40625 21.7526 6.16406 22.3307 6.11719 23.0547ZM13.0234 28L16.0547 23.6875L13.25 19.7031H15.0078L16.2812 21.6484C16.5208 22.0182 16.7135 22.3281 16.8594 22.5781C17.0885 22.2344 17.2995 21.9297 17.4922 21.6641L18.8906 19.7031H20.5703L17.7031 23.6094L20.7891 28H19.0625L17.3594 25.4219L16.9062 24.7266L14.7266 28H13.0234ZM21.9609 31.1797V19.7031H23.2422V20.7812C23.5443 20.3594 23.8854 20.0443 24.2656 19.8359C24.6458 19.6224 25.1068 19.5156 25.6484 19.5156C26.3568 19.5156 26.9818 19.6979 27.5234 20.0625C28.0651 20.4271 28.474 20.9427 28.75 21.6094C29.026 22.2708 29.1641 22.9974 29.1641 23.7891C29.1641 24.638 29.0104 25.4036 28.7031 26.0859C28.401 26.763 27.9583 27.2839 27.375 27.6484C26.7969 28.0078 26.1875 28.1875 25.5469 28.1875C25.0781 28.1875 24.6562 28.0885 24.2812 27.8906C23.9115 27.6927 23.6068 27.4427 23.3672 27.1406V31.1797H21.9609ZM23.2344 23.8984C23.2344 24.9661 23.4505 25.7552 23.8828 26.2656C24.3151 26.776 24.8385 27.0312 25.4531 27.0312C26.0781 27.0312 26.612 26.7682 27.0547 26.2422C27.5026 25.7109 27.7266 24.8906 27.7266 23.7812C27.7266 22.724 27.5078 21.9323 27.0703 21.4062C26.638 20.8802 26.1198 20.6172 25.5156 20.6172C24.9167 20.6172 24.3854 20.8984 23.9219 21.4609C23.4635 22.0182 23.2344 22.8307 23.2344 23.8984ZM33.8203 26.1484V23.0078H30.7031V21.6953H33.8203V18.5781H35.1484V21.6953H38.2656V23.0078H35.1484V26.1484H33.8203Z" fill="white"/>
</svg>
