<svg width="44" height="44" viewBox="0 0 44 44" fill="none" xmlns="http://www.w3.org/2000/svg">
<rect width="44" height="44" fill="#2F3138"/>
<path d="M5.4707 11H4.41602V4.2793C4.16211 4.52148 3.82812 4.76367 3.41406 5.00586C3.00391 5.24805 2.63477 5.42969 2.30664 5.55078V4.53125C2.89648 4.25391 3.41211 3.91797 3.85352 3.52344C4.29492 3.12891 4.60742 2.74609 4.79102 2.375H5.4707V11ZM8.17773 8.75L9.28516 8.65625C9.36719 9.19531 9.55664 9.60156 9.85352 9.875C10.1543 10.1445 10.5156 10.2793 10.9375 10.2793C11.4453 10.2793 11.875 10.0879 12.2266 9.70508C12.5781 9.32227 12.7539 8.81445 12.7539 8.18164C12.7539 7.58008 12.584 7.10547 12.2441 6.75781C11.9082 6.41016 11.4668 6.23633 10.9199 6.23633C10.5801 6.23633 10.2734 6.31445 10 6.4707C9.72656 6.62305 9.51172 6.82227 9.35547 7.06836L8.36523 6.93945L9.19727 2.52734H13.4688V3.53516H10.041L9.57812 5.84375C10.0938 5.48438 10.6348 5.30469 11.2012 5.30469C11.9512 5.30469 12.584 5.56445 13.0996 6.08398C13.6152 6.60352 13.873 7.27148 13.873 8.08789C13.873 8.86523 13.6465 9.53711 13.1934 10.1035C12.6426 10.7988 11.8906 11.1465 10.9375 11.1465C10.1562 11.1465 9.51758 10.9277 9.02148 10.4902C8.5293 10.0527 8.24805 9.47266 8.17773 8.75Z" fill="white"/>
<path d="M18.6935 7.0498L17.6998 16.9879C17.6248 17.6692 17.856 17.9692 18.3123 18.2317C18.7685 18.4879 19.4998 18.5942 20.2248 18.5192C20.9498 18.4379 21.6623 18.1754 22.0685 17.8504C22.4748 17.5192 22.5998 17.2754 22.431 16.8317L18.6935 7.0498ZM26.5748 10.2842C30.2498 13.6317 32.3998 17.8942 33.181 21.6629C33.5998 23.6817 33.631 25.5567 33.2623 27.1067C32.8998 28.6504 32.1123 29.9004 30.8685 30.4817C30.131 30.8192 28.9248 30.9442 27.231 31.0254C25.5373 31.1004 23.4185 31.0754 21.1623 30.9192C17.0248 30.6317 12.4248 29.9067 9.10604 28.4567C9.17604 28.9879 9.28042 29.5254 9.42042 30.0754C9.50604 30.4067 9.86104 30.8254 10.5448 31.2254C11.2285 31.6254 12.2029 32.0004 13.356 32.3192C15.6685 32.9504 18.7123 33.3692 21.7498 33.5379C24.7935 33.7067 27.8435 33.6254 30.1748 33.3067C31.3435 33.1442 32.331 32.9192 33.0248 32.6504C33.7185 32.3817 34.056 32.0567 34.1123 31.9004C36.6185 25.0067 35.681 19.5254 33.6935 15.7942C32.6935 13.9254 31.431 12.4942 30.206 11.5561C28.9935 10.7686 27.9498 10.1317 26.5748 10.2842ZM25.1373 10.5261C24.0623 10.7604 22.8748 11.1317 21.6498 11.6317L23.481 16.4317C23.8123 17.3192 23.4185 18.2067 22.7685 18.7254C22.1248 19.2442 21.2435 19.5379 20.3435 19.6379C19.4435 19.7317 18.5123 19.6379 17.756 19.2067C16.9998 18.7817 16.4685 17.9254 16.5748 16.8754L16.8435 14.1879C16.0623 14.7192 15.306 15.2942 14.5873 15.9129C13.781 16.6067 13.031 17.3629 12.356 18.1629L16.781 22.5067C17.2935 23.0504 16.6998 24.6379 16.3873 25.0879C15.9248 25.7192 15.2623 26.2129 14.5185 26.4942C13.781 26.7754 12.9435 26.8504 12.1717 26.5817C11.3917 26.3192 10.696 25.7004 10.2848 24.7504L10.2717 24.7192L9.68729 22.7379C9.20104 24.1192 8.94917 25.6004 8.99979 27.1817C12.0904 28.6817 16.931 29.5004 21.2435 29.8067C23.456 29.9567 25.5373 29.9817 27.181 29.9067C28.8248 29.8317 30.0935 29.6067 30.3935 29.4629C31.2373 29.0754 31.856 28.1817 32.1685 26.8504C32.481 25.5192 32.4685 23.7879 32.081 21.9004C31.6373 19.7567 30.6998 17.4129 29.2623 15.1879L28.2373 26.4942L28.231 26.5192C28.1498 26.9692 27.906 27.3629 27.581 27.6192C27.256 27.8817 26.8623 28.0129 26.456 28.0692C25.6435 28.1817 24.7498 27.9942 23.9185 27.6442C23.0873 27.2942 22.3185 26.7754 21.8185 26.1004C21.3185 25.4254 21.1373 24.4817 21.6373 23.6692L21.6623 23.6254L29.156 15.0379C28.0935 13.4254 26.756 11.8773 25.1373 10.5261ZM9.00979 16.4504L11.3279 24.3192C11.6323 25.0129 12.0529 25.3567 12.5248 25.5192C13.0123 25.6817 13.581 25.6442 14.1185 25.4379C14.6623 25.2379 15.156 24.8629 15.4748 24.4254C15.756 24.0317 15.8873 23.6067 15.8435 23.1629L9.00979 16.4504ZM27.8498 18.2379L22.5873 24.2817C22.3435 24.6942 22.4123 25.0067 22.7248 25.4317C23.0435 25.8692 23.6685 26.3192 24.356 26.6067C25.0373 26.8942 25.7873 27.0254 26.306 26.9567C26.5623 26.9192 26.756 26.8379 26.881 26.7379C27.006 26.6442 27.081 26.5254 27.1248 26.3192L27.8498 18.2379ZM9.14854 31.6129C8.83854 31.6692 8.67167 31.7942 8.55479 31.9504C8.41917 32.1379 8.34917 32.4192 8.38042 32.7504C8.44354 33.4192 8.93479 34.2067 9.64604 34.4942C17.6435 37.7317 27.0998 37.1567 34.4935 36.2129C35.3373 36.1129 35.8685 32.7379 34.431 33.1692C34.131 33.4004 33.8498 33.5442 33.431 33.7067C32.606 34.0254 31.5498 34.2567 30.331 34.4254C27.8935 34.7629 24.7935 34.8379 21.6935 34.6629C18.5873 34.4942 15.4935 34.0754 13.056 33.4067C11.8442 33.0754 10.7929 32.6817 9.97417 32.2004C9.66792 32.0192 9.38854 31.8254 9.14854 31.6129Z" fill="#0073DC"/>
</svg>
