<svg width="44" height="44" viewBox="0 0 44 44" fill="none" xmlns="http://www.w3.org/2000/svg">
<rect width="44" height="44" fill="#2F3138"/>
<path d="M5.4707 11H4.41602V4.2793C4.16211 4.52148 3.82812 4.76367 3.41406 5.00586C3.00391 5.24805 2.63477 5.42969 2.30664 5.55078V4.53125C2.89648 4.25391 3.41211 3.91797 3.85352 3.52344C4.29492 3.12891 4.60742 2.74609 4.79102 2.375H5.4707V11ZM13.6504 4.51367L12.6016 4.5957C12.5078 4.18164 12.375 3.88086 12.2031 3.69336C11.918 3.39258 11.5664 3.24219 11.1484 3.24219C10.8125 3.24219 10.5176 3.33594 10.2637 3.52344C9.93164 3.76562 9.66992 4.11914 9.47852 4.58398C9.28711 5.04883 9.1875 5.71094 9.17969 6.57031C9.43359 6.18359 9.74414 5.89648 10.1113 5.70898C10.4785 5.52148 10.8633 5.42773 11.2656 5.42773C11.9688 5.42773 12.5664 5.6875 13.0586 6.20703C13.5547 6.72266 13.8027 7.39062 13.8027 8.21094C13.8027 8.75 13.6855 9.25195 13.4512 9.7168C13.2207 10.1777 12.9023 10.5312 12.4961 10.7773C12.0898 11.0234 11.6289 11.1465 11.1133 11.1465C10.2344 11.1465 9.51758 10.8242 8.96289 10.1797C8.4082 9.53125 8.13086 8.46484 8.13086 6.98047C8.13086 5.32031 8.4375 4.11328 9.05078 3.35938C9.58594 2.70312 10.3066 2.375 11.2129 2.375C11.8887 2.375 12.4414 2.56445 12.8711 2.94336C13.3047 3.32227 13.5645 3.8457 13.6504 4.51367ZM9.34375 8.2168C9.34375 8.58008 9.41992 8.92773 9.57227 9.25977C9.72852 9.5918 9.94531 9.8457 10.2227 10.0215C10.5 10.1934 10.791 10.2793 11.0957 10.2793C11.541 10.2793 11.9238 10.0996 12.2441 9.74023C12.5645 9.38086 12.7246 8.89258 12.7246 8.27539C12.7246 7.68164 12.5664 7.21484 12.25 6.875C11.9336 6.53125 11.5352 6.35938 11.0547 6.35938C10.5781 6.35938 10.1738 6.53125 9.8418 6.875C9.50977 7.21484 9.34375 7.66211 9.34375 8.2168Z" fill="white"/>
<g clip-path="url(#clip0_389_30002)">
<path d="M21.6813 7.18164C20.1875 7.36852 18.85 9.09727 18.85 11.3685C18.85 12.6129 19.275 13.7066 19.9 14.4691L20.6625 15.3754L19.4938 15.5941C18.6813 15.7504 18.0813 16.1879 17.575 16.8941C17.0438 17.6129 16.65 18.5754 16.3813 19.7191C15.8813 21.7629 15.7625 24.2629 15.7625 26.4816H18.4875L19.2188 36.5129C21.1188 36.9504 23.1625 36.9191 24.9875 36.5129L25.6563 26.4816H28.25C28.25 24.2504 28.2188 21.7066 27.7625 19.6254C27.5188 18.5066 27.1375 17.5191 26.625 16.8066C26.1125 16.1129 25.4688 15.6941 24.5438 15.5504L23.3625 15.3629L24.1063 14.4316C24.725 13.6754 25.1313 12.5816 25.1313 11.3685C25.1313 8.95977 23.6313 7.18164 21.9875 7.18164H21.6813ZM30.7438 7.40602V10.0216H28.1313V13.1566H30.7438V15.7566H33.8625V13.1566H36.4813V10.0216H33.8625V7.40602H30.7438ZM9.30754 9.93102V11.8423H7.39941V14.1316H9.30754V16.0316H11.5825V14.1316H13.4938V11.8423H11.5825V9.93102H9.30754ZM11.7894 18.4816V19.8441H10.4219V21.4879H11.7894V22.8566H13.4313V21.4879H14.7938V19.8441H13.4313V18.4816H11.7894ZM33.9813 22.3816V23.7441H32.6125V25.3879H33.9813V26.7566H35.625V25.3879H36.9875V23.7441H35.625V22.3816H33.9813ZM14.7625 28.5941V29.5316H13.825V30.6566H14.7625V31.5941H15.8938V30.6566H16.8313V29.5316H15.8938V28.5941H14.7625ZM29.1375 31.4566V32.3941H28.2V33.5191H29.1375V34.4566H30.2625V33.5191H31.2V32.3941H30.2625V31.4566H29.1375ZM9.08254 32.9879V33.9254H8.14504V35.0504H9.08254V35.9879H10.2082V35.0504H11.1457V33.9254H10.2082V32.9879H9.08254Z" fill="#769520"/>
</g>
<defs>
<clipPath id="clip0_389_30002">
<rect width="32" height="32" fill="white" transform="translate(6 6)"/>
</clipPath>
</defs>
</svg>
