<svg width="44" height="44" viewBox="0 0 44 44" fill="none" xmlns="http://www.w3.org/2000/svg">
<rect width="44" height="44" fill="#2F3138"/>
<path d="M5.4707 11H4.41602V4.2793C4.16211 4.52148 3.82812 4.76367 3.41406 5.00586C3.00391 5.24805 2.63477 5.42969 2.30664 5.55078V4.53125C2.89648 4.25391 3.41211 3.91797 3.85352 3.52344C4.29492 3.12891 4.60742 2.74609 4.79102 2.375H5.4707V11ZM8.24805 3.53516V2.52148H13.8086V3.3418C13.2617 3.92383 12.7188 4.69727 12.1797 5.66211C11.6445 6.62695 11.2305 7.61914 10.9375 8.63867C10.7266 9.35742 10.5918 10.1445 10.5332 11H9.44922C9.46094 10.3242 9.59375 9.50781 9.84766 8.55078C10.1016 7.59375 10.4648 6.67188 10.9375 5.78516C11.4141 4.89453 11.9199 4.14453 12.4551 3.53516H8.24805Z" fill="white"/>
<path d="M36.4791 7.52051C34.9404 8.21963 33.6325 8.68351 32.5329 8.88926L35.1104 11.4668C35.3161 10.3671 35.78 9.05926 36.4791 7.52051ZM31.099 9.04638C29.0935 9.76451 27.3468 9.84263 25.8236 9.33495L25.219 9.13357L25.0941 9.75832C24.4618 12.9197 23.9137 14.9633 22.7997 17.3642L26.6354 21.1998C29.0362 20.0859 31.0799 19.5378 34.2413 18.9054L34.8661 18.7806L34.6647 18.1759C34.157 16.6528 34.2352 14.9061 34.9533 12.9006L31.099 9.04638ZM31.2256 10.1806C30.3601 10.9109 29.3601 11.4275 27.7668 11.4275H27.4193L27.2639 11.7384C26.0909 14.0844 24.8992 16.4201 23.7955 17.8803C24.8861 15.5309 25.4752 13.4399 26.0705 10.5623C27.6458 10.941 29.3713 10.8023 31.2255 10.1806H31.2256ZM31.7194 11.1979L24.9781 18.1844C26.0634 16.6623 27.0865 14.6092 28.1204 12.5394C29.6768 12.4649 30.8004 11.9066 31.7195 11.1979H31.7194ZM32.8017 12.2801C32.0929 13.1993 31.5347 14.3228 31.4601 15.8793C29.3904 16.9131 27.3372 17.9363 25.8151 19.0215L32.8017 12.2801ZM33.8189 12.7741C33.1974 14.6283 33.0586 16.3538 33.4373 17.9291C30.5597 18.5244 28.4686 19.1134 26.1193 20.2041C27.5795 19.1004 29.9152 17.9088 32.2612 16.7358L32.5721 16.5803V16.2328C32.5721 14.6395 33.0886 13.6395 33.8189 12.7741ZM21.8007 17.9563L21.0052 18.7518L25.2479 22.9944L26.0434 22.1989L25.564 21.7196L22.2801 18.4356L21.8007 17.9563ZM21.403 20.5636L18.6628 23.3038L20.6958 25.3368L23.4359 22.5966L21.403 20.5636ZM17.1602 23.3921L16.3647 24.1876L19.8119 27.6348L20.6075 26.8393L17.1602 23.3921ZM16.2764 25.6903L13.7131 28.2534L15.7461 30.2864L18.3092 27.7231L16.2764 25.6903ZM12.2106 28.3418L11.4152 29.1373L14.8623 32.5844L15.6578 31.7889L12.2106 28.3418ZM11.3269 30.6399L7.125 34.8416V36.8746H9.15794L13.3598 32.6728L11.3269 30.6399Z" fill="#0073DC"/>
</svg>
