<svg width="44" height="44" viewBox="0 0 44 44" fill="none" xmlns="http://www.w3.org/2000/svg">
<rect width="44" height="44" fill="#2F3138"/>
<path d="M5.4707 11H4.41602V4.2793C4.16211 4.52148 3.82812 4.76367 3.41406 5.00586C3.00391 5.24805 2.63477 5.42969 2.30664 5.55078V4.53125C2.89648 4.25391 3.41211 3.91797 3.85352 3.52344C4.29492 3.12891 4.60742 2.74609 4.79102 2.375H5.4707V11ZM9.80078 6.3418C9.36328 6.18164 9.03906 5.95312 8.82812 5.65625C8.61719 5.35938 8.51172 5.00391 8.51172 4.58984C8.51172 3.96484 8.73633 3.43945 9.18555 3.01367C9.63477 2.58789 10.2324 2.375 10.9785 2.375C11.7285 2.375 12.332 2.59375 12.7891 3.03125C13.2461 3.46484 13.4746 3.99414 13.4746 4.61914C13.4746 5.01758 13.3691 5.36523 13.1582 5.66211C12.9512 5.95508 12.6348 6.18164 12.209 6.3418C12.7363 6.51367 13.1367 6.79102 13.4102 7.17383C13.6875 7.55664 13.8262 8.01367 13.8262 8.54492C13.8262 9.2793 13.5664 9.89648 13.0469 10.3965C12.5273 10.8965 11.8438 11.1465 10.9961 11.1465C10.1484 11.1465 9.46484 10.8965 8.94531 10.3965C8.42578 9.89258 8.16602 9.26562 8.16602 8.51562C8.16602 7.95703 8.30664 7.49023 8.58789 7.11523C8.87305 6.73633 9.27734 6.47852 9.80078 6.3418ZM9.58984 4.55469C9.58984 4.96094 9.7207 5.29297 9.98242 5.55078C10.2441 5.80859 10.584 5.9375 11.002 5.9375C11.4082 5.9375 11.7402 5.81055 11.998 5.55664C12.2598 5.29883 12.3906 4.98438 12.3906 4.61328C12.3906 4.22656 12.2559 3.90234 11.9863 3.64062C11.7207 3.375 11.3887 3.24219 10.9902 3.24219C10.5879 3.24219 10.2539 3.37109 9.98828 3.62891C9.72266 3.88672 9.58984 4.19531 9.58984 4.55469ZM9.25 8.52148C9.25 8.82227 9.32031 9.11328 9.46094 9.39453C9.60547 9.67578 9.81836 9.89453 10.0996 10.0508C10.3809 10.2031 10.6836 10.2793 11.0078 10.2793C11.5117 10.2793 11.9277 10.1172 12.2559 9.79297C12.584 9.46875 12.748 9.05664 12.748 8.55664C12.748 8.04883 12.5781 7.62891 12.2383 7.29688C11.9023 6.96484 11.4805 6.79883 10.9727 6.79883C10.4766 6.79883 10.0645 6.96289 9.73633 7.29102C9.41211 7.61914 9.25 8.0293 9.25 8.52148Z" fill="white"/>
<path d="M22 9.25586C20.8513 10.2592 19.0509 11.3507 17.1381 12.3634C15.1738 13.4034 13.1431 14.3149 11.6178 14.8624C11.7414 15.5672 12.1569 16.9192 12.8166 18.5101C13.604 20.4092 14.691 22.6772 15.8694 24.8479C17.0478 27.0185 18.3205 29.0953 19.464 30.6047C20.0357 31.3594 20.5772 31.9722 21.0367 32.3749C21.4962 32.7775 21.875 32.9287 22 32.9287C22.125 32.9287 22.5037 32.7775 22.9632 32.3749C23.4227 31.9722 23.9642 31.3594 24.536 30.6047C25.6795 29.0953 26.9522 27.0185 28.1306 24.8479C29.309 22.6772 30.396 20.4092 31.1835 18.5101C31.8431 16.9192 32.2586 15.5672 32.3822 14.8624C30.8569 14.3149 28.8262 13.4034 26.8618 12.3634C24.9491 11.3507 23.1487 10.2592 22 9.25586ZM13.7484 9.86311C11.7497 10.8625 9.73856 11.8582 7.74644 12.8641L7.4375 13.0201V13.3662C7.4375 14.0537 7.70837 15.0204 8.09125 16.1692C8.47419 17.3179 8.98 18.5842 9.49688 19.6178L10.5031 19.1147C10.02 18.1482 9.52581 16.9147 9.15875 15.8134C8.87556 14.9639 8.67762 14.1639 8.60044 13.6949C10.4748 12.7505 12.3661 11.8122 14.2516 10.8694L13.7484 9.86311ZM30.2516 9.86311L29.7484 10.8694C31.634 11.8122 33.5253 12.7506 35.3996 13.695C35.3224 14.1639 35.1244 14.9639 34.8413 15.8134C34.4742 16.9146 33.9801 18.1482 33.4968 19.1147L34.5032 19.6178C35.0199 18.5842 35.5258 17.3179 35.9087 16.1692C36.2916 15.0204 36.5625 14.0537 36.5625 13.3662V13.0201L36.2536 12.8641C34.2614 11.8582 32.2502 10.8625 30.2516 9.86311ZM22 12.1364L22.4236 12.621C22.8839 13.1479 24.1553 13.8792 25.5054 14.4855C26.8558 15.0919 28.2931 15.6195 29.2004 15.9657L29.5625 16.1038V16.4912C29.5625 16.8852 29.4481 17.2984 29.2737 17.8198C29.0993 18.3412 28.8556 18.9501 28.5619 19.6185C27.9746 20.9554 27.188 22.5274 26.3695 24.0377C25.551 25.548 24.7023 26.9936 23.985 28.0795C23.6263 28.6225 23.3025 29.0743 23.0177 29.4116C22.8753 29.5802 22.7444 29.7202 22.6056 29.8371C22.4667 29.954 22.3379 30.0856 22.0265 30.1003L22 30.1015L21.9735 30.1003C21.6621 30.0856 21.5333 29.954 21.3944 29.8372C21.2556 29.7203 21.1247 29.5803 20.9823 29.4115C20.6976 29.0743 20.3737 28.6225 20.015 28.0795C19.2977 26.9936 18.449 25.548 17.6305 24.0377C16.812 22.5274 16.0254 20.9554 15.4381 19.6185C15.1445 18.9501 14.9007 18.3412 14.7263 17.8198C14.5519 17.2984 14.4375 16.8852 14.4375 16.4912V16.1037L14.7996 15.9657C15.7069 15.6195 17.1442 15.0919 18.4946 14.4855C19.8447 13.8792 21.1161 13.1479 21.5764 12.621L22 12.1364ZM22 13.771C21.232 14.431 20.1209 14.9884 18.9554 15.5118C17.7304 16.062 16.5188 16.5166 15.6217 16.8559C15.6597 17.0234 15.7157 17.2312 15.7932 17.463C15.9509 17.9344 16.1836 18.5185 16.4682 19.1661C17.0371 20.4614 17.813 22.0136 18.6195 23.5017C19.426 24.9898 20.2648 26.4166 20.9537 27.4595C21.2982 27.981 21.6071 28.4078 21.8419 28.6859C21.9089 28.7653 21.9486 28.7994 22 28.8518C22.0514 28.7994 22.0911 28.7653 22.1581 28.6859C22.3929 28.4078 22.7018 27.981 23.0462 27.4595C23.7352 26.4166 24.574 24.9898 25.3805 23.5017C26.187 22.0135 26.9629 20.4614 27.5319 19.1661C27.8164 18.5185 28.0491 17.9344 28.2068 17.463C28.2739 17.2636 28.3312 17.061 28.3783 16.8559C27.4812 16.5166 26.2696 16.062 25.0446 15.5118C23.8791 14.9884 22.768 14.431 22 13.771ZM18.444 32.7709L17.556 33.4615C17.556 33.4615 18.1608 34.2407 18.9882 35.0246C19.8156 35.8085 20.8292 36.6787 22 36.6787C23.1708 36.6787 24.1844 35.8085 25.0119 35.0246C25.8393 34.2407 26.444 33.4615 26.444 33.4615L25.556 32.7709C25.556 32.7709 24.9941 33.4917 24.2382 34.2079C23.4823 34.924 22.4958 35.5537 22 35.5537C21.5042 35.5537 20.5178 34.924 19.7619 34.2079C19.0059 33.4917 18.444 32.7709 18.444 32.7709Z" fill="#0073DC"/>
</svg>
