<svg width="44" height="44" viewBox="0 0 44 44" fill="none" xmlns="http://www.w3.org/2000/svg">
<rect width="44" height="44" fill="#2F3138"/>
<path d="M5.4707 11H4.41602V4.2793C4.16211 4.52148 3.82812 4.76367 3.41406 5.00586C3.00391 5.24805 2.63477 5.42969 2.30664 5.55078V4.53125C2.89648 4.25391 3.41211 3.91797 3.85352 3.52344C4.29492 3.12891 4.60742 2.74609 4.79102 2.375H5.4707V11ZM8.33594 9.01367L9.34961 8.91992C9.43555 9.39648 9.59961 9.74219 9.8418 9.95703C10.084 10.1719 10.3945 10.2793 10.7734 10.2793C11.0977 10.2793 11.3809 10.2051 11.623 10.0566C11.8691 9.9082 12.0703 9.71094 12.2266 9.46484C12.3828 9.21484 12.5137 8.87891 12.6191 8.45703C12.7246 8.03516 12.7773 7.60547 12.7773 7.16797C12.7773 7.12109 12.7754 7.05078 12.7715 6.95703C12.5605 7.29297 12.2715 7.56641 11.9043 7.77734C11.541 7.98438 11.1465 8.08789 10.7207 8.08789C10.0098 8.08789 9.4082 7.83008 8.91602 7.31445C8.42383 6.79883 8.17773 6.11914 8.17773 5.27539C8.17773 4.4043 8.43359 3.70312 8.94531 3.17188C9.46094 2.64062 10.1055 2.375 10.8789 2.375C11.4375 2.375 11.9473 2.52539 12.4082 2.82617C12.873 3.12695 13.2246 3.55664 13.4629 4.11523C13.7051 4.66992 13.8262 5.47461 13.8262 6.5293C13.8262 7.62695 13.707 8.50195 13.4688 9.1543C13.2305 9.80273 12.875 10.2969 12.4023 10.6367C11.9336 10.9766 11.3828 11.1465 10.75 11.1465C10.0781 11.1465 9.5293 10.9609 9.10352 10.5898C8.67773 10.2148 8.42188 9.68945 8.33594 9.01367ZM12.6543 5.22266C12.6543 4.61719 12.4922 4.13672 12.168 3.78125C11.8477 3.42578 11.4609 3.24805 11.0078 3.24805C10.5391 3.24805 10.1309 3.43945 9.7832 3.82227C9.43555 4.20508 9.26172 4.70117 9.26172 5.31055C9.26172 5.85742 9.42578 6.30273 9.75391 6.64648C10.0859 6.98633 10.4941 7.15625 10.9785 7.15625C11.4668 7.15625 11.8672 6.98633 12.1797 6.64648C12.4961 6.30273 12.6543 5.82812 12.6543 5.22266Z" fill="white"/>
<g clip-path="url(#clip0_315_143976)">
<path d="M19 9.54004L18 13.54L11.8395 14.4202L22 16.9602L32.1605 14.4202L26 13.54L25 9.54004L23.2957 10.6763L22.5456 13.6765H21.4544L20.7043 10.6762L19 9.54004ZM10.3362 15.2038L7 18.5401L10 22.5401L11.6106 20.9295L13.2743 15.9384L10.3362 15.2038ZM33.6638 15.2038L30.7257 15.9384L32.3894 20.9294L34 22.54L37 18.54L33.6638 15.2038ZM14.369 16.212L13.1113 19.9851L13.9744 23.438L21.4375 27.5841V17.9792L14.369 16.212ZM29.631 16.212L22.5625 17.9792V27.5841L30.0255 23.438L30.8886 19.9851L29.631 16.212ZM15 25.2945V28.8142L21.4375 30.7284V28.8709L15 25.2945ZM29 25.2945L22.5625 28.871V30.7284L29 28.8142V25.2945ZM15 30.0158V33.54L21.4375 34.4597V31.9299L15 30.0158ZM29 30.0158L22.5625 31.9299V34.4597L29 33.5401V30.0158Z" fill="#0073DC"/>
<path opacity="0.3" d="M23 5.54004L22 9.54004L15.8395 10.4202L26 12.9602L36.1605 10.4202L30 9.54004L29 5.54004L27.2957 6.67629L26.5456 9.67648H25.4544L24.7043 6.67623L23 5.54004ZM14.3362 11.2038L11 14.5401L14 18.5401L15.6106 16.9295L17.2743 11.9384L14.3362 11.2038ZM37.6638 11.2038L34.7257 11.9384L36.3894 16.9294L38 18.54L41 14.54L37.6638 11.2038ZM18.369 12.212L17.1113 15.9851L17.9744 19.438L25.4375 23.5841V13.9792L18.369 12.212ZM33.631 12.212L26.5625 13.9792V23.5841L34.0255 19.438L34.8886 15.9851L33.631 12.212ZM19 21.2945V24.8142L25.4375 26.7284V24.8709L19 21.2945ZM33 21.2945L26.5625 24.871V26.7284L33 24.8142V21.2945ZM19 26.0158V29.54L25.4375 30.4597V27.9299L19 26.0158ZM33 26.0158L26.5625 27.9299V30.4597L33 29.5401V26.0158Z" fill="#0073DC"/>
<path d="M15 13.54L14 17.54L7.8395 18.4202L18 20.9602L28.1605 18.4202L22 17.54L21 13.54L19.2957 14.6763L18.5456 17.6765H17.4544L16.7043 14.6762L15 13.54ZM6.33619 19.2038L3 22.5401L6 26.5401L7.61062 24.9295L9.27431 19.9384L6.33619 19.2038ZM29.6638 19.2038L26.7257 19.9384L28.3894 24.9294L30 26.54L33 22.54L29.6638 19.2038ZM10.369 20.212L9.11131 23.9851L9.97444 27.438L17.4375 31.5841V21.9792L10.369 20.212ZM25.631 20.212L18.5625 21.9792V31.5841L26.0255 27.438L26.8886 23.9851L25.631 20.212ZM11 29.2945V32.8142L17.4375 34.7284V32.8709L11 29.2945ZM25 29.2945L18.5625 32.871V34.7284L25 32.8142V29.2945ZM11 34.0158V37.54L17.4375 38.4597V35.9299L11 34.0158ZM25 34.0158L18.5625 35.9299V38.4597L25 37.5401V34.0158Z" fill="white"/>
</g>
<defs>
<clipPath id="clip0_315_143976">
<rect width="32" height="32" fill="white" transform="translate(6 6)"/>
</clipPath>
</defs>
</svg>
