<svg width="44" height="44" viewBox="0 0 44 44" fill="none" xmlns="http://www.w3.org/2000/svg">
<rect width="44" height="44" fill="#2F3138"/>
<path d="M7.04102 9.98633V11H1.36328C1.35547 10.7461 1.39648 10.502 1.48633 10.2676C1.63086 9.88086 1.86133 9.5 2.17773 9.125C2.49805 8.75 2.95898 8.31641 3.56055 7.82422C4.49414 7.05859 5.125 6.45312 5.45312 6.00781C5.78125 5.55859 5.94531 5.13477 5.94531 4.73633C5.94531 4.31836 5.79492 3.9668 5.49414 3.68164C5.19727 3.39258 4.80859 3.24805 4.32812 3.24805C3.82031 3.24805 3.41406 3.40039 3.10938 3.70508C2.80469 4.00977 2.65039 4.43164 2.64648 4.9707L1.5625 4.85938C1.63672 4.05078 1.91602 3.43555 2.40039 3.01367C2.88477 2.58789 3.53516 2.375 4.35156 2.375C5.17578 2.375 5.82812 2.60352 6.30859 3.06055C6.78906 3.51758 7.0293 4.08398 7.0293 4.75977C7.0293 5.10352 6.95898 5.44141 6.81836 5.77344C6.67773 6.10547 6.44336 6.45508 6.11523 6.82227C5.79102 7.18945 5.25 7.69336 4.49219 8.33398C3.85938 8.86523 3.45312 9.22656 3.27344 9.41797C3.09375 9.60547 2.94531 9.79492 2.82812 9.98633H7.04102ZM8.17773 6.76367C8.17773 5.74805 8.28125 4.93164 8.48828 4.31445C8.69922 3.69336 9.00977 3.21484 9.41992 2.87891C9.83398 2.54297 10.3535 2.375 10.9785 2.375C11.4395 2.375 11.8438 2.46875 12.1914 2.65625C12.5391 2.83984 12.8262 3.10742 13.0527 3.45898C13.2793 3.80664 13.457 4.23242 13.5859 4.73633C13.7148 5.23633 13.7793 5.91211 13.7793 6.76367C13.7793 7.77148 13.6758 8.58594 13.4688 9.20703C13.2617 9.82422 12.9512 10.3027 12.5371 10.6426C12.127 10.9785 11.6074 11.1465 10.9785 11.1465C10.1504 11.1465 9.5 10.8496 9.02734 10.2559C8.46094 9.54102 8.17773 8.37695 8.17773 6.76367ZM9.26172 6.76367C9.26172 8.17383 9.42578 9.11328 9.75391 9.58203C10.0859 10.0469 10.4941 10.2793 10.9785 10.2793C11.4629 10.2793 11.8691 10.0449 12.1973 9.57617C12.5293 9.10742 12.6953 8.16992 12.6953 6.76367C12.6953 5.34961 12.5293 4.41016 12.1973 3.94531C11.8691 3.48047 11.459 3.24805 10.9668 3.24805C10.4824 3.24805 10.0957 3.45312 9.80664 3.86328C9.44336 4.38672 9.26172 5.35352 9.26172 6.76367Z" fill="white"/>
<path d="M17.2811 6L18.4608 8.2826H25.5392L26.7189 6H17.2811ZM16.6175 9.55817V13.0458H18.977V14.5362C17.5539 13.932 15.8359 13.9857 14.9217 13.9857C11.1982 13.9857 8.8682 15.456 7.58525 17.2082C6.3023 18.9605 6 20.9342 6 22.1091C6 25.6337 8.84608 28.4467 12.1419 30.9038C15.4378 33.3542 19.2719 35.516 21.5281 37.577L22 38L22.4719 37.577C24.7281 35.516 28.5622 33.3542 31.8581 30.9038C35.1539 28.4467 38 25.6337 38 22.1091C38 20.9342 37.6977 18.9605 36.4147 17.2082C35.1318 15.456 32.8018 13.9857 29.0783 13.9857C28.1641 13.9857 26.4461 13.932 25.023 14.5362V13.0458H27.3825V9.55817H16.6175ZM17.9447 10.7666H26.0553V11.8374H17.9447V10.7666ZM20.3041 13.0458H23.6959V17.1209L24.8313 16.0938C25.694 15.3016 27.8986 15.1942 29.0783 15.1942C32.4332 15.1942 34.2323 16.4093 35.3088 17.8796C36.3853 19.3498 36.6728 21.1356 36.6728 22.1091C36.6728 25.0295 34.2101 27.594 31.0175 29.9639C28.0166 32.2062 24.4553 34.227 22 36.3216C19.5447 34.227 15.9834 32.2062 12.9825 29.9639C9.78986 27.594 7.32719 25.0295 7.32719 22.1091C7.32719 21.1356 7.61475 19.3498 8.69124 17.8796C9.76774 16.4093 11.5668 15.1942 14.9217 15.1942C16.1014 15.1942 18.306 15.3016 19.1687 16.0938L20.3041 17.1209V13.0458ZM17.2811 17.8124C12.5622 17.8124 11.3825 21.0349 11.3825 23.1833C11.3825 27.4799 17.2811 29.6282 22 32.8507C26.7189 29.6282 32.6175 27.4799 32.6175 23.1833C32.6175 21.0349 31.4378 17.8124 26.7189 17.8124C24.3594 17.8124 23.1797 17.8124 22 21.0349C20.8203 17.8124 19.6406 17.8124 17.2811 17.8124ZM26.5493 18.7926C26.8147 18.7859 26.9843 18.8128 26.977 18.8329C25.7604 19.323 24.4774 20.471 23.6885 21.6324C23.6885 21.6324 23.4525 20.4441 24.4184 19.4908C24.9641 18.947 25.9742 18.7993 26.5493 18.7926ZM17.2811 18.8866C15.5115 20.33 14.2359 22.7939 13.8009 24.9556C13.8009 24.9556 12.3631 23.3645 13.2332 21.3706C13.9558 19.7258 16.9272 18.9202 17.2811 18.8866Z" fill="#BE3128"/>
<path d="M17.0117 27.2227V22.5117H12.3359V20.543H17.0117V15.8672H19.0039V20.543H23.6797V22.5117H19.0039V27.2227H17.0117ZM33.957 30H31.8477V16.5586C31.3398 17.043 30.6719 17.5273 29.8438 18.0117C29.0234 18.4961 28.2852 18.8594 27.6289 19.1016V17.0625C28.8086 16.5078 29.8398 15.8359 30.7227 15.0469C31.6055 14.2578 32.2305 13.4922 32.5977 12.75H33.957V30Z" fill="white"/>
</svg>
