<svg width="44" height="44" viewBox="0 0 44 44" fill="none" xmlns="http://www.w3.org/2000/svg">
<rect width="44" height="44" fill="#2F3138"/>
<path d="M7.04102 9.98633V11H1.36328C1.35547 10.7461 1.39648 10.502 1.48633 10.2676C1.63086 9.88086 1.86133 9.5 2.17773 9.125C2.49805 8.75 2.95898 8.31641 3.56055 7.82422C4.49414 7.05859 5.125 6.45312 5.45312 6.00781C5.78125 5.55859 5.94531 5.13477 5.94531 4.73633C5.94531 4.31836 5.79492 3.9668 5.49414 3.68164C5.19727 3.39258 4.80859 3.24805 4.32812 3.24805C3.82031 3.24805 3.41406 3.40039 3.10938 3.70508C2.80469 4.00977 2.65039 4.43164 2.64648 4.9707L1.5625 4.85938C1.63672 4.05078 1.91602 3.43555 2.40039 3.01367C2.88477 2.58789 3.53516 2.375 4.35156 2.375C5.17578 2.375 5.82812 2.60352 6.30859 3.06055C6.78906 3.51758 7.0293 4.08398 7.0293 4.75977C7.0293 5.10352 6.95898 5.44141 6.81836 5.77344C6.67773 6.10547 6.44336 6.45508 6.11523 6.82227C5.79102 7.18945 5.25 7.69336 4.49219 8.33398C3.85938 8.86523 3.45312 9.22656 3.27344 9.41797C3.09375 9.60547 2.94531 9.79492 2.82812 9.98633H7.04102ZM13.7207 9.98633V11H8.04297C8.03516 10.7461 8.07617 10.502 8.16602 10.2676C8.31055 9.88086 8.54102 9.5 8.85742 9.125C9.17773 8.75 9.63867 8.31641 10.2402 7.82422C11.1738 7.05859 11.8047 6.45312 12.1328 6.00781C12.4609 5.55859 12.625 5.13477 12.625 4.73633C12.625 4.31836 12.4746 3.9668 12.1738 3.68164C11.877 3.39258 11.4883 3.24805 11.0078 3.24805C10.5 3.24805 10.0938 3.40039 9.78906 3.70508C9.48438 4.00977 9.33008 4.43164 9.32617 4.9707L8.24219 4.85938C8.31641 4.05078 8.5957 3.43555 9.08008 3.01367C9.56445 2.58789 10.2148 2.375 11.0312 2.375C11.8555 2.375 12.5078 2.60352 12.9883 3.06055C13.4688 3.51758 13.709 4.08398 13.709 4.75977C13.709 5.10352 13.6387 5.44141 13.498 5.77344C13.3574 6.10547 13.123 6.45508 12.7949 6.82227C12.4707 7.18945 11.9297 7.69336 11.1719 8.33398C10.5391 8.86523 10.1328 9.22656 9.95312 9.41797C9.77344 9.60547 9.625 9.79492 9.50781 9.98633H13.7207Z" fill="white"/>
<path d="M26.3813 8.04395C20.1 9.7277 17.9813 12.4121 17.2625 14.5183L16.0813 26.3308C13.9938 28.0746 11.385 29.1621 8.44629 30.1371L9.59066 32.4683L12.0025 31.6058L13.3813 32.9433L12.3 34.6683L14.5625 35.8621L15.8438 33.9933L18.1438 34.4433L17.4625 36.3433L20.075 36.9621L20.8625 34.6183L23.4875 34.6433L24.925 36.6871L27.575 36.4621L26.6313 34.4371L28.875 33.8371L30.3563 35.6246L33.35 34.4246L31.1438 32.7058L32.7188 31.6308L34.6438 32.2308L35.625 30.1683C32.9438 28.9996 30.1875 27.8496 28.45 26.4246L27.4625 14.0871C27.5 12.8746 24.7688 10.9258 26.3813 8.04395ZM18.4063 18.9996C18.7813 20.7558 20.2 21.0683 22 21.5558C20.3438 21.6121 19.3 22.5308 18.4063 21.5558C17.7375 20.8371 18.0125 19.8183 18.4063 18.9996ZM26.5938 18.9996C26.9875 19.8183 27.2625 20.8371 26.5938 21.5558C25.7 22.5308 24.6563 21.6121 23 21.5558C24.8 21.0683 26.2188 20.7558 26.5938 18.9996Z" fill="#769520"/>
</svg>
