<svg width="44" height="44" viewBox="0 0 44 44" fill="none" xmlns="http://www.w3.org/2000/svg">
<rect width="44" height="44" fill="#2F3138"/>
<path d="M9.9074 7.07336C9.88165 7.07305 9.85577 7.07336 9.82971 7.07411L9.82952 7.07399C9.22033 7.09199 8.52808 7.40086 7.96433 7.96461C7.0149 8.91424 6.78702 10.2267 7.45665 10.8964C7.95602 11.3956 8.81383 11.398 9.61102 10.9726C10.6214 12.8507 12.2456 14.578 14.0758 15.746C12.9027 17.2557 12.2027 19.151 12.2027 21.2069H13.3708C13.3708 19.4007 13.985 17.7398 15.0172 16.4238L15.152 18.8866C15.3338 19.0505 15.5157 19.2131 15.6977 19.3761C15.97 18.5849 16.3533 17.871 16.8718 17.2921L17.6878 16.381L17.8483 17.5935C18.0733 19.293 18.2531 20.7531 18.4676 21.8429C19.4353 22.6985 20.4003 23.5472 21.3565 24.3776C21.6943 24.2447 22.0678 24.1474 22.4584 24.0588C23.6028 23.7996 24.9841 23.6502 26.212 23.4441C23.8567 20.7102 21.3726 17.9097 18.8841 15.1524L16.4486 15.0195C17.7464 14.0395 19.3634 13.4592 21.1185 13.4589V12.2908C19.106 12.291 17.247 12.9612 15.7533 14.0896C14.5848 12.2532 12.854 10.6221 10.9702 9.60924C11.3948 8.81249 11.395 7.95786 10.896 7.45886C10.641 7.20386 10.2931 7.07799 9.90721 7.07336H9.9074ZM29.8932 7.24099L26.6845 10.6779L28.3757 16.0524L32.2274 17.0005L33.2528 13.9017L30.4338 12.4059L29.9059 13.8567L30.8821 14.4565L31.0492 13.7355L31.9628 14.2068L31.6025 15.8972L28.53 14.1785L29.9998 10.8755L32.694 12.4234L33.8061 8.81824L29.8932 7.24099ZM18.7366 8.01955C17.2735 9.4483 16.3209 10.9977 15.8343 12.4759C15.8936 12.5528 15.9526 12.6303 16.0104 12.7084C17.2025 11.9872 18.5489 11.5342 19.9304 11.3628C19.3974 10.1903 18.9299 9.03567 18.7366 8.01955ZM27.4423 8.20874C27.3013 8.23686 24.7241 8.71399 24.0707 8.82517L23.2093 14.8925L27.934 20.2352L35.2222 19.3432L36.7616 13.0337L33.9719 11.8693L33.681 12.8125L34.479 13.366L32.8233 18.3493L27.481 16.983L25.5181 10.7447L27.4423 8.20874ZM21.2075 14.4544C20.7053 14.4548 20.2086 14.501 19.7113 14.6062C20.5648 15.5466 21.4154 16.4898 22.2628 17.4356C22.2315 16.6194 21.8597 15.5842 21.3655 14.457C21.3128 14.4561 21.26 14.4543 21.2075 14.4544H21.2075ZM24.2742 17.7856C23.9334 18.0365 23.6036 18.3021 23.2858 18.5817C24.1383 19.5393 24.9859 20.5013 25.8286 21.4675C26.6411 21.3075 27.4678 21.0696 28.265 20.722C26.9252 20.4272 25.0293 20.1792 24.4697 19.0865C24.6596 18.9375 24.8531 18.7933 25.05 18.6539C24.9081 18.4962 24.8972 18.4849 24.7396 18.3089C24.5743 18.1242 24.428 17.9587 24.2743 17.7855L24.2742 17.7856ZM16.945 19.3285C16.4842 20.436 16.2529 21.8566 16.2711 23.2861C16.2975 25.3636 16.6017 27.263 17.3245 28.2564C16.1718 30.7319 14.7814 33.3541 12.9906 34.6743H12.9903C11.334 35.8558 9.76471 35.5746 8.99871 34.7133C8.61577 34.2827 8.40858 33.6962 8.49996 32.9472C8.59058 32.2047 8.99533 31.2953 9.89033 30.3091C10.6382 29.6686 11.246 29.4168 11.6501 29.3744C12.0596 29.3315 12.266 29.4503 12.4211 29.6449C12.7313 30.034 12.7366 30.9456 11.9536 31.6028L12.7044 32.4976C13.8981 31.4957 14.1216 29.9046 13.3345 28.9169C12.941 28.4232 12.2698 28.1351 11.5283 28.2127C10.7867 28.2905 9.97908 28.6847 9.09796 29.4477L9.07233 29.47L9.04952 29.495C8.0139 30.6269 7.46852 31.7587 7.34077 32.8058C7.21296 33.8529 7.5204 34.8085 8.12602 35.4896C9.33727 36.8514 11.64 37.0722 13.6685 35.6255L13.6687 35.6254C14.0422 35.359 14.3971 35.0673 14.7307 34.7524C16.5986 34.2696 18.4158 34.0812 20.4995 32.4127C19.1749 32.4737 17.9761 32.3064 17.1531 31.4671C17.9909 29.8867 18.6123 28.1661 19.3268 26.4752C19.5864 25.8606 19.857 25.2487 20.1526 24.6449C19.8769 24.4034 19.6015 24.1616 19.3263 23.9195C19.2933 23.9134 19.2603 23.9067 19.2275 23.8994L18.8946 24.8981C18.4419 24.7472 18.144 24.3766 17.9321 23.9539C17.7203 23.5312 17.5706 23.0202 17.4371 22.4145C17.2521 21.5752 17.1006 20.4989 16.945 19.3285L16.945 19.3285ZM28.9575 24.2106C28.8981 24.4409 28.8324 24.6648 28.7606 24.8824C29.5611 25.8289 30.3543 26.7815 31.1402 27.7401C32.0955 27.2094 33.0113 26.5303 33.8238 25.6979C32.3863 25.4526 30.6421 24.8137 28.9575 24.2106L28.9575 24.2106ZM27.7673 24.2772C26.1157 24.7212 24.124 24.835 22.707 25.1561C21.8473 25.3509 21.2669 25.6511 21.1184 25.8754C21.0442 25.9876 21.0153 26.0794 21.0642 26.3034C21.1132 26.5274 21.2721 26.8694 21.6008 27.3059L21.601 27.3062L21.6012 27.3067C22.576 28.6055 23.7948 28.7561 25.0516 28.0754C26.1354 27.4887 27.1948 26.1823 27.7673 24.2773V24.2772ZM28.342 25.9417C27.814 27.0714 27.108 27.9711 26.3026 28.5958C30.2126 31.8661 33.8582 34.7479 36.9273 36.9277C34.74 33.7476 31.7308 29.9583 28.342 25.9417V25.9417Z" fill="#769520"/>
<path d="M7.04102 9.98633V11H1.36328C1.35547 10.7461 1.39648 10.502 1.48633 10.2676C1.63086 9.88086 1.86133 9.5 2.17773 9.125C2.49805 8.75 2.95898 8.31641 3.56055 7.82422C4.49414 7.05859 5.125 6.45312 5.45312 6.00781C5.78125 5.55859 5.94531 5.13477 5.94531 4.73633C5.94531 4.31836 5.79492 3.9668 5.49414 3.68164C5.19727 3.39258 4.80859 3.24805 4.32812 3.24805C3.82031 3.24805 3.41406 3.40039 3.10938 3.70508C2.80469 4.00977 2.65039 4.43164 2.64648 4.9707L1.5625 4.85938C1.63672 4.05078 1.91602 3.43555 2.40039 3.01367C2.88477 2.58789 3.53516 2.375 4.35156 2.375C5.17578 2.375 5.82812 2.60352 6.30859 3.06055C6.78906 3.51758 7.0293 4.08398 7.0293 4.75977C7.0293 5.10352 6.95898 5.44141 6.81836 5.77344C6.67773 6.10547 6.44336 6.45508 6.11523 6.82227C5.79102 7.18945 5.25 7.69336 4.49219 8.33398C3.85938 8.86523 3.45312 9.22656 3.27344 9.41797C3.09375 9.60547 2.94531 9.79492 2.82812 9.98633H7.04102ZM8.18359 8.73242L9.23828 8.5918C9.35938 9.18945 9.56445 9.62109 9.85352 9.88672C10.1465 10.1484 10.502 10.2793 10.9199 10.2793C11.416 10.2793 11.834 10.1074 12.1738 9.76367C12.5176 9.41992 12.6895 8.99414 12.6895 8.48633C12.6895 8.00195 12.5312 7.60352 12.2148 7.29102C11.8984 6.97461 11.4961 6.81641 11.0078 6.81641C10.8086 6.81641 10.5605 6.85547 10.2637 6.93359L10.3809 6.00781C10.4512 6.01562 10.5078 6.01953 10.5508 6.01953C11 6.01953 11.4043 5.90234 11.7637 5.66797C12.123 5.43359 12.3027 5.07227 12.3027 4.58398C12.3027 4.19727 12.1719 3.87695 11.9102 3.62305C11.6484 3.36914 11.3105 3.24219 10.8965 3.24219C10.4863 3.24219 10.1445 3.37109 9.87109 3.62891C9.59766 3.88672 9.42188 4.27344 9.34375 4.78906L8.28906 4.60156C8.41797 3.89453 8.71094 3.34766 9.16797 2.96094C9.625 2.57031 10.1934 2.375 10.873 2.375C11.3418 2.375 11.7734 2.47656 12.168 2.67969C12.5625 2.87891 12.8633 3.15234 13.0703 3.5C13.2812 3.84766 13.3867 4.2168 13.3867 4.60742C13.3867 4.97852 13.2871 5.31641 13.0879 5.62109C12.8887 5.92578 12.5938 6.16797 12.2031 6.34766C12.7109 6.46484 13.1055 6.70898 13.3867 7.08008C13.668 7.44727 13.8086 7.9082 13.8086 8.46289C13.8086 9.21289 13.5352 9.84961 12.9883 10.373C12.4414 10.8926 11.75 11.1523 10.9141 11.1523C10.1602 11.1523 9.5332 10.9277 9.0332 10.4785C8.53711 10.0293 8.25391 9.44727 8.18359 8.73242Z" fill="white"/>
</svg>
