<svg width="44" height="44" viewBox="0 0 44 44" fill="none" xmlns="http://www.w3.org/2000/svg">
<rect width="44" height="44" rx="22" fill="#2F3138"/>
<path d="M10.9998 8C6.99984 24 13.9998 34 21.9998 37C29.9998 34 36.9998 24 32.9998 8C25.9998 10 17.9998 10 10.9998 8ZM17.2061 11.3063C18.1248 13.05 19.7123 12.9563 21.2686 12.9563L24.6373 13.05L25.1248 14.6125L29.9436 15.2563L30.1623 18.375C28.4186 18.8375 24.9311 18.7437 24.9248 19.4812C24.9123 20.7687 27.1936 20.4938 29.8061 19.85L28.2936 23.25L24.4561 23.525C24.6936 26.425 24.3811 28.375 22.2311 30.4438L20.8623 26.9875C20.0748 28.4 18.9873 29.4125 17.2811 29.575C17.9436 27.95 18.4748 26.6562 17.8873 24.8062C17.0436 25.6375 15.6936 25.975 13.8373 25.85C15.8123 22.7875 16.8561 19.4812 17.7186 16.3562L16.2686 15.0688C15.8561 13.6 16.1873 12.3125 17.2061 11.3063Z" fill="#0073DC"/>
<path d="M7.04102 9.98633V11H1.36328C1.35547 10.7461 1.39648 10.502 1.48633 10.2676C1.63086 9.88086 1.86133 9.5 2.17773 9.125C2.49805 8.75 2.95898 8.31641 3.56055 7.82422C4.49414 7.05859 5.125 6.45312 5.45312 6.00781C5.78125 5.55859 5.94531 5.13477 5.94531 4.73633C5.94531 4.31836 5.79492 3.9668 5.49414 3.68164C5.19727 3.39258 4.80859 3.24805 4.32812 3.24805C3.82031 3.24805 3.41406 3.40039 3.10938 3.70508C2.80469 4.00977 2.65039 4.43164 2.64648 4.9707L1.5625 4.85938C1.63672 4.05078 1.91602 3.43555 2.40039 3.01367C2.88477 2.58789 3.53516 2.375 4.35156 2.375C5.17578 2.375 5.82812 2.60352 6.30859 3.06055C6.78906 3.51758 7.0293 4.08398 7.0293 4.75977C7.0293 5.10352 6.95898 5.44141 6.81836 5.77344C6.67773 6.10547 6.44336 6.45508 6.11523 6.82227C5.79102 7.18945 5.25 7.69336 4.49219 8.33398C3.85938 8.86523 3.45312 9.22656 3.27344 9.41797C3.09375 9.60547 2.94531 9.79492 2.82812 9.98633H7.04102ZM11.5586 11V8.94336H7.83203V7.97656L11.752 2.41016H12.6133V7.97656H13.7734V8.94336H12.6133V11H11.5586ZM11.5586 7.97656V4.10352L8.86914 7.97656H11.5586Z" fill="white"/>
<path d="M22 21L21.8328 20.5288L20.7813 20.9019L21.7596 21.4384L22 21ZM37.9514 15.715C38.0702 15.4656 37.9643 15.1673 37.715 15.0486L33.6521 13.1139C33.4028 12.9951 33.1044 13.101 32.9857 13.3503C32.867 13.5997 32.9728 13.898 33.2222 14.0167L36.8336 15.7365L35.1139 19.3479C34.9951 19.5972 35.101 19.8956 35.3503 20.0143C35.5997 20.133 35.898 20.0272 36.0167 19.7778L37.9514 15.715ZM37.7404 29.0616L22.2404 20.5616L21.7596 21.4384L37.2596 29.9384L37.7404 29.0616ZM22.1672 21.4712L37.6672 15.9712L37.3328 15.0288L21.8328 20.5288L22.1672 21.4712Z" fill="white"/>
</svg>
