<svg width="44" height="44" viewBox="0 0 44 44" fill="none" xmlns="http://www.w3.org/2000/svg">
<rect width="44" height="44" rx="22" fill="#2F3138"/>
<path d="M10.9998 8C6.99984 24 13.9998 34 21.9998 37C29.9998 34 36.9998 24 32.9998 8C25.9998 10 17.9998 10 10.9998 8Z" fill="#0073DC"/>
<path d="M7.04102 9.98633V11H1.36328C1.35547 10.7461 1.39648 10.502 1.48633 10.2676C1.63086 9.88086 1.86133 9.5 2.17773 9.125C2.49805 8.75 2.95898 8.31641 3.56055 7.82422C4.49414 7.05859 5.125 6.45312 5.45312 6.00781C5.78125 5.55859 5.94531 5.13477 5.94531 4.73633C5.94531 4.31836 5.79492 3.9668 5.49414 3.68164C5.19727 3.39258 4.80859 3.24805 4.32812 3.24805C3.82031 3.24805 3.41406 3.40039 3.10938 3.70508C2.80469 4.00977 2.65039 4.43164 2.64648 4.9707L1.5625 4.85938C1.63672 4.05078 1.91602 3.43555 2.40039 3.01367C2.88477 2.58789 3.53516 2.375 4.35156 2.375C5.17578 2.375 5.82812 2.60352 6.30859 3.06055C6.78906 3.51758 7.0293 4.08398 7.0293 4.75977C7.0293 5.10352 6.95898 5.44141 6.81836 5.77344C6.67773 6.10547 6.44336 6.45508 6.11523 6.82227C5.79102 7.18945 5.25 7.69336 4.49219 8.33398C3.85938 8.86523 3.45312 9.22656 3.27344 9.41797C3.09375 9.60547 2.94531 9.79492 2.82812 9.98633H7.04102ZM8.17773 8.75L9.28516 8.65625C9.36719 9.19531 9.55664 9.60156 9.85352 9.875C10.1543 10.1445 10.5156 10.2793 10.9375 10.2793C11.4453 10.2793 11.875 10.0879 12.2266 9.70508C12.5781 9.32227 12.7539 8.81445 12.7539 8.18164C12.7539 7.58008 12.584 7.10547 12.2441 6.75781C11.9082 6.41016 11.4668 6.23633 10.9199 6.23633C10.5801 6.23633 10.2734 6.31445 10 6.4707C9.72656 6.62305 9.51172 6.82227 9.35547 7.06836L8.36523 6.93945L9.19727 2.52734H13.4688V3.53516H10.041L9.57812 5.84375C10.0938 5.48438 10.6348 5.30469 11.2012 5.30469C11.9512 5.30469 12.584 5.56445 13.0996 6.08398C13.6152 6.60352 13.873 7.27148 13.873 8.08789C13.873 8.86523 13.6465 9.53711 13.1934 10.1035C12.6426 10.7988 11.8906 11.1465 10.9375 11.1465C10.1562 11.1465 9.51758 10.9277 9.02148 10.4902C8.5293 10.0527 8.24805 9.47266 8.17773 8.75Z" fill="white"/>
<path d="M25.0117 27.2227V22.5117H20.3359V20.543H25.0117V15.8672H27.0039V20.543H31.6797V22.5117H27.0039V27.2227H25.0117ZM41.957 30H39.8477V16.5586C39.3398 17.043 38.6719 17.5273 37.8438 18.0117C37.0234 18.4961 36.2852 18.8594 35.6289 19.1016V17.0625C36.8086 16.5078 37.8398 15.8359 38.7227 15.0469C39.6055 14.2578 40.2305 13.4922 40.5977 12.75H41.957V30Z" fill="white"/>
</svg>
