<svg width="44" height="44" viewBox="0 0 44 44" fill="none" xmlns="http://www.w3.org/2000/svg">
<rect width="44" height="44" fill="#2F3138"/>
<path d="M7.04102 9.98633V11H1.36328C1.35547 10.7461 1.39648 10.502 1.48633 10.2676C1.63086 9.88086 1.86133 9.5 2.17773 9.125C2.49805 8.75 2.95898 8.31641 3.56055 7.82422C4.49414 7.05859 5.125 6.45312 5.45312 6.00781C5.78125 5.55859 5.94531 5.13477 5.94531 4.73633C5.94531 4.31836 5.79492 3.9668 5.49414 3.68164C5.19727 3.39258 4.80859 3.24805 4.32812 3.24805C3.82031 3.24805 3.41406 3.40039 3.10938 3.70508C2.80469 4.00977 2.65039 4.43164 2.64648 4.9707L1.5625 4.85938C1.63672 4.05078 1.91602 3.43555 2.40039 3.01367C2.88477 2.58789 3.53516 2.375 4.35156 2.375C5.17578 2.375 5.82812 2.60352 6.30859 3.06055C6.78906 3.51758 7.0293 4.08398 7.0293 4.75977C7.0293 5.10352 6.95898 5.44141 6.81836 5.77344C6.67773 6.10547 6.44336 6.45508 6.11523 6.82227C5.79102 7.18945 5.25 7.69336 4.49219 8.33398C3.85938 8.86523 3.45312 9.22656 3.27344 9.41797C3.09375 9.60547 2.94531 9.79492 2.82812 9.98633H7.04102ZM13.6504 4.51367L12.6016 4.5957C12.5078 4.18164 12.375 3.88086 12.2031 3.69336C11.918 3.39258 11.5664 3.24219 11.1484 3.24219C10.8125 3.24219 10.5176 3.33594 10.2637 3.52344C9.93164 3.76562 9.66992 4.11914 9.47852 4.58398C9.28711 5.04883 9.1875 5.71094 9.17969 6.57031C9.43359 6.18359 9.74414 5.89648 10.1113 5.70898C10.4785 5.52148 10.8633 5.42773 11.2656 5.42773C11.9688 5.42773 12.5664 5.6875 13.0586 6.20703C13.5547 6.72266 13.8027 7.39062 13.8027 8.21094C13.8027 8.75 13.6855 9.25195 13.4512 9.7168C13.2207 10.1777 12.9023 10.5312 12.4961 10.7773C12.0898 11.0234 11.6289 11.1465 11.1133 11.1465C10.2344 11.1465 9.51758 10.8242 8.96289 10.1797C8.4082 9.53125 8.13086 8.46484 8.13086 6.98047C8.13086 5.32031 8.4375 4.11328 9.05078 3.35938C9.58594 2.70312 10.3066 2.375 11.2129 2.375C11.8887 2.375 12.4414 2.56445 12.8711 2.94336C13.3047 3.32227 13.5645 3.8457 13.6504 4.51367ZM9.34375 8.2168C9.34375 8.58008 9.41992 8.92773 9.57227 9.25977C9.72852 9.5918 9.94531 9.8457 10.2227 10.0215C10.5 10.1934 10.791 10.2793 11.0957 10.2793C11.541 10.2793 11.9238 10.0996 12.2441 9.74023C12.5645 9.38086 12.7246 8.89258 12.7246 8.27539C12.7246 7.68164 12.5664 7.21484 12.25 6.875C11.9336 6.53125 11.5352 6.35938 11.0547 6.35938C10.5781 6.35938 10.1738 6.53125 9.8418 6.875C9.50977 7.21484 9.34375 7.66211 9.34375 8.2168Z" fill="white"/>
<path d="M25 7.875C23 11.875 23.6031 19.1289 25 20.875C27.6504 24.1879 30 25.875 30 28.875C30 30.875 29 33.875 27 35.875V36.875H17V35.875C14.9999 33.8753 14 30.875 14 28.875C14 25.875 16.3496 24.1879 19 20.875C20.3969 19.1289 21 11.875 19 7.875C22 6.875 22 6.875 25 7.875Z" fill="#769520"/>
</svg>
