<svg width="44" height="44" viewBox="0 0 44 44" fill="none" xmlns="http://www.w3.org/2000/svg">
<rect width="44" height="44" fill="#2F3138"/>
<path d="M7.04102 9.98633V11H1.36328C1.35547 10.7461 1.39648 10.502 1.48633 10.2676C1.63086 9.88086 1.86133 9.5 2.17773 9.125C2.49805 8.75 2.95898 8.31641 3.56055 7.82422C4.49414 7.05859 5.125 6.45312 5.45312 6.00781C5.78125 5.55859 5.94531 5.13477 5.94531 4.73633C5.94531 4.31836 5.79492 3.9668 5.49414 3.68164C5.19727 3.39258 4.80859 3.24805 4.32812 3.24805C3.82031 3.24805 3.41406 3.40039 3.10938 3.70508C2.80469 4.00977 2.65039 4.43164 2.64648 4.9707L1.5625 4.85938C1.63672 4.05078 1.91602 3.43555 2.40039 3.01367C2.88477 2.58789 3.53516 2.375 4.35156 2.375C5.17578 2.375 5.82812 2.60352 6.30859 3.06055C6.78906 3.51758 7.0293 4.08398 7.0293 4.75977C7.0293 5.10352 6.95898 5.44141 6.81836 5.77344C6.67773 6.10547 6.44336 6.45508 6.11523 6.82227C5.79102 7.18945 5.25 7.69336 4.49219 8.33398C3.85938 8.86523 3.45312 9.22656 3.27344 9.41797C3.09375 9.60547 2.94531 9.79492 2.82812 9.98633H7.04102ZM8.24805 3.53516V2.52148H13.8086V3.3418C13.2617 3.92383 12.7188 4.69727 12.1797 5.66211C11.6445 6.62695 11.2305 7.61914 10.9375 8.63867C10.7266 9.35742 10.5918 10.1445 10.5332 11H9.44922C9.46094 10.3242 9.59375 9.50781 9.84766 8.55078C10.1016 7.59375 10.4648 6.67188 10.9375 5.78516C11.4141 4.89453 11.9199 4.14453 12.4551 3.53516H8.24805Z" fill="white"/>
<path d="M30 27C30 31.4183 26.4183 35 22 35C17.5817 35 14 31.4183 14 27C14 22.5817 22 8 22 8C22 8 30 22.5817 30 27Z" fill="#769520"/>
</svg>
