<svg width="44" height="44" viewBox="0 0 44 44" fill="none" xmlns="http://www.w3.org/2000/svg">
<rect width="44" height="44" fill="#2F3138"/>
<path d="M10.9998 8C6.99984 24 13.9998 34 21.9998 37C29.9998 34 36.9998 24 32.9998 8C25.9998 10 17.9998 10 10.9998 8Z" fill="#BE3128"/>
<path d="M34.5 21.5H26.5M16 16L22 17.5V21.5H26.5M26.5 21.5L24 27H16" stroke="black"/>
<path d="M7.04102 9.98633V11H1.36328C1.35547 10.7461 1.39648 10.502 1.48633 10.2676C1.63086 9.88086 1.86133 9.5 2.17773 9.125C2.49805 8.75 2.95898 8.31641 3.56055 7.82422C4.49414 7.05859 5.125 6.45312 5.45312 6.00781C5.78125 5.55859 5.94531 5.13477 5.94531 4.73633C5.94531 4.31836 5.79492 3.9668 5.49414 3.68164C5.19727 3.39258 4.80859 3.24805 4.32812 3.24805C3.82031 3.24805 3.41406 3.40039 3.10938 3.70508C2.80469 4.00977 2.65039 4.43164 2.64648 4.9707L1.5625 4.85938C1.63672 4.05078 1.91602 3.43555 2.40039 3.01367C2.88477 2.58789 3.53516 2.375 4.35156 2.375C5.17578 2.375 5.82812 2.60352 6.30859 3.06055C6.78906 3.51758 7.0293 4.08398 7.0293 4.75977C7.0293 5.10352 6.95898 5.44141 6.81836 5.77344C6.67773 6.10547 6.44336 6.45508 6.11523 6.82227C5.79102 7.18945 5.25 7.69336 4.49219 8.33398C3.85938 8.86523 3.45312 9.22656 3.27344 9.41797C3.09375 9.60547 2.94531 9.79492 2.82812 9.98633H7.04102ZM9.80078 6.3418C9.36328 6.18164 9.03906 5.95312 8.82812 5.65625C8.61719 5.35938 8.51172 5.00391 8.51172 4.58984C8.51172 3.96484 8.73633 3.43945 9.18555 3.01367C9.63477 2.58789 10.2324 2.375 10.9785 2.375C11.7285 2.375 12.332 2.59375 12.7891 3.03125C13.2461 3.46484 13.4746 3.99414 13.4746 4.61914C13.4746 5.01758 13.3691 5.36523 13.1582 5.66211C12.9512 5.95508 12.6348 6.18164 12.209 6.3418C12.7363 6.51367 13.1367 6.79102 13.4102 7.17383C13.6875 7.55664 13.8262 8.01367 13.8262 8.54492C13.8262 9.2793 13.5664 9.89648 13.0469 10.3965C12.5273 10.8965 11.8438 11.1465 10.9961 11.1465C10.1484 11.1465 9.46484 10.8965 8.94531 10.3965C8.42578 9.89258 8.16602 9.26562 8.16602 8.51562C8.16602 7.95703 8.30664 7.49023 8.58789 7.11523C8.87305 6.73633 9.27734 6.47852 9.80078 6.3418ZM9.58984 4.55469C9.58984 4.96094 9.7207 5.29297 9.98242 5.55078C10.2441 5.80859 10.584 5.9375 11.002 5.9375C11.4082 5.9375 11.7402 5.81055 11.998 5.55664C12.2598 5.29883 12.3906 4.98438 12.3906 4.61328C12.3906 4.22656 12.2559 3.90234 11.9863 3.64062C11.7207 3.375 11.3887 3.24219 10.9902 3.24219C10.5879 3.24219 10.2539 3.37109 9.98828 3.62891C9.72266 3.88672 9.58984 4.19531 9.58984 4.55469ZM9.25 8.52148C9.25 8.82227 9.32031 9.11328 9.46094 9.39453C9.60547 9.67578 9.81836 9.89453 10.0996 10.0508C10.3809 10.2031 10.6836 10.2793 11.0078 10.2793C11.5117 10.2793 11.9277 10.1172 12.2559 9.79297C12.584 9.46875 12.748 9.05664 12.748 8.55664C12.748 8.04883 12.5781 7.62891 12.2383 7.29688C11.9023 6.96484 11.4805 6.79883 10.9727 6.79883C10.4766 6.79883 10.0645 6.96289 9.73633 7.29102C9.41211 7.61914 9.25 8.0293 9.25 8.52148Z" fill="white"/>
<path d="M22 20.5L32 4.5H37L22 20.5Z" fill="#D9D9D9" stroke="black"/>
</svg>
