<svg width="44" height="44" viewBox="0 0 44 44" fill="none" xmlns="http://www.w3.org/2000/svg">
<g clip-path="url(#clip0_390_30377)">
<rect width="44" height="44" fill="#BE3128"/>
<rect width="44" height="44" fill="url(#paint0_linear_390_30377)" fill-opacity="0.6"/>
<path opacity="0.5" d="M20 34H12M0 32H7V34H12M12 34L9 43H4" stroke="black" stroke-width="2"/>
<path opacity="0.5" d="M24 34H32M44 38H37V34H32M32 34L35 26H40" stroke="black" stroke-width="2"/>
<path opacity="0.5" d="M21 30L21 38M17 47L17 41L21 41L21 38M21 38L28 40L28 47" stroke="black" stroke-width="2"/>
<rect x="-1" y="20" width="31" height="6" fill="#2E2626" stroke="black" stroke-width="2"/>
<rect x="1" y="1" width="42" height="42" stroke="black" stroke-opacity="0.4" stroke-width="2"/>
<rect opacity="0.5" x="40" y="23" width="4" height="2" fill="black"/>
<rect opacity="0.5" x="29" y="29" width="2" height="2" fill="black"/>
<rect opacity="0.5" x="34" y="21" width="2" height="2" fill="black"/>
<rect opacity="0.5" x="32" y="9" width="2" height="2" fill="black"/>
<rect opacity="0.5" x="40" y="2" width="2" height="2" fill="black"/>
<rect opacity="0.5" x="38" width="2" height="2" fill="black"/>
<rect x="23" y="3" width="2" height="2" fill="#FF7A00"/>
<rect x="9" y="15" width="2" height="2" fill="#FF7A00"/>
<rect opacity="0.5" x="38" y="15" width="2" height="2" fill="black"/>
<rect opacity="0.5" x="7" y="13" width="2" height="2" fill="black"/>
<rect opacity="0.5" x="3" y="5" width="2" height="2" fill="black"/>
<rect opacity="0.5" x="38" y="31" width="6" height="2" fill="black"/>
<rect opacity="0.5" x="13" y="29" width="2" height="2" fill="black"/>
<path d="M25.2253 11.9615L25.3599 12H25.5H28V34H16V10H18.3599L25.2253 11.9615Z" fill="#595959" stroke="black" stroke-width="2"/>
<rect opacity="0.5" x="25" y="23" width="2" height="2" fill="black"/>
<rect opacity="0.5" x="5" y="23" width="2" height="2" fill="black"/>
<rect opacity="0.5" x="10" y="23" width="2" height="2" fill="black"/>
<rect x="23" y="31" width="2" height="2" fill="black"/>
<rect x="19" y="31" width="2" height="2" fill="black"/>
<rect x="15" y="14" width="2" height="2" fill="#DB1C17"/>
<rect x="34" y="13" width="2" height="4" fill="#FF7A00"/>
<rect x="11" y="17" width="2" height="2" fill="#FFC700"/>
<rect x="36" y="37" width="2" height="2" fill="black"/>
<rect x="40" y="31" width="2" height="2" fill="black"/>
<rect x="40" y="25" width="2" height="2" fill="black"/>
<rect x="8" y="31" width="2" height="2" fill="black"/>
<rect x="16" y="40" width="2" height="2" fill="black"/>
<rect x="36" y="19" width="2" height="2" fill="#FF7A00"/>
<rect x="3" width="2" height="2" fill="#FF7A00"/>
<rect x="29" y="31" width="2" height="2" fill="#FF7A00"/>
<rect x="36" y="11" width="2" height="2" fill="#FFE600"/>
</g>
<defs>
<linearGradient id="paint0_linear_390_30377" x1="22" y1="0" x2="22" y2="44" gradientUnits="userSpaceOnUse">
<stop stop-color="#FF0000"/>
<stop offset="1" stop-color="#FF0000" stop-opacity="0"/>
</linearGradient>
<clipPath id="clip0_390_30377">
<rect width="44" height="44" fill="white"/>
</clipPath>
</defs>
</svg>
