<svg width="44" height="44" viewBox="0 0 44 44" fill="none" xmlns="http://www.w3.org/2000/svg">
<rect width="44" height="44" fill="#A82CD4"/>
<rect x="1" y="1" width="42" height="42" stroke="black" stroke-opacity="0.4" stroke-width="2"/>
<path d="M29.0002 2V4L32 9.05184L27.0002 9L30.0002 14" stroke="url(#paint0_linear_390_30391)" stroke-width="2"/>
<path d="M18 0V2L20 6H16L18 10L20 19V21" stroke="url(#paint1_linear_390_30391)" stroke-width="2"/>
<path d="M14 43V34.5387L20.7999 37.5609L19.2457 43H14Z" fill="url(#paint2_linear_390_30391)" stroke="black" stroke-width="2"/>
<path d="M30 43V34.5387L23.2001 37.5609L24.7543 43H30Z" fill="url(#paint3_linear_390_30391)" stroke="black" stroke-width="2"/>
<path d="M20.5394 36.8881L12.4046 35.2611L14.6594 30H22V34.6972L20.5394 36.8881Z" fill="url(#paint4_linear_390_30391)" stroke="black" stroke-width="2"/>
<path d="M23.4606 36.8881L31.5954 35.2611L29.3406 30H22V34.6972L23.4606 36.8881Z" fill="url(#paint5_linear_390_30391)" stroke="black" stroke-width="2"/>
<path d="M13.2457 24H9.32577L10.7545 19H14.6744L13.2457 24Z" fill="url(#paint6_linear_390_30391)" stroke="black" stroke-width="2"/>
<path d="M13.2457 29H9.32577L10.7545 24H14.6744L13.2457 29Z" fill="url(#paint7_linear_390_30391)" stroke="black" stroke-width="2"/>
<path d="M30.7543 29H34.6742L33.2455 24H29.3256L30.7543 29Z" fill="url(#paint8_linear_390_30391)" stroke="black" stroke-width="2"/>
<path d="M30.7543 34H34.6742L33.2455 29H29.3256L30.7543 34Z" fill="url(#paint9_linear_390_30391)" stroke="black" stroke-width="2"/>
<path d="M13.2457 34H9.32577L10.7545 29H14.6744L13.2457 34Z" fill="url(#paint10_linear_390_30391)" stroke="black" stroke-width="2"/>
<path d="M30.7543 24H34.6742L33.2455 19H29.3256L30.7543 24Z" fill="url(#paint11_linear_390_30391)" stroke="black" stroke-width="2"/>
<path d="M24 12V5H20L20.0001 12H24Z" fill="url(#paint12_linear_390_30391)" stroke="black" stroke-width="2"/>
<path d="M25 10.618V11V12H26H29.3501L32.4613 19H30H29.4648L29.168 19.4453L27.168 22.4453L26.7982 23L27.168 23.5547L30.3397 28.3123L22 29.9802L13.6604 28.3123L16.8321 23.5547L17.2019 23L16.8321 22.4453L14.832 19.4453L14.5352 19H14H11.5388L14.6499 12H18H19V11V10.618L21.5528 11.8944L22 12.118L22.4472 11.8944L25 10.618Z" fill="url(#paint13_linear_390_30391)" stroke="black" stroke-width="2"/>
<path d="M27.9998 16H33.917C33.441 13.1623 30.973 11 28 11H27.9998V16Z" fill="url(#paint14_linear_390_30391)" stroke="black" stroke-width="2"/>
<path d="M16.0002 16H10.083C10.559 13.1623 13.027 11 16 11H16.0002V16Z" fill="url(#paint15_linear_390_30391)" stroke="black" stroke-width="2"/>
<path d="M38 2V6L34 14H42L38 22L34 40V44" stroke="url(#paint16_linear_390_30391)" stroke-width="2"/>
<path d="M6 0V4L4 8H8L6 12L14 35V44" stroke="url(#paint17_linear_390_30391)" stroke-width="2"/>
<path d="M1 22V24.9999H4L2 26.9999L7 39.2954V43.9999" stroke="url(#paint18_linear_390_30391)" stroke-width="2"/>
<path d="M43 30V32.9999H40L42 34.9999L39 39.2954V43.9999" stroke="url(#paint19_linear_390_30391)" stroke-width="2"/>
<rect x="21" y="22" width="6" height="2" fill="black"/>
<rect x="21" y="18" width="6" height="2" transform="rotate(-90 21 18)" fill="black"/>
<defs>
<linearGradient id="paint0_linear_390_30391" x1="29.5001" y1="2" x2="29.5001" y2="14" gradientUnits="userSpaceOnUse">
<stop stop-color="white"/>
<stop offset="1" stop-color="white"/>
</linearGradient>
<linearGradient id="paint1_linear_390_30391" x1="18" y1="0" x2="18" y2="21" gradientUnits="userSpaceOnUse">
<stop stop-color="white"/>
<stop offset="1" stop-color="white"/>
</linearGradient>
<linearGradient id="paint2_linear_390_30391" x1="17.5001" y1="33" x2="17.5001" y2="44" gradientUnits="userSpaceOnUse">
<stop stop-color="#AC31A7"/>
<stop offset="1" stop-color="#FF2E53"/>
</linearGradient>
<linearGradient id="paint3_linear_390_30391" x1="26.4999" y1="33" x2="26.4999" y2="44" gradientUnits="userSpaceOnUse">
<stop stop-color="#AC31A7"/>
<stop offset="1" stop-color="#FF2E53"/>
</linearGradient>
<linearGradient id="paint4_linear_390_30391" x1="17" y1="29" x2="17" y2="38" gradientUnits="userSpaceOnUse">
<stop stop-color="#AC31A7"/>
<stop offset="1" stop-color="#FF2E53"/>
</linearGradient>
<linearGradient id="paint5_linear_390_30391" x1="27" y1="29" x2="27" y2="38" gradientUnits="userSpaceOnUse">
<stop stop-color="#AC31A7"/>
<stop offset="1" stop-color="#FF2E53"/>
</linearGradient>
<linearGradient id="paint6_linear_390_30391" x1="12.0001" y1="18" x2="12.0001" y2="25" gradientUnits="userSpaceOnUse">
<stop stop-color="#AC31A7"/>
<stop offset="1" stop-color="#FF2E53"/>
</linearGradient>
<linearGradient id="paint7_linear_390_30391" x1="12.0001" y1="23" x2="12.0001" y2="30" gradientUnits="userSpaceOnUse">
<stop stop-color="#AC31A7"/>
<stop offset="1" stop-color="#FF2E53"/>
</linearGradient>
<linearGradient id="paint8_linear_390_30391" x1="31.9999" y1="23" x2="31.9999" y2="30" gradientUnits="userSpaceOnUse">
<stop stop-color="#AC31A7"/>
<stop offset="1" stop-color="#FF2E53"/>
</linearGradient>
<linearGradient id="paint9_linear_390_30391" x1="31.9999" y1="28" x2="31.9999" y2="35" gradientUnits="userSpaceOnUse">
<stop stop-color="#AC31A7"/>
<stop offset="1" stop-color="#FF2E53"/>
</linearGradient>
<linearGradient id="paint10_linear_390_30391" x1="12.0001" y1="28" x2="12.0001" y2="35" gradientUnits="userSpaceOnUse">
<stop stop-color="#AC31A7"/>
<stop offset="1" stop-color="#FF2E53"/>
</linearGradient>
<linearGradient id="paint11_linear_390_30391" x1="31.9999" y1="18" x2="31.9999" y2="25" gradientUnits="userSpaceOnUse">
<stop stop-color="#AC31A7"/>
<stop offset="1" stop-color="#FF2E53"/>
</linearGradient>
<linearGradient id="paint12_linear_390_30391" x1="22" y1="4" x2="22" y2="13" gradientUnits="userSpaceOnUse">
<stop stop-color="#AC31A7"/>
<stop offset="1" stop-color="#FF2E53"/>
</linearGradient>
<linearGradient id="paint13_linear_390_30391" x1="22" y1="9" x2="22" y2="31" gradientUnits="userSpaceOnUse">
<stop stop-color="#AC31A7"/>
<stop offset="1" stop-color="#FF2E53"/>
</linearGradient>
<linearGradient id="paint14_linear_390_30391" x1="30.9999" y1="10" x2="30.9999" y2="17" gradientUnits="userSpaceOnUse">
<stop stop-color="#AC31A7"/>
<stop offset="1" stop-color="#FF2E53"/>
</linearGradient>
<linearGradient id="paint15_linear_390_30391" x1="13.0001" y1="10" x2="13.0001" y2="17" gradientUnits="userSpaceOnUse">
<stop stop-color="#AC31A7"/>
<stop offset="1" stop-color="#FF2E53"/>
</linearGradient>
<linearGradient id="paint16_linear_390_30391" x1="38" y1="2" x2="38" y2="44" gradientUnits="userSpaceOnUse">
<stop stop-color="white"/>
<stop offset="1" stop-color="white"/>
</linearGradient>
<linearGradient id="paint17_linear_390_30391" x1="9" y1="0" x2="9" y2="44" gradientUnits="userSpaceOnUse">
<stop stop-color="white"/>
<stop offset="1" stop-color="white"/>
</linearGradient>
<linearGradient id="paint18_linear_390_30391" x1="4" y1="22" x2="4" y2="44" gradientUnits="userSpaceOnUse">
<stop stop-color="white"/>
<stop offset="1" stop-color="white"/>
</linearGradient>
<linearGradient id="paint19_linear_390_30391" x1="41" y1="30" x2="41" y2="43.9999" gradientUnits="userSpaceOnUse">
<stop stop-color="white"/>
<stop offset="1" stop-color="white"/>
</linearGradient>
</defs>
</svg>
