<svg width="44" height="44" viewBox="0 0 44 44" fill="none" xmlns="http://www.w3.org/2000/svg">
<rect width="44" height="44" fill="#2F3138"/>
<path d="M10.9998 8C6.99984 24 13.9998 34 21.9998 37C29.9998 34 36.9998 24 32.9998 8C25.9998 10 17.9998 10 10.9998 8Z" fill="#9938A9"/>
<path d="M7.04102 9.98633V11H1.36328C1.35547 10.7461 1.39648 10.502 1.48633 10.2676C1.63086 9.88086 1.86133 9.5 2.17773 9.125C2.49805 8.75 2.95898 8.31641 3.56055 7.82422C4.49414 7.05859 5.125 6.45312 5.45312 6.00781C5.78125 5.55859 5.94531 5.13477 5.94531 4.73633C5.94531 4.31836 5.79492 3.9668 5.49414 3.68164C5.19727 3.39258 4.80859 3.24805 4.32812 3.24805C3.82031 3.24805 3.41406 3.40039 3.10938 3.70508C2.80469 4.00977 2.65039 4.43164 2.64648 4.9707L1.5625 4.85938C1.63672 4.05078 1.91602 3.43555 2.40039 3.01367C2.88477 2.58789 3.53516 2.375 4.35156 2.375C5.17578 2.375 5.82812 2.60352 6.30859 3.06055C6.78906 3.51758 7.0293 4.08398 7.0293 4.75977C7.0293 5.10352 6.95898 5.44141 6.81836 5.77344C6.67773 6.10547 6.44336 6.45508 6.11523 6.82227C5.79102 7.18945 5.25 7.69336 4.49219 8.33398C3.85938 8.86523 3.45312 9.22656 3.27344 9.41797C3.09375 9.60547 2.94531 9.79492 2.82812 9.98633H7.04102ZM8.33594 9.01367L9.34961 8.91992C9.43555 9.39648 9.59961 9.74219 9.8418 9.95703C10.084 10.1719 10.3945 10.2793 10.7734 10.2793C11.0977 10.2793 11.3809 10.2051 11.623 10.0566C11.8691 9.9082 12.0703 9.71094 12.2266 9.46484C12.3828 9.21484 12.5137 8.87891 12.6191 8.45703C12.7246 8.03516 12.7773 7.60547 12.7773 7.16797C12.7773 7.12109 12.7754 7.05078 12.7715 6.95703C12.5605 7.29297 12.2715 7.56641 11.9043 7.77734C11.541 7.98438 11.1465 8.08789 10.7207 8.08789C10.0098 8.08789 9.4082 7.83008 8.91602 7.31445C8.42383 6.79883 8.17773 6.11914 8.17773 5.27539C8.17773 4.4043 8.43359 3.70312 8.94531 3.17188C9.46094 2.64062 10.1055 2.375 10.8789 2.375C11.4375 2.375 11.9473 2.52539 12.4082 2.82617C12.873 3.12695 13.2246 3.55664 13.4629 4.11523C13.7051 4.66992 13.8262 5.47461 13.8262 6.5293C13.8262 7.62695 13.707 8.50195 13.4688 9.1543C13.2305 9.80273 12.875 10.2969 12.4023 10.6367C11.9336 10.9766 11.3828 11.1465 10.75 11.1465C10.0781 11.1465 9.5293 10.9609 9.10352 10.5898C8.67773 10.2148 8.42188 9.68945 8.33594 9.01367ZM12.6543 5.22266C12.6543 4.61719 12.4922 4.13672 12.168 3.78125C11.8477 3.42578 11.4609 3.24805 11.0078 3.24805C10.5391 3.24805 10.1309 3.43945 9.7832 3.82227C9.43555 4.20508 9.26172 4.70117 9.26172 5.31055C9.26172 5.85742 9.42578 6.30273 9.75391 6.64648C10.0859 6.98633 10.4941 7.15625 10.9785 7.15625C11.4668 7.15625 11.8672 6.98633 12.1797 6.64648C12.4961 6.30273 12.6543 5.82812 12.6543 5.22266Z" fill="white"/>
<path d="M25 15.5L19 22.5H27.5L22 29.5" stroke="black"/>
</svg>
