<svg width="44" height="44" viewBox="0 0 44 44" fill="none" xmlns="http://www.w3.org/2000/svg">
<rect width="44" height="44" fill="#2F3138"/>
<path d="M1.50391 8.73242L2.55859 8.5918C2.67969 9.18945 2.88477 9.62109 3.17383 9.88672C3.4668 10.1484 3.82227 10.2793 4.24023 10.2793C4.73633 10.2793 5.1543 10.1074 5.49414 9.76367C5.83789 9.41992 6.00977 8.99414 6.00977 8.48633C6.00977 8.00195 5.85156 7.60352 5.53516 7.29102C5.21875 6.97461 4.81641 6.81641 4.32812 6.81641C4.12891 6.81641 3.88086 6.85547 3.58398 6.93359L3.70117 6.00781C3.77148 6.01562 3.82812 6.01953 3.87109 6.01953C4.32031 6.01953 4.72461 5.90234 5.08398 5.66797C5.44336 5.43359 5.62305 5.07227 5.62305 4.58398C5.62305 4.19727 5.49219 3.87695 5.23047 3.62305C4.96875 3.36914 4.63086 3.24219 4.2168 3.24219C3.80664 3.24219 3.46484 3.37109 3.19141 3.62891C2.91797 3.88672 2.74219 4.27344 2.66406 4.78906L1.60938 4.60156C1.73828 3.89453 2.03125 3.34766 2.48828 2.96094C2.94531 2.57031 3.51367 2.375 4.19336 2.375C4.66211 2.375 5.09375 2.47656 5.48828 2.67969C5.88281 2.87891 6.18359 3.15234 6.39062 3.5C6.60156 3.84766 6.70703 4.2168 6.70703 4.60742C6.70703 4.97852 6.60742 5.31641 6.4082 5.62109C6.20898 5.92578 5.91406 6.16797 5.52344 6.34766C6.03125 6.46484 6.42578 6.70898 6.70703 7.08008C6.98828 7.44727 7.12891 7.9082 7.12891 8.46289C7.12891 9.21289 6.85547 9.84961 6.30859 10.373C5.76172 10.8926 5.07031 11.1523 4.23438 11.1523C3.48047 11.1523 2.85352 10.9277 2.35352 10.4785C1.85742 10.0293 1.57422 9.44727 1.50391 8.73242ZM8.17773 6.76367C8.17773 5.74805 8.28125 4.93164 8.48828 4.31445C8.69922 3.69336 9.00977 3.21484 9.41992 2.87891C9.83398 2.54297 10.3535 2.375 10.9785 2.375C11.4395 2.375 11.8438 2.46875 12.1914 2.65625C12.5391 2.83984 12.8262 3.10742 13.0527 3.45898C13.2793 3.80664 13.457 4.23242 13.5859 4.73633C13.7148 5.23633 13.7793 5.91211 13.7793 6.76367C13.7793 7.77148 13.6758 8.58594 13.4688 9.20703C13.2617 9.82422 12.9512 10.3027 12.5371 10.6426C12.127 10.9785 11.6074 11.1465 10.9785 11.1465C10.1504 11.1465 9.5 10.8496 9.02734 10.2559C8.46094 9.54102 8.17773 8.37695 8.17773 6.76367ZM9.26172 6.76367C9.26172 8.17383 9.42578 9.11328 9.75391 9.58203C10.0859 10.0469 10.4941 10.2793 10.9785 10.2793C11.4629 10.2793 11.8691 10.0449 12.1973 9.57617C12.5293 9.10742 12.6953 8.16992 12.6953 6.76367C12.6953 5.34961 12.5293 4.41016 12.1973 3.94531C11.8691 3.48047 11.459 3.24805 10.9668 3.24805C10.4824 3.24805 10.0957 3.45312 9.80664 3.86328C9.44336 4.38672 9.26172 5.35352 9.26172 6.76367Z" fill="white"/>
<path d="M13.1558 19.0003C11.1104 19.0234 9.98816 21.1672 10.0001 22.3477C10.0598 24.1682 11.3611 25.4037 12.9767 26.7662C14.3855 27.9517 16.0051 29.1987 16.992 31C16.996 30.9962 16.996 30.9923 17 30.9885C17.004 30.9923 17.004 30.9962 17.008 31C17.9949 29.1987 19.6145 27.9517 21.0233 26.7662C22.6389 25.4037 23.9402 24.1682 23.9999 22.3477C24.0118 21.1672 22.8896 19.0234 20.8442 19.0003C19.332 18.981 17.5571 19.9894 17 21.606C16.4429 19.9894 14.668 18.981 13.1558 19.0003Z" fill="#BE3128"/>
<path d="M30.7071 10.2929C30.3166 9.90237 29.6834 9.90237 29.2929 10.2929L22.9289 16.6569C22.5384 17.0474 22.5384 17.6805 22.9289 18.0711C23.3195 18.4616 23.9526 18.4616 24.3431 18.0711L30 12.4142L35.6569 18.0711C36.0474 18.4616 36.6805 18.4616 37.0711 18.0711C37.4616 17.6805 37.4616 17.0474 37.0711 16.6569L30.7071 10.2929ZM31 34L31 11L29 11L29 34L31 34Z" fill="white"/>
</svg>
