<svg width="44" height="44" viewBox="0 0 44 44" fill="none" xmlns="http://www.w3.org/2000/svg">
<rect width="44" height="44" fill="#2F3138"/>
<path d="M1.50391 8.73242L2.55859 8.5918C2.67969 9.18945 2.88477 9.62109 3.17383 9.88672C3.4668 10.1484 3.82227 10.2793 4.24023 10.2793C4.73633 10.2793 5.1543 10.1074 5.49414 9.76367C5.83789 9.41992 6.00977 8.99414 6.00977 8.48633C6.00977 8.00195 5.85156 7.60352 5.53516 7.29102C5.21875 6.97461 4.81641 6.81641 4.32812 6.81641C4.12891 6.81641 3.88086 6.85547 3.58398 6.93359L3.70117 6.00781C3.77148 6.01562 3.82812 6.01953 3.87109 6.01953C4.32031 6.01953 4.72461 5.90234 5.08398 5.66797C5.44336 5.43359 5.62305 5.07227 5.62305 4.58398C5.62305 4.19727 5.49219 3.87695 5.23047 3.62305C4.96875 3.36914 4.63086 3.24219 4.2168 3.24219C3.80664 3.24219 3.46484 3.37109 3.19141 3.62891C2.91797 3.88672 2.74219 4.27344 2.66406 4.78906L1.60938 4.60156C1.73828 3.89453 2.03125 3.34766 2.48828 2.96094C2.94531 2.57031 3.51367 2.375 4.19336 2.375C4.66211 2.375 5.09375 2.47656 5.48828 2.67969C5.88281 2.87891 6.18359 3.15234 6.39062 3.5C6.60156 3.84766 6.70703 4.2168 6.70703 4.60742C6.70703 4.97852 6.60742 5.31641 6.4082 5.62109C6.20898 5.92578 5.91406 6.16797 5.52344 6.34766C6.03125 6.46484 6.42578 6.70898 6.70703 7.08008C6.98828 7.44727 7.12891 7.9082 7.12891 8.46289C7.12891 9.21289 6.85547 9.84961 6.30859 10.373C5.76172 10.8926 5.07031 11.1523 4.23438 11.1523C3.48047 11.1523 2.85352 10.9277 2.35352 10.4785C1.85742 10.0293 1.57422 9.44727 1.50391 8.73242ZM12.1504 11H11.0957V4.2793C10.8418 4.52148 10.5078 4.76367 10.0938 5.00586C9.68359 5.24805 9.31445 5.42969 8.98633 5.55078V4.53125C9.57617 4.25391 10.0918 3.91797 10.5332 3.52344C10.9746 3.12891 11.2871 2.74609 11.4707 2.375H12.1504V11Z" fill="white"/>
<g clip-path="url(#clip0_390_30437)">
<path d="M30 27C30 31.4183 26.4183 35 22 35C17.5817 35 14 31.4183 14 27C14 22.5817 22 8 22 8C22 8 30 22.5817 30 27Z" fill="#769520"/>
<path d="M38.3536 20.3536C38.5488 20.1583 38.5488 19.8417 38.3536 19.6464L35.1716 16.4645C34.9763 16.2692 34.6597 16.2692 34.4645 16.4645C34.2692 16.6597 34.2692 16.9763 34.4645 17.1716L37.2929 20L34.4645 22.8284C34.2692 23.0237 34.2692 23.3403 34.4645 23.5355C34.6597 23.7308 34.9763 23.7308 35.1716 23.5355L38.3536 20.3536ZM10 20.5H38V19.5H10V20.5Z" fill="white"/>
<path d="M38.3536 28.3536C38.5488 28.1583 38.5488 27.8417 38.3536 27.6464L35.1716 24.4645C34.9763 24.2692 34.6597 24.2692 34.4645 24.4645C34.2692 24.6597 34.2692 24.9763 34.4645 25.1716L37.2929 28L34.4645 30.8284C34.2692 31.0237 34.2692 31.3403 34.4645 31.5355C34.6597 31.7308 34.9763 31.7308 35.1716 31.5355L38.3536 28.3536ZM10 28.5H38V27.5H10V28.5Z" fill="white"/>
</g>
<defs>
<clipPath id="clip0_390_30437">
<rect width="32" height="32" fill="white" transform="translate(6 6)"/>
</clipPath>
</defs>
</svg>
