<svg width="44" height="44" viewBox="0 0 44 44" fill="none" xmlns="http://www.w3.org/2000/svg">
<rect width="44" height="44" fill="#2F3138"/>
<path d="M1.50391 8.73242L2.55859 8.5918C2.67969 9.18945 2.88477 9.62109 3.17383 9.88672C3.4668 10.1484 3.82227 10.2793 4.24023 10.2793C4.73633 10.2793 5.1543 10.1074 5.49414 9.76367C5.83789 9.41992 6.00977 8.99414 6.00977 8.48633C6.00977 8.00195 5.85156 7.60352 5.53516 7.29102C5.21875 6.97461 4.81641 6.81641 4.32812 6.81641C4.12891 6.81641 3.88086 6.85547 3.58398 6.93359L3.70117 6.00781C3.77148 6.01562 3.82812 6.01953 3.87109 6.01953C4.32031 6.01953 4.72461 5.90234 5.08398 5.66797C5.44336 5.43359 5.62305 5.07227 5.62305 4.58398C5.62305 4.19727 5.49219 3.87695 5.23047 3.62305C4.96875 3.36914 4.63086 3.24219 4.2168 3.24219C3.80664 3.24219 3.46484 3.37109 3.19141 3.62891C2.91797 3.88672 2.74219 4.27344 2.66406 4.78906L1.60938 4.60156C1.73828 3.89453 2.03125 3.34766 2.48828 2.96094C2.94531 2.57031 3.51367 2.375 4.19336 2.375C4.66211 2.375 5.09375 2.47656 5.48828 2.67969C5.88281 2.87891 6.18359 3.15234 6.39062 3.5C6.60156 3.84766 6.70703 4.2168 6.70703 4.60742C6.70703 4.97852 6.60742 5.31641 6.4082 5.62109C6.20898 5.92578 5.91406 6.16797 5.52344 6.34766C6.03125 6.46484 6.42578 6.70898 6.70703 7.08008C6.98828 7.44727 7.12891 7.9082 7.12891 8.46289C7.12891 9.21289 6.85547 9.84961 6.30859 10.373C5.76172 10.8926 5.07031 11.1523 4.23438 11.1523C3.48047 11.1523 2.85352 10.9277 2.35352 10.4785C1.85742 10.0293 1.57422 9.44727 1.50391 8.73242ZM11.5586 11V8.94336H7.83203V7.97656L11.752 2.41016H12.6133V7.97656H13.7734V8.94336H12.6133V11H11.5586ZM11.5586 7.97656V4.10352L8.86914 7.97656H11.5586Z" fill="white"/>
<path d="M25 7.75C23 11.75 23.6031 19.0039 25 20.75C27.6504 24.0629 30 25.75 30 28.75C30 30.75 29 33.75 27 35.75V36.75H17V35.75C14.9999 33.7503 14 30.75 14 28.75C14 25.75 16.3496 24.0629 19 20.75C20.3969 19.0039 21 11.75 19 7.75C22 6.75 22 6.75 25 7.75Z" fill="#BE3128"/>
<path d="M27.3131 27.1566L17.1206 22.0603C15.2275 21.1137 13 22.4904 13 24.607V24.607C13 26.6705 15.1264 28.0487 17.01 27.206L27.4121 22.5525C29.0974 21.7985 31 23.0317 31 24.878V24.878C31 26.7718 29.007 28.0035 27.3131 27.1566Z" stroke="white"/>
</svg>
