<svg width="44" height="44" viewBox="0 0 44 44" fill="none" xmlns="http://www.w3.org/2000/svg">
<rect width="44" height="44" fill="#2F3138"/>
<path d="M1.50391 8.73242L2.55859 8.5918C2.67969 9.18945 2.88477 9.62109 3.17383 9.88672C3.4668 10.1484 3.82227 10.2793 4.24023 10.2793C4.73633 10.2793 5.1543 10.1074 5.49414 9.76367C5.83789 9.41992 6.00977 8.99414 6.00977 8.48633C6.00977 8.00195 5.85156 7.60352 5.53516 7.29102C5.21875 6.97461 4.81641 6.81641 4.32812 6.81641C4.12891 6.81641 3.88086 6.85547 3.58398 6.93359L3.70117 6.00781C3.77148 6.01562 3.82812 6.01953 3.87109 6.01953C4.32031 6.01953 4.72461 5.90234 5.08398 5.66797C5.44336 5.43359 5.62305 5.07227 5.62305 4.58398C5.62305 4.19727 5.49219 3.87695 5.23047 3.62305C4.96875 3.36914 4.63086 3.24219 4.2168 3.24219C3.80664 3.24219 3.46484 3.37109 3.19141 3.62891C2.91797 3.88672 2.74219 4.27344 2.66406 4.78906L1.60938 4.60156C1.73828 3.89453 2.03125 3.34766 2.48828 2.96094C2.94531 2.57031 3.51367 2.375 4.19336 2.375C4.66211 2.375 5.09375 2.47656 5.48828 2.67969C5.88281 2.87891 6.18359 3.15234 6.39062 3.5C6.60156 3.84766 6.70703 4.2168 6.70703 4.60742C6.70703 4.97852 6.60742 5.31641 6.4082 5.62109C6.20898 5.92578 5.91406 6.16797 5.52344 6.34766C6.03125 6.46484 6.42578 6.70898 6.70703 7.08008C6.98828 7.44727 7.12891 7.9082 7.12891 8.46289C7.12891 9.21289 6.85547 9.84961 6.30859 10.373C5.76172 10.8926 5.07031 11.1523 4.23438 11.1523C3.48047 11.1523 2.85352 10.9277 2.35352 10.4785C1.85742 10.0293 1.57422 9.44727 1.50391 8.73242ZM8.17773 8.75L9.28516 8.65625C9.36719 9.19531 9.55664 9.60156 9.85352 9.875C10.1543 10.1445 10.5156 10.2793 10.9375 10.2793C11.4453 10.2793 11.875 10.0879 12.2266 9.70508C12.5781 9.32227 12.7539 8.81445 12.7539 8.18164C12.7539 7.58008 12.584 7.10547 12.2441 6.75781C11.9082 6.41016 11.4668 6.23633 10.9199 6.23633C10.5801 6.23633 10.2734 6.31445 10 6.4707C9.72656 6.62305 9.51172 6.82227 9.35547 7.06836L8.36523 6.93945L9.19727 2.52734H13.4688V3.53516H10.041L9.57812 5.84375C10.0938 5.48438 10.6348 5.30469 11.2012 5.30469C11.9512 5.30469 12.584 5.56445 13.0996 6.08398C13.6152 6.60352 13.873 7.27148 13.873 8.08789C13.873 8.86523 13.6465 9.53711 13.1934 10.1035C12.6426 10.7988 11.8906 11.1465 10.9375 11.1465C10.1562 11.1465 9.51758 10.9277 9.02148 10.4902C8.5293 10.0527 8.24805 9.47266 8.17773 8.75Z" fill="white"/>
<path d="M21.2421 7.45458C20.3456 11.8359 22.8056 18.6866 24.6068 20.0116C28.0243 22.5257 30.7305 23.5472 31.507 26.4449C32.0246 28.3768 31.8351 31.5334 30.4209 33.9829L30.6798 34.9488L21.0205 37.537L20.7617 36.5711C18.3121 35.1572 16.5698 32.5179 16.0522 30.586C15.2757 27.6883 17.1086 25.4506 18.8112 21.5645C19.7086 19.5164 18.4137 12.3536 15.4466 9.0075C18.0856 7.26511 18.0856 7.26511 21.2421 7.45458Z" fill="black"/>
<path d="M32 19L31 14.5L37 14L40 7" stroke="#769520" stroke-width="2"/>
<path d="M32 27L31 22.5L37 22L40 15" stroke="#769520" stroke-width="2"/>
<path d="M14 19L15 14.5L9 14L6 7" stroke="#769520" stroke-width="2"/>
<path d="M18 30L19 25.5L13 25L10 18" stroke="#769520" stroke-width="2"/>
</svg>
