<svg width="44" height="44" viewBox="0 0 44 44" fill="none" xmlns="http://www.w3.org/2000/svg">
<rect width="44" height="44" fill="#2F3138"/>
<path d="M1.50391 8.73242L2.55859 8.5918C2.67969 9.18945 2.88477 9.62109 3.17383 9.88672C3.4668 10.1484 3.82227 10.2793 4.24023 10.2793C4.73633 10.2793 5.1543 10.1074 5.49414 9.76367C5.83789 9.41992 6.00977 8.99414 6.00977 8.48633C6.00977 8.00195 5.85156 7.60352 5.53516 7.29102C5.21875 6.97461 4.81641 6.81641 4.32812 6.81641C4.12891 6.81641 3.88086 6.85547 3.58398 6.93359L3.70117 6.00781C3.77148 6.01562 3.82812 6.01953 3.87109 6.01953C4.32031 6.01953 4.72461 5.90234 5.08398 5.66797C5.44336 5.43359 5.62305 5.07227 5.62305 4.58398C5.62305 4.19727 5.49219 3.87695 5.23047 3.62305C4.96875 3.36914 4.63086 3.24219 4.2168 3.24219C3.80664 3.24219 3.46484 3.37109 3.19141 3.62891C2.91797 3.88672 2.74219 4.27344 2.66406 4.78906L1.60938 4.60156C1.73828 3.89453 2.03125 3.34766 2.48828 2.96094C2.94531 2.57031 3.51367 2.375 4.19336 2.375C4.66211 2.375 5.09375 2.47656 5.48828 2.67969C5.88281 2.87891 6.18359 3.15234 6.39062 3.5C6.60156 3.84766 6.70703 4.2168 6.70703 4.60742C6.70703 4.97852 6.60742 5.31641 6.4082 5.62109C6.20898 5.92578 5.91406 6.16797 5.52344 6.34766C6.03125 6.46484 6.42578 6.70898 6.70703 7.08008C6.98828 7.44727 7.12891 7.9082 7.12891 8.46289C7.12891 9.21289 6.85547 9.84961 6.30859 10.373C5.76172 10.8926 5.07031 11.1523 4.23438 11.1523C3.48047 11.1523 2.85352 10.9277 2.35352 10.4785C1.85742 10.0293 1.57422 9.44727 1.50391 8.73242ZM13.6504 4.51367L12.6016 4.5957C12.5078 4.18164 12.375 3.88086 12.2031 3.69336C11.918 3.39258 11.5664 3.24219 11.1484 3.24219C10.8125 3.24219 10.5176 3.33594 10.2637 3.52344C9.93164 3.76562 9.66992 4.11914 9.47852 4.58398C9.28711 5.04883 9.1875 5.71094 9.17969 6.57031C9.43359 6.18359 9.74414 5.89648 10.1113 5.70898C10.4785 5.52148 10.8633 5.42773 11.2656 5.42773C11.9688 5.42773 12.5664 5.6875 13.0586 6.20703C13.5547 6.72266 13.8027 7.39062 13.8027 8.21094C13.8027 8.75 13.6855 9.25195 13.4512 9.7168C13.2207 10.1777 12.9023 10.5312 12.4961 10.7773C12.0898 11.0234 11.6289 11.1465 11.1133 11.1465C10.2344 11.1465 9.51758 10.8242 8.96289 10.1797C8.4082 9.53125 8.13086 8.46484 8.13086 6.98047C8.13086 5.32031 8.4375 4.11328 9.05078 3.35938C9.58594 2.70312 10.3066 2.375 11.2129 2.375C11.8887 2.375 12.4414 2.56445 12.8711 2.94336C13.3047 3.32227 13.5645 3.8457 13.6504 4.51367ZM9.34375 8.2168C9.34375 8.58008 9.41992 8.92773 9.57227 9.25977C9.72852 9.5918 9.94531 9.8457 10.2227 10.0215C10.5 10.1934 10.791 10.2793 11.0957 10.2793C11.541 10.2793 11.9238 10.0996 12.2441 9.74023C12.5645 9.38086 12.7246 8.89258 12.7246 8.27539C12.7246 7.68164 12.5664 7.21484 12.25 6.875C11.9336 6.53125 11.5352 6.35938 11.0547 6.35938C10.5781 6.35938 10.1738 6.53125 9.8418 6.875C9.50977 7.21484 9.34375 7.66211 9.34375 8.2168Z" fill="white"/>
<path d="M21.4785 33.2666V31.333C20.5117 31.2113 19.724 30.9964 19.1152 30.6885C18.5137 30.3734 17.9909 29.8685 17.5469 29.1738C17.11 28.4792 16.8558 27.6305 16.7842 26.6279L18.7285 26.2627C18.8789 27.3011 19.1439 28.0638 19.5234 28.5508C20.0677 29.2383 20.7194 29.6214 21.4785 29.7002V23.5449C20.6836 23.3945 19.8708 23.0866 19.04 22.6211C18.4242 22.2773 17.9479 21.8011 17.6113 21.1924C17.2819 20.5837 17.1172 19.8926 17.1172 19.1191C17.1172 17.7441 17.6042 16.6305 18.5781 15.7783C19.2298 15.2054 20.1966 14.8545 21.4785 14.7256V13.8018H22.6172V14.7256C23.7415 14.833 24.6331 15.1624 25.292 15.7139C26.137 16.4157 26.6455 17.3789 26.8174 18.6035L24.8193 18.9043C24.7048 18.1452 24.4648 17.5651 24.0996 17.1641C23.7415 16.7559 23.2474 16.4873 22.6172 16.3584V21.9336C23.5911 22.1771 24.2357 22.3669 24.5508 22.5029C25.1523 22.7679 25.6429 23.0902 26.0225 23.4697C26.402 23.8493 26.6921 24.3005 26.8926 24.8232C27.1003 25.346 27.2041 25.9118 27.2041 26.5205C27.2041 27.8597 26.778 28.9769 25.9258 29.8721C25.0736 30.7673 23.9707 31.2471 22.6172 31.3115V33.2666H21.4785ZM21.4785 16.3369C20.7266 16.4515 20.1322 16.7523 19.6953 17.2393C19.2656 17.7262 19.0508 18.3027 19.0508 18.9688C19.0508 19.6276 19.2334 20.179 19.5986 20.623C19.971 21.0671 20.5977 21.4215 21.4785 21.6865V16.3369ZM22.6172 29.7002C23.3691 29.6071 23.9886 29.2812 24.4756 28.7227C24.9697 28.1641 25.2168 27.473 25.2168 26.6494C25.2168 25.9476 25.0413 25.3854 24.6904 24.9629C24.3467 24.5332 23.6556 24.1501 22.6172 23.8135V29.7002Z" fill="#769520"/>
</svg>
