<svg width="44" height="44" viewBox="0 0 44 44" fill="none" xmlns="http://www.w3.org/2000/svg">
<rect width="44" height="44" rx="22" fill="#2F3138"/>
<path d="M1.50391 8.73242L2.55859 8.5918C2.67969 9.18945 2.88477 9.62109 3.17383 9.88672C3.4668 10.1484 3.82227 10.2793 4.24023 10.2793C4.73633 10.2793 5.1543 10.1074 5.49414 9.76367C5.83789 9.41992 6.00977 8.99414 6.00977 8.48633C6.00977 8.00195 5.85156 7.60352 5.53516 7.29102C5.21875 6.97461 4.81641 6.81641 4.32812 6.81641C4.12891 6.81641 3.88086 6.85547 3.58398 6.93359L3.70117 6.00781C3.77148 6.01562 3.82812 6.01953 3.87109 6.01953C4.32031 6.01953 4.72461 5.90234 5.08398 5.66797C5.44336 5.43359 5.62305 5.07227 5.62305 4.58398C5.62305 4.19727 5.49219 3.87695 5.23047 3.62305C4.96875 3.36914 4.63086 3.24219 4.2168 3.24219C3.80664 3.24219 3.46484 3.37109 3.19141 3.62891C2.91797 3.88672 2.74219 4.27344 2.66406 4.78906L1.60938 4.60156C1.73828 3.89453 2.03125 3.34766 2.48828 2.96094C2.94531 2.57031 3.51367 2.375 4.19336 2.375C4.66211 2.375 5.09375 2.47656 5.48828 2.67969C5.88281 2.87891 6.18359 3.15234 6.39062 3.5C6.60156 3.84766 6.70703 4.2168 6.70703 4.60742C6.70703 4.97852 6.60742 5.31641 6.4082 5.62109C6.20898 5.92578 5.91406 6.16797 5.52344 6.34766C6.03125 6.46484 6.42578 6.70898 6.70703 7.08008C6.98828 7.44727 7.12891 7.9082 7.12891 8.46289C7.12891 9.21289 6.85547 9.84961 6.30859 10.373C5.76172 10.8926 5.07031 11.1523 4.23438 11.1523C3.48047 11.1523 2.85352 10.9277 2.35352 10.4785C1.85742 10.0293 1.57422 9.44727 1.50391 8.73242ZM8.24805 3.53516V2.52148H13.8086V3.3418C13.2617 3.92383 12.7188 4.69727 12.1797 5.66211C11.6445 6.62695 11.2305 7.61914 10.9375 8.63867C10.7266 9.35742 10.5918 10.1445 10.5332 11H9.44922C9.46094 10.3242 9.59375 9.50781 9.84766 8.55078C10.1016 7.59375 10.4648 6.67188 10.9375 5.78516C11.4141 4.89453 11.9199 4.14453 12.4551 3.53516H8.24805Z" fill="white"/>
<path d="M10.9998 8C6.99984 24 13.9998 34 21.9998 37C29.9998 34 36.9998 24 32.9998 8C25.9998 10 17.9998 10 10.9998 8Z" fill="#0073DC"/>
<path d="M8.85156 23.7207L9.88867 23.8555C9.77539 24.5703 9.48438 25.1309 9.01562 25.5371C8.55078 25.9395 7.97852 26.1406 7.29883 26.1406C6.44727 26.1406 5.76172 25.8633 5.24219 25.3086C4.72656 24.75 4.46875 23.9512 4.46875 22.9121C4.46875 22.2402 4.58008 21.6523 4.80273 21.1484C5.02539 20.6445 5.36328 20.2676 5.81641 20.0176C6.27344 19.7637 6.76953 19.6367 7.30469 19.6367C7.98047 19.6367 8.5332 19.8086 8.96289 20.1523C9.39258 20.4922 9.66797 20.9766 9.78906 21.6055L8.76367 21.7637C8.66602 21.3457 8.49219 21.0312 8.24219 20.8203C7.99609 20.6094 7.69727 20.5039 7.3457 20.5039C6.81445 20.5039 6.38281 20.6953 6.05078 21.0781C5.71875 21.457 5.55273 22.0586 5.55273 22.8828C5.55273 23.7188 5.71289 24.3262 6.0332 24.7051C6.35352 25.084 6.77148 25.2734 7.28711 25.2734C7.70117 25.2734 8.04688 25.1465 8.32422 24.8926C8.60156 24.6387 8.77734 24.248 8.85156 23.7207ZM10.791 26V17.4102H11.8457V20.4922C12.3379 19.9219 12.959 19.6367 13.709 19.6367C14.1699 19.6367 14.5703 19.7285 14.9102 19.9121C15.25 20.0918 15.4922 20.3418 15.6367 20.6621C15.7852 20.9824 15.8594 21.4473 15.8594 22.0566V26H14.8047V22.0566C14.8047 21.5293 14.6895 21.1465 14.459 20.9082C14.2324 20.666 13.9102 20.5449 13.4922 20.5449C13.1797 20.5449 12.8848 20.627 12.6074 20.791C12.334 20.9512 12.1387 21.1699 12.0215 21.4473C11.9043 21.7246 11.8457 22.1074 11.8457 22.5957V26H10.791ZM21.5312 25.2324C21.1406 25.5645 20.7637 25.7988 20.4004 25.9355C20.041 26.0723 19.6543 26.1406 19.2402 26.1406C18.5566 26.1406 18.0312 25.9746 17.6641 25.6426C17.2969 25.3066 17.1133 24.8789 17.1133 24.3594C17.1133 24.0547 17.1816 23.7773 17.3184 23.5273C17.459 23.2734 17.6406 23.0703 17.8633 22.918C18.0898 22.7656 18.3438 22.6504 18.625 22.5723C18.832 22.5176 19.1445 22.4648 19.5625 22.4141C20.4141 22.3125 21.041 22.1914 21.4434 22.0508C21.4473 21.9062 21.4492 21.8145 21.4492 21.7754C21.4492 21.3457 21.3496 21.043 21.1504 20.8672C20.8809 20.6289 20.4805 20.5098 19.9492 20.5098C19.4531 20.5098 19.0859 20.5977 18.8477 20.7734C18.6133 20.9453 18.4395 21.252 18.3262 21.6934L17.2949 21.5527C17.3887 21.1113 17.543 20.7559 17.7578 20.4863C17.9727 20.2129 18.2832 20.0039 18.6895 19.8594C19.0957 19.7109 19.5664 19.6367 20.1016 19.6367C20.6328 19.6367 21.0645 19.6992 21.3965 19.8242C21.7285 19.9492 21.9727 20.1074 22.1289 20.2988C22.2852 20.4863 22.3945 20.7246 22.457 21.0137C22.4922 21.1934 22.5098 21.5176 22.5098 21.9863V23.3926C22.5098 24.373 22.5312 24.9941 22.5742 25.2559C22.6211 25.5137 22.7109 25.7617 22.8438 26H21.7422C21.6328 25.7812 21.5625 25.5254 21.5312 25.2324ZM21.4434 22.877C21.0605 23.0332 20.4863 23.166 19.7207 23.2754C19.2871 23.3379 18.9805 23.4082 18.8008 23.4863C18.6211 23.5645 18.4824 23.6797 18.3848 23.832C18.2871 23.9805 18.2383 24.1465 18.2383 24.3301C18.2383 24.6113 18.3438 24.8457 18.5547 25.0332C18.7695 25.2207 19.082 25.3145 19.4922 25.3145C19.8984 25.3145 20.2598 25.2266 20.5762 25.0508C20.8926 24.8711 21.125 24.627 21.2734 24.3184C21.3867 24.0801 21.4434 23.7285 21.4434 23.2637V22.877ZM24.1387 26V19.7773H25.0879V20.7207C25.3301 20.2793 25.5527 19.9883 25.7559 19.8477C25.9629 19.707 26.1895 19.6367 26.4355 19.6367C26.791 19.6367 27.1523 19.75 27.5195 19.9766L27.1562 20.9551C26.8984 20.8027 26.6406 20.7266 26.3828 20.7266C26.1523 20.7266 25.9453 20.7969 25.7617 20.9375C25.5781 21.0742 25.4473 21.2656 25.3691 21.5117C25.252 21.8867 25.1934 22.2969 25.1934 22.7422V26H24.1387ZM27.9531 26.5156L28.9785 26.668C29.0215 26.9844 29.1406 27.2148 29.3359 27.3594C29.5977 27.5547 29.9551 27.6523 30.4082 27.6523C30.8965 27.6523 31.2734 27.5547 31.5391 27.3594C31.8047 27.1641 31.9844 26.8906 32.0781 26.5391C32.1328 26.3242 32.1582 25.873 32.1543 25.1855C31.6934 25.7285 31.1191 26 30.4316 26C29.5762 26 28.9141 25.6914 28.4453 25.0742C27.9766 24.457 27.7422 23.7168 27.7422 22.8535C27.7422 22.2598 27.8496 21.7129 28.0645 21.2129C28.2793 20.709 28.5898 20.3203 28.9961 20.0469C29.4062 19.7734 29.8867 19.6367 30.4375 19.6367C31.1719 19.6367 31.7773 19.9336 32.2539 20.5273V19.7773H33.2266V25.1562C33.2266 26.125 33.127 26.8105 32.9277 27.2129C32.7324 27.6191 32.4199 27.9395 31.9902 28.1738C31.5645 28.4082 31.0391 28.5254 30.4141 28.5254C29.6719 28.5254 29.0723 28.3574 28.6152 28.0215C28.1582 27.6895 27.9375 27.1875 27.9531 26.5156ZM28.8262 22.7773C28.8262 23.5938 28.9883 24.1895 29.3125 24.5645C29.6367 24.9395 30.043 25.127 30.5312 25.127C31.0156 25.127 31.4219 24.9414 31.75 24.5703C32.0781 24.1953 32.2422 23.6094 32.2422 22.8125C32.2422 22.0508 32.0723 21.4766 31.7324 21.0898C31.3965 20.7031 30.9902 20.5098 30.5137 20.5098C30.0449 20.5098 29.6465 20.7012 29.3184 21.084C28.9902 21.4629 28.8262 22.0273 28.8262 22.7773ZM39.0859 23.9961L40.1758 24.1309C40.0039 24.7676 39.6855 25.2617 39.2207 25.6133C38.7559 25.9648 38.1621 26.1406 37.4395 26.1406C36.5293 26.1406 35.8066 25.8613 35.2715 25.3027C34.7402 24.7402 34.4746 23.9531 34.4746 22.9414C34.4746 21.8945 34.7441 21.082 35.2832 20.5039C35.8223 19.9258 36.5215 19.6367 37.3809 19.6367C38.2129 19.6367 38.8926 19.9199 39.4199 20.4863C39.9473 21.0527 40.2109 21.8496 40.2109 22.877C40.2109 22.9395 40.209 23.0332 40.2051 23.1582H35.5645C35.6035 23.8418 35.7969 24.3652 36.1445 24.7285C36.4922 25.0918 36.9258 25.2734 37.4453 25.2734C37.832 25.2734 38.1621 25.1719 38.4355 24.9688C38.709 24.7656 38.9258 24.4414 39.0859 23.9961ZM35.623 22.291H39.0977C39.0508 21.7676 38.918 21.375 38.6992 21.1133C38.3633 20.707 37.9277 20.5039 37.3926 20.5039C36.9082 20.5039 36.5 20.666 36.168 20.9902C35.8398 21.3145 35.6582 21.748 35.623 22.291Z" fill="white"/>
</svg>
