<svg width="44" height="44" viewBox="0 0 44 44" fill="none" xmlns="http://www.w3.org/2000/svg">
<rect width="44" height="44" fill="#2F3138"/>
<mask id="mask0_390_30660" style="mask-type:alpha" maskUnits="userSpaceOnUse" x="14" y="14" width="16" height="16">
<path fill-rule="evenodd" clip-rule="evenodd" d="M30 14H14V30H24.7981L20.1315 23H30V14ZM30 25.8028L27.2018 30H30V25.8028Z" fill="#D9D9D9"/>
</mask>
<g mask="url(#mask0_390_30660)">
<path fill-rule="evenodd" clip-rule="evenodd" d="M27 16H17L16 17V27L17 28H27L28 27V17L27 16ZM20 18H18V20H20V18ZM18 24H20V26H18V24ZM26 18H24V20H26V18ZM24 24H26V26H24V24ZM23 21H21V23H23V21Z" fill="#808080"/>
</g>
<path d="M22 24H30L26 30L22 24Z" fill="#FF3371"/>
</svg>
