<svg width="44" height="44" viewBox="0 0 44 44" fill="none" xmlns="http://www.w3.org/2000/svg">
<rect width="44" height="44" fill="#2F3138"/>
<path d="M0.503906 10.7324L1.55859 10.5918C1.67969 11.1895 1.88477 11.6211 2.17383 11.8867C2.4668 12.1484 2.82227 12.2793 3.24023 12.2793C3.73633 12.2793 4.1543 12.1074 4.49414 11.7637C4.83789 11.4199 5.00977 10.9941 5.00977 10.4863C5.00977 10.002 4.85156 9.60352 4.53516 9.29102C4.21875 8.97461 3.81641 8.81641 3.32812 8.81641C3.12891 8.81641 2.88086 8.85547 2.58398 8.93359L2.70117 8.00781C2.77148 8.01562 2.82812 8.01953 2.87109 8.01953C3.32031 8.01953 3.72461 7.90234 4.08398 7.66797C4.44336 7.43359 4.62305 7.07227 4.62305 6.58398C4.62305 6.19727 4.49219 5.87695 4.23047 5.62305C3.96875 5.36914 3.63086 5.24219 3.2168 5.24219C2.80664 5.24219 2.46484 5.37109 2.19141 5.62891C1.91797 5.88672 1.74219 6.27344 1.66406 6.78906L0.609375 6.60156C0.738281 5.89453 1.03125 5.34766 1.48828 4.96094C1.94531 4.57031 2.51367 4.375 3.19336 4.375C3.66211 4.375 4.09375 4.47656 4.48828 4.67969C4.88281 4.87891 5.18359 5.15234 5.39062 5.5C5.60156 5.84766 5.70703 6.2168 5.70703 6.60742C5.70703 6.97852 5.60742 7.31641 5.4082 7.62109C5.20898 7.92578 4.91406 8.16797 4.52344 8.34766C5.03125 8.46484 5.42578 8.70898 5.70703 9.08008C5.98828 9.44727 6.12891 9.9082 6.12891 10.4629C6.12891 11.2129 5.85547 11.8496 5.30859 12.373C4.76172 12.8926 4.07031 13.1523 3.23438 13.1523C2.48047 13.1523 1.85352 12.9277 1.35352 12.4785C0.857422 12.0293 0.574219 11.4473 0.503906 10.7324ZM8.80078 8.3418C8.36328 8.18164 8.03906 7.95312 7.82812 7.65625C7.61719 7.35938 7.51172 7.00391 7.51172 6.58984C7.51172 5.96484 7.73633 5.43945 8.18555 5.01367C8.63477 4.58789 9.23242 4.375 9.97852 4.375C10.7285 4.375 11.332 4.59375 11.7891 5.03125C12.2461 5.46484 12.4746 5.99414 12.4746 6.61914C12.4746 7.01758 12.3691 7.36523 12.1582 7.66211C11.9512 7.95508 11.6348 8.18164 11.209 8.3418C11.7363 8.51367 12.1367 8.79102 12.4102 9.17383C12.6875 9.55664 12.8262 10.0137 12.8262 10.5449C12.8262 11.2793 12.5664 11.8965 12.0469 12.3965C11.5273 12.8965 10.8438 13.1465 9.99609 13.1465C9.14844 13.1465 8.46484 12.8965 7.94531 12.3965C7.42578 11.8926 7.16602 11.2656 7.16602 10.5156C7.16602 9.95703 7.30664 9.49023 7.58789 9.11523C7.87305 8.73633 8.27734 8.47852 8.80078 8.3418ZM8.58984 6.55469C8.58984 6.96094 8.7207 7.29297 8.98242 7.55078C9.24414 7.80859 9.58398 7.9375 10.002 7.9375C10.4082 7.9375 10.7402 7.81055 10.998 7.55664C11.2598 7.29883 11.3906 6.98438 11.3906 6.61328C11.3906 6.22656 11.2559 5.90234 10.9863 5.64062C10.7207 5.375 10.3887 5.24219 9.99023 5.24219C9.58789 5.24219 9.25391 5.37109 8.98828 5.62891C8.72266 5.88672 8.58984 6.19531 8.58984 6.55469ZM8.25 10.5215C8.25 10.8223 8.32031 11.1133 8.46094 11.3945C8.60547 11.6758 8.81836 11.8945 9.09961 12.0508C9.38086 12.2031 9.68359 12.2793 10.0078 12.2793C10.5117 12.2793 10.9277 12.1172 11.2559 11.793C11.584 11.4688 11.748 11.0566 11.748 10.5566C11.748 10.0488 11.5781 9.62891 11.2383 9.29688C10.9023 8.96484 10.4805 8.79883 9.97266 8.79883C9.47656 8.79883 9.06445 8.96289 8.73633 9.29102C8.41211 9.61914 8.25 10.0293 8.25 10.5215Z" fill="white"/>
<path fill-rule="evenodd" clip-rule="evenodd" d="M27 16H17L16 17V27L17 28H27L28 27V17L27 16ZM20 18H18V20H20V18ZM18 24H20V26H18V24ZM26 18H24V20H26V18ZM24 24H26V26H24V24ZM23 21H21V23H23V21Z" fill="#9938A9"/>
<path d="M22.7617 30.8438V28.7227H29.2422V30.8438H22.7617ZM38.9336 36H36.8242V22.5586C36.3164 23.043 35.6484 23.5273 34.8203 24.0117C34 24.4961 33.2617 24.8594 32.6055 25.1016V23.0625C33.7852 22.5078 34.8164 21.8359 35.6992 21.0469C36.582 20.2578 37.207 19.4922 37.5742 18.75H38.9336V36Z" fill="white"/>
</svg>
