<svg width="240" height="192" viewBox="0 0 240 192" fill="none" xmlns="http://www.w3.org/2000/svg">
<path d="M114 25H132V29H128H118H117H116L114 25Z" fill="#952A2A"/>
<path d="M132 29L128 35H146L142 32L146 29H132Z" fill="#952A2A"/>
<path d="M128 35L132 29H128V35Z" fill="#952A2A"/>
<path d="M128 35L132 29H128V35Z" fill="black" fill-opacity="0.6"/>
<path d="M132 29V25H114L116 29H117M132 29L128 35M132 29H146L142 32L146 35H128M132 29H128M128 35V29M118 29V39H117V29M118 29H117M118 29H128" stroke="black" stroke-width="2"/>
<path d="M110.275 35H125V42H118H114H110H106L110.275 35Z" fill="#666060"/>
<path d="M106 42H104L108.091 49.5V65L123 56H131L126 52V42H125H118H114H110H106Z" fill="#666060"/>
<path d="M125 42V35H110.275L106 42M125 42H126V52L131 56H123L108.091 65V49.5M125 42H118M106 42H104L108.091 49.5M106 42H110M114 53H110L108.091 49.5M110 42V45M110 42H114M114 42V45M114 42H118M118 42V45" stroke="black" stroke-width="2"/>
</svg>
