<svg width="240" height="192" viewBox="0 0 240 192" fill="none" xmlns="http://www.w3.org/2000/svg">
<path d="M118.5 110.5H136.5L135 93H108V133L118.5 110.5Z" fill="#4B1414" stroke="black" stroke-width="2"/>
<path d="M141.928 141L129 141L129.64 151.238L133.64 165.952L133 175H145L141.928 141Z" fill="#292626" stroke="black" stroke-width="2"/>
<path opacity="0.3" d="M143 192H132L133 186L132 176H157V181L150 182L143 187V192Z" fill="url(#paint0_linear_3573_10937)"/>
<path d="M140.063 111.636L140.063 101.065L131.92 104.835L131.659 104.956L131.373 104.919L117.593 103.15L122.145 114.001L134.111 117.033L140.063 111.636Z" fill="#292626" stroke="black" stroke-width="2"/>
<path d="M141.086 120.615L141.734 108.039L133.05 113.762L132.741 113.966L132.373 113.919L118.593 112.15L123.145 123.001L135.111 126.033L141.086 120.615Z" fill="#292626" stroke="black" stroke-width="2"/>
<path d="M143.086 128.615L143.734 116.039L135.05 121.762L134.741 121.966L134.373 121.919L120.593 120.15L125.145 131.001L137.111 134.033L143.086 128.615Z" fill="#292626" stroke="black" stroke-width="2"/>
<path d="M97.4892 121.689L115.157 118.388L115.157 106.652L93.6389 109.668L97.4892 121.689Z" fill="#292626" stroke="black" stroke-width="2"/>
<path d="M97.7653 109.637L115.157 106.387L115.157 94.6848L97.3539 97.6825L97.7653 109.637Z" fill="#292626" stroke="black" stroke-width="2"/>
<path d="M97.4892 130.186L115.157 126.885L115.157 115.15L93.6389 118.165L97.4892 130.186Z" fill="#292626" stroke="black" stroke-width="2"/>
<path d="M97.4763 141.146L111.442 137.857L116.56 126.219L93.6429 129.178L97.4763 141.146Z" fill="#292626" stroke="black" stroke-width="2"/>
<path d="M140.629 146.072L127.111 151.478L127.931 140L145 140L145 150.238L141.768 146.36L141.303 145.802L140.629 146.072Z" fill="#292626" stroke="black" stroke-width="2"/>
<path d="M127.994 140L144.994 140L144.994 125L141 132L123.994 126L127.994 140Z" fill="#292626" stroke="black" stroke-width="2"/>
<path d="M100 140H113L116 149L111 165L112 175H104L100 168V140Z" fill="#292626" stroke="black" stroke-width="2"/>
<path opacity="0.3" d="M100 192H112L110.75 187L113 176H86L84 179L96 183L101 188L100 192Z" fill="url(#paint1_linear_3573_10937)"/>
<path d="M101 165L107 175H86L85 173L96 171L101 165Z" fill="#292626" stroke="black" stroke-width="2"/>
<path d="M143 165L150 170L156 171.5V175H138V171L143 165Z" fill="#292626" stroke="black" stroke-width="2"/>
<path d="M94.2861 146.477L97.677 138H106.198L109.594 153.281L94.2861 146.477Z" fill="#292626" stroke="black" stroke-width="2"/>
<rect width="12" height="12" rx="6" transform="matrix(1 0 0 -1 105 145)" fill="#292626" stroke="black" stroke-width="2"/>
<rect x="140" y="137" width="2" height="2" fill="black"/>
<defs>
<linearGradient id="paint0_linear_3573_10937" x1="144.5" y1="192" x2="144.5" y2="176" gradientUnits="userSpaceOnUse">
<stop stop-opacity="0"/>
<stop offset="1"/>
</linearGradient>
<linearGradient id="paint1_linear_3573_10937" x1="98.5" y1="192" x2="98.5" y2="176" gradientUnits="userSpaceOnUse">
<stop stop-opacity="0"/>
<stop offset="1"/>
</linearGradient>
</defs>
</svg>
