<svg width="240" height="192" viewBox="0 0 240 192" fill="none" xmlns="http://www.w3.org/2000/svg">
<path d="M134.5 105.5L133 56H110L98 105.5H134.5Z" fill="#4B1414" stroke="black" stroke-width="2"/>
<path d="M120.5 74L122.5 56H104L100 74V87H133V82L137 69L120.5 74Z" fill="#666060" stroke="black" stroke-width="2"/>
<path d="M107 87L102 87L94.9661 108.468L95.4349 108.642L107 87Z" fill="#666060" stroke="black" stroke-width="2"/>
<path d="M123.5 86H104V110H115.5L123.5 86Z" fill="#666060" stroke="black" stroke-width="2"/>
<path d="M122 86H134.5L138.5 90.5L142.5 110H126L122 86Z" fill="#666060"/>
<path d="M122 86H134.5L138.5 90.5L142.5 110H126L122 86Z" fill="black" fill-opacity="0.4"/>
<path d="M122 86H134.5L138.5 90.5L142.5 110H126L122 86Z" stroke="black" stroke-width="2"/>
<path d="M115 84H117H119V91H115V84Z" fill="#666060"/>
<path d="M117 84H115V91H119V84H117ZM117 84V79" stroke="black" stroke-width="2"/>
<path d="M130 84H132H134V91H130V84Z" fill="#3D3A3A"/>
<path d="M132 84H130V91H134V84H132ZM132 84V79" stroke="black" stroke-width="2"/>
<path d="M107 84H104V91H107V84Z" fill="#666060"/>
<path d="M104 84H107V91H104V84ZM104 84V79" stroke="black" stroke-width="2"/>
</svg>
