<svg width="240" height="195" viewBox="0 0 240 195" fill="none" xmlns="http://www.w3.org/2000/svg">
<path d="M86 95.5L73.5 76.5L84 75.5L88.5 80L105.5 70L105 91L86 95.5Z" fill="#3A2E2E"/>
<path d="M86 95.5L73.5 76.5L84 75.5L88.5 80L105.5 70L105 91L86 95.5Z" fill="url(#paint0_linear_3574_11388)" fill-opacity="0.6"/>
<path d="M86 95.5L73.5 76.5L84 75.5L88.5 80L105.5 70L105 91L86 95.5Z" stroke="black" stroke-width="2"/>
<path d="M81.1574 72.7838L73.6972 75.6718L68 67.7031L84.0559 65.4184L81.6574 69.4187L81.1574 72.7838Z" fill="#94491F"/>
<path d="M81.1574 72.7838L73.6972 75.6718L68 67.7031L84.0559 65.4184L81.6574 69.4187L81.1574 72.7838ZM81.1574 72.7838L80.056 69.4185" stroke="black" stroke-width="2"/>
<path d="M86.9616 78.3413L80.4984 77.7124L79.738 89.0821L73 76.156L81.5898 72.235L86.9616 78.3413Z" fill="#94491F" stroke="black" stroke-width="2"/>
<path d="M99.4657 96.3084L110.645 96.3084L110.645 60.6693L99.4657 64.6693L92.0001 79.5L92.0001 114L99.4657 96.3084Z" fill="#952A2A"/>
<path d="M99.4657 96.3084L110.645 96.3084L110.645 60.6693L99.4657 64.6693L92.0001 79.5L92.0001 114L99.4657 96.3084Z" fill="url(#paint1_linear_3574_11388)" fill-opacity="0.6"/>
<path d="M99.4657 96.3084L110.645 96.3084L110.645 60.6693L99.4657 64.6693L92.0001 79.5L92.0001 114L99.4657 96.3084Z" stroke="black" stroke-width="2"/>
<path d="M94.5942 56.1387L141.545 46.1589L142.169 49.0934L147.414 44.9114L215.884 30.3576L214.051 40.9707L96.6733 65.9201L94.5942 56.1387Z" fill="url(#paint2_linear_3574_11388)" stroke="black" stroke-width="2"/>
<path d="M86.6199 54.7666L87.2059 38.2846L91.1185 37.4529L94.4451 53.1033L86.6199 54.7666Z" fill="#353535" stroke="black" stroke-width="2"/>
<path d="M97.1857 85.2358L90.45 70.3101L97.7717 68.7538L101.098 84.4042L97.1857 85.2358Z" fill="#353535" stroke="black" stroke-width="2"/>
<path d="M93.8591 69.5853L90.5325 53.935L94.4451 53.1033L99.1894 56.1843L100.853 64.0095L97.7717 68.7537L93.8591 69.5853Z" fill="#353535"/>
<path d="M93.8591 69.5853L90.5325 53.935M93.8591 69.5853L97.7717 68.7537L100.853 64.0095L99.1894 56.1843L94.4451 53.1033L90.5325 53.935M93.8591 69.5853L89.9465 70.417M90.5325 53.935L86.6199 54.7666" stroke="black" stroke-width="2"/>
<path d="M88.0376 42.1973L87.206 38.2847L94.1995 32.7088L95.0311 36.6214L88.0376 42.1973Z" fill="#353535"/>
<path d="M94.1995 32.7088L87.206 38.2847L88.0376 42.1973L95.0311 36.6214L94.1995 32.7088ZM94.1995 32.7088L92.7441 25.8618" stroke="black" stroke-width="2"/>
<path d="M97.1857 85.2355L96.354 81.3229L105.011 83.5722L105.843 87.4848L97.1857 85.2355Z" fill="#353535"/>
<path d="M105.843 87.4848L105.011 83.5722L96.354 81.3229L97.1857 85.2355L105.843 87.4848ZM105.843 87.4848L107.298 94.3318" stroke="black" stroke-width="2"/>
<path d="M45.8927 66.4904L49.5994 65.7025L51.6785 75.484L47.9718 76.2719L46.9323 71.3811L45.8927 66.4904Z" fill="#353535"/>
<path d="M46.9323 71.3811L47.9718 76.2719L51.6785 75.484L49.5994 65.7025L45.8927 66.4904L46.9323 71.3811ZM46.9323 71.3811L41.8356 72.4645" stroke="black" stroke-width="2"/>
<rect x="50.0152" y="67.6587" width="42" height="6" transform="rotate(-12 50.0152 67.6587)" fill="#4E423D" stroke="black" stroke-width="2"/>
<path d="M54.9059 66.619L86.2067 59.9659L83.5415 66.6664L52.2408 73.3196L54.9059 66.619Z" fill="#4E423D" stroke="black" stroke-width="2"/>
<path d="M74.6862 62.415L60.7748 65.372L63.7612 70.8713L77.6726 67.9143L74.6862 62.415Z" fill="#4E423D" stroke="black" stroke-width="2"/>
<path d="M79.6971 55.7661L76.3922 56.1351L77.0577 62.0979L80.3626 61.7291L79.6971 55.7661Z" fill="#B87F4A" stroke="black" stroke-width="2"/>
<path d="M69.1702 60.6914L65.3922 62.0057L67.3635 67.6725L71.1414 66.3584L69.1702 60.6914Z" fill="#B87F4A" stroke="black" stroke-width="2"/>
<path d="M71.2626 58.6914L68.1115 59.5141L69.9057 66.3871L73.0567 65.5645L71.2626 58.6914Z" fill="#B87F4A" stroke="black" stroke-width="2"/>
<path d="M75.1548 57.9502L71.9015 58.2129L72.445 64.9483L75.6983 64.6858L75.1548 57.9502Z" fill="#B87F4A" stroke="black" stroke-width="2"/>
<defs>
<linearGradient id="paint0_linear_3574_11388" x1="149.75" y1="55" x2="149.75" y2="94.5" gradientUnits="userSpaceOnUse">
<stop stop-opacity="0"/>
<stop offset="1"/>
</linearGradient>
<linearGradient id="paint1_linear_3574_11388" x1="108.107" y1="97.0651" x2="97.7529" y2="62.3563" gradientUnits="userSpaceOnUse">
<stop stop-opacity="0"/>
<stop offset="1"/>
</linearGradient>
<linearGradient id="paint2_linear_3574_11388" x1="56.9237" y1="71.3022" x2="247.162" y2="38.0223" gradientUnits="userSpaceOnUse">
<stop stop-color="#353535"/>
<stop offset="1"/>
</linearGradient>
</defs>
</svg>
