<svg width="240" height="195" viewBox="0 0 240 195" fill="none" xmlns="http://www.w3.org/2000/svg">
<path d="M86.5 101.5L76.5 77.5L86.5 74.5L94.5 83.5L108 69V95.5L92 101.5H86.5Z" fill="#3A2E2E"/>
<path d="M86.5 101.5L76.5 77.5L86.5 74.5L94.5 83.5L108 69V95.5L92 101.5H86.5Z" fill="url(#paint0_linear_3574_11388)" fill-opacity="0.6"/>
<path d="M86.5 101.5L76.5 77.5L86.5 74.5L94.5 83.5L108 69V95.5L92 101.5H86.5Z" stroke="black" stroke-width="2"/>
<path d="M85.1015 74.3654L77.6412 77.2533L71.444 66.7846L93.5 63L86.5 69L85.1015 74.3654Z" fill="#94491F"/>
<path d="M85.1015 74.3654L77.6412 77.2533L71.444 66.7846L93.5 63L86.5 69L85.1015 74.3654ZM85.1015 74.3654L84 71" stroke="black" stroke-width="2"/>
<path d="M91 80.4999L84 79.4998L81.5 90.9999L76 77.5L86 74L91 80.4999Z" fill="#94491F" stroke="black" stroke-width="2"/>
<path d="M99.4657 96.3084L110.645 96.3084L110.645 60.6693L99.4657 64.6693L92.0002 79.5L92.0002 114L99.4657 96.3084Z" fill="#952A2A"/>
<path d="M99.4657 96.3084L110.645 96.3084L110.645 60.6693L99.4657 64.6693L92.0002 79.5L92.0002 114L99.4657 96.3084Z" fill="url(#paint1_linear_3574_11388)" fill-opacity="0.6"/>
<path d="M99.4657 96.3084L110.645 96.3084L110.645 60.6693L99.4657 64.6693L92.0002 79.5L92.0002 114L99.4657 96.3084Z" stroke="black" stroke-width="2"/>
<path d="M94.5942 56.1387L141.545 46.1589L142.169 49.0934L147.414 44.9114L215.884 30.3576L214.051 40.9707L96.6733 65.9201L94.5942 56.1387Z" fill="url(#paint2_linear_3574_11388)" stroke="black" stroke-width="2"/>
<path d="M86.6199 54.7666L87.2059 38.2846L91.1185 37.4529L94.4451 53.1033L86.6199 54.7666Z" fill="#353535" stroke="black" stroke-width="2"/>
<path d="M97.1857 85.2358L90.45 70.3101L97.7717 68.7538L101.098 84.4042L97.1857 85.2358Z" fill="#353535" stroke="black" stroke-width="2"/>
<path d="M93.8591 69.5853L90.5325 53.935L94.4451 53.1033L99.1893 56.1843L100.853 64.0095L97.7717 68.7537L93.8591 69.5853Z" fill="#353535"/>
<path d="M93.8591 69.5853L90.5325 53.935M93.8591 69.5853L97.7717 68.7537L100.853 64.0095L99.1893 56.1843L94.4451 53.1033L90.5325 53.935M93.8591 69.5853L89.9465 70.417M90.5325 53.935L86.6199 54.7666" stroke="black" stroke-width="2"/>
<path d="M88.0376 42.1973L87.206 38.2847L94.1995 32.7088L95.0311 36.6214L88.0376 42.1973Z" fill="#353535"/>
<path d="M94.1995 32.7088L87.206 38.2847L88.0376 42.1973L95.0311 36.6214L94.1995 32.7088ZM94.1995 32.7088L92.7441 25.8618" stroke="black" stroke-width="2"/>
<path d="M97.1857 85.2355L96.354 81.3229L105.011 83.5722L105.843 87.4848L97.1857 85.2355Z" fill="#353535"/>
<path d="M105.843 87.4848L105.011 83.5722L96.354 81.3229L97.1857 85.2355L105.843 87.4848ZM105.843 87.4848L107.298 94.3318" stroke="black" stroke-width="2"/>
<path d="M45.8927 66.4904L49.5994 65.7025L51.6785 75.484L47.9718 76.2719L46.9323 71.3811L45.8927 66.4904Z" fill="#353535"/>
<path d="M46.9323 71.3811L47.9718 76.2719L51.6785 75.484L49.5994 65.7025L45.8927 66.4904L46.9323 71.3811ZM46.9323 71.3811L41.8356 72.4645" stroke="black" stroke-width="2"/>
<rect x="50.0152" y="67.6587" width="42" height="6" transform="rotate(-12 50.0152 67.6587)" fill="#4E423D" stroke="black" stroke-width="2"/>
<path d="M54.9059 66.619L86.2067 59.9659L83.5415 66.6664L52.2408 73.3196L54.9059 66.619Z" fill="#4E423D" stroke="black" stroke-width="2"/>
<path d="M74.6862 62.415L60.7748 65.372L63.7612 70.8713L77.6726 67.9143L74.6862 62.415Z" fill="#4E423D" stroke="black" stroke-width="2"/>
<path d="M85.9753 55L82 55.4438L82.6655 61.4067L86.6408 60.963L85.9753 55Z" fill="#B87F4A" stroke="black" stroke-width="2"/>
<path d="M72.778 60L69 61.3143L70.9712 66.9811L74.7492 65.667L72.778 60Z" fill="#B87F4A" stroke="black" stroke-width="2"/>
<path d="M76.8703 58L73 59.0104L74.7942 65.8834L78.6645 64.8731L76.8703 58Z" fill="#B87F4A" stroke="black" stroke-width="2"/>
<path d="M81.4962 57.1997L77.5092 57.5216L78.1339 65.2625L82.1209 64.9407L81.4962 57.1997Z" fill="#B87F4A" stroke="black" stroke-width="2"/>
<defs>
<linearGradient id="paint0_linear_3574_11388" x1="152.25" y1="54" x2="152.25" y2="93.5" gradientUnits="userSpaceOnUse">
<stop stop-opacity="0"/>
<stop offset="1"/>
</linearGradient>
<linearGradient id="paint1_linear_3574_11388" x1="108.107" y1="97.0651" x2="97.7529" y2="62.3563" gradientUnits="userSpaceOnUse">
<stop stop-opacity="0"/>
<stop offset="1"/>
</linearGradient>
<linearGradient id="paint2_linear_3574_11388" x1="56.9237" y1="71.3022" x2="247.162" y2="38.0223" gradientUnits="userSpaceOnUse">
<stop stop-color="#353535"/>
<stop offset="1"/>
</linearGradient>
</defs>
</svg>
