<svg width="240" height="192" viewBox="0 0 240 192" fill="none" xmlns="http://www.w3.org/2000/svg">
<path d="M147 96L139 96L137 108L147 107.999L147 96Z" fill="#666060"/>
<path d="M147 96L139 96L137 108L147 107.999L147 96Z" fill="white" fill-opacity="0.2"/>
<path d="M147 96L139 96L137 108L147 107.999L147 96Z" stroke="black" stroke-width="2"/>
<path d="M151 100L147 97L147.001 106L151 106V100Z" fill="#292626" stroke="black" stroke-width="2"/>
<path d="M146 91L140 91.0001V96H146L146 91Z" fill="#666060" stroke="black" stroke-width="2"/>
<path d="M143 104L139 104V112H143L143 104Z" fill="#666060" stroke="black" stroke-width="2"/>
<path d="M139 104L135 104V112H139L139 104Z" fill="#666060" stroke="black" stroke-width="2"/>
<path d="M147 104L143 104V110H147L147 104Z" fill="#666060" stroke="black" stroke-width="2"/>
<path d="M132 59H140L172.5 71L164.5 74.875L168.5 90.75L160.5 90.625L164.5 98.5H145L136 75.2892H132V59Z" fill="#3A2E2E"/>
<path d="M132 59H140L172.5 71L164.5 74.875L168.5 90.75L160.5 90.625L164.5 98.5H145L136 75.2892H132V59Z" fill="url(#paint0_linear_3574_11367)" fill-opacity="0.6"/>
<path d="M132 59H140L172.5 71L164.5 74.875L168.5 90.75L160.5 90.625L164.5 98.5H145L136 75.2892H132V59Z" stroke="black" stroke-width="2"/>
<path d="M137 78V78C145.284 78 152 71.2843 152 63V55H137V78Z" fill="#666060"/>
<path d="M137 78V78C145.284 78 152 71.2843 152 63V55H137V78Z" fill="black" fill-opacity="0.6"/>
<path d="M137 78V78C145.284 78 152 71.2843 152 63V55H137V78Z" stroke="black" stroke-width="2"/>
<path d="M128 69.1205V59H140L168.5 67L160.5 70.875L168.5 82.75L153 84V99L144 84L139 99V84L128 69.1205Z" fill="#952A2A"/>
<path d="M128 69.1205V59H140L168.5 67L160.5 70.875L168.5 82.75L153 84V99L144 84L139 99V84L128 69.1205Z" fill="url(#paint1_linear_3574_11367)" fill-opacity="0.6"/>
<path d="M139 84V99L144 84L153 99V84L168.5 82.75L160.5 70.875L168.5 67L140 59H128V69.1205L139 84ZM139 84V75" stroke="black" stroke-width="2"/>
<rect x="141" y="51" width="2" height="3" fill="black"/>
<rect x="145" y="51" width="2" height="3" fill="black"/>
<rect x="149" y="51" width="2" height="3" fill="black"/>
<rect x="142" y="55" width="10" height="4" fill="#666060" stroke="black" stroke-width="2"/>
<path d="M123 78V78C133.493 78 142 69.4934 142 59V55H127L123 78Z" fill="#666060" stroke="black" stroke-width="2"/>
<path d="M127 128L123 128L123 157L123 161L127 161L164.207 149.287C174.202 146.14 181 136.873 181 126.394L181 110L177 110L177 125.631C177 135.347 170.627 143.912 161.322 146.703L127 157L127 128Z" fill="#5B4938"/>
<path d="M123 157L123 128L127 128L127 157M123 157L123 161L127 161L164.207 149.287C174.202 146.14 181 136.873 181 126.394L181 110L177 110L177 125.631C177 135.347 170.627 143.912 161.322 146.703L127 157M123 157L127 157" stroke="black" stroke-width="2"/>
<path d="M111.009 94.9004L178.624 76.7831L203.05 86.8027L188.2 112.522L120.586 130.64L121.912 108.543L111.009 94.9004Z" fill="#372626" stroke="black" stroke-width="2"/>
<path opacity="0.5" d="M111.009 94.9004L178.624 76.7831L203.05 86.8027L121.912 108.543L111.009 94.9004Z" fill="#785952"/>
<rect x="124.033" y="104.87" width="23" height="6" transform="rotate(-15 124.033 104.87)" fill="#D9D9D9"/>
<rect x="164.602" y="93.999" width="23" height="6" transform="rotate(-15 164.602 93.999)" fill="#D9D9D9"/>
<path d="M132.588 94.295L132.847 95.2609L138.023 114.579L138.541 116.511L132.745 118.064L132.228 116.132L127.051 96.8139L126.792 95.8479L132.588 94.295Z" fill="#D9D9D9"/>
<path d="M132.847 95.2609L132.588 94.295L126.792 95.8479L127.051 96.8139M132.847 95.2609L135.744 94.4845M132.847 95.2609L138.023 114.579M127.051 96.8139L124.153 97.5903M127.051 96.8139L132.228 116.132M138.023 114.579L138.541 116.511L132.745 118.064L132.228 116.132M138.023 114.579L140.921 113.803M132.228 116.132L129.33 116.909" stroke="white" stroke-width="2"/>
<path d="M179.918 81.6129L180.177 82.5788L185.353 101.897L185.871 103.829L180.076 105.382L179.558 103.45L174.381 84.1317L174.123 83.1658L179.918 81.6129Z" fill="#D9D9D9"/>
<path d="M180.177 82.5788L179.918 81.6129L174.123 83.1658L174.381 84.1317M180.177 82.5788L183.075 81.8024M180.177 82.5788L185.353 101.897M174.381 84.1317L171.484 84.9082M174.381 84.1317L179.558 103.45M185.353 101.897L185.871 103.829L180.076 105.382L179.558 103.45M185.353 101.897L188.251 101.121M179.558 103.45L176.66 104.227" stroke="white" stroke-width="2"/>
<path d="M166 116C164 109.5 151.907 108.683 148.899 105.274C146.072 102.071 146.188 97.4812 148.591 94.0744C151.263 90.2858 156.091 88.2728 160.662 88.5959C164.851 88.892 169.068 91.3486 170.208 95.6026L158.617 98.7084" stroke="url(#paint2_linear_3574_11367)" stroke-width="6"/>
<rect x="177.437" y="107.125" width="4" height="4" transform="rotate(-15 177.437 107.125)" fill="#292626" stroke="black" stroke-width="2"/>
<rect x="128.174" y="120.324" width="4" height="4" transform="rotate(-15 128.174 120.324)" fill="#292626" stroke="black" stroke-width="2"/>
<rect x="120.151" y="90.3804" width="4" height="4" transform="rotate(-15 120.151 90.3804)" fill="#292626" stroke="black" stroke-width="2"/>
<rect x="169.413" y="77.1807" width="4" height="4" transform="rotate(-15 169.413 77.1807)" fill="#292626" stroke="black" stroke-width="2"/>
<path d="M145.248 123.543L149.715 124.762L147.904 118L144.04 119.035L145.248 123.543Z" fill="#292626"/>
<path d="M149.715 124.762L145.248 123.543L144.04 119.035L147.904 118L149.715 124.762ZM149.715 124.762L150.233 126.693L136.71 130.317L134.235 134.604" stroke="black" stroke-width="2"/>
<rect x="158" y="96" width="2" height="9" fill="#D9D9D9"/>
<path d="M123 130H127V133.5L123 135V130Z" fill="black"/>
<path d="M177 115H181V118.5L177 120V115Z" fill="black"/>
<defs>
<linearGradient id="paint0_linear_3574_11367" x1="148.25" y1="59" x2="148.25" y2="98.5" gradientUnits="userSpaceOnUse">
<stop stop-opacity="0"/>
<stop offset="1"/>
</linearGradient>
<linearGradient id="paint1_linear_3574_11367" x1="148.25" y1="59" x2="148.25" y2="98.5" gradientUnits="userSpaceOnUse">
<stop stop-opacity="0"/>
<stop offset="1"/>
</linearGradient>
<linearGradient id="paint2_linear_3574_11367" x1="156.029" y1="89.0494" x2="161.205" y2="108.368" gradientUnits="userSpaceOnUse">
<stop stop-color="#D9D9D9"/>
<stop offset="1" stop-color="white"/>
</linearGradient>
</defs>
</svg>
