<svg width="240" height="192" viewBox="0 0 240 192" fill="none" xmlns="http://www.w3.org/2000/svg">
<path d="M109 58L99.6786 52.0468L103 56L109.893 63.0175L125.5 52.0468L122 38.807L129.857 46L134.964 55L133 39L118.143 30H107V34V42L118.143 49L109 58Z" fill="#3E3838"/>
<path d="M125.5 52.0468L109.893 63.0175L103 56H96L104 65V79L113 68.8947L118.143 83L122 68L134.964 73.5965L131 62L166 68.8947L134.964 55L129.857 46L122 38.807L125.5 52.0468Z" fill="#3E3838"/>
<path d="M107 34L99.6786 52.0468L107 42V34Z" fill="#3E3838"/>
<path d="M99.6786 52.0468L109 58L118.143 49L107 42L99.6786 52.0468Z" fill="#3E3838"/>
<path d="M99.6786 52.0468L109 58L118.143 49L107 42L99.6786 52.0468Z" fill="black" fill-opacity="0.8"/>
<path d="M99.6786 52.0468L109 58L118.143 49L107 42M99.6786 52.0468L107 34M99.6786 52.0468L107 42M99.6786 52.0468L103 56M107 34V42M107 34V30H118.143L133 39L134.964 55M166 68.8947L131 62L134.964 73.5965M166 68.8947L134.964 55M166 68.8947V75M134.964 73.5965L122 68L118.143 83M134.964 73.5965V77M118.143 83L113 68.8947L104 79M118.143 83L121.5 84M104 79V65L96 56M104 79L106.5 82.5M96 56H103M96 56V52.0468M134.964 55L129.857 46L122 38.807L125.5 52.0468L109.893 63.0175L103 56" stroke="black" stroke-width="2"/>
</svg>
