<svg width="240" height="192" viewBox="0 0 240 192" fill="none" xmlns="http://www.w3.org/2000/svg">
<path d="M151.5 111.417V165.035L141.364 161.069L140.962 160.911L140.572 161.096L131.47 165.407L120.879 161.074L120.481 160.912L120.09 161.088L111.55 164.931L113.969 89H143.787L151.5 111.417Z" fill="#363636" stroke="black" stroke-width="2"/>
<path d="M118.5 110.5H136.5L135 93H108V133L118.5 110.5Z" fill="#4B1414" stroke="black" stroke-width="2"/>
<path d="M141.928 141L129 141L129.64 151.238L133.64 165.952L133 175H145L141.928 141Z" fill="#292626" stroke="black" stroke-width="2"/>
<path opacity="0.3" d="M143 192H132L133 186L132 176H153V181L146 182L143 187V192Z" fill="url(#paint0_linear_3574_11346)"/>
<path d="M140.063 111.636L140.063 101.065L131.92 104.835L131.659 104.956L131.373 104.919L117.593 103.15L122.145 114.001L134.111 117.033L140.063 111.636Z" fill="#292626" stroke="black" stroke-width="2"/>
<path d="M141.086 120.615L141.734 108.039L133.05 113.762L132.741 113.966L132.373 113.919L118.593 112.15L123.145 123.001L135.111 126.033L141.086 120.615Z" fill="#292626" stroke="black" stroke-width="2"/>
<path d="M143.086 128.615L143.734 116.039L135.05 121.762L134.741 121.966L134.373 121.919L120.593 120.15L125.145 131.001L137.111 134.033L143.086 128.615Z" fill="#292626" stroke="black" stroke-width="2"/>
<path d="M97.4892 121.689L115.157 118.388L115.157 106.652L93.6389 109.668L97.4892 121.689Z" fill="#292626" stroke="black" stroke-width="2"/>
<path d="M97.7653 109.637L115.157 106.387L115.157 94.6848L97.3539 97.6825L97.7653 109.637Z" fill="#292626" stroke="black" stroke-width="2"/>
<path d="M97.4892 130.186L115.157 126.885L115.157 115.15L93.6389 118.165L97.4892 130.186Z" fill="#292626" stroke="black" stroke-width="2"/>
<path d="M97.4763 141.146L111.442 137.857L116.56 126.219L93.6429 129.178L97.4763 141.146Z" fill="#292626" stroke="black" stroke-width="2"/>
<path d="M140.629 146.072L127.111 151.478L127.931 140L145 140L145 150.238L141.768 146.36L141.303 145.802L140.629 146.072Z" fill="#292626" stroke="black" stroke-width="2"/>
<path d="M127.994 140L144.994 140L144.994 125L141 132L123.994 126L127.994 140Z" fill="#292626" stroke="black" stroke-width="2"/>
<path d="M100 140H113L116 149L111 165L112 175H104L100 168V140Z" fill="#292626" stroke="black" stroke-width="2"/>
<path opacity="0.3" d="M100 192H112L110.75 187L113 176H90L88 179L96 183L101 188L100 192Z" fill="url(#paint1_linear_3574_11346)"/>
<path d="M101 165L107 175H90L89 173L96 171L101 165Z" fill="#292626" stroke="black" stroke-width="2"/>
<path d="M143 165L146 170L152 171.5V175H138V171L143 165Z" fill="#292626" stroke="black" stroke-width="2"/>
<path d="M94.2861 146.477L97.677 138H106.198L109.594 153.281L94.2861 146.477Z" fill="#292626" stroke="black" stroke-width="2"/>
<rect width="12" height="12" rx="6" transform="matrix(1 0 0 -1 105 145)" fill="#292626" stroke="black" stroke-width="2"/>
<rect x="140" y="137" width="2" height="2" fill="black"/>
<path d="M101.511 89H139.313L135.514 111.08L135.5 111.165V111.25V165.409L126 164.583V162V160.763L124.79 161.022L105 165.263V162V160.42L103.572 161.096L95.5281 164.906L96.7443 95.5819L101.511 89Z" fill="#363636" stroke="black" stroke-width="2"/>
<path d="M114 130H117V158H114V130Z" fill="#D9D9D9"/>
<path d="M114 130H117M114 130V158M114 130H112M117 130V158M117 130H119M117 158H114M117 158H119M114 158H112" stroke="white"/>
<path d="M102 137H105V149H102V137Z" fill="#D9D9D9"/>
<path d="M102 137H105V149M102 137V149M102 137H100M105 149H102M105 149H107M102 149H100" stroke="white"/>
<path d="M126 141H129V153H126V141Z" fill="#D9D9D9"/>
<path d="M129 141H126V153H129M129 141V153M129 141H131M129 153H131" stroke="white"/>
<path d="M121 130H124V142H121V130Z" fill="#D9D9D9"/>
<path d="M121 130H124M121 130V142M121 130H119M124 130V142M124 130H126M124 142H121M124 142H126M121 142H119" stroke="white"/>
<path d="M114 102H117V114H114V102Z" fill="#D9D9D9"/>
<path d="M114 102H117M114 102V114M114 102H112M117 102V114M117 102H119M117 114H114M117 114H119M114 114H112" stroke="white"/>
<path d="M114 147L114 150L105 150L105 147L114 147Z" fill="#D9D9D9"/>
<path d="M114 147L114 150M114 147L105 147M114 147L114 145M114 150L105 150M114 150L114 152M105 150L105 147M105 150L105 152M105 147L105 145" stroke="white"/>
<path d="M126 147L126 150L117 150L117 147L126 147Z" fill="#D9D9D9"/>
<path d="M126 147L126 150M126 147L117 147M126 147L126 145M126 150L117 150M126 150L126 152M117 150L117 147M117 150L117 152M117 147L117 145" stroke="white"/>
<path d="M115.5 135C113.423 135 111.393 134.384 109.667 133.23C107.94 132.077 106.594 130.437 105.799 128.518C105.005 126.6 104.797 124.488 105.202 122.452C105.607 120.415 106.607 118.544 108.075 117.075C109.544 115.607 111.415 114.607 113.452 114.202C115.488 113.797 117.6 114.005 119.518 114.799C121.437 115.594 123.077 116.94 124.23 118.667C125.384 120.393 126 122.423 126 124.5C126 124.5 123 121.5 115.5 121.5" stroke="#D9D9D9" stroke-width="4"/>
<path d="M105 110L105 159" stroke="#0F0F0F" stroke-width="2"/>
<path d="M126 110L126 160" stroke="#0F0F0F" stroke-width="2"/>
<defs>
<linearGradient id="paint0_linear_3574_11346" x1="144.5" y1="192" x2="144.5" y2="176" gradientUnits="userSpaceOnUse">
<stop stop-opacity="0"/>
<stop offset="1"/>
</linearGradient>
<linearGradient id="paint1_linear_3574_11346" x1="98.5" y1="192" x2="98.5" y2="176" gradientUnits="userSpaceOnUse">
<stop stop-opacity="0"/>
<stop offset="1"/>
</linearGradient>
</defs>
</svg>
