<svg width="240" height="192" viewBox="0 0 240 192" fill="none" xmlns="http://www.w3.org/2000/svg">
<path d="M137 70H150V64C150 59.5817 146.418 56 142 56H137V70Z" fill="#666060"/>
<path d="M137 70H150V64C150 59.5817 146.418 56 142 56H137V70Z" fill="black" fill-opacity="0.6"/>
<path d="M137 70H150V64C150 59.5817 146.418 56 142 56H137V70Z" stroke="black" stroke-width="2"/>
<path d="M147 96L139 96L137 108L147 107.999L147 96Z" fill="#666060"/>
<path d="M147 96L139 96L137 108L147 107.999L147 96Z" fill="white" fill-opacity="0.2"/>
<path d="M147 96L139 96L137 108L147 107.999L147 96Z" stroke="black" stroke-width="2"/>
<path d="M151 100L147 97L147.001 106L151 106V100Z" fill="#292626" stroke="black" stroke-width="2"/>
<path d="M146 91L140 91.0001V96H146L146 91Z" fill="#666060" stroke="black" stroke-width="2"/>
<path d="M143 104L139 104V112H143L143 104Z" fill="#666060" stroke="black" stroke-width="2"/>
<path d="M139 104L135 104V112H139L139 104Z" fill="#666060" stroke="black" stroke-width="2"/>
<path d="M147 104L143 104V110H147L147 104Z" fill="#666060" stroke="black" stroke-width="2"/>
<path d="M130 69.1205V59H140.338C152.473 60.222 155.668 69.4657 158 82.75L139.477 84L130 69.1205Z" fill="#952A2A"/>
<path d="M130 69.1205V59H140.338C152.473 60.222 155.668 69.4657 158 82.75L139.477 84L130 69.1205Z" fill="#292626"/>
<path d="M130 69.1205V59H140.338C152.473 60.222 155.668 69.4657 158 82.75L139.477 84L130 69.1205Z" stroke="black" stroke-width="2"/>
<path d="M123 70V70C134.073 70 143.633 62.2434 145.914 51.4076L146 51C146 51 132.133 49.4187 127 55C122.896 59.4625 123 70 123 70Z" fill="#292626" stroke="black" stroke-width="2"/>
<rect x="122.828" y="67" width="4" height="4" transform="rotate(45 122.828 67)" fill="#D9D9D9" stroke="black" stroke-width="2"/>
<circle cx="140" cy="104" r="36" fill="url(#paint0_linear_3575_12909)" stroke="black" stroke-width="2"/>
<circle cx="140" cy="104" r="20" fill="#9C9488" stroke="black" stroke-width="2"/>
<path d="M140 124C138.813 124 137.653 124.352 136.667 125.011C135.68 125.67 134.911 126.608 134.457 127.704C134.003 128.8 133.884 130.007 134.115 131.171C134.347 132.334 134.918 133.404 135.757 134.243C136.596 135.082 137.666 135.653 138.829 135.885C139.993 136.116 141.2 135.997 142.296 135.543C143.392 135.089 144.33 134.32 144.989 133.333C145.648 132.347 146 131.187 146 130H140" stroke="black" stroke-width="2"/>
<path d="M140 84C141.187 84 142.347 83.6481 143.333 82.9888C144.32 82.3295 145.089 81.3925 145.543 80.2961C145.997 79.1997 146.116 77.9933 145.885 76.8295C145.653 75.6656 145.082 74.5965 144.243 73.7574C143.404 72.9182 142.334 72.3468 141.171 72.1153C140.007 71.8838 138.8 72.0026 137.704 72.4567C136.608 72.9108 135.67 73.6799 135.011 74.6666C134.352 75.6533 134 76.8133 134 78H140" stroke="black" stroke-width="2"/>
<path d="M120 104C120 102.813 119.648 101.653 118.989 100.667C118.33 99.6799 117.392 98.9108 116.296 98.4567C115.2 98.0026 113.993 97.8838 112.829 98.1153C111.666 98.3468 110.596 98.9182 109.757 99.7574C108.918 100.596 108.347 101.666 108.115 102.829C107.884 103.993 108.003 105.2 108.457 106.296C108.911 107.392 109.68 108.33 110.667 108.989C111.653 109.648 112.813 110 114 110L114 104" stroke="black" stroke-width="2"/>
<path d="M160 104C160 105.187 160.352 106.347 161.011 107.333C161.67 108.32 162.608 109.089 163.704 109.543C164.8 109.997 166.007 110.116 167.171 109.885C168.334 109.653 169.404 109.082 170.243 108.243C171.082 107.404 171.653 106.334 171.885 105.171C172.116 104.007 171.997 102.8 171.543 101.704C171.089 100.608 170.32 99.6705 169.333 99.0112C168.347 98.3519 167.187 98 166 98L166 104" stroke="black" stroke-width="2"/>
<path d="M125.858 118.142C125.019 117.303 123.95 116.732 122.786 116.5C121.622 116.269 120.415 116.387 119.319 116.841C118.223 117.296 117.286 118.065 116.626 119.051C115.967 120.038 115.615 121.198 115.615 122.385C115.615 123.571 115.967 124.731 116.626 125.718C117.286 126.705 118.223 127.474 119.319 127.928C120.415 128.382 121.622 128.501 122.786 128.269C123.95 128.038 125.019 127.467 125.858 126.627L121.615 122.385" stroke="black" stroke-width="2"/>
<path d="M154.142 89.8579C154.981 90.697 156.05 91.2684 157.214 91.4999C158.378 91.7315 159.585 91.6126 160.681 91.1585C161.777 90.7044 162.714 89.9354 163.374 88.9487C164.033 87.962 164.385 86.8019 164.385 85.6152C164.385 84.4285 164.033 83.2685 163.374 82.2818C162.714 81.2951 161.777 80.5261 160.681 80.072C159.585 79.6178 158.378 79.499 157.214 79.7305C156.05 79.962 154.981 80.5335 154.142 81.3726L158.385 85.6152" stroke="black" stroke-width="2"/>
<path d="M125.858 89.8578C126.697 89.0187 127.268 87.9496 127.5 86.7857C127.731 85.6218 127.613 84.4154 127.159 83.3191C126.704 82.2227 125.935 81.2856 124.949 80.6263C123.962 79.9671 122.802 79.6152 121.615 79.6152C120.429 79.6152 119.269 79.9671 118.282 80.6263C117.295 81.2856 116.526 82.2227 116.072 83.3191C115.618 84.4154 115.499 85.6218 115.731 86.7857C115.962 87.9496 116.533 89.0187 117.373 89.8578L121.615 85.6152" stroke="black" stroke-width="2"/>
<path d="M154.142 118.142C153.303 118.981 152.732 120.05 152.5 121.214C152.269 122.378 152.387 123.585 152.841 124.681C153.296 125.777 154.065 126.714 155.051 127.374C156.038 128.033 157.198 128.385 158.385 128.385C159.571 128.385 160.731 128.033 161.718 127.374C162.705 126.714 163.474 125.777 163.928 124.681C164.382 123.585 164.501 122.378 164.269 121.214C164.038 120.05 163.467 118.981 162.627 118.142L158.385 122.385" stroke="black" stroke-width="2"/>
<path d="M152.508 101.965C152.508 101.965 147.815 108.51 141.227 109.227C134.638 109.943 128.648 104.559 128.648 104.559C128.648 104.559 133.341 98.0131 139.93 97.2969C146.518 96.5807 152.508 101.965 152.508 101.965Z" fill="white"/>
<circle cx="140.409" cy="103.409" r="4" transform="rotate(-6.20408 140.409 103.409)" fill="black"/>
<defs>
<linearGradient id="paint0_linear_3575_12909" x1="140" y1="68" x2="140" y2="140" gradientUnits="userSpaceOnUse">
<stop stop-color="#B45537"/>
<stop offset="1" stop-color="#A64729"/>
</linearGradient>
</defs>
</svg>
