<svg width="312" height="312" viewBox="0 0 312 312" fill="none" xmlns="http://www.w3.org/2000/svg">
<path d="M155.955 38C160.702 38 165.342 39.4076 169.289 42.0447C173.236 44.6819 176.312 48.4302 178.128 52.8156C179.945 57.201 180.42 62.0266 179.494 66.6822C178.568 71.3377 176.282 75.6141 172.926 78.9706C169.569 82.327 165.293 84.6128 160.637 85.5388C155.982 86.4649 151.156 85.9896 146.771 84.1731C142.385 82.3566 138.637 79.2805 136 75.3337" stroke="#B3B3B3" stroke-width="2"/>
<path d="M144.092 97.6403C149.757 99.9866 155.99 100.6 162.003 99.4043C168.017 98.2082 173.54 95.2557 177.876 90.9203C182.211 86.5849 185.164 81.0612 186.36 75.0478C187.556 69.0344 186.942 62.8013 184.596 57.1368C182.249 51.4723 178.276 46.6308 173.178 43.2244C168.08 39.8181 162.087 38 155.955 38L155.955 47" stroke="#B3B3B3" stroke-width="2"/>
<path d="M143.955 113.031C151.092 115.983 158.944 116.755 166.52 115.251C174.096 113.746 181.055 110.031 186.517 104.577C191.978 99.1229 195.698 92.1738 197.205 84.6085C198.712 77.0433 197.938 69.2017 194.982 62.0753C192.027 54.949 187.021 48.8581 180.598 44.5727C174.176 40.2873 166.625 38 158.901 38L155.955 38" stroke="#B3B3B3" stroke-width="2"/>
<rect opacity="0.1" x="17" y="17" width="278" height="278" stroke="black" stroke-width="2"/>
<path d="M295 83L295 61M17 83L17 74M17 83L17 96M17 83L24 83M295 135L295 109" stroke="black" stroke-width="2"/>
<path d="M278 17H295V35" stroke="black" stroke-width="2"/>
<path d="M118 17H17L17 48" stroke="black" stroke-width="2"/>
<path d="M156 17L194 17M156 17L156 33M156 17L142 17" stroke="black" stroke-width="2"/>
<path d="M52 254.5H17V273L120 260L106 254.5H68L56.5 249V254.5L52 247.5V254.5Z" fill="white" stroke="black" stroke-width="2"/>
<path d="M274 49C274 53.7468 272.592 58.3869 269.955 62.3337C267.318 66.2805 263.57 69.3566 259.184 71.1731C254.799 72.9896 249.973 73.4649 245.318 72.5388C240.662 71.6128 236.386 69.327 233.029 65.9706C229.673 62.6141 227.387 58.3377 226.461 53.6822C225.535 49.0266 226.01 44.201 227.827 39.8156C229.643 35.4302 232.72 31.6819 236.666 29.0447C240.613 26.4076 245.253 25 250 25" stroke="#B3B3B3" stroke-width="2"/>
<path d="M249.318 68C244.662 67.0845 240.386 64.8246 237.029 61.5062C233.673 58.1878 231.387 53.9598 230.461 49.3571C229.535 44.7543 230.01 39.9834 231.827 35.6477C233.643 31.3119 236.72 27.6061 240.666 24.9989C244.613 22.3916 249.253 21 254 21" stroke="#B3B3B3" stroke-width="2"/>
<path d="M253.318 64C248.662 63.0845 244.386 60.8246 241.029 57.5062C237.673 54.1878 235.387 49.9598 234.461 45.3571C233.535 40.7543 234.01 35.9834 235.827 31.6477C237.643 27.3119 240.72 23.6061 244.666 20.9989C248.613 18.3916 253.253 17 258 17" stroke="#B3B3B3" stroke-width="2"/>
<path d="M228 189C276 189 276 117 228 117" stroke="#B3B3B3" stroke-width="2"/>
<path d="M228 189C289.333 189 289.333 117 228 117" stroke="#B3B3B3" stroke-width="2"/>
<path d="M228 189C301.333 189 301.333 117 228 117" stroke="#B3B3B3" stroke-width="2"/>
<path d="M228 57C169.333 57 169.333 77 228 77" stroke="#B3B3B3" stroke-width="2"/>
<path d="M228 77C286.667 77 286.667 117 228 117" stroke="#B3B3B3" stroke-width="2"/>
<path d="M228 77C302.667 77 302.667 117 228 117" stroke="#B3B3B3" stroke-width="2"/>
<path d="M228 77C318.667 77 318.667 117 228 117" stroke="#B3B3B3" stroke-width="2"/>
<path d="M228 97C254.667 97 254.667 77 228 77" stroke="#B3B3B3" stroke-width="2"/>
<path d="M224 189C172 189 172 149 224 149" stroke="#B3B3B3" stroke-width="2"/>
<path d="M224 177C197.333 177 197.333 149 224 149" stroke="#B3B3B3" stroke-width="2"/>
<path d="M224 177C258.667 177 258.667 129 224 129" stroke="#B3B3B3" stroke-width="2"/>
<path d="M224 97C202.667 97 202.667 129 224 129H250.5" stroke="#B3B3B3" stroke-width="2"/>
<path d="M224 96.4596C189.333 91.4533 185.5 129 224 129" stroke="#B3B3B3" stroke-width="2"/>
<circle cx="7" cy="7" r="6" transform="matrix(1 0 0 -1 217 162)" fill="white" stroke="#B3B3B3" stroke-width="2"/>
<path d="M65 134C65 129.253 66.4076 124.613 69.0447 120.666C71.6819 116.72 75.4302 113.643 79.8156 111.827C84.201 110.01 89.0266 109.535 93.6822 110.461C98.3377 111.387 102.614 113.673 105.971 117.029C109.327 120.386 111.613 124.662 112.539 129.318C113.465 133.973 112.99 138.799 111.173 143.184C109.357 147.57 106.28 151.318 102.334 153.955C98.3869 156.592 93.7467 158 89 158V161.5" stroke="#B3B3B3" stroke-width="2"/>
<path d="M89.6822 115C94.3377 115.916 98.6141 118.175 101.971 121.494C105.327 124.812 107.613 129.04 108.539 133.643C109.465 138.246 108.99 143.017 107.173 147.352C105.357 151.688 102.28 155.394 98.3337 158.001C94.3869 160.608 89.7467 162 85 162V166" stroke="#B3B3B3" stroke-width="2"/>
<path d="M85.6822 119C90.3377 119.916 94.6141 122.175 97.9706 125.494C101.327 128.812 103.613 133.04 104.539 137.643C105.465 142.246 104.99 147.017 103.173 151.352C101.357 155.688 98.2805 159.394 94.3337 162.001C90.3869 164.608 85.7467 166 81 166V170.5" stroke="#B3B3B3" stroke-width="2"/>
<path d="M64 98C59.2533 98 54.6131 99.4076 50.6663 102.045C46.7195 104.682 43.6434 108.43 41.8269 112.816C40.0104 117.201 39.5351 122.027 40.4612 126.682C41.3872 131.338 43.673 135.614 47.0294 138.971C50.3859 142.327 54.6623 144.613 59.3178 145.539C63.9734 146.465 68.799 145.99 73.1844 144.173C77.5698 142.357 81.3181 139.28 83.9553 135.334" stroke="#B3B3B3" stroke-width="2"/>
<path d="M64 98C57.8688 98 51.8753 99.8181 46.7773 103.224C41.6794 106.631 37.7061 111.472 35.3597 117.137C33.0134 122.801 32.3995 129.034 33.5957 135.048C34.7918 141.061 37.7443 146.585 42.0797 150.92C46.4151 155.256 51.9388 158.208 57.9522 159.404C63.9656 160.6 70.1987 159.987 75.8632 157.64" stroke="#B3B3B3" stroke-width="2"/>
<path d="M61.0545 98C53.3302 98 45.7795 100.287 39.357 104.573C32.9345 108.858 27.9288 114.949 24.9729 122.075C22.0169 129.202 21.2435 137.043 22.7504 144.609C24.2574 152.174 27.9769 159.123 33.4388 164.577C38.9007 170.031 45.8595 173.746 53.4354 175.251C61.0112 176.755 68.8637 175.983 76 173.031" stroke="#B3B3B3" stroke-width="2"/>
<path d="M136 128C131.253 128 126.613 126.592 122.666 123.955C118.72 121.318 115.643 117.57 113.827 113.184C112.01 108.799 111.535 103.973 112.461 99.3179" stroke="#B3B3B3" stroke-width="2"/>
<path d="M136 128C129.869 128 123.875 126.182 118.777 122.776C113.679 119.369 109.706 114.528 107.36 108.863" stroke="#B3B3B3" stroke-width="2"/>
<path d="M135.5 128C127.776 128 117.78 125.713 111.357 121.427C104.935 117.142 99.9288 111.051 96.9729 103.925" stroke="#B3B3B3" stroke-width="2"/>
<path d="M80 98C72.6821 98 65.5285 95.83 59.4439 91.7644C53.3593 87.6988 48.6169 81.9202 45.8165 75.1593C43.016 68.3984 42.2833 60.959 43.711 53.7817C45.1386 46.6044 48.6625 40.0116 53.8371 34.8371C59.0116 29.6625 65.6044 26.1386 72.7817 24.711C79.959 23.2833 87.3984 24.016 94.1593 26.8165C100.92 29.6169 106.699 34.3593 110.764 40.4439C114.83 46.5285 117 53.6821 117 61H136" stroke="#B3B3B3" stroke-width="2"/>
<path d="M91 61C91 53.6821 88.83 46.5285 84.7644 40.4439C80.6988 34.3593 74.9202 29.6169 68.1593 26.8165C61.3984 24.016 53.959 23.2833 46.7817 24.711C39.6044 26.1386 33.0116 29.6625 27.8371 34.8371C22.6625 40.0116 19.1386 46.6044 17.711 53.7817C16.2833 60.959 17.016 68.3984 19.8165 75.1593C22.6169 81.9202 27.3593 87.6988 33.4439 91.7644C39.5285 95.83 46.6821 98 54 98H63" stroke="#B3B3B3" stroke-width="2"/>
<path d="M135 61C135 53.6821 132.83 46.5285 128.764 40.4439C124.699 34.3593 118.92 29.6169 112.159 26.8165C105.398 24.016 97.959 23.2833 90.7817 24.7109C83.6044 26.1386 77.0116 29.6625 71.837 34.837C66.6625 40.0116 63.1386 46.6044 61.7109 53.7817C60.2833 60.959 61.016 68.3984 63.8165 75.1593C66.6169 81.9202 71.3593 87.6988 77.4439 91.7644C83.5285 95.83 90.6821 98 98 98" stroke="#B3B3B3" stroke-width="2"/>
<circle cx="81" cy="61" r="11" fill="white" stroke="#B3B3B3" stroke-width="2"/>
<path d="M99 98C120.333 98 125.5 78 99 78" stroke="#B3B3B3" stroke-width="2"/>
<path d="M99 98C141.667 98 141.667 74 99 74" stroke="#B3B3B3" stroke-width="2"/>
<path d="M99.0001 74C56.3335 74 27.3333 61.5 70 61.5" stroke="#B3B3B3" stroke-width="2"/>
<path d="M99 98C163 98 164 59 99 70" stroke="#B3B3B3" stroke-width="2"/>
<path d="M295 187V287C295 287 167.089 233.982 106.5 217.5C56.7819 203.976 17 203.578 17 203.578V191.078V157C17 157 56.6208 171.876 86.5 177.5C127.78 185.27 199.496 187 199.496 187C236.891 185.439 295 187 295 187Z" fill="white"/>
<path d="M199.496 187C236.891 185.439 295 187 295 187V287C295 287 167.089 233.982 106.5 217.5C56.7819 203.976 17 203.578 17 203.578V191.078V157C17 157 56.6208 171.876 86.5 177.5C127.78 185.27 199.496 187 199.496 187ZM199.496 187C156.399 188.799 113.498 190.065 70.5 190.672" stroke="black" stroke-width="2"/>
<path d="M159.792 257L103.992 248C103.992 248 160.67 230.757 198 224.5C235.386 218.233 295 216 295 216V295H16L159.792 257Z" fill="white" stroke="black" stroke-width="2"/>
<path d="M205.5 257L295 224V295H189L232 257H205.5Z" fill="#B3B3B3" stroke="black" stroke-width="2"/>
<rect opacity="0.4" x="198" y="218" width="2" height="4" fill="black"/>
<rect opacity="0.4" x="194" y="218" width="2" height="4" fill="black"/>
<rect x="113" y="187" width="2" height="4" fill="black"/>
<rect x="117" y="187" width="2" height="4" fill="black"/>
<rect x="205" y="184" width="2" height="4" fill="black"/>
<rect x="209" y="186" width="2" height="4" fill="black"/>
<rect x="213" y="186" width="2" height="4" fill="black"/>
<rect opacity="0.3" x="16" y="207" width="2" height="4" fill="black"/>
<rect opacity="0.3" x="20" y="209" width="2" height="2" fill="black"/>
<rect opacity="0.3" x="24" y="207" width="2" height="4" fill="black"/>
<rect opacity="0.3" x="28" y="209" width="2" height="2" fill="black"/>
<rect opacity="0.3" x="32" y="207" width="2" height="4" fill="black"/>
<rect opacity="0.3" x="36" y="209" width="2" height="2" fill="black"/>
<circle cx="7" cy="7" r="6" transform="matrix(-1 0 0 1 123 155)" fill="white" stroke="#B3B3B3" stroke-width="2"/>
<rect x="145" y="173" width="22" height="18" fill="white" stroke="black" stroke-width="2"/>
<rect x="137" y="177" width="38" height="14" fill="white" stroke="black" stroke-width="2"/>
<path d="M175 139.667V165H137V121H163V134V134.667L163.615 134.923L175 139.667Z" fill="white" stroke="black" stroke-width="2"/>
<path d="M159.027 137.229L159.13 137.669L159.528 137.882L175 146.164V167H137V121H155.208L159.027 137.229Z" fill="white" stroke="black" stroke-width="2"/>
<path d="M168 148V142" stroke="black" stroke-width="2"/>
<path d="M152 128L157 128" stroke="black" stroke-width="2"/>
<path d="M169 156H155.875V146.842L148 143.408V127" stroke="black" stroke-width="2"/>
<path opacity="0.3" d="M168 145.043V160H144V128H154" stroke="black" stroke-width="2"/>
<rect x="131" y="185" width="50" height="6" fill="white" stroke="black" stroke-width="2"/>
</svg>
