<svg width="312" height="312" viewBox="0 0 312 312" fill="none" xmlns="http://www.w3.org/2000/svg">
<path d="M17 17V33L21 29M17 17H33L29 21M17 17L21 21" stroke="black" stroke-width="2"/>
<path d="M76 17H136V14.5" stroke="black" stroke-width="2"/>
<path d="M93 17V21H35L31 25" stroke="black" stroke-width="2"/>
<path d="M17 33V101M17 101H21V35L25 30.8125M17 101V117" stroke="black" stroke-width="2"/>
<path d="M248 138.64L255 163.14V167H241V163.14L248 138.64Z" fill="white" stroke="black" stroke-width="2"/>
<path d="M117 241V193H87V241C87 249.284 93.7157 256 102 256C110.284 256 117 249.284 117 241Z" fill="white" stroke="black" stroke-width="2"/>
<path d="M47 169H17V262H188V208H165V216H146V208H87V184.805L47 177V169Z" fill="white" stroke="black" stroke-width="2"/>
<path opacity="0.3" d="M111 169V185H135V189.192L144 196V192.5L163 196V179H169V182H174V179H181V181.945H186V179H193V182L198 181.945V179H208L224 187L242 177.936L246 189L291 170V155M111 169H69V146H40M111 169H128M16 146H40M40 146V154" stroke="black" stroke-width="2"/>
<path d="M258 152H296V246L148 242V239.5L125 246L126.5 224H130V227H134V224H138V227H143V224H148V229H162L154.5 223.5L174.5 201L219 193L218 189.5L167 198.5V196L220 182.5L236 174H220L224 166H260L265 159.064H258V152Z" fill="white"/>
<path d="M296 152H258V159.064H265L260 166H224L220 174H236L220 182.5L167 196V198.5L218 189.5L219 193L174.5 201L154.5 223.5L162 229H148V224H143V227H138V224H134V227H130V224H126.5L125 246L148 239.5V236V242L296 246V152Z" stroke="black" stroke-width="2"/>
<rect x="-1.4081" y="0.1314" width="11" height="19" transform="matrix(-0.769748 -0.638348 -0.638348 0.769748 210.804 218.08)" fill="white" stroke="black" stroke-width="2"/>
<rect x="-1.17494" y="-0.787097" width="21.3007" height="44.6013" transform="matrix(-0.193921 -0.981017 -0.981017 0.193921 229.027 212.218)" fill="white" stroke="black" stroke-width="2"/>
<path d="M210.741 212.047L207.127 203.353L152.977 213.581L152.538 217.133L210.741 212.047Z" fill="white"/>
<path d="M207.127 203.353L210.741 212.047L152.538 217.133L152.977 213.581L207.127 203.353ZM207.127 203.353L203.513 194.659" stroke="black" stroke-width="2"/>
<path d="M208.349 211.751L207.711 212.521L206.941 211.883L204.721 210.042L202.279 212.987L210.824 220.073L221.447 217.159L227.406 209.973L210.509 209.147L208.349 211.751Z" fill="white" stroke="black" stroke-width="2"/>
<rect x="-1.4081" y="0.1314" width="3" height="8" transform="matrix(-0.769748 -0.638348 -0.638348 0.769748 196.874 228.613)" fill="white" stroke="black" stroke-width="2"/>
<rect opacity="0.1" x="17" y="17" width="278" height="278" stroke="black" stroke-width="2"/>
<path d="M17 295V279L21 283M17 295H33L29 291M17 295L21 291" stroke="black" stroke-width="2"/>
<path d="M295 295L279 295L283 291M295 295L295 279L291 283M295 295L291 291" stroke="black" stroke-width="2"/>
<path d="M295 17L279 17L283 21M295 17L295 33L291 29M295 17L291 21" stroke="black" stroke-width="2"/>
<path d="M295 33V101M295 101H291M295 101V117" stroke="black" stroke-width="2"/>
<path d="M291 61V101M291 101H287M291 101V117" stroke="black" stroke-width="2"/>
<path d="M252.5 17L279 17M249 21L271.5 21" stroke="black" stroke-width="2"/>
<path d="M122 43C122 40.6266 121.296 38.3065 119.978 36.3332C118.659 34.3598 116.785 32.8217 114.592 31.9134C112.399 31.0052 109.987 30.7676 107.659 31.2306C105.331 31.6936 103.193 32.8365 101.515 34.5147C99.8365 36.1929 98.6936 38.3311 98.2306 40.6589C97.7676 42.9867 98.0052 45.3995 98.9134 47.5922C99.8217 49.7849 101.36 51.6591 103.333 52.9776C105.307 54.2962 107.627 55 110 55" stroke="black" stroke-width="2"/>
<path opacity="0.3" d="M131 43C131 38.8466 129.768 34.7865 127.461 31.333C125.153 27.8796 121.874 25.188 118.036 23.5985C114.199 22.0091 109.977 21.5932 105.903 22.4035C101.83 23.2138 98.0877 25.2139 95.1508 28.1508C92.2139 31.0877 90.2138 34.8295 89.4035 38.9031C88.5932 42.9767 89.0091 47.1991 90.5985 51.0364C92.188 54.8736 94.8796 58.1534 98.333 60.4609C101.786 62.7684 105.847 64 110 64" stroke="black" stroke-width="2"/>
<path opacity="0.3" d="M145 43C145 36.0776 142.947 29.3107 139.101 23.555C135.256 17.7993 129.789 13.3133 123.394 10.6642M103.172 8.67249C96.3825 10.023 90.1461 13.3564 85.2513 18.2512C80.3564 23.1461 77.023 29.3825 75.6725 36.1718C74.322 42.9611 75.0152 49.9985 77.6642 56.3939C80.3133 62.7893 84.7993 68.2555 90.5551 72.1014C96.3108 75.9472 103.078 78 110 78" stroke="black" stroke-width="2"/>
<path opacity="0.3" d="M164 43.0001C164 32.3199 160.833 21.8795 154.899 12.9993M57.0376 32.4652C54.954 42.9402 56.0234 53.7977 60.1105 63.665C64.1977 73.5322 71.119 81.9658 79.9992 87.8994C88.8795 93.833 99.3198 97 110 97" stroke="black" stroke-width="2"/>
<path d="M110 49.3992L105.281 43.5L110 37.6008L114.719 43.5L110 49.3992Z" fill="white" stroke="black" stroke-width="2"/>
<circle cx="165" cy="31" r="13" stroke="black" stroke-width="2"/>
<path d="M165 49C168.56 49 172.04 47.9443 175 45.9665C177.96 43.9886 180.267 41.1774 181.63 37.8883C182.992 34.5992 183.349 30.98 182.654 27.4884C181.96 23.9967 180.245 20.7894 177.728 18.2721C175.211 15.7547 172.003 14.0404 168.512 13.3459C165.02 12.6513 161.401 13.0078 158.112 14.3702C154.823 15.7325 152.011 18.0396 150.034 20.9997C148.056 23.9598 147 27.4399 147 31" stroke="black" stroke-width="2"/>
<path d="M165 39.3992L158.281 31L165 22.6008L171.719 31L165 39.3992Z" stroke="black" stroke-width="2"/>
<path d="M196.5 65C198.972 65 201.389 65.7331 203.445 67.1066C205.5 68.4801 207.102 70.4324 208.048 72.7165C208.995 75.0005 209.242 77.5139 208.76 79.9386C208.278 82.3634 207.087 84.5907 205.339 86.3388C203.591 88.087 201.363 89.2775 198.939 89.7598C196.514 90.2421 194.001 89.9946 191.716 89.0485C189.432 88.1024 187.48 86.5002 186.107 84.4446C184.733 82.389 184 79.9723 184 77.5" stroke="black" stroke-width="2"/>
<path d="M197 71.6008L192.281 77.5L197 83.3992L201.719 77.5L197 71.6008Z" fill="white" stroke="black" stroke-width="2"/>
<g opacity="0.4">
<path d="M196.5 57C200.555 57 204.518 58.2023 207.889 60.4549C211.26 62.7074 213.888 65.9091 215.44 69.655C216.991 73.4009 217.397 77.5227 216.606 81.4994C215.815 85.476 213.863 89.1287 210.996 91.9957C208.129 94.8627 204.476 96.8151 200.499 97.6061C196.523 98.3971 192.401 97.9911 188.655 96.4395C184.909 94.8879 181.707 92.2604 179.455 88.8892C177.202 85.518 176 81.5545 176 77.5" stroke="black" stroke-width="2"/>
<path d="M196.5 46C202.73 46 208.82 47.8474 214 51.3087C219.181 54.77 223.218 59.6896 225.602 65.4455C227.986 71.2013 228.61 77.5349 227.395 83.6453C226.179 89.7557 223.179 95.3685 218.774 99.7739C214.369 104.179 208.756 107.179 202.645 108.395C196.535 109.61 190.201 108.986 184.445 106.602C178.69 104.218 173.77 100.181 170.309 95.0005C166.847 89.8203 165 83.7301 165 77.5" stroke="black" stroke-width="2"/>
<path d="M196.5 33C205.301 33 213.905 35.6099 221.223 40.4996C228.541 45.3893 234.245 52.3393 237.613 60.4706C240.981 68.6019 241.862 77.5494 240.145 86.1815C238.428 94.8137 234.19 102.743 227.966 108.966C221.743 115.19 213.814 119.428 205.182 121.145C196.549 122.862 187.602 121.981 179.471 118.613C171.339 115.245 164.389 109.541 159.5 102.223C154.61 94.9049 152 86.3013 152 77.5" stroke="black" stroke-width="2"/>
<path d="M196.5 16C208.664 16 220.554 19.6069 230.668 26.3646C240.781 33.1223 248.664 42.7273 253.319 53.965C257.973 65.2026 259.191 77.5682 256.818 89.498C254.445 101.428 248.588 112.386 239.987 120.987C231.386 129.588 220.428 135.445 208.498 137.818C196.568 140.191 184.203 138.973 172.965 134.319C161.727 129.664 152.122 121.781 145.365 111.668C138.607 101.554 135 89.6636 135 77.5" stroke="black" stroke-width="2"/>
<path d="M189 79.6008L184.281 85.5L189 91.3992L193.719 85.5L189 79.6008Z" fill="white" stroke="black" stroke-width="2"/>
</g>
<path d="M172.789 217.435L188.198 226.738L173.211 251.565L157.801 242.262L172.789 217.435Z" fill="white" stroke="black" stroke-width="2"/>
<path d="M172.789 217.435L178.128 220.658L163.141 245.486L157.801 242.262L172.789 217.435Z" fill="white" stroke="black" stroke-width="2"/>
<path d="M158.459 252.76L165.847 241.026L175.899 246.471L166.75 256.491L158.459 252.76Z" fill="white" stroke="black" stroke-width="2"/>
<path d="M178.848 222.304L179.27 221.629L178.707 221.067L176.169 218.528L179.352 210.353L187.278 218.925L182.111 228.399L176.899 225.422L178.848 222.304Z" fill="white" stroke="black" stroke-width="2"/>
<path d="M228.431 226.177L228.441 226.162L228.452 226.148L291.743 142.25L288.74 142.25L226.54 222.363L226.422 222.515L226.257 222.612L217.933 227.508L192.876 261.41L197.012 272.578L218.922 240.19L219.219 239.75L219.75 239.75L225.229 239.75L227.981 235.819L224.997 232.409L224.481 231.819L224.931 231.177L228.431 226.177Z" fill="white" stroke="black" stroke-width="2"/>
<path d="M174.5 216.5L176 211L176.5 203.5" stroke="black" stroke-width="2"/>
<path d="M180 214L181.5 208.5L182 201" stroke="black" stroke-width="2"/>
<path d="M183 216L184.5 210.5L185 203" stroke="black" stroke-width="2"/>
<path d="M103.5 225V230L18 178.5V270.5L48 295H295V250L135.5 239L103.5 225Z" fill="#B3B3B3" stroke="black" stroke-width="2"/>
<path d="M186 219L187.5 213.5L188 206" stroke="black" stroke-width="2"/>
<path d="M32.3859 251.749L42.8013 250.385L62.1173 267.44L51.6393 279.307L32.3233 262.253L32.3859 251.749Z" fill="white" stroke="black" stroke-width="2"/>
<path d="M30.5616 254.349L38.5295 255.035L57.939 272.172L51.6393 279.307L32.2298 262.17L30.5616 254.349Z" fill="white" stroke="black" stroke-width="2"/>
<rect x="48.1045" y="278.778" width="21" height="26" transform="rotate(-48.5578 48.1045 278.778)" fill="white" stroke="black" stroke-width="2"/>
<rect x="48.1045" y="278.778" width="15.4309" height="26" transform="rotate(-48.5578 48.1045 278.778)" fill="white" stroke="black" stroke-width="2"/>
<path d="M63.4115 293.157L72.0157 283.412L82.3528 292.538L82.6625 297.038L78.2519 302.033L73.7486 302.283L63.4115 293.157Z" fill="white" stroke="black" stroke-width="2"/>
<path d="M84.1116 282.307L92.7158 272.561L99.2033 278.289L98.7357 281.955L94.1787 287.116L90.599 288.034L84.1116 282.307Z" fill="white" stroke="black" stroke-width="2"/>
<rect x="212.932" y="263.08" width="11" height="19" transform="rotate(-39.6687 212.932 263.08)" fill="white" stroke="black" stroke-width="2"/>
<rect x="194.71" y="257.218" width="21.3007" height="44.6013" transform="rotate(-78.8183 194.71 257.218)" fill="white" stroke="black" stroke-width="2"/>
<path d="M213.996 256.047L217.61 247.353L271.76 257.581L272.198 261.133L213.996 256.047Z" fill="white"/>
<path d="M217.61 247.353L213.996 256.047L272.198 261.133L271.76 257.581L217.61 247.353ZM217.61 247.353L221.224 238.659" stroke="black" stroke-width="2"/>
<path d="M216.388 255.751L217.026 256.521L217.796 255.883L220.015 254.042L222.457 256.987L213.913 264.073L203.29 261.159L197.331 253.973L214.228 253.147L216.388 255.751Z" fill="white" stroke="black" stroke-width="2"/>
<rect x="226.863" y="273.613" width="3" height="8" transform="rotate(-39.6687 226.863 273.613)" fill="white" stroke="black" stroke-width="2"/>
<path d="M303.789 262.71L293.222 268.811L278.722 243.696L294.311 234.696L303.311 250.285L301.146 251.535L300.455 251.934L300.691 252.696L303.789 262.71Z" fill="white" stroke="black" stroke-width="2"/>
<path d="M280.392 256.588L294.249 248.588L295.821 267.311L288.892 271.311L280.392 256.588Z" fill="white"/>
<path d="M294.249 248.588L280.392 256.588L288.892 271.311L295.821 267.311L294.249 248.588ZM294.249 248.588L290.749 242.526" stroke="black" stroke-width="2"/>
<path d="M284.722 254.088L270.866 262.088L269.294 243.366L276.222 239.366L284.722 254.088Z" fill="white"/>
<path d="M270.866 262.088L284.722 254.088L276.222 239.366L269.294 243.366L270.866 262.088ZM270.866 262.088L274.366 268.151" stroke="black" stroke-width="2"/>
<circle cx="286.638" cy="252.405" r="4.5" transform="rotate(-30 286.638 252.405)" fill="white" stroke="black" stroke-width="2"/>
<path d="M52.5735 225.681L52.588 225.691L52.6022 225.702L136.5 288.993V285.99L56.3867 223.79L56.2353 223.672L56.1381 223.507L51.2415 215.183L17.3404 190.126L6.17197 194.262L38.5603 216.172L39 216.469V217V222.479L42.9314 225.231L46.3415 222.247L46.9314 221.731L47.5735 222.181L52.5735 225.681Z" fill="white" stroke="black" stroke-width="2"/>
<path d="M236.574 262.64L242.031 251.26L217.586 239.894C197.189 248.143 185.205 277.994 204.832 265.774L213.674 273.962L209.86 268.726L225.065 281.63L237.368 288.137L256.705 301.345L267.686 285.826L236.574 262.64Z" fill="white" stroke="black" stroke-width="2"/>
<path d="M220.263 287.567L223.152 288.341L225.439 281.73L225.56 279.354L220.111 268.664L224.812 263.101L214.555 257.944L212.556 259.415L208.336 258.686L204.264 260.404L202.358 267.519L208.141 275.891L210.762 276.593L220.263 287.567Z" fill="white"/>
<path d="M220.263 287.567L223.152 288.341L225.439 281.73M220.263 287.567L210.762 276.593M220.263 287.567L222.443 280.927M210.762 276.593L208.141 275.891M210.762 276.593L212.668 269.479M208.141 275.891L202.358 267.519L204.264 260.404M208.141 275.891L210.047 268.776M204.264 260.404L208.336 258.686L212.556 259.415M204.264 260.404L210.047 268.776M212.556 259.415L214.555 257.944L224.812 263.101L220.111 268.664M212.556 259.415L215.992 267.56M220.111 268.664L225.56 279.354L225.439 281.73M220.111 268.664L215.992 267.56M225.439 281.73L222.443 280.927M222.443 280.927L212.668 269.479M212.668 269.479L215.992 267.56M212.668 269.479L210.047 268.776" stroke="black" stroke-width="2"/>
<path d="M220.695 239.523L215.078 238.018L213.38 238.365L211.5 243.882L216.04 247.907L215.539 249.78L214.489 250.702L213.331 258.018L225.889 260.58L231.701 252.104L237.083 254.75L241.723 258.401L249.494 254.865L250.196 252.243L251.601 247.001L238.602 237.097L231.354 236.76L225.918 236.507L220.695 239.523Z" fill="white"/>
<path d="M220.695 239.523L215.078 238.018L213.38 238.365L211.5 243.882M220.695 239.523L225.918 236.507L231.354 236.76M220.695 239.523L219.491 244.016M211.5 243.882L216.04 247.907M211.5 243.882L219.491 244.016M216.04 247.907L215.539 249.78L214.489 250.702L213.331 258.018L225.889 260.58L231.701 252.104L237.083 254.75M216.04 247.907L219.491 244.016M237.083 254.75L241.723 258.401L249.494 254.865L250.196 252.243M237.083 254.75L240.661 248.886M219.491 244.016L224.513 241.75L229.949 242.002M250.196 252.243L251.601 247.001L238.602 237.097L231.354 236.76M250.196 252.243L243.697 247.291M243.697 247.291L237.198 242.339L229.949 242.002M243.697 247.291L240.661 248.886M240.661 248.886L236.395 245.335L230.925 246.277M230.925 246.277L220.274 245.587L217.785 250.382L217.303 256.674L224.993 257.932L232.314 247.731L230.925 246.277ZM230.925 246.277L229.949 242.002M229.949 242.002L231.354 236.76" stroke="black" stroke-width="2"/>
<path d="M236.153 259.718L233.331 259.765L233.03 260.888L230.784 260.286L226.557 265.575L228.175 270.022L225.353 270.068L224.952 271.566L234.58 280.567L234.974 285.088L233.87 289.207L253.655 303.739L258.149 304.943L259.025 303.171L247.725 292.919L249.45 290.973L249.25 291.722L257.133 298.249L264.074 299.306L265.531 298.359L272.82 293.623L272.955 285.632L260.906 275.18L257.534 275.782L258.659 274.578L240.894 262.995L237.508 260.654L236.153 259.718Z" fill="white"/>
<path d="M249.45 290.973L247.725 292.919L259.025 303.171L258.149 304.943L253.655 303.739L233.87 289.207L234.974 285.088L234.58 280.567L224.952 271.566L225.353 270.068L228.175 270.022L226.557 265.575L230.784 260.286L233.03 260.888L233.331 259.765L236.153 259.718L237.508 260.654M249.45 290.973L248.829 288.8L254.159 279.392M249.45 290.973L249.25 291.722L257.133 298.249L264.074 299.306L265.531 298.359M254.159 279.392L236.968 267.161M254.159 279.392L257.534 275.782M236.968 267.161L230.221 271.373M236.968 267.161L237.508 260.654M237.508 260.654L240.894 262.995L258.659 274.578L257.534 275.782M257.534 275.782L260.906 275.18M260.906 275.18L272.955 285.632L272.82 293.623M260.906 275.18L256.23 280.649L272.82 293.623M272.82 293.623L265.531 298.359M251.951 287.63L265.531 298.359" stroke="black" stroke-width="2"/>
<path d="M174.215 233.685C174.305 233.296 181.403 230.738 184.941 229.508L185.394 227.56L193.538 221.241L227.866 221.53L227.413 223.478L233.102 223.296L235.171 223.23L237.434 235.564L237.456 244.296L235.357 244.492L224.861 245.472L197.679 251.98L194.27 251.186L185.718 254.843L182.196 254.537L185.47 247.085L180.205 236.619L174.215 233.685Z" fill="white"/>
<path d="M174.215 233.685C174.305 233.296 181.403 230.738 184.941 229.508L185.394 227.56L193.538 221.241L227.866 221.53L227.413 223.478L233.102 223.296L235.171 223.23L237.434 235.564L237.456 244.296L235.357 244.492L224.861 245.472L197.679 251.98L194.27 251.186L185.718 254.843L182.196 254.537L185.47 247.085L180.205 236.619L174.215 233.685Z" fill="white"/>
<path d="M185.47 247.085L182.196 254.537L185.718 254.843L194.27 251.186L197.679 251.98L224.861 245.472L235.357 244.492M185.47 247.085L180.205 236.619L174.215 233.685C174.305 233.296 181.403 230.738 184.941 229.508L185.394 227.56L193.538 221.241L227.866 221.53L227.413 223.478L233.102 223.296M185.47 247.085L188.619 246.791L214.08 238.856L227.275 237.306M227.275 237.306L226.822 239.254L234.353 239.98L235.357 244.492M227.275 237.306L226.154 235.505L233.731 231.622L233.102 223.296M235.357 244.492L237.456 244.296L237.434 235.564L235.171 223.23L233.102 223.296" stroke="black" stroke-width="2"/>
<path d="M276.979 246.523L282.396 240.893L280.654 230.734L272.451 228.483L274.118 238.967L268.761 244.336L276.979 246.523Z" fill="white"/>
<path fill-rule="evenodd" clip-rule="evenodd" d="M256.724 221.058L256.044 223.98L236.552 226.118L237.572 221.735L242.408 220.807L228.546 218.608L228.966 214.598L240.733 214.77L252.161 216.403L256.724 221.058ZM242.097 241.998L245.701 244.161L251.35 244.152L252.143 240.743L242.097 241.998ZM254.258 240.478L268.761 244.336L274.118 238.967L272.451 228.483L256.044 223.98L260.075 233.132L258.488 239.95L254.258 240.478Z" fill="white"/>
<path d="M258.488 239.95L260.075 233.132L256.044 223.98L236.552 226.118L238.396 242.461L242.097 241.998L252.143 240.743L254.258 240.478L258.488 239.95Z" fill="white"/>
<path d="M256.044 223.98L260.075 233.132L258.488 239.95L254.258 240.478M256.044 223.98L256.724 221.058L252.161 216.403L240.733 214.77L228.966 214.598L228.546 218.608L242.408 220.807L237.572 221.735L236.552 226.118M256.044 223.98L236.552 226.118M256.044 223.98L272.451 228.483M236.552 226.118L238.396 242.461L242.097 241.998M242.097 241.998L245.701 244.161L251.35 244.152L252.143 240.743M242.097 241.998L252.143 240.743M252.143 240.743L254.258 240.478M254.258 240.478L268.761 244.336M272.451 228.483L280.654 230.734L282.396 240.893L276.979 246.523L268.761 244.336M272.451 228.483L274.118 238.967L268.761 244.336" stroke="black" stroke-width="2"/>
<path d="M72.3975 223.365L60.0076 223.31L62.1345 216.553L63.9011 215.798L67.1291 207.902L73.6567 208.122L75.4747 206.509L83.0005 207.305L85.2781 209.508L82.6917 212.451L84.3415 216.509L81.4224 219.26C81.9426 220.151 83.1161 222.012 83.6485 222.319C84.1808 222.627 82.4273 225.459 81.4839 226.837L80.7293 225.07L77.7725 225.581L72.3975 223.365Z" fill="#B3B3B3"/>
<path d="M81.4223 219.26C81.9426 220.151 83.1161 222.012 83.6485 222.319C84.1808 222.627 82.4273 225.459 81.4839 226.837L80.7293 225.07L77.7725 225.581L72.3975 223.365L60.0076 223.31L62.1345 216.553L63.9011 215.798M81.4223 219.26L84.3415 216.509L82.6917 212.451M81.4223 219.26L74.8947 219.04L76.7642 216.57M82.6917 212.451L85.2781 209.508M82.6917 212.451L74.7817 212.32L76.7642 216.57M85.2781 209.508L83.0005 207.305L75.4747 206.509L73.6567 208.122L67.1291 207.902L63.9011 215.798M85.2781 209.508L88.0667 214.667M63.9011 215.798L76.7642 216.57" stroke="black" stroke-width="2"/>
<path d="M81.995 229.794L81.1512 226.645L84.3139 222.704L82.5235 218.121L86.3516 214.564L91.3048 215.205L97.7157 220.238L97.2938 218.663L100.251 218.152C104.653 221.285 113.551 227.694 113.93 228.268C114.309 228.842 112.807 230.725 112.009 231.595L107.351 228.906L100.617 232.116L98.5043 235.776L103.989 234.729L102.164 237.889L96.007 240.102L92.0143 237.797L92.3094 235.749L81.995 229.794Z" fill="white"/>
<path d="M100.617 232.116L98.5043 235.776L103.989 234.729L102.164 237.889L96.007 240.102L92.0143 237.797L92.3094 235.749L81.995 229.794L81.1512 226.645L84.3139 222.704M100.617 232.116L107.351 228.906L112.009 231.595C112.807 230.725 114.309 228.842 113.93 228.268C113.551 227.694 104.653 221.285 100.251 218.152L97.2938 218.663L97.7157 220.238L91.3048 215.205L86.3516 214.564L82.5235 218.121L84.3139 222.704M100.617 232.116L94.6729 229.35L84.3139 222.704" stroke="black" stroke-width="2"/>
<path d="M100.243 241.217L101.78 238.555L103.42 234.178L108.105 230.672L114.76 234.514L115.693 239.046L120.478 245.357L120.117 251.36L116.725 253.394L113.552 248.901L106.143 243.292C106.782 246.027 108.127 251.535 108.393 251.689C108.659 251.843 106.976 252.35 106.102 252.584L100.511 245.364L100.243 241.217Z" fill="white"/>
<path d="M101.78 238.555L100.243 241.217L100.511 245.364L106.102 252.584C106.976 252.35 108.659 251.843 108.393 251.689C108.127 251.535 106.782 246.027 106.143 243.292L113.552 248.901L116.725 253.394L120.117 251.36L120.478 245.357L115.693 239.046M101.78 238.555L103.42 234.178L108.105 230.672L114.76 234.514L115.693 239.046M101.78 238.555L110.098 243.357L115.693 239.046" stroke="black" stroke-width="2"/>
<path d="M41.6252 231.329L30.5561 223.608L31.3282 210.745L28.3098 203.679L35.2593 205.473L35.7088 200.852L30.1417 198.969L36.0691 194.849L38.2782 191.023L40.1923 189.245L61.2329 194.294L63.8947 195.831L69.3056 206.053L67.3212 207.569C66.3092 210.09 64.4259 215.658 64.4259 215.658L59.8 215.218L61.1226 219.074L59.7487 222.606L61.095 225.269L61.0297 229.224L57.867 233.165L41.6252 231.329Z" fill="white"/>
<path d="M41.6252 231.329L30.5561 223.608L31.3282 210.745L28.3098 203.679M41.6252 231.329L57.867 233.165L61.0297 229.224L61.095 225.269M41.6252 231.329L45.7107 223.485M28.3098 203.679L35.2593 205.473M28.3098 203.679L32.865 208.083L32.8751 216.518L45.7107 223.485M35.2593 205.473L35.7088 200.852M35.2593 205.473L35.8204 209.789M35.7088 200.852L30.1417 198.969L36.0691 194.849L38.2782 191.023M35.7088 200.852L36.7309 206.766L49.7071 214.258M67.3212 207.569C66.3092 210.09 64.4259 215.658 64.4259 215.658M67.3212 207.569L51.1308 204.876M67.3212 207.569L69.3056 206.053L63.8947 195.831L61.2329 194.294L40.1923 189.245L38.2782 191.023M64.4259 215.658L59.8 215.218L61.1226 219.074M64.4259 215.658L49.7071 214.258M59.7487 222.606L61.095 225.269M59.7487 222.606L48.6298 220.734M59.7487 222.606L61.1226 219.074M61.095 225.269L45.7107 223.485M38.2782 191.023L40.0995 199.394L51.1308 204.876M51.1308 204.876L49.7071 214.258M48.6298 220.734L36.3191 213.626L35.8204 209.789M48.6298 220.734L50.026 217.547M61.1226 219.074L50.026 217.547M50.026 217.547L35.8204 209.789" stroke="black" stroke-width="2"/>
<path d="M78.3263 219.86L81.8289 222.857L66.46 273.017L67.1826 275.384L67.9052 277.751L48.777 299.856L40.0136 301.422L37.4507 296.66L39.3301 293.129L40.8038 296.745L48.0862 283.062L44.6121 278.948L36.2259 274.484L27.3057 264.639L31.8902 260.282L31.9472 258.047L45.4414 245.971L61.7139 231.409L75.2082 219.333L78.3263 219.86Z" fill="white"/>
<path d="M78.3263 219.86L81.8289 222.857L66.46 273.017L67.1826 275.384M78.3263 219.86L75.2082 219.333L61.7139 231.409M78.3263 219.86L74.3327 227.364L61.7139 231.409M36.2259 274.484L27.3057 264.639L31.8902 260.282L31.9472 258.047L45.4414 245.971M36.2259 274.484L44.6121 278.948L48.0862 283.062L40.8038 296.745L39.3301 293.129L37.4507 296.66L40.0136 301.422L48.777 299.856L67.9052 277.751L67.1826 275.384M36.2259 274.484L40.1341 270.334M45.8436 274.506L49.7875 277.737M49.7875 277.737L51.7026 281.589L67.1826 275.384M49.7875 277.737L60.8432 273.993M40.1341 270.334L45.4199 271.448L53.8592 258.381L52.0516 255.392M40.1341 270.334L37.3648 264.895L47.0321 254.181L52.0516 255.392M52.0516 255.392L55.9912 251.586M57.8813 249.76L55.9912 251.586M45.4414 245.971L55.9912 251.586M45.4414 245.971L61.7139 231.409" stroke="black" stroke-width="2"/>
<path d="M31.5772 272.577L43.9073 280.272L38.4116 285.277L38.7392 289.982L23.7396 290.495L12.4987 283.946L16.5777 273.089L26.6864 262.61L25.0419 265.7L31.5772 272.577Z" fill="white"/>
<path d="M31.5772 272.577L43.9073 280.272L38.4116 285.277L38.7392 289.982L23.7396 290.495M31.5772 272.577L25.0419 265.7L26.6864 262.61L16.5777 273.089L12.4987 283.946L23.7396 290.495M31.5772 272.577L27.1992 277.61L29.1711 279.226L24.7646 285.377L23.4405 284.672L23.7396 290.495" stroke="black" stroke-width="2"/>
<path d="M282.38 249.53L261.167 248.823L230.231 228.141L249.146 225.489L230.054 191.548L241.368 167.506L257.631 171.042L263.995 190.134L264.288 194.084L279.905 190.487L297.583 208.165L289.451 215.589C292.044 219.125 304.159 233.126 305.007 233.974C305.856 234.823 287.624 242.283 282.38 249.53Z" fill="#B3B3B3"/>
<path d="M262.581 178.113L257.985 173.517L261.167 190.134L262.934 191.901L266.116 188.719L262.581 178.113Z" fill="white"/>
<path d="M276.016 199.326L278.844 202.154L276.016 204.983L273.187 202.154L276.016 199.326Z" fill="white"/>
<path d="M280.612 201.801L267.53 197.912L268.591 194.023L266.47 193.316L264.349 191.194L262.227 194.73L263.376 190.222L267.177 188.366V186.952L291.572 185.184L291.219 186.952L295.461 191.194L297.229 190.841L298.643 194.376L298.997 198.265L301.472 200.74L300.765 207.811L284.855 215.236L281.319 211.7L281.673 209.225L277.784 203.215L280.612 201.801Z" fill="white"/>
<path d="M245.964 188.366L233.943 200.387L228.286 196.144L224.397 182.355L234.65 165.738H239.6H244.55L248.792 182.709L245.964 188.366Z" fill="white"/>
<path d="M250.913 227.257L243.135 234.328L241.368 231.146L235.357 223.721L238.539 217.004L237.125 211.347L242.075 206.397L262.581 199.326L261.52 202.508L265.056 206.043L268.591 206.751L270.889 209.049L273.894 214.882L269.652 218.418L266.116 216.296L264.349 218.064L262.227 215.943L257.985 217.357L254.095 221.246L258.338 224.075L267.53 223.368L269.652 229.024L257.631 230.439L260.813 243.52L273.187 244.581L277.076 248.47L261.432 247.851L257.277 242.813L252.77 228.229L250.913 227.257Z" fill="white"/>
<path d="M261.167 190.134L262.934 191.901L266.116 188.719L262.581 178.113L257.985 173.517L261.167 190.134ZM261.167 190.134L259.045 192.255M261.167 190.134L256.57 171.395L255.863 169.274L243.135 162.91L241.368 164.678L245.257 167.153L248.439 183.062C248.792 184.595 249.782 187.8 250.913 188.366M250.913 188.366C252.045 188.931 256.806 191.194 259.045 192.255M250.913 188.366L238.539 200.74L246.671 204.629L259.045 192.255M298.643 194.376L298.997 198.265L301.472 200.74L300.765 207.811L284.855 215.236L281.319 211.7L281.673 209.225L277.784 203.215L280.612 201.801L267.53 197.912L268.591 194.023L266.47 193.316L264.349 191.194L262.227 194.73L263.376 190.222L267.177 188.366V186.952M298.643 194.376L297.229 190.841L295.461 191.194L291.219 186.952L291.572 185.184L267.177 186.952M298.643 194.376C291.336 193.433 276.581 191.548 276.016 191.548L271.066 190.841L267.177 186.952M228.286 196.144L224.397 182.355L234.65 165.738H239.6M228.286 196.144L233.943 200.387L245.964 188.366L248.792 182.709L244.55 165.738H239.6M228.286 196.144L240.749 184.565L242.693 180.853L239.6 165.738M270.359 197.912L266.823 204.983M272.127 216.65L277.43 221.953M272.127 216.65L259.752 220.539L264.349 233.621M272.127 216.65L278.491 210.286C279.316 212.525 280.824 217.145 280.258 217.711C279.693 218.276 288.037 218.889 292.279 219.125M277.43 221.953L273.187 229.731M277.43 221.953L295.108 236.803L289.804 242.106L273.187 229.731M273.187 229.731L264.349 233.621M264.349 233.621L253.742 231.499L245.257 243.52L239.953 238.217L241.368 231.146M241.368 231.146L235.357 223.721L238.539 217.004L237.125 211.347L242.075 206.397M241.368 231.146L243.135 234.328L250.913 227.257L252.77 228.229L257.277 242.813L261.432 247.851L277.076 248.47L273.187 244.581L260.813 243.52L257.631 230.439L269.652 229.024L267.53 223.368L258.338 224.075L254.095 221.246L257.985 217.357L262.227 215.943L264.349 218.064L266.116 216.296L269.652 218.418L273.894 214.882L270.889 209.049L268.591 206.751L265.056 206.043L261.52 202.508L262.581 199.326L242.075 206.397M241.368 231.146L243.842 223.721L241.721 218.064L247.024 212.761M242.075 206.397L247.024 212.761M247.024 212.761L266.823 210.64M261.167 248.823L282.38 249.53C287.624 242.283 305.856 234.823 305.007 233.974C304.159 233.126 292.044 219.125 289.451 215.589L297.583 208.165L279.905 190.487L264.288 194.084L263.995 190.134L257.631 171.042L241.368 167.506L230.054 191.548L249.146 225.489L230.231 228.141L261.167 248.823ZM276.016 199.326L278.844 202.154L276.016 204.983L273.187 202.154L276.016 199.326Z" stroke="black" stroke-width="2"/>
<path d="M121.672 239.602L150.504 244.914L146.435 266.997L146.254 267.98L147.237 268.162L150.094 268.688L148.331 278.254L137.795 276.313L137.186 276.201L136.815 276.695L131.93 283.182L108.56 278.876L111.74 261.621L114.596 262.147L115.501 262.314L115.743 261.426L121.672 239.602Z" fill="white" stroke="black" stroke-width="2"/>
<rect x="100.927" y="254.082" width="12" height="19" transform="rotate(10.4401 100.927 254.082)" fill="white" stroke="black" stroke-width="2"/>
<rect x="-1.27708" y="-0.607499" width="21.3007" height="44.6013" transform="matrix(-0.334793 -0.942292 -0.942292 0.334793 125.329 243.875)" fill="white" stroke="black" stroke-width="2"/>
<path d="M108.958 238.247L102.727 229.202L20.2166 259.096L19.8088 261.309L108.958 238.247Z" fill="white"/>
<path d="M102.727 229.202L108.958 238.247L19.8088 261.309L20.2166 259.096L102.727 229.202ZM102.727 229.202L98.0537 222.417" stroke="black" stroke-width="2"/>
<path d="M73.1828 261.172L82.7684 251.291L97.6405 244.325" stroke="black" stroke-width="2"/>
<path d="M106.523 251.62L106.342 252.603L105.359 252.422L102.523 251.9L101.83 255.661L112.747 257.673L120.594 249.943L122.286 240.762L107.136 248.292L106.523 251.62Z" fill="white" stroke="black" stroke-width="2"/>
<path d="M94.5745 275.165L103.189 270.543L104.338 277.989L95.0927 279.281L94.5745 275.165Z" fill="white" stroke="black" stroke-width="2"/>
<path d="M96 279L96 286" stroke="black" stroke-width="2"/>
<path d="M100 278L100 285" stroke="black" stroke-width="2"/>
<path d="M104 277L104 284" stroke="black" stroke-width="2"/>
<path d="M135.883 256.618L134.978 242.216L148.194 244.651L142.215 257.785L135.883 256.618Z" fill="white" stroke="black" stroke-width="2"/>
<path d="M37.2799 229L62.1314 225.044L61.6183 235.155L76.2786 240.548L33.7045 247.807C33.7045 247.807 23.1886 249.26 13.5001 250.812L13.3661 248.58L23.0084 241.281L23.8565 236.75L34.6997 234.531L37.2799 229Z" fill="white"/>
<path d="M37.2799 229L62.1314 225.044L61.6183 235.155L76.2786 240.548L33.7045 247.807C33.7045 247.807 23.1886 249.26 13.5001 250.812L13.3661 248.58L23.0084 241.281L23.8565 236.75L34.6997 234.531L37.2799 229Z" fill="white"/>
<path d="M34.6997 234.531L37.2799 229L62.1314 225.044L61.6183 235.155M34.6997 234.531L23.8565 236.75L23.0084 241.281L13.3661 248.58L13.5001 250.812C23.1886 249.26 33.7045 247.807 33.7045 247.807M34.6997 234.531L38.1997 240.593M33.7045 247.807L38.1997 240.593M33.7045 247.807L76.2786 240.548L61.6183 235.155M61.6183 235.155L38.1997 240.593" stroke="black" stroke-width="2"/>
<path d="M125.69 288.71L116.823 280.733L124.706 273.445L120.962 267.201L123.308 262.431L119.28 260.922L128.645 255.307L151.155 252.381L166.317 245.213L172.63 245.592L174.502 248.714L173.053 249.102L174.606 254.898L177.279 255.216L177.09 258.373L173.52 262.435L152.13 259.884L148.491 259.824L151.493 265.232L158.03 264.515L159.514 266.188L161.584 266.186L167.276 266.179L168.122 273.199L166.234 283.54L158.804 284.792L145.432 287.044L131.306 298.076L123.837 301.112L123.06 298.214L127.89 296.92L125.69 288.71Z" fill="white"/>
<path d="M159.514 266.188L158.03 264.515L151.493 265.232L148.491 259.824M159.514 266.188C154.224 268.986 143.549 274.607 143.162 274.711C142.776 274.814 137.677 275.49 135.176 275.815L124.706 273.445M159.514 266.188L161.584 266.186M148.491 259.824L152.13 259.884L173.52 262.435L177.09 258.373L177.279 255.216L174.606 254.898L173.053 249.102L174.502 248.714L172.63 245.592L166.317 245.213L151.155 252.381L128.645 255.307L119.28 260.922L123.308 262.431L120.962 267.201L124.706 273.445M148.491 259.824L126.783 259.947M124.706 273.445L116.823 280.733L125.69 288.71L127.89 296.92L123.06 298.214L123.837 301.112L131.306 298.076L145.432 287.044L158.804 284.792M158.804 284.792L166.234 283.54L168.122 273.199L167.276 266.179L161.584 266.186M158.804 284.792L158.213 282.584L165.069 279.194L165.06 271.432L161.584 266.186" stroke="black" stroke-width="2"/>
<path fill-rule="evenodd" clip-rule="evenodd" d="M176.635 281.789L166.811 281.833L168.475 272.587L165.085 265.731L169.827 244.79L176.796 255.346L177.184 256.795L174.71 261.081L193.106 265.987L195.156 279.431L184.117 276.16L184.845 279.589L176.635 281.789Z" fill="white"/>
<path d="M176.796 255.346L189.742 253.43L188.577 249.083L191.216 247.341L188.568 241.321L170.887 242.953L169.827 244.79L176.796 255.346Z" fill="white"/>
<path d="M202.465 281.597L203.138 278.311L200.933 266.219L198.349 260.441L177.184 256.795L174.71 261.081L193.106 265.987L195.156 279.431L202.465 281.597Z" fill="white"/>
<path d="M168.475 272.587L174.176 272.612L182.869 270.283L184.117 276.16M168.475 272.587L166.811 281.833L176.635 281.789L184.845 279.589L184.117 276.16M168.475 272.587L165.085 265.731L169.827 244.79M184.117 276.16L195.156 279.431M177.184 256.795L198.349 260.441L200.933 266.219L203.138 278.311L202.465 281.597L195.156 279.431M177.184 256.795L176.796 255.346M177.184 256.795L174.71 261.081L193.106 265.987L195.156 279.431M176.796 255.346L189.742 253.43L188.577 249.083L191.216 247.341L188.568 241.321L170.887 242.953L169.827 244.79M176.796 255.346L169.827 244.79" stroke="black" stroke-width="2"/>
<path d="M192.202 295H180V266H198V284H195.5H194.702L194.525 284.778L192.202 295Z" fill="white" stroke="black" stroke-width="2"/>
<path d="M175 278H191L183 295H175V278Z" fill="white"/>
<path d="M191 278H175V295H183L191 278ZM191 278V271" stroke="black" stroke-width="2"/>
<path d="M180 278H164L172 261H180V278Z" fill="white"/>
<path d="M164 278H180V261H172L164 278ZM164 278V285" stroke="black" stroke-width="2"/>
<circle cx="182.5" cy="277.5" r="4.5" fill="white" stroke="black" stroke-width="2"/>
<path d="M258.799 259.467L269.366 253.366L283.866 278.481L268.278 287.481L259.278 271.892L261.443 270.642L262.134 270.243L261.898 269.481L258.799 259.467Z" fill="white" stroke="black" stroke-width="2"/>
<path d="M282.196 265.588L268.34 273.588L266.768 254.866L273.696 250.866L282.196 265.588Z" fill="white"/>
<path d="M268.34 273.588L282.196 265.588L273.696 250.866L266.768 254.866L268.34 273.588ZM268.34 273.588L271.84 279.651" stroke="black" stroke-width="2"/>
<path d="M277.866 268.088L291.722 260.088L293.294 278.811L286.366 282.811L277.866 268.088Z" fill="white"/>
<path d="M291.722 260.088L277.866 268.088L286.366 282.811L293.294 278.811L291.722 260.088ZM291.722 260.088L288.222 254.026" stroke="black" stroke-width="2"/>
<circle cx="275.951" cy="269.771" r="4.5" transform="rotate(150 275.951 269.771)" fill="#B3B3B3" stroke="black" stroke-width="2"/>
<path d="M153.756 79.7031L150.824 81.5391L151.924 87.7812L157.786 102.102L155.954 104.672L157.786 109.812H149.359L153.756 132.211H167.679L165.114 127.621H172.809L161.45 112.383L165.114 111.281L155.954 93.6562V90.7188L169.878 98.7969V94.7578L167.679 90.7188L169.878 87.0469H161.45L153.756 79.7031Z" fill="#B3B3B3"/>
<path d="M131.771 78.6016L148.26 81.1719V76.3984L155.588 99.1641L154.122 105.039L151.557 102.102L151.191 108.344L155.588 130.742L154.489 147.266L143.13 148L129.206 140.656L133.237 128.539L133.603 116.789L135.435 112.75L134.336 111.648L136.168 106.508L139.466 101.734L135.435 102.836L131.771 100.633L136.901 97.6953L136.168 96.5938L132.504 98.4297L130.672 96.2266L134.336 92.9219L138.733 83.7422L131.771 78.6016Z" fill="#B3B3B3"/>
<path d="M131.405 81.1719L136.901 83.7422L130.672 91.0859L120.046 92.5547L114.183 95.8594L115.649 85.5781H119.679L127.74 84.8438V83.375L131.405 81.1719Z" fill="#B3B3B3"/>
<path d="M129.206 74.9297L136.901 69.7891L135.069 63.1797L130.672 60.2422L126.275 58.7734L134.336 59.1406L142.763 61.7109L147.16 66.1172C151.924 67.3411 161.157 69.7891 159.985 69.7891C158.812 69.7891 153.389 71.7474 150.824 72.7266L149.359 69.7891L144.962 67.2188L138.366 68.6875V72.7266L129.206 74.9297Z" fill="#B3B3B3"/>
<path d="M136.534 73.8281H138.733M141.664 80.0703L130.672 79.3359M153.756 78.2344L149.725 80.0703L154.855 74.5625H151.191M144.962 81.9062L149.359 84.4766M149.359 84.4766L150.824 81.5391M149.359 84.4766C149.969 85.2109 150.605 87.4141 151.191 88.8828C151.924 90.7188 155.588 99.5312 155.588 99.5312M137.634 83.7422L131.771 90.7188L119.679 93.2891L119.645 92.5547M132.137 80.4375V81.9062L131.038 81.1719L127.374 83.7422L127.74 85.2109L126.641 84.8438L119.313 85.5781L119.348 86.3125M153.756 79.7031L154.855 80.8047L153.389 81.9062L155.359 81.1719L156.458 81.9062L162.55 87.7812L173.176 87.0469M155.588 90.3516H156.687L159.252 93.2891L169.878 98.4297L171.344 92.5547H173.176L172.809 89.25M138 85.2109L134.336 93.2891L131.038 96.5938L132.504 98.4297C132.504 98.4297 135.212 97.5406 137.634 94.3906C140.118 91.1598 139.466 86.3125 139.466 86.3125M137.634 97.3281L131.771 101L135.435 102.836L139.099 101.734L136.168 106.141L134.336 112.016L135.435 112.383L133.603 116.789L132.87 128.539L130.672 136.25L129.939 140.289L143.496 148L148.26 147.633M151.191 106.141C151.191 106.385 151.191 107.095 151.191 107.977C151.191 109.078 153.756 116.789 154.122 120.461C154.415 123.398 155.221 128.784 155.588 131.109M154.489 101.734L154.122 104.305L152.519 102.836M158.153 106.141L161.45 112.016C161.45 112.016 169.023 121.44 169.878 123.031M155.588 91.8203C156.198 92.6771 164.455 110.033 164.748 110.914M143.13 67.2188L140.565 72.3594L142.397 76.0312L147.16 79.7031L146.794 77.5V76.0312L149.725 75.2969L148.626 71.2578L148.992 70.8906L147.893 69.7891L147.527 68.6875L146.061 67.9531M140.931 67.2188L138.733 70.8906V73.8281M138.733 73.8281L137.267 77.5H143.13M119.348 86.3125L114.916 84.8438L114.721 86.3125M119.348 86.3125L119.645 92.5547M119.645 92.5547L113.45 95.8594L114.281 89.6172M114.721 86.3125L109.053 85.5781L106.122 86.6797M114.721 86.3125L114.281 89.6172M109.786 87.0469C109.786 87.3406 109.786 88.3932 109.786 88.8828L106.122 91.6826H103.924M114.281 89.6172L109.053 92.1875L107.221 92.5547L105.756 88.8828" stroke="black" stroke-width="2"/>
<path d="M168.046 88.8828V92.1875L169.511 94.0234M169.511 88.1484L172.443 84.4766M172.809 85.9453H175.374V89.6172L171.71 91.4531M178.305 62.8125L168.046 117.156M186 56.5703L183.435 58.0391L183.016 60.2422M174.275 54L176.107 56.5703L175.664 58.5224M179.771 54L179.405 56.9375L179.038 58.8652M178.672 61.4355L179.038 58.8652M183.016 60.2422L181.969 65.75L182.702 69.0547L179.771 68.3203L177.939 64.7533L175.374 67.5859L172.443 67.2188L174.275 64.6484L175.664 58.5224M183.016 60.2422L185.267 60.6094M175.664 58.5224L172.809 58.0391M179.038 58.8652L177.573 59.2324M179.038 58.8652L181.237 59.875" stroke="black" stroke-width="2"/>
<path d="M153.389 73.0938L165.115 68.6875L147.16 66.0464L140.565 60.9766L134.336 59.1406M135.435 75.6641L120.779 77.1328C120.779 77.1328 134.699 70.4679 137.267 69.1787L135.435 64.2936M134.336 59.1406L132.137 60.6093M134.336 59.1406H123.71L132.137 60.6093M132.137 60.6093L134.611 63.5468" stroke="black" stroke-width="2"/>
<path d="M102.092 84.4766L94.7634 75.6641L90 67.2188L99.5267 75.6641H102.092L109.42 71.9922L107.954 68.3203L103.976 72.058L102.092 73.8281H99.5267L98.7939 66.4844L103.976 72.058L107.954 68.3203L109.42 71.9922L110.885 71.2578L114.183 80.4375L104.29 84.4766H102.092Z" fill="white"/>
<path d="M92.9313 67.2188L99.5267 73.8281M99.5267 73.8281H102.092L107.954 68.3203L109.42 71.9922M99.5267 73.8281L98.7939 66.4844L104.29 72.3961M109.42 71.9922L110.885 71.2578L114.183 80.4375L104.29 84.4766H102.092L94.7634 75.6641L90 67.2188L99.5267 75.6641H102.092L109.42 71.9922Z" stroke="black" stroke-width="2"/>
<path d="M69 147.236L76 161.236V169H62V161.236L69 147.236Z" fill="white" stroke="black" stroke-width="2"/>
<path d="M128 169.803L135 180.303V185H121V180.303L128 169.803Z" fill="white" stroke="black" stroke-width="2"/>
<path d="M104 193.414L111 200.414V208H97V200.414L104 193.414Z" fill="white" stroke="black" stroke-width="2"/>
<path d="M40 154.803L47 165.303V169H33V165.303L40 154.803Z" fill="white" stroke="black" stroke-width="2"/>
<rect x="247" y="130" width="2" height="10" fill="black"/>
<rect x="251" y="133" width="2" height="6" transform="rotate(90 251 133)" fill="black"/>
</svg>
