<svg width="72" height="72" viewBox="0 0 72 72" fill="none" xmlns="http://www.w3.org/2000/svg">
<rect width="4" height="29" transform="matrix(-1 0 0 1 41 17)" fill="url(#paint0_linear_827_49903)"/>
<rect width="2" height="13" transform="matrix(-1 0 0 1 41 35)" fill="url(#paint1_linear_827_49903)"/>
<rect width="2" height="13" transform="matrix(-1 0 0 1 35 35)" fill="url(#paint2_linear_827_49903)"/>
<rect width="2" height="13" transform="matrix(-1 0 0 1 33 31)" fill="url(#paint3_linear_827_49903)"/>
<rect width="3" height="5" transform="matrix(-1 0 0 1 35 15)" fill="url(#paint4_linear_827_49903)"/>
<rect width="2" height="11" transform="matrix(-1 0 0 1 35 22)" fill="url(#paint5_linear_827_49903)"/>
<rect width="3" height="7" transform="matrix(-1 0 0 1 30 38)" fill="#F3673B"/>
<rect width="2" height="3" transform="matrix(-1 0 0 1 27 38)" fill="#F3673B"/>
<rect width="2" height="3" transform="matrix(-1 0 0 1 45 26)" fill="#F3673B"/>
<rect width="2" height="2" transform="matrix(-1 0 0 1 36 8)" fill="#F3673B"/>
<path d="M36 24L36 72" stroke="black" stroke-width="2"/>
<path d="M45 71L27 71" stroke="black" stroke-width="2"/>
<path d="M40 69L32 69" stroke="black" stroke-width="2"/>
<path d="M40 51L32 51" stroke="black" stroke-width="2"/>
<path d="M35 47H27L30 44V39L27 36L30 33V25H27" stroke="black" stroke-width="2"/>
<path d="M37 47H45L42 44V39L45 36L42 33V25H45" stroke="black" stroke-width="2"/>
<defs>
<linearGradient id="paint0_linear_827_49903" x1="2" y1="0" x2="2" y2="29" gradientUnits="userSpaceOnUse">
<stop stop-color="#F3673B"/>
<stop offset="1" stop-color="#FF9900"/>
</linearGradient>
<linearGradient id="paint1_linear_827_49903" x1="1" y1="0" x2="1" y2="13" gradientUnits="userSpaceOnUse">
<stop stop-color="#F3673B"/>
<stop offset="1" stop-color="#FF9900"/>
</linearGradient>
<linearGradient id="paint2_linear_827_49903" x1="1" y1="0" x2="1" y2="13" gradientUnits="userSpaceOnUse">
<stop stop-color="#F3673B"/>
<stop offset="1" stop-color="#FF9900"/>
</linearGradient>
<linearGradient id="paint3_linear_827_49903" x1="1" y1="0" x2="1" y2="13" gradientUnits="userSpaceOnUse">
<stop stop-color="#F3673B"/>
<stop offset="1" stop-color="#FF9900"/>
</linearGradient>
<linearGradient id="paint4_linear_827_49903" x1="1.5" y1="0" x2="1.5" y2="5" gradientUnits="userSpaceOnUse">
<stop stop-color="#F3673B"/>
<stop offset="1" stop-color="#FF9900"/>
</linearGradient>
<linearGradient id="paint5_linear_827_49903" x1="1" y1="0" x2="1" y2="11" gradientUnits="userSpaceOnUse">
<stop stop-color="#F3673B"/>
<stop offset="1" stop-color="#FF9900"/>
</linearGradient>
</defs>
</svg>
