<svg width="240" height="196" viewBox="0 0 240 196" fill="none" xmlns="http://www.w3.org/2000/svg">
<path d="M101 173.781L101 175L115 175L115 171.039L115 157L106.153 157L107.99 169.859L108.079 170.482L107.555 170.832L104.555 172.832L104.411 172.928L104.243 172.97L101 173.781Z" fill="black" stroke="black" stroke-width="2"/>
<path d="M129 170L129 169.894L128.978 169.79L126.237 157L136.061 157L137 172.031L137 175L129 175L129 170Z" fill="black" stroke="black" stroke-width="2"/>
<path d="M116 116H135L137 123L141 164L138.5 162L138 165.5L135.5 164L126 168L127 165L125 162L121.5 130H116V116Z" fill="#383838" stroke="black" stroke-width="2"/>
<path d="M117 124.5L120 126V158L121.5 161.5L119 167.5L113.5 165L110.5 167L109.5 163.5L107 166V162L105 165L104 139.5L105 116H117V124.5Z" fill="#383838" stroke="black" stroke-width="2"/>
<rect opacity="0.5" x="128" y="141" width="6" height="8" fill="white" fill-opacity="0.2" stroke="black" stroke-width="2"/>
<rect opacity="0.5" x="130" y="138" width="2" height="2" fill="black"/>
<rect opacity="0.5" x="130" y="150" width="2" height="2" fill="black"/>
<path opacity="0.3" d="M116 176L100 176L100 178L104 179L107 182L105 196L116 196L116 180.961L116 176Z" fill="url(#paint0_linear_4061_57530)"/>
<path opacity="0.3" d="M128 176L138 176L138 180L137 196L125 196L128 182L128 176Z" fill="url(#paint1_linear_4061_57530)"/>
<defs>
<linearGradient id="paint0_linear_4061_57530" x1="108" y1="176" x2="108" y2="196" gradientUnits="userSpaceOnUse">
<stop/>
<stop offset="1" stop-opacity="0"/>
</linearGradient>
<linearGradient id="paint1_linear_4061_57530" x1="131.5" y1="176" x2="131.5" y2="196" gradientUnits="userSpaceOnUse">
<stop/>
<stop offset="1" stop-opacity="0"/>
</linearGradient>
</defs>
</svg>
