<svg width="240" height="192" viewBox="0 0 240 192" fill="none" xmlns="http://www.w3.org/2000/svg">
<path d="M138.5 76L152 92C152 103.376 143.472 111.828 131.5 112L126 94.0001L133 94.0001V87H130V76H138.5Z" fill="#956A2A"/>
<path d="M133 94.0001L126 94.0001L131.5 112C143.472 111.828 152 103.376 152 92L138.5 76H130V87H133V94.0001ZM133 94.0001H140" stroke="black" stroke-width="2"/>
<path d="M137 99L137 92.9997L141.971 92.9997L139.346 99L137 99Z" fill="#534C42" stroke="black" stroke-width="2"/>
<rect x="122" y="92" width="2" height="2" fill="black"/>
<rect x="139" y="75" width="5" height="2" fill="black"/>
<rect x="142" y="79" width="5" height="2" fill="black"/>
<g filter="url(#filter0_d_4062_58763)">
<path d="M119 87.0005H143V87.0287V87.059V87.0897V87.1208V87.1524V87.1843V87.2167V87.2494V87.2826V87.3161V87.3501V87.3844V87.4191V87.4542V87.4897V87.5256V87.5619V87.5986V87.6357V87.6731V87.7109V87.7491V87.7877V87.8267V87.866V87.9057V87.9458V87.9863V88.0271V88.0683V88.1099V88.1518V88.1941V88.2367V88.2798V88.3232V88.3669V88.411V88.4554V88.5003V88.5454V88.5909V88.6368V88.683V88.7296V88.7765V88.8237V88.8713V88.9193V88.9675V89.0162V89.0651V89.1144V89.164V89.214V89.2643V89.3149V89.3659V89.4171V89.4687V89.5207V89.5729V89.6255V89.6784V89.7316V89.7851V89.839V89.8931V89.9476V90.0024V90.0575V90.1129V90.1686V90.2246V90.281V90.3376V90.3945V90.4517V90.5093V90.5671V90.6252V90.6836V90.7424V90.8014V90.8607V90.9202V90.9801V91.0403V91.1007V91.1614V91.2224V91.2837V91.3453V91.4071V91.4692V91.5316V91.5943V91.6572V91.7204V91.7839V91.8477V91.9117V91.976V92.0405V92.1053V92.1704V92.2357V92.3012V92.3671V92.4332V92.4995V92.5661V92.6329V92.7V92.7674V92.835V92.9028V92.9709V93.0392V93.1077V93.1765V93.2456V93.3148V93.3843V93.4541V93.524V93.5942V93.6647V93.7353V93.8062V93.8773V93.9486V94.0202V94.092V94.1639V94.2361V94.3086V94.3812V94.4541V94.5271V94.6004V94.6739V94.7476V94.8215V94.8956V94.9699V95.0444V95.1191V95.194V95.2691V95.3444V95.4199V95.4955V95.5714V95.6475V95.7237V95.8002V95.8768V95.9536V96.0306V96.1078V96.1851V96.2627V96.3404V96.4183V96.4963V96.5746V96.653V96.7316V96.8103V96.8892V96.9683V97.0476V97.127V97.2065V97.2863V97.3662V97.4462V97.5264V97.6068V97.6873V97.7679V97.8488V97.9297V98.0108V98.0921V98.1735V98.255V98.3367V98.4185V98.5005V98.5826V98.6648V98.7472V98.8297V98.9123V98.9951V99.078V99.161V99.2442V99.3274V99.4108V99.4943V99.578V99.6617V99.7456V99.8296V99.9137V99.9979V100.082V100.167V100.251V100.336V100.421V100.505V100.59V100.676V100.761V100.846V100.931V101.017V101.102V101.188V101.274V101.36V101.445V101.531V101.618V101.704V101.79V101.876V101.963V102.049V102.136V102.222V102.309V102.396V102.483V102.57V102.657V102.744V102.831V102.918V103.006V103.093V103.18V103.268V103.355V103.443V103.53V103.618V103.706V103.794V103.881V103.969V104.057V104.145V104.233V104.321V104.409V104.497V104.586V104.674V104.762V104.85V104.938V105.027V105.115V105.204V105.292V105.38V105.469V105.557V105.646V105.734V105.823V105.911V106V106.089V106.177V106.266V106.354V106.443V106.531V106.62V106.709V106.797V106.886V106.975V107.063V107.152V107.24V107.329V107.418V107.506V107.595V107.683V107.772V107.86V107.949V108.037V108.126V108.214V108.303V108.391V108.48V108.568V108.656V108.745V108.833V108.921V109.009V109.097V109.185V109.274V109.362V109.45V109.538V109.625V109.713V109.801V109.889V109.977V110.064V110.152V110.24V110.327V110.414V110.502V110.589V110.676V110.764V110.851V110.938V111.025V111.112V111.199V111.286V111.372V111.459V111.545V111.632V111.718V111.805V111.891V111.977V112.063V112.149V112.235V112.321V112.407V112.492V112.578V112.663V112.749V112.834V112.919V113.004V113.089V113.174V113.259V113.344V113.428V113.512V113.597V113.681V113.765V113.849V113.933V114.017V114.1V114.184V114.267V114.351V114.434V114.517V114.6V114.682V114.765V114.848V114.93V115.012V115.094V115.176V115.258V115.34V115.421V115.503V115.584V115.665V115.746V115.827V115.907V115.988V116.068V116.149V116.229V116.308V116.388V116.468V116.547V116.626V116.705V116.784V116.863V116.942V117.02V117.098V117.176V117.254V117.332V117.41V117.487V117.564V117.641V117.718V117.795V117.871V117.947V118.023V118.099V118.175V118.25V118.326V118.401V118.476V118.55V118.625V118.699V118.773V118.847V118.921V118.994V119.068V119.141V119.214V119.286V119.359V119.431V119.503V119.575V119.646V119.717V119.789V119.859V119.93V120C143 121.683 142.285 123.659 141.099 125.745C139.924 127.813 138.344 129.892 136.742 131.756C135.143 133.616 133.541 135.241 132.337 136.402C131.798 136.922 131.34 137.347 131 137.658C130.66 137.347 130.202 136.922 129.663 136.402C128.459 135.241 126.857 133.616 125.258 131.756C123.656 129.892 122.076 127.813 120.901 125.745C119.715 123.659 119 121.683 119 120L119 98.5005L119 89.6255L119 87.0005Z" fill="#4C8859" stroke="black" stroke-width="2"/>
<rect x="122" y="114" width="2" height="2" fill="black"/>
<rect opacity="0.5" x="122" y="116" width="2" height="2" fill="black"/>
<rect opacity="0.2" x="130" y="112" width="2" height="2" fill="black"/>
<rect opacity="0.5" x="140" y="116" width="2" height="2" fill="black"/>
<rect x="130" y="110" width="2" height="2" fill="black"/>
<rect x="138" y="90.0005" width="2" height="2" fill="black"/>
<rect x="138" y="94.0005" width="2" height="2" fill="black"/>
<path d="M122 107L127 102L132 107" stroke="black" stroke-width="2"/>
<path d="M122 102L127 97.0005L132 102" stroke="white" stroke-width="2"/>
<path d="M122 112L127 107L132 112" stroke="white" stroke-width="2"/>
<path d="M122 97.0005L127 92.0005L132 97.0005" stroke="black" stroke-width="2"/>
<rect x="138" y="114" width="2" height="2" fill="black"/>
</g>
<defs>
<filter id="filter0_d_4062_58763" x="116" y="86.0005" width="28" height="57" filterUnits="userSpaceOnUse" color-interpolation-filters="sRGB">
<feFlood flood-opacity="0" result="BackgroundImageFix"/>
<feColorMatrix in="SourceAlpha" type="matrix" values="0 0 0 0 0 0 0 0 0 0 0 0 0 0 0 0 0 0 127 0" result="hardAlpha"/>
<feOffset dx="-2" dy="4"/>
<feComposite in2="hardAlpha" operator="out"/>
<feColorMatrix type="matrix" values="0 0 0 0 0 0 0 0 0 0 0 0 0 0 0 0 0 0 0.25 0"/>
<feBlend mode="normal" in2="BackgroundImageFix" result="effect1_dropShadow_4062_58763"/>
<feBlend mode="normal" in="SourceGraphic" in2="effect1_dropShadow_4062_58763" result="shape"/>
</filter>
</defs>
</svg>
