<svg width="240" height="192" viewBox="0 0 240 192" fill="none" xmlns="http://www.w3.org/2000/svg">
<path d="M138.5 76L152 92C152 103.376 143.472 111.828 131.5 112L126 94.0001L133 94.0001V87H130V76H138.5Z" fill="#956A2A"/>
<path d="M133 94.0001L126 94.0001L131.5 112C143.472 111.828 152 103.376 152 92L138.5 76H130V87H133V94.0001ZM133 94.0001H140" stroke="black" stroke-width="2"/>
<path d="M137 99L137 92.9997L141.971 92.9997L139.346 99L137 99Z" fill="#534C42" stroke="black" stroke-width="2"/>
<rect x="122" y="92" width="2" height="2" fill="black"/>
<rect x="139" y="75" width="5" height="2" fill="black"/>
<rect x="142" y="79" width="5" height="2" fill="black"/>
<g filter="url(#filter0_d_4062_58763)">
<path d="M114.355 89.7586L137.914 85.1792L137.919 85.2068L137.925 85.2366L137.931 85.2668L137.937 85.2973L137.943 85.3283L137.949 85.3596L137.955 85.3914L137.961 85.4235L137.968 85.4561L137.974 85.489L137.981 85.5223L137.987 85.556L137.994 85.5901L138 85.6246L138.007 85.6594L138.014 85.6947L138.021 85.7303L138.028 85.7663L138.035 85.8027L138.042 85.8394L138.049 85.8766L138.057 85.9141L138.064 85.9519L138.072 85.9902L138.079 86.0288L138.087 86.0678L138.094 86.1071L138.102 86.1468L138.11 86.1869L138.118 86.2274L138.126 86.2682L138.134 86.3093L138.142 86.3508L138.15 86.3927L138.158 86.435L138.166 86.4775L138.175 86.5205L138.183 86.5638L138.192 86.6074L138.2 86.6514L138.209 86.6957L138.217 86.7404L138.226 86.7854L138.235 86.8308L138.244 86.8765L138.253 86.9225L138.262 86.9689L138.271 87.0156L138.28 87.0627L138.289 87.1101L138.299 87.1578L138.308 87.2059L138.317 87.2543L138.327 87.303L138.336 87.352L138.346 87.4014L138.356 87.4511L138.365 87.5011L138.375 87.5514L138.385 87.6021L138.395 87.653L138.405 87.7043L138.415 87.7559L138.425 87.8079L138.435 87.8601L138.445 87.9127L138.456 87.9655L138.466 88.0187L138.476 88.0722L138.487 88.1259L138.497 88.18L138.508 88.2344L138.518 88.2891L138.529 88.3441L138.54 88.3994L138.551 88.455L138.562 88.5108L138.572 88.567L138.583 88.6235L138.594 88.6803L138.606 88.7373L138.617 88.7947L138.628 88.8523L138.639 88.9102L138.65 88.9684L138.662 89.0269L138.673 89.0857L138.685 89.1447L138.696 89.2041L138.708 89.2637L138.719 89.3235L138.731 89.3837L138.743 89.4441L138.755 89.5048L138.767 89.5658L138.778 89.6271L138.79 89.6886L138.802 89.7504L138.815 89.8124L138.827 89.8747L138.839 89.9373L138.851 90.0001L138.863 90.0632L138.876 90.1266L138.888 90.1902L138.9 90.2541L138.913 90.3182L138.925 90.3825L138.938 90.4472L138.95 90.512L138.963 90.5772L138.976 90.6425L138.989 90.7082L139.001 90.774L139.014 90.8401L139.027 90.9065L139.04 90.973L139.053 91.0399L139.066 91.1069L139.079 91.1742L139.092 91.2418L139.106 91.3095L139.119 91.3775L139.132 91.4457L139.145 91.5142L139.159 91.5829L139.172 91.6518L139.185 91.7209L139.199 91.7903L139.212 91.8598L139.226 91.9296L139.24 91.9997L139.253 92.0699L139.267 92.1403L139.281 92.211L139.295 92.2819L139.308 92.353L139.322 92.4243L139.336 92.4958L139.35 92.5675L139.364 92.6394L139.378 92.7116L139.392 92.7839L139.406 92.8564L139.42 92.9292L139.435 93.0021L139.449 93.0753L139.463 93.1486L139.477 93.2221L139.492 93.2958L139.506 93.3697L139.52 93.4439L139.535 93.5181L139.549 93.5926L139.564 93.6673L139.578 93.7421L139.593 93.8172L139.608 93.8924L139.622 93.9678L139.637 94.0434L139.652 94.1191L139.666 94.1951L139.681 94.2712L139.696 94.3475L139.711 94.4239L139.726 94.5006L139.741 94.5774L139.756 94.6543L139.771 94.7315L139.786 94.8088L139.801 94.8862L139.816 94.9639L139.831 95.0417L139.846 95.1196L139.861 95.1977L139.877 95.276L139.892 95.3544L139.907 95.433L139.922 95.5117L139.938 95.5906L139.953 95.6696L139.968 95.7488L139.984 95.8281L139.999 95.9076L140.015 95.9872L140.03 96.067L140.046 96.1469L140.061 96.2269L140.077 96.3071L140.093 96.3874L140.108 96.4679L140.124 96.5485L140.14 96.6292L140.155 96.7101L140.171 96.791L140.187 96.8722L140.203 96.9534L140.218 97.0348L140.234 97.1163L140.25 97.1979L140.266 97.2796L140.282 97.3615L140.298 97.4435L140.314 97.5256L140.33 97.6078L140.346 97.6901L140.362 97.7726L140.378 97.8551L140.394 97.9378L140.41 98.0206L140.426 98.1035L140.442 98.1865L140.458 98.2696L140.475 98.3528L140.491 98.4361L140.507 98.5195L140.523 98.603L140.539 98.6866L140.556 98.7703L140.572 98.8541L140.588 98.938L140.605 99.0219L140.621 99.106L140.637 99.1902L140.654 99.2744L140.67 99.3588L140.687 99.4432L140.703 99.5277L140.719 99.6123L140.736 99.697L140.752 99.7817L140.769 99.8666L140.785 99.9515L140.802 100.036L140.818 100.122L140.835 100.207L140.851 100.292L140.868 100.377L140.885 100.462L140.901 100.548L140.918 100.633L140.935 100.719L140.951 100.804L140.968 100.89L140.984 100.976L141.001 101.062L141.018 101.148L141.035 101.233L141.051 101.319L141.068 101.405L141.085 101.491L141.101 101.578L141.118 101.664L141.135 101.75L141.152 101.836L141.168 101.922L141.185 102.009L141.202 102.095L141.219 102.182L141.236 102.268L141.252 102.355L141.269 102.441L141.286 102.528L141.303 102.614L141.32 102.701L141.337 102.788L141.353 102.874L141.37 102.961L141.387 103.048L141.404 103.135L141.421 103.221L141.438 103.308L141.455 103.395L141.472 103.482L141.488 103.569L141.505 103.656L141.522 103.743L141.539 103.83L141.556 103.916L141.573 104.003L141.59 104.09L141.607 104.177L141.624 104.264L141.641 104.351L141.657 104.438L141.674 104.525L141.691 104.612L141.708 104.699L141.725 104.786L141.742 104.873L141.759 104.96L141.776 105.047L141.793 105.134L141.81 105.221L141.827 105.308L141.843 105.395L141.86 105.482L141.877 105.569L141.894 105.656L141.911 105.743L141.928 105.83L141.945 105.916L141.962 106.003L141.979 106.09L141.995 106.177L142.012 106.264L142.029 106.35L142.046 106.437L142.063 106.524L142.08 106.61L142.097 106.697L142.113 106.784L142.13 106.87L142.147 106.957L142.164 107.043L142.181 107.129L142.197 107.216L142.214 107.302L142.231 107.388L142.248 107.475L142.264 107.561L142.281 107.647L142.298 107.733L142.315 107.819L142.331 107.905L142.348 107.991L142.365 108.077L142.381 108.163L142.398 108.249L142.415 108.334L142.431 108.42L142.448 108.506L142.465 108.591L142.481 108.677L142.498 108.762L142.515 108.848L142.531 108.933L142.548 109.018L142.564 109.103L142.581 109.188L142.597 109.273L142.614 109.358L142.63 109.443L142.647 109.528L142.663 109.612L142.68 109.697L142.696 109.781L142.713 109.866L142.729 109.95L142.745 110.034L142.762 110.119L142.778 110.203L142.794 110.287L142.811 110.371L142.827 110.454L142.843 110.538L142.859 110.622L142.876 110.705L142.892 110.789L142.908 110.872L142.924 110.955L142.94 111.038L142.957 111.121L142.973 111.204L142.989 111.287L143.005 111.37L143.021 111.452L143.037 111.535L143.053 111.617L143.069 111.699L143.085 111.781L143.101 111.863L143.117 111.945L143.133 112.027L143.148 112.108L143.164 112.19L143.18 112.271L143.196 112.352L143.212 112.434L143.227 112.515L143.243 112.595L143.259 112.676L143.274 112.757L143.29 112.837L143.306 112.918L143.321 112.998L143.337 113.078L143.352 113.158L143.368 113.237L143.383 113.317L143.399 113.397L143.414 113.476L143.43 113.555L143.445 113.634L143.46 113.713L143.476 113.792L143.491 113.87L143.506 113.949L143.521 114.027L143.537 114.105L143.552 114.183L143.567 114.261L143.582 114.338L143.597 114.416L143.612 114.493L143.627 114.57L143.642 114.647L143.657 114.724L143.672 114.801L143.687 114.877L143.701 114.953L143.716 115.03L143.731 115.106L143.746 115.181L143.76 115.257L143.775 115.332L143.79 115.407L143.804 115.483L143.819 115.557L143.833 115.632L143.848 115.707L143.862 115.781L143.877 115.855L143.891 115.929L143.905 116.003L143.92 116.076L143.934 116.149L143.948 116.223L143.962 116.295L143.976 116.368L143.991 116.441L144.005 116.513L144.019 116.585L144.033 116.657L144.047 116.729L144.06 116.8L144.074 116.872L144.088 116.943L144.102 117.014L144.116 117.084L144.129 117.155L144.143 117.225L144.157 117.295L144.17 117.365L144.184 117.434L144.197 117.504L144.211 117.573C144.532 119.225 144.207 121.301 143.441 123.575C142.682 125.829 141.527 128.171 140.31 130.306C139.096 132.437 137.833 134.338 136.873 135.708C136.443 136.321 136.075 136.826 135.8 137.196C135.407 136.956 134.876 136.625 134.248 136.218C132.845 135.308 130.962 134.018 129.038 132.497C127.11 130.973 125.162 129.235 123.613 127.429C122.052 125.607 120.973 123.804 120.652 122.152L116.549 101.047L114.856 92.3354L114.355 89.7586Z" fill="#4C8859" stroke="black" stroke-width="2"/>
<rect x="122.452" y="115.69" width="2" height="2" transform="rotate(-11 122.452 115.69)" fill="black"/>
<rect opacity="0.5" x="122.833" y="117.653" width="2" height="2" transform="rotate(-11 122.833 117.653)" fill="black"/>
<rect opacity="0.2" x="129.923" y="112.2" width="2" height="2" transform="rotate(-11 129.923 112.2)" fill="black"/>
<rect opacity="0.5" x="140.502" y="114.219" width="2" height="2" transform="rotate(-11 140.502 114.219)" fill="black"/>
<rect x="129.541" y="110.237" width="2" height="2" transform="rotate(-11 129.541 110.237)" fill="black"/>
<rect x="133.578" y="89.0781" width="2" height="2" transform="rotate(-11 133.578 89.0781)" fill="black"/>
<rect x="134.341" y="93.0044" width="2" height="2" transform="rotate(-11 134.341 93.0044)" fill="black"/>
<path d="M121.116 108.819L125.07 102.957L130.932 106.911" stroke="black" stroke-width="2"/>
<path d="M120.162 103.911L124.116 98.0484L129.978 102.002" stroke="white" stroke-width="2"/>
<path d="M122.07 113.727L126.024 107.865L131.886 111.819" stroke="white" stroke-width="2"/>
<path d="M119.208 99.0024L123.162 93.1402L129.024 97.0943" stroke="black" stroke-width="2"/>
<rect x="138.158" y="112.637" width="2" height="2" transform="rotate(-11 138.158 112.637)" fill="black"/>
</g>
<defs>
<filter id="filter0_d_4062_58763" x="111.182" y="84.0068" width="37.6352" height="60.9873" filterUnits="userSpaceOnUse" color-interpolation-filters="sRGB">
<feFlood flood-opacity="0" result="BackgroundImageFix"/>
<feColorMatrix in="SourceAlpha" type="matrix" values="0 0 0 0 0 0 0 0 0 0 0 0 0 0 0 0 0 0 127 0" result="hardAlpha"/>
<feOffset dx="-2" dy="4"/>
<feComposite in2="hardAlpha" operator="out"/>
<feColorMatrix type="matrix" values="0 0 0 0 0 0 0 0 0 0 0 0 0 0 0 0 0 0 0.25 0"/>
<feBlend mode="normal" in2="BackgroundImageFix" result="effect1_dropShadow_4062_58763"/>
<feBlend mode="normal" in="SourceGraphic" in2="effect1_dropShadow_4062_58763" result="shape"/>
</filter>
</defs>
</svg>
