<svg width="240" height="192" viewBox="0 0 240 192" fill="none" xmlns="http://www.w3.org/2000/svg">
<path d="M105 80H116L120 78V54H113.83L105 80Z" fill="#393027" stroke="black" stroke-width="2"/>
<path d="M114 56L110 58L109 63L109.5 65L108 68.5L109 69L110 74H114L115 77L123 74L122.5 72L125 66V60L122.5 56H114Z" fill="#8B7A67" stroke="black" stroke-width="2"/>
<rect x="111" y="66" width="2" height="2" transform="rotate(-90 111 66)" fill="black"/>
<mask id="path-4-inside-1_4061_57735" fill="white">
<path fill-rule="evenodd" clip-rule="evenodd" d="M125.475 73.2104L129.5 74.1004L131 63.1004L129.749 62.5356C129.051 58.3288 126.439 55.2901 121 55.1091V54.0993C113.476 53.3979 108.686 56.3817 107 64H115.5V69.1004L114 71.9998H120L122.512 72.5553L122.664 73.2104H125.475Z"/>
</mask>
<path fill-rule="evenodd" clip-rule="evenodd" d="M125.475 73.2104L129.5 74.1004L131 63.1004L129.749 62.5356C129.051 58.3288 126.439 55.2901 121 55.1091V54.0993C113.476 53.3979 108.686 56.3817 107 64H115.5V69.1004L114 71.9998H120L122.512 72.5553L122.664 73.2104H125.475Z" fill="#343030"/>
<path d="M125.475 73.2104L125.907 71.2576L125.693 71.2104H125.475V73.2104ZM129.5 74.1004L129.068 76.0532L131.188 76.522L131.482 74.3706L129.5 74.1004ZM131 63.1004L132.982 63.3706L133.183 61.8919L131.823 61.2777L131 63.1004ZM129.749 62.5356L127.776 62.863L127.951 63.9181L128.926 64.3583L129.749 62.5356ZM121 55.1091H119V57.0437L120.933 57.108L121 55.1091ZM121 54.0993H123V52.2771L121.186 52.108L121 54.0993ZM107 64L105.047 63.5679L104.509 66H107V64ZM115.5 64H117.5V62H115.5V64ZM115.5 69.1004L117.276 70.0194L117.5 69.5871V69.1004H115.5ZM114 71.9998L112.224 71.0808L110.714 73.9998H114V71.9998ZM120 71.9998L120.432 70.047L120.218 69.9998H120V71.9998ZM122.512 72.5553L124.461 72.1045L124.176 70.8749L122.944 70.6024L122.512 72.5553ZM122.664 73.2104L120.715 73.6611L121.073 75.2104H122.664V73.2104ZM125.043 75.1632L129.068 76.0532L129.932 72.1476L125.907 71.2576L125.043 75.1632ZM131.482 74.3706L132.982 63.3706L129.018 62.8302L127.518 73.8302L131.482 74.3706ZM131.823 61.2777L130.572 60.7128L128.926 64.3583L130.177 64.9231L131.823 61.2777ZM120.933 57.108C123.281 57.1861 124.801 57.8658 125.797 58.7837C126.807 59.7141 127.479 61.0738 127.776 62.863L131.722 62.2081C131.321 59.7906 130.338 57.5276 128.507 55.8417C126.664 54.1432 124.158 53.2131 121.067 53.1102L120.933 57.108ZM123 55.1091V54.0993H119V55.1091H123ZM121.186 52.108C117.144 51.7312 113.544 52.3162 110.68 54.2803C107.794 56.2586 105.964 59.4233 105.047 63.5679L108.953 64.4321C109.721 60.9584 111.129 58.8221 112.942 57.5792C114.775 56.3222 117.332 55.766 120.814 56.0907L121.186 52.108ZM107 66H115.5V62H107V66ZM113.5 64V69.1004H117.5V64H113.5ZM113.724 68.1814L112.224 71.0808L115.776 72.9188L117.276 70.0194L113.724 68.1814ZM114 73.9998H120V69.9998H114V73.9998ZM119.568 73.9527L122.08 74.5081L122.944 70.6024L120.432 70.047L119.568 73.9527ZM124.612 72.7597L124.461 72.1045L120.564 73.006L120.715 73.6611L124.612 72.7597ZM125.475 71.2104H122.664V75.2104H125.475V71.2104Z" fill="black" mask="url(#path-4-inside-1_4061_57735)"/>
<rect x="115.384" y="59.8018" width="2" height="3" transform="rotate(30 115.384 59.8018)" fill="black"/>
<path d="M107 83.0002L110 77H116V79L123 77H131V81H119L110 87.5V83.0002H107Z" fill="#393027" stroke="black" stroke-width="2"/>
<rect opacity="0.5" x="111" y="80" width="4" height="2" fill="#3A0202"/>
<path d="M122 54L133 63L129 73L130 77H116L122 73L113.83 54H122Z" fill="#393027" stroke="black" stroke-width="2"/>
<rect opacity="0.5" x="124" y="64" width="2" height="2" fill="#491B0D"/>
<rect opacity="0.5" x="124" y="66" width="2" height="2" fill="#3A0202"/>
<rect opacity="0.5" x="124" y="78" width="6" height="2" fill="#3A0202"/>
<rect x="110" y="82" width="2" height="2" fill="black"/>
</svg>
