<svg width="246" height="192" viewBox="0 0 246 192" fill="none" xmlns="http://www.w3.org/2000/svg">
<path d="M94.5 47.5L103 23L115 28.5L100.5 61L88 58L87 50.5L94.5 47.5Z" fill="#D9D9D9"/>
<path d="M94.5 47.5L103 23L115 28.5L100.5 61L88 58L87 50.5L94.5 47.5Z" fill="black" fill-opacity="0.8"/>
<path d="M94.5 47.5L103 23L115 28.5L100.5 61L88 58L87 50.5L94.5 47.5Z" stroke="black" stroke-width="2"/>
<path d="M118.5 141.5L92.5 103V89L112.5 56H139L142 126L126.5 96.5L132 126H126.5L125.5 137L112.5 122L122.5 141L118.5 141.5Z" fill="#D9D9D9"/>
<path d="M118.5 141.5L92.5 103V89L112.5 56H139L142 126L126.5 96.5L132 126H126.5L125.5 137L112.5 122L122.5 141L118.5 141.5Z" fill="black" fill-opacity="0.8"/>
<path d="M126.5 126L125.5 137L112.5 122L122.5 141L118.5 141.5L92.5 103V89L112.5 56H139L142 126L126.5 96.5L132 126H126.5ZM126.5 126L112.5 109" stroke="black" stroke-width="2"/>
<path d="M130 77.5C132.5 71.5 137.6 59.4 138 59L147 52.5L155.5 110.5L149.5 114.5L140 111.5L130 77.5Z" fill="#D9D9D9"/>
<path d="M130 77.5C132.5 71.5 137.6 59.4 138 59L147 52.5L155.5 110.5L149.5 114.5L140 111.5L130 77.5Z" fill="black" fill-opacity="0.2"/>
<path d="M130 77.5C132.5 71.5 137.6 59.4 138 59L147 52.5L155.5 110.5L149.5 114.5L140 111.5L130 77.5Z" stroke="black" stroke-width="2"/>
<path d="M115.5 55L123.5 78H125L105.5 113.5V118.5L102.5 117.5L99 108.5L93.5 107L110 52.5L115.5 55Z" fill="#D9D9D9"/>
<path d="M115.5 55L123.5 78H125L105.5 113.5V118.5L102.5 117.5L99 108.5L93.5 107L110 52.5L115.5 55Z" fill="black" fill-opacity="0.2"/>
<path d="M128.5 78H125M125 78H123.5L115.5 55L110 52.5L93.5 107L99 108.5L102.5 117.5L105.5 118.5V113.5L125 78Z" stroke="black" stroke-width="2"/>
<path d="M222.5 12.5L219.5 17.5L220.5 19.5L226.5 20.5L225.5 18.5L232 18L229 11L223.5 14.5L222.5 12.5Z" fill="#D9D9D9" stroke="black" stroke-width="2"/>
<path d="M37 92.5L40.5 94L20.5 102L18.5 96.5L27 98.5L28 95L22.5 94L26 90L20.5 87L15.5 89L9 95L10 85L22 70.5L38.5 68V69L40.5 68L50.5 74L43 76.5L36 85.5L38.5 88H40.5L37 92.5Z" fill="#D9D9D9" stroke="black" stroke-width="2"/>
<path d="M39.5165 98.2634L40.9307 94.7278L21.1317 103.213L23.6066 108.516L28.2028 101.092L31.3848 102.86L28.2028 107.456L33.5061 107.809L31.7383 113.82L26.7886 115.941L17.9497 116.295L25.7279 122.659L44.4662 124.426L57.9013 114.527L57.1942 113.82L59.3155 113.113L62.1439 101.799L55.0728 105.334L43.7591 103.92V100.385L45.1734 98.9705L39.5165 98.2634Z" fill="#D9D9D9" stroke="black" stroke-width="2"/>
<path d="M95 53H89L85.5 64.5L76.75 72L76 74H81.5L87 78L103 58C100.667 56.3333 95.8 53 95 53Z" fill="#D9D9D9" stroke="black" stroke-width="2"/>
<path d="M75.5 86L84 79.5L81 72.5L75.5 75L62 80L61 94L65 93.5L66 94L68 92.5L69.5 93.5L73.5 90.5L75.5 86Z" fill="#D9D9D9" stroke="black" stroke-width="2"/>
<rect x="15.9383" y="102.79" width="221.801" height="4" transform="rotate(-22.9479 15.9383 102.79)" fill="#D9D9D9" stroke="black" stroke-width="2"/>
<path d="M137 58C134.6 59.2 129 62.1667 126.5 63.5L121.5 62.5L97 91.5L100.5 80.5L93.5 89L94.5 101.5L92.5 107L90 99L88 101.5V95.5L102 70L105.5 53.5L109.5 51.5L146 47.5L141.5 43.5L155 45L189 59.5V65L180.5 62L197.5 76.5L202.5 93.5L200 91.8621V114.5L198 113V115.5L196 114.02V118C194.056 117.514 190.8 116.673 189.489 116.254C190.941 117.344 194.616 121.681 196.5 124L194.5 127.5L186.5 121.5L192 134.5L189 136.5L185.875 144L170.5 125.5L165.5 129.5L151 103L137 58Z" fill="#D9D9D9"/>
<path d="M173.5 74.5L200 91.8621M200 91.8621L202.5 93.5L197.5 76.5L180.5 62L189 65V59.5L155 45L141.5 43.5L146 47.5L109.5 51.5L105.5 53.5L102 70L88 95.5V101.5L90 99L92.5 107L94.5 101.5L93.5 89L100.5 80.5L97 91.5L121.5 62.5L126.5 63.5C129 62.1667 134.6 59.2 137 58L151 103L165.5 129.5L170.5 125.5L185.875 144L189 136.5L192 134.5L186.5 121.5L194.5 127.5L196.5 124C194.333 121.333 189.8 116 189 116C188.2 116 193.333 117.333 196 118V114.02M200 91.8621V114.5L198 113V115.5L196 114.02M173 97L196 114.02" stroke="black" stroke-width="2"/>
<path d="M104 125L105 117L96.5 113L88.5 123L91.5 130L104 125Z" fill="#D9D9D9" stroke="black" stroke-width="2"/>
<path d="M87.5 125V122L95 127L104 125L105 128.5L100.5 132.5L99.5234 135L95.2266 146L90.5 160.5L92 175.5H88L85 161.5H80L84.2759 146L87.5 129.5V125Z" fill="#D9D9D9"/>
<path d="M87.5 125V122L95 127L104 125L105 128.5L100.5 132.5L99.5234 135L95.2266 146L90.5 160.5L92 175.5H88L85 161.5H80L84.2759 146L87.5 129.5V125Z" fill="black" fill-opacity="0.2"/>
<path d="M87.5 129.5V125V122L95 127L104 125L105 128.5L100.5 132.5L99.5234 135M87.5 129.5V141L99.5234 135M87.5 129.5L84.2759 146M99.5234 135L95.2266 146M95.2266 146L90.5 160.5L92 175.5H88L85 161.5H80L84.2759 146M95.2266 146L85 153L84.2759 146" stroke="black" stroke-width="2"/>
<path d="M66 175L59 164L69 170L81.5 164V175H66Z" fill="#D9D9D9" stroke="black" stroke-width="2"/>
<path d="M156.5 62.5L154 55.5L160 48L168.5 53L172 60L168.5 67.5L167 104.5L160 101.5V67.5L156.5 62.5Z" fill="#D9D9D9" stroke="black" stroke-width="2"/>
<path d="M162 60L155.5 63C156.833 67.8333 159.5 77.6 159.5 78C159.5 78.4 160.75 90.1667 161.375 96L163 93L164.5 97L172 94.5L170 66.5L168 65L165.5 63L164.5 65L161.375 64L162 60Z" fill="#D9D9D9" stroke="black" stroke-width="2"/>
<path d="M153.5 56C153.1 56.4 151.333 49.8333 150.5 46.5V44.5L159.5 36.5L163 46.5L167.5 52.5L163 56L158 50.5C156.667 52.1667 153.9 55.6 153.5 56Z" fill="#D9D9D9"/>
<path d="M153.5 56C153.1 56.4 151.333 49.8333 150.5 46.5V44.5L159.5 36.5L163 46.5L167.5 52.5L163 56L158 50.5C156.667 52.1667 153.9 55.6 153.5 56Z" fill="black" fill-opacity="0.8"/>
<path d="M153.5 56C153.1 56.4 151.333 49.8333 150.5 46.5V44.5L159.5 36.5L163 46.5L167.5 52.5L163 56L158 50.5C156.667 52.1667 153.9 55.6 153.5 56Z" stroke="black" stroke-width="2"/>
<path d="M69.5 75.5H74.5L71 81L65.5 82L67 85.5L71 83.5L70.25 85.5L75.5 79.5L74.5 86L73.5 90.5L69.5 93L67.5 92L66 94L63.5 92L60.5 93L63.5 89L60.5 79.5L69.5 75.5Z" fill="#D9D9D9"/>
<path d="M63.5 89L60.5 79.5L69.5 75.5H74.5L71 81L65.5 82L67 85.5L71 83.5L70.25 85.5M63.5 89L69.5 87.5L70.25 85.5M63.5 89L60.5 93L63.5 92L66 94L67.5 92L69.5 93L73.5 90.5L74.5 86L75.5 79.5L70.25 85.5" stroke="black" stroke-width="2"/>
<path d="M104.5 37L100 30.5L96.5 38H93.5L96.5 41L93.5 46H98.5L105.5 49.5L106.5 45.5L110.5 42.5L103.75 39.25L104.5 37Z" fill="#D9D9D9"/>
<path d="M100 28.5V30.5M100 30.5L104.5 37L103.75 39.25M100 30.5L96.5 38H93.5L96.5 41L93.5 46H98.5L105.5 49.5L106.5 45.5L110.5 42.5L103.75 39.25M103 41.5L103.75 39.25" stroke="black" stroke-width="2"/>
<path d="M90 111.5L92.5 108L97 93.5L107 118.5L100.5 116.5C97 117.833 92.5 123.5 92.5 123.5L86.5 122.5L88.5 117.5L90 111.5Z" fill="#D9D9D9" stroke="black" stroke-width="2"/>
<path d="M157 111.5L154.5 108L150 93.5L140 118.5L146.5 116.5C150 117.833 150.5 127.5 150.5 127.5L156.5 126.5L158.5 117.5L157 111.5Z" fill="#D9D9D9" stroke="black" stroke-width="2"/>
<path d="M163 165H156.5L152 175H148.5L152 161L148.5 147L144 134.5L138 121.5H142L144 128L154.5 131.5L158.5 128V138.5L160.75 151.75L163 165Z" fill="#D9D9D9"/>
<path d="M163 165H156.5L152 175H148.5L152 161L148.5 147L144 134.5L138 121.5H142L144 128L154.5 131.5L158.5 128V138.5L160.75 151.75L163 165Z" fill="black" fill-opacity="0.2"/>
<path d="M158.5 138.5L156.5 143L144 134.5M158.5 138.5L160.75 151.75M158.5 138.5V128L154.5 131.5L144 128L142 121.5H138L144 134.5M144 134.5L148.5 147M148.5 147L158.5 159L160.75 151.75M148.5 147L152 161L148.5 175H152L156.5 165H163L160.75 151.75" stroke="black" stroke-width="2"/>
<path d="M167.5 175L164 165.5L159.5 161.5L156 165.5L153 175H167.5Z" fill="#D9D9D9" stroke="black" stroke-width="2"/>
<path d="M169 102L160 99L157 107L154.5 113L157 122V113.5L160 108V114V125.5L162 114L163.5 111V117.5L164.5 124L167 117.5L169 111V102Z" fill="#D9D9D9"/>
<path d="M167 117.5L169 111V102L160 99L157 107L154.5 113L157 122V113.5L160 108V114V125.5L162 114L163.5 111V117.5L164.5 124L167 117.5ZM167 117.5V123.5" stroke="black" stroke-width="2"/>
<path d="M107.5 34.5L108 24.5L113.5 17.5L126 13.5L141.5 20.5L145.5 27L143.5 41L140.929 43L145.5 47L135 55L121 56.5L111 51.5L107.5 44L111.514 41.601L107.5 34.5Z" fill="#D9D9D9"/>
<path d="M107.5 34.5L108 24.5L113.5 17.5L126 13.5L141.5 20.5L145.5 27L143.5 41L140.929 43L145.5 47L135 55L121 56.5L111 51.5L107.5 44L111.514 41.601L107.5 34.5Z" fill="black" fill-opacity="0.2"/>
<path d="M122.5 49L131.5 48.25M122.5 49L121 56.5M122.5 49L115.5 46.5294M111.514 41.601L107.5 34.5L108 24.5L113.5 17.5L126 13.5L141.5 20.5L145.5 27L143.5 41L140.929 43M111.514 41.601L114 46L115.5 46.5294M111.514 41.601L107.5 44L111 51.5M111 51.5L121 56.5M111 51.5L115.5 46.5294M121 56.5L135 55M135 55L145.5 47L140.929 43M135 55L131.5 48.25M140.929 43L134.5 48L131.5 48.25" stroke="black" stroke-width="2"/>
<path d="M138.5 23.5C137.667 22.6667 135.8 20.7 135 19.5L116.5 17.5L111.5 22.5V32L120.5 41.375L123.5 44.5L132.5 39.5L138.5 23.5Z" fill="#D9D9D9"/>
<path d="M120.5 41.375L123.5 44.5L132.5 39.5L138.5 23.5C137.667 22.6667 135.8 20.7 135 19.5L116.5 17.5L111.5 22.5V32L120.5 41.375ZM120.5 41.375L127.5 39.5L132.5 32M129.5 28C129.1 28.8 126.333 33.3333 125 35.5L116.5 28L121.5 22.5L129.5 28Z" stroke="black" stroke-width="2"/>
<path d="M94 25L108 32L122 14.5L109 5L99.5 14.5V22.5L94 25Z" fill="#D9D9D9" stroke="black" stroke-width="2"/>
<path d="M125 6.5L136 12.5L131.5 24H135L122.5 32.5L114.5 24L116.5 24.5L114.5 11L125 6.5Z" fill="white"/>
<path d="M122.5 32.5V12.5L125 6.5M122.5 32.5L135 24H131.5L136 12.5L125 6.5M122.5 32.5L114.5 24L116.5 24.5L114.5 11L125 6.5" stroke="black" stroke-width="2"/>
<path d="M105.5 9L90.5 1L106 13.5L105.5 17.5H109.5L117 24L123 21.5L128 25L138.5 16H143.125L142.5 12.5L159 2.5L138.5 9.5L122.5 13.5L105.5 9Z" fill="white" stroke="black" stroke-width="2"/>
<path d="M143.5 20.5C142.333 22.6667 140 27.2 140 28V38L150 45L164 32.5L154 18.5L143.5 20.5Z" fill="#D9D9D9" stroke="black" stroke-width="2"/>
<rect opacity="0.3" x="62" y="176" width="32" height="16" fill="url(#paint0_linear_3515_18130)"/>
<rect opacity="0.3" x="147" y="176" width="22" height="16" fill="url(#paint1_linear_3515_18130)"/>
<defs>
<linearGradient id="paint0_linear_3515_18130" x1="78" y1="176" x2="78" y2="192" gradientUnits="userSpaceOnUse">
<stop/>
<stop offset="1" stop-opacity="0"/>
</linearGradient>
<linearGradient id="paint1_linear_3515_18130" x1="158" y1="176" x2="158" y2="192" gradientUnits="userSpaceOnUse">
<stop/>
<stop offset="1" stop-opacity="0"/>
</linearGradient>
</defs>
</svg>
