<svg width="240" height="197" viewBox="0 0 240 197" fill="none" xmlns="http://www.w3.org/2000/svg">
<path d="M131.5 173C130.167 174.5 127.3 176.6 126.5 177H121V175H119.5H114.5L118 173L119.5 166V162V158.5L117 138.5L115.5 136V128.5L112.5 125V118L103 100V72L109 66L110 59L108 55L105 59L107 61L106 65L91.5 78.5L84.5 85L76 86V84.5L74.5 85L76 82.5L81.5 76L76.5 76.5V75L81 73.5L84.5 72L87.5 73.5L93 68L94 61L99 56V51L102 46L100 40L105 33L107 35L121.5 26.5V24.5H118V22.5L116.25 19V15.5H115V9L119.5 4.5H127.5L131 8V21.5L132.5 24.5L144 31H148L151.5 40V43.5L154 50L153 51.5V59L156 60L157 63L156 73L158 74L157.5 76.5L154 77.5V81V84L152 85H150.5H149V83L144 84L143 81H146V79H148V73L146 65V59L141 55L140 50L138 55L134 60V70L138.5 80L135 88.5L133.5 112V121.5L136 126.5V128.5L138 133.5V137.5L135 147V157L138 162L134 166.5L131.5 173Z" fill="#262626"/>
<path d="M154 73H156M156 73L158 74L157.5 76.5L154 77.5V81V84L152 85H150.5H149V83L144 84L143 81H146V79H148V73L146 65V59L141 55L140 50L138 55L134 60V70L138.5 80L135 88.5L133.5 112V121.5L136 126.5V128.5L138 133.5V137.5L135 147V157L138 162L134 166.5L131.5 173C130.167 174.5 127.3 176.6 126.5 177H121V175M156 73L157 63L156 60L153 59V51.5L154 50L151.5 43.5V40L148 31H144M138 31H144M144 31L132.5 24.5L131 21.5V8L127.5 4.5H119.5L115 9V15.5H116.25M117.5 15.5H116.25M116.25 15.5V19L118 22.5M118 22.5V20.5H121L123 21.5M118 22.5V24.5H121.5M121 15.5H123M127.5 18V20.5L123 24.5H121.5M121.5 24.5V26.5L107 35L105 33L100 40L102 46L99 51V56L94 61L93 68L87.5 73.5L84.5 72L81 73.5L76.5 75V76.5L81.5 76L76 82.5L74.5 85L76 84.5M81 81L77.5 84L76 84.5M76 84.5V86L84.5 85L91.5 78.5L106 65L107 61L105 59L108 55L110 59L109 66L103 72V100L112.5 118V125L115.5 128.5V136L117 138.5L119.5 158.5V162V166L118 173L114.5 175H119.5H121M121 175L124.5 173L126.5 164.5L127.364 159.5M115 95V98L121 117L122 125L126 129.5V137L126.5 138.5M126.5 138.5L128 157.75L127.364 159.5M126.5 138.5L126 157L127.364 159.5" stroke="black" stroke-width="2"/>
<path opacity="0.4" d="M131.5 188.5C130.167 187 127.3 184.9 126.5 184.5H121V186.5H119.5H114.5L118 188.5L119 197H134L131.5 188.5Z" fill="url(#paint0_linear_3575_13602)"/>
<path d="M108 39V35L116 32L125 35V39L134 46H140L138 43V39L144 35L139 27V24H131V9H129L128 11L124 8L129 2L131 4V9V24H139V27H148L152 36V40L154 46L153 48V55L156 56L157 59L156 69H152L151 67L148 69L146 61V55L141 51L140 46L138 51L134 56V58H125L119 69H116V67H112V69H109V62L110 55L108 51L105 55L107 57L106 61L92 74L90 72L93 69L90 67L93 64L94 57L99 52V47L102 42L100 36L105 29L107 31L104 36.5L107 44H108H110V41L108 39Z" fill="#CECECE"/>
<path d="M125 39V35L116 32L108 35V39L110 41V44H108M125 39L123 41V44M125 39L134 46H140M140 46L138 43V39L144 35L139 27M140 46L138 51L134 56V58H125L119 69H116V67H112V69H109V62L110 55L108 51M140 46L141 51L146 55V61L148 69L151 67L152 69H156L157 59L156 56L153 55V48L154 46L152 40V36L148 27H139M139 27V24H131V9M131 9H129L128 11L124 8L129 2L131 4V9ZM108 51L105 55L107 57L106 61L92 74L90 72L93 69L90 67L93 64L94 57L99 52V47L102 42L100 36L105 29L107 31L104 36.5L107 44H108M108 51V44M116 41L114.5 48L116 50L114.5 61" stroke="black" stroke-width="2"/>
<path d="M124.5 62H132V69L128 71L127 82L124 89L127.273 92.9273L130 96.2L125.2 101L123 98L127.273 92.9273L124 89H115H108L103 82V93L108 98V102L103 97V93V82V72L109 66V73H112V70.5H116V73H119L124.5 62Z" fill="#373737"/>
<path d="M103 82V72L109 66V73H112V70.5H116V73H119L124.5 62H132V69L128 71L127 82L124 89M103 82L108 89H115M103 82V93M115 89V86L112 82V77M115 89H124M115 89V93M124 89L127.273 92.9273M134 101L130 96.2M130 96.2L125.2 101L123 98L127.273 92.9273M130 96.2L127.273 92.9273M103 93L108 98V102L103 97V93Z" stroke="black" stroke-width="2"/>
<rect x="130.536" y="99.4142" width="3" height="3" transform="rotate(45 130.536 99.4142)" fill="#00FF29" stroke="black" stroke-width="2"/>
<defs>
<linearGradient id="paint0_linear_3575_13602" x1="124.25" y1="197" x2="124.25" y2="184.5" gradientUnits="userSpaceOnUse">
<stop stop-opacity="0"/>
<stop offset="1"/>
</linearGradient>
</defs>
</svg>
