<svg width="300" height="255" viewBox="0 0 300 255" fill="none" xmlns="http://www.w3.org/2000/svg">
<circle cx="233" cy="77" r="7" stroke="black" stroke-width="2"/>
<path d="M96.5547 129.832L96.5742 129.819L96.593 129.805L262.819 7.375L265.585 10.8324L105.387 135.21L105.086 135.443L105.017 135.817L101.087 156.941L43.7237 201.066L35.5175 189.213L36.472 172.031L68.5859 148.81L69 148.511V148V136.521L77.7807 130.374L83.2 137.6L83.7676 138.357L84.5547 137.832L96.5547 129.832Z" fill="url(#paint0_linear_3515_18130)" stroke="url(#paint1_linear_3515_18130)" stroke-width="2"/>
<path d="M121 63V50H140V67L138 69V80H119L121 76H124V65L121 63Z" fill="#212121" stroke="black" stroke-width="2"/>
<path d="M109.5 97.5L118 76H120V80H127H129L130 76H136V73H142L142.5 110H124L121 118L118 114L114 117H112L110 113L113 103L109.5 97.5Z" fill="#72756A"/>
<path d="M109.5 97.5L118 76H120V80H127H129L130 76H136V73H142L142.5 110H124L121 118L118 114L114 117H112L110 113L113 103L109.5 97.5Z" fill="black" fill-opacity="0.33"/>
<path d="M113 103L109.5 97.5L118 76H120V80H127H129L130 76H136V73H142L142.5 110H124M113 103L110 113L112 117H114L118 114L121 118L124 110M113 103H120L122.5 104.5L124 110" stroke="black" stroke-width="2"/>
<path d="M149 149V208H125V154L120 145V131L153 76V51H119V19H134L143 29H155V24H180V27H198V59L187 70L196 101L201 118L209 145L204 150L172.5 117H165L161.5 108H154L149 149Z" fill="url(#paint2_linear_3515_18130)" stroke="black" stroke-width="2"/>
<path d="M142 32L134 35V51H142V32Z" fill="#0D0D0D"/>
<path d="M134 35L142 32M134 35V51H142V32M134 35H119V19H125L142 29V32" stroke="black" stroke-width="2"/>
<path d="M216 82V72L218 70L205 51H215.5H228L234 62H237L241 70V76H235L232 83V113H216L218 82H216Z" fill="#2C2A2C" stroke="black" stroke-width="2"/>
<path opacity="0.5" d="M228 82L225 79V72L227 70M235 76V70H227M227 70V66H230.5M234 63V66H230.5M230.5 66L223.5 55" stroke="black" stroke-width="2"/>
<path d="M228 66C226.949 66 225.909 66.2069 224.939 66.609C223.968 67.011 223.086 67.6003 222.343 68.3431C221.6 69.086 221.011 69.9679 220.609 70.9385C220.207 71.9091 220 72.9494 220 74C220 75.0506 220.207 76.0909 220.609 77.0615C221.011 78.0321 221.6 78.914 222.343 79.6569C223.086 80.3997 223.968 80.989 224.939 81.391C225.909 81.7931 226.949 82 228 82" stroke="black" stroke-width="2"/>
<path d="M135 66C133.949 66 132.909 66.2069 131.939 66.609C130.968 67.011 130.086 67.6003 129.343 68.3431C128.6 69.086 128.011 69.9679 127.609 70.9385C127.207 71.9091 127 72.9494 127 74C127 75.0506 127.207 76.0909 127.609 77.0615C128.011 78.0321 128.6 78.914 129.343 79.6569M135 66H140M135 66V58" stroke="black" stroke-width="2"/>
<path d="M215 86L218 83V86H225L229 79H234L238 83V98H240L237 120H231V109H225H222V106.5H216V110H213V102H215V86Z" fill="#72756A"/>
<path d="M225 109H222V106.5H216V110H213V102H215V86L218 83V86H225M225 109H231V120H237L240 98H238V83L234 79H229L225 86M225 109V86" stroke="black" stroke-width="2"/>
<path d="M205 97V101H196H193L182 91.0001H174L170 86.0001V80.0001L174 78.0001V73.0001L177 70H186.5L195 78.0001V82L205 97Z" fill="#72756A"/>
<path d="M205 97V101H196M205 97L195 82M205 97L196 97.0001M195 82V78.0001M195 82H186M195 78.0001L186.5 70H177M195 78.0001H186M177 70L174 73.0001V78.0001M177 70L186 78.0001M174 78.0001L170 80.0001V86.0001L174 91.0001H182M174 78.0001L182 85.0001M182 91.0001L193 101H196M182 91.0001V85.0001M196 101V97.0001M196 97.0001L186 82M186 82L182 85.0001M186 82V78.0001" stroke="black" stroke-width="2"/>
<path d="M142 79V70H149V90H135V87L142 79Z" fill="#72756A" stroke="black" stroke-width="2"/>
<path d="M135 98H148V122H160V126L153 153L146 159L141 156V153H144V140L139.5 137H131L120 132V126H118L132.5 94H135V98Z" fill="#72756A"/>
<path d="M135 98H148V122H160V126L153 153L146 159L141 156V153H144V140L139.5 137H131L120 132V126H118L132.5 94H135V98Z" fill="black" fill-opacity="0.2"/>
<path d="M135 98H148V122H160V126L153 153L146 159L141 156V153H144V140L139.5 137H131L120 132V126H118L132.5 94H135V98Z" stroke="black" stroke-width="2"/>
<path opacity="0.5" d="M131 137V132L126.5 128L130 114H135L138 108H125M139 133H143M143 133L147 136L160 122M143 133L149 126" stroke="black" stroke-width="2"/>
<path d="M161 79H148L140 88L136 103L144 122H155L162 114V106H150.5L149 103L150 97H154V101H158L170 97V77H161V79Z" fill="#72756A" stroke="black" stroke-width="2"/>
<path d="M152 82L147 88M147 88H140M147 88L144 103M144 103L152 122M144 103H136" stroke="black" stroke-width="2"/>
<path opacity="0.2" d="M149 114H153V103H144" stroke="black" stroke-width="2"/>
<path d="M165 107.5V104H168V100L176 97.5L180 101H182V98H184L192 112.5L197.5 114.5H203L214.5 144V150L212 150.5L203 133L200 134.5H201L206.5 146.5L205.5 155.5L203.833 157L195.5 164.5L185.5 162L176.5 143.5L178.375 139.5L176.5 140.5L168 114.5L166 110L165 107.5Z" fill="#72756A"/>
<path d="M200 134.5L203 133L212 150.5L214.5 150V144L203 114.5H197.5L192 112.5L184 98H182V101H180L176 97.5L168 100V104H165V107.5L166 110M200 134.5L197.5 133L184 136.5M200 134.5H201L206.5 146.5L205.5 155.5L203.833 157M184 136.5L175 110M184 136.5L178.375 139.5M175 110L183 104M175 110H166M166 110L168 114.5L176.5 140.5L178.375 139.5M178.375 139.5L176.5 143.5M176.5 143.5L185.5 162L195.5 164.5M176.5 143.5L184.875 139.5L195.5 164.5M195.5 164.5L203.833 157M195 136.5L203.833 157" stroke="black" stroke-width="2"/>
<path d="M206.5 150C206.9 150 211 156.333 213 159.5H215L223 166L230.5 199.5H228.5L229.967 205L230.5 207L219 212L210.5 214L209.833 212L206.5 202L194 177V173.5L188.5 166L188 162.5L196 164L205 156.5L206.5 150Z" fill="#72756A"/>
<path d="M206.5 150C206.9 150 211 156.333 213 159.5H215L223 166L230.5 199.5H228.5L229.967 205L230.5 207L219 212L210.5 214L209.833 212L206.5 202L194 177V173.5L188.5 166L188 162.5L196 164L205 156.5L206.5 150Z" fill="black" fill-opacity="0.2"/>
<path d="M196 164L188 162.5L188.5 166L194 173.5V177L206.5 202L209.833 212M196 164L205 156.5L206.5 150C206.9 150 211 156.333 213 159.5H215L223 166L230.5 199.5H228.5L229.967 205M196 164L197 167L210.5 190L215 202.5M215 202.5H213L214 210L209.833 212M215 202.5L216.5 201L222 207.5L229.967 205M209.833 212L210.5 214L219 212L230.5 207L229.967 205" stroke="black" stroke-width="2"/>
<path d="M215 238H234V234H215V238Z" fill="#72756A"/>
<path d="M215 238H234V234H215V238Z" fill="black" fill-opacity="0.2"/>
<path fill-rule="evenodd" clip-rule="evenodd" d="M237.5 225.5L234 222L228 207H232.5L234.5 211.5L233.5 197.5L237.5 197L240 208.5L241 220L237.5 225.5ZM213.789 216L212.5 220L213.789 225.5H217.289L213.789 216ZM218 223.5L215 234H234V222L231 227H221L218 223.5Z" fill="#72756A"/>
<path fill-rule="evenodd" clip-rule="evenodd" d="M237.5 225.5L234 222L228 207H232.5L234.5 211.5L233.5 197.5L237.5 197L240 208.5L241 220L237.5 225.5ZM213.789 216L212.5 220L213.789 225.5H217.289L213.789 216ZM218 223.5L215 234H234V222L231 227H221L218 223.5Z" fill="black" fill-opacity="0.2"/>
<path d="M221 227H231L234 222L228 207L212.5 214.5L213.789 216L217.289 225.5L218 223.5L221 227Z" fill="#72756A"/>
<path d="M221 227H231L234 222L228 207L212.5 214.5L213.789 216L217.289 225.5L218 223.5L221 227Z" fill="black" fill-opacity="0.2"/>
<path d="M234 222L231 227H221L218 223.5M234 222L237.5 225.5L241 220L240 208.5L237.5 197L233.5 197.5L234.5 211.5L232.5 207H228M234 222L228 207M234 222V234M228 207L212.5 214.5L213.789 216M213.789 216L212.5 220L213.789 225.5H217.289M213.789 216L217.289 225.5M217.289 225.5L218 223.5M218 223.5L215 234M234 234V238H215V234M234 234H215" stroke="black" stroke-width="2"/>
<path d="M125 138H139V145H137V150L123 157H112V145L116 131H117V136L125 138Z" fill="#72756A"/>
<path d="M125 138H139V145H137V150L123 157M125 138L117 136V131H116L112 145V157H123M125 138L123 142V144H126V151H123V157" stroke="black" stroke-width="2"/>
<path d="M208 120L213 114.5L214 112L216 113H222L225 106H229L231 128H230L228 137L223 141H220L218 143L213 141L211 140L215 131V121.5L211 124L206 130H204L208 120Z" fill="#4C4E47" stroke="black" stroke-width="2"/>
<path d="M127 161L137 154L141 164H149V166H153L155 162H159L155 195L158 211.5V216H140L148 194V191H143L142 199H140V201L138 207H131L119 202L122 194V180L116 164L115 157H118L119 161H127Z" fill="#72756A"/>
<path d="M127 161L137 154L141 164H149V166H153L155 162H159L155 195L158 211.5V216H140L148 194V191H143L142 199H140V201L138 207H131L119 202L122 194V180L116 164L115 157H118L119 161H127Z" fill="black" fill-opacity="0.2"/>
<path d="M127 161L137 154L141 164H149V166H153L155 162H159L155 195L158 211.5V216H140L148 194V191H143L142 199H140V201L138 207H131L119 202L122 194V180L116 164L115 157H118L119 161H127Z" stroke="black" stroke-width="2"/>
<path opacity="0.3" d="M148 191V179M141 164L136 173V181L140 199V201H128L125 194H122" stroke="black" stroke-width="2"/>
<path d="M145 219V235H149V238H156L159 216.5L157.5 215L145 219Z" fill="#72756A"/>
<path d="M145 219V235H149V238H156L159 216.5L157.5 215L145 219Z" fill="black" fill-opacity="0.2"/>
<path d="M129.5 212L129 220H124V223L114 229V238H133.5L137 228L143 219H145L157.5 215L138.5 205L131 206.5L129.5 212Z" fill="#72756A"/>
<path d="M129.5 212L129 220H124V223L114 229V238H133.5L137 228L143 219H145L157.5 215L138.5 205L131 206.5L129.5 212Z" fill="black" fill-opacity="0.2"/>
<path d="M122.5 202.5L120 212V220H124H129L129.5 212L131 206.5L122.5 202.5Z" fill="#72756A"/>
<path d="M122.5 202.5L120 212V220H124H129L129.5 212L131 206.5L122.5 202.5Z" fill="black" fill-opacity="0.2"/>
<path d="M131 206.5L129.5 212L129 220H124M131 206.5L122.5 202.5L120 212V220H124M131 206.5L138.5 205L157.5 215M124 220V223L114 229V238H133.5L137 228L143 219M143 219H145M143 219V210M145 219V235H149V238H156L159 216.5L157.5 215M145 219L157.5 215" stroke="black" stroke-width="2"/>
<path d="M231 128L223 128.5L218 125L219 113L228 111.5L231 115V128Z" fill="#72756A" stroke="black" stroke-width="2"/>
<path d="M225 130L224 136L218 143" stroke="black" stroke-width="2"/>
<path d="M179 51L186 65H195V46H179V51Z" fill="#727272"/>
<path d="M179 51L186 65H195V46H179V51Z" fill="black" fill-opacity="0.6"/>
<path d="M179 51L186 65H195V46H179V51Z" stroke="black" stroke-width="2"/>
<path d="M220 129V134L214.5 142" stroke="black" stroke-width="2"/>
<path d="M152 20H171V38H149L152 31V20Z" fill="black"/>
<path d="M130 39V56H124L111 47L109 27L112 23L126 32L130 39Z" fill="#D8DCDE"/>
<path d="M124 56L111 47L109 27M124 56H130V39L126 32L112 23L109 27M124 56V40L121 34L109 27" stroke="black" stroke-width="2"/>
<path d="M159 24V13H164H175V24H170L167.5 33H164V24H159Z" fill="#181818" stroke="black" stroke-width="2"/>
<path d="M188 24V41L200 63H208L213 59V55L217.75 36L217 17L212 13H204L188 24Z" fill="#313131" stroke="black" stroke-width="2"/>
<path d="M202 24L212 17H217.5L218 52L214 55H209L202 41V24Z" fill="#ABA89F" stroke="black" stroke-width="2"/>
<path d="M220 13L212 23V41L220 59H228L240 47V23L228 13H220Z" fill="#313131" stroke="black" stroke-width="2"/>
<path opacity="0.5" d="M188 41H196M228 59L220 41M208 63L196 41M228 13L220 24M220 24V41M220 24H216M220 41H212M212 24H216M196 24V41M196 24L212 13M196 24H192M202 41H207M214 55L207 41M207 41V24L216 17M188 24H192M192 24V28M216 24V28" stroke="black" stroke-width="2"/>
<path opacity="0.3" d="M179 40H174V35M179 40V48M179 40H186.5V48H179M179 48V57M179 57H162.686M179 57L170 63.5V73H165V64" stroke="black" stroke-width="2"/>
<path opacity="0.3" d="M113 239H136L140 255H117L113 243V239Z" fill="url(#paint3_linear_3515_18130)"/>
<path opacity="0.3" d="M214 239H235V255H218L214 247V239Z" fill="url(#paint4_linear_3515_18130)"/>
<path opacity="0.3" d="M148 242V239H157L161 255H144V242H148Z" fill="url(#paint5_linear_3515_18130)"/>
<path d="M115 233H137V235H115V233Z" fill="black"/>
<rect x="153" y="2" width="6" height="4" fill="black"/>
<rect x="161" y="2" width="6" height="4" fill="black"/>
<mask id="path-55-inside-1_3515_18130" fill="white">
<path fill-rule="evenodd" clip-rule="evenodd" d="M145 4H181V20H145C141.686 20 139 16.4183 139 12C139 7.58172 141.686 4 145 4Z"/>
</mask>
<path fill-rule="evenodd" clip-rule="evenodd" d="M145 4H181V20H145C141.686 20 139 16.4183 139 12C139 7.58172 141.686 4 145 4Z" fill="url(#paint6_linear_3515_18130)"/>
<path d="M181 4H183V2H181V4ZM181 20V22H183V20H181ZM145 6H181V2H145V6ZM179 4V20H183V4H179ZM181 18H145V22H181V18ZM145 18C144.114 18 143.159 17.5257 142.357 16.4569C141.555 15.3874 141 13.8182 141 12H137C137 14.6 137.788 17.0309 139.157 18.8569C140.527 20.6834 142.572 22 145 22V18ZM141 12C141 10.1818 141.555 8.61263 142.357 7.54315C143.159 6.47428 144.114 6 145 6V2C142.572 2 140.527 3.31658 139.157 5.14315C137.788 6.9691 137 9.39996 137 12H141Z" fill="black" mask="url(#path-55-inside-1_3515_18130)"/>
<path d="M186 12C186 14.0137 185.387 15.7983 184.443 17.0569C183.499 18.3151 182.272 19 181 19C179.728 19 178.501 18.3151 177.557 17.0569C176.613 15.7983 176 14.0137 176 12C176 9.98631 176.613 8.20174 177.557 6.94315C178.501 5.68486 179.728 5 181 5C182.272 5 183.499 5.68486 184.443 6.94315C185.387 8.20174 186 9.98631 186 12Z" fill="#414A54"/>
<path d="M186 12C186 14.0137 185.387 15.7983 184.443 17.0569C183.499 18.3151 182.272 19 181 19C179.728 19 178.501 18.3151 177.557 17.0569C176.613 15.7983 176 14.0137 176 12C176 9.98631 176.613 8.20174 177.557 6.94315C178.501 5.68486 179.728 5 181 5C182.272 5 183.499 5.68486 184.443 6.94315C185.387 8.20174 186 9.98631 186 12Z" fill="black" fill-opacity="0.2"/>
<path d="M186 12C186 14.0137 185.387 15.7983 184.443 17.0569C183.499 18.3151 182.272 19 181 19C179.728 19 178.501 18.3151 177.557 17.0569C176.613 15.7983 176 14.0137 176 12C176 9.98631 176.613 8.20174 177.557 6.94315C178.501 5.68486 179.728 5 181 5C182.272 5 183.499 5.68486 184.443 6.94315C185.387 8.20174 186 9.98631 186 12Z" stroke="black" stroke-width="2"/>
<path opacity="0.3" d="M174 5C173.343 5 172.693 5.18106 172.087 5.53284C171.48 5.88463 170.929 6.40024 170.464 7.05025C170 7.70026 169.632 8.47194 169.381 9.32122C169.129 10.1705 169 11.0807 169 12C169 12.9193 169.129 13.8295 169.381 14.6788C169.632 15.5281 170 16.2997 170.464 16.9497C170.929 17.5998 171.48 18.1154 172.087 18.4672C172.693 18.8189 173.343 19 174 19" stroke="black" stroke-width="2"/>
<path opacity="0.3" d="M152 5C151.343 5 150.693 5.18106 150.087 5.53284C149.48 5.88463 148.929 6.40024 148.464 7.05025C148 7.70026 147.632 8.47194 147.381 9.32122C147.129 10.1705 147 11.0807 147 12C147 12.9193 147.129 13.8295 147.381 14.6788C147.632 15.5281 148 16.2997 148.464 16.9497C148.929 17.5998 149.48 18.1154 150.087 18.4672C150.693 18.8189 151.343 19 152 19" stroke="black" stroke-width="2"/>
<path d="M164 13H165V14V24V25H164H162H161V24V14V13H162H164Z" fill="#4A4A4A" stroke="black" stroke-width="2"/>
<path d="M154 13H155V14V24V25H154H152H151V24V14V13H152H154Z" fill="#4A4A4A" stroke="black" stroke-width="2"/>
<circle cx="158" cy="12" r="7" fill="#6A6A6A" stroke="black" stroke-width="2"/>
<rect x="161" y="4" width="2" height="2" fill="#FE1A1A"/>
<rect opacity="0.6" x="168" y="11" width="2" height="2" fill="black"/>
<rect opacity="0.6" x="174" y="2" width="2" height="2" fill="black"/>
<rect opacity="0.6" x="174" y="20" width="2" height="2" fill="black"/>
<rect opacity="0.6" x="151" y="2" width="2" height="2" fill="black"/>
<rect opacity="0.6" x="146" y="11" width="2" height="2" fill="black"/>
<rect x="153" y="4" width="2" height="2" fill="#FE1A1A"/>
<path opacity="0.3" d="M151 10H153V12M153 12H156M153 12V14H151" stroke="black" stroke-width="2"/>
<path opacity="0.3" d="M165 10H161V12M161 12H158M161 12V14H164" stroke="black" stroke-width="2"/>
<path d="M179 37L186 25H188V42H179V37Z" fill="#D9D9D9"/>
<path d="M179 37L186 25H188V42H179V37Z" fill="black" fill-opacity="0.6"/>
<path d="M183 25H186M186 25L179 37V42H188V25H186Z" stroke="black" stroke-width="2"/>
<path d="M153 24V25.5C153 26.8807 154.119 28 155.5 28V28C156.881 28 158 29.1193 158 30.5V37" stroke="#313131" stroke-width="2"/>
<path d="M163 20V25.5C163 26.8807 164.119 28 165.5 28V28C166.881 28 168 29.1193 168 30.5V37" stroke="#5A544D" stroke-width="2"/>
<path d="M134 19H123L142 29H144V24.5L134 19Z" fill="#D9D9D9" stroke="black" stroke-width="2"/>
<path d="M222 14V10C222 9.44772 222.448 9 223 9H225C225.552 9 226 9.44772 226 10V14" stroke="black" stroke-width="2"/>
<path d="M206 14V10C206 9.44772 206.448 9 207 9H209C209.552 9 210 9.44772 210 10V14" stroke="black" stroke-width="2"/>
<ellipse cx="232" cy="34.5" rx="7" ry="14.5" fill="#8A8985"/>
<path d="M232 50C234.534 50 236.539 47.9045 237.85 45.1878C239.196 42.4008 240 38.6209 240 34.5C240 30.3791 239.196 26.5992 237.85 23.8122C236.539 21.0955 234.534 19 232 19C229.466 19 227.461 21.0955 226.15 23.8122C224.804 26.5992 224 30.3791 224 34.5C224 38.6209 224.804 42.4008 226.15 45.1878C227.461 47.9045 229.466 50 232 50Z" stroke="black" stroke-opacity="0.5" stroke-width="2"/>
<ellipse cx="233.5" cy="34.5" rx="5.5" ry="14.5" fill="#8A8985"/>
<path d="M233.5 50C234.644 50 235.617 49.3853 236.385 48.5282C237.154 47.6705 237.801 46.486 238.324 45.1077C239.372 42.344 240 38.5933 240 34.5C240 30.4067 239.372 26.656 238.324 23.8923C237.801 22.514 237.154 21.3295 236.385 20.4718C235.617 19.6147 234.644 19 233.5 19C232.356 19 231.383 19.6147 230.615 20.4718C229.846 21.3295 229.199 22.514 228.676 23.8923C227.628 26.656 227 30.4067 227 34.5C227 38.5933 227.628 42.344 228.676 45.1077C229.199 46.486 229.846 47.6705 230.615 48.5282C231.383 49.3853 232.356 50 233.5 50Z" stroke="black" stroke-opacity="0.5" stroke-width="2"/>
<path d="M131 20V16C131 14.8954 130.105 14 129 14H123C121.895 14 121 14.8954 121 16V20" stroke="black" stroke-width="2"/>
<rect x="203" y="29" width="2" height="2" fill="black"/>
<rect x="223" y="33" width="5" height="2" fill="black"/>
<rect x="228" y="33" width="2" height="2" fill="#ABA89F"/>
<rect x="239" y="33" width="2" height="2" fill="#ABA89F"/>
<rect x="234" y="20" width="2" height="2" fill="#ABA89F"/>
<rect x="234" y="47" width="2" height="2" fill="#ABA89F"/>
<rect x="203" y="33" width="2" height="2" fill="black"/>
<rect x="203" y="37" width="2" height="2" fill="black"/>
<rect x="203" y="25" width="2" height="2" fill="black"/>
<rect x="203" y="22" width="3" height="2" fill="black"/>
<rect x="206" y="20" width="3" height="2" fill="black"/>
<rect x="209" y="18" width="3" height="2" fill="black"/>
<rect x="212" y="16" width="3" height="2" fill="black"/>
<path d="M155.5 89L154 97H158L170 93V83H160.5L155.5 89Z" fill="#72756A" stroke="black" stroke-width="2"/>
<path d="M152 82L157 79L154 72H147L145 75V82H152Z" fill="#72756A"/>
<path d="M152 82L157 79L154 72H147L145 75V82H152Z" fill="black" fill-opacity="0.2"/>
<path d="M152 82L157 79L154 72H147L145 75V82H152Z" stroke="black" stroke-width="2"/>
<rect x="161" y="48" width="13" height="13" rx="3" fill="#DEB95A" stroke="black" stroke-width="2"/>
<rect x="148" y="79" width="2" height="4" fill="black"/>
<path d="M161 63V72H157H148L145 64L140 61V54L150 34H152L151 38H155L159 34H164L174 37V44H170L166 48H163L161 50V55H164L171 48L175.5 50.5L169 59L180 65L189 59H194.5L183 70H177L164 63H161Z" fill="#D9D9D9"/>
<path d="M140 54L150 34H152L151 38H155L159 34H164L174 37V44H170L166 48H163L161 50V55H164L171 48L175.5 50.5L169 59L180 65L189 59H194.5L183 70H177L164 63H161V72H157M140 54V61L145 64L148 72H157M140 54H148V61L153 64L157 72" stroke="black" stroke-width="2"/>
<path opacity="0.21" d="M161 55H157L154 63H161" stroke="black" stroke-width="2"/>
<rect opacity="0.2" x="166" y="70" width="3" height="2" fill="#D9D9D9"/>
<rect opacity="0.1" x="171" y="92" width="6" height="2" fill="#D9D9D9"/>
<rect opacity="0.1" x="171" y="74" width="2" height="2" fill="#D9D9D9"/>
<rect opacity="0.1" x="171" y="70" width="2" height="2" fill="#D9D9D9"/>
<rect opacity="0.1" x="166" y="74" width="3" height="2" fill="#D9D9D9"/>
<path d="M135 59L128 56H130V51H140V56L135 59Z" fill="black" stroke="black" stroke-width="2"/>
<path opacity="0.2" d="M134 50V53H137" stroke="white" stroke-width="2"/>
<rect x="162" y="22" width="4" height="2" fill="url(#paint7_linear_3515_18130)"/>
<rect opacity="0.2" x="180" y="39" width="5" height="2" fill="#D9D9D9"/>
<rect x="120" y="231" width="2" height="3" fill="black"/>
<rect x="227" y="231" width="2" height="3" fill="black"/>
<rect x="218" y="231" width="2" height="3" fill="black"/>
<rect x="124" y="231" width="2" height="2" fill="black"/>
<rect x="232" y="231" width="2" height="2" fill="black"/>
<rect x="215" y="231" width="2" height="2" fill="black"/>
<defs>
<linearGradient id="paint0_linear_3515_18130" x1="133.5" y1="-1.34588e-06" x2="133.5" y2="204" gradientUnits="userSpaceOnUse">
<stop stop-color="#A0A0A0"/>
<stop offset="1" stop-color="#292B2D"/>
</linearGradient>
<linearGradient id="paint1_linear_3515_18130" x1="150.75" y1="6" x2="150.75" y2="202.5" gradientUnits="userSpaceOnUse">
<stop stop-color="#626262"/>
<stop offset="1"/>
</linearGradient>
<linearGradient id="paint2_linear_3515_18130" x1="161.5" y1="16" x2="161.5" y2="171" gradientUnits="userSpaceOnUse">
<stop stop-color="#353535"/>
<stop offset="1"/>
</linearGradient>
<linearGradient id="paint3_linear_3515_18130" x1="126.5" y1="239" x2="126.5" y2="255" gradientUnits="userSpaceOnUse">
<stop/>
<stop offset="1" stop-opacity="0"/>
</linearGradient>
<linearGradient id="paint4_linear_3515_18130" x1="224.5" y1="239" x2="224.5" y2="255" gradientUnits="userSpaceOnUse">
<stop/>
<stop offset="1" stop-opacity="0"/>
</linearGradient>
<linearGradient id="paint5_linear_3515_18130" x1="152.5" y1="239" x2="152.5" y2="255" gradientUnits="userSpaceOnUse">
<stop/>
<stop offset="1" stop-opacity="0"/>
</linearGradient>
<linearGradient id="paint6_linear_3515_18130" x1="160" y1="4" x2="160" y2="20" gradientUnits="userSpaceOnUse">
<stop stop-color="#414A54"/>
<stop offset="1" stop-color="#1A2430"/>
</linearGradient>
<linearGradient id="paint7_linear_3515_18130" x1="166" y1="23" x2="162.5" y2="23" gradientUnits="userSpaceOnUse">
<stop stop-color="#B08160"/>
<stop offset="1" stop-color="#BD5F1C"/>
</linearGradient>
</defs>
</svg>
