<svg width="240" height="192" viewBox="0 0 240 192" fill="none" xmlns="http://www.w3.org/2000/svg">
<path d="M128 25H146L142 28L146 31H128V25Z" fill="#952A2A" stroke="black" stroke-width="2"/>
<path d="M82 101L92.5 59H140L172.5 71L164.5 74.875L168.5 90.75L160.5 90.625L164.5 98.5H145L136 75.2892H101.5V101H82Z" fill="#3A2E2E"/>
<path d="M82 101L92.5 59H140L172.5 71L164.5 74.875L168.5 90.75L160.5 90.625L164.5 98.5H145L136 75.2892H101.5V101H82Z" fill="url(#paint0_linear_3572_10493)" fill-opacity="0.6"/>
<path d="M82 101L92.5 59H140L172.5 71L164.5 74.875L168.5 90.75L160.5 90.625L164.5 98.5H145L136 75.2892H101.5V101H82Z" stroke="black" stroke-width="2"/>
<path d="M95.1456 59.9998L106.645 67.4302L106.645 95.0693L96.198 83.0693L95.4656 95.0693L86.5 83.0693L78.0007 95.0693C80.9943 82.6716 81.9665 65.8688 95.1456 59.9998Z" fill="#952A2A"/>
<path d="M95.1456 59.9998L106.645 67.4302L106.645 95.0693L96.198 83.0693L95.4656 95.0693L86.5 83.0693L78.0007 95.0693C80.9943 82.6716 81.9665 65.8688 95.1456 59.9998Z" fill="url(#paint1_linear_3572_10493)" fill-opacity="0.6"/>
<path d="M95.1456 59.9998L106.645 67.4302L106.645 95.0693L96.198 83.0693L95.4656 95.0693L86.5 83.0693L78.0007 95.0693C80.9943 82.6716 81.9665 65.8688 95.1456 59.9998Z" stroke="black" stroke-width="2"/>
<path d="M69 106L65 104V110H69V106Z" fill="#292626" stroke="black" stroke-width="2"/>
<path d="M168 110.667L172 113V106H168V110.667Z" fill="#292626"/>
<path d="M172 113L168 110.667V106H172V113ZM172 113V115H158L154.5 118.5" stroke="black" stroke-width="2"/>
<path d="M137 78V78C145.284 78 152 71.2843 152 63V55H137V78Z" fill="#666060"/>
<path d="M137 78V78C145.284 78 152 71.2843 152 63V55H137V78Z" fill="black" fill-opacity="0.6"/>
<path d="M137 78V78C145.284 78 152 71.2843 152 63V55H137V78Z" stroke="black" stroke-width="2"/>
<path d="M128 69.1205V59H140L168.5 67L160.5 70.875L168.5 82.75L153 84V99L144 84L139 99V84L128 69.1205Z" fill="#952A2A"/>
<path d="M128 69.1205V59H140L168.5 67L160.5 70.875L168.5 82.75L153 84V99L144 84L139 99V84L128 69.1205Z" fill="url(#paint2_linear_3572_10493)" fill-opacity="0.6"/>
<path d="M139 84V99L144 84L153 99V84L168.5 82.75L160.5 70.875L168.5 67L140 59H128V69.1205L139 84ZM139 84V75" stroke="black" stroke-width="2"/>
<path d="M141.928 141L129 141L129.64 151.238L133.64 165.952L133 175H145L141.928 141Z" fill="#292626" stroke="black" stroke-width="2"/>
<path opacity="0.3" d="M143 192H132L133 186L132 176H157V181L150 182L143 187V192Z" fill="url(#paint3_linear_3572_10493)"/>
<path d="M120.5 109.5H134.5L133 56H110V132L120.5 109.5Z" fill="#4B1414" stroke="black" stroke-width="2"/>
<path d="M140.063 111.636L140.063 101.065L131.92 104.835L131.659 104.956L131.373 104.919L117.593 103.15L122.145 114.001L134.111 117.033L140.063 111.636Z" fill="#292626" stroke="black" stroke-width="2"/>
<path d="M141.086 120.615L141.734 108.039L133.05 113.762L132.741 113.966L132.373 113.919L118.593 112.15L123.145 123.001L135.111 126.033L141.086 120.615Z" fill="#292626" stroke="black" stroke-width="2"/>
<path d="M143.086 128.615L143.734 116.039L135.05 121.762L134.741 121.966L134.373 121.919L120.593 120.15L125.145 131.001L137.111 134.033L143.086 128.615Z" fill="#292626" stroke="black" stroke-width="2"/>
<path d="M97.4892 121.689L115.157 118.388L115.157 106.652L93.6389 109.668L97.4892 121.689Z" fill="#292626" stroke="black" stroke-width="2"/>
<path d="M97.7653 109.637L115.157 106.387L115.157 94.6848L97.3539 97.6825L97.7653 109.637Z" fill="#292626" stroke="black" stroke-width="2"/>
<path d="M97.4892 130.186L115.157 126.885L115.157 115.15L93.6389 118.165L97.4892 130.186Z" fill="#292626" stroke="black" stroke-width="2"/>
<path d="M97.4763 141.146L111.442 137.857L116.56 126.219L93.6429 129.178L97.4763 141.146Z" fill="#292626" stroke="black" stroke-width="2"/>
<path d="M140.629 146.072L127.111 151.478L127.931 140L145 140L145 150.238L141.768 146.36L141.303 145.802L140.629 146.072Z" fill="#292626" stroke="black" stroke-width="2"/>
<path d="M127.994 140L144.994 140L144.994 125L141 132L123.994 126L127.994 140Z" fill="#292626" stroke="black" stroke-width="2"/>
<path d="M106 78V78C97.7157 78 91 71.2843 91 63V55H106V78Z" fill="#666060" stroke="black" stroke-width="2"/>
<path d="M120.5 74L122.5 56H104L100 74V87H133V82L137 69L120.5 74Z" fill="#666060" stroke="black" stroke-width="2"/>
<path d="M100 140H113L116 149L111 165L112 175H104L100 168V140Z" fill="#292626" stroke="black" stroke-width="2"/>
<path opacity="0.3" d="M100 192H112L110.75 187L113 176H86L84 179L96 183L101 188L100 192Z" fill="url(#paint4_linear_3572_10493)"/>
<path d="M101 165L107 175H86L85 173L96 171L101 165Z" fill="#292626" stroke="black" stroke-width="2"/>
<path d="M143 165L150 170L156 171.5V175H138V171L143 165Z" fill="#292626" stroke="black" stroke-width="2"/>
<path d="M110.275 35H125V42H118H114H110H106L110.275 35Z" fill="#666060"/>
<path d="M106 42H104L108.091 49.5V65L123 56H131L126 52V42H125H118H114H110H106Z" fill="#666060"/>
<path d="M125 42V35H110.275L106 42M125 42H126V52L131 56H123L108.091 65V49.5M125 42H118M106 42H104L108.091 49.5M106 42H110M114 53H110L108.091 49.5M110 42V45M110 42H114M114 42V45M114 42H118M118 42V45" stroke="black" stroke-width="2"/>
<path d="M94.2861 146.477L97.677 138H106.198L109.594 153.281L94.2861 146.477Z" fill="#292626" stroke="black" stroke-width="2"/>
<path d="M107 87L102 87L94.9661 108.468L95.4349 108.642L107 87Z" fill="#666060" stroke="black" stroke-width="2"/>
<path d="M123.5 86H104V110H115.5L123.5 86Z" fill="#666060" stroke="black" stroke-width="2"/>
<path d="M122 86H134.5L138.5 90.5L142.5 110H126L122 86Z" fill="#666060"/>
<path d="M122 86H134.5L138.5 90.5L142.5 110H126L122 86Z" fill="black" fill-opacity="0.4"/>
<path d="M122 86H134.5L138.5 90.5L142.5 110H126L122 86Z" stroke="black" stroke-width="2"/>
<path d="M114 21H132V25H118H117H116L114 21Z" fill="#952A2A"/>
<path d="M132 25V21H114L116 25H117M132 25L128 31M132 25H118M118 25V35H117V25M118 25H117" stroke="black" stroke-width="2"/>
<rect x="141" y="51" width="2" height="3" fill="black"/>
<rect x="145" y="51" width="2" height="3" fill="black"/>
<rect x="149" y="51" width="2" height="3" fill="black"/>
<rect x="92" y="51" width="2" height="3" fill="black"/>
<rect x="96" y="51" width="2" height="3" fill="black"/>
<rect x="100" y="51" width="2" height="3" fill="black"/>
<rect x="115" y="83" width="4" height="8" fill="#666060" stroke="black" stroke-width="2"/>
<rect x="1" y="-1" width="3" height="8" transform="matrix(-1 0 0 1 108 84)" fill="#666060" stroke="black" stroke-width="2"/>
<rect x="129" y="83" width="4" height="8" fill="#666060"/>
<rect x="129" y="83" width="4" height="8" fill="black" fill-opacity="0.4"/>
<rect x="129" y="83" width="4" height="8" stroke="black" stroke-width="2"/>
<rect x="142" y="55" width="10" height="4" fill="#666060" stroke="black" stroke-width="2"/>
<path d="M123 78V78C133.493 78 142 69.4934 142 59V55H127L123 78Z" fill="#666060" stroke="black" stroke-width="2"/>
<rect width="12" height="12" rx="6" transform="matrix(1 0 0 -1 105 145)" fill="#292626" stroke="black" stroke-width="2"/>
<rect x="103" y="79" width="2" height="5" fill="black"/>
<rect x="116" y="79" width="2" height="5" fill="black"/>
<rect x="130" y="79" width="2" height="5" fill="black"/>
<rect x="74" y="120" width="2" height="8" fill="black"/>
<rect x="74" y="103" width="2" height="14" fill="black"/>
<rect x="74" y="131" width="2" height="8" fill="black"/>
<rect x="74" y="142" width="2" height="22" fill="black"/>
<rect x="86" y="152" width="2" height="22" transform="rotate(90 86 152)" fill="black"/>
<rect x="66.5147" y="145.929" width="2" height="22" transform="rotate(-45 66.5147 145.929)" fill="black"/>
<rect x="82.0711" y="144.515" width="2" height="22" transform="rotate(45 82.0711 144.515)" fill="black"/>
<rect x="70" y="148" width="10" height="10" fill="#B29568" stroke="black" stroke-width="2"/>
<rect x="76" y="152" width="2" height="2" transform="rotate(90 76 152)" fill="black"/>
<rect x="72" y="114" width="6" height="7" stroke="black" stroke-width="2"/>
<rect x="72" y="125" width="6" height="7" stroke="black" stroke-width="2"/>
<rect x="72" y="136" width="6" height="7" stroke="black" stroke-width="2"/>
<rect x="69" y="106" width="99" height="4" fill="#B39568" stroke="black" stroke-width="2"/>
<path d="M137 102L141 97L140.999 106H133V103L137 102Z" fill="#989898" stroke="black" stroke-width="2"/>
<path d="M147 94L139 94L137 106L147 105.999L147 94Z" fill="#666060"/>
<path d="M147 94L139 94L137 106L147 105.999L147 94Z" fill="white" fill-opacity="0.2"/>
<path d="M147 94L139 94L137 106L147 105.999L147 94Z" stroke="black" stroke-width="2"/>
<path d="M151 100L147 97L147.001 106L151 106V100Z" fill="#292626" stroke="black" stroke-width="2"/>
<path d="M146 89L140 89.0001V94H146L146 89Z" fill="#666060" stroke="black" stroke-width="2"/>
<path d="M143 106L139 106V114H143L143 106Z" fill="#666060" stroke="black" stroke-width="2"/>
<path d="M139 106L135 106V114H139L139 106Z" fill="#666060" stroke="black" stroke-width="2"/>
<path d="M147 106L143 106V112H147L147 106Z" fill="#666060" stroke="black" stroke-width="2"/>
<path d="M90.9997 96L82.9999 96L81 108L91 107.999L90.9997 96Z" fill="#666060"/>
<path d="M90.9997 96L82.9999 96L81 108L91 107.999L90.9997 96Z" fill="white" fill-opacity="0.2"/>
<path d="M90.9997 96L82.9999 96L81 108L91 107.999L90.9997 96Z" stroke="black" stroke-width="2"/>
<path d="M90 91L84 91.0001V96H89.9999L90 91Z" fill="#666060" stroke="black" stroke-width="2"/>
<path d="M89 108L85 108V114H89L89 108Z" fill="#666060" stroke="black" stroke-width="2"/>
<path d="M85 108L81 108V113H85L85 108Z" fill="#666060" stroke="black" stroke-width="2"/>
<path d="M93 108L89 108V114H93L93 108Z" fill="#666060" stroke="black" stroke-width="2"/>
<rect x="140" y="137" width="2" height="2" fill="black"/>
<defs>
<linearGradient id="paint0_linear_3572_10493" x1="148.25" y1="59" x2="148.25" y2="98.5" gradientUnits="userSpaceOnUse">
<stop stop-opacity="0"/>
<stop offset="1"/>
</linearGradient>
<linearGradient id="paint1_linear_3572_10493" x1="104.107" y1="66.6732" x2="93.7529" y2="101.382" gradientUnits="userSpaceOnUse">
<stop stop-opacity="0"/>
<stop offset="1"/>
</linearGradient>
<linearGradient id="paint2_linear_3572_10493" x1="148.25" y1="59" x2="148.25" y2="98.5" gradientUnits="userSpaceOnUse">
<stop stop-opacity="0"/>
<stop offset="1"/>
</linearGradient>
<linearGradient id="paint3_linear_3572_10493" x1="144.5" y1="192" x2="144.5" y2="176" gradientUnits="userSpaceOnUse">
<stop stop-opacity="0"/>
<stop offset="1"/>
</linearGradient>
<linearGradient id="paint4_linear_3572_10493" x1="98.5" y1="192" x2="98.5" y2="176" gradientUnits="userSpaceOnUse">
<stop stop-opacity="0"/>
<stop offset="1"/>
</linearGradient>
</defs>
</svg>
