<svg width="300" height="255" viewBox="0 0 300 255" fill="none" xmlns="http://www.w3.org/2000/svg">
<path d="M109.5 97.5L118.5 74L127 79.5L139 69.5L124 110C124 110 120 119.833 116.5 129L114.5 128L113 116L109.5 113L113 102.5L109.5 97.5Z" fill="#72756A"/>
<path d="M109.5 97.5L118.5 74L127 79.5L139 69.5L124 110C124 110 120 119.833 116.5 129L114.5 128L113 116L109.5 113L113 102.5L109.5 97.5Z" fill="black" fill-opacity="0.33"/>
<path d="M113 102.5L109.5 97.5L118.5 74L127 79.5M113 102.5L109.5 113L113 116L114.5 128L116.5 129C120 119.833 124 110 124 110M113 102.5H120M124 110L120 102.5M124 110L139 69.5L127 79.5M127 79.5L120 102.5" stroke="black" stroke-width="2"/>
<path d="M85.3415 136.753L85.9314 137.269L86.5735 136.819L96.5735 129.819L96.588 129.809L96.6022 129.798L266 2.00702V10.5104L105.387 135.21L105.235 135.328L105.138 135.493L95.2415 152.317L26.8404 202.874L2.17195 193.738L68.5603 148.828L69 148.531V148V136.521L77.9314 130.269L85.3415 136.753Z" fill="url(#paint0_linear_3515_18130)" stroke="black" stroke-width="2"/>
<path d="M147 148.5L155.5 208.5L129 213L118.5 140.5L147 77.75L158.5 62.5L121 52L112 27L126 18L144 27L147 29.5862L155.5 16H180.5L180 27C184.333 27.6667 202.8 29 204 29C205.2 29 197.583 47.1667 199 56L183.5 70.5L190.75 84.25L185.5 77.75L196.5 101L200.5 118.5L210.5 147L187.5 155.5L169 109L153 112L147 148.5Z" fill="url(#paint1_linear_3515_18130)" stroke="black" stroke-width="2"/>
<path d="M134.5 19.5H128L142 29H144.5V24.5L134.5 19.5Z" fill="#D9D9D9" stroke="black" stroke-width="2"/>
<path d="M133.5 35C132.3 35.4 129.333 33.8333 128 33L114.5 24L110 25V22.5L123.5 18L125.5 19L142 29V32M133.5 35C134.7 34.6 139.667 32.8333 142 32M133.5 35V52.5L142 49.5V32" stroke="black" stroke-width="2"/>
<path d="M216 70.5L208 56.5L217 54.5L219 56L230 54.5L234 62L237 63L241 72L240 76L235 75L231.5 79.5L226.5 78C225.833 79.1667 224.5 81.7 224.5 82.5C224.5 83.3 220.167 83.1667 218 83L219.5 81L217 78L216 70.5Z" fill="#2C2A2C"/>
<path d="M226.5 78C225.833 79.1667 224.5 81.7 224.5 82.5C224.5 83.3 220.167 83.1667 218 83L219.5 81L217 78L216 70.5L208 56.5L217 54.5L219 56M226.5 78L231.5 79.5L235 75M226.5 78L222.5 70.5L226.5 71M235 75L240 76M235 75L230 66L226.5 71M240 76L241 72L237 63L234 62L230 54.5L219 56M240 76L236 82.5M219 56L226.5 71" stroke="black" stroke-width="2"/>
<path d="M215 85.5L218 82.5L224.5 83.5L228.5 78.5L235 80.5L237.5 86.5L236 97L237.5 95.5L240 98.5C239.333 105.5 237.9 119.7 237.5 120.5C237.1 121.3 234 120.833 232.5 120.5V113.5L224.5 108H219L223.75 113.5H219L212.5 108V102L215 101V85.5Z" fill="#72756A"/>
<path d="M224.5 108H219L223.75 113.5H219L212.5 108V102L215 101V85.5L218 82.5L224.5 83.5M224.5 108L232.5 113.5V120.5C234 120.833 237.1 121.3 237.5 120.5C237.9 119.7 239.333 105.5 240 98.5L237.5 95.5L236 97L237.5 86.5L235 80.5L228.5 78.5L224.5 83.5M224.5 108L223.75 99.5L224.5 83.5" stroke="black" stroke-width="2"/>
<path d="M121 62V56L122.5 56.5L129.5 56L133.5 52L142.5 50.5C142.5 56.7613 138 62.281 138 68.5L134.5 69.5C130.833 72.5 127.3 78.6 126.5 79C125.7 79.4 121.167 76.8333 119 75.5L121 72.5V68.5L123 65.5L121 62Z" fill="#212121" stroke="black" stroke-width="2"/>
<path d="M205.5 97V100.857L196.5 101.5L193.5 100.857L182 90.5L173.5 94.5L170.5 80L173 78L173.5 72.5L177 68H186.5L195 78V81.5L205.5 97Z" fill="#72756A"/>
<path d="M205.5 97V100.857L196.5 101.5M205.5 97L195 81.5M205.5 97L196.5 97.5M195 81.5V78M195 81.5H185.5M195 78L186.5 68H177M195 78H185.5M177 68L173.5 72.5L173 78M177 68L185.5 78M173 78L170.5 80L173.5 94.5L182 90.5M173 78L182 85M182 90.5L193.5 100.857L196.5 101.5M182 90.5V85M196.5 101.5V97.5M196.5 97.5L185.5 81.5M185.5 81.5L182 85M185.5 81.5V78" stroke="black" stroke-width="2"/>
<path d="M141.5 69L146 70L156 121.5L157.75 123.25L159.5 125L153 153.5L146 159L141.5 156V152L144.5 154.5V139L139.5 137H130L117.5 132.5L119.5 126.5L118.5 124.5L124.739 107.5L132.261 87L138.5 70L141.5 69Z" fill="#72756A"/>
<path d="M141.5 69L146 70L156 121.5L157.75 123.25L159.5 125L153 153.5L146 159L141.5 156V152L144.5 154.5V139L139.5 137H130L117.5 132.5L119.5 126.5L118.5 124.5L124.739 107.5L132.261 87L138.5 70L141.5 69Z" fill="black" fill-opacity="0.2"/>
<path d="M141.5 69L146 70L156 121.5L157.75 123.25M141.5 69L138.5 70L132.261 87M141.5 69V77.5L132.261 87M130 137L117.5 132.5L119.5 126.5L118.5 124.5L124.739 107.5M130 137H139.5L144.5 139V154.5L141.5 152V156L146 159L153 153.5L159.5 125L157.75 123.25M130 137L131.5 131.5M138.5 132.5L143.5 133.5M143.5 133.5L147 136L157.75 123.25M143.5 133.5L151.5 125M131.5 131.5L136.689 130L138 114.5L135 112.711M131.5 131.5L126.5 128L130 114L135 112.711M135 112.711L136.689 107.5M137.5 105L136.689 107.5M124.739 107.5H136.689M124.739 107.5L132.261 87" stroke="black" stroke-width="2"/>
<path d="M145 74V82L140 87L136 103L144 122H155L162 114L158 100L170 96V77H161V79H157L154 71H147L145 74Z" fill="#72756A" stroke="black" stroke-width="2"/>
<path d="M145 82H152M154 72L152 75V82M152 82L147 88L145.5 94M152 122L144 103L145.5 94M145.5 94H138" stroke="black" stroke-width="2"/>
<path d="M161 110H152M152 110L150 103M152 110L148 114M154 100L150 103M150 103H144" stroke="black" stroke-width="2"/>
<path d="M153.196 83L150.5 96.5L154 100L165 92L168 83L160 81.5L153.196 83Z" stroke="black" stroke-width="2"/>
<path d="M165.5 107.5L166.5 104H168V101L176 97.5L181 101L182 97.5H184L192 112.5L197.5 114.5H203L214.5 144V150L212 150.5L203 133L200 134.5H201L206.5 146.5L205.5 155.5L203.833 157L195.5 164.5L185.5 162L176.5 143.5L178.375 139.5L176.5 140.5L168 114.5L166.214 109.5L165.5 107.5Z" fill="#72756A"/>
<path d="M200 134.5L203 133L212 150.5L214.5 150V144L203 114.5H197.5L192 112.5L184 97.5H182L181 101L176 97.5L168 101V104H166.5L165.5 107.5L166.214 109.5M200 134.5L197.5 133L184 136.5M200 134.5H201L206.5 146.5L205.5 155.5L203.833 157M184 136.5L174.5 111M184 136.5L178.375 139.5M174.5 111L182 104M174.5 111L166.214 109.5M166.214 109.5L168 114.5L176.5 140.5L178.375 139.5M178.375 139.5L176.5 143.5M176.5 143.5L185.5 162L195.5 164.5M176.5 143.5L184.875 139.5L195.5 164.5M195.5 164.5L203.833 157M195 136.5L203.833 157" stroke="black" stroke-width="2"/>
<path d="M206.5 150C206.9 150 211 156.333 213 159.5H215L223 166L230.5 199.5H228.5L229.967 205L230.5 207L219 212L210.5 214L209.833 212L206.5 202L194 177V173.5L188.5 166L188 162.5L196 164L205 156.5L206.5 150Z" fill="#72756A"/>
<path d="M206.5 150C206.9 150 211 156.333 213 159.5H215L223 166L230.5 199.5H228.5L229.967 205L230.5 207L219 212L210.5 214L209.833 212L206.5 202L194 177V173.5L188.5 166L188 162.5L196 164L205 156.5L206.5 150Z" fill="black" fill-opacity="0.2"/>
<path d="M196 164L188 162.5L188.5 166L194 173.5V177L206.5 202L209.833 212M196 164L205 156.5L206.5 150C206.9 150 211 156.333 213 159.5H215L223 166L230.5 199.5H228.5L229.967 205M196 164L197 167L210.5 190L215 202.5M215 202.5H213L214 210L209.833 212M215 202.5L216.5 201L222 207.5L229.967 205M209.833 212L210.5 214L219 212L230.5 207L229.967 205" stroke="black" stroke-width="2"/>
<path d="M215 238H234V234H215V238Z" fill="#72756A"/>
<path fill-rule="evenodd" clip-rule="evenodd" d="M237.5 225.5L234 222L228 207H232.5L234.5 211.5L233.5 197.5L237.5 197L240 208.5L241 220L237.5 225.5ZM213.789 216L212.5 220L213.789 225.5H217.289L213.789 216ZM218 223.5L215 234H234V222L231 227H221L218 223.5Z" fill="#72756A"/>
<path d="M221 227H231L234 222L228 207L212.5 214.5L213.789 216L217.289 225.5L218 223.5L221 227Z" fill="#72756A"/>
<path d="M234 222L231 227H221L218 223.5M234 222L237.5 225.5L241 220L240 208.5L237.5 197L233.5 197.5L234.5 211.5L232.5 207H228M234 222L228 207M234 222V234M228 207L212.5 214.5L213.789 216M213.789 216L212.5 220L213.789 225.5H217.289M213.789 216L217.289 225.5M217.289 225.5L218 223.5M218 223.5L215 234M234 234V238H215V234M234 234H215" stroke="black" stroke-width="2"/>
<path d="M125 137.5L139.5 138.5L137 145.5L139.5 149.5L126.5 157L113.5 156.5L112 145L116 131V134.5L125 137.5Z" fill="#72756A"/>
<path d="M125 137.5L139.5 138.5L137 145.5L139.5 149.5L126.5 157M125 137.5L116 134.5V131L112 145L113.5 156.5L126.5 157M125 137.5L123.5 144L126 144.5L125 152H123.5L126.5 157" stroke="black" stroke-width="2"/>
<path d="M126.5 161L136.5 154.5L141.5 164L148.5 162L152.5 165.5L155 162L158 172.5L155 195L158 211.5L156 217.5L152.5 218.5V217H146.5L145.5 219.5L142.5 218.5L139.5 214L147.5 194L148.5 190.5L142.5 192L141.5 198.5L139.5 199.5L138.967 201.5L137.5 207L130.5 206L121 201.5L121.714 194L123 180.5L116 164L115 156H118V161H126.5Z" fill="#72756A"/>
<path d="M139.5 199.5L141.5 198.5L142.5 192L148.5 190.5M139.5 199.5C138.167 193.667 135.5 181.9 135.5 181.5C135.5 181.1 136.167 176 136.5 173.5L141.5 164M139.5 199.5L138.967 201.5M148.5 190.5L147.5 194L139.5 214L142.5 218.5L145.5 219.5L146.5 217H152.5V218.5L156 217.5L158 211.5L155 195L158 172.5L155 162L152.5 165.5L148.5 162L141.5 164M148.5 190.5L154 169.5M141.5 164L136.5 154.5L126.5 161H118V156H115L116 164L123 180.5L121.714 194M121.714 194L121 201.5L130.5 206L137.5 207L138.967 201.5M121.714 194H124L125.5 201.5L133 203.5L138.967 201.5" stroke="black" stroke-width="2"/>
<path d="M145.5 219L145 235H149V238H156L159 216.5L157.5 215L145.5 219Z" fill="#72756A"/>
<path d="M129.5 212L129 220H124L114 235V238H135L143 219H145.5L157.5 215L138.5 205L131 206.5L129.5 212Z" fill="#72756A"/>
<path d="M122.5 202.5L120 212V220H124H129L129.5 212L131 206.5L122.5 202.5Z" fill="#72756A"/>
<path d="M131 206.5L129.5 212L129 220H124M131 206.5L122.5 202.5L120 212V220H124M131 206.5L138.5 205L157.5 215M124 220L114 235V238H135L143 219M143 219H145.5M143 219H135M145.5 219L145 235H149V238H156L159 216.5L157.5 215M145.5 219L157.5 215" stroke="black" stroke-width="2"/>
<path d="M214 113.5H218L224 112.5L231 115.5V125.5L226.5 129.5L222.5 139L215.5 142.5L211 140L214 133.5L215.5 121.5C212.833 124 207.5 129.1 207.5 129.5C207.5 129.9 205.833 128.333 205 127.5L209.5 116.5L214 113.5Z" fill="#929B88"/>
<path d="M218 113.5H214L209.5 116.5L205 127.5C205.833 128.333 207.5 129.9 207.5 129.5C207.5 129.1 212.833 124 215.5 121.5L214 133.5L211 140L215.5 142.5L222.5 139L226.5 129.5M218 113.5L224 112.5L231 115.5V125.5L226.5 129.5M218 113.5V126L226.5 129.5" stroke="black" stroke-width="2"/>
<path d="M148 20H167V38H149L154.5 31L148 20Z" fill="black"/>
<path d="M163 24L158 26H154V28H149V31L147 28V23V22L160 3L162 5H166L168 3L172 5V8H178L182.5 13.5L176.5 30H170V28L163 26.5V24Z" fill="#D8DCDE"/>
<path d="M130 38.5V55.5L123 56.5L110.5 49.5L106 30.5L109.5 27L113 23.5L128 32.5L130 38.5Z" fill="#D8DCDE"/>
<path d="M172 5V8H178L182.5 13.5L176.5 30H170V28L163 26.5V24L158 26H154V28H149V31L147 28V23V22M172 5L168 3L166 5H162L160 3L147 22M172 5L154 22H147M123 56.5L110.5 49.5L106 30.5L109.5 27M123 56.5L130 55.5V38.5L128 32.5L113 23.5L109.5 27M123 56.5L123.625 39.5L122.375 35.5L109.5 27" stroke="black" stroke-width="2"/>
<path d="M187 41L188.5 23.5L203.5 16L209.5 8L212 17L217.5 14.5L216 7L224.5 11H230.25L233.5 12L241.5 39V43L233.5 55.75L230.5 54.5C227 55 219.5 56.5 219.5 56.5L216.986 51L213.5 55L208.625 55.75L206.5 59L202 61.5L195.5 60.5L187 41Z" fill="#313131"/>
<path d="M187 41L188.5 23.5L203.5 16L209.5 8M187 41L195.5 60.5L202 61.5L206.5 59M187 41L198.5 40.5M209.5 8L212 17M209.5 8L207.5 16L198 21.5L198.5 40.5M212 17L217.5 14.5M212 17L207.5 20.4412M217.5 14.5L216 7L224.5 11H230.25M217.5 14.5L211.5 19.5V39M230.5 54.5C227 55 219.5 56.5 219.5 56.5M230.5 54.5L223 34.5M230.5 54.5L233.5 55.75L241.5 43V39L233.5 12L230.25 11M219.5 56.5L216.986 51L213.5 55M219.5 56.5L211.5 39M208.625 55.75L206.5 59M208.625 55.75L203.5 42M208.625 55.75L213.5 55M206.5 59L198.5 40.5M230.25 11L222 18.5L223 34.5M223 34.5L211.5 39M203.5 42V23.5L207.5 20.4412M203.5 42L208 41.5M213.5 55L208 41.5M208 41.5L207.5 20.4412" stroke="black" stroke-width="2"/>
<path d="M168.5 40C169.3 40 173.833 40 176 40M168.5 40L162.5 51.5L175 57.5M168.5 40V31C170.667 32 175 34.2 175 35C175 35.8 181.333 30.3333 184.5 27.5M176 40L178.5 48.5M176 40L199 38V45.5L178.5 48.5M178.5 48.5L175 57.5M175 57.5L166 63.5L168.5 73H161V70" stroke="black" stroke-width="2"/>
<path d="M161 62.5V72H157L147.5 71L145 64L140 61V54L149.5 34.5L151 37.5H156L159 35.5H162.25L168.5 37.5L168 43L164 44V46.5H161L159 50.5V56L164 55L170 48L175.5 50.5L168 60L179.5 67L189 59H194.5L183 69.625L176.5 69L163 61.875L161 62.5Z" fill="#D9D9D9"/>
<path d="M140 54L149.5 34.5L151 37.5H156L159 35.5H162.25L168.5 37.5L168 43L164 44V46.5H161L159 50.5V56L164 55L170 48L175.5 50.5L168 60L179.5 67L189 59H194.5L183 69.625L176.5 69L163 61.875L161 62.5V72H157M140 54V61L145 64L147.5 71L157 72M140 54L148 55M157 72L153.5 65L148 62.5V61V55M148 55L160.5 39.5" stroke="black" stroke-width="2"/>
<rect x="192" y="38" width="2" height="2" fill="#FF4409"/>
<path opacity="0.3" d="M113 239H136L140 255H117L113 243V239Z" fill="url(#paint2_linear_3515_18130)"/>
<path opacity="0.3" d="M214 239H235V255H218L214 247V239Z" fill="url(#paint3_linear_3515_18130)"/>
<path opacity="0.3" d="M148 242V239H157L161 255H144V242H148Z" fill="url(#paint4_linear_3515_18130)"/>
<rect x="115" y="234" width="13" height="2" fill="black"/>
<defs>
<linearGradient id="paint0_linear_3515_18130" x1="133.5" y1="0" x2="133.5" y2="204" gradientUnits="userSpaceOnUse">
<stop/>
<stop offset="1" stop-color="#292B2D"/>
</linearGradient>
<linearGradient id="paint1_linear_3515_18130" x1="161.5" y1="16" x2="161.5" y2="171" gradientUnits="userSpaceOnUse">
<stop stop-color="#2E3639"/>
<stop offset="1"/>
</linearGradient>
<linearGradient id="paint2_linear_3515_18130" x1="126.5" y1="239" x2="126.5" y2="255" gradientUnits="userSpaceOnUse">
<stop/>
<stop offset="1" stop-opacity="0"/>
</linearGradient>
<linearGradient id="paint3_linear_3515_18130" x1="224.5" y1="239" x2="224.5" y2="255" gradientUnits="userSpaceOnUse">
<stop/>
<stop offset="1" stop-opacity="0"/>
</linearGradient>
<linearGradient id="paint4_linear_3515_18130" x1="152.5" y1="239" x2="152.5" y2="255" gradientUnits="userSpaceOnUse">
<stop/>
<stop offset="1" stop-opacity="0"/>
</linearGradient>
</defs>
</svg>
