<svg width="240" height="192" viewBox="0 0 240 192" fill="none" xmlns="http://www.w3.org/2000/svg">
<path d="M10.2363 130.133L123.052 61.5352L127.052 68.4634L11.2363 131.865L10.2363 130.133Z" fill="#AAAAAA" stroke="#EAE9C7" stroke-width="2"/>
<path d="M124.552 64.1328L200.762 20.1328L201.762 21.8649L125.552 65.8649L124.552 64.1328Z" fill="#AAAAAA" stroke="#EAE9C7" stroke-width="2"/>
<path d="M98 112L96.5 104L122 80H147.5H149C162.255 80 173 90.7452 173 104V104V160L98 168V112Z" fill="#F08044"/>
<path d="M98 112L96.5 104L122 80H147.5H149C162.255 80 173 90.7452 173 104V104V160L98 168V112Z" fill="black" fill-opacity="0.44"/>
<path d="M98 112L96.5 104L122 80H147.5H149C162.255 80 173 90.7452 173 104V104V160L98 168V112Z" stroke="black" stroke-width="2"/>
<path d="M168 82V82C181.807 82 193 93.1929 193 107V112V140H161V82H168Z" fill="#634F45" stroke="black" stroke-width="2"/>
<path d="M118 52L118 68L102 76L102 60L118 52Z" fill="#A12B27"/>
<path d="M118 52L118 68L102 76L102 60L118 52Z" fill="black" fill-opacity="0.55"/>
<path d="M118 52L118 68L102 76L102 60L118 52Z" stroke="black" stroke-width="2"/>
<path d="M63 24H86L122 152H63V24Z" fill="#F08044"/>
<path d="M63 24H86L122 152H63V24Z" fill="url(#paint0_linear_780_49638)" fill-opacity="0.33"/>
<path d="M63 24H86L122 152H63V24Z" stroke="black" stroke-width="2"/>
<path d="M64.2093 24H84V32C84 36.4183 80.4183 40 76 40H47V32.5333L64.2093 24Z" fill="#F08044"/>
<path d="M64.2093 24H84V32C84 36.4183 80.4183 40 76 40H47V32.5333L64.2093 24Z" fill="url(#paint1_linear_780_49638)" fill-opacity="0.33"/>
<path d="M64.2093 24H84V32C84 36.4183 80.4183 40 76 40H47V32.5333L64.2093 24Z" stroke="black" stroke-width="2"/>
<path d="M84 24V26C84 30.4183 80.4183 34 76 34H62V24H84Z" fill="#591C1C" stroke="black" stroke-width="2"/>
<path d="M74 16H76V24H70L74 16Z" fill="#591C1C" stroke="black" stroke-width="2"/>
<path d="M82 16H84V24H78L82 16Z" fill="#591C1C" stroke="black" stroke-width="2"/>
<path d="M102 116L96.5 104L122 80H147.5H149C162.255 80 173 90.7452 173 104V104V160H102V116Z" fill="#F08044"/>
<path d="M102 116L96.5 104L122 80H147.5H149C162.255 80 173 90.7452 173 104V104V160H102V116Z" fill="url(#paint2_linear_780_49638)" fill-opacity="0.33"/>
<path d="M102 116L96.5 104L122 80H147.5H149C162.255 80 173 90.7452 173 104V104V160H102V116Z" stroke="black" stroke-width="2"/>
<rect x="68" y="47" width="2" height="8" fill="#D25800"/>
<rect x="68" y="63" width="2" height="8" fill="#D25800"/>
<rect x="68" y="79" width="2" height="8" fill="#D25800"/>
<rect x="68" y="95" width="2" height="8" fill="#D25800"/>
<rect x="68" y="111" width="2" height="8" fill="#D25800"/>
<rect x="68" y="127" width="2" height="8" fill="#D25800"/>
<rect x="68" y="143" width="2" height="8" fill="#D25800"/>
<rect x="74" y="47" width="2" height="8" fill="#D25800"/>
<rect x="74" y="63" width="2" height="8" fill="#D25800"/>
<rect x="74" y="79" width="2" height="8" fill="#D25800"/>
<rect x="74" y="95" width="2" height="8" fill="#D25800"/>
<rect x="74" y="111" width="2" height="8" fill="#D25800"/>
<rect x="74" y="127" width="2" height="8" fill="#D25800"/>
<rect x="74" y="143" width="2" height="8" fill="#D25800"/>
<rect x="80" y="47" width="2" height="8" fill="#D25800"/>
<rect x="80" y="63" width="2" height="8" fill="#D25800"/>
<rect x="80" y="79" width="2" height="8" fill="#D25800"/>
<rect x="80" y="95" width="2" height="8" fill="#D25800"/>
<rect x="80" y="111" width="2" height="8" fill="#D25800"/>
<rect x="80" y="127" width="2" height="8" fill="#D25800"/>
<rect x="80" y="143" width="2" height="8" fill="#D25800"/>
<rect x="86" y="47" width="2" height="8" fill="#D25800"/>
<rect x="86" y="63" width="2" height="8" fill="#D25800"/>
<rect x="86" y="79" width="2" height="8" fill="#D25800"/>
<rect x="86" y="95" width="2" height="8" fill="#D25800"/>
<rect x="86" y="111" width="2" height="8" fill="#D25800"/>
<rect x="86" y="127" width="2" height="8" fill="#D25800"/>
<rect x="86" y="143" width="2" height="8" fill="#D25800"/>
<g opacity="0.3">
<rect x="72" y="43" width="2" height="8" fill="#FFD600"/>
<rect x="72" y="59" width="2" height="8" fill="#FFD600"/>
<rect x="72" y="75" width="2" height="8" fill="#FFD600"/>
<rect x="72" y="91" width="2" height="8" fill="#FFD600"/>
<rect x="72" y="107" width="2" height="8" fill="#FFD600"/>
<rect x="72" y="123" width="2" height="8" fill="#FFD600"/>
<rect x="72" y="139" width="2" height="8" fill="#FFD600"/>
<rect x="78" y="43" width="2" height="8" fill="#FFD600"/>
<rect x="78" y="59" width="2" height="8" fill="#FFD600"/>
<rect x="78" y="75" width="2" height="8" fill="#FFD600"/>
<rect x="78" y="91" width="2" height="8" fill="#FFD600"/>
<rect x="78" y="107" width="2" height="8" fill="#FFD600"/>
<rect x="78" y="123" width="2" height="8" fill="#FFD600"/>
<rect x="78" y="139" width="2" height="8" fill="#FFD600"/>
<rect x="84" y="43" width="2" height="8" fill="#FFD600"/>
<rect x="84" y="59" width="2" height="8" fill="#FFD600"/>
<rect x="84" y="75" width="2" height="8" fill="#FFD600"/>
<rect x="84" y="91" width="2" height="8" fill="#FFD600"/>
<rect x="84" y="107" width="2" height="8" fill="#FFD600"/>
<rect x="84" y="123" width="2" height="8" fill="#FFD600"/>
<rect x="84" y="139" width="2" height="8" fill="#FFD600"/>
<rect x="90" y="59" width="2" height="8" fill="#FFD600"/>
<rect x="90" y="75" width="2" height="8" fill="#FFD600"/>
<rect x="90" y="91" width="2" height="8" fill="#FFD600"/>
<rect x="90" y="107" width="2" height="8" fill="#FFD600"/>
<rect x="90" y="123" width="2" height="8" fill="#FFD600"/>
<rect x="90" y="139" width="2" height="8" fill="#FFD600"/>
</g>
<path d="M92 82.054C92 76.5014 96.5014 72 102.054 72V72V92H92V82.054Z" fill="#593D3D" stroke="black" stroke-width="2"/>
<g clip-path="url(#clip0_780_49638)">
<rect x="103" y="91" width="2" height="8" fill="#D25800"/>
<rect x="103" y="107" width="2" height="8" fill="#D25800"/>
<rect x="103" y="123" width="2" height="8" fill="#D25800"/>
<rect x="103" y="139" width="2" height="8" fill="#D25800"/>
<rect x="109" y="91" width="2" height="8" fill="#D25800"/>
<rect x="109" y="107" width="2" height="8" fill="#D25800"/>
<rect x="109" y="123" width="2" height="8" fill="#D25800"/>
<rect x="109" y="139" width="2" height="8" fill="#D25800"/>
<rect x="115" y="91" width="2" height="8" fill="#D25800"/>
<rect x="115" y="107" width="2" height="8" fill="#D25800"/>
<rect x="115" y="123" width="2" height="8" fill="#D25800"/>
<rect x="115" y="139" width="2" height="8" fill="#D25800"/>
<rect x="121" y="91" width="2" height="8" fill="#D25800"/>
<rect x="121" y="107" width="2" height="8" fill="#D25800"/>
<rect x="121" y="123" width="2" height="8" fill="#D25800"/>
<rect x="121" y="139" width="2" height="8" fill="#D25800"/>
<rect x="127" y="91" width="2" height="8" fill="#D25800"/>
<rect x="127" y="107" width="2" height="8" fill="#D25800"/>
<rect x="127" y="123" width="2" height="8" fill="#D25800"/>
<rect x="127" y="139" width="2" height="8" fill="#D25800"/>
<rect x="133" y="91" width="2" height="8" fill="#D25800"/>
<rect x="133" y="107" width="2" height="8" fill="#D25800"/>
<rect x="133" y="123" width="2" height="8" fill="#D25800"/>
<rect x="133" y="139" width="2" height="8" fill="#D25800"/>
<rect x="139" y="91" width="2" height="8" fill="#D25800"/>
<rect x="139" y="107" width="2" height="8" fill="#D25800"/>
<rect x="139" y="123" width="2" height="8" fill="#D25800"/>
<rect x="139" y="139" width="2" height="8" fill="#D25800"/>
<rect x="145" y="91" width="2" height="8" fill="#D25800"/>
<rect x="145" y="107" width="2" height="8" fill="#D25800"/>
<rect x="145" y="123" width="2" height="8" fill="#D25800"/>
<rect x="145" y="139" width="2" height="8" fill="#D25800"/>
<rect x="151" y="91" width="2" height="8" fill="#D25800"/>
<rect x="151" y="107" width="2" height="8" fill="#D25800"/>
<rect x="151" y="123" width="2" height="8" fill="#D25800"/>
<rect x="151" y="139" width="2" height="8" fill="#D25800"/>
<rect x="157" y="91" width="2" height="8" fill="#D25800"/>
<rect x="157" y="107" width="2" height="8" fill="#D25800"/>
<rect x="157" y="123" width="2" height="8" fill="#D25800"/>
<rect x="157" y="139" width="2" height="8" fill="#D25800"/>
<rect x="163" y="91" width="2" height="8" fill="#D25800"/>
<rect x="163" y="107" width="2" height="8" fill="#D25800"/>
<rect x="163" y="123" width="2" height="8" fill="#D25800"/>
<rect x="163" y="139" width="2" height="8" fill="#D25800"/>
</g>
<g opacity="0.2" clip-path="url(#clip1_780_49638)">
<rect x="107" y="87" width="2" height="8" fill="#FFE600"/>
<rect x="107" y="103" width="2" height="8" fill="#FFE600"/>
<rect x="107" y="119" width="2" height="8" fill="#FFE600"/>
<rect x="107" y="135" width="2" height="8" fill="#FFE600"/>
<rect x="113" y="87" width="2" height="8" fill="#FFE600"/>
<rect x="113" y="103" width="2" height="8" fill="#FFE600"/>
<rect x="113" y="119" width="2" height="8" fill="#FFE600"/>
<rect x="113" y="135" width="2" height="8" fill="#FFE600"/>
<rect x="119" y="87" width="2" height="8" fill="#FFE600"/>
<rect x="119" y="103" width="2" height="8" fill="#FFE600"/>
<rect x="119" y="119" width="2" height="8" fill="#FFE600"/>
<rect x="119" y="135" width="2" height="8" fill="#FFE600"/>
<rect x="125" y="87" width="2" height="8" fill="#FFE600"/>
<rect x="125" y="103" width="2" height="8" fill="#FFE600"/>
<rect x="125" y="119" width="2" height="8" fill="#FFE600"/>
<rect x="125" y="135" width="2" height="8" fill="#FFE600"/>
<rect x="131" y="87" width="2" height="8" fill="#FFE600"/>
<rect x="131" y="103" width="2" height="8" fill="#FFE600"/>
<rect x="131" y="119" width="2" height="8" fill="#FFE600"/>
<rect x="131" y="135" width="2" height="8" fill="#FFE600"/>
<rect x="137" y="87" width="2" height="8" fill="#FFE600"/>
<rect x="137" y="103" width="2" height="8" fill="#FFE600"/>
<rect x="137" y="119" width="2" height="8" fill="#FFE600"/>
<rect x="137" y="135" width="2" height="8" fill="#FFE600"/>
<rect x="143" y="87" width="2" height="8" fill="#FFE600"/>
<rect x="143" y="103" width="2" height="8" fill="#FFE600"/>
<rect x="143" y="119" width="2" height="8" fill="#FFE600"/>
<rect x="143" y="135" width="2" height="8" fill="#FFE600"/>
<rect x="149" y="87" width="2" height="8" fill="#FFE600"/>
<rect x="149" y="103" width="2" height="8" fill="#FFE600"/>
<rect x="149" y="119" width="2" height="8" fill="#FFE600"/>
<rect x="149" y="135" width="2" height="8" fill="#FFE600"/>
<rect x="155" y="87" width="2" height="8" fill="#FFE600"/>
<rect x="155" y="103" width="2" height="8" fill="#FFE600"/>
<rect x="155" y="119" width="2" height="8" fill="#FFE600"/>
<rect x="155" y="135" width="2" height="8" fill="#FFE600"/>
<rect x="161" y="87" width="2" height="8" fill="#FFE600"/>
<rect x="161" y="103" width="2" height="8" fill="#FFE600"/>
<rect x="161" y="119" width="2" height="8" fill="#FFE600"/>
<rect x="161" y="135" width="2" height="8" fill="#FFE600"/>
<rect x="167" y="103" width="2" height="8" fill="#FFE600"/>
<rect x="167" y="119" width="2" height="8" fill="#FFE600"/>
<rect x="167" y="135" width="2" height="8" fill="#FFE600"/>
</g>
<path d="M98 80L126 76H157V80H152.054L154 87V120H98V80Z" fill="#593D3D"/>
<path d="M98 80L126 76H157V80H152.054L154 87V120H98V80Z" fill="url(#paint3_linear_780_49638)" fill-opacity="0.44"/>
<path d="M98 80L126 76H157V80H152.054L154 87V120H98V80Z" stroke="black" stroke-width="2"/>
<path d="M131 6V6C127.686 6 125 8.68629 125 12V18" stroke="white" stroke-width="2"/>
<path d="M131 2V2C127.686 2 125 4.68629 125 8V14" stroke="white" stroke-width="2"/>
<path d="M119 2V2C122.314 2 125 4.68629 125 8V14" stroke="white" stroke-width="2"/>
<path d="M119 6V6C122.314 6 125 8.68629 125 12V22" stroke="white" stroke-width="2"/>
<path d="M117 34H134V31L132 29H119L117 31V34Z" fill="#A12B27" stroke="black" stroke-width="2"/>
<path d="M106 80H138V32H128H117L111 44.5V50H113L112.963 54H110.963L110 73L106 80Z" fill="#A12B27" stroke="black" stroke-width="2"/>
<path d="M114 76H134L110 104L94 100L114 76Z" fill="#A12B27" stroke="black" stroke-width="2"/>
<path d="M110 100L102 104H94L101.5 128L99 132H112L110 128L112 112.5L110 100Z" fill="#A12B27"/>
<path d="M110 100L102 104H94L101.5 128L99 132H112L110 128L112 112.5L110 100Z" fill="url(#paint4_linear_780_49638)" fill-opacity="0.2"/>
<path d="M110 100L102 104H94L101.5 128L99 132H112L110 128L112 112.5L110 100Z" stroke="black" stroke-width="2"/>
<path d="M86 142H92.5L98 140L104 139.5H110L111 138L110 132H102L96 136L92.5 138L86 142Z" fill="#A12B27"/>
<path d="M86 142H92.5L98 140L104 139.5H110L111 138L110 132H102L96 136L92.5 138L86 142Z" fill="black" fill-opacity="0.33"/>
<path d="M86 142H92.5L98 140L104 139.5H110L111 138L110 132H102L96 136L92.5 138L86 142Z" stroke="black" stroke-width="2"/>
<path d="M132 24V19C132 16.7909 130.209 15 128 15H122C116 15 114 22 114 22V24H132Z" fill="#A12B27" stroke="black" stroke-width="2"/>
<path d="M121 24H132V29H121C113.891 28.5225 110 24 110 24H121Z" fill="#A12B27"/>
<path d="M121 24H132V29H121C113.891 28.5225 110 24 110 24H121Z" fill="black" fill-opacity="0.33"/>
<path d="M121 24H132V29H121C113.891 28.5225 110 24 110 24H121Z" stroke="black" stroke-width="2"/>
<path d="M99 99L99 107C99 109.209 97.2091 111 95 111L93 111L93 99L99 99Z" fill="#A12B27" stroke="black" stroke-width="2"/>
<path d="M105 96L105 100C105 102.209 103.209 104 101 104L99 104L99 96L105 96Z" fill="#A12B27" stroke="black" stroke-width="2"/>
<path d="M105 112L105 108C105 105.791 103.209 104 101 104L99 104L99 112L105 112Z" fill="#A12B27"/>
<path d="M105 112L105 108C105 105.791 103.209 104 101 104L99 104L99 112L105 112Z" fill="black" fill-opacity="0.33"/>
<path d="M105 112L105 108C105 105.791 103.209 104 101 104L99 104L99 112L105 112Z" stroke="black" stroke-width="2"/>
<rect x="124" y="12" width="2" height="4" fill="black"/>
<rect x="117" y="17" width="2" height="4" fill="black"/>
<rect x="121" y="17" width="2" height="4" fill="black"/>
<rect x="115" y="21" width="2" height="4" fill="black"/>
<rect x="119" y="21" width="2" height="4" fill="black"/>
<path d="M78 160H82V175H74L78 168V160Z" fill="#221F1D" stroke="black" stroke-width="2"/>
<path d="M94 160H98V175H90L94 168V160Z" fill="#221F1D" stroke="black" stroke-width="2"/>
<path d="M138 160H142V175H134L138 168V160Z" fill="#221F1D" stroke="black" stroke-width="2"/>
<path d="M158 160H162V175H154L158 168V160Z" fill="#221F1D" stroke="black" stroke-width="2"/>
<path opacity="0.3" d="M77 192H83V176H72L77 183V192Z" fill="url(#paint5_linear_780_49638)"/>
<path opacity="0.3" d="M93 192H99V176H88L93 183V192Z" fill="url(#paint6_linear_780_49638)"/>
<path opacity="0.3" d="M137 192H143V176H132L137 183V192Z" fill="url(#paint7_linear_780_49638)"/>
<path opacity="0.3" d="M157 192H163V176H152L157 183V192Z" fill="url(#paint8_linear_780_49638)"/>
<path d="M56 40V50C56 62.1503 65.8497 72 78 72V72" stroke="black" stroke-width="2"/>
<path d="M95 46V55C95 64.3888 87.3888 72 78 72V72" stroke="black" stroke-width="2"/>
<path d="M118 40C118 35.5817 121.582 32 126 32V32C130.418 32 134 35.5817 134 40V56C134 60.4183 130.418 64 126 64V64C121.582 64 118 60.4183 118 56V40Z" fill="#A12B27" stroke="black" stroke-width="2"/>
<path d="M130 58L130 71L104 67L104 58L130 58Z" fill="#A12B27"/>
<path d="M130 58L130 71L104 67L104 58L130 58Z" fill="url(#paint9_linear_780_49638)" fill-opacity="0.2"/>
<path d="M130 58L130 71L104 67L104 58L130 58Z" stroke="black" stroke-width="2"/>
<path d="M98 58L98 67L94 67L90 62L90 58L98 58Z" fill="#A12B27" stroke="black" stroke-width="2"/>
<path d="M104 55L104 71L101 67.0002L98 67.0002L98 58.0002L101 58.0002L104 55Z" fill="#A12B27" stroke="black" stroke-width="2"/>
<rect x="114" y="31" width="23" height="2" fill="black"/>
<path d="M51 40V45C51 59.9117 63.0883 72 78 72V72" stroke="black" stroke-width="2"/>
<path d="M100 68V68C100 85.6731 85.6731 100 68 100H60" stroke="black" stroke-width="2"/>
<path d="M100 80V80C100 97.6731 85.6731 112 68 112H60" stroke="black" stroke-width="2"/>
<rect x="55" y="28" width="2" height="12" fill="black"/>
<rect x="50" y="28" width="2" height="11" fill="black"/>
<path d="M130 37H146C146 37 146 66 146 84C146 105.465 130 140 130 140L130 37Z" fill="#2520CF"/>
<path d="M130 37H146C146 37 146 66 146 84C146 105.465 130 140 130 140L130 37Z" fill="url(#paint10_linear_780_49638)" fill-opacity="0.44"/>
<path d="M130 37H146C146 37 146 66 146 84C146 105.465 130 140 130 140L130 37Z" stroke="black" stroke-width="2"/>
<path d="M130 37H114C114 37 114 66 114 84C114 105.465 130 140 130 140L130 37Z" fill="#2520CF"/>
<path d="M130 37H114C114 37 114 66 114 84C114 105.465 130 140 130 140L130 37Z" fill="url(#paint11_linear_780_49638)" fill-opacity="0.44"/>
<path d="M130 37H114C114 37 114 66 114 84C114 105.465 130 140 130 140L130 37Z" stroke="black" stroke-width="2"/>
<rect x="128" y="68" width="4" height="19" fill="#C4C547" stroke="#EBFF00" stroke-width="2"/>
<path d="M130 68V53M133 49H130V53M130 53H133" stroke="#EBFF00" stroke-width="2"/>
<path d="M130 131V96M130 96H133M130 96H127" stroke="#EBFF00" stroke-width="2"/>
<path d="M118 72V57M123 53H118V57M118 57H121.5" stroke="#EBFF00" stroke-width="2"/>
<path d="M142 72V57M137 53H142V57M142 57H138.5" stroke="#EBFF00" stroke-width="2"/>
<path d="M117 60V60C123.075 60 128 64.9249 128 71V72" stroke="#EBFF00" stroke-width="2"/>
<path d="M117 64V64C123.075 64 128 68.9249 128 75V76" stroke="#EBFF00" stroke-width="2"/>
<path d="M117 68V68C123.075 68 128 72.9249 128 79V80" stroke="#EBFF00" stroke-width="2"/>
<path d="M143 60V60C136.925 60 132 64.9249 132 71V72" stroke="#EBFF00" stroke-width="2"/>
<path d="M143 64V64C136.925 64 132 68.9249 132 75V76" stroke="#EBFF00" stroke-width="2"/>
<path d="M143 68V68C136.925 68 132 72.9249 132 79V80" stroke="#EBFF00" stroke-width="2"/>
<path d="M140 85V85C135.582 85 132 81.4183 132 77V77" stroke="#EBFF00" stroke-width="2"/>
<path d="M120 85V85C124.418 85 128 81.4183 128 77V77" stroke="#EBFF00" stroke-width="2"/>
<path d="M136 105V105C132.686 105 130 102.314 130 99V93" stroke="#EBFF00" stroke-width="2"/>
<path d="M136 111V111C132.686 111 130 108.314 130 105V99" stroke="#EBFF00" stroke-width="2"/>
<path d="M124 111V111C127.314 111 130 108.314 130 105V99" stroke="#EBFF00" stroke-width="2"/>
<path d="M124 105V105C127.314 105 130 102.314 130 99V88" stroke="#EBFF00" stroke-width="2"/>
<rect x="114" y="37" width="32" height="8" fill="#D9D9D9" stroke="black" stroke-width="2"/>
<path d="M115 44L122 37" stroke="black" stroke-width="2"/>
<path d="M122 44L129 37" stroke="black" stroke-width="2"/>
<path d="M129 44L136 37" stroke="black" stroke-width="2"/>
<path d="M136 44L143 37" stroke="black" stroke-width="2"/>
<path d="M119 94L122 91M141 94L138 91M138 91L130 83L122 91M138 91V95M122 91V95" stroke="#EBFF00" stroke-width="2"/>
<path d="M92.5 142H104V134L98 128M98 128L92 134V138M98 128V120M98 96V80" stroke="#101014" stroke-width="2"/>
<rect x="188" y="120" width="2" height="20" fill="#010101"/>
<rect x="184" y="122" width="2" height="18" fill="#010101"/>
<rect opacity="0.3" x="182" y="104" width="2" height="18" fill="#010101"/>
<rect opacity="0.3" x="178" y="104" width="2" height="18" fill="#010101"/>
<rect opacity="0.3" x="174" y="104" width="2" height="18" fill="#010101"/>
<rect opacity="0.3" x="186" y="104" width="2" height="18" fill="#010101"/>
<rect opacity="0.3" x="190" y="104" width="2" height="18" fill="#010101"/>
<rect x="180" y="120" width="2" height="20" fill="#010101"/>
<rect x="176" y="122" width="2" height="18" fill="#010101"/>
<rect x="158" y="75" width="2" height="2" fill="black"/>
<rect width="102" height="8" transform="translate(71 152)" fill="#F97B7B"/>
<rect x="74" y="152" width="8" height="8" fill="#4B1E0C"/>
<rect x="90" y="152" width="8" height="8" fill="#4B1E0C"/>
<rect x="106" y="152" width="8" height="8" fill="#4B1E0C"/>
<rect x="122" y="152" width="8" height="8" fill="#4B1E0C"/>
<rect x="138" y="152" width="8" height="8" fill="#4B1E0C"/>
<rect x="154" y="152" width="8" height="8" fill="#4B1E0C"/>
<rect x="170" y="152" width="3" height="8" fill="#4B1E0C"/>
<rect x="71" y="152" width="102" height="8" stroke="black" stroke-width="2"/>
<rect x="77" y="147" width="2" height="6" fill="black"/>
<rect x="93" y="147" width="2" height="6" fill="black"/>
<rect x="109" y="147" width="2" height="6" fill="black"/>
<rect x="125" y="147" width="2" height="6" fill="black"/>
<rect x="141" y="147" width="2" height="6" fill="black"/>
<rect x="157" y="147" width="2" height="6" fill="black"/>
<rect x="65" y="27" width="4" height="2" fill="black"/>
<defs>
<linearGradient id="paint0_linear_780_49638" x1="92.5" y1="24" x2="92.5" y2="160" gradientUnits="userSpaceOnUse">
<stop stop-color="#FF0000"/>
<stop offset="1" stop-color="#FF0000" stop-opacity="0"/>
</linearGradient>
<linearGradient id="paint1_linear_780_49638" x1="65.5" y1="24" x2="65.5" y2="40" gradientUnits="userSpaceOnUse">
<stop stop-color="#FF0000"/>
<stop offset="1" stop-color="#FF0000" stop-opacity="0"/>
</linearGradient>
<linearGradient id="paint2_linear_780_49638" x1="134.75" y1="80" x2="134.75" y2="160" gradientUnits="userSpaceOnUse">
<stop stop-color="#FF0000"/>
<stop offset="1" stop-color="#FF0000" stop-opacity="0"/>
</linearGradient>
<linearGradient id="paint3_linear_780_49638" x1="127.5" y1="76" x2="127.5" y2="120" gradientUnits="userSpaceOnUse">
<stop/>
<stop offset="1" stop-opacity="0"/>
</linearGradient>
<linearGradient id="paint4_linear_780_49638" x1="103" y1="100" x2="103" y2="132" gradientUnits="userSpaceOnUse">
<stop stop-color="#0075FF"/>
<stop offset="1" stop-color="#0075FF" stop-opacity="0"/>
</linearGradient>
<linearGradient id="paint5_linear_780_49638" x1="77.5" y1="176" x2="77.5" y2="192" gradientUnits="userSpaceOnUse">
<stop/>
<stop offset="1" stop-opacity="0"/>
</linearGradient>
<linearGradient id="paint6_linear_780_49638" x1="93.5" y1="176" x2="93.5" y2="192" gradientUnits="userSpaceOnUse">
<stop/>
<stop offset="1" stop-opacity="0"/>
</linearGradient>
<linearGradient id="paint7_linear_780_49638" x1="137.5" y1="176" x2="137.5" y2="192" gradientUnits="userSpaceOnUse">
<stop/>
<stop offset="1" stop-opacity="0"/>
</linearGradient>
<linearGradient id="paint8_linear_780_49638" x1="157.5" y1="176" x2="157.5" y2="192" gradientUnits="userSpaceOnUse">
<stop/>
<stop offset="1" stop-opacity="0"/>
</linearGradient>
<linearGradient id="paint9_linear_780_49638" x1="130" y1="64.5" x2="104" y2="64.5" gradientUnits="userSpaceOnUse">
<stop stop-color="#0075FF"/>
<stop offset="1" stop-color="#0075FF" stop-opacity="0"/>
</linearGradient>
<linearGradient id="paint10_linear_780_49638" x1="130" y1="37" x2="130" y2="140" gradientUnits="userSpaceOnUse">
<stop stop-color="#0075FF"/>
<stop offset="1" stop-color="#0085FF" stop-opacity="0"/>
<stop offset="1" stop-color="#0085FF"/>
</linearGradient>
<linearGradient id="paint11_linear_780_49638" x1="130" y1="37" x2="130" y2="140" gradientUnits="userSpaceOnUse">
<stop stop-color="#0075FF"/>
<stop offset="1" stop-color="#0085FF" stop-opacity="0"/>
<stop offset="1" stop-color="#0085FF"/>
</linearGradient>
<clipPath id="clip0_780_49638">
<rect width="62" height="56" fill="white" transform="translate(103 91)"/>
</clipPath>
<clipPath id="clip1_780_49638">
<rect width="62" height="56" fill="white" transform="translate(107 87)"/>
</clipPath>
</defs>
</svg>
