<svg width="240" height="197" viewBox="0 0 240 197" fill="none" xmlns="http://www.w3.org/2000/svg">
<path d="M131.919 68L126.378 79C157.5 105.5 158 163 158 163H101V68H131.919Z" fill="#6B6456" stroke="black" stroke-width="2"/>
<path d="M122 68V79C140.63 108.842 148.283 127.76 149 163H101V68H122Z" fill="url(#paint0_linear_992_22284)" stroke="black" stroke-width="2"/>
<path d="M76.4183 128.65L96.3369 117.15L97.3369 118.882L77.4183 130.382L76.4183 128.65Z" fill="url(#paint1_linear_992_22284)" stroke="black" stroke-width="2"/>
<path d="M108 85.3643L88.4725 85.2617L88.4725 101.635L103.401 101.723L108 85.3643Z" fill="url(#paint2_linear_992_22284)" stroke="black" stroke-width="2"/>
<path d="M100.979 99.0159L87.9794 99.016L87.9794 119.016L100.979 119.016L100.979 99.0159Z" fill="url(#paint3_linear_992_22284)" stroke="black" stroke-width="2"/>
<path d="M100.48 101.016L100.48 97.0156L93.9795 99.0156L87.9795 97.0156L87.9997 94.0156L84.9795 99.0156L87.9997 104.016L87.9795 101.016L93.9795 99.0156L100.48 101.016Z" fill="black"/>
<path d="M93.9795 99.0156L87.9795 101.016L87.9997 104.016L84.9795 99.0156L87.9997 94.0156L87.9795 97.0156L93.9795 99.0156ZM93.9795 99.0156L100.48 101.016L100.48 97.0156L93.9795 99.0156Z" stroke="black" stroke-width="2"/>
<path d="M87.4799 120.016L90.4798 125.516L93.9797 125.516L97.3841 119.027L90.4798 114.016L87.4799 120.016Z" fill="black" stroke="black" stroke-width="2"/>
<path d="M80.1816 136.742L72.1816 122.886" stroke="black" stroke-width="2"/>
<path d="M68.4541 127.743L83.9089 131.884" stroke="black" stroke-width="2"/>
<path d="M74.1113 137.541L78.2524 122.086" stroke="black" stroke-width="2"/>
<path d="M83.1094 125.813L69.253 133.813" stroke="black" stroke-width="2"/>
<rect width="8" height="8" transform="matrix(-0.965926 -0.258819 -0.258819 0.965926 81.0811 126.985)" fill="black"/>
<path d="M100.021 87.9998L95.9141 92.9999L83.3721 93C83.3721 82.9624 92.0002 74 100.02 74L100.021 87.9998Z" fill="url(#paint4_linear_992_22284)"/>
<path d="M81.0205 93L83.3721 93M83.3721 93L95.9141 92.9999L100.021 87.9998L100.02 74C92.0002 74 83.3721 82.9624 83.3721 93Z" stroke="black" stroke-width="2"/>
<path d="M94 90L94 93" stroke="black" stroke-width="2"/>
<path d="M88 90L88 93" stroke="black" stroke-width="2"/>
<path d="M82 90L82 94" stroke="black" stroke-width="2"/>
<path d="M123 176L133 176L133 170L132 155L119 155L123 170L123 176Z" fill="black"/>
<path d="M114 176L98 176L104 171L101 155L114 155L114 176Z" fill="black"/>
<path opacity="0.3" d="M123 176L133 176L133 182L132 197L119 197L123 182L123 176Z" fill="url(#paint5_linear_992_22284)"/>
<path opacity="0.3" d="M114 176L98 176L104 181L101 197L114 197L114 176Z" fill="url(#paint6_linear_992_22284)"/>
<path d="M133.915 160L130.078 113H111.153L117.868 160H133.915Z" fill="url(#paint7_linear_992_22284)" stroke="black" stroke-width="2"/>
<path d="M97 113L112 113L115 160L100 160L97 131V113Z" fill="url(#paint8_linear_992_22284)" stroke="black" stroke-width="2"/>
<path d="M114 145H107L103 149L98.9797 145L96 145" stroke="black" stroke-width="2"/>
<path d="M133 145L128 145L124 149L120 145L115 145" stroke="black" stroke-width="2"/>
<path d="M96.9907 82.9347L100 104L98 106L94 127H103.005L108 119L114 127H137L132 106L129 104L132 101V84C132 79.5817 128.418 76 124 76H113.01L108 80L103.005 76C99.3078 76 96.4678 79.2746 96.9907 82.9347Z" fill="url(#paint9_linear_992_22284)"/>
<path d="M121 104H100M121 104H129M121 104V109M100 104L96.9907 82.9347C96.4678 79.2746 99.3078 76 103.005 76V76L108 80L113.01 76H124C128.418 76 132 79.5817 132 84V101L129 104M100 104L98 106L94 127H103.005L108 119L114 127H137L132 106L129 104" stroke="black" stroke-width="2"/>
<path d="M102 86L102 76L96 76L96 86L102 86Z" fill="#6B6456"/>
<path d="M102 76L103 76L103 75L102 75L102 76ZM102 86L102 87L103 87L103 86L102 86ZM96 76L96 75L95 76L96 76ZM96 86L95 86L95 87L96 87L96 86ZM101 76L101 86L103 86L103 76L101 76ZM96 77L102 77L102 75L96 75L96 77ZM97 86L97 76L95 76L95 86L97 86ZM102 85L96 85L96 87L102 87L102 85Z" fill="black"/>
<circle cx="4" cy="4" r="4" transform="matrix(-1 0 0 1 102 83)" fill="#C1C1C1" stroke="black" stroke-width="2"/>
<path d="M108 80L108 120" stroke="black" stroke-width="2"/>
<path opacity="0.3" d="M138 144H93V127H103L108 119.5L114 127H138V144Z" fill="url(#paint10_linear_992_22284)"/>
<g style="mix-blend-mode:overlay" opacity="0.2">
<path d="M129 78L120 76V101H108V94H99L100 103H108V119L114 127H134L129 104V78Z" fill="black"/>
</g>
<g style="mix-blend-mode:overlay" opacity="0.5">
<rect width="2" height="14" transform="matrix(-1 0 0 1 111 82)" fill="black" fill-opacity="0.51"/>
</g>
<g style="mix-blend-mode:overlay" opacity="0.5">
<rect width="2" height="2" transform="matrix(-1 0 0 1 111 105)" fill="black" fill-opacity="0.51"/>
</g>
<path d="M130 93H146L147 101L144 112H130V93Z" fill="url(#paint11_linear_992_22284)" stroke="black" stroke-width="2"/>
<path d="M148 115V101L144 101V103C144 105.209 142.209 107 140 107H137V115H148Z" fill="url(#paint12_linear_992_22284)" stroke="black" stroke-width="2"/>
<path d="M127 74H129.309C140.132 74 148.906 82.5066 148.906 93L132.403 92.9999L127 92.9998L127 87.9998L127 74Z" fill="url(#paint13_linear_992_22284)"/>
<path d="M151 93H148.906M148.906 93L132.403 92.9999L127 92.9998L127 87.9998L127 74L129.309 74C140.132 74 148.906 82.5066 148.906 93Z" stroke="black" stroke-width="2"/>
<path d="M121 86L121 72L127 72L127 90L123 86L121 86Z" fill="#6B6456" stroke="black" stroke-width="2"/>
<circle cx="4.5" cy="4.5" r="4.5" transform="matrix(-1 0 0 1 130 82)" fill="url(#paint14_linear_992_22284)" stroke="black" stroke-width="2"/>
<path d="M150 90L150 93" stroke="black" stroke-width="2"/>
<path d="M145 90L145 93" stroke="black" stroke-width="2"/>
<path d="M139 90L139 93" stroke="black" stroke-width="2"/>
<path d="M133 90L133 93" stroke="black" stroke-width="2"/>
<path d="M127 90L127 94" stroke="black" stroke-width="2"/>
<path d="M118.586 88H107V122.382L122 129.882L137 122.382V88H125.414L122.707 90.7071L122 91.4142L121.293 90.7071L118.586 88Z" fill="url(#paint15_linear_992_22284)" stroke="black" stroke-width="2"/>
<path d="M122 98L122 117" stroke="black" stroke-opacity="0.23" stroke-width="2"/>
<path d="M122 90L122 96" stroke="black" stroke-width="2"/>
<path d="M122 119L122 131" stroke="black" stroke-opacity="0.23" stroke-width="2"/>
<path d="M128 107L116 107" stroke="black" stroke-opacity="0.23" stroke-width="2"/>
<path d="M138 107L130 107" stroke="black" stroke-opacity="0.23" stroke-width="2"/>
<path d="M135 89L135 91" stroke="black" stroke-width="2"/>
<path d="M109 89L109 91" stroke="black" stroke-width="2"/>
<path d="M114 107L106 107" stroke="black" stroke-opacity="0.23" stroke-width="2"/>
<path d="M120 63V71H118V77L122 80H113.5H105L105.02 65.5L107.5 63H120Z" fill="url(#paint16_linear_992_22284)" stroke="black" stroke-width="2"/>
<path d="M109 67V79" stroke="black" stroke-width="2"/>
<path d="M113 77L113 80" stroke="black" stroke-width="2"/>
<path d="M106 70L114 70" stroke="black" stroke-width="2"/>
<defs>
<linearGradient id="paint0_linear_992_22284" x1="122.5" y1="72" x2="122.5" y2="175" gradientUnits="userSpaceOnUse">
<stop/>
<stop offset="1" stop-color="#6B6555" stop-opacity="0.96"/>
</linearGradient>
<linearGradient id="paint1_linear_992_22284" x1="86.3776" y1="122.9" x2="87.3776" y2="124.632" gradientUnits="userSpaceOnUse">
<stop stop-color="#A3A3A3"/>
<stop offset="1" stop-color="#4D4E55"/>
</linearGradient>
<linearGradient id="paint2_linear_992_22284" x1="98.243" y1="85.1822" x2="97.9325" y2="101.812" gradientUnits="userSpaceOnUse">
<stop stop-color="#A3A3A3"/>
<stop offset="1" stop-color="#4D4E55"/>
</linearGradient>
<linearGradient id="paint3_linear_992_22284" x1="95.0144" y1="98.9045" x2="94.6365" y2="119.14" gradientUnits="userSpaceOnUse">
<stop stop-color="#A3A3A3"/>
<stop offset="1" stop-color="#4D4E55"/>
</linearGradient>
<linearGradient id="paint4_linear_992_22284" x1="90.5205" y1="74" x2="90.5205" y2="93" gradientUnits="userSpaceOnUse">
<stop stop-color="#A3A3A3"/>
<stop offset="1" stop-color="#4D4E55"/>
</linearGradient>
<linearGradient id="paint5_linear_992_22284" x1="126" y1="176" x2="126" y2="197" gradientUnits="userSpaceOnUse">
<stop/>
<stop offset="1" stop-opacity="0"/>
</linearGradient>
<linearGradient id="paint6_linear_992_22284" x1="106" y1="176" x2="106" y2="197" gradientUnits="userSpaceOnUse">
<stop/>
<stop offset="1" stop-opacity="0"/>
</linearGradient>
<linearGradient id="paint7_linear_992_22284" x1="122.5" y1="112" x2="122.5" y2="161" gradientUnits="userSpaceOnUse">
<stop stop-color="#A3A3A3"/>
<stop offset="1" stop-color="#4D4E55"/>
</linearGradient>
<linearGradient id="paint8_linear_992_22284" x1="106" y1="113" x2="106" y2="160" gradientUnits="userSpaceOnUse">
<stop stop-color="#A3A3A3"/>
<stop offset="1" stop-color="#4D4E55"/>
</linearGradient>
<linearGradient id="paint9_linear_992_22284" x1="115.5" y1="76" x2="115.5" y2="127" gradientUnits="userSpaceOnUse">
<stop stop-color="#A3A3A3"/>
<stop offset="1" stop-color="#4D4E55"/>
</linearGradient>
<linearGradient id="paint10_linear_992_22284" x1="117.5" y1="128" x2="117.5" y2="144" gradientUnits="userSpaceOnUse">
<stop/>
<stop offset="1" stop-opacity="0"/>
</linearGradient>
<linearGradient id="paint11_linear_992_22284" x1="138.5" y1="93" x2="138.5" y2="112" gradientUnits="userSpaceOnUse">
<stop stop-color="#A3A3A3"/>
<stop offset="1" stop-color="#4D4E55"/>
</linearGradient>
<linearGradient id="paint12_linear_992_22284" x1="142.5" y1="101" x2="142.5" y2="115" gradientUnits="userSpaceOnUse">
<stop stop-color="#A3A3A3"/>
<stop offset="1" stop-color="#4D4E55"/>
</linearGradient>
<linearGradient id="paint13_linear_992_22284" x1="139" y1="74" x2="139" y2="93" gradientUnits="userSpaceOnUse">
<stop stop-color="#C1C1C1"/>
<stop offset="1" stop-color="#C1C1C1"/>
</linearGradient>
<linearGradient id="paint14_linear_992_22284" x1="4.5" y1="0" x2="4.5" y2="9" gradientUnits="userSpaceOnUse">
<stop stop-color="#A3A3A3"/>
<stop offset="1" stop-color="#4D4E55"/>
</linearGradient>
<linearGradient id="paint15_linear_992_22284" x1="122" y1="87" x2="122" y2="131" gradientUnits="userSpaceOnUse">
<stop stop-color="#A3A3A3"/>
<stop offset="1" stop-color="#4D4E55"/>
</linearGradient>
<linearGradient id="paint16_linear_992_22284" x1="113.5" y1="63" x2="113.5" y2="80" gradientUnits="userSpaceOnUse">
<stop stop-color="#A3A3A3"/>
<stop offset="1" stop-color="#4D4E55"/>
</linearGradient>
</defs>
</svg>
