<svg width="240" height="192" viewBox="0 0 240 192" fill="none" xmlns="http://www.w3.org/2000/svg">
<rect x="133.183" y="53.7041" width="6" height="30" transform="rotate(12 133.183 53.7041)" fill="#825F5F" stroke="black" stroke-width="2"/>
<path d="M91 87H103V108H97L91 91.9998V87Z" fill="#3E3E3E" stroke="black" stroke-width="2"/>
<path d="M106 64H109.5V91H90V88L98 82.5L106 64Z" fill="#8E8471" stroke="black" stroke-width="2"/>
<path d="M107.5 64H137L156.5 135H151.5L155 152H108L107.5 64Z" fill="url(#paint0_linear_736_46314)" stroke="black" stroke-width="2"/>
<rect x="103" y="100" width="35" height="4" fill="#352C23" stroke="black" stroke-width="2"/>
<path d="M104 152H115V166L116 175H104V152Z" fill="url(#paint1_linear_736_46314)" stroke="black" stroke-width="2"/>
<path d="M125 152H135V166L136 175H125V165.5V152Z" fill="url(#paint2_linear_736_46314)" stroke="black" stroke-width="2"/>
<path d="M102 104H138L141 108L139.5 112.5L146 145.25H143.5L146 159H139V163H107V159H98L102 104Z" fill="#8E8471" stroke="black" stroke-width="2"/>
<path d="M102 104H126V157L124 163H107V159H98L102 104Z" fill="url(#paint3_linear_736_46314)" stroke="black" stroke-width="2"/>
<path d="M107 64H133V82H140V100H101L107 64Z" fill="#8E8471" stroke="black" stroke-width="2"/>
<path d="M106 72H115.5L133 64V82H140V100H101L106 72Z" fill="#D9D9D9" stroke="black" stroke-width="2"/>
<path d="M111 76H116V134.339L111 128.624V76Z" fill="#5E5E5E" stroke="black" stroke-width="2"/>
<path d="M114 149H109V126.661L114 132.376V149Z" fill="#5E5E5E" stroke="black" stroke-width="2"/>
<path d="M112 43H124L133 58L131 64H109V53.5L112 43Z" fill="#8A877D" stroke="black" stroke-width="2"/>
<path d="M112 43H118L120 45L125 59L121 64L111 66V64L107 59L109 52L112 43Z" fill="#D9D9D9"/>
<path d="M112 43H118L120 45L125 59L121 64L111 66V64L107 59L109 52L112 43Z" fill="black" fill-opacity="0.88"/>
<path d="M112 43H118L120 45L125 59L121 64L111 66V64L107 59L109 52L112 43Z" stroke="black" stroke-width="2"/>
<path d="M107 86H113V108L107 92V86Z" fill="#3E3E3E" stroke="black" stroke-width="2"/>
<path d="M112 43H113C117.418 43 121 46.5817 121 51V64H110V45L112 43Z" fill="#A99E83" stroke="black" stroke-width="2"/>
<rect x="110" y="55" width="12" height="9" fill="#393939" stroke="black" stroke-width="2"/>
<rect x="88" y="87" width="8" height="4" fill="#A99E83" stroke="black" stroke-width="2"/>
<path d="M92 172L102 169L104 165L111 169.762V175H92V172Z" fill="url(#paint4_linear_736_46314)" stroke="black" stroke-width="2"/>
<path d="M94 95H99V169L97 175H96L94 169V95Z" fill="url(#paint5_linear_736_46314)" stroke="black" stroke-width="2"/>
<rect x="83" y="91" width="29" height="4" fill="#3E3E3E" stroke="black" stroke-width="2"/>
<rect x="95" y="63" width="3" height="28" fill="black"/>
<rect x="94" y="61" width="5" height="2" fill="black"/>
<rect x="116" y="49" width="2" height="2" fill="black"/>
<rect x="115" y="56" width="2" height="2" fill="black"/>
<rect x="117" y="54" width="2" height="2" fill="#393939"/>
<rect opacity="0.3" x="113" y="52" width="2" height="2" fill="black"/>
<rect x="111" y="46" width="2" height="8" fill="#FFE5B3"/>
<rect opacity="0.7" x="120" y="50" width="2" height="4" fill="#A99E83"/>
<rect opacity="0.5" x="115" y="61" width="2" height="2" fill="black"/>
<rect x="111" y="44" width="2" height="2" fill="black"/>
<rect opacity="0.5" x="111" y="59" width="2" height="4" fill="black"/>
<path d="M105 86H109C111.209 86 113 87.7909 113 90V91H105V86Z" fill="#A99E83"/>
<path d="M105 86H109C111.209 86 113 87.7909 113 90V91H105V86Z" fill="black" fill-opacity="0.2"/>
<path d="M105 86H109C111.209 86 113 87.7909 113 90V91H105V86Z" stroke="black" stroke-width="2"/>
<path opacity="0.2" d="M106.5 107V124L117.5 135" stroke="black" stroke-width="2"/>
<path opacity="0.1" d="M124 108V117.5L118 123" stroke="black" stroke-width="2"/>
<path opacity="0.2" d="M134 105V111.5V122" stroke="black" stroke-width="2"/>
<path opacity="0.1" d="M129 108L124.5 143.5" stroke="black" stroke-width="2"/>
<path d="M112 93H140V108L130 116L112 124V93Z" fill="black" fill-opacity="0.2"/>
<path opacity="0.2" d="M139 159V154L135.5 131.5" stroke="black" stroke-width="2"/>
<path d="M113 86L120 85L127 80V76L132 64H137L144 85V95H142L131 104L113 112V86Z" fill="#8E8471" stroke="black" stroke-width="2"/>
<path d="M125 169H130L134 172V175H122V172L125 169Z" fill="url(#paint6_linear_736_46314)" stroke="black" stroke-width="2"/>
<rect x="87" y="87" width="8" height="8" fill="#A99E83" stroke="black" stroke-width="2"/>
<rect x="100" y="96" width="8" height="64" fill="black" fill-opacity="0.2"/>
<path d="M108 62H103V68L110 72H112.5L108 67V62Z" fill="#8A877D" stroke="black" stroke-width="2"/>
<path opacity="0.1" d="M131.5 98.5V93.5L138 80" stroke="black" stroke-width="2"/>
<rect x="112" y="69" width="2" height="6" fill="black"/>
<rect x="93" y="115" width="2" height="2" fill="#444950"/>
<rect x="98" y="115" width="2" height="2" fill="#43474E"/>
<path d="M95 94H98V102L96.5 106L95 102V94Z" fill="#3E3E3E"/>
<path d="M96 89L102.5 86H108V91H102.5L96 94.5V89Z" fill="#A99E83" stroke="black" stroke-width="2"/>
<rect x="129" y="144" width="2" height="19" fill="black"/>
<path d="M123 76L127 68H130L127 76V80L123 82.5V76Z" fill="#5A3931" stroke="black" stroke-width="2"/>
<path d="M128 62H139L141 68.0005H128L116.5 72L112.5 72.0005L128 64.5V62Z" fill="#8A877D" stroke="black" stroke-width="2"/>
<rect x="106" y="172" width="2" height="4" fill="black"/>
<rect x="102" y="172" width="2" height="4" fill="black"/>
<rect opacity="0.3" x="90" y="90" width="2" height="4" fill="black"/>
<path opacity="0.3" d="M91 176H117L116 184V192H104V184L101 181L91 180V176Z" fill="url(#paint7_linear_736_46314)"/>
<path opacity="0.3" d="M121 176H137L136 184V192H124V183L121 180V176Z" fill="url(#paint8_linear_736_46314)"/>
<rect x="111" y="49" width="2" height="2" fill="black"/>
<rect x="88" y="88" width="2" height="3" fill="#FFE5B3"/>
<defs>
<linearGradient id="paint0_linear_736_46314" x1="132" y1="64" x2="132" y2="152" gradientUnits="userSpaceOnUse">
<stop stop-color="#8A877D"/>
<stop offset="1" stop-color="#201F1D"/>
</linearGradient>
<linearGradient id="paint1_linear_736_46314" x1="110" y1="152" x2="110" y2="175" gradientUnits="userSpaceOnUse">
<stop stop-color="#AA5034"/>
<stop offset="1" stop-color="#6C604D"/>
</linearGradient>
<linearGradient id="paint2_linear_736_46314" x1="130.5" y1="152" x2="130.5" y2="175" gradientUnits="userSpaceOnUse">
<stop stop-color="#AA5034"/>
<stop offset="1" stop-color="#6C604D"/>
</linearGradient>
<linearGradient id="paint3_linear_736_46314" x1="123.5" y1="104" x2="123.5" y2="163" gradientUnits="userSpaceOnUse">
<stop stop-color="#D9D9D9"/>
<stop offset="1" stop-color="#DFDECE"/>
</linearGradient>
<linearGradient id="paint4_linear_736_46314" x1="101.5" y1="165" x2="101.5" y2="175" gradientUnits="userSpaceOnUse">
<stop stop-color="#AA5034"/>
<stop offset="1" stop-color="#6C604D"/>
</linearGradient>
<linearGradient id="paint5_linear_736_46314" x1="96.5" y1="95" x2="96.5" y2="175" gradientUnits="userSpaceOnUse">
<stop stop-color="#313131"/>
<stop offset="1" stop-color="#7689A5"/>
</linearGradient>
<linearGradient id="paint6_linear_736_46314" x1="128" y1="169" x2="128" y2="175" gradientUnits="userSpaceOnUse">
<stop stop-color="#AA5034"/>
<stop offset="1" stop-color="#6C604D"/>
</linearGradient>
<linearGradient id="paint7_linear_736_46314" x1="104" y1="176" x2="104" y2="192" gradientUnits="userSpaceOnUse">
<stop/>
<stop offset="1" stop-opacity="0"/>
</linearGradient>
<linearGradient id="paint8_linear_736_46314" x1="134" y1="176" x2="134" y2="192" gradientUnits="userSpaceOnUse">
<stop/>
<stop offset="1" stop-opacity="0"/>
</linearGradient>
</defs>
</svg>
