<svg width="240" height="192" viewBox="0 0 240 192" fill="none" xmlns="http://www.w3.org/2000/svg">
<rect x="154" y="38" width="2" height="59" fill="#E9D8AE"/>
<rect x="109" y="62" width="8" height="10" fill="#AA7F74" stroke="black" stroke-width="2"/>
<rect x="97" y="66" width="67" height="4" fill="#B3926B" stroke="black" stroke-width="2"/>
<path d="M175 60L164 64V72L175 76V60Z" stroke="black" stroke-width="2"/>
<path d="M155 36V38L156.474 44C161.857 50.113 164.502 56.948 163.843 65" stroke="black" stroke-width="2"/>
<path opacity="0.3" d="M111.5 176H129V182L130 192H120V184L118.5 181L114 180L108 183L111.5 176Z" fill="url(#paint0_linear_737_46795)"/>
<path opacity="0.3" d="M64 176H106V192H64V176Z" fill="url(#paint1_linear_737_46795)"/>
<path opacity="0.3" d="M135 176H149L148 184L149 192H139L140 181L137 184L135 176Z" fill="url(#paint2_linear_737_46795)"/>
<rect x="65" y="88" width="40" height="87" fill="#842B30" stroke="black" stroke-width="2"/>
<path d="M124.5 112H140.5L133 144H121L124.5 112Z" fill="#4F2638"/>
<path d="M124.5 112H140.5L133 144H121L124.5 112Z" fill="black" fill-opacity="0.55"/>
<path d="M124.5 112H140.5L133 144H121L124.5 112Z" stroke="black" stroke-width="2"/>
<path d="M132 112H149L150 122L148 125V144H136.5L132 127V112Z" fill="#4F2638" stroke="black" stroke-width="2"/>
<path d="M125 72H148L150 80V89L153 104H150V106H124L121 90.5L125 72Z" fill="#B7A899" stroke="black" stroke-width="2"/>
<path d="M125 72H140V106H124L121 90.5L125 72Z" fill="url(#paint3_linear_737_46795)" stroke="black" stroke-width="2"/>
<path d="M124 106H150V108L155 116L140 122H121V111.25L124 106Z" fill="#B7A899" stroke="black" stroke-width="2"/>
<path d="M125 104H142V118H121V111L125 104Z" fill="url(#paint4_linear_737_46795)" stroke="black" stroke-width="2"/>
<path d="M133 54H143V72H133V54Z" fill="#AA7F74" stroke="black" stroke-width="2"/>
<path d="M132 68H143V72H132V68Z" fill="#4D4D4D" stroke="black" stroke-width="2"/>
<path d="M137 52V59H129L121 54V52H137Z" fill="url(#paint5_linear_737_46795)"/>
<path d="M137 52V59H129L121 54V52H137Z" fill="black" fill-opacity="0.88"/>
<path d="M137 52V59H129L121 54V52H137Z" stroke="black" stroke-width="2"/>
<path d="M129 50H141V64L137 68H129V50Z" fill="#AA7F74" stroke="black" stroke-width="2"/>
<path d="M138 72H145C148.866 72 152 75.134 152 79V79V81L141 99H130V88L138 72Z" fill="#B7A899" stroke="black" stroke-width="2"/>
<path d="M138 72H145C148.866 72 152 75.134 152 79V79V82L147 99H144V94L135 86H131L138 72Z" fill="#716C6C" stroke="black" stroke-width="2"/>
<path d="M110 70H120L123 80.5L121.5 88H113.5L110 70Z" fill="#B7A899" stroke="black" stroke-width="2"/>
<rect x="101" y="86" width="8" height="7" fill="#AA7F74" stroke="black" stroke-width="2"/>
<rect width="4" height="7" transform="matrix(-1 0 0 1 113 88)" fill="#AA7F74" stroke="black" stroke-width="2"/>
<path d="M121 143H131V153L128 169V175H121V143Z" fill="#4F2638"/>
<path d="M121 143H131V153L128 169V175H121V143Z" fill="black" fill-opacity="0.55"/>
<path d="M121 143H131V153L128 169V175H121V143Z" stroke="black" stroke-width="2"/>
<path d="M137 144H147L149 152L147 168L148 175H141V170L137 144Z" fill="#4F2638" stroke="black" stroke-width="2"/>
<path d="M73 84H85V96H77L73 84Z" fill="#842B30" stroke="black" stroke-width="2"/>
<path d="M136 37H138L144 47V54H130V47L136 37Z" fill="url(#paint6_linear_737_46795)" stroke="black" stroke-width="2"/>
<path d="M109 169.5L113.5 172L119 170L121 167L128 169V172V175H112L109 169.5Z" fill="#4F2638"/>
<path d="M109 169.5L113.5 172L119 170L121 167L128 169V172V175H112L109 169.5Z" fill="black" fill-opacity="0.55"/>
<path d="M109 169.5L113.5 172L119 170L121 167L128 169V172V175H112L109 169.5Z" stroke="black" stroke-width="2"/>
<path d="M137 167L143.5 171H147L148 175H136L137 167Z" fill="#4F2638" stroke="black" stroke-width="2"/>
<path d="M112 88H130L133 92V99H126L112 97V88Z" fill="#B7A899" stroke="black" stroke-width="2"/>
<rect x="125" y="105" width="3" height="2" fill="#BF871A"/>
<rect x="136" y="80" width="2" height="2" fill="#D9D9D9"/>
<rect x="138" y="82" width="2" height="2" fill="#D9D9D9"/>
<rect x="140" y="80" width="2" height="2" fill="#D9D9D9"/>
<rect x="142" y="82" width="2" height="2" fill="#D9D9D9"/>
<rect opacity="0.4" x="140" y="84" width="2" height="2" fill="#D9D9D9"/>
<rect opacity="0.4" x="142" y="86" width="2" height="2" fill="#D9D9D9"/>
<rect opacity="0.4" x="144" y="84" width="2" height="2" fill="#D9D9D9"/>
<rect opacity="0.4" x="146" y="86" width="2" height="2" fill="#D9D9D9"/>
<rect opacity="0.4" x="140" y="76" width="2" height="2" fill="#444444"/>
<rect opacity="0.4" x="142" y="78" width="2" height="2" fill="#444444"/>
<rect opacity="0.4" x="144" y="76" width="2" height="2" fill="#444444"/>
<rect opacity="0.4" x="146" y="78" width="2" height="2" fill="#444444"/>
<rect x="138" y="142" width="8" height="3" fill="#4F2638"/>
<rect x="122" y="140" width="7" height="5" fill="#241119"/>
<path d="M152.5 109L145 116H134L128 112M128 112L127 148M128 112L123 107V106H129H135M151 106H135M135 106V100M134 72H141.5" stroke="#BF2C37" stroke-width="2"/>
<path opacity="0.5" d="M139 135V139L143 143V147" stroke="black" stroke-width="2"/>
<path d="M155 100V98L156.474 92C161.857 85.887 164.502 79.052 163.843 71" stroke="black" stroke-width="2"/>
<path d="M139.946 115.224L136.292 116.851L152.155 152.479L155.609 155.32L157.436 154.506L139.946 115.224Z" fill="#8C4A4A" stroke="black" stroke-width="2"/>
<rect width="4" height="4" transform="matrix(-0.913545 0.406737 0.406737 0.913545 138.319 111.57)" fill="#B6821C" stroke="black" stroke-width="2"/>
<rect opacity="0.3" width="4" height="4" transform="matrix(-0.913545 0.406737 0.406737 0.913545 144.827 126.187)" stroke="black" stroke-width="2"/>
<rect x="129.69" y="114.317" width="14" height="2" transform="rotate(-24 129.69 114.317)" fill="black"/>
<rect x="141.467" y="111.264" width="2" height="2" transform="rotate(-24 141.467 111.264)" fill="black"/>
<rect x="127.656" y="109.749" width="2" height="5" transform="rotate(-24 127.656 109.749)" fill="black"/>
<rect x="129.478" y="99.0869" width="2" height="14" transform="rotate(-24 129.478 99.0869)" fill="black"/>
<rect x="144" y="105" width="2" height="2" fill="#BF871A"/>
<rect x="146" y="105" width="2" height="2" fill="#594A2D"/>
<rect x="129" y="60" width="2" height="3" fill="#C6A389"/>
<rect opacity="0.4" x="130" y="64" width="2" height="2" fill="black"/>
<rect x="116" y="67" width="2" height="2" fill="black"/>
<rect opacity="0.5" x="114" y="67" width="2" height="2" fill="black"/>
<rect opacity="0.1" x="111" y="71" width="10" height="5" fill="black"/>
<path opacity="0.4" d="M130 56H141V63H135.5L130 59V56Z" fill="black"/>
<path opacity="0.4" d="M128 100H146V107H136L128 103V100Z" fill="black"/>
<rect opacity="0.5" x="114" y="63" width="2" height="2" fill="black"/>
<rect x="118" y="63" width="2" height="2" fill="black"/>
<rect x="133" y="58" width="2" height="2" fill="black"/>
<rect x="129" y="58" width="2" height="2" fill="black"/>
<rect x="127" y="60" width="2" height="3" fill="black"/>
<path d="M129 50L137 54H145L153 58V59H137L121 51V50H129Z" fill="url(#paint7_linear_737_46795)" stroke="black" stroke-width="2"/>
<rect x="69" y="96" width="28" height="71" fill="#101014" stroke="#E1CC5E" stroke-width="2"/>
<rect x="69" y="152" width="28" height="15" fill="#004A92" stroke="#E1CC5E" stroke-width="2"/>
<path d="M74 130H83L85 143H73L74 130Z" fill="#C98D08" stroke="#7C1600" stroke-width="2"/>
<path d="M73 118V115H85V118L83 121L85 128V130H73V128L75 121L73 118Z" fill="#C98D08" stroke="#7C1600" stroke-width="2"/>
<rect x="83" y="89" width="6" height="6" fill="#842B30"/>
<path d="M98 133V133C94.6863 133 92 130.314 92 127V127" stroke="#3E3E3E" stroke-width="2"/>
<path d="M98 140H95C90.5817 140 87 136.418 87 132V131" stroke="#3E3E3E" stroke-width="2"/>
<path d="M98 133V133C94.6863 133 92 135.686 92 139V139" stroke="#3E3E3E" stroke-width="2"/>
<path d="M98 115V115C94.6863 115 92 117.686 92 121V121" stroke="#3E3E3E" stroke-width="2"/>
<path d="M98 96V96C94.6863 96 92 98.6863 92 102V102" stroke="#3E3E3E" stroke-width="2"/>
<path d="M98 109V109C94.6863 109 92 111.686 92 115V121" stroke="#3E3E3E" stroke-width="2"/>
<path d="M98 96H89C84.5817 96 81 99.5817 81 104V104" stroke="#3E3E3E" stroke-width="2"/>
<rect x="91" y="123" width="2" height="2" fill="#D9D9D9"/>
<rect x="91" y="104" width="2" height="2" fill="#D9D9D9"/>
<rect x="91" y="143" width="2" height="2" fill="#D9D9D9"/>
<rect x="86" y="143" width="2" height="2" fill="#D9D9D9"/>
<rect opacity="0.3" x="100" y="156" width="2" height="14" fill="#EBB4F9"/>
<rect opacity="0.2" x="100" y="139" width="2" height="13" fill="#EBB4F9"/>
<rect x="91" y="170" width="11" height="2" fill="#A3546C"/>
<rect opacity="0.2" x="77" y="170" width="10" height="2" fill="#EBB4F9"/>
<rect opacity="0.2" x="68" y="170" width="6" height="2" fill="#EBB4F9"/>
<rect opacity="0.1" x="100" y="123" width="2" height="13" fill="#EBB4F9"/>
<rect opacity="0.3" x="100" y="107" width="2" height="13" fill="#EBB4F9"/>
<rect opacity="0.3" x="100" y="94" width="2" height="10" fill="#EBB4F9"/>
<rect opacity="0.3" x="92" y="91" width="8" height="2" fill="#EBB4F9"/>
<rect opacity="0.3" x="81" y="91" width="8" height="2" fill="#EBB4F9"/>
<rect opacity="0.3" x="68" y="91" width="6" height="2" fill="#EBB4F9"/>
<rect x="70" y="96" width="18" height="18" rx="9" fill="#181818" stroke="#E1CC5E" stroke-width="2"/>
<rect x="77" y="108" width="4" height="7" fill="#E1CC5E" stroke="#7C1600" stroke-width="2"/>
<rect x="84" y="115" width="4" height="15" fill="#C98D08" stroke="#7C1600" stroke-width="2"/>
<rect x="69" y="115" width="4" height="15" fill="#C98D08" stroke="#7C1600" stroke-width="2"/>
<rect x="75" y="143" width="4" height="9" fill="#C98D08" stroke="#7C1600" stroke-width="2"/>
<rect x="75" y="139" width="4" height="4" fill="#C98D08" stroke="#7C1600" stroke-width="2"/>
<rect x="79" y="143" width="4" height="9" fill="#C98D08" stroke="#7C1600" stroke-width="2"/>
<rect x="79" y="139" width="4" height="4" fill="#C98D08" stroke="#7C1600" stroke-width="2"/>
<rect opacity="0.3" x="70" y="155" width="6" height="2" fill="#D9D9D9"/>
<rect opacity="0.3" x="82" y="155" width="6" height="2" fill="#D9D9D9"/>
<rect opacity="0.3" x="88" y="157" width="6" height="2" fill="#D9D9D9"/>
<rect opacity="0.3" x="94" y="155" width="2" height="2" fill="#D9D9D9"/>
<rect opacity="0.3" x="94" y="159" width="2" height="2" fill="#D9D9D9"/>
<rect opacity="0.3" x="76" y="157" width="6" height="2" fill="#D9D9D9"/>
<rect opacity="0.3" x="70" y="159" width="6" height="2" fill="#D9D9D9"/>
<rect opacity="0.3" x="82" y="159" width="6" height="2" fill="#D9D9D9"/>
<rect x="141" y="97" width="4" height="3" fill="black"/>
<path d="M98 147H97C93.6863 147 91 149.686 91 153V153" stroke="#3E3E3E" stroke-width="2"/>
<rect x="156" y="36" width="2" height="2" fill="black"/>
<rect x="156" y="98" width="2" height="2" fill="black"/>
<defs>
<linearGradient id="paint0_linear_737_46795" x1="119" y1="176" x2="119" y2="192" gradientUnits="userSpaceOnUse">
<stop/>
<stop offset="1" stop-opacity="0"/>
</linearGradient>
<linearGradient id="paint1_linear_737_46795" x1="75" y1="176" x2="75" y2="192" gradientUnits="userSpaceOnUse">
<stop/>
<stop offset="1" stop-opacity="0"/>
</linearGradient>
<linearGradient id="paint2_linear_737_46795" x1="149" y1="176" x2="149" y2="192" gradientUnits="userSpaceOnUse">
<stop/>
<stop offset="1" stop-opacity="0"/>
</linearGradient>
<linearGradient id="paint3_linear_737_46795" x1="131" y1="72" x2="131" y2="106" gradientUnits="userSpaceOnUse">
<stop stop-color="#A7BACC"/>
<stop offset="1" stop-color="#595B5D"/>
</linearGradient>
<linearGradient id="paint4_linear_737_46795" x1="131" y1="84" x2="131" y2="118" gradientUnits="userSpaceOnUse">
<stop stop-color="#A7BACC"/>
<stop offset="1" stop-color="#595B5D"/>
</linearGradient>
<linearGradient id="paint5_linear_737_46795" x1="137" y1="47" x2="137" y2="59" gradientUnits="userSpaceOnUse">
<stop stop-color="#A7BACC"/>
<stop offset="1" stop-color="#595B5D"/>
</linearGradient>
<linearGradient id="paint6_linear_737_46795" x1="137" y1="37" x2="137" y2="53" gradientUnits="userSpaceOnUse">
<stop stop-color="#A7BACC"/>
<stop offset="1" stop-color="#595B5D"/>
</linearGradient>
<linearGradient id="paint7_linear_737_46795" x1="137" y1="51" x2="137" y2="63" gradientUnits="userSpaceOnUse">
<stop stop-color="#A7BACC"/>
<stop offset="1" stop-color="#595B5D"/>
</linearGradient>
</defs>
</svg>
