<svg width="240" height="204" viewBox="0 0 240 204" fill="none" xmlns="http://www.w3.org/2000/svg">
<path d="M52.6953 98.0156L50.3203 95.6406L47.9453 98.0156L50.3203 100.391L52.6953 98.0156Z" stroke="white" stroke-width="2"/>
<path d="M212.695 98.0156L210.32 95.6406L207.945 98.0156L210.32 100.391L212.695 98.0156Z" stroke="white" stroke-width="2"/>
<path d="M113.195 42.2656V39.3906L107.32 34.0156L92.8198 29.6406L80.4448 22.0156L81.3198 28.0156L86.3198 32.0156L80.4448 30.2656L62.3198 25.1406L29.4995 11L50.3198 25.7656L56.4448 29.6406L61.3198 34.0156L63.8198 36.0156L60.4448 35.3906L30.9995 26.8906L50.3198 43.3906L57.3198 46.6406L33.4995 44.0156L50.3198 55.0156L39.9995 60.8906L50.3198 68.7656L55.9448 68.0156L57.3198 69.6406H60.4448L63.8198 71.3906L56.4448 78.0156L64.5698 77.2656L70.3198 74.8906L73.5698 76.0156V78.0156L72.1948 79.0156H78.3198V86.6406L91.5698 92.7656L94.3198 88.0156L146.32 85.6406L147.82 94.7656L152.445 100.016L160.57 97.8906L162.32 98.7656L175.32 106.5L174.32 97.8906L188.32 100.016L182.32 90.3906L188.945 92.0156L195.195 89.3906L194.32 87.2656L198.32 86.3906L206.32 81.3906H210.32H224L210.32 62.3906L218 56.8906L210.32 49.2656L231.5 37.6406L210.32 24.0156L219.5 16L194.32 24.0156L174.32 24.8906L167.07 28.0156L156.695 41.0156L124.57 48.0156L113.195 42.2656Z" fill="#FAEFC9"/>
<path d="M92.8198 29.6406L107.32 34.0156L113.195 39.3906V42.2656L124.57 48.0156L156.695 41.0156L167.07 28.0156L174.32 24.8906L194.32 24.0156L219.5 16L210.32 24.0156M92.8198 29.6406L80.4448 22.0156L81.3198 28.0156L86.3198 32.0156L80.4448 30.2656L62.3198 25.1406L29.4995 11L50.3198 25.7656L56.4448 29.6406L61.3198 34.0156L63.8198 36.0156M92.8198 29.6406L90.9448 32.0156L103.195 36.0156L92.8198 34.6406V38.3906M63.8198 36.0156L60.4448 35.3906L30.9995 26.8906L50.3198 43.3906L57.3198 46.6406M63.8198 36.0156L72.1948 41.0156M57.3198 46.6406L66.0698 48.0156L77.3198 47.3906M57.3198 46.6406L33.4995 44.0156L50.3198 55.0156M50.3198 55.0156L56.4448 56.8906H70.3198L81.3198 52.0156M50.3198 55.0156L39.9995 60.8906M39.9995 60.8906L57.3198 65.2656H67.9448L92.8198 55.0156M39.9995 60.8906L50.3198 68.7656L55.9448 68.0156L57.3198 69.6406H60.4448L63.8198 71.3906M92.8198 55.0156L91.5698 61.6406M92.8198 55.0156L82.3198 56.0156L92.0698 52.0156M63.8198 71.3906L69.0698 72.0156L81.3198 65.2656M63.8198 71.3906L56.4448 78.0156L64.5698 77.2656L70.3198 74.8906L73.5698 76.0156M73.5698 76.0156L84.5698 69.6406L91.5698 61.6406M73.5698 76.0156V78.0156L72.1948 79.0156H78.3198V86.6406L91.5698 92.7656L94.3198 88.0156L146.32 85.6406L147.82 94.7656L152.445 100.016L160.57 97.8906M91.5698 61.6406L105.07 50.5156L104.32 47.3906L98.3198 48.6406M160.57 97.8906L158.32 88.6406L150.32 72.0156L152.445 68.0156M160.57 97.8906L162.32 98.7656L175.32 106.5L174.32 97.8906M174.32 97.8906C172.736 96.0156 169.52 92.2156 169.32 92.0156C169.12 91.8156 166.736 87.6823 165.57 85.6406L157.57 65.1406L176.07 82.6406L182.32 90.3906M174.32 97.8906L188.32 100.016L182.32 90.3906M182.32 90.3906L188.945 92.0156L195.195 89.3906L194.32 87.2656L198.32 86.3906L206.32 81.3906M206.32 81.3906L184.695 65.1406L178.32 60.8906L174.32 55.3906L186.32 57.8906M206.32 81.3906H210.32H224M224 81.3906L186.32 57.8906M224 81.3906L210.32 62.3906M186.32 57.8906L179.57 51.0156M210.32 62.3906L193.445 54.2656L190.32 52.0156M210.32 62.3906L218 56.8906M218 56.8906L204.195 51.0156H199.82V52.0156H190.32M218 56.8906L210.32 49.2656L231.5 37.6406M190.32 52.0156L179.57 51.0156M179.57 51.0156L170.32 48.0156V40.0156L175.32 41.0156M179.57 51.0156L178.32 43.1406M92.8198 38.3906L96.0698 42.2656C93.0282 41.849 86.8198 41.1406 86.3198 41.6406C86.0732 41.8873 84.5593 42.8739 82.7534 44.0156M92.8198 38.3906H82.3198L72.1948 41.0156M77.3198 47.3906L84.5698 48.0156M77.3198 47.3906C78.7345 46.5249 80.8981 45.1885 82.7534 44.0156M84.5698 48.0156L94.3198 44.6406L98.3198 48.6406M84.5698 48.0156L81.3198 52.0156M98.3198 48.6406L92.0698 52.0156M92.0698 52.0156H81.3198M82.7534 44.0156L72.1948 41.0156M210.32 24.0156L204.195 26.8906H199.82V24.0156L195.195 25.8906L197.195 26.8906L188.945 28.0156M210.32 24.0156L231.5 37.6406M188.945 28.0156L194.32 29.3906C192.486 30.349 188.97 32.2156 189.57 32.0156M188.945 28.0156L182.32 29.3906L184.695 32.0156M189.57 32.0156C190.17 31.8156 194.07 31.9323 195.945 32.0156L193.634 36.0156M189.57 32.0156H184.695M181.195 37.6406H192.695L193.634 36.0156M181.195 37.6406C180.445 36.4323 179.07 34.0156 179.57 34.0156C180.07 34.0156 183.195 32.6823 184.695 32.0156M181.195 37.6406L188.32 41.0156M181.195 37.6406L172.82 36.0156L175.32 41.0156M188.32 41.0156L178.32 43.1406M188.32 41.0156L193.445 46.0156L204.195 45.0156L197.195 41.0156H188.32ZM178.32 43.1406L175.32 41.0156M231.5 37.6406H202.32M231.5 37.6406L209.57 42.2656L202.32 37.6406M202.32 37.6406L193.634 36.0156" stroke="black" stroke-width="2"/>
<path d="M146.32 34.2656L138.32 40.0156L130.32 41.3906L123.82 40.0156L121 38V35H123V30L122 25L126.054 21H137V27L146.32 34.2656Z" fill="#DBA16D" stroke="black" stroke-width="2"/>
<path d="M133 36L127 24H125L123 31V39H128L133 36Z" fill="black" fill-opacity="0.6" stroke="black" stroke-width="2"/>
<path fill-rule="evenodd" clip-rule="evenodd" d="M146.32 40.0156L140.458 38.9855L139.445 39.3906L130.32 41.5156L123.945 40.0156H121.57L116.945 43.1406L106.945 52.0156L105.57 58.0156L105.896 59.2656L106.32 60.8906V65.623L111.195 61.8906L122.945 63.3906L127.82 66.2656L134.945 63.3906H143.57L145.82 63.4469L146.07 63.4531L145.82 61.8906V57.3906L152.32 59.2656L155.07 55.3906L153.695 52.8906L155.07 52.0156L157.195 52.8906L163.07 52.0156L166.32 56.0156L169.32 53.6406L167.82 52.8906V49.0156L158.32 45.0156L148.945 48.0156L146.32 46.1406V40.0156ZM103.195 76.9531V74.9531L95.9448 86.1406L93.4448 94.8906L88.0698 105.016L80.5698 111.016L66.3198 120.641H69.5698V121.641L81.6948 118.141L84.1948 118.891L50.8198 160.016H81.6948L75.3198 188.016H165.445L162.32 167.766H189.82L159.882 120.016L169.32 117.141V116.016L148.07 94.8906L147.32 87.6406L143.57 76.4531L136.757 75.3281L128.695 70.8906H122.945L121.57 76.9531L108.695 82.7656L103.195 76.9531ZM75.6948 90.1406L84.1948 93.6406V96.0156L82.9448 100.016L82.3198 106.891H80.5698L79.4448 102.641V98.8906L74.3198 102.641L69.5698 105.641H66.3198L71.3198 98.8906L68.6948 100.016L64.6948 104.016L62.8198 101.891L64.6948 100.016L67.3198 96.0156L72.6948 93.6406L75.6948 90.1406ZM178.32 61.8906L175.32 64.0156L164.57 72.0156L167.195 71.5781V76.4531L176.507 79.0156L181.507 78.0781L183.945 81.2656L184.945 85.4531L188.945 87.4531L187.457 80.8732L191.07 82.7656L188.945 78.0781V74.9531L186.32 73.8281L183.945 72.0156L187.695 73.4531H189.82L190.32 72.0156L187.695 70.1406L185.445 68.0156H179.82V66.2656H182.32L186.32 64.5156V60.8906L182.32 61.8906H178.32Z" fill="#FFCF72"/>
<path d="M145.82 66.2656L143.57 70.0781L136.757 75.3281L128.695 70.8906H122.945L121.57 76.9531L108.695 82.7656L103.195 76.9531V74.9531V73.8281L102.32 74.3906L103.195 68.0156L106.32 65.623L111.195 61.8906L122.945 63.3906L127.82 66.2656L134.945 63.3906H143.57L145.82 63.4469V66.2656Z" fill="#FFCF72"/>
<path d="M166.32 56.0156L175.32 64.0156L164.57 72.0156L167.195 71.5781V76.4531L164.57 77.7656L161.07 78.0781L156.57 76.9531L162.32 74.3906L155.945 71.5781L155.445 68.8906C154.495 65.7906 155.049 62.2656 155.445 60.8906C156.153 59.7656 158.032 57.2156 159.882 56.0156C161.732 54.8156 164.945 55.5156 166.32 56.0156Z" fill="#FFCF72"/>
<path d="M155.445 68.8906H150.757L146.32 65.0156L146.07 63.4531L145.82 61.8906V57.3906L152.32 59.2656L155.07 55.3906L153.695 52.8906L155.07 52.0156L157.195 52.8906L163.07 52.0156L166.32 56.0156C164.945 55.5156 161.732 54.8156 159.882 56.0156C158.032 57.2156 156.153 59.7656 155.445 60.8906C155.049 62.2656 154.495 65.7906 155.445 68.8906Z" fill="#FFCF72"/>
<path d="M99.5698 74.3906L92.6948 89.7656L90.3198 90.1406L87.3198 93.6406H84.1948L75.6948 90.1406L74.3198 89.7656L81.6948 84.0156L87.3198 77.7656L86.3198 76.4531L90.9448 71.5781L96.8198 67.2656V68.8906L99.5698 74.3906Z" fill="#FFCF72"/>
<path d="M103.195 74.9531L97.5698 82.2656L99.5698 74.3906L96.8198 68.8906L101.07 65.0156L106.32 60.8906V65.623L103.195 68.0156L102.32 74.3906L103.195 73.8281V74.9531Z" fill="#FFCF72"/>
<path d="M101.07 65.0156L99.5698 64.0156L101.07 53.6406L103.195 52.8906L106.32 49.8906L107.57 46.1406L111.195 41.5156H114.32L116.945 43.1406L106.945 52.0156L105.57 58.0156L105.896 59.2656L106.32 60.8906L101.07 65.0156Z" fill="#FFCF72"/>
<path d="M144.445 37.3906L148.945 35.2656L153.695 36.0156V39.3906H155.07L159.445 42.2656H162.32L167.82 49.0156L158.32 45.0156L148.945 48.0156L146.32 46.1406V40.0156L140.458 38.9855L144.445 37.3906Z" fill="#FFCF72"/>
<path d="M167.82 49.0156L162.32 42.2656H159.445L155.07 39.3906H153.695V36.0156L148.945 35.2656L144.445 37.3906L140.458 38.9855M167.82 49.0156V52.8906L169.32 53.6406L166.32 56.0156M167.82 49.0156L158.32 45.0156L148.945 48.0156L146.32 46.1406V40.0156L140.458 38.9855M166.32 56.0156L175.32 64.0156M166.32 56.0156C164.945 55.5156 161.732 54.8156 159.882 56.0156C158.032 57.2156 156.153 59.7656 155.445 60.8906C155.049 62.2656 154.495 65.7906 155.445 68.8906M166.32 56.0156L163.07 52.0156L157.195 52.8906L155.07 52.0156L153.695 52.8906L155.07 55.3906L152.32 59.2656L145.82 57.3906M175.32 64.0156L178.32 61.8906H182.32L186.32 60.8906V64.5156L182.32 66.2656H179.82V68.0156H185.445L187.695 70.1406L190.32 72.0156L189.82 73.4531H187.695L183.945 72.0156M175.32 64.0156L164.57 72.0156L167.195 71.5781V76.4531M183.945 72.0156L179.32 71.5781M183.945 72.0156L186.32 73.8281L188.945 74.9531V78.0781L191.07 82.7656L187.457 80.8732M181.195 74.9531L184.945 76.9531L185.82 80.0156L187.457 80.8732M187.457 80.8732L188.945 87.4531L184.945 85.4531L183.945 81.2656L181.507 78.0781L176.507 79.0156L167.195 76.4531M167.195 76.4531L164.57 77.7656L161.07 78.0781L156.57 76.9531L162.32 74.3906L155.945 71.5781L155.445 68.8906M155.445 68.8906H150.757L146.32 65.0156L146.07 63.4531M145.82 61.8906V57.3906M145.82 61.8906L146.07 63.4531M145.82 61.8906V63.4469M136.757 75.3281L143.57 70.0781L145.82 66.2656V63.4469M136.757 75.3281L143.57 76.4531L147.32 87.6406L148.07 94.8906L169.32 116.016V117.141L159.882 120.016L189.82 167.766H162.32L165.445 188.016H75.3198L81.6948 160.016H50.8198L84.1948 118.891L81.6948 118.141L69.5698 121.641V120.641H66.3198L80.5698 111.016L88.0698 105.016L93.4448 94.8906L95.9448 86.1406L103.195 74.9531M136.757 75.3281L128.695 70.8906H122.945L121.57 76.9531L108.695 82.7656L103.195 76.9531M103.195 74.9531L97.5698 82.2656L99.5698 74.3906M103.195 74.9531V73.8281M103.195 74.9531V76.9531M99.5698 74.3906L92.6948 89.7656L90.3198 90.1406L87.3198 93.6406H84.1948M99.5698 74.3906L96.8198 68.8906M84.1948 93.6406V96.0156L82.9448 100.016L82.3198 106.891H80.5698L79.4448 102.641V98.8906L74.3198 102.641L69.5698 105.641H66.3198L71.3198 98.8906L68.6948 100.016L64.6948 104.016L62.8198 101.891L64.6948 100.016L67.3198 96.0156L72.6948 93.6406L75.6948 90.1406M84.1948 93.6406L75.6948 90.1406M75.6948 90.1406L74.3198 89.7656L81.6948 84.0156L87.3198 77.7656L86.3198 76.4531L90.9448 71.5781L96.8198 67.2656V68.8906M96.8198 68.8906L101.07 65.0156M101.07 65.0156L99.5698 64.0156L101.07 53.6406L103.195 52.8906L106.32 49.8906L107.57 46.1406L111.195 41.5156H114.32L116.945 43.1406M101.07 65.0156L106.32 60.8906M116.945 43.1406L121.57 40.0156H123.945L130.32 41.5156L139.445 39.3906L140.458 38.9855M116.945 43.1406L106.945 52.0156L105.57 58.0156L105.896 59.2656M145.82 57.3906L141.57 54.5156L142.32 49.0156L134.32 44.0156L124.82 46.8906L118.32 45.0156L110.32 51.0156V54.5156M122.945 63.3906L130.945 57.3906L142.32 58.0156L141.57 55.3906L133.32 52.0156H128.632M122.945 63.3906L127.82 66.2656L134.945 63.3906H143.57L145.82 63.4469M122.945 63.3906L111.195 61.8906L106.32 65.623M146.07 63.4531L145.82 63.4469M103.195 76.9531V73.8281M103.195 73.8281L102.32 74.3906L103.195 68.0156L106.32 65.623M106.32 65.623V60.8906M106.32 60.8906L105.896 59.2656M110.32 54.5156L112.945 56.0156L118.32 52.8906L123.945 52.0156H128.632M110.32 54.5156L105.896 59.2656M105.896 59.2656L111.945 60.0156L128.632 52.0156" stroke="black" stroke-width="2"/>
<path fill-rule="evenodd" clip-rule="evenodd" d="M146.32 40.0156L140.458 38.9855L139.445 39.3906L130.32 41.5156L127 39H122L116.945 43.1406L106.945 52.0156L105.57 58.0156L105.896 59.2656L106.32 60.8906V65.623L108.757 63.7568L111.195 61.8906L113.821 62.2258L116.446 62.561L119.005 62.8877L121.57 63.2151L122.945 63.3906L127.82 66.2656L134.945 63.3906H143.57L145.82 63.4469L146.07 63.4531L145.82 61.8906V57.3906L152.32 59.2656L155.07 55.3906L153.695 52.8906L155.07 52.0156L157.195 52.8906L163.07 52.0156L166.32 56.0156L169.32 53.6406L167.82 52.8906V49.0156L158.32 45.0156L148.945 48.0156L146.32 46.1406V40.0156ZM103.195 76.9531V74.9531L95.9448 86.1406L93.4448 94.8906L88.0698 105.016L80.5698 111.016L66.3198 120.641H69.5698V121.641L81.6948 118.141L84.1948 118.891L50.8198 160.016H81.6948L75.3198 188.016H165.445L162.32 167.766H189.82L159.882 120.016L169.32 117.141V116.016L148.07 94.8906L147.32 87.6406L141.57 76.0156L133.32 74.9531L128.695 70.8906H122.945L121.57 76.9531L108.695 82.7656L103.195 76.9531ZM75.6948 90.1406L84.1948 93.6406V96.0156L82.9448 100.016L82.3198 106.891H80.5698L79.4448 102.641V98.8906L74.3198 102.641L69.5698 105.641H66.3198L71.3198 98.8906L68.6948 100.016L64.6948 104.016L62.8198 101.891L64.6948 100.016L67.3198 96.0156L72.6948 93.6406L75.6948 90.1406ZM178.32 61.8906L175.32 64.0156L164.57 72.0156L167.195 71.5781V76.4531L176.507 79.0156L181.507 78.0781L183.945 81.2656L184.945 85.4531L188.945 87.4531L187.457 80.8732L191.07 82.7656L188.945 78.0781V74.9531L186.32 73.8281L183.945 72.0156L187.695 73.4531H189.82L190.32 72.0156L187.695 70.1406L185.445 68.0156H179.82V66.2656H182.32L186.32 64.5156V60.8906L182.32 61.8906H178.32Z" fill="#DBAF6D"/>
<path d="M167.82 49.0156L162.32 42.2656H159.445L155.07 39.3906H153.695V36.0156L148.945 35.2656L144.445 37.3906L140.458 38.9855M167.82 49.0156V52.8906L169.32 53.6406L166.32 56.0156M167.82 49.0156L158.32 45.0156L148.945 48.0156L146.32 46.1406V40.0156L140.458 38.9855M166.32 56.0156L175.32 64.0156M166.32 56.0156C164.945 55.5156 161.732 54.8156 159.882 56.0156C158.032 57.2156 156.153 59.7656 155.445 60.8906C155.049 62.2656 154.495 65.7906 155.445 68.8906M166.32 56.0156L163.07 52.0156L157.195 52.8906L155.07 52.0156L153.695 52.8906L155.07 55.3906L152.32 59.2656L145.82 57.3906M175.32 64.0156L178.32 61.8906H182.32L186.32 60.8906V64.5156L182.32 66.2656H179.82V68.0156H185.445L187.695 70.1406L190.32 72.0156L189.82 73.4531H187.695L183.945 72.0156M175.32 64.0156L164.57 72.0156L167.195 71.5781V76.4531M183.945 72.0156L179.32 71.5781M183.945 72.0156L186.32 73.8281L188.945 74.9531V78.0781L191.07 82.7656L187.457 80.8732M181.195 74.9531L184.945 76.9531L185.82 80.0156L187.457 80.8732M187.457 80.8732L188.945 87.4531L184.945 85.4531L183.945 81.2656L181.507 78.0781L176.507 79.0156L167.195 76.4531M167.195 76.4531L164.57 77.7656L161.07 78.0781L156.57 76.9531L162.32 74.3906L155.945 71.5781L155.445 68.8906M155.445 68.8906H150.757L146.32 65.0156L146.07 63.4531M145.82 61.8906V57.3906M145.82 61.8906L146.07 63.4531M145.82 61.8906V63.4469M133.32 74.9531L141.57 68.0156L145.82 66.2656V63.4469M133.32 74.9531L141.57 76.0156L147.32 87.6406L148.07 94.8906L169.32 116.016V117.141L159.882 120.016L189.82 167.766H162.32L165.445 188.016H75.3198L81.6948 160.016H50.8198L84.1948 118.891L81.6948 118.141L69.5698 121.641V120.641H66.3198L80.5698 111.016L88.0698 105.016L93.4448 94.8906L95.9448 86.1406L103.195 74.9531M133.32 74.9531L128.695 70.8906H122.945L121.57 76.9531L108.695 82.7656L103.195 76.9531M103.195 74.9531L97.5698 82.2656L99.5698 74.3906M103.195 74.9531V73.8281M103.195 74.9531V76.9531M99.5698 74.3906L92.6948 89.7656L90.3198 90.1406L87.3198 93.6406H84.1948M99.5698 74.3906L96.8198 68.8906M84.1948 93.6406V96.0156L82.9448 100.016L82.3198 106.891H80.5698L79.4448 102.641V98.8906L74.3198 102.641L69.5698 105.641H66.3198L71.3198 98.8906L68.6948 100.016L64.6948 104.016L62.8198 101.891L64.6948 100.016L67.3198 96.0156L72.6948 93.6406L75.6948 90.1406M84.1948 93.6406L75.6948 90.1406M75.6948 90.1406L74.3198 89.7656L81.6948 84.0156L87.3198 77.7656L86.3198 76.4531L90.9448 71.5781L96.8198 67.2656V68.8906M96.8198 68.8906L101.07 65.0156M101.07 65.0156L99.5698 64.0156L101.07 53.6406L103.195 52.8906L106.32 49.8906L107.57 46.1406L111.195 41.5156H114.32L116.945 43.1406M101.07 65.0156L106.32 60.8906M116.945 43.1406L122 39H127L130.32 41.5156L139.445 39.3906L140.458 38.9855M116.945 43.1406L106.945 52.0156L105.57 58.0156L105.896 59.2656M145.82 57.3906L141.57 54.5156L142.32 49.0156L134.32 44.0156L124.82 46.8906L118.32 45.0156L110.32 51.0156V54.5156M133.32 52.0156L136.375 53.2656M133.32 52.0156V57.5211M133.32 52.0156H130.976M130.945 57.3906L133.32 57.5211M130.945 57.3906L130.976 52.0156M130.945 57.3906L127.82 59.7344L124.82 61.9844M122.945 63.3906L127.82 66.2656L134.945 63.3906H143.57L145.82 63.4469M122.945 63.3906L124.82 61.9844M122.945 63.3906L121.57 63.2151M146.07 63.4531L145.82 63.4469M103.195 76.9531V73.8281M103.195 73.8281L102.32 74.3906L103.195 68.0156L106.32 65.623M106.32 65.623V60.8906M106.32 65.623L108.757 63.7568M106.32 60.8906L105.896 59.2656M110.32 54.5156L112.945 56.0156L118.32 52.8906L123.945 52.0156H128.632M110.32 54.5156L105.896 59.2656M105.896 59.2656L108.92 59.6406M128.632 52.0156H130.976M128.632 52.0156L127.82 52.4051L124.82 53.8433M139.431 54.5156L141.57 55.3906L142.32 58.0156L139.445 57.8577M139.431 54.5156L139.445 57.8577M139.431 54.5156L136.375 53.2656M139.445 57.8577L136.375 57.689M136.375 53.2656V57.689M136.375 57.689L133.32 57.5211M124.82 53.8433V61.9844M124.82 53.8433L121.57 55.4014M121.57 55.4014V63.2151M121.57 55.4014L119.005 56.6309M121.57 63.2151L119.005 62.8877M119.005 56.6309V62.8877M119.005 56.6309L116.446 57.8577M119.005 62.8877L116.446 62.561M116.446 57.8577V62.561M116.446 57.8577L114.196 58.9366M116.446 62.561L113.821 62.2258M114.196 58.9366L111.945 60.0156L108.92 59.6406M114.196 58.9366L113.821 62.2258M113.821 62.2258L111.195 61.8906L108.757 63.7568M108.92 59.6406L108.757 63.7568" stroke="black" stroke-width="2"/>
<path d="M146.32 104.016L167.32 114.016L161.32 108.016L149.695 102.516L140.195 86.8906L134.32 83.5156L129.425 79.9212L126.32 77.6406V71.1406L124.945 79.0156L109.445 85.5156H106.32L103.195 82.5156L97.1948 93.6406L95.1948 105.141L90.9995 118L85.0698 123V131H103L113 117L119.57 92.7656V96.7656L129 132H157L168.07 133.016L164 127L157 126.016H133L130.32 118.918L136.382 117.578L138.632 118.766L140.195 114.578L136.382 112.016L135.32 114.578L129.425 115.744L127.007 106.516L132.07 104.891L134.32 106.078L135.882 101.891L132.07 99.3281L131.007 101.891L125.937 103.366L123.32 94.0781L128.07 92.4531L130.32 93.6406L131.882 89.4531L128.07 86.8906L127.007 89.4531L122.32 91.0731L121.445 88.0156L124.945 79.0156L126.32 71.1406V77.6406L129.425 79.9212L134.32 83.5156L146.32 104.016Z" fill="#D3D3D3"/>
<path d="M134.32 83.5156L146.32 104.016L167.32 114.016L161.32 108.016L149.695 102.516L140.195 86.8906L134.32 83.5156ZM134.32 83.5156L129.425 79.9212M124.945 79.0156L126.32 71.1406V77.6406L129.425 79.9212M124.945 79.0156L121.445 88.0156L122.32 91.0731M124.945 79.0156L109.445 85.5156H106.32M85.0698 131H103L113 117L119.57 92.7656V96.7656L129 132H157L168.07 133.016L164 127L157 126.016H133L130.32 118.918M85.0698 131V123L90.9995 118L95.1948 105.141L97.1948 93.6406L103.195 82.5156L106.32 85.5156M85.0698 131L96.9995 123L102.32 109.141L106.32 85.5156M122.32 91.0731L127.007 89.4531L128.07 86.8906L131.882 89.4531L130.32 93.6406L128.07 92.4531L123.32 94.0781M122.32 91.0731L123.32 94.0781M123.32 94.0781L125.937 103.366M125.937 103.366L131.007 101.891L132.07 99.3281L135.882 101.891L134.32 106.078L132.07 104.891L127.007 106.516M125.937 103.366L127.007 106.516M127.007 106.516L129.425 115.744M129.425 115.744L135.32 114.578L136.382 112.016L140.195 114.578L138.632 118.766L136.382 117.578L130.32 118.918M129.425 115.744L130.32 118.918M129.425 71.1406V79.9212" stroke="black" stroke-width="2"/>
<path d="M130 132L130 188" stroke="black" stroke-width="2"/>
<path d="M133 188L130 184L127 188H133Z" stroke="black" stroke-width="2"/>
<rect x="172" y="11" width="4" height="165" fill="#786F59" stroke="black" stroke-width="2"/>
</svg>
