<svg width="240" height="192" viewBox="0 0 240 192" fill="none" xmlns="http://www.w3.org/2000/svg">
<path d="M88.5 47.5L97 23L109 28.5L94.5 61L82 58L81 50.5L88.5 47.5Z" fill="#41535E"/>
<path d="M88.5 47.5L97 23L109 28.5L94.5 61L82 58L81 50.5L88.5 47.5Z" fill="black" fill-opacity="0.8"/>
<path d="M88.5 47.5L97 23L109 28.5L94.5 61L82 58L81 50.5L88.5 47.5Z" stroke="black" stroke-width="2"/>
<path d="M112.5 141.5L86.5 103V89L106.5 56H133L136 126L120.5 96.5L126 126H120.5L119.5 137L106.5 122L116.5 141L112.5 141.5Z" fill="#4A3931"/>
<path d="M112.5 141.5L86.5 103V89L106.5 56H133L136 126L120.5 96.5L126 126H120.5L119.5 137L106.5 122L116.5 141L112.5 141.5Z" fill="black" fill-opacity="0.6"/>
<path d="M120.5 126L119.5 137L106.5 122L116.5 141L112.5 141.5L86.5 103V89L106.5 56H133L136 126L120.5 96.5L126 126H120.5ZM120.5 126L106.5 109" stroke="black" stroke-width="2"/>
<path d="M124 77.5C126.5 71.5 131.6 59.4 132 59L141 52.5L149.5 110.5L143.5 114.5L134 111.5L124 77.5Z" fill="#41535E"/>
<path d="M124 77.5C126.5 71.5 131.6 59.4 132 59L141 52.5L149.5 110.5L143.5 114.5L134 111.5L124 77.5Z" fill="black" fill-opacity="0.2"/>
<path d="M124 77.5C126.5 71.5 131.6 59.4 132 59L141 52.5L149.5 110.5L143.5 114.5L134 111.5L124 77.5Z" stroke="black" stroke-width="2"/>
<path d="M104 52.5L109.5 55H133.5L122 78H119L102 112.5V117.5H96.5L86 106L104 52.5Z" fill="#41535E"/>
<path d="M104 52.5L109.5 55H133.5L122 78H119L102 112.5V117.5H96.5L86 106L104 52.5Z" fill="black" fill-opacity="0.2"/>
<path d="M109.5 55L117.5 78H119M109.5 55L104 52.5L86 106L96.5 117.5H102V112.5L119 78M109.5 55H133.5L122 78H119" stroke="black" stroke-width="2"/>
<path d="M31 91L36 94L19 101L12 96H18L22 94L15.5 91.9091L19 89.9088L16.5 87.9088L3 94.4091C4 66.4091 25.5 60.4999 46 74L31 81.9997L33 84.9997L35 84L31 91Z" fill="#383838" stroke="black" stroke-width="2"/>
<path d="M35 99L36 94L19 101V110.011L22.7499 105.511L27.2499 104.011L24 110.011L28 108L28 111L12.7499 118.011C26.2186 129.031 41.1411 127.857 52.6512 115.038L51.9441 114.331L54.0654 113.624L54.7725 97.5112L41 105L39 101L43 99H35Z" fill="#383838" stroke="black" stroke-width="2"/>
<path d="M91.5 50.5L83 53L70 74L78 79.5L95.5 60.5L91.5 50.5Z" fill="#41535E"/>
<path d="M91.5 50.5L83 53L70 74L78 79.5L95.5 60.5L91.5 50.5Z" fill="black" fill-opacity="0.4"/>
<path d="M91.5 50.5L83 53L70 74L78 79.5L95.5 60.5L91.5 50.5Z" stroke="black" stroke-width="2"/>
<path d="M74 82L82 73L77 69L68 76L74 82Z" fill="#41535E" stroke="black" stroke-width="2"/>
<rect x="9.93832" y="102.79" width="221.801" height="4" transform="rotate(-22.9479 9.93832 102.79)" fill="url(#paint0_linear_3525_36583)" stroke="black" stroke-width="2"/>
<path d="M131 58.0001C128.6 59.2001 120.5 64.6667 118 66.0001L112.5 63.0001L91 91.5001L94.5 80.5001L87.5 89.0001L88.5 101.5L86.5 107L84 99.0001L82 101.5V95.5001L99 66.0001L100 54.0001H105V51.0001C105 51.0001 131.877 42.2536 149 45.0001C163.253 47.2862 183 59.5001 183 59.5001V65.0001L174.5 62.0001L191.5 76.5001L196.5 93.5001L194 91.8621V114.5L192 113V115.5L190 114.02V118C188.056 117.514 184.8 116.674 183.489 116.254C184.941 117.344 188.616 121.681 190.5 124L188.5 127.5L180.5 121.5L186 134.5L183 136.5L179.875 144L164.5 125.5L159.5 129.5L145 103L131 58.0001Z" fill="url(#paint1_linear_3525_36583)"/>
<path d="M167.5 74.5001L194 91.8621M194 91.8621L196.5 93.5001L191.5 76.5001L174.5 62.0001L183 65.0001V59.5001C183 59.5001 163.253 47.2862 149 45.0001C131.877 42.2536 105 51.0001 105 51.0001V54.0001H100L99 66.0001L82 95.5001V101.5L84 99.0001L86.5 107L88.5 101.5L87.5 89.0001L94.5 80.5001L91 91.5001L112.5 63.0001L118 66.0001C120.5 64.6667 128.6 59.2001 131 58.0001L145 103L159.5 129.5L164.5 125.5L179.875 144L183 136.5L186 134.5L180.5 121.5L188.5 127.5L190.5 124C188.333 121.333 183.8 116 183 116C182.2 116 187.333 117.333 190 118V114.02M194 91.8621V114.5L192 113V115.5L190 114.02M167 97.0001L190 114.02" stroke="black" stroke-width="2"/>
<path d="M100 113H84.5L81 136L72 175H78L100 113Z" fill="#41535E"/>
<path d="M100 113H84.5L81 136L72 175H78L100 113Z" fill="black" fill-opacity="0.8"/>
<path d="M100 113H84.5L81 136L72 175H78L100 113Z" stroke="black" stroke-width="2"/>
<path d="M136 113H147.5L153 162.5L160 175H146.376L136 113Z" fill="#41535E"/>
<path d="M136 113H147.5L153 162.5L160 175H146.376L136 113Z" fill="black" fill-opacity="0.8"/>
<path d="M136 113H147.5L153 162.5L160 175H146.376L136 113Z" stroke="black" stroke-width="2"/>
<path d="M79 157.5H74L78.2759 146L81 129.5V122L85 127L96 124H101L93.5234 135L89.2266 146L85 160L86 175H82L79 157.5Z" fill="#41535E"/>
<path d="M79 157.5H74L78.2759 146L81 129.5V122L85 127L96 124H101L93.5234 135L89.2266 146L85 160L86 175H82L79 157.5Z" fill="black" fill-opacity="0.2"/>
<path d="M81 129.5L82 141L93.5234 135M81 129.5L78.2759 146M81 129.5V122L85 127L96 124H101L93.5234 135M93.5234 135L89.2266 146M89.2266 146L85 160L86 175H82L79 157.5H74L78.2759 146M89.2266 146L80 153L78.2759 146" stroke="black" stroke-width="2"/>
<path d="M60 175L53 164L63 170L75 164V175H60Z" fill="#2B2B2B" stroke="black" stroke-width="2"/>
<path d="M151 63L148 50H161L164 63H161V102H155L154 63H151Z" fill="#2B2B2B" stroke="black" stroke-width="2"/>
<path d="M154 59L148 62L152 86L150 93L151 94H164L165 93L163 86L166 62L160 59L157 62L154 59Z" fill="#41535E" stroke="black" stroke-width="2"/>
<path d="M146.5 53.5L141 42L160 39V47L164 51.5L160 54L152 50.5L146.5 53.5Z" fill="#41535E"/>
<path d="M146.5 53.5L141 42L160 39V47L164 51.5L160 54L152 50.5L146.5 53.5Z" fill="#41535E"/>
<path d="M146.5 53.5L141 42L160 39V47L164 51.5L160 54L152 50.5L146.5 53.5Z" stroke="black" stroke-width="2"/>
<path d="M63.5 75.5H68.5L65 81L59.5 82L60 84.5L65 83.5V86L69 81L72.5 79.5L68.5 90L63 93.5L60 92V94H55V89.5L57.5 89L54.5 79.5L63.5 75.5Z" fill="#41535E"/>
<path d="M63.5 75.5H68.5L65 81L59.5 82L60 84.5L65 83.5V86L69 81L72.5 79.5L68.5 90L63 93.5L60 92V94H55V89.5L57.5 89L54.5 79.5L63.5 75.5Z" fill="black" fill-opacity="0.6"/>
<path d="M57.5 89L54.5 79.5L63.5 75.5H68.5L65 81L59.5 82L60 84.5L65 83.5V86M57.5 89L55 89.5V94H60V92L63 93.5L68.5 90L72.5 79.5L69 81L65 86M57.5 89L65 86" stroke="black" stroke-width="2"/>
<path d="M110 31H94L91 38H88L90 41L87.5 46H93L100 51L110 31Z" fill="#41535E"/>
<path d="M110 31H94L91 38H88L90 41L87.5 46H93L100 51L110 31Z" fill="black" fill-opacity="0.4"/>
<path d="M110 31H94L91 38H88L90 41L87.5 46H93L100 51L110 31Z" stroke="black" stroke-width="2"/>
<path d="M79.5 109L84.5 103.5L88.5 92.5L101 118.5L93.5 115.5C90 116.833 85.5 122.5 85.5 122.5L79.5 121.5L81.5 115.5L79.5 109Z" fill="#41535E" stroke="black" stroke-width="2"/>
<path d="M153 114H150L144 93.5L131 118.5L140.5 116.5L144.5 127.5L150.5 126.5L153 114Z" fill="#41535E" stroke="black" stroke-width="2"/>
<path d="M157 161H150.5L146 175H142.5L146 161L142.5 147L137.5 134L132 122H136L139 128L149 132L153 127V138L155 151L157 161Z" fill="#41535E"/>
<path d="M157 161H150.5L146 175H142.5L146 161L142.5 147L137.5 134L132 122H136L139 128L149 132L153 127V138L155 151L157 161Z" fill="black" fill-opacity="0.2"/>
<path d="M153 138L150.5 142L137.5 134M153 138L155 151M153 138V127L149 132L139 128L136 122H132L137.5 134M137.5 134L142.5 147M142.5 147L152.5 159L155 151M142.5 147L146 161L142.5 175H146L150.5 161H157L155 151" stroke="black" stroke-width="2"/>
<path d="M163.5 175L160.5 164.5L155 171H151L149 175H163.5Z" fill="#2B2B2B" stroke="black" stroke-width="2"/>
<path d="M162 96H153L151 101L148 105V114L151 106H152L153 111V120L157 112H160L156.5 115L162 112V96Z" fill="#41535E"/>
<path d="M157 112L153 120V111L152 106H151L148 114V105L151 101L153 96H162V112L156.5 115L160 112M157 112V105M157 112H160M160 112V108" stroke="black" stroke-width="2"/>
<path d="M139.5 19L145.5 30.5L132.664 44.75L137.735 48.25L129 55L115 56.5L105 51.5L101.5 44H107L100.5 30.5L102 19L112 9.5L139.5 19Z" fill="#41535E"/>
<path d="M139.5 19L145.5 30.5L132.664 44.75L137.735 48.25L129 55L115 56.5L105 51.5L101.5 44H107L100.5 30.5L102 19L112 9.5L139.5 19Z" fill="black" fill-opacity="0.2"/>
<path d="M116.5 49L125.5 48.25M116.5 49L115 56.5M116.5 49L109 46.5M107 44L100.5 30.5L102 19L112 9.5L139.5 19L145.5 30.5L132.664 44.75M107 44H101.5L105 51.5M107 44L109 46.5M105 51.5L115 56.5M105 51.5L109 46.5M115 56.5L129 55M129 55L137.735 48.25L132.664 44.75M129 55L125.5 48.25M132.664 44.75L125.5 48.25" stroke="black" stroke-width="2"/>
<path d="M133 26L127.981 19.0741L115 15L101 32.037L114 41V45L126 42L133 26Z" fill="#24392A"/>
<path d="M114 41V45L126 42L133 26L127.981 19.0741L115 15L101 32.037L114 41ZM114 41L122 37L125.111 30" stroke="black" stroke-width="2"/>
<path d="M86 32H102L116 14.5L100.5 8L90.7368 18V26L86 32Z" fill="#41535E"/>
<path d="M86 32H102L116 14.5L100.5 8L90.7368 18V26L86 32Z" fill="black" fill-opacity="0.6"/>
<path d="M86 32H102L116 14.5L100.5 8L90.7368 18V26L86 32Z" stroke="black" stroke-width="2"/>
<path d="M120 16L109.5 10L99 14.5V26.5L101.5 36.5L109 33V38L123 26L120 23V16Z" fill="#24392A" stroke="black" stroke-width="2"/>
<path d="M99 44L108 38L114.5 36.5L112 33L116 22L102 29.5L98 25L99 31L96.5 33L99 35V44Z" fill="#41535E"/>
<path d="M99 44L108 38L114.5 36.5L112 33L116 22L102 29.5L98 25L99 31L96.5 33L99 35V44Z" fill="black" fill-opacity="0.3"/>
<path d="M102 29.5L116 22L112 33L114.5 36.5L108 38L99 44M102 29.5L98 25L99 31L96.5 33L99 35V44M102 29.5L103 33L99 44" stroke="black" stroke-width="2"/>
<path d="M147 21H138C134.723 27.2733 134 32.0068 134 39L139 44H162V32L147 21Z" fill="#41535E" stroke="black" stroke-width="2"/>
<path d="M101 9L107 15H113L111 18L115 26L109 22H101.091H98.0909L98.0909 15L101 9Z" fill="#41535E"/>
<path d="M101.091 22H98.0909L98.0909 15L101 9M101.091 22H109L115 26L111 18L113 15H107L101 9M101.091 22L101 9" stroke="black" stroke-width="2"/>
<path d="M216.5 12.5L213 17L214.5 20.5H220.5L219.5 18.5L225 16L223 12L217.5 14.5L216.5 12.5Z" fill="#383838" stroke="black" stroke-width="2"/>
<path opacity="0.3" d="M59.5 176H79L80 180L81 176H87L86 192H75L74 186L63 182L54 186L53 184L59.5 176Z" fill="url(#paint2_linear_3525_36583)"/>
<rect opacity="0.3" x="141" y="176" width="22" height="16" fill="url(#paint3_linear_3525_36583)"/>
<defs>
<linearGradient id="paint0_linear_3525_36583" x1="9.28294" y1="105.513" x2="230.404" y2="105.202" gradientUnits="userSpaceOnUse">
<stop stop-color="#383838"/>
<stop offset="1" stop-color="#292929"/>
</linearGradient>
<linearGradient id="paint1_linear_3525_36583" x1="139.25" y1="44.4663" x2="139.25" y2="144" gradientUnits="userSpaceOnUse">
<stop stop-color="#313131"/>
<stop offset="1" stop-color="#5A1E11"/>
</linearGradient>
<linearGradient id="paint2_linear_3525_36583" x1="72" y1="176" x2="72" y2="192" gradientUnits="userSpaceOnUse">
<stop/>
<stop offset="1" stop-opacity="0"/>
</linearGradient>
<linearGradient id="paint3_linear_3525_36583" x1="152" y1="176" x2="152" y2="192" gradientUnits="userSpaceOnUse">
<stop/>
<stop offset="1" stop-opacity="0"/>
</linearGradient>
</defs>
</svg>
