<svg width="240" height="192" viewBox="0 0 240 192" fill="none" xmlns="http://www.w3.org/2000/svg">
<path d="M73.4751 92.1146L80.556 88.0763L85.8864 92.1146L77.9716 100.999L70.8643 95.8297L73.4751 92.1146Z" fill="#666666"/>
<path d="M73.9601 93.5449L82.386 95.4833L82.386 98.2293L76.2215 101.944L67.6604 98.2293L73.9601 93.5449Z" fill="#666666"/>
<path fill-rule="evenodd" clip-rule="evenodd" d="M63.0696 103.774L58.6141 107.695L36 116.094L56.4931 102.984L63.2986 101.384L169.966 49.292L172.281 49.5618L63.0696 103.774Z" fill="#484848"/>
<path d="M134.064 35.4348L121.141 35.4348L126.966 51.2647L119.203 48.6802L111.126 62.2487L116.618 75.1711L141.494 53.8492L134.064 35.4348Z" fill="black" fill-opacity="0.38"/>
<rect x="103.687" y="49.8643" width="11.374" height="25.6742" transform="rotate(24.2784 103.687 49.8643)" fill="#666666"/>
<path d="M94.9659 69.7929L96.6615 63.1702C98.3582 56.9183 97.4761 57.8512 102.164 55.3853C105.477 53.6426 108.938 47.6634 108.938 47.6634L110.553 48.7941C110.553 48.7941 106.03 60.1012 102.164 61.7165C98.298 63.3318 94.9659 69.7929 94.9659 69.7929Z" fill="url(#paint0_linear_470_75810)"/>
<path d="M93.9688 72.2461L101.552 80.7234L79.2931 98L79.2931 89.2067L93.9688 72.2461Z" fill="#666666"/>
<rect width="11.374" height="22.2911" transform="matrix(-0.911559 0.41117 0.41117 0.911559 141.67 49.8643)" fill="#666666"/>
<path d="M144.055 50.9238L136.472 59.4012L153.884 73.3764L158.73 67.8844L144.055 50.9238Z" fill="#666666"/>
<ellipse cx="5.5" cy="5" rx="5.5" ry="5" transform="matrix(-1 0 0 1 151 67)" fill="#383045"/>
<path d="M118.342 49.3465C118.035 47.6474 117.313 46.0504 116.241 44.6969C115.169 43.3434 113.78 42.2751 112.196 41.5868C110.613 40.8985 108.884 40.6113 107.163 40.7507C105.442 40.8901 103.782 41.4518 102.33 42.386C100.878 43.3202 99.6783 44.5981 98.8381 46.1066C97.9979 47.615 97.5426 49.3073 97.5127 51.0337C97.4827 52.7601 97.879 54.4672 98.6664 56.0039C99.4538 57.5405 100.608 58.8593 102.027 59.8433L108.011 51.2158L118.342 49.3465Z" fill="#333333"/>
<path d="M130.447 37.2578C145.455 31.604 127.373 21.4915 139.555 88.481C144.024 102.075 161.68 122.198 197.32 123.515C177.175 134.68 75.0879 198.378 93.6181 98.316C96.8487 80.8709 119.346 41.4395 130.447 37.2578Z" fill="url(#paint1_linear_470_75810)"/>
<path d="M137.039 57.4415C136.418 70.2728 118.947 80.5311 118.947 80.5311C118.947 80.5311 103.519 72.4081 103.519 64.0085C103.519 50.117 118.947 40.4252 118.947 40.4252C118.947 40.4252 137.659 44.6102 137.039 57.4415Z" fill="#454B61"/>
<path d="M132.595 65.0552C132.595 65.0552 126.966 75.0097 129.202 79.9159C131.302 84.5228 139.5 99.4999 139.5 99.4999L105.5 101.439C105.5 101.439 109.299 85.0853 109.008 74.3464C108.927 71.342 109.008 66.0817 109.008 66.0817L132.595 65.0552Z" fill="#454B61"/>
<path d="M117.818 96.6528L97.8123 125.32L98.3236 133.742C98.3236 133.742 87.4412 123.542 94.4974 106.383C101.554 89.2236 108.616 84.7434 108.616 84.7434L117.818 96.6528Z" fill="url(#paint2_linear_470_75810)"/>
<path d="M139.389 93.1702C148.632 109.257 148.178 127.992 148.178 127.992C148.178 127.992 135.767 123.426 126.524 107.339C117.28 91.2515 126.524 81.8654 126.524 81.8654C126.524 81.8654 130.146 77.0832 139.389 93.1702Z" fill="url(#paint3_linear_470_75810)"/>
<path d="M126.619 44.4624C126.429 48.3921 113.182 51.0851 113.182 51.0851C113.182 51.0851 110.055 49.3994 110.245 45.4696C110.436 41.5399 119.188 38.3243 119.188 38.3243C119.188 38.3243 126.809 40.5327 126.619 44.4624Z" fill="#303030"/>
<path d="M120.08 40.8703C120.362 45.1447 114.674 46.5062 114.674 46.5062C114.674 46.5062 111.957 46.0396 111.676 41.7651C111.394 37.4907 112.45 35.9927 116.281 35.7406C120.111 35.4884 119.799 36.5958 120.08 40.8703Z" fill="#818181"/>
<path d="M123.387 40.4258L119.026 29.7649C119.026 29.7649 113.738 29.134 110.405 28.8226C107.072 28.5112 102.73 33.9664 102.249 39.1181C101.768 44.2699 123.387 40.4258 123.387 40.4258Z" fill="#F0EDE0"/>
<path d="M97.2688 97.8203C97.2688 97.8203 100.707 95.2115 100.292 117.508C96.7962 120.648 92.9664 138.943 88.0187 133.434C83.071 127.925 81.894 120.914 85.3897 117.774C88.8854 114.635 97.2688 97.8203 97.2688 97.8203Z" fill="#454B61"/>
<path d="M161.763 172.691C165.006 170.579 155.27 131.968 152.63 127.913C149.989 123.858 145.895 122.494 142.652 124.606C139.408 126.719 140.999 137.928 140.999 137.928C140.999 137.928 158.52 174.804 161.763 172.691Z" fill="#454B61"/>
<path d="M160.389 172.987L166.415 172.987C166.415 172.987 161.66 164.449 158.416 166.561C155.173 168.673 155.224 172.987 155.224 172.987L160.389 172.987Z" fill="#454B61"/>
<path d="M91.7079 168.99C94.3206 169.366 98.3107 133.756 98.3107 133.756L89.5055 119.708C89.5055 119.708 82.7336 125.579 84.0331 129.958C85.3326 134.336 87.3862 170.272 91.7079 168.99Z" fill="#454B61"/>
<path d="M70.9691 173.915L95.1195 172.234L93.4243 163.996C93.4243 163.996 91.5291 160.415 87.8256 161.54C84.1221 162.664 79.7045 168.042 79.7045 168.042L70.9691 173.915Z" fill="#454B61"/>
<path d="M151.511 127.415C151.511 127.415 147.762 131.129 142.197 130.344C136.632 129.558 130.54 113.205 130.54 113.205L135.063 102.382L144.916 105.128L151.511 127.415Z" fill="#454B61"/>
<path d="M149.879 46.2951C149.879 46.2951 141.368 48.8745 133.615 52.2666C125.862 55.6587 126.507 55.2091 131.33 60.8266C136.154 66.4441 143.528 56.249 143.528 56.249L149.879 46.2951Z" fill="#333333"/>
<path d="M120.48 34.6748C120.89 40.9061 115.904 45.0843 114.482 45.3358C113.061 45.5872 106.978 40.9061 106.568 34.6748C106.158 28.4436 108.502 22.622 113.665 22.2822C118.828 21.9423 120.069 28.4436 120.48 34.6748Z" fill="#DBC9BB"/>
<path d="M120.48 34.6748C120.89 40.9061 115.904 45.0843 114.482 45.3358C113.061 45.5872 106.978 40.9061 106.568 34.6748C106.158 28.4436 108.502 22.622 113.665 22.2822C118.828 21.9423 120.069 28.4436 120.48 34.6748Z" fill="url(#paint4_linear_470_75810)" fill-opacity="0.4"/>
<path d="M122.095 27.3424C122.095 27.3424 119.995 34.4497 113.029 29.1539C109.011 35.2574 104.811 31.5422 104.811 31.5422C104.811 31.5422 105.781 21.2682 113.029 21.2682C118.192 20.9283 122.095 27.3424 122.095 27.3424Z" fill="#F0EDE0"/>
<path d="M118.703 47.695C118.703 47.695 123.731 41.0723 117.411 27.5038C116.605 18.8792 121.934 27.5038 121.934 27.5038L129.021 39.0363L118.703 47.695Z" fill="#F0EDE0"/>
<path d="M114.807 34.4512C114.45 33.7322 114.721 33.7519 115.44 33.3946C116.159 33.0372 117.053 32.4381 117.411 33.1571C117.768 33.8761 117.475 34.7487 116.756 35.106C116.037 35.4633 115.164 35.1702 114.807 34.4512Z" fill="#8A8A8A"/>
<path opacity="0.5" d="M111.129 38.7303C111.055 38.2408 111.735 38.4343 112.321 38.3468C112.906 38.2593 113.177 37.9239 113.25 38.4133C113.421 39.5563 111.299 39.8732 111.129 38.7303Z" fill="#333333"/>
<path d="M109.638 40.7773C109.638 40.7773 112.436 41.1684 113.289 41.0411C114.141 40.9137 116.933 39.7075 115.178 41.1774C115.406 42.7026 109.638 40.7773 109.638 40.7773Z" fill="white"/>
<path d="M110.958 34.3671C110.803 35.1549 110.039 35.6679 109.251 35.5129C108.463 35.3579 107.95 34.5937 108.105 33.8059C108.26 33.0181 109.011 33.6509 109.799 33.8059C110.587 33.9609 111.113 33.5793 110.958 34.3671Z" fill="#8A8A8A"/>
<path d="M122.303 33.9136C122.303 33.9136 120.839 36.4464 120.294 36.31C119.75 36.1736 119.266 34.6571 119.593 33.3325C119.92 32.0079 120.822 31.0153 121.711 31.2348C122.6 31.4543 122.303 33.9136 122.303 33.9136Z" fill="#DBC9BB"/>
<path d="M120.308 24.8713L119.281 28.3421L117.092 28.9947L117.542 26.9858L120.308 24.8713Z" fill="#454B61"/>
<path d="M117.027 23.5547L116.655 27.1553L114.624 28.1991L114.697 26.1418L117.027 23.5547Z" fill="#454B61"/>
<path d="M104.027 25.6393L106.659 28.1242L106.253 30.3713L104.663 29.0628L104.027 25.6393Z" fill="#454B61"/>
<path d="M106.611 24.3473L109.243 26.8322L108.836 29.0793L107.247 27.7708L106.611 24.3473Z" fill="#454B61"/>
<path d="M111.114 23.0597L112.874 26.2227L111.809 28.2426L110.688 26.5157L111.114 23.0597Z" fill="#454B61"/>
<path d="M102.239 78.0824C102.239 78.0824 97.6463 81.4052 95.1562 79.975C92.6661 78.5448 93.222 72.9031 93.222 72.9031C93.222 72.9031 97.815 69.5803 100.305 71.0105C102.795 72.4407 102.239 78.0824 102.239 78.0824Z" fill="#888888"/>
<circle cx="144" cy="125" r="6" fill="#383045"/>
<path d="M90.018 125C90.018 128.314 93.9349 131 90.756 131C87.577 131 85 128.314 85 125C85 121.686 87.577 119 90.756 119C93.9349 119 90.018 121.686 90.018 125Z" fill="#383045"/>
<path d="M145.157 46.7625C144.896 45.322 144.337 43.9519 143.516 42.7402C142.694 41.5285 141.628 40.502 140.387 39.7266C139.145 38.9511 137.755 38.4439 136.306 38.2374C134.857 38.0309 133.38 38.1298 131.971 38.5277C130.563 38.9255 129.253 39.6136 128.125 40.5476C126.998 41.4817 126.079 42.6412 125.426 43.9516C124.774 45.262 124.403 46.6943 124.336 48.1567C124.27 49.6191 124.51 51.0792 125.042 52.4432L134.825 48.6319L145.157 46.7625Z" fill="#333333"/>
<path d="M107 69H131.107L134 73.1176L107 76V69Z" fill="#454B61"/>
<path d="M126 71.8208C126 76.338 121.971 80 117 80C112.029 80 108 76.338 108 71.8208C108 67.3035 111.529 63 111.529 63C111.529 63 126 67.3035 126 71.8208Z" fill="#232323"/>
<path opacity="0.87" d="M117.106 112.799L107.398 112.864L107.407 112.099L103.539 112.889C103.539 112.889 112.032 104.587 113.747 95.7676C115.463 86.9482 111.775 70.4604 111.775 70.4604L117.589 70.4219C117.589 70.4219 122.591 85.783 121.661 95.7153C121.031 102.445 117.106 112.799 117.106 112.799Z" fill="#A6A6A6"/>
<path d="M107.867 81.2929C107.867 78.7001 107.029 78.4117 107.029 78.4117L109.94 72.5703L113.945 76.7857C113.945 76.7857 113.18 81.3127 109.94 82.9082C107.745 83.9892 107.867 83.8857 107.867 81.2929Z" fill="#232323"/>
<path d="M131.756 77.8112L135.601 67.9817C135.601 67.9817 130.112 75.2116 126.621 75.9712C123.13 76.7309 118.812 71.6193 118.812 71.6193L116.937 77.1233C116.937 77.1233 121.173 82.1016 124.784 82.1956C127.23 82.2593 131.756 77.8112 131.756 77.8112Z" fill="#232323"/>
<path d="M118 71.3617C118 73.3711 115 75 115 75C115 75 112 73.3711 112 71.3617C112 69.3523 113.105 66 113.105 66C113.105 66 118 69.3523 118 71.3617Z" fill="#5E5E5E"/>
<path d="M146.008 84.9884L154.67 80.6037L154.274 79.848L158.113 78.8609C158.113 78.8609 135.158 62.1248 129.155 54.1488C123.151 46.1728 129.155 39.9342 129.155 39.9342L125.44 43.0032C125.44 43.0032 120.054 49.2299 125.924 58.6716C129.901 65.0686 146.008 84.9884 146.008 84.9884Z" fill="url(#paint5_linear_470_75810)"/>
<path d="M136.598 49.7988L159.74 54.4005L174.318 95.6459L168.835 111.681L150.87 105.175L125.521 69.6384L136.598 49.7988Z" fill="#383045" stroke="#F8F8F8" stroke-width="2"/>
<ellipse cx="6.34958" cy="6.5202" rx="6.34958" ry="6.5202" transform="matrix(-0.898395 0.432129 -0.48102 -0.880839 164.811 89.4258)" fill="white"/>
<ellipse cx="6.64949" cy="6.49258" rx="6.64949" ry="6.49258" transform="matrix(-0.898395 0.432129 -0.48102 -0.880839 154.665 82.5674)" fill="white"/>
<path d="M152.554 61.6925L148.566 71.8931L137.112 69.1204L152.554 61.6925Z" fill="white"/>
<ellipse cx="6.57046" cy="5.86231" rx="6.57046" ry="5.86231" transform="matrix(-0.898395 0.432129 -0.48102 -0.880839 165.678 75.709)" fill="white"/>
<circle cx="115.5" cy="34.5" r="0.5" fill="#333333"/>
<circle cx="108.5" cy="34.5" r="0.5" fill="#333333"/>
<path d="M120 29.3361C120 29.001 119.769 28.6698 119.321 28.365C118.874 28.0602 118.221 27.7889 117.408 27.5696C116.594 27.3503 115.639 27.1881 114.606 27.094C113.573 26.9999 112.488 26.9761 111.423 27.0242C110.358 27.0723 109.339 27.1912 108.435 27.3729C107.531 27.5545 106.763 27.7946 106.183 28.0769C105.603 28.3592 105.225 28.677 105.074 29.0088C104.923 29.3406 105.003 29.6787 105.309 30" stroke="#5F5F5F" stroke-width="2"/>
<defs>
<linearGradient id="paint0_linear_470_75810" x1="109.482" y1="47.91" x2="96.5449" y2="59.6721" gradientUnits="userSpaceOnUse">
<stop stop-color="#B70B91"/>
<stop offset="1" stop-color="#E01818"/>
</linearGradient>
<linearGradient id="paint1_linear_470_75810" x1="64.5736" y1="86.1005" x2="108.648" y2="146.278" gradientUnits="userSpaceOnUse">
<stop stop-color="#B70B91"/>
<stop offset="1" stop-color="#E01818"/>
</linearGradient>
<linearGradient id="paint2_linear_470_75810" x1="112.267" y1="86.6613" x2="93.1906" y2="133.052" gradientUnits="userSpaceOnUse">
<stop stop-color="#151515"/>
<stop offset="1" stop-color="#4D4D4D"/>
</linearGradient>
<linearGradient id="paint3_linear_470_75810" x1="123.369" y1="83.5685" x2="148.716" y2="127.683" gradientUnits="userSpaceOnUse">
<stop stop-color="#151515"/>
<stop offset="1" stop-color="#4D4D4D"/>
</linearGradient>
<linearGradient id="paint4_linear_470_75810" x1="112.712" y1="22.3449" x2="114.227" y2="45.3562" gradientUnits="userSpaceOnUse">
<stop/>
<stop offset="1" stop-opacity="0"/>
</linearGradient>
<linearGradient id="paint5_linear_470_75810" x1="128.912" y1="40.6467" x2="149.856" y2="83.0896" gradientUnits="userSpaceOnUse">
<stop stop-color="#B70B91"/>
<stop offset="1" stop-color="#E01818"/>
</linearGradient>
</defs>
</svg>
