<svg width="240" height="192" viewBox="0 0 240 192" fill="none" xmlns="http://www.w3.org/2000/svg">
<path d="M141 76V80L155 94.0001C155 113 142.782 118.758 126 119L126 94.0001L133 94.0001L134.931 80H132.931L133 76H141Z" fill="#3B3C48"/>
<path d="M133 94.0001L126 94.0001L126 119C142.782 118.758 155 113 155 94.0001L141 80V76H133L132.931 80H134.931L133 94.0001ZM133 94.0001H140" stroke="black" stroke-width="2"/>
<path d="M120.67 97.986L113 97.9861L113 84.9861L117 84.986L117 90.9999L122 84.9861L132 84.9862L120.67 97.986Z" fill="#7B7665" stroke="black" stroke-width="2"/>
<path d="M112 96L120.62 103H126L126 95L124 95L122 97L117 96H112Z" fill="#2C2C2C"/>
<path d="M117 96H112L120.62 103H126L126 95L124 95M117 96L114 94L110.5 92M117 96L122 97L124 95M124 95L128 91" stroke="black" stroke-width="2"/>
</svg>
