<svg width="240" height="192" viewBox="0 0 240 192" fill="none" xmlns="http://www.w3.org/2000/svg">
<path d="M116 58L112 60L111 65L111.5 67L110 70.5L111 71L112 76H116L117 79L125 76L124.5 74L127 68V62L124.5 58H116Z" fill="#8B7A67"/>
<path d="M117 79L116 76H112L111 71L110 70.5L111.5 67L111 65L112 60L116 58H124.5L127 62V68L124.5 74L125 76L117 79ZM117 79H112V83H115V87H112V90" stroke="black" stroke-width="2"/>
<rect opacity="0.2" x="117" y="73" width="5" height="5" fill="black"/>
<rect x="113" y="68" width="2" height="2" transform="rotate(-90 113 68)" fill="black"/>
<path d="M119 67H121V70L119 72" stroke="#1F1F1F" stroke-width="2"/>
<mask id="path-6-inside-1_4059_56955" fill="white">
<path fill-rule="evenodd" clip-rule="evenodd" d="M123 56.0337V54.9997C115.207 54.2912 110.246 57.305 108.5 64.9996H117V69.9998L115.5 74.9998L121.5 72.9998C121.5 72.9998 120.053 79.5133 120 82.4998C119.897 88.3503 117.5 93.9998 117.5 93.9998H125V91.9998L127.741 93.9998C127.741 93.9998 133.689 88.5965 134 83.9998C134.25 80.3035 131 74.9998 131 74.9998L132.5 63.9998L131.249 63.435C130.573 59.3593 128.1 56.3799 123 56.0337Z"/>
</mask>
<path fill-rule="evenodd" clip-rule="evenodd" d="M123 56.0337V54.9997C115.207 54.2912 110.246 57.305 108.5 64.9996H117V69.9998L115.5 74.9998L121.5 72.9998C121.5 72.9998 120.053 79.5133 120 82.4998C119.897 88.3503 117.5 93.9998 117.5 93.9998H125V91.9998L127.741 93.9998C127.741 93.9998 133.689 88.5965 134 83.9998C134.25 80.3035 131 74.9998 131 74.9998L132.5 63.9998L131.249 63.435C130.573 59.3593 128.1 56.3799 123 56.0337Z" fill="#343030"/>
<path d="M123 56.0337H121V57.9026L122.865 58.0291L123 56.0337ZM123 54.9997H125V53.1733L123.181 53.008L123 54.9997ZM108.5 64.9996L106.55 64.5571L105.995 66.9996H108.5V64.9996ZM117 64.9996H119V62.9996H117V64.9996ZM117 69.9998L118.916 70.5745L119 70.2934V69.9998H117ZM115.5 74.9998L113.584 74.4251L112.477 78.1156L116.132 76.8972L115.5 74.9998ZM121.5 72.9998L123.452 73.4337L124.219 69.9854L120.868 71.1025L121.5 72.9998ZM120 82.4998L118 82.4647L118 82.4647L120 82.4998ZM117.5 93.9998L115.659 93.2186L114.479 95.9998H117.5V93.9998ZM125 93.9998V95.9998H127V93.9998H125ZM125 91.9998L126.179 90.3842L123 88.0645V91.9998H125ZM127.741 93.9998L126.562 95.6154L127.879 96.5765L129.086 95.4802L127.741 93.9998ZM134 83.9998L135.995 84.135L135.995 84.135L134 83.9998ZM131 74.9998L129.018 74.7296L128.922 75.4365L129.295 76.0449L131 74.9998ZM132.5 63.9998L134.482 64.27L134.683 62.7913L133.323 62.1771L132.5 63.9998ZM131.249 63.435L129.276 63.7625L129.451 64.8175L130.426 65.2577L131.249 63.435ZM125 56.0337V54.9997H121V56.0337H125ZM123.181 53.008C119.015 52.6291 115.315 53.2175 112.371 55.186C109.399 57.1731 107.501 60.3623 106.55 64.5571L110.45 65.4422C111.244 61.9424 112.7 59.7774 114.594 58.5111C116.516 57.2261 119.193 56.6618 122.819 56.9915L123.181 53.008ZM108.5 66.9996H117V62.9996H108.5V66.9996ZM115 64.9996V69.9998H119V64.9996H115ZM115.084 69.4251L113.584 74.4251L117.416 75.5745L118.916 70.5745L115.084 69.4251ZM116.132 76.8972L122.132 74.8972L120.868 71.1025L114.868 73.1025L116.132 76.8972ZM121.5 72.9998C119.548 72.566 119.548 72.5661 119.548 72.5662C119.548 72.5663 119.548 72.5664 119.547 72.5666C119.547 72.5669 119.547 72.5673 119.547 72.5678C119.547 72.5688 119.547 72.5703 119.546 72.5721C119.545 72.5757 119.544 72.5808 119.543 72.5875C119.54 72.6009 119.536 72.6203 119.53 72.6456C119.519 72.696 119.503 72.7696 119.483 72.8638C119.442 73.0521 119.384 73.3233 119.315 73.6575C119.176 74.3253 118.99 75.2483 118.803 76.2679C118.437 78.2538 118.03 80.7833 118 82.4647L122 82.535C122.023 81.2298 122.365 79.0094 122.737 76.9919C122.917 76.0098 123.097 75.1178 123.231 74.4709C123.298 74.1479 123.354 73.8868 123.393 73.7073C123.412 73.6176 123.427 73.5483 123.437 73.5018C123.442 73.4786 123.446 73.4611 123.449 73.4497C123.45 73.4439 123.451 73.4397 123.452 73.437C123.452 73.4357 123.452 73.4348 123.452 73.4342C123.452 73.4339 123.452 73.4337 123.452 73.4336C123.452 73.4336 123.452 73.4336 123.452 73.4336C123.452 73.4336 123.452 73.4337 121.5 72.9998ZM118 82.4647C117.953 85.1504 117.375 87.8405 116.788 89.8946C116.497 90.9132 116.21 91.7565 115.997 92.3409C115.891 92.6326 115.803 92.8588 115.744 93.0088C115.714 93.0838 115.691 93.1397 115.677 93.1751C115.67 93.1928 115.664 93.2054 115.661 93.2127C115.66 93.2164 115.659 93.2187 115.658 93.2197C115.658 93.2202 115.658 93.2204 115.658 93.2202C115.658 93.2201 115.658 93.2199 115.658 93.2197C115.658 93.2195 115.659 93.2193 115.659 93.2192C115.659 93.2189 115.659 93.2186 117.5 93.9998C119.341 94.781 119.341 94.7807 119.341 94.7803C119.341 94.7802 119.342 94.7798 119.342 94.7795C119.342 94.7789 119.342 94.7782 119.343 94.7774C119.343 94.7759 119.344 94.774 119.345 94.7717C119.347 94.7672 119.349 94.7614 119.352 94.7542C119.358 94.7397 119.367 94.7199 119.377 94.6948C119.398 94.6446 119.426 94.5734 119.463 94.4825C119.535 94.3007 119.635 94.0398 119.755 93.7105C119.995 93.0527 120.313 92.1179 120.635 90.9929C121.272 88.7596 121.944 85.6997 122 82.535L118 82.4647ZM117.5 95.9998H125V91.9998H117.5V95.9998ZM127 93.9998V91.9998H123V93.9998H127ZM123.821 93.6154L126.562 95.6154L128.92 92.3842L126.179 90.3842L123.821 93.6154ZM127.741 93.9998C129.086 95.4802 129.086 95.4799 129.086 95.4796C129.086 95.4795 129.087 95.4791 129.087 95.4789C129.088 95.4784 129.088 95.4778 129.089 95.4771C129.09 95.4757 129.092 95.474 129.095 95.472C129.099 95.468 129.105 95.4626 129.112 95.4559C129.126 95.4426 129.146 95.4242 129.172 95.4007C129.222 95.3537 129.293 95.2868 129.382 95.2014C129.56 95.0307 129.81 94.7855 130.109 94.4781C130.705 93.8653 131.506 92.9948 132.321 91.9658C133.87 90.0116 135.795 87.0921 135.995 84.135L132.005 83.8647C131.894 85.5041 130.689 87.5847 129.186 89.4814C128.476 90.3777 127.77 91.1454 127.241 91.6894C126.978 91.9603 126.761 92.1732 126.612 92.3159C126.538 92.3873 126.481 92.4409 126.444 92.4754C126.425 92.4926 126.412 92.505 126.404 92.5124C126.4 92.5161 126.397 92.5186 126.396 92.5198C126.395 92.5204 126.395 92.5206 126.395 92.5206C126.395 92.5206 126.395 92.5205 126.395 92.5203C126.395 92.5202 126.395 92.52 126.395 92.5199C126.396 92.5197 126.396 92.5195 127.741 93.9998ZM135.995 84.135C136.156 81.7708 135.224 79.1381 134.427 77.3129C134.008 76.3547 133.583 75.5243 133.262 74.9332C133.102 74.6367 132.966 74.398 132.869 74.2307C132.82 74.1471 132.781 74.0811 132.753 74.0346C132.739 74.0113 132.728 73.9929 132.72 73.9795C132.716 73.9728 132.713 73.9674 132.71 73.9633C132.709 73.9612 132.708 73.9595 132.707 73.958C132.707 73.9573 132.706 73.9567 132.706 73.9562C132.706 73.9559 132.706 73.9555 132.706 73.9554C132.705 73.9551 132.705 73.9548 131 74.9998C129.295 76.0449 129.295 76.0446 129.294 76.0444C129.294 76.0443 129.294 76.0441 129.294 76.044C129.294 76.0438 129.294 76.0436 129.294 76.0435C129.294 76.0434 129.294 76.0436 129.294 76.0441C129.295 76.0451 129.296 76.0473 129.298 76.0508C129.303 76.0577 129.31 76.0695 129.319 76.086C129.339 76.119 129.37 76.1706 129.41 76.2391C129.489 76.3764 129.606 76.5808 129.746 76.8393C130.027 77.3582 130.399 78.0847 130.761 78.9145C131.526 80.6652 132.095 82.5324 132.005 83.8647L135.995 84.135ZM132.982 75.27L134.482 64.27L130.518 63.7296L129.018 74.7296L132.982 75.27ZM133.323 62.1771L132.072 61.6122L130.426 65.2577L131.677 65.8226L133.323 62.1771ZM122.865 58.0291C125.035 58.1764 126.452 58.8623 127.392 59.7727C128.348 60.6983 128.988 62.0285 129.276 63.7625L133.222 63.1075C132.834 60.7658 131.899 58.5684 130.175 56.8989C128.434 55.2141 126.065 54.2372 123.135 54.0383L122.865 58.0291Z" fill="black" mask="url(#path-6-inside-1_4059_56955)"/>
<rect x="116.884" y="60.7012" width="2" height="3" transform="rotate(30 116.884 60.7012)" fill="black"/>
</svg>
