<svg width="240" height="192" viewBox="0 0 240 192" fill="none" xmlns="http://www.w3.org/2000/svg">
<path d="M136 80.8268V81.2336L136.284 81.5249L137 80.8268C136.284 81.5249 136.284 81.5249 136.284 81.5253L136.286 81.5271L136.294 81.5351L136.326 81.568C136.354 81.5975 136.397 81.6418 136.454 81.7007C136.567 81.8185 136.736 81.9944 136.955 82.2253C137.393 82.6872 138.033 83.3691 138.839 84.2464C140.45 86.0013 142.725 88.5372 145.37 91.6571C150.662 97.8999 157.427 106.467 163.342 115.784C169.266 125.115 174.289 135.127 176.167 144.269C178.041 153.39 176.761 161.471 170.331 167.256C168.435 168.963 165.644 169.917 163.221 170.435C162.026 170.69 160.956 170.832 160.186 170.91C159.801 170.949 159.492 170.971 159.282 170.984C159.177 170.991 159.097 170.995 159.044 170.997L158.985 171L158.983 171H88.3237L113.962 80.7732L114 80.6391V80.4998V70H136V80.8268Z" fill="url(#paint0_linear_4059_56916)" stroke="black" stroke-width="2"/>
<path d="M134.831 80.8268V81.1487L135.019 81.4101L135.831 80.8268C135.019 81.4101 135.019 81.4102 135.019 81.4105L135.021 81.4124L135.026 81.4203L135.05 81.4531C135.071 81.4825 135.102 81.5268 135.144 81.5856C135.227 81.7033 135.351 81.8791 135.513 82.1099C135.835 82.5715 136.306 83.2532 136.9 84.1304C138.087 85.8848 139.762 88.4204 141.71 91.5401C145.608 97.7821 150.593 106.35 154.952 115.671C159.315 125.002 163.026 135.035 164.416 144.217C165.808 153.418 164.843 161.576 160.103 167.367C158.742 169.028 156.753 169.95 155.022 170.452C154.166 170.7 153.4 170.838 152.849 170.914C152.574 170.952 152.355 170.974 152.207 170.986C152.133 170.992 152.077 170.996 152.041 170.998L152.012 171H100.231L119.131 80.7047L119.152 80.6034V80.4998V70H134.831V80.8268Z" fill="url(#paint1_linear_4059_56916)"/>
<path d="M134.831 80.8268V81.1487L135.019 81.4101L135.831 80.8268C135.019 81.4101 135.019 81.4102 135.019 81.4105L135.021 81.4124L135.026 81.4203L135.05 81.4531C135.071 81.4825 135.102 81.5268 135.144 81.5856C135.227 81.7033 135.351 81.8791 135.513 82.1099C135.835 82.5715 136.306 83.2532 136.9 84.1304C138.087 85.8848 139.762 88.4204 141.71 91.5401C145.608 97.7821 150.593 106.35 154.952 115.671C159.315 125.002 163.026 135.035 164.416 144.217C165.808 153.418 164.843 161.576 160.103 167.367C158.742 169.028 156.753 169.95 155.022 170.452C154.166 170.7 153.4 170.838 152.849 170.914C152.574 170.952 152.355 170.974 152.207 170.986C152.133 170.992 152.077 170.996 152.041 170.998L152.012 171H100.231L119.131 80.7047L119.152 80.6034V80.4998V70H134.831V80.8268Z" fill="black" fill-opacity="0.4"/>
<path d="M134.831 80.8268V81.1487L135.019 81.4101L135.831 80.8268C135.019 81.4101 135.019 81.4102 135.019 81.4105L135.021 81.4124L135.026 81.4203L135.05 81.4531C135.071 81.4825 135.102 81.5268 135.144 81.5856C135.227 81.7033 135.351 81.8791 135.513 82.1099C135.835 82.5715 136.306 83.2532 136.9 84.1304C138.087 85.8848 139.762 88.4204 141.71 91.5401C145.608 97.7821 150.593 106.35 154.952 115.671C159.315 125.002 163.026 135.035 164.416 144.217C165.808 153.418 164.843 161.576 160.103 167.367C158.742 169.028 156.753 169.95 155.022 170.452C154.166 170.7 153.4 170.838 152.849 170.914C152.574 170.952 152.355 170.974 152.207 170.986C152.133 170.992 152.077 170.996 152.041 170.998L152.012 171H100.231L119.131 80.7047L119.152 80.6034V80.4998V70H134.831V80.8268Z" stroke="black" stroke-width="2"/>
<path d="M103 116H135L140 122L152 169.5L149.5 175H96L101 140H98.5L103 116Z" fill="#4B382C" stroke="black" stroke-width="2"/>
<path d="M101.5 175L108.5 116H123V170L111 175H101.5Z" fill="black" fill-opacity="0.2" stroke="black" stroke-width="2"/>
<path opacity="0.3" d="M149 192H98L95 176H150L153 180L149 192Z" fill="url(#paint2_linear_4059_56916)"/>
<path d="M127 170.333L131 168V175H127V170.333Z" fill="#363636"/>
<path d="M131 168L127 170.333V175H131V168ZM131 168V166H117V163" stroke="black" stroke-width="2"/>
<path d="M127 157.333L131 155V162H127V157.333Z" fill="#363636"/>
<path d="M131 155L127 157.333V162H131V155ZM131 155V153H117V150" stroke="black" stroke-width="2"/>
<defs>
<linearGradient id="paint0_linear_4059_56916" x1="132.478" y1="69" x2="132.478" y2="172" gradientUnits="userSpaceOnUse">
<stop stop-color="#564B35"/>
<stop offset="1" stop-color="#3A372F"/>
</linearGradient>
<linearGradient id="paint1_linear_4059_56916" x1="132.5" y1="69" x2="132.5" y2="172" gradientUnits="userSpaceOnUse">
<stop stop-color="#564B35"/>
<stop offset="1" stop-color="#3A372F"/>
</linearGradient>
<linearGradient id="paint2_linear_4059_56916" x1="123" y1="176" x2="123" y2="192" gradientUnits="userSpaceOnUse">
<stop/>
<stop offset="1" stop-opacity="0"/>
</linearGradient>
</defs>
</svg>
