<svg width="240" height="192" viewBox="0 0 240 192" fill="none" xmlns="http://www.w3.org/2000/svg">
<path d="M116 58L112 60L111 65L111.5 67L110 70.5L111 71L112 76H116L117 79L125 76L124.5 74L127 68V62L124.5 58H116Z" fill="#BCAA95"/>
<path d="M117 79L116 76H112L111 71L110 70.5L111.5 67L111 65L112 60L116 58H124.5L127 62V68L124.5 74L125 76L117 79ZM117 79H112V83H115" stroke="black" stroke-width="2"/>
<rect opacity="0.2" x="117" y="73" width="5" height="5" fill="black"/>
<rect x="113" y="68" width="2" height="2" transform="rotate(-90 113 68)" fill="black"/>
<path d="M119 67H121V70L119 72" stroke="#1F1F1F" stroke-width="2"/>
<mask id="path-6-inside-1_4060_57264" fill="white">
<path fill-rule="evenodd" clip-rule="evenodd" d="M123 56.1546V54.9997C115.207 54.2912 110.246 57.305 108.5 64.9996H117V69.9998L116 74.9998L114 77.9998L129 73.9998L129 71.9998H132L130.017 67.4664C130.073 60.902 129.954 56.9607 123 56.1546Z"/>
</mask>
<path fill-rule="evenodd" clip-rule="evenodd" d="M123 56.1546V54.9997C115.207 54.2912 110.246 57.305 108.5 64.9996H117V69.9998L116 74.9998L114 77.9998L129 73.9998L129 71.9998H132L130.017 67.4664C130.073 60.902 129.954 56.9607 123 56.1546Z" fill="#978F8F"/>
<path d="M123 56.1546H121V57.9361L122.77 58.1413L123 56.1546ZM123 54.9997H125V53.1733L123.181 53.008L123 54.9997ZM108.5 64.9996L106.55 64.5571L105.995 66.9996H108.5V64.9996ZM117 64.9996H119V62.9996H117V64.9996ZM117 69.9998L118.961 70.3921L119 70.1979V69.9998H117ZM116 74.9998L117.664 76.1092L117.884 75.78L117.961 75.3921L116 74.9998ZM114 77.9998L112.336 76.8904L109.398 81.2968L114.515 79.9323L114 77.9998ZM129 73.9998L129.515 75.9323L131 75.5364L131 73.9998L129 73.9998ZM129 71.9998V69.9998H127L127 71.9998L129 71.9998ZM132 71.9998V73.9998H135.058L133.832 71.1982L132 71.9998ZM130.017 67.4664L128.017 67.449L128.013 67.8764L128.184 68.268L130.017 67.4664ZM125 56.1546V54.9997H121V56.1546H125ZM123.181 53.008C119.015 52.6291 115.315 53.2175 112.371 55.186C109.399 57.1731 107.501 60.3623 106.55 64.5571L110.45 65.4422C111.244 61.9424 112.7 59.7774 114.594 58.5111C116.516 57.2261 119.193 56.6618 122.819 56.9915L123.181 53.008ZM108.5 66.9996H117V62.9996H108.5V66.9996ZM115 64.9996V69.9998H119V64.9996H115ZM115.039 69.6076L114.039 74.6076L117.961 75.3921L118.961 70.3921L115.039 69.6076ZM114.336 73.8904L112.336 76.8904L115.664 79.1092L117.664 76.1092L114.336 73.8904ZM114.515 79.9323L129.515 75.9323L128.485 72.0674L113.485 76.0674L114.515 79.9323ZM131 73.9998L131 71.9998L127 71.9998L127 73.9998L131 73.9998ZM129 73.9998H132V69.9998H129V73.9998ZM133.832 71.1982L131.849 66.6647L128.184 68.268L130.168 72.8015L133.832 71.1982ZM122.77 58.1413C124.34 58.3233 125.352 58.6649 126.018 59.0597C126.646 59.4315 127.043 59.8935 127.326 60.4987C127.63 61.1488 127.827 62.0177 127.929 63.2137C128.032 64.4102 128.031 65.7946 128.017 67.449L132.017 67.4837C132.031 65.856 132.036 64.286 131.915 62.8721C131.794 61.4577 131.537 60.0601 130.949 58.8036C130.34 57.5021 129.406 56.4173 128.057 55.6183C126.747 54.8422 125.137 54.3889 123.23 54.1679L122.77 58.1413Z" fill="black" mask="url(#path-6-inside-1_4060_57264)"/>
<rect x="116.884" y="60.7012" width="2" height="3" transform="rotate(30 116.884 60.7012)" fill="black"/>
<path opacity="0.2" d="M124 67V71L122 75" stroke="black" stroke-width="2"/>
</svg>
