<svg width="24" height="24" viewBox="0 0 24 24" fill="none" xmlns="http://www.w3.org/2000/svg">
<path fill-rule="evenodd" clip-rule="evenodd" d="M14.0002 2H11.0002V5H9.0002V8.26756C9.59801 8.61337 10.0002 9.25972 10.0002 10C10.0002 10.7403 9.59801 11.3866 9.0002 11.7324V22H11.0002V15H13.0002V22H15.0002V14.4141L17.95 17.364L19.3643 15.9497L15.0002 11.5857V5H14.0002V2ZM11.0002 9V7H13.0002V9H11.0002ZM11.0002 13V11H13.0002V13H11.0002Z" fill="#B3926B"/>
<path fill-rule="evenodd" clip-rule="evenodd" d="M8 14C5.79086 14 4 12.2091 4 10C4 7.79086 5.79086 6 8 6C10.2091 6 12 7.79086 12 10C12 12.2091 10.2091 14 8 14ZM8 12C6.89543 12 6 11.1046 6 10C6 8.89543 6.89543 8 8 8C9.10457 8 10 8.89543 10 10C10 11.1046 9.10457 12 8 12Z" fill="#B3926B"/>
</svg>
