<svg width="16" height="16" viewBox="0 0 16 16" fill="none" xmlns="http://www.w3.org/2000/svg">
<path fill-rule="evenodd" clip-rule="evenodd" d="M4 3L2 6L7.9997 14.0001C7.99981 13.2492 7.99989 12.5892 7.99993 11.9999L6 9H7.99995C7.99992 8.60927 7.99988 8.24777 7.99984 7.89353V7.89271L7.9997 5.42131L4 3ZM8.00007 12.0001C8.00011 12.5894 8.00019 13.2493 8.0003 14.0001L8.70603 13.059L8.00007 12.0001ZM11.7501 9H8.00005C8.00008 8.60927 8.00012 8.24777 8.00016 7.89353V7.89271L8.0003 5.42131L12 3L14 6L11.7501 9Z" fill="#FF6636"/>
<path d="M8 10H16L12 16L8 10Z" fill="#FF6636"/>
</svg>
