<svg width="24" height="24" viewBox="0 0 24 24" fill="none" xmlns="http://www.w3.org/2000/svg">
<path d="M19.7389 5.01843C18.3223 4.35561 16.8075 3.8739 15.2239 3.59961C15.0294 3.95124 14.8022 4.42419 14.6455 4.80042C12.9621 4.54725 11.2941 4.54725 9.6416 4.80042C9.48497 4.42419 9.25259 3.95124 9.05636 3.59961C7.47101 3.8739 5.95451 4.35738 4.53785 5.02194C1.68043 9.33987 0.905831 13.5505 1.29313 17.7014C3.18832 19.1167 5.02499 19.9765 6.83066 20.5391C7.27649 19.9255 7.67411 19.2732 8.01665 18.5858C7.36427 18.3379 6.73943 18.032 6.14903 17.6768C6.30566 17.5608 6.45887 17.4395 6.60689 17.3147C10.2079 18.9989 14.1205 18.9989 17.6785 17.3147C17.8283 17.4395 17.9814 17.5608 18.1364 17.6768C17.5442 18.0337 16.9177 18.3396 16.2653 18.5876C16.6078 19.2732 17.0037 19.9272 17.4513 20.5408C19.2587 19.9782 21.0971 19.1185 22.9923 17.7014C23.4467 12.8895 22.2159 8.71749 19.7389 5.01843ZM8.50724 15.1487C7.42625 15.1487 6.53975 14.1395 6.53975 12.9106C6.53975 11.6817 7.40732 10.6708 8.50724 10.6708C9.60719 10.6708 10.4937 11.6799 10.4747 12.9106C10.4764 14.1395 9.60719 15.1487 8.50724 15.1487ZM15.7782 15.1487C14.6972 15.1487 13.8107 14.1395 13.8107 12.9106C13.8107 11.6817 14.6782 10.6708 15.7782 10.6708C16.8781 10.6708 17.7646 11.6799 17.7456 12.9106C17.7456 14.1395 16.8781 15.1487 15.7782 15.1487Z" fill="#B3926B"/>
</svg>
