<svg width="16" height="16" viewBox="0 0 16 16" fill="none" xmlns="http://www.w3.org/2000/svg">
<path d="M11 15L13 13L15 11H11V15Z" fill="#AAC2D0"/>
<path d="M9.10132 7.10156L11.1013 5.10156L13.1013 3.10156H9.10132V7.10156Z" fill="#AAC2D0"/>
<path d="M3.10132 13.1016L5.10132 11.1016L7.10132 9.10156H3.10132V13.1016Z" fill="#AAC2D0"/>
<path fill-rule="evenodd" clip-rule="evenodd" d="M12.1014 12.1014C12.1014 12.1014 5.21026 12.1475 3.10143 9.10143C1.5296 6.83101 2.10143 2.10143 2.10143 2.10143C2.10143 2.10143 6.83101 1.5296 9.10143 3.10143C12.1475 5.21026 12.1014 12.1014 12.1014 12.1014ZM5.10132 3.10147C4.54903 3.10147 4.10132 3.54918 4.10132 4.10147C4.10132 4.65375 4.54903 5.10147 5.10132 5.10147C5.6536 5.10147 6.10132 4.65375 6.10132 4.10147C6.10132 3.54918 5.6536 3.10147 5.10132 3.10147Z" fill="#AAC2D0"/>
</svg>
