<svg width="24" height="24" viewBox="0 0 24 24" fill="none" xmlns="http://www.w3.org/2000/svg">
<path fill-rule="evenodd" clip-rule="evenodd" d="M9.99996 2H13V5H14V11.5857L18.364 15.9497L16.9498 17.364L14 14.4141V22H12V15H9.99996V22H7.99996V13.874C7.68035 13.9563 7.34528 14 7 14C4.79086 14 3 12.2091 3 10C3 7.79086 4.79086 6 7 6C7.34528 6 7.68035 6.04375 7.99996 6.12601V5H9.99996V2ZM10.874 9C10.7146 8.3806 10.4105 7.81926 9.99996 7.35413V7H12V9H10.874ZM9.99996 12.6459C10.4105 12.1807 10.7146 11.6194 10.874 11H12V13H9.99996V12.6459ZM7.99996 8.26754C7.7058 8.09739 7.36427 8 7 8C5.89543 8 5 8.89543 5 10C5 11.1046 5.89543 12 7 12C7.36427 12 7.7058 11.9026 7.99996 11.7325V11.7324C8.59776 11.3866 8.99996 10.7403 8.99996 10C8.99996 9.25972 8.59776 8.61337 7.99996 8.26756V8.26754Z" fill="#B3926B"/>
<path fill-rule="evenodd" clip-rule="evenodd" d="M20 3H18V5L16 5V7H18V9H20V7H22V5L20 5V3Z" fill="#B3926B"/>
</svg>
