<svg width="24" height="24" viewBox="0 0 24 24" fill="none" xmlns="http://www.w3.org/2000/svg">
<path fill-rule="evenodd" clip-rule="evenodd" d="M10 0L11 1.25L14 0V2.68307C14.9425 2.94987 15.8339 3.39216 16.652 3.95323L18.7876 1.81763L21.6001 5.21174L19.8905 7.27486C20.4909 8.1731 20.9529 9.10876 21.2444 10H24V14H21.2444C20.9737 14.8278 20.5559 15.6939 20.0166 16.5328L21.6 18L18.7875 22.182L16.6522 20.0467C15.834 20.6078 14.9426 21.0502 14 21.317V24H10V21.3695C8.80075 21.0902 7.68418 20.5692 6.69612 19.8734L4.80005 21.7694L1.40594 18.3753L3.5127 16.2686C3.12687 15.5456 2.8319 14.7821 2.6429 14H0V10H2.64291C2.87826 9.02618 3.27792 8.08109 3.81271 7.20726L2.16521 5.55976L5.55933 2.16565L7.19241 3.79873C8.05264 3.26645 8.99742 2.86406 10 2.63057V0ZM14.399 7.84224C15.9579 8.74224 17.4814 12.1034 16.1559 14.3992C14.8305 16.695 11.6775 17.3561 9.59901 16.1561C7.52055 14.9561 6.51661 11.895 7.84209 9.59916C9.16757 7.30335 12.8402 6.94223 14.399 7.84224Z" fill="#00F160" fill-opacity="0.3"/>
</svg>
