<svg width="24" height="24" viewBox="0 0 24 24" fill="none" xmlns="http://www.w3.org/2000/svg">
<path fill-rule="evenodd" clip-rule="evenodd" d="M12 21.6C17.302 21.6 21.6 15.6 21.6 12C21.6 8.39999 17.302 2.39999 12 2.39999C6.69809 2.39999 2.40002 7.19999 2.40002 12C2.40002 16.8 6.69809 21.6 12 21.6ZM16.1561 14.3991C17.4815 12.1033 15.958 8.7422 14.3991 7.8422C12.8403 6.9422 9.1677 7.30332 7.84221 9.59913C6.51673 11.8949 7.52067 14.956 9.59913 16.156C11.6776 17.356 14.8306 16.6949 16.1561 14.3991Z" fill="white"/>
<path d="M10 0L11 1.25L14 0V5H10V0Z" fill="white"/>
<rect y="10" width="5" height="4" fill="white"/>
<rect x="19" y="10" width="5" height="4" fill="white"/>
<rect x="10" y="19" width="4" height="5" fill="white"/>
<path d="M18.7875 1.81757L21.6 5.21168L18.7875 8.60579L15.3934 5.21168L18.7875 1.81757Z" fill="white"/>
<rect x="5.55939" y="2.16562" width="4.30862" height="4.8" transform="rotate(45 5.55939 2.16562)" fill="white"/>
<path d="M18.7875 15.3937L21.6 18L18.7875 22.182L15.3934 18.7879L18.7875 15.3937Z" fill="white"/>
<path d="M4.79999 14.9813L8.1941 18.3754L4.79999 21.7695L1.40587 18.3754L4.79999 14.9813Z" fill="white"/>
</svg>
