<svg width="52" height="52" viewBox="0 0 52 52" fill="none" xmlns="http://www.w3.org/2000/svg">
<path d="M39.0004 33.0015L19.0002 13.0016" stroke="black" stroke-width="2"/>
<path d="M46.0005 9.00171L31.0005 24.0017L28.0005 21.0017L43.0005 6.00171L46.0005 9.00171Z" fill="black"/>
<path fill-rule="evenodd" clip-rule="evenodd" d="M30.0005 22.0017H26.0005L4.00049 44.0017V48.0017H8.00049L30.0005 26.0017V22.0017Z" fill="#8B9DA5"/>
<path d="M14.0005 34.0017L17.0005 31.0017V39.0017L14.0005 42.0017V34.0017Z" fill="#D9D9D9"/>
<path d="M48.0005 11.0017L41.0005 4.00171" stroke="black" stroke-width="2"/>
<path fill-rule="evenodd" clip-rule="evenodd" d="M6.58652 48.0017L29.0005 25.5877L29.0006 23.0021L26.4147 23.002L4.00049 45.416V42.5875L25.2934 21.2949L25.5863 21.002L26.0005 21.002L30.0006 21.0021L31.0006 21.0021L31.0006 22.0021L31.0005 26.002L31.0005 26.4162L30.7076 26.7091L9.41494 48.0017H6.58652Z" fill="black"/>
</svg>
