<svg width="128" height="144" viewBox="0 0 128 144" fill="none" xmlns="http://www.w3.org/2000/svg">
<path d="M101.582 80.6501L81.6638 69.1501L80.6638 70.8822L100.582 82.3822L101.582 80.6501Z" fill="#B28C52" stroke="black" stroke-width="2"/>
<path d="M70 37.3643L89.5271 37.2617L89.5271 53.6349L74.599 53.7229L70 37.3643Z" fill="#AD793C" stroke="black" stroke-width="2"/>
<path d="M77.02 51.0162L90.0202 51.0162L90.0202 71.0161L77.02 71.0161L77.02 51.0162Z" fill="#B28C52" stroke="black" stroke-width="2"/>
<path d="M77.5201 53.0161L77.5201 49.0161L84.0201 51.0161L90.0201 49.0161L90 46.0161L93.0201 51.0161L90 56.0161L90.0201 53.0161L84.0201 51.0161L77.5201 53.0161Z" fill="black"/>
<path d="M84.0201 51.0161L90.0201 53.0161L90 56.0161L93.0201 51.0161L90 46.0161L90.0201 49.0161L84.0201 51.0161ZM84.0201 51.0161L77.5201 53.0161L77.5201 49.0161L84.0201 51.0161Z" stroke="black" stroke-width="2"/>
<path d="M90.52 72.0162L87.5201 77.5162L84.0201 77.5161L80.6158 71.0275L87.52 66.0161L90.52 72.0162Z" fill="black" stroke="black" stroke-width="2"/>
<path d="M97.8182 88.7422L105.818 74.8858" stroke="black" stroke-width="2"/>
<path d="M109.546 79.7434L94.0907 83.8845" stroke="black" stroke-width="2"/>
<path d="M103.889 89.5415L99.7476 74.0867" stroke="black" stroke-width="2"/>
<path d="M94.89 77.814L108.746 85.814" stroke="black" stroke-width="2"/>
<rect x="96.9191" y="78.9856" width="8" height="8" transform="rotate(-15 96.9191 78.9856)" fill="black"/>
<path d="M77.9797 39.9998L82.0862 44.9999L94.6282 45C94.6281 34.9624 86 26 77.9798 26L77.9797 39.9998Z" fill="#B28C52"/>
<path d="M96.9797 45L94.6282 45M94.6282 45L82.0862 44.9999L77.9797 39.9998L77.9798 26C86 26 94.6281 34.9624 94.6282 45Z" stroke="black" stroke-width="2"/>
<path d="M84 42L84 45" stroke="black" stroke-width="2"/>
<path d="M90 42L90 45" stroke="black" stroke-width="2"/>
<path d="M96 42L96 46" stroke="black" stroke-width="2"/>
</svg>
