<svg width="128" height="128" viewBox="0 0 128 128" fill="none" xmlns="http://www.w3.org/2000/svg">
<path d="M49.5164 44.322L32.5164 44.3221L31.4961 58.6098L46.4289 58.6098L49.5164 44.322Z" fill="#B28C52" stroke="black" stroke-width="2"/>
<path d="M29.9999 66L30 57.9999L38.0001 61.0002L38 74L29.9999 66Z" fill="black" stroke="black" stroke-width="2"/>
<path d="M55.4142 48H67V82.382L52 89.882L37 82.382V48H48.5858L51.2929 50.7071L52 51.4142L52.7071 50.7071L55.4142 48Z" fill="#AD793C" stroke="black" stroke-width="2"/>
<path d="M52 51V89" stroke="black" stroke-width="2"/>
<path d="M50.9999 26H48.6909C37.8679 26 29.0942 34.5066 29.0942 45L45.5968 44.9999L50.9999 44.9998L51 39.9998L50.9999 26Z" fill="#C1C1C1"/>
<path d="M27 45H29.0942M29.0942 45L45.5968 44.9999L50.9999 44.9998L51 39.9998L50.9999 26L48.6909 26C37.8679 26 29.0942 34.5066 29.0942 45Z" stroke="black" stroke-width="2"/>
<path d="M57 38L57 22L51 26L51.0001 42L55 38L57 38Z" fill="#F27155" stroke="black" stroke-width="2"/>
<circle cx="52.5" cy="38.5" r="4.5" fill="#B28C52" stroke="black" stroke-width="2"/>
<path d="M28 42L28 45" stroke="black" stroke-width="2"/>
<path d="M33 42L33 45" stroke="black" stroke-width="2"/>
<path d="M39 42L39 45" stroke="black" stroke-width="2"/>
<path d="M45 42L45 45" stroke="black" stroke-width="2"/>
<path d="M51 42L51 46" stroke="black" stroke-width="2"/>
</svg>
