<svg width="128" height="128" viewBox="0 0 128 128" fill="none" xmlns="http://www.w3.org/2000/svg">
<path d="M53.9485 127L46.1708 127L46.1708 122.385L47.0597 107L57.9486 107L53.9485 122.385L53.9485 127Z" fill="black" stroke="black" stroke-width="2"/>
<path d="M65.0146 127L79.0203 127L72.7842 122.539L75.8921 107L65.0147 107L65.0146 115.547L65.0146 127Z" fill="black" stroke="black" stroke-width="2"/>
<path d="M43.969 111.89L47.9509 65.1098H67.1267L60.2806 111.89H43.969Z" fill="#AD793C" stroke="black" stroke-width="2"/>
<path d="M81 65.5292L66.1787 65.5291L63 112L78.0001 112L81 83.1742L81 65.5292Z" fill="#AD793C" stroke="black" stroke-width="2"/>
<path d="M64 97L70.0203 97L74.5203 101L79.0203 97L82 97" stroke="black" stroke-width="2"/>
<path d="M45.1708 97L49.6708 97L54.1708 101L58.6708 97L63.1708 97" stroke="black" stroke-width="2"/>
</svg>
