<svg width="128" height="149" viewBox="0 0 128 149" fill="none" xmlns="http://www.w3.org/2000/svg">
<path d="M55 128L45 128L45 122L46 107L59 107L55 122L55 128Z" fill="black"/>
<path d="M64 128L80 128L74 123L77 107L64.0001 107L64 128Z" fill="black"/>
<path opacity="0.3" d="M55 128L45 128L45 134L46 149L59 149L55 134L55 128Z" fill="url(#paint0_linear_3511_13875)"/>
<path opacity="0.3" d="M64 128L80 128L74 133L77 149L64.0001 149L64 128Z" fill="url(#paint1_linear_3511_13875)"/>
<path d="M44.085 112L47.9217 65H66.847L60.1325 112H44.085Z" fill="#AD793C" stroke="black" stroke-width="2"/>
<path d="M81 65L66 65L63 112L78 112L81 83V65Z" fill="#AD793C" stroke="black" stroke-width="2"/>
<path d="M64 97L71 97L75 101L79.0203 97L82 97" stroke="black" stroke-width="2"/>
<path d="M45 97L50 97L54 101L58 97L63 97" stroke="black" stroke-width="2"/>
<defs>
<linearGradient id="paint0_linear_3511_13875" x1="52" y1="128" x2="52" y2="149" gradientUnits="userSpaceOnUse">
<stop/>
<stop offset="1" stop-opacity="0"/>
</linearGradient>
<linearGradient id="paint1_linear_3511_13875" x1="72" y1="128" x2="72" y2="149" gradientUnits="userSpaceOnUse">
<stop/>
<stop offset="1" stop-opacity="0"/>
</linearGradient>
</defs>
</svg>
