<svg width="128" height="128" viewBox="0 0 128 128" fill="none" xmlns="http://www.w3.org/2000/svg">
<path d="M36.2045 73.9619L31.9564 78.4993L51.2405 96.5536L51.9823 88.7335L36.2045 73.9619Z" fill="#AD9D74"/>
<rect width="3.4645" height="21.4972" transform="matrix(-0.613087 0.654846 0.654851 0.613082 21.0647 61.917)" fill="#AD9D74"/>
<rect width="3.46449" height="17.3225" transform="matrix(0.65485 0.613083 0.613086 -0.654848 26.5013 79.7783)" fill="#AD9D74"/>
<path d="M36.5 58.5C40.5047 61.0443 48.9668 61.5 48.9668 61.5L48.9668 53L55 41L55 31L47.5 31L46 31L43 31L28.9999 43C28.9999 43 30.296 54.5584 36.5 58.5Z" fill="#364C3C"/>
<path d="M46 31L43 31L28.9999 43C28.9999 43 30.296 54.5584 36.5 58.5C40.5047 61.0443 48.9668 61.5 48.9668 61.5L48.9668 53L55 41L55 31L47.5 31L46 31ZM46 31L46 25" stroke="black" stroke-width="2"/>
<path d="M26.4597 65.6295L31.0638 50.0711C31.0638 50.0711 35.0987 49.2414 37.4974 50.3826C40.3056 51.7187 42.5605 56.5601 42.5605 56.5601L37.684 62.565L31.724 69.9045L26.4597 65.6295Z" fill="#6C6952" stroke="black" stroke-width="2"/>
<path d="M25.4999 73.5L27.4997 65L30.9999 66L33.7925 70.3326L31.9917 72.9429L29.7907 76.1332L25.4999 73.5Z" fill="#6C6952" stroke="black" stroke-width="2"/>
</svg>
