<svg width="128" height="144" viewBox="0 0 128 144" fill="none" xmlns="http://www.w3.org/2000/svg">
<path d="M73 9L57 12L59 15L53 24L56 29L69 35L75 29L73 25V9Z" fill="#6C6952"/>
<path d="M69 35L75 29L73 25V9L57 12L59 15L53 24L56 29M69 35L74 37.5M69 35L56 29M56 29H52" stroke="black" stroke-width="2"/>
<path d="M75 29L71 33L63 25L66 15L73 10V25L75 29Z" fill="url(#paint0_linear_3511_13950)" stroke="black" stroke-width="2"/>
<path d="M68 28L71 33L63 25L66 14H70L72 28H68Z" fill="black"/>
<defs>
<linearGradient id="paint0_linear_3511_13950" x1="69" y1="10" x2="69" y2="33" gradientUnits="userSpaceOnUse">
<stop/>
<stop offset="1" stop-opacity="0.54"/>
</linearGradient>
</defs>
</svg>
