<svg width="128" height="128" viewBox="0 0 128 128" fill="none" xmlns="http://www.w3.org/2000/svg">
<path d="M67 54H46.6471L39 80H67V54Z" fill="#364C3C" stroke="black" stroke-width="2"/>
<path d="M48.7843 57H79.5123L83 52L79.6103 25H57.1936L48.4142 28.7966L45 41.2712L48.7843 57Z" fill="#364C3C" stroke="black" stroke-width="2"/>
<path d="M48.7843 57H53V51.5L69.5 36.5L53.5 25H40L45 41.2712L48.7843 57Z" fill="#364C3C"/>
<path d="M79.5 25L69.5 36.5M69.5 36.5L53 51.5V57H48.7843L45 41.2712L40 25H53.5L69.5 36.5Z" stroke="black" stroke-width="2"/>
<path d="M80 57H53V80H84L83 63L80 57Z" fill="#364C3C" stroke="black" stroke-width="2"/>
<path d="M62 77H59V80H62V77Z" fill="black" stroke="black" stroke-width="2"/>
<path d="M71 77H68V80H71V77Z" fill="black" stroke="black" stroke-width="2"/>
<path d="M80 77H77V80H80V77Z" fill="black" stroke="black" stroke-width="2"/>
<path d="M71.5 57H80V63H71.5L75.5 60L71.5 57Z" fill="#6C6952" stroke="black" stroke-width="2"/>
<path d="M57.5 57H49V63H57.5L53.5 60L57.5 57Z" fill="#6C6952" stroke="black" stroke-width="2"/>
<path d="M68.5 57H60V63H68.5L64.5 60L68.5 57Z" fill="#6C6952" stroke="black" stroke-width="2"/>
</svg>
