<svg width="128" height="128" viewBox="0 0 128 128" fill="none" xmlns="http://www.w3.org/2000/svg">
<path d="M75.8446 34.3522L85.8248 53.3101L64.9061 73L64.9061 30.0789L68.7655 30.0788C71.7355 30.0788 74.461 31.7241 75.8446 34.3522Z" fill="#54609F" stroke="black" stroke-width="2"/>
<path d="M99.9629 66H90.5978L86.4148 63.5029L91.1047 58L100.47 58L99.9629 66Z" fill="#C1C1C1" stroke="black" stroke-width="2"/>
<path d="M91.2955 52.4623L76 52.4623L65.5672 73.9623L91.2955 85.1755L91.2955 52.4623Z" fill="#54609F" stroke="black" stroke-width="2"/>
<rect width="3.3449" height="124.854" transform="matrix(0.89372 0.0772275 -0.0772344 0.893719 103.827 16.0935)" fill="black"/>
<path d="M101.935 36.0046L108.909 36.6072L111.4 36.8225L110.078 34.7008L110.594 28.723L112.759 26.9026L110.938 24.7379L111.283 20.7527L114.616 17.0259" stroke="black" stroke-width="3"/>
<path d="M104.924 36.2629L97.95 35.6603L95.4593 35.445L97.1259 33.5816L97.6424 27.6039L95.822 25.4391L97.9868 23.6187L98.3312 19.6336L95.6867 15.3902" stroke="black" stroke-width="3"/>
<path d="M101.572 66H96.4558L94.085 63.5029L96.4592 58L100.5 52.5L101.572 66Z" fill="#C1C1C1" stroke="black" stroke-width="2"/>
<path d="M104.285 67H100.334L98.4129 63.8786L100.048 57H104L104.285 67Z" fill="#C1C1C1" stroke="black" stroke-width="2"/>
</svg>
