<svg width="128" height="144" viewBox="0 0 128 144" fill="none" xmlns="http://www.w3.org/2000/svg">
<path d="M50.8254 28C45.888 28 41.2271 30.2796 38.1958 34.1769L29 46.0001V59L58.0004 71.0002L58.0001 46.0001L51.5001 46.0001L51.4998 28H50.8254Z" fill="#263464"/>
<path d="M51.5001 46.0001L58.0001 46.0001L58.0004 71.0002L29 59V46.0001L38.1958 34.1769C41.2271 30.2796 45.888 28 50.8254 28H51.4998L51.5001 46.0001ZM51.5001 46.0001H44" stroke="black" stroke-width="2"/>
<path d="M63.3305 49.9863L70.8303 49.9863L87.8303 36.9863L75.3304 36.9864L66.3303 42.4862L57.3303 36.9864L41.8303 36.9864L63.3305 49.9863Z" fill="white" stroke="black" stroke-width="2"/>
<path d="M72 48L63.3801 55H58L58 47L60 47L62 49L67 48H72Z" fill="#C1C1C1"/>
<path d="M67 48H72L63.3801 55H58L58 47L60 47M67 48L70 46L73.5 44M67 48L62 49L60 47M60 47L56 43" stroke="black" stroke-width="2"/>
</svg>
