<svg width="128" height="144" viewBox="0 0 128 144" fill="none" xmlns="http://www.w3.org/2000/svg">
<path d="M41.5003 32.5L26.3304 49.4999L26.3304 59.5001L57.8307 79.0001L57.8304 46L51.5 46L51.5 32.5L41.5003 32.5Z" fill="#263464"/>
<path d="M51.5 46L47.3303 46L57.8304 46L57.8307 79.0001L26.3304 59.5001L26.3304 49.4999L41.5003 32.5L51.5 32.5L51.5 46Z" stroke="black" stroke-width="2"/>
<path d="M63.3305 49.9863L70.8303 49.9863L87.8303 36.9863L75.3304 36.9864L66.3303 42.4862L57.3303 36.9864L41.8303 36.9864L63.3305 49.9863Z" fill="white" stroke="black" stroke-width="2"/>
<path d="M68.8303 50.5L63.3301 55.5L58.0646 55.5L58.0646 46.9996L68.8303 46.9998L68.8303 50.5Z" fill="#C1C1C1" stroke="black" stroke-width="2"/>
</svg>
