<svg width="128" height="144" viewBox="0 0 128 144" fill="none" xmlns="http://www.w3.org/2000/svg">
<path d="M57 22V32H74V22H57Z" fill="black"/>
<path d="M37 25L92 27L71 18L65 4L59 18L37 25Z" fill="#263464" stroke="black" stroke-width="2"/>
<path d="M77 35L81 28H71L67 32L62 28H47L53 35H63L67 42L71 35H77Z" fill="#54609F" stroke="black" stroke-width="2"/>
<path d="M60.5858 25.0001L57.4142 25L59 23.4142L60.5858 25.0001Z" stroke="black" stroke-width="2"/>
<path d="M68.5858 25.0001L65.4142 25L67 23.4142L68.5858 25.0001Z" stroke="black" stroke-width="2"/>
<path d="M76.5858 25.0001L73.4142 25L75 23.4142L76.5858 25.0001Z" stroke="black" stroke-width="2"/>
</svg>
