<svg width="128" height="144" viewBox="0 0 128 144" fill="none" xmlns="http://www.w3.org/2000/svg">
<path d="M57 20V30H74V20H57Z" fill="black"/>
<path d="M37 23L92 25L71 16L65 3L59 16L37 23Z" fill="#263464" stroke="black" stroke-width="2"/>
<path d="M77 33L81 26H71L67 30L62 26H47L53 33H63L67 40L71 33H77Z" fill="#54609F" stroke="black" stroke-width="2"/>
<path d="M60.5858 23.0001L57.4142 23L59 21.4142L60.5858 23.0001Z" stroke="black" stroke-width="2"/>
<path d="M68.5858 23.0001L65.4142 23L67 21.4142L68.5858 23.0001Z" stroke="black" stroke-width="2"/>
<path d="M76.5858 23.0001L73.4142 23L75 21.4142L76.5858 23.0001Z" stroke="black" stroke-width="2"/>
</svg>
