<svg width="128" height="128" viewBox="0 0 128 128" fill="none" xmlns="http://www.w3.org/2000/svg">
<path d="M81 68H49.33L43.5 74L32 127H57.875H87.5L81 68Z" fill="#54609F" stroke="black" stroke-width="2"/>
<path d="M81 68H60.9999L61 127H57.875H87.5L81 68Z" fill="#263464" stroke="black" stroke-width="2"/>
<path d="M71.4142 81L74 78.4142L76.5858 81L74 83.5858L71.4142 81Z" fill="black" stroke="black" stroke-width="2"/>
<path d="M81 79.4142V82.5858L79.4142 81L81 79.4142Z" stroke="black" stroke-width="2"/>
<path d="M63.4142 81L66 78.4142L68.5858 81L66 83.5858L63.4142 81Z" fill="black" stroke="black" stroke-width="2"/>
<path d="M55.4142 81L58 78.4142L60.5858 81L58 83.5858L55.4142 81Z" stroke="black" stroke-width="2"/>
<path d="M61 122L67 128H55L61 122Z" fill="black"/>
</svg>
