<svg width="128" height="148" viewBox="0 0 128 148" fill="none" xmlns="http://www.w3.org/2000/svg">
<path d="M68 1H50V5H54H64H65H66L68 1Z" fill="#2A6295"/>
<path d="M50 5L54 11H36L40 8L36 5H50Z" fill="#2A6295"/>
<path d="M54 11L50 5H54V11Z" fill="#2A6295"/>
<path d="M54 11L50 5H54V11Z" fill="black" fill-opacity="0.6"/>
<path d="M50 5V1H68L66 5H65M50 5L54 11M50 5H36L40 8L36 11H54M50 5H54M54 11V5M64 5V15H65V5M64 5H65M64 5H54" stroke="black" stroke-width="2"/>
<path d="M71.725 11H57V18H64H68H72H76L71.725 11Z" fill="#767A86"/>
<path d="M76 18H78L73.9091 25.5V41L59 32H51L56 28V18H57H64H68H72H76Z" fill="#767A86"/>
<path d="M57 18V11H71.725L76 18M57 18H56V28L51 32H59L73.9091 41V25.5M57 18H64M76 18H78L73.9091 25.5M76 18H72M68 29H72L73.9091 25.5M72 18V21M72 18H68M68 18V21M68 18H64M64 18V21" stroke="black" stroke-width="2"/>
</svg>
