<svg width="128" height="145" viewBox="0 0 128 145" fill="none" xmlns="http://www.w3.org/2000/svg">
<path d="M68 7C68 5.89543 67.1046 5 66 5H52.5V9H54H62H68V7Z" fill="#2A6295"/>
<path d="M52.5 9L54 13H44L45 11L44 9H52.5Z" fill="#2A6295"/>
<path d="M54 13L52.5 9H54V13Z" fill="#2A6295"/>
<path d="M54 13L52.5 9H54V13Z" fill="black" fill-opacity="0.6"/>
<path d="M52.5 9V5H66C67.1046 5 68 5.89543 68 7V9H62M52.5 9L54 13M52.5 9H44L45 11L44 13H54M52.5 9H54M54 13V9M62 9V13H66V10M62 9H54" stroke="black" stroke-width="2"/>
<path d="M71.725 13H58V17.9998H64H68H72H75L71.725 13Z" fill="#767A86"/>
<path d="M75 17.9998H77L72 28V34.5L59 30H55.5L57 25.5V17.9998H58H64H68H72H75Z" fill="#767A86"/>
<path d="M58 17.9998V13H71.725L75 17.9998M58 17.9998H57V25.5L55.5 30H59L72 34.5V28M58 17.9998H64M75 17.9998H77L72 28M75 17.9998H72M68 28H72M72 17.9998V20.9998M72 17.9998H68M68 17.9998V20.9998M68 17.9998H64M64 17.9998V20.9998" stroke="black" stroke-width="2"/>
</svg>
