<svg width="252" height="200" viewBox="0 0 252 200" fill="none" xmlns="http://www.w3.org/2000/svg">
<path opacity="0.5" fill-rule="evenodd" clip-rule="evenodd" d="M143 184H218L190.502 173.133C226.902 155.48 252 118.171 252 75V71H143V154.36L33.2824 111L72.46 149.88C72.46 149.88 56.2194 142.49 44.9313 141.152C34.1687 139.877 18.3053 142.739 18.3053 142.739L41.2027 162.576L0 184H143Z" fill="url(#paint0_linear_3947_47951)"/>
<path opacity="0.5" d="M90.1667 21.795L80.916 26.2304L56.1149 10.0701L83.1772 39.0729L19.3181 3.75732C29.3754 16.1612 31.3073 24.4657 37.8993 38.0834C52.4423 68.1259 152 89.0002 152 89.0002L152 68.4999L108.5 26.2302L116.5 53.0002L90.1667 21.795Z" fill="url(#paint1_linear_3947_47951)"/>
<path fill-rule="evenodd" clip-rule="evenodd" d="M100.23 58.7302L56.2739 33.3522L57.8034 30.7485L101.086 55.738L135.147 47.3229L136.871 45.1135H144.036L143.044 43.1614L165.798 34.7503L178.355 42.0003L175.11 43.621L169.296 53.6919L175.5 56.5001L180.866 61.9879L183.388 52.574L216.23 61.3738L209.181 87.6812L190.55 98.9105L209.5 109.5L216.5 152L219 156.5L227 162L227.5 165L214.5 162.5L211.5 160H205L207.5 152L195.5 119L166 113L151.5 144.5L133 133.5L131 136.5V143L125 139L125.945 126.246H132.945L142.5 124L143 100.5L136.576 79.7148L127.886 74.6977L132 82.0002L118 76.5002L100.23 58.7302ZM175.5 90.5002L165.041 66.0003H171L178.393 71.2184L176.339 78.8813L186.001 96.3684L175.5 90.5002ZM133.827 74.6406L124.975 69.5304L122.423 65.0002L132.14 65.361L135.265 75.4707L178.984 100.712L177.455 103.316L132.297 77.2441L133.827 74.6406Z" fill="url(#paint2_linear_3947_47951)"/>
<defs>
<linearGradient id="paint0_linear_3947_47951" x1="220" y1="184" x2="178.887" y2="78.6723" gradientUnits="userSpaceOnUse">
<stop stop-color="white"/>
<stop offset="1" stop-color="white" stop-opacity="0"/>
</linearGradient>
<linearGradient id="paint1_linear_3947_47951" x1="162.329" y1="50.6836" x2="65.2967" y2="129.359" gradientUnits="userSpaceOnUse">
<stop stop-color="white"/>
<stop offset="1" stop-color="white" stop-opacity="0"/>
</linearGradient>
<linearGradient id="paint2_linear_3947_47951" x1="192.419" y1="32.1342" x2="111.105" y2="159.027" gradientUnits="userSpaceOnUse">
<stop offset="0.380208" stop-color="white"/>
<stop offset="1" stop-color="white" stop-opacity="0"/>
</linearGradient>
</defs>
</svg>
