<svg width="252" height="200" viewBox="0 0 252 200" fill="none" xmlns="http://www.w3.org/2000/svg">
<path d="M147.67 130.817L132.708 126.736L144.949 132.857L154.47 130.817L157.871 134.897L162.631 133.537L164.671 134.897L165.351 138.977L176.232 146.458L174.872 149.179L182.353 156.659C180.54 154.619 176.913 150.403 176.913 149.859C176.913 149.315 178.273 147.365 178.953 146.458L168.072 139.658L167.392 135.577L164.671 130.817L158.551 133.537L156.51 130.817C157.871 129.91 160.727 128.096 161.271 128.096C161.815 128.096 162.858 125.829 163.311 124.696L172.152 115.175L183.713 107.014L198.675 100.213L207.516 98.1733L206.836 100.894C208.422 99.7601 211.868 97.3572 212.956 96.8131C214.316 96.1331 229.958 76.411 230.638 75.731C231.182 75.1869 235.852 56.9157 238.119 47.8481L240.839 39.6872L227.918 56.689L214.996 56.0089C211.256 58.2758 203.707 62.8096 203.435 62.8096H197.995L185.753 58.0491L170.792 56.0089L167.392 53.9687L163.311 53.2887L161.951 50.5684L153.535 47.8481L135.428 30.8463L131.348 22.0054L133.388 15.2047L132.708 14.9497L129.988 22.0054L132.028 28.8061L124.547 25.4058L127.267 20.6453L125.227 12.4844L134.748 11.1243L133.388 13.1645L134.748 13.8446L152.949 13.0037L155.67 9.60333L164.43 4L175.911 12.0019L164.43 2.12256L152.269 8.92326L122.507 10.4442L110.266 11.8044L102.785 8.40403L97.3444 7.72396L96.6643 10.4442H100.065L104.145 13.8446L106.185 19.9652L104.145 26.0858L117.066 32.8865L119.787 36.967H121.827L131.348 41.7275L132.708 41.0474L148.35 47.8481L151.75 51.2484H154.47L159.911 54.6488L163.991 58.7292H166.712L168.072 60.4294L172.832 60.0893L178.953 66.55L195.955 73.6908L201.395 76.411L220.437 74.3708L206.156 92.7327L195.955 98.1733L176.913 107.014L169.432 113.815L166.712 115.175L160.591 125.376L154.47 128.776L147.67 130.817Z" fill="url(#paint0_linear_3981_16009)"/>
<path d="M132.708 121.296L141.549 129.456L137.469 130.817L146.99 135.577L160.591 149.859H163.311L165.351 147.818L168.752 159.38L166.712 164.14L169.177 164.82L187.794 147.138L190.514 149.859L192.554 148.498L195.275 147.138L197.995 149.859L200.035 150.539C199.808 151.899 199.355 154.755 199.355 155.299C199.355 155.843 201.622 153.712 202.755 152.579L204.115 150.539V148.498L205.476 146.458L202.075 147.818L201.395 144.418L205.476 138.977L206.836 138.297L210.236 136.257H213.636L214.997 135.577L214.317 138.977V143.738L204.115 151.219L205.476 151.899L203.435 153.259L206.836 154.619L210.916 149.859L213.636 147.138L214.997 149.179L212.276 149.859L209.556 151.899L210.236 152.579L212.956 150.539H216.357V148.498C215.677 147.592 214.18 145.778 213.636 145.778C213.092 145.778 215.677 143.511 217.037 142.378H214.997V138.977L216.357 134.217L214.997 133.537L214.317 134.897L210.916 135.577L206.836 136.937L214.317 127.416V130.137L217.037 129.456L235.399 108.374L238.799 107.694L236.079 112.455L240.159 109.734L238.799 116.535L239.479 120.616V118.575L249 100.213L238.799 98.8533L240.839 92.7327L221.797 104.294H220.437L222.477 98.1733L225.878 96.1331H229.958L230.638 96.8131V95.453L228.598 86.6121L225.878 91.3726H223.157L221.117 96.1331L216.357 99.5334L219.077 94.7729L214.317 101.574L221.797 96.8131L223.157 92.7327L226.558 92.0527L228.088 88.6523L229.958 95.453H225.878L222.477 97.1957L219.757 103.614L220.437 98.1733L214.317 110.415L211.596 111.775L200.035 126.056L202.075 115.855L206.156 108.374L206.836 103.189H209.556V108.374L212.956 110.415L210.916 108.374L209.556 102.254H206.156L204.796 108.374L201.395 115.175L199.355 126.056L192.554 134.217L193.914 125.376L184.393 145.098L185.074 148.498L183.033 147.818L172.832 158.019V153.939H170.792L176.913 140.338L177.593 135.577L165.351 143.058L166.032 140.338L162.631 142.378L157.191 137.617L148.35 133.537L136.789 121.976L131.348 111.095L125.227 97.4932L117.067 77.7712V72.3306L108.906 56.689L110.266 44.4478L91.2239 73.0107L87.8235 71.6506L81.7029 95.453L85.1032 102.934L88.5036 102.254L98.7046 113.815L100.745 114.495L106.865 119.936L138.149 129.456L110.266 119.255L106.185 114.495L91.9039 103.954L93.2641 101.574C92.8107 98.1733 91.7679 91.3726 91.2239 91.3726C90.6798 91.3726 100.972 79.1313 106.185 73.0107L106.865 68.9303L107.546 70.9705L119.787 98.1733L119.107 104.294L125.227 113.135H127.268L132.708 121.296Z" fill="white" fill-opacity="0.2"/>
<path opacity="0.5" d="M129.308 155.979L127.948 153.259L127.267 154.619L123.867 153.939L124.547 157.339L116.386 153.259L121.827 136.257L124.547 139.658L125.907 148.073L131.348 145.778L134.068 153.939L137.469 156.659L136.788 158.7L142.909 163.46L138.149 158.7L138.829 156.659L135.428 153.259L132.028 144.418L127.267 145.778L125.907 139.658L121.147 133.112L115.026 151.219L106.185 146.458L101.425 141.018L107.545 142.633L106.185 139.658L108.226 138.297L106.185 136.257H108.226L107.545 128.096L113.666 133.112L114.346 132.177L91.2238 107.014L83.743 107.694L78.9825 94.773L80.3427 90.6925L66.0612 70.2904V64.1698L60.6206 63.4897L54.5 70.9705L60.6206 65.53H64.701V70.9705L78.9825 90.6925L76.9423 94.0929L83.0629 109.054L91.2238 108.374L103.465 124.696L104.145 132.177L104.825 134.897L102.105 134.217L104.145 136.937L99.3846 137.617L87.8234 131.497L94.6241 138.978L100.065 147.138L103.465 147.818L102.785 149.179L87.8234 147.818L102.785 150.539L110.266 155.979L113.666 156.659L121.827 165.5L125.907 164.14L123.867 162.78L129.308 155.979Z" fill="white"/>
<path d="M105.505 76.4109H98.7046L106.865 75.0508L110.946 86.612L109.246 92.0525L125.907 109.054L140.189 126.736L146.99 128.096L140.189 120.615L129.308 96.813V93.4127L126.587 85.9319L122.507 85.2518L127.948 83.2116L133.388 94.7728L142.909 109.054L144.269 107.694L145.629 95.4529L150.815 120.615L156.511 125.376L157.871 131.497L161.271 132.857L163.311 140.337L156.511 150.539L150.815 141.698L148.35 144.418V140.337L144.269 139.657L143.589 143.058L138.829 144.418L140.189 151.899L136.108 143.058L141.549 141.698L142.229 136.937L140.189 135.577L144.269 129.456L138.829 127.416L127.948 115.855L123.187 120.615L122.507 126.736L120.467 128.096L117.747 121.296L110.946 113.135L113.666 100.893C113.213 104.067 112.306 110.686 112.306 111.775C112.306 112.863 116.84 118.122 119.107 120.615L121.147 126.056L121.827 119.935L125.907 113.815L118.427 103.614L106.865 92.0525L108.906 86.612L105.505 76.4109Z" fill="white" fill-opacity="0.2"/>
<path opacity="0.5" d="M0 184L70.5 171.5L24.5 162L99 169L18.3053 142.739L70.5 150L33.2824 111L218 184H0Z" fill="url(#paint1_linear_3981_16009)"/>
<path fill-rule="evenodd" clip-rule="evenodd" d="M161.5 44H176L174 47.0262V64.5L171.86 68.3529L204 69L203.984 69.3391L210 65.2999L215.5 63.2999L215 65.0001L211 67.0001L208.5 70.0001L207.5 73.7999L207 77.0001L211.171 80.0001V81.2999L203.568 78.4064L202 112.5L177.608 97.9572L178.5 102L193 184H116.5L129 153H110.5L140.117 105.157L116.5 91L135 69.5002L133 67.0002L144.807 64.0002V65.8808L153.12 64.5292L153 64.5L148.5 55.5L161.5 44Z" fill="url(#paint2_linear_3981_16009)"/>
<path d="M203 71.7002L207.5 75.5L208.5 71.7002L211 68.7002L215 68.2002L215.5 66.5L210 67L203 71.7002Z" fill="white"/>
<path d="M147.455 74H149.091L147.455 76.2308V78.3846L148.545 76.2308L149.636 73H151.273L150.182 77.3077L149.636 80.5385V82.6923L152.364 80.5385H154L151.818 83.7692L149.636 85.9231L147.455 87H143.091L142 84V78L144 76H145L147.455 74Z" fill="white"/>
<circle cx="216" cy="74" r="3" fill="white"/>
<circle cx="156" cy="76" r="3" fill="white"/>
<defs>
<linearGradient id="paint0_linear_3981_16009" x1="168.752" y1="-11.998" x2="168.752" y2="156.659" gradientUnits="userSpaceOnUse">
<stop stop-color="white"/>
<stop offset="1" stop-color="white" stop-opacity="0"/>
</linearGradient>
<linearGradient id="paint1_linear_3981_16009" x1="345.25" y1="163.369" x2="192.571" y2="-110.015" gradientUnits="userSpaceOnUse">
<stop stop-color="white"/>
<stop offset="1" stop-color="white" stop-opacity="0"/>
</linearGradient>
<linearGradient id="paint2_linear_3981_16009" x1="169.831" y1="53.7315" x2="83.4289" y2="156.802" gradientUnits="userSpaceOnUse">
<stop offset="0.380208" stop-color="white"/>
<stop offset="1" stop-color="white" stop-opacity="0"/>
</linearGradient>
</defs>
</svg>
