<svg width="252" height="200" viewBox="0 0 252 200" fill="none" xmlns="http://www.w3.org/2000/svg">
<path opacity="0.5" d="M148 55C205.438 55 252 101.562 252 159V168H222.5L237 155H204L220 130.5H194.5V100.5H154L180.5 76.5L154 72.5L168.5 60.5L148 55Z" fill="url(#paint0_linear_3947_47903)"/>
<path fill-rule="evenodd" clip-rule="evenodd" d="M175 81H160.5L154.071 90H149.5L141 100L139.961 106.236L120.5 95L119 97.5981L139.434 109.396L138 118L137 131L120.307 156.928L28.2311 138L61.3821 162.5L15.2076 158.5L35.3349 170.5L1 184H252L175.769 168.329L183 153L175.338 144.005L183.977 135.112L215.129 153.098L216.629 150.5L186.133 132.893L187 132V105H170.111L171.556 102H173V99V90V84L175 81Z" fill="url(#paint1_linear_3947_47903)"/>
<path opacity="0.5" d="M59.3083 110.87L84 104.5L18 76L0 39L120.5 104.5L103 110.87L211.5 159L59.3083 110.87Z" fill="url(#paint2_linear_3947_47903)"/>
<defs>
<linearGradient id="paint0_linear_3947_47903" x1="200" y1="55" x2="200" y2="168" gradientUnits="userSpaceOnUse">
<stop stop-color="white"/>
<stop offset="1" stop-color="white" stop-opacity="0"/>
</linearGradient>
<linearGradient id="paint1_linear_3947_47903" x1="126.5" y1="81" x2="126.5" y2="184" gradientUnits="userSpaceOnUse">
<stop offset="0.53125" stop-color="white"/>
<stop offset="1" stop-color="white" stop-opacity="0"/>
</linearGradient>
<linearGradient id="paint2_linear_3947_47903" x1="127.15" y1="140.795" x2="158.714" y2="52.2537" gradientUnits="userSpaceOnUse">
<stop stop-color="white"/>
<stop offset="1" stop-color="white" stop-opacity="0"/>
</linearGradient>
</defs>
</svg>
