<svg width="252" height="200" viewBox="0 0 252 200" fill="none" xmlns="http://www.w3.org/2000/svg">
<path opacity="0.5" d="M148 55V55C205.438 55 252 101.562 252 159V168H222.5L237 155H204L220 130.5H194.5V100.5H154L180.5 76.5L154 72.5L168.5 60.5L148 55Z" fill="url(#paint0_linear_3947_47903)"/>
<path fill-rule="evenodd" clip-rule="evenodd" d="M160.5 81H175L173 84V90V99V102H171.556L170.111 105H187V132L186.133 132.893L216.629 150.5L215.129 153.098L183.977 135.112L175.338 144.005L183 153L170.5 179.5L175 182V184H136V178L106 184V167.5H113.5L137 131L138 118L139.434 109.396L119 97.5981L120.5 95L139.961 106.236L141 100L149.5 90H154.071L160.5 81Z" fill="url(#paint1_linear_3947_47903)"/>
<path opacity="0.5" d="M59.3083 110.87L84 104.5L18 76L0 39L120.5 104.5L103 110.87L211.5 159L59.3083 110.87Z" fill="url(#paint2_linear_3947_47903)"/>
<path opacity="0.5" d="M1 184L35.3349 170.5L15.2075 158.5L61.3821 162.5L28.2311 138L252 184H1Z" fill="url(#paint3_linear_3947_47903)"/>
<defs>
<linearGradient id="paint0_linear_3947_47903" x1="200" y1="55" x2="200" y2="168" gradientUnits="userSpaceOnUse">
<stop stop-color="white"/>
<stop offset="1" stop-color="white" stop-opacity="0"/>
</linearGradient>
<linearGradient id="paint1_linear_3947_47903" x1="161.314" y1="81" x2="161.314" y2="184" gradientUnits="userSpaceOnUse">
<stop offset="0.53125" stop-color="white"/>
<stop offset="1" stop-color="white" stop-opacity="0"/>
</linearGradient>
<linearGradient id="paint2_linear_3947_47903" x1="127.15" y1="140.795" x2="158.714" y2="52.2537" gradientUnits="userSpaceOnUse">
<stop stop-color="white"/>
<stop offset="1" stop-color="white" stop-opacity="0"/>
</linearGradient>
<linearGradient id="paint3_linear_3947_47903" x1="288.703" y1="171" x2="207.706" y2="-20.7945" gradientUnits="userSpaceOnUse">
<stop stop-color="white"/>
<stop offset="1" stop-color="white" stop-opacity="0"/>
</linearGradient>
</defs>
</svg>
