<svg width="52" height="52" viewBox="0 0 52 52" fill="none" xmlns="http://www.w3.org/2000/svg">
<rect x="25" width="2" height="52" fill="url(#paint0_linear_3462_9068)"/>
<rect x="52" y="25" width="2" height="52" transform="rotate(90 52 25)" fill="url(#paint1_linear_3462_9068)"/>
<circle cx="26" cy="26" r="17" stroke="url(#paint2_linear_3462_9068)" stroke-width="2"/>
<circle cx="26" cy="26" r="17" stroke="black" stroke-opacity="0.4" stroke-width="2"/>
<rect x="25" y="8" width="2" height="36" fill="white"/>
<rect x="44" y="25" width="2" height="36" transform="rotate(90 44 25)" fill="white"/>
<circle cx="26" cy="26" r="21" stroke="url(#paint3_linear_3462_9068)" stroke-width="2"/>
<rect x="45.0918" y="43.6777" width="2" height="8" transform="rotate(135 45.0918 43.6777)" fill="url(#paint4_linear_3462_9068)"/>
<rect x="13.9792" y="12.5649" width="2" height="8" transform="rotate(135 13.9792 12.5649)" fill="url(#paint5_linear_3462_9068)"/>
<rect x="8.32227" y="45.0918" width="2" height="8" transform="rotate(-135 8.32227 45.0918)" fill="url(#paint6_linear_3462_9068)"/>
<rect x="39.4351" y="13.9792" width="2" height="8" transform="rotate(-135 39.4351 13.9792)" fill="url(#paint7_linear_3462_9068)"/>
<path d="M11 29.5858L26 44.5858L41 29.5858V22.4142L26 7.41422L11 22.4142V29.5858Z" fill="url(#paint8_linear_3462_9068)" stroke="black" stroke-width="2"/>
<path d="M11 22L24 10L13 29H11V22Z" fill="white" fill-opacity="0.44"/>
<path d="M11 29.5858L26 44.5858L41 29.5858V22.4142L26 7.41422L11 22.4142V29.5858Z" stroke="black" stroke-width="2"/>
<path d="M11.8685 29H40.1315L26 7.80278L11.8685 29Z" fill="url(#paint9_linear_3462_9068)" stroke="black" stroke-width="2"/>
<defs>
<linearGradient id="paint0_linear_3462_9068" x1="26" y1="0" x2="26" y2="52" gradientUnits="userSpaceOnUse">
<stop stop-color="#D89B64"/>
<stop offset="1" stop-color="#9E7660"/>
</linearGradient>
<linearGradient id="paint1_linear_3462_9068" x1="53" y1="25" x2="53" y2="77" gradientUnits="userSpaceOnUse">
<stop stop-color="#D89B64"/>
<stop offset="1" stop-color="#9E7660"/>
</linearGradient>
<linearGradient id="paint2_linear_3462_9068" x1="26" y1="8" x2="26" y2="44" gradientUnits="userSpaceOnUse">
<stop stop-color="#D89B64"/>
<stop offset="1" stop-color="#9E7660"/>
</linearGradient>
<linearGradient id="paint3_linear_3462_9068" x1="26" y1="4" x2="26" y2="48" gradientUnits="userSpaceOnUse">
<stop stop-color="#D89B64"/>
<stop offset="1" stop-color="#9E7660"/>
</linearGradient>
<linearGradient id="paint4_linear_3462_9068" x1="46.0918" y1="43.6777" x2="46.0918" y2="51.6777" gradientUnits="userSpaceOnUse">
<stop stop-color="#D89B64"/>
<stop offset="1" stop-color="#9E7660"/>
</linearGradient>
<linearGradient id="paint5_linear_3462_9068" x1="14.9792" y1="12.5649" x2="14.9792" y2="20.5649" gradientUnits="userSpaceOnUse">
<stop stop-color="#D89B64"/>
<stop offset="1" stop-color="#9E7660"/>
</linearGradient>
<linearGradient id="paint6_linear_3462_9068" x1="9.32227" y1="45.0918" x2="9.32227" y2="53.0918" gradientUnits="userSpaceOnUse">
<stop stop-color="#D89B64"/>
<stop offset="1" stop-color="#9E7660"/>
</linearGradient>
<linearGradient id="paint7_linear_3462_9068" x1="40.4351" y1="13.9792" x2="40.4351" y2="21.9792" gradientUnits="userSpaceOnUse">
<stop stop-color="#D89B64"/>
<stop offset="1" stop-color="#9E7660"/>
</linearGradient>
<linearGradient id="paint8_linear_3462_9068" x1="26" y1="46" x2="26" y2="6" gradientUnits="userSpaceOnUse">
<stop stop-color="#FF8D4E"/>
<stop offset="1" stop-color="#EA2727"/>
</linearGradient>
<linearGradient id="paint9_linear_3462_9068" x1="26" y1="30" x2="26" y2="6" gradientUnits="userSpaceOnUse">
<stop stop-color="#FF8D4E"/>
<stop offset="1" stop-color="#EA2727"/>
</linearGradient>
</defs>
</svg>
