<svg width="52" height="52" viewBox="0 0 52 52" fill="none" xmlns="http://www.w3.org/2000/svg">
<rect x="25" width="2" height="52" fill="url(#paint0_linear_3462_9051)"/>
<rect x="52" y="25" width="2" height="52" transform="rotate(90 52 25)" fill="url(#paint1_linear_3462_9051)"/>
<circle cx="26" cy="26" r="17" stroke="url(#paint2_linear_3462_9051)" stroke-width="2"/>
<circle cx="26" cy="26" r="17" stroke="black" stroke-opacity="0.4" stroke-width="2"/>
<rect x="25" y="8" width="2" height="36" fill="white"/>
<rect x="44" y="25" width="2" height="36" transform="rotate(90 44 25)" fill="white"/>
<circle cx="26" cy="26" r="21" stroke="url(#paint3_linear_3462_9051)" stroke-width="2"/>
<rect x="45.0918" y="43.6777" width="2" height="8" transform="rotate(135 45.0918 43.6777)" fill="url(#paint4_linear_3462_9051)"/>
<rect x="13.9792" y="12.5649" width="2" height="8" transform="rotate(135 13.9792 12.5649)" fill="url(#paint5_linear_3462_9051)"/>
<rect x="8.32227" y="45.0918" width="2" height="8" transform="rotate(-135 8.32227 45.0918)" fill="url(#paint6_linear_3462_9051)"/>
<rect x="39.4351" y="13.9792" width="2" height="8" transform="rotate(-135 39.4351 13.9792)" fill="url(#paint7_linear_3462_9051)"/>
<path d="M7.83167 15L24.546 41H27.382L40.382 15H7.83167Z" fill="#AFAFAF" stroke="black" stroke-width="2"/>
<path d="M27.454 41L44.1683 15H19.237L24.8084 41H27.454Z" fill="url(#paint8_linear_3462_9051)" stroke="black" stroke-width="2"/>
<defs>
<linearGradient id="paint0_linear_3462_9051" x1="26" y1="0" x2="26" y2="52" gradientUnits="userSpaceOnUse">
<stop stop-color="#D89B64"/>
<stop offset="1" stop-color="#9E7660"/>
</linearGradient>
<linearGradient id="paint1_linear_3462_9051" x1="53" y1="25" x2="53" y2="77" gradientUnits="userSpaceOnUse">
<stop stop-color="#D89B64"/>
<stop offset="1" stop-color="#9E7660"/>
</linearGradient>
<linearGradient id="paint2_linear_3462_9051" x1="26" y1="8" x2="26" y2="44" gradientUnits="userSpaceOnUse">
<stop stop-color="#D89B64"/>
<stop offset="1" stop-color="#9E7660"/>
</linearGradient>
<linearGradient id="paint3_linear_3462_9051" x1="26" y1="4" x2="26" y2="48" gradientUnits="userSpaceOnUse">
<stop stop-color="#D89B64"/>
<stop offset="1" stop-color="#9E7660"/>
</linearGradient>
<linearGradient id="paint4_linear_3462_9051" x1="46.0918" y1="43.6777" x2="46.0918" y2="51.6777" gradientUnits="userSpaceOnUse">
<stop stop-color="#D89B64"/>
<stop offset="1" stop-color="#9E7660"/>
</linearGradient>
<linearGradient id="paint5_linear_3462_9051" x1="14.9792" y1="12.5649" x2="14.9792" y2="20.5649" gradientUnits="userSpaceOnUse">
<stop stop-color="#D89B64"/>
<stop offset="1" stop-color="#9E7660"/>
</linearGradient>
<linearGradient id="paint6_linear_3462_9051" x1="9.32227" y1="45.0918" x2="9.32227" y2="53.0918" gradientUnits="userSpaceOnUse">
<stop stop-color="#D89B64"/>
<stop offset="1" stop-color="#9E7660"/>
</linearGradient>
<linearGradient id="paint7_linear_3462_9051" x1="40.4351" y1="13.9792" x2="40.4351" y2="21.9792" gradientUnits="userSpaceOnUse">
<stop stop-color="#D89B64"/>
<stop offset="1" stop-color="#9E7660"/>
</linearGradient>
<linearGradient id="paint8_linear_3462_9051" x1="32" y1="42" x2="32" y2="14" gradientUnits="userSpaceOnUse">
<stop stop-color="#AFAFAF"/>
<stop offset="1" stop-color="#7E929A"/>
</linearGradient>
</defs>
</svg>
