<svg width="128" height="144" viewBox="0 0 128 144" fill="none" xmlns="http://www.w3.org/2000/svg">
<path d="M32.2045 69.9619L27.9564 74.4993L51.2405 96.5536L51.9823 88.7335L32.2045 69.9619Z" fill="#CBCBCA"/>
<rect width="3.4645" height="21.4972" transform="matrix(-0.613087 0.654846 0.654851 0.613082 21.0648 61.917)" fill="#CBCBCA"/>
<rect width="3.46449" height="17.3225" transform="matrix(0.65485 0.613083 0.613086 -0.654848 26.5015 79.7783)" fill="#CBCBCA"/>
<path d="M36.5 58.5C40.5047 61.0443 48.9668 62 48.9668 62L49 53L55 41L55 28L43 28L28.9999 43C28.9999 43 30.296 54.5584 36.5 58.5Z" fill="#364C3C"/>
<path d="M43 28L28.9999 43C28.9999 43 30.296 54.5584 36.5 58.5C40.5047 61.0443 48.9668 62 48.9668 62L49 53L55 41L55 28L43 28ZM43 28L37 28L37 32.5" stroke="black" stroke-width="2"/>
<path d="M27 65L30.9999 49.9999L38.9999 49.9997L43 57L32 67L27 65Z" fill="#6C6952" stroke="black" stroke-width="2"/>
<path d="M25.9999 72L28 64.9998L31.9916 67L34 70.9999L29.9999 76L25.9999 72Z" fill="#6C6952" stroke="black" stroke-width="2"/>
</svg>
