<svg width="1260" height="720" viewBox="0 0 1260 720" fill="none" xmlns="http://www.w3.org/2000/svg">
<path d="M130.361 200.975C178.055 177.21 211.258 233.502 176.916 252.325C165.158 258.77 157.123 255.889 152 252.325C135.605 240.923 152.561 214.959 168.955 226.361C176.128 231.35 173.381 240.764 173.381 240.764M186.143 293.558C114.372 284.046 93.3724 224.441 125.466 216.543C115.792 209.815 122.832 195.373 132.684 193.669M168.437 284.473C168.437 284.473 179.636 289.989 207.799 291.07M189.586 285.387C189.586 285.387 203.649 288.254 230.083 288.5" stroke="black" stroke-width="2" stroke-linejoin="bevel"/>
<path d="M363.5 13C406.5 34.5002 439.5 26.0002 466 -9.99976L458.5 -11.9998C462.333 -11.4998 474 -11.9998 477 -24.9998" stroke="black" stroke-width="2"/>
<path d="M273.5 23.5003C288.5 6.50033 317.5 -13.4998 345 1.00047" stroke="black" stroke-width="2"/>
<path d="M121.5 111C110.07 99.3585 96.12 92.69 74.5 94.2161" stroke="black" stroke-width="2"/>
<path d="M128.5 110.712C112 96.5002 97.5 92.5 74.5 94.0002" stroke="black" stroke-width="2"/>
<path d="M135.5 110.712C123.34 99.2678 108.5 92.7122 85.5 94.2124" stroke="black" stroke-width="2"/>
<path d="M143 110.5C130.84 99.0558 116 92.5002 93 94.0004" stroke="black" stroke-width="2"/>
<path d="M372 69.0002C341.5 123 282 88.0002 313.5 54.5002" stroke="black" stroke-width="2"/>
<path d="M182.499 205.5C279.499 274 365.085 172.35 342.649 168.527C348.466 156.392 346.261 147.763 341.965 143.848M186 213C219 237.143 254.5 233.5 254.5 233.5M189.233 219.862C202.5 232 226.5 235.916 226.5 235.916M190.75 227C200.81 235.682 214 237.5 214 237.5" stroke="black" stroke-width="2"/>
<path d="M145.571 112.821C211 166.321 261.571 122.577 248.001 114.475C254.811 108.075 255.547 101.934 253.746 98.321M142 115.821C155.429 129.616 176 137.321 176 137.321M138 118.526C144.398 126.321 159.071 134.821 159.071 134.821M133.5 120.321C140 127.321 146.5 131.821 146.5 131.821" stroke="black" stroke-width="2"/>
<path d="M103.5 138.679C107.833 143.18 113 149 94 171.5M96.5 161C84.5 176.821 60 195.5 99.5 195.5M113.746 138.679C115.547 135.067 114.811 128.925 108.001 122.526C116.073 117.706 101.448 100.274 74.5 98.202" stroke="black" stroke-width="2"/>
<path d="M73.5709 21.5002C124.312 62.9905 166.118 45.9954 176.001 32.4953M69.9997 24.5002C83.4288 38.295 104 46 104 46M65.9999 27.2052C72.3978 35 87.0709 43.5 87.0709 43.5M61.4997 29.0002C67.9997 36.0002 74.4997 40.5002 74.4997 40.5002M171.5 7.00024C175.833 2.50015 180.9 -9.50002 166.5 -21.5M181.746 7.00024C182.76 9.03292 182.97 11.8663 181.746 15.0957M169 -1.49976C169.45 -10.5043 164.495 -18.3827 158.812 -24.9998" stroke="black" stroke-width="2"/>
<path d="M181.571 68.5003C247 15.0003 297.571 58.744 284 66.8466C290.811 73.2458 291.547 79.3876 289.746 83.0003M178 65.5003C191.429 51.7055 212 44.0005 212 44.0005M174 62.7953C180.398 55.0005 195.071 46.5005 195.071 46.5005M169.5 61.0003C176 54.0003 182.5 49.5003 182.5 49.5003M279.5 83.0003C283.833 87.5003 288.9 99.5005 274.5 111.501M274.5 104.5C258.5 120 235 139 274.5 139M278.5 111.501C289.719 102.152 289.122 92.8027 286.262 87.0002M282.5 111.501C291.948 103.628 293.016 95.7552 291.41 90.0002" stroke="black" stroke-width="2"/>
<path d="M167 92.5002C174.5 92.5002 181 92.5002 188.5 89.5002M242 95.5002C229.5 121 192.261 116.185 184 105.5C177.299 96.8338 191.42 87.0002 216.5 87.0002M162 92.5002H135.5M218.5 87.0002C228 87.0002 229 91.5002 213.5 92.5002" stroke="black" stroke-width="2"/>
<path d="M227.5 4.00006C252.5 -11.5001 279 23 236 38.5002C236 38.5002 242 37.5002 247 38.5002" stroke="black" stroke-width="2"/>
<path d="M339.523 34.0002H347.447C365.185 34.0002 365.089 58.0002 345.659 58.0002H338.5" stroke="black" stroke-width="2"/>
<path d="M75.5 88.5002C123.5 88.5002 124.948 57.5002 105.5 57.5002C94.6324 57.5002 86.5427 63.1209 75.5 68.0805" stroke="black" stroke-width="2"/>
<path d="M349 211.159C365.62 211.159 378.326 211.159 394.946 204.527M513.5 217.792C485.8 274.166 403.281 263.52 384.974 239.899C370.125 220.74 401.418 199 456.993 199M461.425 199C482.477 199 484.692 208.949 450.345 211.159" stroke="black" stroke-width="2"/>
<path d="M352.5 203.334C402.183 203.334 416.813 160 460.058 160C503.303 160 515.858 220 437.881 220C401.447 220 420.297 198.889 456.732 198.889" stroke="black" stroke-width="2"/>
<path d="M169.5 89.0002C191.903 89.0002 198.5 69.5002 218 69.5002C237.5 69.5002 243.161 96.5002 208 96.5002C191.571 96.5002 200.071 87.0002 216.5 87.0002" stroke="black" stroke-width="2"/>
<path d="M185.501 47.9998C198.001 39.4998 213.501 34.4998 213.501 34.4998M236.501 21.5001C154.001 60.5001 141.5 -19.4999 215.501 10.0001" stroke="black" stroke-width="2"/>
<path d="M198.5 45.0031C216 35.0002 226 37.5004 239.5 24.0004M242.5 14.0004C192.5 40.5004 162 -8.49976 218 11.0004" stroke="black" stroke-width="2"/>
<path d="M215.5 43.0002C225.331 39.0103 247.5 33.5003 247.5 14C247.5 -3.45563 222.5 0.500744 222.5 11.0004C222.5 21.5001 242.5 14.0002 242.5 14.0002" stroke="black" stroke-width="2"/>
<path d="M272.5 29.0002C268.56 29.0002 264.659 29.7762 261.019 31.2839C257.38 32.7915 254.073 35.0013 251.287 37.787C248.501 40.5728 246.291 43.88 244.784 47.5197C243.276 51.1595 242.5 55.0606 242.5 59.0002C242.5 62.9399 243.276 66.841 244.784 70.4807C246.291 74.1205 248.501 77.4277 251.287 80.2134C254.073 82.9992 257.38 85.209 261.019 86.7166C264.659 88.2243 268.56 89.0002 272.5 89.0002L272.5 59.0002L272.5 29.0002Z" fill="white"/>
<path d="M272.5 29.0002C268.56 29.0002 264.659 29.7762 261.019 31.2839C257.38 32.7915 254.073 35.0013 251.287 37.787C248.501 40.5728 246.291 43.88 244.784 47.5197C243.276 51.1595 242.5 55.0606 242.5 59.0002C242.5 62.9399 243.276 66.841 244.784 70.4807C246.291 74.1205 248.501 77.4277 251.287 80.2134C254.073 82.9992 257.38 85.209 261.019 86.7166C264.659 88.2243 268.56 89.0002 272.5 89.0002" stroke="black" stroke-width="2"/>
<path d="M130.5 123.5L120.5 119.797L127 124.797V127.797L120.5 135L123.333 136.297V138.797H131.714L134 136.297L131.714 127.797L130.5 123.5Z" fill="#7788C4"/>
<path d="M136 122.5L128 138.797M130.5 123.5L120.5 119.797L127 124.797V127.797L120.5 135L123.333 136.297V138.797H131.714L134 136.297L131.714 127.797L130.5 123.5Z" stroke="black" stroke-width="2"/>
<path opacity="0.3" d="M534.5 458V467" stroke="black" stroke-width="2"/>
<path d="M534.5 450V459" stroke="black" stroke-width="2"/>
<path opacity="0.3" d="M515.565 467L513.5 463.652L519.694 460H529.5V467" stroke="black" stroke-width="2"/>
<path opacity="0.3" d="M636.5 455L639.807 458.5H646.306V455" stroke="black" stroke-width="2"/>
<path d="M646.306 451H639.807L636.5 454.5H646.306V451Z" fill="#C4C4C4" stroke="black" stroke-width="2"/>
<path d="M374.5 599.013C374.5 599.013 377.12 602.371 379.145 603.39C381.873 604.763 386.5 603.39 386.5 603.39V595H376.048L374.5 599.013Z" fill="#A9B9BD" stroke="black" stroke-width="2"/>
<path d="M649.5 584.013C649.5 584.013 651.902 587.371 653.758 588.39C656.258 589.763 660.5 588.39 660.5 588.39V580H650.919L649.5 584.013Z" fill="white" stroke="black" stroke-width="2"/>
<path d="M356.5 594.539C356.5 594.539 361.74 590.136 365.79 588.8C371.246 587 380.5 588.8 380.5 588.8V599.8H359.597L356.5 594.539Z" fill="#A9B9BD" stroke="black" stroke-width="2"/>
<path d="M513.5 454.348L519.694 458H529.5V451H515.565L513.5 454.348Z" fill="#C4C4C4" stroke="black" stroke-width="2"/>
<path d="M-434 156C-306.011 193.3 609 454.5 609 454.5H549.5L544 452V454.5H458H397L502.5 485V488H432.5L428.5 486.5V488L404.5 487.629M468 516L439 511L420 512L371 505H367.5L361 497.5L351.5 500.5L310.5 493V490L275.5 485L331.5 486.5L404.5 487.629M404.5 487.629V484M611 455H615" stroke="black" stroke-width="2"/>
<path d="M206.5 611L195 582L164 550C164 550 158.314 519.452 147 504C136.586 489.779 112 475.5 112 475.5L108.688 468M108.688 468L95 437L74.5 424M108.688 468L164 484C164 484 211.772 486.153 240.5 495.5C258.373 501.316 284.5 515 284.5 515L325 543.5L328.781 550M344.5 592.5L371.5 611M344.5 592.5L398.5 602.5C470.998 606.674 591 611 652.5 584M344.5 592.5L328.781 550M328.781 550L379 529.5L420.5 521L483.5 515H511C511 515 560.987 519.139 591 529.5C625.205 541.308 672 574.5 672 574.5" stroke="black" stroke-width="2"/>
<path d="M642.5 426V443" stroke="black" stroke-width="2"/>
<path d="M642.5 8.46704L646.5 6.00024" stroke="black" stroke-width="2"/>
<path d="M351.454 2.99467C403.014 29.6059 444.095 -0.0334206 426.597 -19.9361C436.039 -19.9361 438.015 -32.6726 432.314 -38.308M367.257 5.50024C367.257 5.50024 357.366 4.00333 338.347 -8.18549M353.563 -4.99976C353.563 -4.99976 342.912 -8.82721 331.5 -17.2476M372 -24.9998C372 -8.18549 398.5 -8.18549 398.5 -24.9998M408.5 -24.9998C408.5 -16.91 402.366 -12.7124 396 -12.407M418 -24.9998C418 -16.91 411.866 -12.7124 405.5 -12.407M447 -32.5288C447 -24.439 440.866 -20.2415 434.5 -19.9361" stroke="black" stroke-width="2" stroke-linejoin="bevel"/>
<path d="M443 105.947C463.5 68.4465 511.092 90.3133 497.114 118.442C492.328 128.073 485 128.947 480 128.947C464 128.947 464 104.988 480 104.988C487 104.988 489.5 112.447 489.5 112.447M522.046 141.373C470.486 167.984 429.405 138.345 446.903 118.442C437.461 118.442 435.485 105.706 441.186 100.07M506.243 143.5C506.243 143.5 516.134 142.003 535.153 129.815M519.937 133.5C519.937 133.5 530.5 128.947 548 117" stroke="black" stroke-width="2" stroke-linejoin="bevel"/>
<path d="M375.5 57.0002C355 94.5002 307.408 72.6335 321.386 44.5044C326.172 34.8737 333.5 34.0002 338.5 34.0002C354.5 34.0002 354.5 57.9588 338.5 57.9588C331.5 57.9588 329 50.5002 329 50.5002M296.454 21.5737C348.014 -5.03749 389.095 24.6018 371.597 44.5044C381.039 44.5044 383.015 57.241 377.314 62.8763M314 18.0002C314 18.0002 304.11 19.4972 285.09 31.686M301 27.5002C301 27.5002 290.349 31.3277 278.937 39.7481" stroke="black" stroke-width="2" stroke-linejoin="bevel"/>
<path d="M335.5 -9.99945C292 -27.9998 269.063 24.5005 271.668 10.3957C255.999 13.0002 259.408 -5.51946 269.063 -2.83773C258.539 -9.93021 281.595 -60.8637 329.696 -19.3577" stroke="black" stroke-width="2"/>
<path d="M167.5 89.0002C74.5 89.0002 138.683 84.0002 146.5 84.0002C146.5 73.9276 144 85.0002 166.5 63.0002" stroke="black" stroke-width="2"/>
<g opacity="0.5">
<path d="M651 479.111L660 468.111L668 465.111L674 451.611H682V457.611L695 455.111L755 440.111L770 422.611V440.111L763 442.611L755 451.611L732.5 468.111L738.5 477.111H755V492.111L763 496.611H836L859.5 507.111L871.5 508.611L912 488.611L1000.5 431.611L1009.5 438.111L1008.5 405.111L1019 387.611L1050 385.111L1065 368.611L1070.5 352.111L1084 319.611L1097 355.611V416.111L1080.5 433.111L1058 422.611L1032.5 444.111H1011.5H966.5L950 490.611L989 505.611L1011.5 527.611L1540 713.111V891.111L865 549.111L848 542.111L801 534.111L755 527.611L732.5 510.611H723L702.5 496.611L683.5 487.111L673 484.611L674 480.611L668 483.611L651 479.111Z" fill="#527934" fill-opacity="0.01"/>
<path d="M850.5 275.111L836 299.111H844L836 312.611L844 319.611V379.611L865 382.111L895.5 368.611L914.5 355.611L923.5 352.111H984.5L1058 302.111L1074 296.111L1087.5 284.111L1097 275.111V256.611H1063.5L1042.5 302.111L1009.5 306.611L984.5 327.111L961 335.611H923.5L903.5 341.111L871.5 368.611L865 352.111H877.5L859.5 335.611H869L862 315.111H865L855.5 299.111H859.5L850.5 275.111Z" fill="#527934" fill-opacity="0.01"/>
</g>
<path d="M817 51.1116C817 6.69448 868.57 -14.2316 897 19.1115C931.392 -32.758 977.169 -59.0302 1031 -20.8885" stroke="black" stroke-width="2"/>
<path opacity="0.5" d="M865.5 548.111L902.5 514.111L913.5 487.111L919.5 461.111L927 458.611L946 439.611H962L982 454.611V487.111L998 498.111L1005 533.111H930L969 548.111L991.5 570.111L1026 577.111V592.611L1080 636.111L1542.5 955.611L1131.5 1050.61L998 885.611L1093 831.611L962 839.611L865.5 611.111L953.5 592.611L833 573.111L849.5 570.111H819.5L742 554.111V548.111H865.5Z" fill="#73995B" fill-opacity="0.01"/>
<path d="M692 454.611L755 440.111L770 423.111M770 423.111H794L821 402.111M770 423.111L752 409.611L746 416.111L720 396.611L701 397.611L698 416.111L704 422.111L695.5 420.611L699.5 428.611L682.5 451.111M1258 193.111L1087 283.111C1083.33 288.111 1074.8 298.311 1070 299.111C1065.2 299.911 1056.67 304.111 1053 306.111C1038.33 316.778 1007.8 338.711 1003 341.111C997 344.111 988 352.111 975 352.111C962 352.111 933 352.111 923 352.111C915 352.111 901 363.445 895 369.111L865 382.111H850L821 402.111M794 432.111C794 431.311 778 431.778 770 432.111V440.111L762.5 442.611M865 548.111L823 540.111L803 531.111H760L746 519.111L721 502.111L703 487.111L712 468.111L732 452.111L755 445.111L762.5 442.611M865 548.111L883 531.111L903 514.111L913 487.111M865 548.111H742.5M913 487.111C914.333 477.778 918.2 459.111 923 459.111C927.8 459.111 939.667 446.445 945 440.111H963C966.201 441.712 970.939 444.496 975 447.755M913 487.111L903 492.111L883 502.111L872 508.111C869.667 508.111 864 508.111 860 508.111L844 502.111L836 497.111H816H794H770H760L755 492.111V477.111H739L732 468.111L755 452.111L762.5 442.611M1541.5 713.111L1078 555.111C1075.33 555.445 1069 555.911 1065 555.111C1061 554.311 1050 550.111 1045 548.111L1020 540.111L1003 526.111C1003 518.111 1001.6 501.111 996 497.111C990.4 493.111 985 488.778 983 487.111C983 480.778 983 466.311 983 459.111C983 455.368 979.397 451.283 975 447.755M1562 975.111L1025 597.111V579.611L1015 572.111L987 566.111L963 562.111H938L913 566.111V555.111C913 555.111 889.667 550.445 883 548.111M741 406.111V382.205V362.111M821 402.111V362.111M779 342.111H749L741 350.299V362.111M779 342.111H813L821 350.111V362.111M779 342.111V322.111L811.5 289.611L836 314.111M844 382.111V322.111L836 314.111M877 369.111V270.111H865.5V266.111L869 257.611V254.611H883M877 369.111L883 359.111L903 341.111L923 336.111H957L983 328.111L1009 306.111L1041 303.111L1058 269.111M877 369.111L865 352.111H877.5L862 336.111C862 336.111 869 335.278 869 332.611L860 315.611L865 314.111L855 299.111H860L850 273.111L836 299.111H844L836 314.111M1087 257.111L1022.5 254.611M883 254.611V230.111L903 210.111M883 254.611H903M903 210.111V254.611M903 210.111V170.111H888L957 101.111L1020 164.111M903 254.611H957M1009 170.111H1026L1020 164.111M957 254.611V230.111H945L957 218.111H1041M957 254.611H977M977 254.611V250.111H993V246.111H1009V242.111H1025V238.111H1041V234.111H1057V180.111L1068 170.111M977 254.611H1022.5M1068 170.111H1098M1068 170.111V117.111H1081L1065 101.111L1045 3.11133M1020 164.111V117.111H1009L1025 101.111L1045 3.11133M1045 3.11133V-7.63867M1087 423.111L1081 432.111L1069.5 427.611L1063.75 425.361M1031 445.111L1058 423.111L1063.75 425.361M1031 445.111H1015L1009 438.611M1031 445.111V406.111L1020 388.111M975 447.755L1003 432.111L1009 438.611M1009 438.611V406.111L1020 388.111M1020 388.111H1058M1063.75 425.361V403.994L1081 382.111L1090 392.111M1058 388.111V377.611L1065 369.111L1069 373.361M1058 388.111H1073V377.611L1069 373.361M1069 373.361V355.611M1069 355.611L1081 322.111M1069 355.611H1090M1081 322.111L1090 345.611M1081 322.111V314.111M1098 218.111H1073L1063.75 238.111H1053L1049 242.111L1037 245.111L1022.5 254.611M660 454.111H673L668 464.611L660 468.111L649 479.611L668 483.611L673 479.611V483.611L683.5 487.111L687 483.611V489.111L708 500.111M1045 -18.3887V-7.63867M1045 -7.63867H1037M1045 -7.63867H1053M1081 306.111V314.111M1081 314.111H1076M1081 314.111H1087M739 548.111H742.5M742.5 548.111V553.611M742.5 553.611L819 569.611H851.5M742.5 553.611L716 555.111L879 597.111L821.5 610.111L794 697.111H811.5L794 704.611L784 931.611L851.5 1102.61M851.5 569.611V566.111M851.5 569.611L836 572.611L952 592.611L877 610.111L963 821.111L1069.5 828.111L987 878.611L1176 1102.61M860 569.611L856.5 557.611M860 569.611L861.5 564.611M860 569.611L869 568.361M712 504.111L725 511.111H728.5M741 362.111H737M821 362.111H825" stroke="black" stroke-width="2"/>
<path d="M745 362.111H817" stroke="black" stroke-width="2" stroke-dasharray="8 4"/>
<path d="M827 362.111H825V369.111H737V362.111H735" stroke="black" stroke-width="2"/>
<path d="M881 273.111L881 290.111" stroke="black" stroke-width="2"/>
<path d="M889 273.111L889 290.111" stroke="black" stroke-width="2"/>
<path d="M897 273.111L897 290.111" stroke="black" stroke-width="2"/>
<path d="M905 273.111L905 290.111" stroke="black" stroke-width="2"/>
<path d="M913 273.111L913 290.111" stroke="black" stroke-width="2"/>
<path d="M921 273.111L921 290.111" stroke="black" stroke-width="2"/>
<path d="M929 273.111L929 290.111" stroke="black" stroke-width="2"/>
<path d="M937 273.111L937 290.111" stroke="black" stroke-width="2"/>
<path d="M945 273.111L945 290.111" stroke="black" stroke-width="2"/>
<path d="M953 273.111L953 290.111" stroke="black" stroke-width="2"/>
<path d="M870 274.111H957" stroke="black" stroke-width="2"/>
<path d="M866 290.111L1045 290.111" stroke="black" stroke-width="2"/>
<path d="M877 274.111H875M869 290.111V280.111M869 280.111V274.111H875M869 280.111L875 274.111" stroke="black" stroke-width="2"/>
<path d="M869 290.111H871M877 306.111V296.111M877 296.111V290.111H871M877 296.111L871 290.111" stroke="black" stroke-width="2"/>
<rect x="950" y="146.111" width="10" height="23" stroke="black" stroke-width="2"/>
<rect x="967" y="238.111" width="5" height="11" fill="black"/>
<path d="M910.5 240.111H913L915 244.611L919.5 252.611H916V255.111H910.5L909 251.611L910.5 244.111V240.111Z" fill="#6F8058" fill-opacity="0.01" stroke="black" stroke-width="2"/>
<path d="M937 239.111L941 243.111V254.111H933V243.111L937 239.111Z" stroke="black" stroke-width="2"/>
<path d="M965 275.111L969 279.111V290.111H961V279.111L965 275.111Z" stroke="black" stroke-width="2"/>
<path d="M781 382.111L783 386.378V398.111H779V386.378L781 382.111Z" stroke="black" stroke-width="2"/>
<path d="M1044 126.111L1046 130.378V142.111H1042V130.378L1044 126.111Z" stroke="black" stroke-width="2"/>
<path d="M1040 146.111H1044M1048 146.111H1044M1044 146.111V155.111" stroke="black" stroke-width="2"/>
<path d="M1052 146.111H1056M1060 146.111H1056M1056 146.111V155.111" stroke="black" stroke-width="2"/>
<path d="M1028 146.111H1032M1036 146.111H1032M1032 146.111V155.111" stroke="black" stroke-width="2"/>
<path d="M1064 146.111H1068M1072 146.111H1068M1068 146.111V171.111" stroke="black" stroke-width="2"/>
<path d="M1016 146.111H1020M1024 146.111H1020M1020 146.111V165.111" stroke="black" stroke-width="2"/>
<path d="M803 382.111L805 386.378V398.111H801V386.378L803 382.111Z" stroke="black" stroke-width="2"/>
<path d="M1034 63.1113H1041M1041 63.1113V66.1113M1041 63.1113H1049" stroke="black" stroke-width="2"/>
<path d="M1004 49.1113H1011M1011 49.1113V52.1113M1011 49.1113H1019" stroke="black" stroke-width="2"/>
<path d="M987 75.1113H994M994 75.1113V78.1113M994 75.1113H1002" stroke="black" stroke-width="2"/>
<path d="M849 6.11133V98.1113" stroke="black" stroke-width="2"/>
<path d="M895 52.1113L803 52.1113" stroke="black" stroke-width="2"/>
<path d="M869 32.1113L829 72.1115" stroke="black" stroke-width="2"/>
<path d="M869 72.1118L829 32.1116" stroke="black" stroke-width="2"/>
<circle cx="849" cy="52.1113" r="13" stroke="black" stroke-width="2"/>
<circle cx="849" cy="52.1113" r="29" stroke="black" stroke-width="2"/>
</svg>
