<svg width="226" height="224" viewBox="0 0 226 224" fill="none" xmlns="http://www.w3.org/2000/svg">
<rect opacity="0.3" width="160" height="180" transform="matrix(1 0 5.51922e-06 1 33 27)" fill="url(#paint0_linear_3379_7734)"/>
<path d="M37.0001 43.0625L33.0001 44.5625L33 27.0625H193L193 87.0625L189 85.3125C188.25 85.8958 186.4 87.0625 185 87.0625C183.6 87.0625 185.584 82.7292 186.75 80.5625L179.25 87.0625L169 89.3125L170.75 81.8125C169.25 80.3125 167.6 77.4125 173 77.8125C179.75 78.3125 162.75 65.5625 161 64.5625C159.6 63.7625 163.084 68.5625 165 71.0625C164.167 71.8125 160.6 73.2625 153 73.0625C145.4 72.8625 146.334 65.3125 147.75 61.5625L153 59.0625C148.083 55.0625 139.2 47.8625 143 51.0625C147.75 55.0625 150.5 57.8125 145 59.0625C140.6 60.0625 129.833 56.8125 125 55.0625L62.5001 44.5625L61.0001 45.3125L58.7501 43.0625L54.5001 47.0625L49.0001 44.5625L46.5001 43.0625L45.0001 44.5625L37.0001 43.0625Z" fill="white"/>
<path d="M141.769 95.978C139.593 96.1721 138.681 96.3125 139.75 96.3125C140.283 96.3125 140.969 96.192 141.769 95.978Z" fill="white"/>
<path d="M193 112.312C187.5 110.312 177.75 106.012 182.75 104.812C187.75 103.612 189.75 97.1458 189 96.3125C189 96.3125 189.084 95.9792 175.5 95.0625C161.917 94.1458 135.55 96.3125 139.75 96.3125C143.95 96.3125 157.75 88.8125 161 87.0625L143 85.3125C146.25 77.8125 135.75 96.2625 131.75 95.0625C127.75 93.8625 130.917 90.7292 133 89.3125H118.5M55.7503 76.3125C52.4169 75.8958 46.4003 74.6625 49.0003 73.0625C51.6002 71.4625 54.5836 68.3958 55.7502 67.0625L51.7502 59.0625L55.7502 57.3125C52.6668 56.3958 46.5001 54.2125 46.5001 52.8125C46.5001 51.4125 45.5001 48.3958 45.0001 47.0625M33.0001 44.5625L37.0001 43.0625L45.0001 44.5625L46.5001 43.0625L49.0001 44.5625L54.5001 47.0625L58.7501 43.0625L61.0001 45.3125L62.5001 44.5625L125 55.0625C129.833 56.8125 140.6 60.0625 145 59.0625C150.5 57.8125 147.75 55.0625 143 51.0625C139.2 47.8625 148.083 55.0625 153 59.0625L147.75 61.5625C146.334 65.3125 145.4 72.8625 153 73.0625C160.6 73.2625 164.167 71.8125 165 71.0625C163.084 68.5625 159.6 63.7625 161 64.5625C162.75 65.5625 179.75 78.3125 173 77.8125C167.6 77.4125 169.25 80.3125 170.75 81.8125L169 89.3125L179.25 87.0625L186.75 80.5625C185.584 82.7292 183.6 87.0625 185 87.0625C186.4 87.0625 188.25 85.8958 189 85.3125L193 87.0625L193 27.0625H33L33.0001 44.5625Z" stroke="black" stroke-width="2"/>
<path d="M103.25 100.562L111.5 52.8125L110 48.9375L111.5 42.3125L111.5 28.5625L101.5 13.3125L95 14.8125L85.5001 26.3125L79.8751 37.0625L77.0002 47.0625L66.5004 91.0625L67.7505 99.0625L69.0005 103.062L97.0005 107.062L103.25 100.562Z" fill="url(#paint1_linear_3379_7734)"/>
<path d="M33.0005 71.0625H37.0005L45.0005 75.0625L43.2505 76.5625H41.0005L37.0006 92.5625H33.0006L47.0006 95.0625L45.0006 96.3125L61.0007 101.312L69.0007 103.062L94.2507 109.812L95.7507 107.062H98.5007L98.5007 103.062L105.001 107.062L105.001 109.812L109.001 113.562L118.501 116.562L126.751 119.062L130.001 117.562H133.001L137.001 107.812L136.376 106.312L137.001 104.687L147.251 107.062L147.251 109.187L145.751 109.812L143.251 120.312L135.626 117.562L145.001 121.187L149.001 123.062L149.001 125.812H145.751L145.001 133.812L143.751 151.062L137.001 155.062L133.001 156.187L122.876 155.062L123.751 147.062L118.501 145.687L118.501 140.312L65.0008 130.062L60.2508 127.687L61.0008 124.687L54.7507 114.312L55.6258 123.062H53.0008L53.0008 124.687L54.7508 129.062L53.0008 128.437L52.1258 132.062L50.2508 132.937L49.0008 129.562L49.0008 126.062L50.2508 124.687L50.2508 121.812L47.8757 113.562L33.0007 109.812L33.0007 105.437L47.8757 109.812L33.0007 103.812L33.0006 92.5625L33.0005 71.0625Z" fill="#3C3C3C"/>
<path d="M33.0012 207.062L33.0008 132.937L35.5008 134.187L37.0008 136.312L41.6259 138.187L45.0009 142.062L51.0009 143.062L54.7509 145.687C60.8343 150.771 73.501 161.362 75.501 163.062C77.501 164.762 83.4177 168.354 86.126 169.937H81.001L71.626 167.062L64.251 164.562L64.251 168.937C63.1677 168.396 61.001 167.262 61.001 167.062L61.001 169.937L45.001 164.562C46.751 166.187 49.776 169.537 47.876 169.937C45.976 170.337 43.6677 170.854 42.751 171.062L34.501 169.937L34.501 172.687L36.3761 175.062C38.6677 174.479 45.2011 173.437 53.0011 173.937C60.8011 174.437 72.2511 178.229 77.0011 180.062L69.0011 183.062C74.2095 187.396 83.6262 196.037 79.6262 195.937C75.6262 195.837 66.4595 197.229 62.3762 197.937C63.5845 198.021 68.2012 198.262 77.0012 198.562C85.8012 198.862 113.335 204.354 126.001 207.062H33.0012Z" fill="#3C3C3C"/>
<path d="M62.3758 120.312L134.251 135.062L64.2508 123.062M52.1257 111.062L122.876 127.687L123.751 121.187L129.001 121.812L126.751 129.062L131.751 129.562L134.251 123.062H139.001L137.001 130.062H141.001M34.5006 99.0625C37.5423 100.979 53.0007 106.312 53.0007 106.312C53.0007 106.312 99.5007 119.062 114.751 119.062M193.001 132.937C188.001 133.979 177.301 136.487 174.501 138.187C171.701 139.887 173.334 140.312 174.501 140.312L181.001 138.187L189.001 136.312H190.501L185.001 140.312H181.001H190.501H193.001L193.001 151.062H189.001L187.251 147.062L181.001 148.312L177.001 147.062L175.501 151.062L166.501 155.062L158.501 159.062L157.001 156.187L153.001 161.562L145.751 163.062H137.001L151.251 167.062L162.251 164.562L163.751 168.937L173.001 171.062H181.001L185.001 168.937L189.001 171.062L193.001 165.812M33.0005 71.0625H37.0005L45.0005 75.0625L43.2505 76.5625H41.0005L37.0006 92.5625H33.0006L47.0006 95.0625L45.0006 96.3125L61.0007 101.312L69.0007 103.062L94.2507 109.812L95.7507 107.062H98.5007L98.5007 103.062L105.001 107.062L105.001 109.812L109.001 113.562L118.501 116.562L126.751 119.062L130.001 117.562H133.001L137.001 107.812L136.376 106.312L137.001 104.687L147.251 107.062L147.251 109.187L145.751 109.812L143.251 120.312L135.626 117.562L145.001 121.187L149.001 123.062L149.001 125.812H145.751L145.001 133.812L143.751 151.062L137.001 155.062L133.001 156.187L122.876 155.062L123.751 147.062L118.501 145.687L118.501 140.312L65.0008 130.062L60.2508 127.687L61.0008 124.687L54.7507 114.312L55.6258 123.062H53.0008L53.0008 124.687L54.7508 129.062L53.0008 128.437L52.1258 132.062L50.2508 132.937L49.0008 129.562L49.0008 126.062L50.2508 124.687L50.2508 121.812L47.8757 113.562L33.0007 109.812L33.0007 105.437L47.8757 109.812L33.0007 103.812L33.0005 71.0625ZM33.0008 132.937L33.0012 207.062H126.001C113.335 204.354 85.8012 198.862 77.0012 198.562C68.2012 198.262 63.5845 198.021 62.3762 197.937C66.4595 197.229 75.6262 195.837 79.6262 195.937C83.6262 196.037 74.2095 187.396 69.0011 183.062L77.0011 180.062C72.2511 178.229 60.8011 174.437 53.0011 173.937C45.2011 173.437 38.6677 174.479 36.3761 175.062L34.501 172.687L34.501 169.937L42.751 171.062C43.6677 170.854 45.976 170.337 47.876 169.937C49.776 169.537 46.751 166.187 45.001 164.562L61.001 169.937C61.001 168.896 61.001 166.862 61.001 167.062C61.001 167.262 63.1677 168.396 64.251 168.937L64.251 164.562L71.626 167.062L81.001 169.937H86.126C83.4177 168.354 77.501 164.762 75.501 163.062C73.501 161.362 60.8343 150.771 54.7509 145.687L51.0009 143.062L45.0009 142.062L41.6259 138.187L37.0008 136.312L35.5008 134.187L33.0008 132.937Z" stroke="black" stroke-width="2"/>
<path d="M33.0002 66.3125L33 27.0625H52.25M160.375 27.0625H193L193 86.5625M193.001 165.437L193.001 207.062H165.001M128.251 207.062H131.001M133.251 207.062H136.001M138.501 207.062H141.251M143.876 207.062H146.626M149.376 207.062H152.126M154.626 207.062H157.376M159.751 207.062H162.501" stroke="black" stroke-width="2"/>
<path d="M72.3753 83.0625H69.5003L70.5002 77.4373L69.5002 76.0623L71.4257 74.498C71.4498 74.4768 71.4749 74.4565 71.5002 74.4375L71.4257 74.498C71.1329 74.7563 70.9892 75.1547 72.3752 75.0623C73.8752 74.9623 77.0002 73.2708 78.3752 72.4375L78.3752 74.4375L85.0002 69.8125L93.0001 64.4373C91.2918 65.6874 88.9002 67.9625 93.0002 67.0625C98.3751 60.1875 106.375 53.8125 106.375 53.8125C106.375 53.8125 103.458 60.7708 102.625 61.8125L106.375 60.1875L105.75 61.8125L110.25 59.0625L109 68.1875L109 69.8125L107.75 70.4375L107.75 73.1875L107.125 72.4375L103.875 74.4375L103.25 73.1875L106.375 71.8125H103.875L102.625 72.4375L99.1252 76.0623L97.0002 73.1875L97.0002 71.0625L97.9799 70.2886L96.2502 71.0625L96.2502 73.1875L97.0002 74.4375L91.7502 76.6875H94.3752L89.0002 78.4375L85.0002 79.0625L81.0002 81.9375L82.5002 79.0625L81.0002 79.9375L81.7502 78.4375L76.3752 80.5625H71.5002L70.5002 81.9375L72.3753 83.0625Z" fill="white"/>
<path d="M75.3753 85.6873H69.0003L67.8753 89.4373H74.5003L79.2503 92.1873C78.042 91.104 77.7503 89.4373 77.7503 89.4373C79.1253 89.4373 83.1253 92.1873 83.1253 92.1873L87.2503 94.6875C87.2503 94.6875 92.6253 96.2706 94.3753 97.1873L90.0003 98.4373L104.375 107.062L100 108.687L111.584 116.896C112.375 116.687 126.5 119.062 126.5 119.062C126.5 119.062 120.875 110.062 117 106.187C115.144 104.331 111.75 105.146 109 106.187C108.792 105.396 107.125 103.662 107.125 103.062C107.125 102.312 105 102.687 103.25 101.062C101.85 99.7623 100.5 99.6873 100 99.8123L100 98.4373H98.3753L99.1253 97.1873L95.0003 94.0623C93.2086 93.104 88.7503 91.9623 87.7503 91.0623C86.7503 90.1623 84.3336 89.979 82.5003 89.4373H86.3753L93.0003 91.0623L97.0003 92.1873C98.6253 93.229 102.025 95.3873 102.625 95.6873C103.375 96.0623 109 98.3123 112.375 101.062C115.075 103.262 122.584 104.979 126 105.562L132.125 107.062C130.834 105.896 126.6 102.662 120 99.0623C117.884 97.9079 94.3311 88.9673 103.875 91.0623C104.25 91.2706 105.275 91.7873 106.375 92.1873C107.475 92.5873 114.584 93.604 118 94.0623C116.542 93.4373 112.7 91.7873 109 90.1873C105.3 88.5873 101.75 86.0623 100 85.6873C98.9012 86.7864 102.635 90.6352 94.3753 88.3123L96.2503 87.0623L91.7503 86.3123L90.8753 87.0623L87.2503 86.3123L87.2503 87.0623L86.3753 86.3123L83.1253 85.6873L81.7503 86.3123L78.3753 85.6873H75.3753Z" fill="white"/>
<path d="M74.5001 60.1875L76.3751 61.1875L77.7501 56.8125L81.0001 55.0625L80.0001 56.8125L87.7501 53.8125L90.8751 48.8125L91.7501 52.4375L89.0001 59.0625L86.3751 61.8125L81.0001 64.4373L81.0001 61.8125L77.7502 65.4375L72.3752 67.0625L72.3752 68.9373L78.3752 68.1875C83.0418 66.3125 92.6501 62.0875 93.7501 60.1875C94.8501 58.2875 92.8751 59.3958 91.7501 60.1875L96.2501 51.0625L98.3751 53.8125L107.125 37.5625L108.375 40.5625L111 37.5625M69.5003 83.0625H72.3753L70.5002 81.9375L71.5002 80.5625H76.3752L81.7502 78.4375L81.0002 79.9375L82.5002 79.0625L81.0002 81.9375L85.0002 79.0625L89.0002 78.4375L94.3752 76.6875H91.7502L97.0002 74.4375L96.2502 73.1875L96.2502 71.0625L101 68.9373L98.3752 69.9764L97.0002 71.0625L97.0002 73.1875L99.1252 76.0623L102.625 72.4375L103.875 71.8125H106.375L103.25 73.1875L103.875 74.4375L107.125 72.4375L107.75 73.1875L107.75 70.4375L109 69.8125L109 68.1875L110.25 59.0625L105.75 61.8125L106.375 60.1875L102.625 61.8125C103.458 60.7708 106.375 53.8125 106.375 53.8125C106.375 53.8125 98.3751 60.1875 93.0002 67.0625C88.9002 67.9625 91.2918 65.6874 93.0001 64.4373L85.0002 69.8125L78.3752 74.4375L78.3752 72.4375C77.0002 73.2708 73.8752 74.9623 72.3752 75.0623C70.8752 75.1623 71.1669 74.6874 71.5002 74.4375L69.5002 76.0623L70.5002 77.4373L69.5003 83.0625ZM69.0003 85.6873H75.3753H78.3753L81.7503 86.3123L83.1253 85.6873L86.3753 86.3123L87.2503 87.0623L87.2503 86.3123L90.8753 87.0623L91.7503 86.3123L96.2503 87.0623L94.3753 88.3123C102.635 90.6352 98.9012 86.7864 100 85.6873C101.75 86.0623 105.3 88.5873 109 90.1873C112.7 91.7873 116.542 93.4373 118 94.0623C114.584 93.604 107.475 92.5873 106.375 92.1873C105.275 91.7873 104.25 91.2707 103.875 91.0623C94.3311 88.9673 117.884 97.9079 120 99.0623C126.6 102.662 130.834 105.896 132.125 107.062L126 105.562C122.584 104.979 115.075 103.262 112.375 101.062C109 98.3123 103.375 96.0623 102.625 95.6873C102.025 95.3873 98.6253 93.229 97.0003 92.1873L93.0003 91.0623L86.3753 89.4373H82.5003C84.3336 89.979 86.7503 90.1623 87.7503 91.0623C88.7503 91.9623 93.2086 93.104 95.0003 94.0623L99.1253 97.1873L98.3753 98.4373H100L100 99.8123C100.5 99.6873 101.85 99.7623 103.25 101.062C105 102.687 107.125 102.312 107.125 103.062C107.125 103.662 108.792 105.396 109 106.187C111.75 105.146 115.144 104.331 117 106.187C120.875 110.062 126.5 119.062 126.5 119.062C126.5 119.062 112.375 116.687 111.584 116.896L100 108.687L104.375 107.062L90.0003 98.4373L94.3753 97.1873C92.6253 96.2707 87.2503 94.6875 87.2503 94.6875L83.1253 92.1873C83.1253 92.1873 79.1253 89.4373 77.7503 89.4373C77.7503 89.4373 78.042 91.104 79.2503 92.1873L74.5003 89.4373H67.8753L69.0003 85.6873Z" stroke="black" stroke-width="2"/>
<path d="M82.125 93.3125L82.125 95.6875L69.75 91.0625H66.875L67.625 93.3125L72.375 95.6875L66.875 95.0625L66.875 97.6875L80.8751 100.754L78.8751 103.754C78.8751 103.754 70.0408 100.834 68.375 99.9375C66.9939 99.1938 72.8899 108.571 80.0001 107.062L82.1251 104.562C85.7124 107.448 87.8751 113.062 87.8751 113.062L107 124.504L94.1251 111.062L89.0001 106.187L84.1251 101.812L93.0001 104.562L97.0001 110.062L109.625 111.062L100.125 107.062L95.7501 101.812L86.75 98.8789L86.75 95.6875L82.125 93.3125Z" fill="white" stroke="black" stroke-width="2"/>
<path d="M163.376 139.062L165.001 141.187L165.001 142.312L171.501 140.312H178.626L171.501 141.687L171.001 143.062L167.626 144.687L165.001 145.437L169.001 147.812C166.585 146.937 161.176 145.362 158.876 146.062M149.751 149.687L154.001 147.812L154.001 146.062L156.001 143.062C156.001 142.479 156.201 141.287 157.001 141.187C157.801 141.087 160.668 139.729 162.001 139.062L162.751 137.437L162.001 136.812H163.376L165.751 125.562L167.626 116.437L171.501 101.562L165.751 100.062L162.751 101.562L162.001 105.062H159.876L149.751 149.687Z" stroke="black" stroke-width="2"/>
<path d="M47.3755 94.4375L49.0005 93.0625L55.3851 95.0625L57.0005 95.5685L58.2505 90.4553L57.0005 90.0982L53.0005 88.9553L53.0004 86.1875L56.0004 77.1875L57.0004 77.4511L56.0004 73.9375L65.0002 38.4375L63.8752 36.4375L65.6704 35.8125L63.8752 32.9375L63.2501 29.0625H70.6251L73.0001 31.8125L73.0002 35.0625L70.6252 36.4375L71.7502 38.4375L62.2504 75.0625L62.8754 79L69.0004 80.6148L70.6254 77.4511L70.6254 75.0625L78.7502 41.1875L79.6252 40.5625L79.6252 38.4375L79.6252 36.4375L82.2502 35.0625L73.0001 29.8125L74.5001 22.0625H67.3751L79.625 9.6875H87.25L75.8028 22.8474L84.2501 27.9375L94.5001 15.0625L101.813 13.375L109.125 11.6875L117.875 27.0625L119 42.4375L122.75 44.75L124.625 45.9062L126.5 47.0625L125.5 53.6875L125 53.3842L122.875 55.0625L122.875 57.4375L115.251 105.062L107.626 106.437L106.876 103.062H106.126L102.501 100.687L105 88.5625L111.5 53.3842L109.75 49.0625L115.25 48.3125L119 51.0625L117 53.3842L117 55.0625L109.001 101.562L106.126 103.062H106.876L107.626 106.437L115.251 105.062L122.875 57.4375L122.875 55.0625L125 53.3842L117.875 49.0625L119 42.4375H111.5L110.875 27.9375L101.813 13.375L94.5001 15.0625L84.2501 27.9375L75.8028 22.8474L74.5001 22.0625L73.0001 29.8125L82.2502 35.0625L79.6252 36.4375L79.6252 38.4375L79.6252 40.5625L78.7502 41.1875L70.6254 75.0625L70.6254 77.4511L69.0004 80.6148L69.7504 80.8125L68.0005 88.9553L65.6707 92.5754L67.3755 93.0625L68.0005 95.0625L65.6707 97.5898L68.0005 98.0625L69.0005 100.687L68.0005 103.062L58.2505 100.687L54.0629 99.3651L46.3755 96.9375L47.3755 94.4375Z" fill="#C4C4C4"/>
<path d="M50.2505 93.0625L49.6255 91.0625L51.6255 88.5625L53.0005 88.9553M65.6707 97.5898L59.3755 96.3125L57.0005 95.5685M65.6707 97.5898L68.0005 98.0625L69.0005 100.687L68.0005 103.062L58.2505 100.687L54.0629 99.3651M65.6707 97.5898L68.0005 95.0625L67.3755 93.0625L65.6707 92.5754M53.0005 88.9553L53.0004 86.1875L56.0004 77.1875L61.0004 78.5057M53.0005 88.9553L57.0005 90.0982M65.6707 92.5754L68.0005 88.9553L69.7504 80.8125L69.0004 80.6148M65.6707 92.5754L58.2505 90.4553M57.0004 77.4511L56.0004 73.9375L65.0002 38.4375L63.8752 36.4375L65.6704 35.8125L63.8752 32.9375L63.2501 29.0625H70.6251L73.0001 31.8125L73.0002 35.0625L70.6252 36.4375L71.7502 38.4375L62.2504 75.0625L62.8754 79M62.8754 79L69.0004 80.6148M62.8754 79L61.0004 78.5057M69.0004 80.6148L70.6254 77.4511L70.6254 75.0625L78.7502 41.1875L79.6252 40.5625L79.6252 38.4375L79.6252 36.4375L82.2502 35.0625L73.0001 29.8125L74.5001 22.0625M74.5001 22.0625H67.3751M74.5001 22.0625L75.8028 22.8474M84.2501 27.9375L82.7502 35.0625M84.2501 27.9375L94.5001 15.0625L101.813 13.375M84.2501 27.9375L75.8028 22.8474M109.125 11.6875L117.875 27.0625M109.125 11.6875L101.813 13.375M109.125 11.6875L110.875 5.3125M119 42.4375L117.875 49.0625L125 53.3842M119 42.4375L117.875 27.0625M119 42.4375H111.5M119 42.4375L122.75 44.75L124.625 45.9062M117.875 27.0625L110.875 27.9375M125 53.3842L125.5 53.6875L126.5 47.0625L124.625 45.9062M125 53.3842L122.875 55.0625L122.875 57.4375L115.251 105.062L107.626 106.437L106.876 103.062H106.126M106.126 103.062L109.001 101.562L117 55.0625L117 53.3842L119 51.0625L115.25 48.3125L109.75 49.0625L111.5 53.3842L105 88.5625L102.501 100.687L106.126 103.062ZM110.875 48.3125L111.5 42.4375M111.5 42.4375L110.875 27.9375M110.875 27.9375L101.813 13.375M65.0001 22.0625H67.3751M67.3751 22.0625L79.625 9.6875H87.25L75.8028 22.8474M124.625 45.9062L123.625 31.0625M61.0004 78.5057L57.0005 90.0982M57.0005 90.0982L58.2505 90.4553M58.2505 90.4553L57.0005 95.5685M57.0005 95.5685L55.3851 95.0625M55.3851 95.0625L49.0005 93.0625L47.3755 94.4375L46.3755 96.9375L54.0629 99.3651M55.3851 95.0625L54.0629 99.3651" stroke="black" stroke-width="2"/>
<path d="M161.001 104.562L170.501 107.062L169.751 109.062L182.501 111.062L177.001 113.312H182.501L179.149 113.93L197.001 119.062L207.501 121.062L202.001 123.062L193.001 121.062L173.001 115.062L179.149 113.93L177.001 113.312H169.001L169.751 109.062L169.001 111.062L159.251 108.562L161.001 104.562Z" fill="#E02323"/>
<path d="M137.001 109.062L145.001 111.062L145.001 113.062L153.001 115.062L151.751 119.062H155.751L154.751 123.062H149.001L150.501 116.812H143.251L144.214 114.748L135.001 111.062L137.001 109.062Z" fill="#E02323"/>
<path d="M177.001 123.062H166.251L167.501 119.062H179.751L177.001 123.062Z" fill="#E02323"/>
<path d="M33.0005 75.0625L41.0005 77.8125L40.3755 79.3125L49.0005 83.0625L46.7505 84.8125L53.0006 87.0625L51.0006 88.8125L43.0005 84.8125L45.0005 83.0625H39.7505L40.3755 79.3125L39.7505 80.8125L33.0005 79.0625L33.0005 75.0625Z" fill="#E02323"/>
<path d="M169.751 109.062L170.501 107.062L161.001 104.562L159.251 108.562L169.001 111.062L169.751 109.062ZM169.751 109.062L182.501 111.062L177.001 113.312L197.001 119.062L207.501 121.062L202.001 123.062L193.001 121.062L173.001 115.062L182.501 113.312H169.001L169.751 109.062ZM145.001 113.062L145.001 111.062L137.001 109.062L135.001 111.062L145.001 115.062L145.001 113.062ZM145.001 113.062L153.001 115.062L151.751 119.062H155.751L154.751 123.062H149.001L150.501 116.812H143.251L145.001 113.062ZM40.3755 79.3125L41.0005 77.8125L33.0005 75.0625L33.0005 79.0625L39.7505 80.8125L40.3755 79.3125ZM40.3755 79.3125L49.0005 83.0625L46.7505 84.8125L53.0006 87.0625L51.0006 88.8125L43.0005 84.8125L45.0005 83.0625H39.7505L40.3755 79.3125ZM166.251 123.062H177.001L179.751 119.062H167.501L166.251 123.062Z" stroke="black" stroke-width="2"/>
<circle cx="4.125" cy="4.125" r="3.125" transform="matrix(1 0 5.51922e-06 1 152.751 103.062)" stroke="black" stroke-width="2"/>
<rect width="1" height="1" transform="matrix(1 0 5.51922e-06 1 103.5 24.9375)" fill="white"/>
<rect width="1" height="1" transform="matrix(1 0 5.51922e-06 1 94.5 30.0625)" fill="white"/>
<rect width="1" height="1" transform="matrix(1 0 5.51922e-06 1 104.5 48.9375)" fill="white"/>
<rect width="1" height="1" transform="matrix(1 0 5.51922e-06 1 83.9961 38.0625)" fill="white"/>
<path d="M21.0005 143L1.00049 143L1.00026 159L9.00014 167.5L1.00003 175L0.999808 191L10.9998 191L20.9998 191L21.0005 143Z" fill="#FF4B3C"/>
<path d="M21.0005 143L1.00049 143L1.00026 159L9.00014 167.5L1.00003 175L0.999808 191L10.9998 191L20.9998 191L21.0005 143Z" fill="black" fill-opacity="0.2"/>
<path d="M21.0005 143L1.00049 143L1.00026 159L9.00014 167.5L1.00003 175L0.999808 191L10.9998 191L20.9998 191L21.0005 143Z" stroke="black" stroke-width="2"/>
<path d="M12.9999 151L21 143L20.9999 151L12.9999 151Z" fill="black" fill-opacity="0.38" stroke="black" stroke-width="2" stroke-linejoin="bevel"/>
<path d="M205 143L225 143L225 159L217 167.5L225 175L225.001 191L215.001 191L205.001 191L205 143Z" fill="#FF4B3C"/>
<path d="M205 143L225 143L225 159L217 167.5L225 175L225.001 191L215.001 191L205.001 191L205 143Z" fill="black" fill-opacity="0.2"/>
<path d="M205 143L225 143L225 159L217 167.5L225 175L225.001 191L215.001 191L205.001 191L205 143Z" stroke="black" stroke-width="2"/>
<path d="M213.002 151L205.002 143L205.002 151L213.002 151Z" fill="black" fill-opacity="0.38" stroke="black" stroke-width="2" stroke-linejoin="bevel"/>
<path d="M212.99 150.977L12.9902 150.977L12.9896 198.977L212.99 198.977L212.99 150.977Z" fill="#FF4B3C" stroke="black" stroke-width="2"/>
<path d="M32.5056 184.452L34.7016 183.696L34.7019 166.56L32.5059 165.804L32.5059 164.256L42.1179 164.256C43.9899 164.256 45.3819 164.676 46.2939 165.516C47.2059 166.332 47.6619 167.772 47.6618 169.836C47.6618 171.18 47.3498 172.188 46.7258 172.86C46.1018 173.508 45.3338 174.048 44.4218 174.48L44.4218 174.696C45.8138 174.936 46.9298 175.5 47.7697 176.388C48.6097 177.276 49.0297 178.392 49.0297 179.736C49.0297 181.992 48.4296 183.6 47.2296 184.56C46.0536 185.52 44.4696 186 42.4776 186L32.5056 186L32.5056 184.452ZM40.8938 174.012C41.8538 174.012 42.5498 173.772 42.9818 173.292C43.4138 172.812 43.6298 171.864 43.6298 170.448C43.6299 168.888 43.5099 167.772 43.2699 167.1C43.0539 166.428 42.6579 166.116 42.0819 166.164L38.6259 166.596L38.6258 174.012L40.8938 174.012ZM42.9456 184.056C43.6656 184.128 44.1816 183.804 44.4937 183.084C44.8057 182.34 44.9617 181.08 44.9617 179.304C44.9617 178.392 44.8417 177.72 44.6017 177.288C44.3857 176.856 44.0737 176.58 43.6657 176.46C43.2817 176.34 42.7297 176.28 42.0097 176.28L38.6257 176.28L38.6256 183.588L42.9456 184.056ZM57.0005 186.36C55.9445 186.36 54.9725 186.072 54.0845 185.496C53.2205 184.896 52.5245 184.008 51.9966 182.832C51.4926 181.656 51.2406 180.216 51.2406 178.512C51.2406 177.384 51.3247 176.34 51.4927 175.38C51.6607 174.396 51.8767 173.628 52.1407 173.076C52.5487 172.524 53.4487 171.78 54.8407 170.844C56.2567 169.908 57.1928 169.44 57.6488 169.44C57.9128 169.44 58.8488 169.56 60.4567 169.8C62.0647 170.016 63.3007 170.196 64.1647 170.34L64.1646 183.696L65.4245 184.2L65.4245 185.748C63.2405 186.156 62.0285 186.36 61.7885 186.36C61.6925 186.36 61.4525 186.18 61.0685 185.82C60.7085 185.46 60.5285 185.22 60.5285 185.1L60.5285 183.804C58.3445 185.508 57.1685 186.36 57.0005 186.36ZM57.3966 183.444C57.6366 183.444 58.6446 183 60.4206 182.112L60.4207 172.428C59.8447 172.212 59.1127 172.02 58.2247 171.852C57.3607 171.66 56.7847 171.588 56.4967 171.636C56.0647 171.732 55.7407 172.272 55.5247 173.256C55.3087 174.24 55.2007 175.884 55.2006 178.188C55.2006 179.34 55.3206 180.312 55.5606 181.104C55.8246 181.896 56.1246 182.484 56.4606 182.868C56.8206 183.252 57.1326 183.444 57.3966 183.444ZM70.1416 186.36C70.0216 186.36 69.7696 186.18 69.3856 185.82C69.0257 185.46 68.8457 185.22 68.8457 185.1L68.8458 172.032L67.5138 171.564L67.5139 170.052C69.6499 169.668 70.8379 169.476 71.0779 169.476C71.1979 169.476 71.4619 169.68 71.8699 170.088C72.3019 170.472 72.5179 170.712 72.5179 170.808L72.4458 172.14C74.1979 170.244 75.1459 169.296 75.2899 169.296C75.7219 169.296 76.5499 169.488 77.7739 169.872C77.8459 170.04 77.9059 170.244 77.9539 170.484C78.0019 170.7 78.0259 170.904 78.0259 171.096C78.0259 171.288 77.8578 171.708 77.5218 172.356C77.2098 172.98 77.0058 173.316 76.9098 173.364C75.9738 173.004 75.3138 172.824 74.9298 172.824C74.7618 172.824 74.4498 172.932 73.9938 173.148C73.5378 173.34 73.0698 173.58 72.5898 173.868L72.5897 183.48L74.5337 184.056L74.5336 185.712C71.8456 186.144 70.3816 186.36 70.1416 186.36ZM84.9269 192.552C84.8309 192.552 84.6509 192.324 84.3869 191.868C84.1469 191.412 84.0269 191.112 84.0269 190.968L85.719 185.964C85.095 186.06 84.723 186.108 84.603 186.108C84.531 186.108 84.339 186 84.027 185.784L80.2832 172.032L78.8432 171.636L78.8432 170.016C80.9552 169.68 82.1192 169.512 82.3352 169.512C82.4552 169.512 82.7192 169.656 83.1272 169.944C83.5352 170.232 83.7632 170.46 83.8112 170.628L85.7911 178.944L86.511 182.724L86.871 182.724L89.7512 171.924L87.5552 171.672L87.5552 169.8L92.0912 169.512C92.2352 169.512 92.4512 169.692 92.7392 170.052C93.0512 170.412 93.1952 170.676 93.1712 170.844L88.419 185.892L87.4109 189.924L88.9229 190.572L88.8869 192.084C86.4629 192.396 85.1429 192.552 84.9269 192.552ZM102.469 186.36C99.9008 186.36 97.9688 185.724 96.6728 184.452C95.3768 183.156 94.7289 181.164 94.7289 178.476C94.7289 177.396 94.8129 176.352 94.9809 175.344C95.149 174.336 95.365 173.592 95.629 173.112C95.893 172.752 96.421 172.272 97.213 171.672C98.005 171.048 98.809 170.508 99.625 170.052C100.441 169.572 100.993 169.332 101.281 169.332C103.777 169.332 105.661 169.992 106.933 171.312C108.205 172.608 108.841 174.504 108.841 177C108.841 178.152 108.757 179.244 108.589 180.276C108.445 181.284 108.253 182.1 108.013 182.724C107.605 183.252 106.681 183.996 105.241 184.956C103.825 185.892 102.901 186.36 102.469 186.36ZM102.613 184.164C102.757 184.116 103.321 183.84 104.305 183.336C104.689 181.632 104.881 179.676 104.881 177.468C104.881 175.668 104.557 174.24 103.909 173.184C103.285 172.104 102.349 171.564 101.101 171.564C100.573 171.564 100.141 171.648 99.805 171.816C99.469 171.984 99.193 172.608 98.977 173.688C98.785 174.768 98.6889 176.196 98.6889 177.972C98.6889 180.276 99.0609 181.884 99.8048 182.796C100.573 183.708 101.509 184.164 102.613 184.164ZM113.806 186.36C113.686 186.36 113.434 186.18 113.05 185.82C112.69 185.46 112.51 185.22 112.51 185.1L112.51 172.104L111.178 171.564L111.178 170.052C113.434 169.668 114.682 169.476 114.922 169.476C115.042 169.476 115.27 169.656 115.606 170.016C115.942 170.352 116.11 170.58 116.11 170.7L116.11 171.96C116.806 171.432 117.562 170.892 118.378 170.34C119.194 169.764 119.65 169.476 119.746 169.476C121.498 169.476 122.818 169.92 123.706 170.808C124.594 171.672 125.038 173.196 125.038 175.38L125.038 183.66L126.334 184.2L126.334 185.712C124.102 186.144 122.878 186.36 122.662 186.36C122.542 186.36 122.278 186.18 121.87 185.82C121.486 185.46 121.294 185.22 121.294 185.1L121.294 175.38C121.294 173.364 120.67 172.356 119.422 172.356C119.302 172.356 118.978 172.464 118.45 172.68C117.946 172.896 117.574 173.052 117.334 173.148C117.094 173.268 116.734 173.424 116.254 173.616L116.254 183.66L117.514 184.2L117.514 185.712C115.282 186.144 114.046 186.36 113.806 186.36ZM142.807 186.36C140.335 186.36 138.355 185.484 136.867 183.732C135.379 181.98 134.635 179.388 134.635 175.956C134.635 174.348 134.731 172.872 134.923 171.528C135.115 170.184 135.379 169.092 135.715 168.252C136.123 167.676 136.759 167.052 137.623 166.38C138.487 165.708 139.351 165.132 140.215 164.652C141.103 164.172 141.739 163.932 142.123 163.932C142.915 163.956 144.115 164.028 145.723 164.148C147.355 164.244 148.675 164.34 149.683 164.436L149.251 170.772L147.091 170.772L146.659 167.136C146.059 167.016 145.171 166.896 143.995 166.776C142.843 166.656 142.027 166.596 141.547 166.596C141.091 166.596 140.719 166.668 140.431 166.812C139.903 167.076 139.483 167.928 139.171 169.368C138.883 170.784 138.739 172.596 138.739 174.804C138.739 178.092 139.099 180.396 139.819 181.716C140.539 183.012 141.559 183.66 142.879 183.66L146.587 183.3L146.587 177.828L143.239 177.216L143.239 175.38L152.023 175.38L152.023 176.964L150.079 177.432L150.079 183.912C149.575 184.248 148.327 184.74 146.335 185.388C144.367 186.036 143.191 186.36 142.807 186.36ZM174.486 186.36C174.198 186.36 173.838 186.18 173.406 185.82C172.974 185.46 172.59 185.04 172.254 184.56C171.918 184.08 171.75 183.696 171.75 183.408L171.75 171.888L169.41 171.888L169.41 170.592L171.75 169.476L174.09 166.704C174.306 166.68 174.774 166.848 175.494 167.208L175.494 169.8L179.022 169.8L179.022 172.032L175.494 172.032L175.494 181.824C175.494 182.52 175.554 183 175.674 183.264C175.794 183.504 176.022 183.624 176.358 183.624L179.382 183.732L179.382 185.64C178.638 185.808 177.702 185.964 176.574 186.108C175.47 186.276 174.774 186.36 174.486 186.36ZM187.301 186.36C186.173 186.36 185.129 186.072 184.169 185.496C183.233 184.92 182.477 184.056 181.901 182.904C181.349 181.752 181.073 180.348 181.073 178.692C181.073 177.516 181.157 176.412 181.325 175.38C181.493 174.348 181.709 173.58 181.973 173.076C182.237 172.716 182.765 172.236 183.557 171.636C184.349 171.012 185.141 170.472 185.933 170.016C186.749 169.56 187.313 169.332 187.625 169.332C188.945 169.332 190.025 169.548 190.865 169.98C191.705 170.412 192.353 171.228 192.809 172.428C193.265 173.604 193.493 175.272 193.493 177.432L184.997 178.152C184.997 179.472 185.165 180.528 185.501 181.32C185.861 182.112 186.281 182.676 186.761 183.012C187.241 183.348 187.697 183.516 188.129 183.516L192.953 183.336L192.953 184.956C192.113 185.244 191.045 185.556 189.749 185.892C188.453 186.204 187.637 186.36 187.301 186.36ZM189.641 175.884C189.641 173.052 188.897 171.624 187.409 171.6L187.121 171.6C186.737 171.6 186.389 171.66 186.077 171.78C185.789 171.876 185.549 172.404 185.357 173.364C185.165 174.3 185.069 175.344 185.069 176.496L189.641 175.884Z" fill="#9E3333"/>
<path d="M159.833 186.36C158.777 186.36 157.805 186.072 156.917 185.496C156.053 184.896 155.357 184.008 154.829 182.832C154.325 181.656 154.073 180.216 154.073 178.512C154.073 177.384 154.157 176.34 154.325 175.38C154.493 174.396 154.709 173.628 154.973 173.076C155.381 172.524 156.281 171.78 157.673 170.844C159.089 169.908 160.025 169.44 160.481 169.44C160.745 169.44 161.681 169.56 163.289 169.8C164.897 170.016 166.133 170.196 166.997 170.34L166.997 183.696L168.257 184.2L168.257 185.748C166.073 186.156 164.861 186.36 164.621 186.36C164.525 186.36 164.285 186.18 163.901 185.82C163.541 185.46 163.361 185.22 163.361 185.1L163.361 183.804C161.177 185.508 160.001 186.36 159.833 186.36ZM160.229 183.444C160.469 183.444 161.477 183 163.253 182.112L163.253 172.428C162.677 172.212 161.945 172.02 161.057 171.852C160.193 171.66 159.617 171.588 159.329 171.636C158.897 171.732 158.573 172.272 158.357 173.256C158.141 174.24 158.033 175.884 158.033 178.188C158.033 179.34 158.153 180.312 158.393 181.104C158.657 181.896 158.957 182.484 159.293 182.868C159.653 183.252 159.965 183.444 160.229 183.444Z" fill="#CA3D3D"/>
<defs>
<linearGradient id="paint0_linear_3379_7734" x1="80" y1="0" x2="80" y2="180" gradientUnits="userSpaceOnUse">
<stop stop-color="#FF0099"/>
<stop offset="1" stop-color="#0047FF" stop-opacity="0"/>
</linearGradient>
<linearGradient id="paint1_linear_3379_7734" x1="103.25" y1="56.0625" x2="73.7504" y2="84.5625" gradientUnits="userSpaceOnUse">
<stop stop-color="#0038FF"/>
<stop offset="1"/>
</linearGradient>
</defs>
</svg>
