<svg width="1880" height="832" viewBox="0 0 1880 832" fill="none" xmlns="http://www.w3.org/2000/svg">
<rect x="155.899" y="278.242" width="8" height="40" transform="rotate(135 155.899 278.242)" fill="#F6C57B"/>
<rect width="44" height="44" transform="matrix(1 0 0 -1 148 320)" fill="#F6C57B"/>
<rect x="1" y="-1" width="30" height="30" transform="matrix(1 0 0 -1 154 312)" fill="#B3926B" stroke="black" stroke-width="2"/>
<rect x="1" y="-1" width="12" height="12" transform="matrix(1 0 0 -1 163 303)" fill="#B3926B" stroke="black" stroke-width="2"/>
<rect x="1148" y="294" width="92" height="8" fill="#F6C57B"/>
<rect x="1596" y="294" width="92" height="8" fill="#F6C57B"/>
<rect width="44" height="44" transform="translate(1684 276)" fill="#F6C57B"/>
<path d="M1709 298C1709 295 1706 295 1706 295C1706 295 1703 295 1703 298C1703 299.657 1704.34 301 1706 301C1707.66 301 1709 299.657 1709 298Z" fill="black" fill-opacity="0.2"/>
<rect x="1724" y="294" width="92" height="8" fill="#F6C57B"/>
<rect x="1596" y="550" width="92" height="8" fill="#F6C57B"/>
<rect width="44" height="44" transform="translate(1684 532)" fill="#F6C57B"/>
<path d="M1709 554C1709 551 1706 551 1706 551C1706 551 1703 551 1703 554C1703 555.657 1704.34 557 1706 557C1707.66 557 1709 555.657 1709 554Z" fill="black" fill-opacity="0.2"/>
<rect x="1724" y="550" width="92" height="8" fill="#F6C57B"/>
<rect x="60" y="38" width="92" height="8" fill="#F6C57B"/>
<rect width="44" height="44" transform="translate(84 212)" fill="#F6C57B"/>
<path d="M101 228H111V237L106 241L101 237V228Z" fill="black" fill-opacity="0.5"/>
<rect x="572" y="38" width="92" height="8" fill="#F6C57B"/>
<rect width="44" height="44" transform="translate(1108 20)" fill="#F6C57B"/>
<rect x="1115" y="27" width="30" height="30" fill="#B3926B" stroke="black" stroke-width="2"/>
<rect x="1124" y="36" width="12" height="12" fill="#B3926B" stroke="black" stroke-width="2"/>
<rect x="1152" y="46" width="8" height="20" transform="rotate(-90 1152 46)" fill="#F6C57B"/>
<rect x="1126" y="64" width="8" height="20" fill="#F6C57B"/>
<rect x="1126" y="152" width="92" height="8" transform="rotate(-90 1126 152)" fill="#F6C57B"/>
<rect width="44" height="44" transform="translate(1108 148)" fill="#F6C57B"/>
<path d="M1133 170C1133 167 1130 167 1130 167C1130 167 1127 167 1127 170C1127 171.657 1128.34 173 1130 173C1131.66 173 1133 171.657 1133 170Z" fill="black" fill-opacity="0.2"/>
<rect x="1088" y="174" width="8" height="20" transform="rotate(-90 1088 174)" fill="#F6C57B"/>
<rect x="1126" y="192" width="8" height="20" fill="#F6C57B"/>
<rect width="44" height="44" transform="translate(1108 212)" fill="#F6C57B"/>
<rect x="1115" y="219" width="30" height="30" fill="#B3926B" stroke="black" stroke-width="2"/>
<rect x="1124" y="228" width="12" height="12" fill="#B3926B" stroke="black" stroke-width="2"/>
<rect x="1126" y="256" width="8" height="20" fill="#F6C57B"/>
<rect width="44" height="44" transform="translate(1108 276)" fill="#F6C57B"/>
<path fill-rule="evenodd" clip-rule="evenodd" d="M1122 294.5C1122 293.119 1123.12 292 1124.5 292C1125.88 292 1127 293.119 1127 294.5V295H1122V294.5ZM1129 294.5V295H1133H1135H1138C1138 293.343 1136.66 292 1135 292H1128.24C1128.72 292.715 1129 293.575 1129 294.5ZM1133 297V299H1135V297H1138V304H1129V297H1133ZM1122 304V297H1127V304H1122ZM1138 306H1129H1127H1122H1120V304V297V295V294.5C1120 292.184 1121.75 290.276 1124 290.027V290H1124.5H1135C1137.76 290 1140 292.239 1140 295V296V297V304V306H1138Z" fill="black" fill-opacity="0.5"/>
<rect x="1152" y="302" width="8" height="20" transform="rotate(-90 1152 302)" fill="#F6C57B"/>
<rect width="44" height="44" transform="translate(148 20)" fill="#F6C57B"/>
<rect x="155" y="27" width="30" height="30" rx="15" fill="#B3926B" stroke="black" stroke-width="2"/>
<path d="M180.96 52.4603L159.04 30.54" stroke="black" stroke-width="2"/>
<rect width="44" height="44" transform="translate(660 20)" fill="#F6C57B"/>
<rect x="667" y="27" width="30" height="30" rx="15" fill="#B3926B" stroke="black" stroke-width="2"/>
<path d="M692.96 52.4603L671.04 30.54" stroke="black" stroke-width="2"/>
<rect width="44" height="44" transform="translate(660 148)" fill="#F6C57B"/>
<rect x="667" y="155" width="30" height="30" fill="#B3926B" stroke="black" stroke-width="2"/>
<rect x="676" y="164" width="12" height="12" fill="#B3926B" stroke="black" stroke-width="2"/>
<rect x="678" y="192" width="8" height="20" fill="#F6C57B"/>
<rect width="44" height="44" transform="translate(660 212)" fill="#F6C57B"/>
<path d="M686 228L689.001 231L682.001 240C682.001 235.174 682.001 233.102 682.001 230.421L686 228Z" fill="black" fill-opacity="0.5"/>
<path d="M678 228L675 231L682 240C682 235.174 681.999 233.102 681.999 230.421L678 228Z" fill="black" fill-opacity="0.5"/>
<rect x="704" y="238" width="8" height="20" transform="rotate(-90 704 238)" fill="#F6C57B"/>
<rect x="640" y="238" width="8" height="20" transform="rotate(-90 640 238)" fill="#F6C57B"/>
<rect x="678" y="256" width="8" height="20" fill="#F6C57B"/>
<rect width="44" height="44" transform="translate(660 276)" fill="#F6C57B"/>
<path d="M686 292L689.001 295L682.001 304C682.001 299.174 682.001 297.102 682.001 294.421L686 292Z" fill="black" fill-opacity="0.5"/>
<path d="M678 292L675 295L682 304C682 299.174 681.999 297.102 681.999 294.421L678 292Z" fill="black" fill-opacity="0.5"/>
<rect x="678" y="320" width="8" height="20" fill="#F6C57B"/>
<rect width="44" height="44" transform="translate(660 340)" fill="#F6C57B"/>
<path d="M686 356L689.001 359L682.001 368C682.001 363.174 682.001 361.102 682.001 358.421L686 356Z" fill="black" fill-opacity="0.5"/>
<path d="M678 356L675 359L682 368C682 363.174 681.999 361.102 681.999 358.421L678 356Z" fill="black" fill-opacity="0.5"/>
<rect x="678" y="384" width="8" height="20" fill="#F6C57B"/>
<rect width="44" height="44" transform="translate(660 404)" fill="#F6C57B"/>
<rect x="667" y="411" width="30" height="30" fill="#B3926B" stroke="black" stroke-width="2"/>
<rect x="676" y="420" width="12" height="12" fill="#B3926B" stroke="black" stroke-width="2"/>
<g opacity="0.3">
<rect width="8" height="40" transform="matrix(-0.707107 -0.707107 -0.707107 0.707107 91.8994 765.758)" fill="#F6C57B"/>
<rect width="44" height="44" transform="translate(84 724)" fill="#F6C57B"/>
<rect x="91" y="731" width="30" height="30" fill="#B3926B" stroke="black" stroke-width="2"/>
<rect x="100" y="740" width="12" height="12" fill="#B3926B" stroke="black" stroke-width="2"/>
</g>
<g opacity="0.3">
<rect width="8" height="40" transform="matrix(-0.707107 -0.707107 -0.707107 0.707107 347.899 765.758)" fill="#F6C57B"/>
<rect width="44" height="44" transform="translate(340 724)" fill="#F6C57B"/>
<rect x="347" y="731" width="30" height="30" fill="#B3926B" stroke="black" stroke-width="2"/>
<rect x="356" y="740" width="12" height="12" fill="#B3926B" stroke="black" stroke-width="2"/>
</g>
<g opacity="0.3">
<rect width="8" height="40" transform="matrix(-0.707107 -0.707107 -0.707107 0.707107 603.899 765.758)" fill="#F6C57B"/>
<rect width="44" height="44" transform="translate(596 724)" fill="#F6C57B"/>
<rect x="603" y="731" width="30" height="30" fill="#B3926B" stroke="black" stroke-width="2"/>
<rect x="612" y="740" width="12" height="12" fill="#B3926B" stroke="black" stroke-width="2"/>
</g>
<g opacity="0.3">
<rect width="8" height="40" transform="matrix(-0.707107 -0.707107 -0.707107 0.707107 859.899 765.758)" fill="#F6C57B"/>
<rect width="44" height="44" transform="translate(852 724)" fill="#F6C57B"/>
<rect x="859" y="731" width="30" height="30" fill="#B3926B" stroke="black" stroke-width="2"/>
<rect x="868" y="740" width="12" height="12" fill="#B3926B" stroke="black" stroke-width="2"/>
</g>
<g opacity="0.3">
<rect width="8" height="40" transform="matrix(-0.707107 -0.707107 -0.707107 0.707107 1371.9 765.758)" fill="#F6C57B"/>
<rect width="44" height="44" transform="translate(1364 724)" fill="#F6C57B"/>
<rect x="1371" y="731" width="30" height="30" fill="#B3926B" stroke="black" stroke-width="2"/>
<rect x="1380" y="740" width="12" height="12" fill="#B3926B" stroke="black" stroke-width="2"/>
</g>
<g opacity="0.3">
<rect width="8" height="40" transform="matrix(-0.707107 -0.707107 -0.707107 0.707107 1627.9 765.758)" fill="#F6C57B"/>
<rect width="44" height="44" transform="translate(1620 724)" fill="#F6C57B"/>
<rect x="1627" y="731" width="30" height="30" fill="#B3926B" stroke="black" stroke-width="2"/>
<rect x="1636" y="740" width="12" height="12" fill="#B3926B" stroke="black" stroke-width="2"/>
</g>
<g opacity="0.3">
<rect x="1788.1" y="765.758" width="8" height="40" transform="rotate(-45 1788.1 765.758)" fill="#F6C57B"/>
<rect width="44" height="44" transform="matrix(-1 0 0 1 1796 724)" fill="#F6C57B"/>
<rect x="-1" y="1" width="30" height="30" transform="matrix(-1 0 0 1 1788 730)" fill="#B3926B" stroke="black" stroke-width="2"/>
<rect x="-1" y="1" width="12" height="12" transform="matrix(-1 0 0 1 1779 739)" fill="#B3926B" stroke="black" stroke-width="2"/>
</g>
<rect width="44" height="44" transform="translate(1172 20)" fill="#F6C57B"/>
<rect x="1179" y="27" width="30" height="30" rx="15" fill="#B3926B" stroke="black" stroke-width="2"/>
<path d="M1204.96 52.4603L1183.04 30.54" stroke="black" stroke-width="2"/>
<rect x="1216" y="46" width="8" height="20" transform="rotate(-90 1216 46)" fill="#F6C57B"/>
<rect x="60" y="550" width="92" height="8" fill="#F6C57B"/>
<rect width="44" height="44" transform="translate(148 532)" fill="#F6C57B"/>
<path d="M165 554L173 547L171.222 554H165Z" fill="black" fill-opacity="0.5"/>
<path d="M175 554L167 561L168.778 554H175Z" fill="black" fill-opacity="0.5"/>
<rect x="188" y="550" width="92" height="8" fill="#F6C57B"/>
<rect width="44" height="44" transform="translate(148 596)" fill="#F6C57B"/>
<path d="M165 618L173 611L171.222 618H165Z" fill="black" fill-opacity="0.5"/>
<path d="M175 618L167 625L168.778 618H175Z" fill="black" fill-opacity="0.5"/>
<rect x="166" y="576" width="8" height="20" fill="#F6C57B"/>
<rect width="44" height="44" transform="translate(404 596)" fill="#F6C57B"/>
<path d="M430 612L433.001 615L426.001 624C426.001 619.174 426.001 617.102 426.001 614.421L430 612Z" fill="black" fill-opacity="0.5"/>
<path d="M422 612L419 615L426 624C426 619.174 425.999 617.102 425.999 614.421L422 612Z" fill="black" fill-opacity="0.5"/>
<rect x="422" y="640" width="8" height="20" fill="#F6C57B"/>
<rect x="572" y="550" width="92" height="8" fill="#F6C57B"/>
<rect width="44" height="44" transform="translate(660 532)" fill="#F6C57B"/>
<path d="M681 559H677V555H689L688 559H683" stroke="black" stroke-opacity="0.5" stroke-width="2"/>
<path d="M672 548L680 548M680 548L680 551L684 551L684 547L682 545L680 545L680 548Z" stroke="black" stroke-opacity="0.5" stroke-width="2"/>
<path d="M672 563H692" stroke="black" stroke-opacity="0.5" stroke-width="2"/>
<path d="M680 559V563H684V559" stroke="black" stroke-opacity="0.5" stroke-width="2"/>
<rect x="704" y="558" width="8" height="20" transform="rotate(-90 704 558)" fill="#F6C57B"/>
<rect x="700" y="550" width="92" height="8" fill="#F6C57B"/>
<rect width="44" height="44" transform="translate(661 596)" fill="#F6C57B"/>
<path d="M682 623H678V619H690L689 623H684" stroke="black" stroke-opacity="0.5" stroke-width="2"/>
<path d="M673 612L681 612M681 612L681 615L685 615L685 611L683 609L681 609L681 612Z" stroke="black" stroke-opacity="0.5" stroke-width="2"/>
<path d="M673 627H693" stroke="black" stroke-opacity="0.5" stroke-width="2"/>
<path d="M681 623V627H685V623" stroke="black" stroke-opacity="0.5" stroke-width="2"/>
<rect x="679" y="576" width="8" height="20" fill="#F6C57B"/>
<rect x="1084" y="550" width="92" height="8" fill="#F6C57B"/>
<rect width="44" height="44" transform="translate(1172 532)" fill="#F6C57B"/>
<path d="M1193 549H1189V559H1193" stroke="black" stroke-opacity="0.5" stroke-width="2"/>
<path d="M1195 549H1199V559H1195" stroke="black" stroke-opacity="0.5" stroke-width="2"/>
<rect x="1212" y="550" width="92" height="8" fill="#F6C57B"/>
<rect x="1596" y="38" width="92" height="8" fill="#F6C57B"/>
<rect x="1728" y="38" width="92" height="8" fill="#F6C57B"/>
<rect x="316" y="550" width="92" height="8" fill="#F6C57B"/>
<rect width="44" height="44" transform="translate(404 532)" fill="#F6C57B"/>
<path d="M430 548L433.001 551L426.001 560C426.001 555.174 426.001 553.102 426.001 550.421L430 548Z" fill="black" fill-opacity="0.5"/>
<path d="M422 548L419 551L426 560C426 555.174 425.999 553.102 425.999 550.421L422 548Z" fill="black" fill-opacity="0.5"/>
<rect x="384" y="558" width="8" height="20" transform="rotate(-90 384 558)" fill="#F6C57B"/>
<rect x="422" y="576" width="8" height="20" fill="#F6C57B"/>
<rect x="444" y="550" width="92" height="8" fill="#F6C57B"/>
<rect x="828" y="550" width="92" height="8" fill="#F6C57B"/>
<rect width="44" height="44" transform="translate(916 532)" fill="#F6C57B"/>
<path d="M941 554C941 551 938 551 938 551C938 551 935 551 935 554C935 555.657 936.343 557 938 557C939.657 557 941 555.657 941 554Z" fill="black" fill-opacity="0.2"/>
<rect x="934" y="576" width="8" height="20" fill="#F6C57B"/>
<rect x="956" y="550" width="92" height="8" fill="#F6C57B"/>
<rect width="44" height="44" transform="translate(916 596)" fill="#F6C57B"/>
<path d="M941 618C941 615 938 615 938 615C938 615 935 615 935 618C935 619.657 936.343 621 938 621C939.657 621 941 619.657 941 618Z" fill="black" fill-opacity="0.2"/>
<rect x="934" y="640" width="8" height="20" fill="#F6C57B"/>
<rect x="1340" y="550" width="92" height="8" fill="#F6C57B"/>
<rect width="44" height="44" transform="translate(1428 532)" fill="#F6C57B"/>
<path d="M1453 554C1453 551 1450 551 1450 551C1450 551 1447 551 1447 554C1447 555.657 1448.34 557 1450 557C1451.66 557 1453 555.657 1453 554Z" fill="black" fill-opacity="0.2"/>
<rect x="1472" y="558" width="8" height="20" transform="rotate(-90 1472 558)" fill="#F6C57B"/>
<rect x="1468" y="550" width="92" height="8" fill="#F6C57B"/>
<rect x="188" y="38" width="92" height="8" fill="#F6C57B"/>
<rect width="8" height="40" transform="matrix(-0.707107 -0.707107 -0.707107 0.707107 219.899 253.758)" fill="#F6C57B"/>
<rect width="44" height="44" transform="translate(212 212)" fill="#F6C57B"/>
<path d="M229 228H239V237L234 241L229 237V228Z" fill="black" fill-opacity="0.5"/>
<rect x="700" y="38" width="92" height="8" fill="#F6C57B"/>
<rect width="44" height="44" transform="translate(724 212)" fill="#F6C57B"/>
<rect x="731" y="219" width="30" height="30" fill="#B3926B" stroke="black" stroke-width="2"/>
<rect x="740" y="228" width="12" height="12" fill="#B3926B" stroke="black" stroke-width="2"/>
<rect width="44" height="44" transform="translate(596 212)" fill="#F6C57B"/>
<rect x="603" y="219" width="30" height="30" fill="#B3926B" stroke="black" stroke-width="2"/>
<rect x="612" y="228" width="12" height="12" fill="#B3926B" stroke="black" stroke-width="2"/>
<rect width="44" height="44" transform="translate(1236 20)" fill="#F6C57B"/>
<rect x="1243" y="27" width="30" height="30" fill="#B3926B" stroke="black" stroke-width="2"/>
<rect x="1252" y="36" width="12" height="12" fill="#B3926B" stroke="black" stroke-width="2"/>
<rect x="1254" y="64" width="8" height="20" fill="#F6C57B"/>
<rect x="1254" y="152" width="92" height="8" transform="rotate(-90 1254 152)" fill="#F6C57B"/>
<rect width="44" height="44" transform="translate(1236 148)" fill="#F6C57B"/>
<path d="M1261 170C1261 167 1258 167 1258 167C1258 167 1255 167 1255 170C1255 171.657 1256.34 173 1258 173C1259.66 173 1261 171.657 1261 170Z" fill="black" fill-opacity="0.2"/>
<rect x="1280" y="174" width="8" height="20" transform="rotate(-90 1280 174)" fill="#F6C57B"/>
<rect x="1254" y="192" width="8" height="20" fill="#F6C57B"/>
<rect width="44" height="44" transform="translate(1236 212)" fill="#F6C57B"/>
<rect x="1243" y="219" width="30" height="30" fill="#B3926B" stroke="black" stroke-width="2"/>
<rect x="1252" y="228" width="12" height="12" fill="#B3926B" stroke="black" stroke-width="2"/>
<rect x="1254" y="256" width="8" height="20" fill="#F6C57B"/>
<rect width="44" height="44" transform="translate(1236 276)" fill="#F6C57B"/>
<path fill-rule="evenodd" clip-rule="evenodd" d="M1263 292H1253L1252 293V303L1253 304H1263L1264 303V293L1263 292ZM1256 294H1254V296H1256V294ZM1254 300H1256V302H1254V300ZM1262 294H1260V296H1262V294ZM1260 300H1262V302H1260V300ZM1259 297H1257V299H1259V297Z" fill="black" fill-opacity="0.5"/>
<rect x="1280" y="302" width="8" height="20" transform="rotate(-90 1280 302)" fill="#F6C57B"/>
<rect x="60" y="806" width="92" height="8" fill="#F6C57B"/>
<rect x="124" y="806" width="92" height="8" fill="#F6C57B"/>
<rect x="188" y="806" width="92" height="8" fill="#F6C57B"/>
<rect x="572" y="806" width="92" height="8" fill="#F6C57B"/>
<rect x="636" y="806" width="92" height="8" fill="#F6C57B"/>
<rect x="700" y="806" width="92" height="8" fill="#F6C57B"/>
<rect x="1084" y="806" width="92" height="8" fill="#F6C57B"/>
<rect x="1148" y="806" width="92" height="8" fill="#F6C57B"/>
<rect x="1212" y="806" width="92" height="8" fill="#F6C57B"/>
<rect x="1596" y="806" width="92" height="8" fill="#F6C57B"/>
<rect x="1660" y="806" width="92" height="8" fill="#F6C57B"/>
<rect x="1724" y="806" width="92" height="8" fill="#F6C57B"/>
<rect x="316" y="806" width="92" height="8" fill="#F6C57B"/>
<rect x="380" y="806" width="92" height="8" fill="#F6C57B"/>
<rect x="444" y="806" width="92" height="8" fill="#F6C57B"/>
<rect x="828" y="806" width="92" height="8" fill="#F6C57B"/>
<rect x="892" y="806" width="92" height="8" fill="#F6C57B"/>
<rect x="956" y="806" width="92" height="8" fill="#F6C57B"/>
<rect x="1340" y="806" width="92" height="8" fill="#F6C57B"/>
<rect x="1404" y="806" width="92" height="8" fill="#F6C57B"/>
<rect x="1468" y="806" width="92" height="8" fill="#F6C57B"/>
<rect x="316" y="294" width="92" height="8" fill="#F6C57B"/>
<rect width="44" height="44" transform="translate(404 276)" fill="#F6C57B"/>
<path d="M430 292L433.001 295L426.001 304C426.001 299.174 426.001 297.102 426.001 294.421L430 292Z" fill="black" fill-opacity="0.5"/>
<path d="M422 292L419 295L426 304C426 299.174 425.999 297.102 425.999 294.421L422 292Z" fill="black" fill-opacity="0.5"/>
<rect x="448" y="302" width="8" height="20" transform="rotate(-90 448 302)" fill="#F6C57B"/>
<rect width="44" height="44" transform="translate(468 276)" fill="#F6C57B"/>
<path d="M494 292L497.001 295L490.001 304C490.001 299.174 490.001 297.102 490.001 294.421L494 292Z" fill="black" fill-opacity="0.5"/>
<path d="M486 292L483 295L490 304C490 299.174 489.999 297.102 489.999 294.421L486 292Z" fill="black" fill-opacity="0.5"/>
<rect x="512" y="302" width="8" height="20" transform="rotate(-90 512 302)" fill="#F6C57B"/>
<rect x="572" y="294" width="92" height="8" fill="#F6C57B"/>
<rect x="700" y="294" width="92" height="8" fill="#F6C57B"/>
<rect x="828" y="294" width="92" height="8" fill="#F6C57B"/>
<rect width="44" height="44" transform="translate(916 276)" fill="#F6C57B"/>
<path fill-rule="evenodd" clip-rule="evenodd" d="M930 294.5C930 293.119 931.119 292 932.5 292C933.881 292 935 293.119 935 294.5V295H930V294.5ZM937 294.5V295H941H943H946C946 293.343 944.657 292 943 292H936.242C936.721 292.715 937 293.575 937 294.5ZM941 297V299H943V297H946V304H937V297H941ZM930 304V297H935V304H930ZM946 306H937H935H930H928V304V297V295V294.5C928 292.184 929.75 290.276 932 290.027V290H932.5H943C945.761 290 948 292.239 948 295V296V297V304V306H946Z" fill="black" fill-opacity="0.5"/>
<rect x="960" y="302" width="8" height="20" transform="rotate(-90 960 302)" fill="#F6C57B"/>
<rect width="44" height="44" transform="translate(980 276)" fill="#F6C57B"/>
<path fill-rule="evenodd" clip-rule="evenodd" d="M994 294.5C994 293.119 995.119 292 996.5 292C997.881 292 999 293.119 999 294.5V295H994V294.5ZM1001 294.5V295H1005H1007H1010C1010 293.343 1008.66 292 1007 292H1000.24C1000.72 292.715 1001 293.575 1001 294.5ZM1005 297V299H1007V297H1010V304H1001V297H1005ZM994 304V297H999V304H994ZM1010 306H1001H999H994H992V304V297V295V294.5C992 292.184 993.75 290.276 996 290.027V290H996.5H1007C1009.76 290 1012 292.239 1012 295V296V297V304V306H1010Z" fill="black" fill-opacity="0.5"/>
<rect x="1024" y="302" width="8" height="20" transform="rotate(-90 1024 302)" fill="#F6C57B"/>
<rect width="44" height="44" transform="translate(1364 276)" fill="#F6C57B"/>
<path fill-rule="evenodd" clip-rule="evenodd" d="M1391 292H1381L1380 293V303L1381 304H1391L1392 303V293L1391 292ZM1384 294H1382V296H1384V294ZM1382 300H1384V302H1382V300ZM1390 294H1388V296H1390V294ZM1388 300H1390V302H1388V300ZM1387 297H1385V299H1387V297Z" fill="black" fill-opacity="0.5"/>
<rect x="1408" y="302" width="8" height="20" transform="rotate(-90 1408 302)" fill="#F6C57B"/>
<rect width="44" height="44" transform="translate(1428 276)" fill="#F6C57B"/>
<path fill-rule="evenodd" clip-rule="evenodd" d="M1455 292H1445L1444 293V303L1445 304H1455L1456 303V293L1455 292ZM1448 294H1446V296H1448V294ZM1446 300H1448V302H1446V300ZM1454 294H1452V296H1454V294ZM1452 300H1454V302H1452V300ZM1451 297H1449V299H1451V297Z" fill="black" fill-opacity="0.5"/>
<rect width="44" height="44" transform="translate(276 20)" fill="#F6C57B"/>
<rect x="283" y="27" width="30" height="30" fill="#B3926B" stroke="black" stroke-width="2"/>
<rect x="292" y="36" width="12" height="12" fill="#B3926B" stroke="black" stroke-width="2"/>
<rect x="294" y="64" width="8" height="20" fill="#F6C57B"/>
<rect x="294" y="152" width="92" height="8" transform="rotate(-90 294 152)" fill="#F6C57B"/>
<rect x="294" y="216" width="92" height="8" transform="rotate(-90 294 216)" fill="#F6C57B"/>
<rect width="44" height="44" transform="translate(276 212)" fill="#F6C57B"/>
<path d="M293 228H303V237L298 241L293 237V228Z" fill="black" fill-opacity="0.5"/>
<rect x="256" y="238" width="8" height="20" transform="rotate(-90 256 238)" fill="#F6C57B"/>
<rect x="294" y="256" width="8" height="20" fill="#F6C57B"/>
<rect width="44" height="44" transform="translate(276 276)" fill="#F6C57B"/>
<path d="M301 298C301 295 298 295 298 295C298 295 295 295 295 298C295 299.657 296.343 301 298 301C299.657 301 301 299.657 301 298Z" fill="black" fill-opacity="0.2"/>
<rect x="320" y="302" width="8" height="20" transform="rotate(-90 320 302)" fill="#F6C57B"/>
<rect x="294" y="320" width="8" height="20" fill="#F6C57B"/>
<rect x="294" y="408" width="92" height="8" transform="rotate(-90 294 408)" fill="#F6C57B"/>
<rect width="44" height="44" transform="translate(276 404)" fill="#F6C57B"/>
<path d="M301 426C301 423 298 423 298 423C298 423 295 423 295 426C295 427.657 296.343 429 298 429C299.657 429 301 427.657 301 426Z" fill="black" fill-opacity="0.2"/>
<rect x="294" y="536" width="92" height="8" transform="rotate(-90 294 536)" fill="#F6C57B"/>
<rect width="44" height="44" transform="translate(276 532)" fill="#F6C57B"/>
<path d="M293 554L301 547L299.222 554H293Z" fill="black" fill-opacity="0.5"/>
<path d="M303 554L295 561L296.778 554H303Z" fill="black" fill-opacity="0.5"/>
<rect x="294" y="664" width="92" height="8" transform="rotate(-90 294 664)" fill="#F6C57B"/>
<rect x="294" y="728" width="92" height="8" transform="rotate(-90 294 728)" fill="#F6C57B"/>
<rect x="294" y="792" width="92" height="8" transform="rotate(-90 294 792)" fill="#F6C57B"/>
<rect width="44" height="44" transform="translate(276 788)" fill="#F6C57B"/>
<path d="M293 810L301 803L299.222 810H293Z" fill="black" fill-opacity="0.5"/>
<path d="M303 810L295 817L296.778 810H303Z" fill="black" fill-opacity="0.5"/>
<rect x="230" y="216" width="92" height="8" transform="rotate(-90 230 216)" fill="#F6C57B"/>
<rect x="102" y="216" width="92" height="8" transform="rotate(-90 102 216)" fill="#F6C57B"/>
<rect width="44" height="44" transform="translate(84 84)" fill="#F6C57B"/>
<rect x="91" y="91" width="30" height="30" fill="#B3926B" stroke="black" stroke-width="2"/>
<rect x="100" y="100" width="12" height="12" fill="#B3926B" stroke="black" stroke-width="2"/>
<rect x="124" y="102" width="92" height="8" fill="#F6C57B"/>
<rect width="44" height="44" transform="translate(212 84)" fill="#F6C57B"/>
<rect x="219" y="91" width="30" height="30" fill="#B3926B" stroke="black" stroke-width="2"/>
<rect x="228" y="100" width="12" height="12" fill="#B3926B" stroke="black" stroke-width="2"/>
<rect x="764" y="38" width="46" height="8" fill="#F6C57B"/>
<rect x="814" y="38" width="50" height="8" transform="rotate(90 814 38)" fill="#F6C57B"/>
<rect x="806" y="152" width="92" height="8" transform="rotate(-90 806 152)" fill="#F6C57B"/>
<rect x="806" y="216" width="92" height="8" transform="rotate(-90 806 216)" fill="#F6C57B"/>
<rect x="806" y="280" width="92" height="8" transform="rotate(-90 806 280)" fill="#F6C57B"/>
<rect width="44" height="44" transform="translate(788 276)" fill="#F6C57B"/>
<path d="M814 292L817.001 295L810.001 304C810.001 299.174 810.001 297.102 810.001 294.421L814 292Z" fill="black" fill-opacity="0.5"/>
<path d="M806 292L803 295L810 304C810 299.174 809.999 297.102 809.999 294.421L806 292Z" fill="black" fill-opacity="0.5"/>
<rect x="832" y="302" width="8" height="20" transform="rotate(-90 832 302)" fill="#F6C57B"/>
<rect x="806" y="408" width="92" height="8" transform="rotate(-90 806 408)" fill="#F6C57B"/>
<rect width="44" height="44" transform="translate(788 404)" fill="#F6C57B"/>
<path d="M813 426C813 423 810 423 810 423C810 423 807 423 807 426C807 427.657 808.343 429 810 429C811.657 429 813 427.657 813 426Z" fill="black" fill-opacity="0.2"/>
<rect x="806" y="536" width="92" height="8" transform="rotate(-90 806 536)" fill="#F6C57B"/>
<rect width="44" height="44" transform="translate(788 532)" fill="#F6C57B"/>
<path d="M809 559H805V555H817L816 559H811" stroke="black" stroke-opacity="0.5" stroke-width="2"/>
<path d="M800 548L808 548M808 548L808 551L812 551L812 547L810 545L808 545L808 548Z" stroke="black" stroke-opacity="0.5" stroke-width="2"/>
<path d="M800 563H820" stroke="black" stroke-opacity="0.5" stroke-width="2"/>
<path d="M808 559V563H812V559" stroke="black" stroke-opacity="0.5" stroke-width="2"/>
<rect x="832" y="558" width="8" height="20" transform="rotate(-90 832 558)" fill="#F6C57B"/>
<rect x="806" y="664" width="92" height="8" transform="rotate(-90 806 664)" fill="#F6C57B"/>
<rect x="806" y="728" width="92" height="8" transform="rotate(-90 806 728)" fill="#F6C57B"/>
<rect x="806" y="792" width="92" height="8" transform="rotate(-90 806 792)" fill="#F6C57B"/>
<rect width="44" height="44" transform="translate(788 788)" fill="#F6C57B"/>
<path d="M809 815H805V811H817L816 815H811" stroke="black" stroke-opacity="0.5" stroke-width="2"/>
<path d="M800 804L808 804M808 804L808 807L812 807L812 803L810 801L808 801L808 804Z" stroke="black" stroke-opacity="0.5" stroke-width="2"/>
<path d="M800 819H820" stroke="black" stroke-opacity="0.5" stroke-width="2"/>
<path d="M808 815V819H812V815" stroke="black" stroke-opacity="0.5" stroke-width="2"/>
<rect x="832" y="814" width="8" height="20" transform="rotate(-90 832 814)" fill="#F6C57B"/>
<rect width="44" height="44" transform="translate(1300 148)" fill="#F6C57B"/>
<rect x="1307" y="155" width="30" height="30" fill="#B3926B" stroke="black" stroke-width="2"/>
<rect x="1316" y="164" width="12" height="12" fill="#B3926B" stroke="black" stroke-width="2"/>
<rect x="1318" y="192" width="8" height="20" fill="#F6C57B"/>
<rect x="1318" y="280" width="92" height="8" transform="rotate(-90 1318 280)" fill="#F6C57B"/>
<rect width="44" height="44" transform="translate(1300 276)" fill="#F6C57B"/>
<path fill-rule="evenodd" clip-rule="evenodd" d="M1327 292H1317L1316 293V303L1317 304H1327L1328 303V293L1327 292ZM1320 294H1318V296H1320V294ZM1318 300H1320V302H1318V300ZM1326 294H1324V296H1326V294ZM1324 300H1326V302H1324V300ZM1323 297H1321V299H1323V297Z" fill="black" fill-opacity="0.5"/>
<rect x="1344" y="302" width="8" height="20" transform="rotate(-90 1344 302)" fill="#F6C57B"/>
<rect x="1318" y="408" width="92" height="8" transform="rotate(-90 1318 408)" fill="#F6C57B"/>
<rect width="44" height="44" transform="translate(1300 404)" fill="#F6C57B"/>
<path d="M1325 426C1325 423 1322 423 1322 423C1322 423 1319 423 1319 426C1319 427.657 1320.34 429 1322 429C1323.66 429 1325 427.657 1325 426Z" fill="black" fill-opacity="0.2"/>
<rect x="1318" y="536" width="92" height="8" transform="rotate(-90 1318 536)" fill="#F6C57B"/>
<rect width="44" height="44" transform="translate(1300 532)" fill="#F6C57B"/>
<path d="M1321 549H1317V559H1321" stroke="black" stroke-opacity="0.5" stroke-width="2"/>
<path d="M1323 549H1327V559H1323" stroke="black" stroke-opacity="0.5" stroke-width="2"/>
<rect x="1318" y="664" width="92" height="8" transform="rotate(-90 1318 664)" fill="#F6C57B"/>
<rect x="1318" y="728" width="92" height="8" transform="rotate(-90 1318 728)" fill="#F6C57B"/>
<rect x="1318" y="792" width="92" height="8" transform="rotate(-90 1318 792)" fill="#F6C57B"/>
<rect width="44" height="44" transform="translate(1300 788)" fill="#F6C57B"/>
<path d="M1321 805H1317V815H1321" stroke="black" stroke-opacity="0.5" stroke-width="2"/>
<path d="M1323 805H1327V815H1323" stroke="black" stroke-opacity="0.5" stroke-width="2"/>
<rect width="44" height="44" transform="translate(20 20)" fill="#F6C57B"/>
<rect x="27" y="27" width="30" height="30" fill="#B3926B" stroke="black" stroke-width="2"/>
<rect x="36" y="36" width="12" height="12" fill="#B3926B" stroke="black" stroke-width="2"/>
<rect x="38" y="64" width="8" height="20" fill="#F6C57B"/>
<rect x="38" y="152" width="92" height="8" transform="rotate(-90 38 152)" fill="#F6C57B"/>
<rect x="38" y="216" width="92" height="8" transform="rotate(-90 38 216)" fill="#F6C57B"/>
<rect width="44" height="44" transform="translate(20 212)" fill="#F6C57B"/>
<path d="M37 228H47V237L42 241L37 237V228Z" fill="black" fill-opacity="0.5"/>
<rect x="64" y="238" width="8" height="20" transform="rotate(-90 64 238)" fill="#F6C57B"/>
<rect x="38" y="256" width="8" height="20" fill="#F6C57B"/>
<rect width="44" height="44" transform="translate(20 276)" fill="#F6C57B"/>
<path d="M45 298C45 295 42 295 42 295C42 295 39 295 39 298C39 299.657 40.3431 301 42 301C43.6569 301 45 299.657 45 298Z" fill="black" fill-opacity="0.2"/>
<rect x="38" y="320" width="8" height="20" fill="#F6C57B"/>
<rect x="38" y="408" width="92" height="8" transform="rotate(-90 38 408)" fill="#F6C57B"/>
<rect width="44" height="44" transform="translate(20 404)" fill="#F6C57B"/>
<path d="M45 426C45 423 42 423 42 423C42 423 39 423 39 426C39 427.657 40.3431 429 42 429C43.6569 429 45 427.657 45 426Z" fill="black" fill-opacity="0.2"/>
<rect x="38" y="536" width="92" height="8" transform="rotate(-90 38 536)" fill="#F6C57B"/>
<rect width="44" height="44" transform="translate(20 532)" fill="#F6C57B"/>
<path d="M37 554L45 547L43.2222 554H37Z" fill="black" fill-opacity="0.5"/>
<path d="M47 554L39 561L40.7778 554H47Z" fill="black" fill-opacity="0.5"/>
<rect y="558" width="8" height="20" transform="rotate(-90 0 558)" fill="#F6C57B"/>
<rect x="38" y="664" width="92" height="8" transform="rotate(-90 38 664)" fill="#F6C57B"/>
<rect x="38" y="728" width="92" height="8" transform="rotate(-90 38 728)" fill="#F6C57B"/>
<rect x="38" y="792" width="92" height="8" transform="rotate(-90 38 792)" fill="#F6C57B"/>
<rect width="44" height="44" transform="translate(20 788)" fill="#F6C57B"/>
<path d="M37 810L45 803L43.2222 810H37Z" fill="black" fill-opacity="0.5"/>
<path d="M47 810L39 817L40.7778 810H47Z" fill="black" fill-opacity="0.5"/>
<rect y="814" width="8" height="20" transform="rotate(-90 0 814)" fill="#F6C57B"/>
<rect width="44" height="44" transform="translate(404 660)" fill="#F6C57B"/>
<circle cx="426" cy="682" r="15" fill="white" fill-opacity="0.8" stroke="black" stroke-width="2"/>
<circle cx="426" cy="682" r="9" stroke="black" stroke-width="2"/>
<rect width="44" height="44" transform="translate(916 660)" fill="#F6C57B"/>
<circle cx="938" cy="682" r="15" fill="white" fill-opacity="0.8" stroke="black" stroke-width="2"/>
<circle cx="938" cy="682" r="9" stroke="black" stroke-width="2"/>
<rect width="44" height="44" transform="translate(532 20)" fill="#F6C57B"/>
<rect x="539" y="27" width="30" height="30" fill="#B3926B" stroke="black" stroke-width="2"/>
<rect x="548" y="36" width="12" height="12" fill="#B3926B" stroke="black" stroke-width="2"/>
<rect x="550" y="64" width="8" height="20" fill="#F6C57B"/>
<rect width="44" height="44" transform="translate(532 84)" fill="#F6C57B"/>
<path d="M558 100L561.001 103L554.001 112C554.001 107.174 554.001 105.102 554.001 102.421L558 100Z" fill="black" fill-opacity="0.5"/>
<path d="M550 100L547 103L554 112C554 107.174 553.999 105.102 553.999 102.421L550 100Z" fill="black" fill-opacity="0.5"/>
<rect x="550" y="128" width="8" height="20" fill="#F6C57B"/>
<rect x="550" y="216" width="92" height="8" transform="rotate(-90 550 216)" fill="#F6C57B"/>
<rect x="550" y="280" width="92" height="8" transform="rotate(-90 550 280)" fill="#F6C57B"/>
<rect width="44" height="44" transform="translate(532 276)" fill="#F6C57B"/>
<path d="M558 292L561.001 295L554.001 304C554.001 299.174 554.001 297.102 554.001 294.421L558 292Z" fill="black" fill-opacity="0.5"/>
<path d="M550 292L547 295L554 304C554 299.174 553.999 297.102 553.999 294.421L550 292Z" fill="black" fill-opacity="0.5"/>
<rect x="550" y="320" width="8" height="20" fill="#F6C57B"/>
<rect x="550" y="408" width="92" height="8" transform="rotate(-90 550 408)" fill="#F6C57B"/>
<rect x="550" y="472" width="92" height="8" transform="rotate(-90 550 472)" fill="#F6C57B"/>
<rect x="550" y="536" width="92" height="8" transform="rotate(-90 550 536)" fill="#F6C57B"/>
<rect width="44" height="44" transform="translate(532 532)" fill="#F6C57B"/>
<path d="M553 559H549V555H561L560 559H555" stroke="black" stroke-opacity="0.5" stroke-width="2"/>
<path d="M544 548L552 548M552 548L552 551L556 551L556 547L554 545L552 545L552 548Z" stroke="black" stroke-opacity="0.5" stroke-width="2"/>
<path d="M544 563H564" stroke="black" stroke-opacity="0.5" stroke-width="2"/>
<path d="M552 559V563H556V559" stroke="black" stroke-opacity="0.5" stroke-width="2"/>
<rect x="576" y="558" width="8" height="20" transform="rotate(-90 576 558)" fill="#F6C57B"/>
<rect x="550" y="664" width="92" height="8" transform="rotate(-90 550 664)" fill="#F6C57B"/>
<rect x="550" y="728" width="92" height="8" transform="rotate(-90 550 728)" fill="#F6C57B"/>
<rect x="550" y="792" width="92" height="8" transform="rotate(-90 550 792)" fill="#F6C57B"/>
<rect width="44" height="44" transform="translate(532 788)" fill="#F6C57B"/>
<path d="M553 815H549V811H561L560 815H555" stroke="black" stroke-opacity="0.5" stroke-width="2"/>
<path d="M544 804L552 804M552 804L552 807L556 807L556 803L554 801L552 801L552 804Z" stroke="black" stroke-opacity="0.5" stroke-width="2"/>
<path d="M544 819H564" stroke="black" stroke-opacity="0.5" stroke-width="2"/>
<path d="M552 815V819H556V815" stroke="black" stroke-opacity="0.5" stroke-width="2"/>
<rect x="576" y="814" width="8" height="20" transform="rotate(-90 576 814)" fill="#F6C57B"/>
<g opacity="0.3">
<rect width="44" height="44" transform="translate(148 660)" fill="#F6C57B"/>
<rect x="155" y="667" width="30" height="30" fill="#B3926B" stroke="black" stroke-width="2"/>
<rect x="164" y="676" width="12" height="12" fill="#B3926B" stroke="black" stroke-width="2"/>
<rect x="166" y="640" width="8" height="20" fill="#F6C57B"/>
</g>
<g opacity="0.3">
<rect width="44" height="44" transform="translate(84 404)" fill="#F6C57B"/>
<rect x="91" y="411" width="30" height="30" fill="#B3926B" stroke="black" stroke-width="2"/>
<rect x="100" y="420" width="12" height="12" fill="#B3926B" stroke="black" stroke-width="2"/>
<rect x="64" y="430" width="8" height="20" transform="rotate(-90 64 430)" fill="#F6C57B"/>
</g>
<g opacity="0.3">
<rect width="44" height="44" transform="translate(340 404)" fill="#F6C57B"/>
<rect x="347" y="411" width="30" height="30" fill="#B3926B" stroke="black" stroke-width="2"/>
<rect x="356" y="420" width="12" height="12" fill="#B3926B" stroke="black" stroke-width="2"/>
<rect x="320" y="430" width="8" height="20" transform="rotate(-90 320 430)" fill="#F6C57B"/>
</g>
<g opacity="0.3">
<rect width="44" height="44" transform="translate(660 660)" fill="#F6C57B"/>
<rect x="667" y="667" width="30" height="30" fill="#B3926B" stroke="black" stroke-width="2"/>
<rect x="676" y="676" width="12" height="12" fill="#B3926B" stroke="black" stroke-width="2"/>
<rect x="678" y="640" width="8" height="20" fill="#F6C57B"/>
</g>
<g opacity="0.3">
<rect width="44" height="44" transform="translate(1172 596)" fill="#F6C57B"/>
<rect x="1179" y="603" width="30" height="30" fill="#B3926B" stroke="black" stroke-width="2"/>
<rect x="1188" y="612" width="12" height="12" fill="#B3926B" stroke="black" stroke-width="2"/>
<rect x="1190" y="576" width="8" height="20" fill="#F6C57B"/>
</g>
<g opacity="0.3">
<rect width="44" height="44" transform="translate(1684 596)" fill="#F6C57B"/>
<rect x="1691" y="603" width="30" height="30" fill="#B3926B" stroke="black" stroke-width="2"/>
<rect x="1700" y="612" width="12" height="12" fill="#B3926B" stroke="black" stroke-width="2"/>
<rect x="1702" y="576" width="8" height="20" fill="#F6C57B"/>
</g>
<g opacity="0.3">
<rect width="44" height="44" transform="translate(1172 724)" fill="#F6C57B"/>
<rect x="1179" y="731" width="30" height="30" fill="#B3926B" stroke="black" stroke-width="2"/>
<rect x="1188" y="740" width="12" height="12" fill="#B3926B" stroke="black" stroke-width="2"/>
<rect x="1152" y="750" width="8" height="20" transform="rotate(-90 1152 750)" fill="#F6C57B"/>
</g>
<g opacity="0.3">
<rect width="44" height="44" transform="translate(1752 404)" fill="#F6C57B"/>
<rect x="1759" y="411" width="30" height="30" fill="#B3926B" stroke="black" stroke-width="2"/>
<rect x="1768" y="420" width="12" height="12" fill="#B3926B" stroke="black" stroke-width="2"/>
<rect x="1796" y="430" width="8" height="20" transform="rotate(-90 1796 430)" fill="#F6C57B"/>
</g>
<rect width="46" height="8" transform="matrix(-1 0 0 1 1112 166)" fill="#F6C57B"/>
<rect width="50" height="8" transform="matrix(4.37114e-08 1 1 -4.37114e-08 1062 166)" fill="#F6C57B"/>
<rect x="1062" y="280" width="92" height="8" transform="rotate(-90 1062 280)" fill="#F6C57B"/>
<rect width="44" height="44" transform="translate(1044 276)" fill="#F6C57B"/>
<path fill-rule="evenodd" clip-rule="evenodd" d="M1058 294.5C1058 293.119 1059.12 292 1060.5 292C1061.88 292 1063 293.119 1063 294.5V295H1058V294.5ZM1065 294.5V295H1069H1071H1074C1074 293.343 1072.66 292 1071 292H1064.24C1064.72 292.715 1065 293.575 1065 294.5ZM1069 297V299H1071V297H1074V304H1065V297H1069ZM1058 304V297H1063V304H1058ZM1074 306H1065H1063H1058H1056V304V297V295V294.5C1056 292.184 1057.75 290.276 1060 290.027V290H1060.5H1071C1073.76 290 1076 292.239 1076 295V296V297V304V306H1074Z" fill="black" fill-opacity="0.5"/>
<rect x="1088" y="302" width="8" height="20" transform="rotate(-90 1088 302)" fill="#F6C57B"/>
<rect x="1062" y="408" width="92" height="8" transform="rotate(-90 1062 408)" fill="#F6C57B"/>
<rect width="44" height="44" transform="translate(1044 404)" fill="#F6C57B"/>
<path d="M1069 426C1069 423 1066 423 1066 423C1066 423 1063 423 1063 426C1063 427.657 1064.34 429 1066 429C1067.66 429 1069 427.657 1069 426Z" fill="black" fill-opacity="0.2"/>
<rect x="1062" y="536" width="92" height="8" transform="rotate(-90 1062 536)" fill="#F6C57B"/>
<rect width="44" height="44" transform="translate(1044 532)" fill="#F6C57B"/>
<path d="M1065 549H1061V559H1065" stroke="black" stroke-opacity="0.5" stroke-width="2"/>
<path d="M1067 549H1071V559H1067" stroke="black" stroke-opacity="0.5" stroke-width="2"/>
<rect x="1062" y="664" width="92" height="8" transform="rotate(-90 1062 664)" fill="#F6C57B"/>
<rect x="1062" y="728" width="92" height="8" transform="rotate(-90 1062 728)" fill="#F6C57B"/>
<rect x="1062" y="792" width="92" height="8" transform="rotate(-90 1062 792)" fill="#F6C57B"/>
<rect width="44" height="44" transform="translate(1044 788)" fill="#F6C57B"/>
<path d="M1065 805H1061V815H1065" stroke="black" stroke-opacity="0.5" stroke-width="2"/>
<path d="M1067 805H1071V815H1067" stroke="black" stroke-opacity="0.5" stroke-width="2"/>
<rect width="8" height="40" transform="matrix(-0.707107 -0.707107 -0.707107 0.707107 1115.9 765.758)" fill="#F6C57B"/>
<rect width="44" height="44" transform="translate(1108 724)" fill="#F6C57B"/>
<path d="M1133 746C1133 743 1130 743 1130 743C1130 743 1127 743 1127 746C1127 747.657 1128.34 749 1130 749C1131.66 749 1133 747.657 1133 746Z" fill="black" fill-opacity="0.2"/>
<rect width="44" height="44" transform="translate(1556 20)" fill="#F6C57B"/>
<path d="M1581 42C1581 39 1578 39 1578 39C1578 39 1575 39 1575 42C1575 43.6569 1576.34 45 1578 45C1579.66 45 1581 43.6569 1581 42Z" fill="black" fill-opacity="0.2"/>
<rect x="1600" y="46" width="8" height="20" transform="rotate(-90 1600 46)" fill="#F6C57B"/>
<rect x="1574" y="152" width="92" height="8" transform="rotate(-90 1574 152)" fill="#F6C57B"/>
<rect width="44" height="44" transform="translate(1556 148)" fill="#F6C57B"/>
<path d="M1581 170C1581 167 1578 167 1578 167C1578 167 1575 167 1575 170C1575 171.657 1576.34 173 1578 173C1579.66 173 1581 171.657 1581 170Z" fill="black" fill-opacity="0.2"/>
<rect x="1574" y="280" width="92" height="8" transform="rotate(-90 1574 280)" fill="#F6C57B"/>
<rect width="44" height="44" transform="translate(1556 276)" fill="#F6C57B"/>
<path d="M1581 298C1581 295 1578 295 1578 295C1578 295 1575 295 1575 298C1575 299.657 1576.34 301 1578 301C1579.66 301 1581 299.657 1581 298Z" fill="black" fill-opacity="0.2"/>
<rect x="1574" y="408" width="92" height="8" transform="rotate(-90 1574 408)" fill="#F6C57B"/>
<rect width="44" height="44" transform="translate(1556 404)" fill="#F6C57B"/>
<path d="M1581 426C1581 423 1578 423 1578 423C1578 423 1575 423 1575 426C1575 427.657 1576.34 429 1578 429C1579.66 429 1581 427.657 1581 426Z" fill="black" fill-opacity="0.2"/>
<rect x="1574" y="536" width="92" height="8" transform="rotate(-90 1574 536)" fill="#F6C57B"/>
<rect width="44" height="44" transform="translate(1556 532)" fill="#F6C57B"/>
<path d="M1581 554C1581 551 1578 551 1578 551C1578 551 1575 551 1575 554C1575 555.657 1576.34 557 1578 557C1579.66 557 1581 555.657 1581 554Z" fill="black" fill-opacity="0.2"/>
<rect x="1574" y="664" width="92" height="8" transform="rotate(-90 1574 664)" fill="#F6C57B"/>
<rect x="1574" y="728" width="92" height="8" transform="rotate(-90 1574 728)" fill="#F6C57B"/>
<rect x="1574" y="792" width="92" height="8" transform="rotate(-90 1574 792)" fill="#F6C57B"/>
<rect width="44" height="44" transform="translate(1556 788)" fill="#F6C57B"/>
<path d="M1581 810C1581 807 1578 807 1578 807C1578 807 1575 807 1575 810C1575 811.657 1576.34 813 1578 813C1579.66 813 1581 811.657 1581 810Z" fill="black" fill-opacity="0.2"/>
<rect width="44" height="44" transform="translate(1816 20)" fill="#F6C57B"/>
<path d="M1841 42C1841 39 1838 39 1838 39C1838 39 1835 39 1835 42C1835 43.6569 1836.34 45 1838 45C1839.66 45 1841 43.6569 1841 42Z" fill="black" fill-opacity="0.2"/>
<rect x="1834" y="152" width="92" height="8" transform="rotate(-90 1834 152)" fill="#F6C57B"/>
<rect width="44" height="44" transform="translate(1816 148)" fill="#F6C57B"/>
<path d="M1841 170C1841 167 1838 167 1838 167C1838 167 1835 167 1835 170C1835 171.657 1836.34 173 1838 173C1839.66 173 1841 171.657 1841 170Z" fill="black" fill-opacity="0.2"/>
<rect x="1834" y="280" width="92" height="8" transform="rotate(-90 1834 280)" fill="#F6C57B"/>
<rect width="44" height="44" transform="translate(1816 276)" fill="#F6C57B"/>
<path d="M1841 298C1841 295 1838 295 1838 295C1838 295 1835 295 1835 298C1835 299.657 1836.34 301 1838 301C1839.66 301 1841 299.657 1841 298Z" fill="black" fill-opacity="0.2"/>
<rect x="1834" y="320" width="8" height="20" fill="#F6C57B"/>
<rect x="1834" y="408" width="92" height="8" transform="rotate(-90 1834 408)" fill="#F6C57B"/>
<rect width="44" height="44" transform="translate(1816 404)" fill="#F6C57B"/>
<path d="M1841 426C1841 423 1838 423 1838 423C1838 423 1835 423 1835 426C1835 427.657 1836.34 429 1838 429C1839.66 429 1841 427.657 1841 426Z" fill="black" fill-opacity="0.2"/>
<rect x="1834" y="536" width="92" height="8" transform="rotate(-90 1834 536)" fill="#F6C57B"/>
<rect width="44" height="44" transform="translate(1816 532)" fill="#F6C57B"/>
<path d="M1841 554C1841 551 1838 551 1838 551C1838 551 1835 551 1835 554C1835 555.657 1836.34 557 1838 557C1839.66 557 1841 555.657 1841 554Z" fill="black" fill-opacity="0.2"/>
<rect x="1860" y="558" width="8" height="20" transform="rotate(-90 1860 558)" fill="#F6C57B"/>
<rect x="1834" y="664" width="92" height="8" transform="rotate(-90 1834 664)" fill="#F6C57B"/>
<rect x="1834" y="728" width="92" height="8" transform="rotate(-90 1834 728)" fill="#F6C57B"/>
<rect x="1834" y="792" width="92" height="8" transform="rotate(-90 1834 792)" fill="#F6C57B"/>
<rect width="44" height="44" transform="translate(1816 788)" fill="#F6C57B"/>
<path d="M1841 810C1841 807 1838 807 1838 807C1838 807 1835 807 1835 810C1835 811.657 1836.34 813 1838 813C1839.66 813 1841 811.657 1841 810Z" fill="black" fill-opacity="0.2"/>
<rect x="1860" y="814" width="8" height="20" transform="rotate(-90 1860 814)" fill="#F6C57B"/>
<rect width="44" height="44" transform="translate(1684 212)" fill="#F6C57B"/>
<path d="M1709 234C1709 231 1706 231 1706 231C1706 231 1703 231 1703 234C1703 235.657 1704.34 237 1706 237C1707.66 237 1709 235.657 1709 234Z" fill="black" fill-opacity="0.2"/>
<rect x="1702" y="256" width="8" height="20" fill="#F6C57B"/>
<g opacity="0.3">
<rect width="44" height="44" transform="translate(1684 148)" fill="#F6C57B"/>
<circle cx="1706" cy="170" r="15" fill="white" fill-opacity="0.8" stroke="black" stroke-width="2"/>
<circle cx="1706" cy="170" r="9" stroke="black" stroke-width="2"/>
<rect x="1702" y="192" width="8" height="20" fill="#F6C57B"/>
</g>
</svg>
