<svg width="463" height="800" viewBox="0 0 463 800" fill="none" xmlns="http://www.w3.org/2000/svg">
<g clip-path="url(#clip0_3379_7735)">
<rect width="463" height="800" fill="#676C53"/>
<path d="M73.5 470C66.6667 464.167 5.3 451.1 -1.5 445.5V500L60 490L67 495.5L81.5 513.5L86 523.5L98.5 513.5L106.5 505V513.5H116L120.5 520L131.5 528L112 556L141.5 585.5L184.5 574L202 559.5V552V540H214L223 523.5L216.5 513.5L256 520L258.5 535.5L272.5 548L325.5 535.5L329.5 548L363 545L342.5 556L383 559.5L467.5 593.5V448H412.5L373 445.5L345 448L325.5 463.5L338 481.5L295 459L282.5 490H238L220.5 470C214.5 461.833 202.4 445.5 202 445.5C201.5 445.5 194.5 432 192 432C190 432 186.167 434.667 184.5 436H176L172 428L163.5 432L159.5 445.5L168.5 467L134 428L106.5 421.5L93 454.5L78 459L93 463.5L73.5 470Z" fill="#727663"/>
<path d="M198 419.5V426.5L219.5 433.5V436.5H224.5V439H219.5L224.5 442.5L231 448V453L236 454V491H245L243 495H237V500.5H240L243 503.5L239 504.5L245 509.5H242V513.5H238V528.5H241V537H235.5L234 540.5L229.5 542V551L117 800.5H320L266.5 560.5V551H254L257.5 527.5V507L254 500L254.5 497L263 491L260.5 454L258.5 448L257.5 444L247.5 442.5V440.5H241V439L230 438.5V437.5L232.5 436.5V433.5L210 425.5V422H206V419.5H198Z" fill="url(#paint0_linear_3379_7735)"/>
<path d="M73.5 362.5C66.6667 368.333 1.3 381.4 -5.5 387V332.5L60 342.5L67 337L81.5 319L86 309L98.5 319L106.5 327.5V319H116L120.5 312.5L131.5 304.5L112 276.5L141.5 247L184.5 258.5L202 273V280.5V292.5H214L223 309L216.5 319L256 312.5L258.5 297L272.5 284.5L325.5 297L329.5 284.5L363 287.5L342.5 276.5L383 273L465.5 239V384.5H412.5L373 387L345 384.5L325.5 369L338 351L295 373.5L282.5 342.5H238L220.5 362.5C214.5 370.667 202.4 387 202 387C201.5 387 194.5 400.5 192 400.5C190 400.5 186.167 397.833 184.5 396.5H176L172 404.5L163.5 400.5L159.5 387L168.5 365.5L134 404.5L106.5 411L93 378L78 373.5L93 369L73.5 362.5Z" fill="#6C715A"/>
<path d="M404.5 232.5C411.333 238.333 458.7 251.4 465.5 257V202.5L418 212.5L411 207L396.5 189L392 179L379.5 189L371.5 197.5V189H362L357.5 182.5L346.5 174.5L366 146.5L336.5 117L293.5 128.5L276 143V150.5V162.5H264L255 179L261.5 189L222 182.5L219.5 167L205.5 154.5L152.5 167L148.5 154.5L115 157.5L135.5 146.5L95 143L-3.5 109V254.5L105 257L133 254.5L152.5 239L140 221L183 243.5L195.5 212.5H240L257.5 232.5C263.5 240.667 275.6 257 276 257C276.5 257 283.5 270.5 286 270.5C288 270.5 291.833 267.833 293.5 266.5H302L306 274.5L314.5 270.5L318.5 257L309.5 235.5L344 274.5L371.5 281L385 248L400 243.5L385 239L404.5 232.5Z" fill="#4A5426"/>
<path d="M315 384V378H320.5L327 384H315Z" fill="#BCBCB5"/>
<path d="M304 378.5C299 376.167 288.5 371.3 286.5 370.5V384L299.5 388V381L304 378.5Z" fill="#BCBCB5"/>
<path d="M344 384L339 378.5H348L353 384H344Z" fill="#BCBCB5"/>
<path d="M387.5 381L395 375L432.5 378.5V384L387.5 381Z" fill="#BCBCB5"/>
<path d="M331.5 435L336 431H341V435H331.5Z" fill="#BCBCB5"/>
<path d="M322 437V443.5H334.5L322 437Z" fill="#BCBCB5"/>
<path d="M126 447L115 443.5L98.5 451L105.5 459L115 463L118.5 465.5L122.5 463L136.5 465.5L140.5 447H126Z" fill="#BCBCB5"/>
<path d="M64 409L61 400.5L-9.5 434.5L-3 459L67 419L61 415L64 409Z" fill="#BCBCB5"/>
<path d="M57.5 392.5C56.3333 391 53.5 388 51.5 388L61 384L57.5 392.5Z" fill="#BCBCB5"/>
<path d="M-3 378.5L57.5 365.5H64L61 353L51.5 349L55 339.5L-3 319V378.5Z" fill="#BCBCB5"/>
<path d="M94 381C98.8333 382 109 384 111 384L118.5 388L126 381L111 375L122.5 370.5L126 360.5L94 365.5V381Z" fill="#BCBCB5"/>
<path d="M167 365.5L145.5 349L173.5 360.5H182L185.5 365.5H196V381H177.5V365.5H167Z" fill="#BCBCB5"/>
<path d="M238.5 370.5L207.5 360.5C207.5 360.5 184.787 349 223.5 349L241.5 359L234.5 360.5L248 365.5L251.5 375H238.5V370.5Z" fill="#BCBCB5"/>
<path d="M113.5 293.5L122.5 273.5L-11.5 227V195L131.5 260L235.5 281L248.5 290V302H228.5L157.5 293.5L150 306.5V319.5L160.5 328.5L157.5 340H150L131.5 337.5L135.5 315L141.5 287.5L157.5 273.5L135.5 287.5L131.5 302L97.5 299L113.5 293.5Z" fill="#6A6A60"/>
<path opacity="0.4" d="M150 299H230V303L226.5 311L229 313V321H223L209.5 332.938L203 341H78V332.938V326L81.5 322.5V321H74V313V311L85.5 299H126V315C126 321.627 131.373 327 138 327C144.627 327 150 321.627 150 315V299Z" fill="black"/>
<path fill-rule="evenodd" clip-rule="evenodd" d="M150 283C150 276.373 144.627 271 138 271C131.373 271 126 276.373 126 283C126 276.373 131.373 271 138 271C144.627 271 150 276.373 150 283ZM74 285V277H81.5V285H74ZM78 261.062V253H203L209.5 261.062H78ZM229 277V285H223V277H229Z" fill="#7B7B6E"/>
<path d="M230 299H150V283C150 276.373 144.627 271 138 271C131.373 271 126 276.373 126 283V299H85.5L74 287V285H81.5V277V275.5L78 272V261.062H209.5L223 277V285H229L226.5 287L230 295V299Z" fill="#7B7B6E"/>
<path d="M230 299H150V283C150 276.373 144.627 271 138 271C131.373 271 126 276.373 126 283V299H85.5L74 287V285H81.5V277V275.5L78 272V261.062H209.5L223 277V285H229L226.5 287L230 295V299Z" fill="black" fill-opacity="0.2"/>
<path d="M150 283V299H230V295L226.5 287L229 285M150 283V283C150 276.373 144.627 271 138 271V271M150 283C150 276.373 144.627 271 138 271M126 283V299H85.5L74 287V285M126 283V283C126 276.373 131.373 271 138 271V271M126 283C126 276.373 131.373 271 138 271M81.5 277H74V285M81.5 277V275.5L78 272V261.062M81.5 277V285H74M223 277H229V285M223 277V285H229M223 277L209.5 261.062M78 261.062V253H203L209.5 261.062M78 261.062H209.5" stroke="black" stroke-width="2"/>
<rect width="2" height="4" transform="matrix(-1 0 0 1 191 260)" fill="black"/>
<rect width="2" height="4" transform="matrix(-1 0 0 1 167 260)" fill="black"/>
<rect width="2" height="4" transform="matrix(-1 0 0 1 143 260)" fill="black"/>
<rect width="2" height="4" transform="matrix(-1 0 0 1 119 260)" fill="black"/>
<rect width="2" height="4" transform="matrix(-1 0 0 1 95 260)" fill="black"/>
<rect width="2" height="4" transform="matrix(-1 0 0 1 191 252)" fill="black"/>
<rect width="2" height="4" transform="matrix(-1 0 0 1 167 252)" fill="black"/>
<rect width="2" height="4" transform="matrix(-1 0 0 1 143 252)" fill="black"/>
<rect width="2" height="4" transform="matrix(-1 0 0 1 119 252)" fill="black"/>
<rect width="2" height="4" transform="matrix(-1 0 0 1 95 252)" fill="black"/>
<g clip-path="url(#clip1_3379_7735)">
<path d="M275 432.5V424.5H279V432.5L281.5 430.5L288 435L294 430.5L297 438L295.5 444L292 445.5L298.5 447L294 453.5L288 459L295.5 461.5L291 472.5H287L297 479L288 484L292 485L284.5 495L289 495.5L285.5 501L289 510L281.5 523.5L283.5 530L275 525.5L277.5 520.5H274.375L275 517.375L273.5 517L271.5 507.5L273.5 502H269.5L263.5 495.5L270.5 488.5L262 480.5L267 476.5V472.5L259 448V440.5L255 432.5H275Z" fill="url(#paint1_linear_3379_7735)"/>
<path d="M275 431.5V439.5H279V431.5L281.5 433.5L288 429L294 433.5L297 426L295.5 420L292 418.5L298.5 417L294 410.5L288 405L295.5 402.5L291 391.5H287L297 385L288 380L292 379L284.5 369L289 368.5L285.5 363L289 354L281.5 340.5L283.5 334L275 338.5L277.5 343.5H274.375L275 346.625L273.5 347L271.5 356.5L273.5 362H269.5L263.5 368.5L270.5 375.5L262 383.5L267 387.5V391.5L259 416V423.5L255 431.5H275Z" fill="url(#paint2_linear_3379_7735)" stroke="black" stroke-width="2"/>
<rect x="288" y="434.5" width="2" height="4" fill="black"/>
<rect x="284" y="436.5" width="2" height="4" fill="black"/>
<rect x="280" y="436.5" width="2" height="4" fill="black"/>
<rect x="288" y="440.5" width="2" height="2" fill="black"/>
<rect x="292" y="440.5" width="2" height="2" fill="black"/>
<rect x="296" y="438.5" width="2" height="2" fill="black"/>
</g>
<g clip-path="url(#clip2_3379_7735)">
<path d="M194 307.5V299.5H198V307.5L200.5 305.5L207 310L213 305.5L216 313L214.5 319L211 320.5L217.5 322L213 328.5L207 334L214.5 336.5L210 347.5H206L216 354L207 359L211 360L203.5 370L208 370.5L204.5 376L208 385L200.5 398.5L202.5 405L194 400.5L196.5 395.5H193.375L194 392.375L192.5 392L190.5 382.5L192.5 377H188.5L182.5 370.5L189.5 363.5L181 355.5L186 351.5V347.5L178 323V315.5L174 307.5H194Z" fill="url(#paint3_linear_3379_7735)"/>
<path d="M194 306.5V314.5H198V306.5L200.5 308.5L207 304L213 308.5L216 301L214.5 295L211 293.5L217.5 292L213 285.5L207 280L214.5 277.5L210 266.5H206L216 260L207 255L211 254L203.5 244L208 243.5L204.5 238L208 229L200.5 215.5L202.5 209L194 213.5L196.5 218.5H193.375L194 221.625L192.5 222L190.5 231.5L192.5 237H188.5L182.5 243.5L189.5 250.5L181 258.5L186 262.5V266.5L178 291V298.5L174 306.5H194Z" fill="url(#paint4_linear_3379_7735)" stroke="black" stroke-width="2"/>
<rect x="207" y="309.5" width="2" height="4" fill="black"/>
<rect x="203" y="311.5" width="2" height="4" fill="black"/>
<rect x="199" y="311.5" width="2" height="4" fill="black"/>
<rect x="207" y="315.5" width="2" height="2" fill="black"/>
<rect x="211" y="315.5" width="2" height="2" fill="black"/>
<rect x="215" y="313.5" width="2" height="2" fill="black"/>
</g>
<path opacity="0.4" d="M236 500H156V504L159.5 512L157 514V522H163L176.5 533.938L183 542H308V533.938V527L304.5 523.5V522H312V514V512L300.5 500H260V516C260 522.627 254.627 528 248 528C241.373 528 236 522.627 236 516V500Z" fill="black"/>
<path fill-rule="evenodd" clip-rule="evenodd" d="M236 484C236 477.373 241.373 472 248 472C254.627 472 260 477.373 260 484C260 477.373 254.627 472 248 472C241.373 472 236 477.373 236 484ZM312 486V478H304.5V486H312ZM308 462.062V454H183L176.5 462.062H308ZM157 478V486H163V478H157Z" fill="#7B7B6E"/>
<path d="M156 500H236V484C236 477.373 241.373 472 248 472C254.627 472 260 477.373 260 484V500H300.5L312 488V486H304.5V478V476.5L308 473V462.062H176.5L163 478V486H157L159.5 488L156 496V500Z" fill="#7B7B6E"/>
<path d="M156 500H236V484C236 477.373 241.373 472 248 472C254.627 472 260 477.373 260 484V500H300.5L312 488V486H304.5V478V476.5L308 473V462.062H176.5L163 478V486H157L159.5 488L156 496V500Z" fill="black" fill-opacity="0.2"/>
<path d="M236 484V500H156V496L159.5 488L157 486M236 484V484C236 477.373 241.373 472 248 472V472M236 484C236 477.373 241.373 472 248 472M260 484V500H300.5L312 488V486M260 484V484C260 477.373 254.627 472 248 472V472M260 484C260 477.373 254.627 472 248 472M304.5 478H312V486M304.5 478V476.5L308 473V462.062M304.5 478V486H312M163 478H157V486M163 478V486H157M163 478L176.5 462.062M308 462.062V454H183L176.5 462.062M308 462.062H176.5" stroke="black" stroke-width="2"/>
<rect x="195" y="461" width="2" height="4" fill="black"/>
<rect x="219" y="461" width="2" height="4" fill="black"/>
<rect x="243" y="461" width="2" height="4" fill="black"/>
<rect x="267" y="461" width="2" height="4" fill="black"/>
<rect x="291" y="461" width="2" height="4" fill="black"/>
<rect x="195" y="453" width="2" height="4" fill="black"/>
<rect x="219" y="453" width="2" height="4" fill="black"/>
<rect x="243" y="453" width="2" height="4" fill="black"/>
<rect x="267" y="453" width="2" height="4" fill="black"/>
<rect x="291" y="453" width="2" height="4" fill="black"/>
<path d="M58.5 188.5L51.5 181.5H0V-1H463V270L402 240.5L428 270C422.833 265.833 392.1 254 390.5 252C388.9 250 382.167 249.167 379 249C376 247.833 370 244.5 370 240.5V230.5L358.5 216.5V209L349.5 203L342 209L349.5 211V225V235H338V254.5L349.5 263L342 272.5L327.5 275V281.5H324L318 270L306 263V258V249L303.5 238L314.5 235C314.5 229.5 315.2 217 318 211L324 199.5L318 193L314.5 203L303.5 227.5H296V235H290.5V222.5L271 220.5V211L265.5 196V209C259.167 209 245.2 207.8 240 203C234.8 198.2 235.833 208 237 213.5L246.5 218.5C245.5 221.5 244.1 227.5 246.5 227.5C248.9 227.5 255.5 232.5 258.5 235C252.833 236.833 240.6 240.5 237 240.5C233.4 240.5 243.833 243.833 249.5 245.5L246.5 252L237 254.5L230.5 258L233.5 252H210C212.167 249 216.6 242.5 217 240.5C217.4 238.5 209.833 236 206 235L202.5 230.5L212 227.5V218.5L210 216.5V211L202.5 209C201.5 207 199.2 202.3 198 199.5C196.8 196.7 193.167 198.333 191.5 199.5L206 188.5H195L191.5 193V187H178.5C180.167 190 183.5 196.7 183.5 199.5V209L178.5 213.5L166.5 216.5V222.5H163V216.5L158.5 211L146.5 209L150.5 206.5C149.667 204.5 148 199.6 148 196C148 192.4 149.667 184.833 150.5 181.5L144.5 176L138 188.5L135.5 187L133.5 196H125L117 185.5L102 176V188.5L114.5 196V203C112.667 207.5 108.9 216.5 108.5 216.5C108.1 216.5 104 219.167 102 220.5L94.5 222.5L93 227.5H90V220.5L76 216.5L71.5 211V206.5V203V196H76V181.5L71.5 185.5L68 196V185.5H62L58.5 188.5Z" fill="#1C2019"/>
<g clip-path="url(#clip3_3379_7735)">
<path d="M325 268.5V260.5H329V268.5L331.5 266.5L338 271L344 266.5L347 274L345.5 280L342 281.5L348.5 283L344 289.5L338 295L345.5 297.5L341 308.5H337L347 315L338 320L342 321L334.5 331L339 331.5L335.5 337L339 346L331.5 359.5L333.5 366L325 361.5L327.5 356.5H324.375L325 353.375L323.5 353L321.5 343.5L323.5 338H319.5L313.5 331.5L320.5 324.5L312 316.5L317 312.5V308.5L309 284V276.5L305 268.5H325Z" fill="url(#paint5_linear_3379_7735)"/>
<path d="M325 267.5V275.5H329V267.5L331.5 269.5L338 265L344 269.5L347 262L345.5 256L342 254.5L348.5 253L344 246.5L338 241L345.5 238.5L341 227.5H337L347 221L338 216L342 215L334.5 205L339 204.5L335.5 199L339 190L331.5 176.5L333.5 170L325 174.5L327.5 179.5H324.375L325 182.625L323.5 183L321.5 192.5L323.5 198H319.5L313.5 204.5L320.5 211.5L312 219.5L317 223.5V227.5L309 252V259.5L305 267.5H325Z" fill="url(#paint6_linear_3379_7735)" stroke="black" stroke-width="2"/>
<rect x="338" y="270.5" width="2" height="4" fill="black"/>
<rect x="334" y="272.5" width="2" height="4" fill="black"/>
<rect x="330" y="272.5" width="2" height="4" fill="black"/>
<rect x="338" y="276.5" width="2" height="2" fill="black"/>
<rect x="342" y="276.5" width="2" height="2" fill="black"/>
<rect x="346" y="274.5" width="2" height="2" fill="black"/>
</g>
<g clip-path="url(#clip4_3379_7735)">
<path d="M108 234.5V226.5H112V234.5L114.5 232.5L121 237L127 232.5L130 240L128.5 246L125 247.5L131.5 249L127 255.5L121 261L128.5 263.5L124 274.5H120L130 281L121 286L125 287L117.5 297L122 297.5L118.5 303L122 312L114.5 325.5L116.5 332L108 327.5L110.5 322.5H107.375L108 319.375L106.5 319L104.5 309.5L106.5 304H102.5L96.5 297.5L103.5 290.5L95 282.5L100 278.5V274.5L92 250V242.5L88 234.5H108Z" fill="url(#paint7_linear_3379_7735)"/>
<path d="M108 233.5V241.5H112V233.5L114.5 235.5L121 231L127 235.5L130 228L128.5 222L125 220.5L131.5 219L127 212.5L121 207L128.5 204.5L124 193.5H120L130 187L121 182L125 181L117.5 171L122 170.5L118.5 165L122 156L114.5 142.5L116.5 136L108 140.5L110.5 145.5H107.375L108 148.625L106.5 149L104.5 158.5L106.5 164H102.5L96.5 170.5L103.5 177.5L95 185.5L100 189.5V193.5L92 218V225.5L88 233.5H108Z" fill="url(#paint8_linear_3379_7735)" stroke="black" stroke-width="2"/>
<rect x="121" y="236.5" width="2" height="4" fill="black"/>
<rect x="117" y="238.5" width="2" height="4" fill="black"/>
<rect x="113" y="238.5" width="2" height="4" fill="black"/>
<rect x="121" y="242.5" width="2" height="2" fill="black"/>
<rect x="125" y="242.5" width="2" height="2" fill="black"/>
<rect x="129" y="240.5" width="2" height="2" fill="black"/>
</g>
<g clip-path="url(#clip5_3379_7735)">
<path d="M166 216.5V208.5H170V216.5L172.5 214.5L179 219L185 214.5L188 222L186.5 228L183 229.5L189.5 231L185 237.5L179 243L186.5 245.5L182 256.5H178L188 263L179 268L183 269L175.5 279L180 279.5L176.5 285L180 294L172.5 307.5L174.5 314L166 309.5L168.5 304.5H165.375L166 301.375L164.5 301L162.5 291.5L164.5 286H160.5L154.5 279.5L161.5 272.5L153 264.5L158 260.5V256.5L150 232V224.5L146 216.5H166Z" fill="url(#paint9_linear_3379_7735)"/>
<path d="M166 215.5V223.5H170V215.5L172.5 217.5L179 213L185 217.5L188 210L186.5 204L183 202.5L189.5 201L185 194.5L179 189L186.5 186.5L182 175.5H178L188 169L179 164L183 163L175.5 153L180 152.5L176.5 147L180 138L172.5 124.5L174.5 118L166 122.5L168.5 127.5H165.375L166 130.625L164.5 131L162.5 140.5L164.5 146H160.5L154.5 152.5L161.5 159.5L153 167.5L158 171.5V175.5L150 200V207.5L146 215.5H166Z" fill="url(#paint10_linear_3379_7735)" stroke="black" stroke-width="2"/>
<rect x="179" y="218.5" width="2" height="4" fill="black"/>
<rect x="175" y="220.5" width="2" height="4" fill="black"/>
<rect x="171" y="220.5" width="2" height="4" fill="black"/>
<rect x="179" y="224.5" width="2" height="2" fill="black"/>
<rect x="183" y="224.5" width="2" height="2" fill="black"/>
<rect x="187" y="222.5" width="2" height="2" fill="black"/>
</g>
<path d="M234 233.5V241.5H238V233.5L240.5 235.5L247 231L253 235.5L256 228L254.5 222L251 220.5L257.5 219L253 212.5L247 207L254.5 204.5L250 193.5H246L256 187L247 182L251 181L243.5 171L248 170.5L244.5 165L248 156L240.5 142.5L242.5 136L234 140.5L236.5 145.5H233.375L234 148.625L232.5 149L230.5 158.5L232.5 164H228.5L222.5 170.5L229.5 177.5L221 185.5L226 189.5V193.5L218 218V225.5L214 233.5H234Z" fill="#2A3026" stroke="black" stroke-width="2"/>
<path d="M354.333 361.616V367H357V361.616L358.667 362.962L363 359.934L367 362.962L369 357.915L368 353.877L365.667 352.867L370 351.858L367 347.483L363 343.782L368 342.1L365 334.697H362.333L369 330.322L363 326.957L365.667 326.284L360.667 319.555L363.667 319.218L361.333 315.517L363.667 309.46L358.667 300.374L360 296L354.333 299.028L356 302.393H353.917L354.333 304.496L353.333 304.749L352 311.142L353.333 314.844H350.667L346.667 319.218L351.333 323.929L345.667 329.313L349 332.005V334.697L343.667 351.185V356.232L341 361.616H354.333Z" fill="#2A3026" stroke="black" stroke-width="2"/>
<path d="M391.989 323.1V330H388.586V323.1L386.46 324.825L380.931 320.943L375.828 324.825L373.276 318.355L374.552 313.18L377.529 311.886L372 310.592L375.828 304.986L380.931 300.242L374.552 298.085L378.379 288.597H381.782L373.276 282.991L380.931 278.678L377.529 277.815L383.908 269.19L380.08 268.758L383.057 264.014L380.08 256.251L386.46 244.607L384.759 239L391.989 242.882L389.862 247.194H392.52L391.989 249.89L393.264 250.213L394.966 258.408L393.264 263.152H396.667L401.77 268.758L395.816 274.796L403.046 281.697L398.793 285.147V288.597L405.598 309.73V316.199L409 323.1H391.989Z" fill="#2A3026" stroke="black" stroke-width="2"/>
<path d="M413.989 371.1V378H410.586V371.1L408.46 372.825L402.931 368.943L397.828 372.825L395.276 366.355L396.552 361.18L399.529 359.886L394 358.592L397.828 352.986L402.931 348.242L396.552 346.085L400.379 336.597H403.782L395.276 330.991L402.931 326.678L399.529 325.815L405.908 317.19L402.08 316.758L405.057 312.014L402.08 304.251L408.46 292.607L406.759 287L413.989 290.882L411.862 295.194H414.52L413.989 297.89L415.264 298.213L416.966 306.408L415.264 311.152H418.667L423.77 316.758L417.816 322.796L425.046 329.697L420.793 333.147V336.597L427.598 357.73V364.199L431 371.1H413.989Z" fill="#2A3026" stroke="black" stroke-width="2"/>
<path d="M219 376H223V374V368H222V365H221V368H219L217 372H219V376Z" fill="#D9D9D9"/>
<path d="M223 368V367H224V368H223ZM222 365V364H223V365H222ZM221 365H220V364H221V365ZM219 368L218.106 367.553L218.382 367H219V368ZM217 372V373L216.106 371.553L217 372ZM220 376V384H218V376H220ZM222 384V376H224V384H222ZM219 375H223V377H219V375ZM223 369H222V367H223V369ZM221 368V365H223V368H221ZM222 366H221V364H222V366ZM222 369H221V367H222V369ZM221 369H219V367H221V369ZM222 365V368H220V365H222ZM219.894 368.447L217.894 372.447L216.106 371.553L218.106 367.553L219.894 368.447ZM217 371H219V373H217V371ZM220 368V372H218V368H220ZM220 372V376H218V372H220ZM219 371H222V373H219V371ZM222 376V374H224V376H222ZM222 374V368H224V374H222ZM223.707 373.293L228.707 378.293L227.293 379.707L222.293 374.707L223.707 373.293Z" fill="black"/>
<path d="M214 372C214 373.657 215.343 375 217 375C218.657 375 220 373.657 220 372C220 370.343 218.657 369 217 369C215.343 369 214 370.343 214 372Z" fill="#D9D9D9" stroke="black" stroke-width="2"/>
<path d="M294 329V303H301L307.5 308.5V316L318 323L322 336H313L318 348.5L310 341.5L294 329Z" fill="#69695F"/>
<g clip-path="url(#clip6_3379_7735)">
<path d="M121 433V425H125V433L127.5 431L134 435.5L140 431L143 438.5L141.5 444.5L138 446L144.5 447.5L140 454L134 459.5L141.5 462L137 473H133L143 479.5L134 484.5L138 485.5L130.5 495.5L135 496L131.5 501.5L135 510.5L127.5 524L129.5 530.5L121 526L123.5 521H120.375L121 517.875L119.5 517.5L117.5 508L119.5 502.5H115.5L109.5 496L116.5 489L108 481L113 477V473L105 448.5V441L101 433H121Z" fill="url(#paint11_linear_3379_7735)"/>
<path d="M121 432V440H125V432L127.5 434L134 429.5L140 434L143 426.5L141.5 420.5L138 419L144.5 417.5L140 411L134 405.5L141.5 403L137 392H133L143 385.5L134 380.5L138 379.5L130.5 369.5L135 369L131.5 363.5L135 354.5L127.5 341L129.5 334.5L121 339L123.5 344H120.375L121 347.125L119.5 347.5L117.5 357L119.5 362.5H115.5L109.5 369L116.5 376L108 384L113 388V392L105 416.5V424L101 432H121Z" fill="url(#paint12_linear_3379_7735)" stroke="black" stroke-width="2"/>
<rect x="134" y="435" width="2" height="4" fill="black"/>
<rect x="130" y="437" width="2" height="4" fill="black"/>
<rect x="126" y="437" width="2" height="4" fill="black"/>
<rect x="134" y="441" width="2" height="2" fill="black"/>
<rect x="138" y="441" width="2" height="2" fill="black"/>
<rect x="142" y="439" width="2" height="2" fill="black"/>
</g>
<g clip-path="url(#clip7_3379_7735)">
<path d="M407 550.5V542.5H411V550.5L413.5 548.5L420 553L426 548.5L429 556L427.5 562L424 563.5L430.5 565L426 571.5L420 577L427.5 579.5L423 590.5H419L429 597L420 602L424 603L416.5 613L421 613.5L417.5 619L421 628L413.5 641.5L415.5 648L407 643.5L409.5 638.5H406.375L407 635.375L405.5 635L403.5 625.5L405.5 620H401.5L395.5 613.5L402.5 606.5L394 598.5L399 594.5V590.5L391 566V558.5L387 550.5H407Z" fill="url(#paint13_linear_3379_7735)"/>
<path d="M407 549.5V557.5H411V549.5L413.5 551.5L420 547L426 551.5L429 544L427.5 538L424 536.5L430.5 535L426 528.5L420 523L427.5 520.5L423 509.5H419L429 503L420 498L424 497L416.5 487L421 486.5L417.5 481L421 472L413.5 458.5L415.5 452L407 456.5L409.5 461.5H406.375L407 464.625L405.5 465L403.5 474.5L405.5 480H401.5L395.5 486.5L402.5 493.5L394 501.5L399 505.5V509.5L391 534V541.5L387 549.5H407Z" fill="url(#paint14_linear_3379_7735)" stroke="black" stroke-width="2"/>
<rect x="420" y="552.5" width="2" height="4" fill="black"/>
<rect x="416" y="554.5" width="2" height="4" fill="black"/>
<rect x="412" y="554.5" width="2" height="4" fill="black"/>
<rect x="420" y="558.5" width="2" height="2" fill="black"/>
<rect x="424" y="558.5" width="2" height="2" fill="black"/>
<rect x="428" y="556.5" width="2" height="2" fill="black"/>
</g>
<g clip-path="url(#clip8_3379_7735)">
<path d="M73 350.5V342.5H77V350.5L79.5 348.5L86 353L92 348.5L95 356L93.5 362L90 363.5L96.5 365L92 371.5L86 377L93.5 379.5L89 390.5H85L95 397L86 402L90 403L82.5 413L87 413.5L83.5 419L87 428L79.5 441.5L81.5 448L73 443.5L75.5 438.5H72.375L73 435.375L71.5 435L69.5 425.5L71.5 420H67.5L61.5 413.5L68.5 406.5L60 398.5L65 394.5V390.5L57 366V358.5L53 350.5H73Z" fill="url(#paint15_linear_3379_7735)"/>
<path d="M73 349.5V357.5H77V349.5L79.5 351.5L86 347L92 351.5L95 344L93.5 338L90 336.5L96.5 335L92 328.5L86 323L93.5 320.5L89 309.5H85L95 303L86 298L90 297L82.5 287L87 286.5L83.5 281L87 272L79.5 258.5L81.5 252L73 256.5L75.5 261.5H72.375L73 264.625L71.5 265L69.5 274.5L71.5 280H67.5L61.5 286.5L68.5 293.5L60 301.5L65 305.5V309.5L57 334V341.5L53 349.5H73Z" fill="url(#paint16_linear_3379_7735)" stroke="black" stroke-width="2"/>
<rect x="86" y="352.5" width="2" height="4" fill="black"/>
<rect x="82" y="354.5" width="2" height="4" fill="black"/>
<rect x="78" y="354.5" width="2" height="4" fill="black"/>
<rect x="86" y="358.5" width="2" height="2" fill="black"/>
<rect x="90" y="358.5" width="2" height="2" fill="black"/>
<rect x="94" y="356.5" width="2" height="2" fill="black"/>
</g>
<path opacity="0.4" d="M348 488L356 496H388L396 488V440L388 432H356L348 440V488Z" fill="black"/>
<path d="M349 439.586V368.414L356.414 361H387.586L395 368.414V439.586L387.586 447H356.414L349 439.586Z" fill="#58584F" stroke="black" stroke-width="2"/>
<path d="M349.414 368L356.414 361H387.586L394.586 368L387.586 375H356.414L349.414 368Z" stroke="black" stroke-width="2"/>
<path d="M353 372L357 368H387L391 372" stroke="black" stroke-width="2"/>
<rect x="357" y="375" width="30" height="72" fill="#4A4A43" stroke="black" stroke-width="2"/>
<rect x="363" y="374" width="2" height="4" fill="black"/>
<rect x="371" y="374" width="2" height="4" fill="black"/>
<rect x="379" y="374" width="2" height="4" fill="black"/>
<rect x="363" y="360" width="2" height="4" fill="black"/>
<rect x="371" y="360" width="2" height="4" fill="black"/>
<rect x="379" y="360" width="2" height="4" fill="black"/>
<path d="M349 379.586V368.414L356.414 361H387.586L395 368.414V379.586L387.586 387H356.414L349 379.586Z" stroke="black" stroke-width="2"/>
<g clip-path="url(#clip9_3379_7735)">
<path d="M389 470.5V462.5H393V470.5L395.5 468.5L402 473L408 468.5L411 476L409.5 482L406 483.5L412.5 485L408 491.5L402 497L409.5 499.5L405 510.5H401L411 517L402 522L406 523L398.5 533L403 533.5L399.5 539L403 548L395.5 561.5L397.5 568L389 563.5L391.5 558.5H388.375L389 555.375L387.5 555L385.5 545.5L387.5 540H383.5L377.5 533.5L384.5 526.5L376 518.5L381 514.5V510.5L373 486V478.5L369 470.5H389Z" fill="url(#paint17_linear_3379_7735)"/>
<path d="M389 469.5V477.5H393V469.5L395.5 471.5L402 467L408 471.5L411 464L409.5 458L406 456.5L412.5 455L408 448.5L402 443L409.5 440.5L405 429.5H401L411 423L402 418L406 417L398.5 407L403 406.5L399.5 401L403 392L395.5 378.5L397.5 372L389 376.5L391.5 381.5H388.375L389 384.625L387.5 385L385.5 394.5L387.5 400H383.5L377.5 406.5L384.5 413.5L376 421.5L381 425.5V429.5L373 454V461.5L369 469.5H389Z" fill="url(#paint18_linear_3379_7735)" stroke="black" stroke-width="2"/>
<rect x="402" y="472.5" width="2" height="4" fill="black"/>
<rect x="398" y="474.5" width="2" height="4" fill="black"/>
<rect x="394" y="474.5" width="2" height="4" fill="black"/>
<rect x="402" y="478.5" width="2" height="2" fill="black"/>
<rect x="406" y="478.5" width="2" height="2" fill="black"/>
<rect x="410" y="476.5" width="2" height="2" fill="black"/>
</g>
<path d="M172 397H146L149 407V411H153V416H161.5L165 419H177V405H172V397Z" fill="#BBBBBB"/>
<rect x="324" y="388" width="2" height="4" fill="black"/>
<rect x="320" y="390" width="2" height="4" fill="black"/>
<rect x="316" y="390" width="2" height="4" fill="black"/>
<rect x="324" y="394" width="2" height="2" fill="black"/>
<rect x="328" y="394" width="2" height="2" fill="black"/>
<rect x="332" y="392" width="2" height="2" fill="black"/>
<rect x="91" y="388" width="2" height="4" fill="black"/>
<rect x="87" y="390" width="2" height="4" fill="black"/>
<rect x="83" y="390" width="2" height="4" fill="black"/>
<rect x="91" y="394" width="2" height="2" fill="black"/>
<rect x="95" y="394" width="2" height="2" fill="black"/>
<rect x="99" y="392" width="2" height="2" fill="black"/>
<rect x="62" y="227" width="2" height="4" fill="black"/>
<rect x="58" y="229" width="2" height="4" fill="black"/>
<rect x="54" y="229" width="2" height="4" fill="black"/>
<rect x="62" y="233" width="2" height="2" fill="black"/>
<rect x="66" y="233" width="2" height="2" fill="black"/>
<rect x="70" y="231" width="2" height="2" fill="black"/>
<rect x="378" y="258" width="2" height="4" fill="black"/>
<rect x="374" y="260" width="2" height="4" fill="black"/>
<rect x="370" y="260" width="2" height="4" fill="black"/>
<rect x="378" y="264" width="2" height="2" fill="black"/>
<rect x="382" y="264" width="2" height="2" fill="black"/>
<rect x="386" y="262" width="2" height="2" fill="black"/>
<rect x="371" y="550" width="2" height="4" fill="black"/>
<rect x="367" y="552" width="2" height="4" fill="black"/>
<rect x="363" y="552" width="2" height="4" fill="black"/>
<rect x="371" y="556" width="2" height="2" fill="black"/>
<rect x="375" y="556" width="2" height="2" fill="black"/>
<rect x="379" y="554" width="2" height="2" fill="black"/>
<rect x="207" y="547" width="2" height="4" fill="black"/>
<rect x="203" y="549" width="2" height="4" fill="black"/>
<rect x="199" y="549" width="2" height="4" fill="black"/>
<rect x="207" y="553" width="2" height="2" fill="black"/>
<rect x="211" y="553" width="2" height="2" fill="black"/>
<rect x="215" y="551" width="2" height="2" fill="black"/>
<rect x="331" y="456" width="2" height="4" fill="black"/>
<rect x="327" y="458" width="2" height="4" fill="black"/>
<rect x="323" y="458" width="2" height="4" fill="black"/>
<rect x="331" y="462" width="2" height="2" fill="black"/>
<rect x="335" y="462" width="2" height="2" fill="black"/>
<rect x="339" y="460" width="2" height="2" fill="black"/>
<path d="M283 243V239H273L267 247V269H263V283V291H299H323V273L315 268.429V259L303 251V243H283Z" fill="#797565"/>
<path d="M283 243L289 247V251L299 261H309V265L315 268.429M283 243V239H273L267 247V269H263V283M283 243H303V251L315 259V268.429M315 268.429L323 273V291H299H263V283M263 283H273" stroke="black" stroke-width="2"/>
<path d="M289 261V275H277V261L283 255L289 261Z" fill="#393939" stroke="black" stroke-width="2"/>
<path d="M279 275H295V281" stroke="black" stroke-width="2"/>
<path d="M293 279H301V285" stroke="black" stroke-width="2"/>
<path d="M299 283H307V289" stroke="black" stroke-width="2"/>
<path d="M305 287H313V293" stroke="black" stroke-width="2"/>
<path d="M283 251V247H273L267 255V277H263V291V299H299H323V281L315 276.429V267L303 259V251H283Z" fill="#797565"/>
<path d="M283 251L289 255V259L299 269H309V273L315 276.429M283 251V247H273L267 255V277H263V291M283 251H303V259L315 267V276.429M315 276.429L323 281V299H299H263V291M263 291H273" stroke="black" stroke-width="2"/>
<path d="M289 269V283H277V269L283 263L289 269Z" fill="#393939" stroke="black" stroke-width="2"/>
<path d="M279 283H295V289" stroke="black" stroke-width="2"/>
<path d="M293 287H301V293" stroke="black" stroke-width="2"/>
<path d="M299 291H307V297" stroke="black" stroke-width="2"/>
<path d="M305 295H313V301" stroke="black" stroke-width="2"/>
<path opacity="0.4" d="M283 347V351H273L267 343V321H263V307V299H299H323V317L315 321.571V331L303 339V347H283Z" fill="black"/>
<g style="mix-blend-mode:color-dodge">
<path d="M295 224C286.298 224 277.791 226.581 270.555 231.415C263.319 236.25 257.68 243.122 254.349 251.162C251.019 259.202 250.148 268.049 251.845 276.584C253.543 285.119 257.734 292.959 263.887 299.113C270.041 305.266 277.881 309.457 286.416 311.155C294.951 312.852 303.798 311.981 311.838 308.651C319.878 305.32 326.75 299.681 331.585 292.445C336.419 285.209 339 276.702 339 268H295V224Z" fill="url(#paint19_radial_3379_7735)"/>
</g>
<g style="mix-blend-mode:color-dodge" opacity="0.4">
<path d="M208 301C208 292.298 205.419 283.791 200.585 276.555C195.75 269.319 188.878 263.68 180.838 260.349C172.798 257.019 163.951 256.148 155.416 257.845C146.881 259.543 139.041 263.734 132.887 269.887C126.734 276.041 122.543 283.881 120.845 292.416C119.148 300.951 120.019 309.798 123.349 317.838C126.68 325.878 132.319 332.75 139.555 337.585C146.791 342.419 155.298 345 164 345V301H208Z" fill="url(#paint20_radial_3379_7735)"/>
</g>
<g clip-path="url(#clip10_3379_7735)">
<path d="M256 332.5V324.5H260V332.5L262.5 330.5L269 335L275 330.5L278 338L276.5 344L273 345.5L279.5 347L275 353.5L269 359L276.5 361.5L272 372.5H268L278 379L269 384L273 385L265.5 395L270 395.5L266.5 401L270 410L262.5 423.5L264.5 430L256 425.5L258.5 420.5H255.375L256 417.375L254.5 417L252.5 407.5L254.5 402H250.5L244.5 395.5L251.5 388.5L243 380.5L248 376.5V372.5L240 348V340.5L236 332.5H256Z" fill="url(#paint21_linear_3379_7735)"/>
<path d="M256 331.5V339.5H260V331.5L262.5 333.5L269 329L275 333.5L278 326L276.5 320L273 318.5L279.5 317L275 310.5L269 305L276.5 302.5L272 291.5H268L278 285L269 280L273 279L265.5 269L270 268.5L266.5 263L270 254L262.5 240.5L264.5 234L256 238.5L258.5 243.5H255.375L256 246.625L254.5 247L252.5 256.5L254.5 262H250.5L244.5 268.5L251.5 275.5L243 283.5L248 287.5V291.5L240 316V323.5L236 331.5H256Z" fill="url(#paint22_linear_3379_7735)" stroke="black" stroke-width="2"/>
<rect x="269" y="334.5" width="2" height="4" fill="black"/>
<rect x="265" y="336.5" width="2" height="4" fill="black"/>
<rect x="261" y="336.5" width="2" height="4" fill="black"/>
<rect x="269" y="340.5" width="2" height="2" fill="black"/>
<rect x="273" y="340.5" width="2" height="2" fill="black"/>
<rect x="277" y="338.5" width="2" height="2" fill="black"/>
</g>
<path d="M389 806H41L45.1324 800.5H0V536.5L78 566L47 571.5V610.5C50 611.667 106 562 106 566V576L117.499 590V597.5L126.499 603.5L133.999 597.5L126.499 595.5V581.5V571.5H137.999V552L126.499 543.5L133.999 534L148.499 531.5V525H151.999L157.999 536.5L169.999 543.5V548.5V557.5L172.499 568.5L161.499 571.5C161.499 577 160.799 589.5 157.999 595.5L151.999 607L157.999 613.5L161.499 603.5L172.499 579H179.999V571.5H185.499V584L179.999 621L45.1324 800.5H386.605L291.249 581.5L368 613.5L357 546.5L463 579V800.5H386.605L389 806Z" fill="#394431"/>
<g clip-path="url(#clip11_3379_7735)">
<path d="M308 557.5V549.5H312V557.5L314.5 555.5L321 560L327 555.5L330 563L328.5 569L325 570.5L331.5 572L327 578.5L321 584L328.5 586.5L324 597.5H320L330 604L321 609L325 610L317.5 620L322 620.5L318.5 626L322 635L314.5 648.5L316.5 655L308 650.5L310.5 645.5H307.375L308 642.375L306.5 642L304.5 632.5L306.5 627H302.5L296.5 620.5L303.5 613.5L295 605.5L300 601.5V597.5L292 573V565.5L288 557.5H308Z" fill="url(#paint23_linear_3379_7735)"/>
<path d="M308 556.5V564.5H312V556.5L314.5 558.5L321 554L327 558.5L330 551L328.5 545L325 543.5L331.5 542L327 535.5L321 530L328.5 527.5L324 516.5H320L330 510L321 505L325 504L317.5 494L322 493.5L318.5 488L322 479L314.5 465.5L316.5 459L308 463.5L310.5 468.5H307.375L308 471.625L306.5 472L304.5 481.5L306.5 487H302.5L296.5 493.5L303.5 500.5L295 508.5L300 512.5V516.5L292 541V548.5L288 556.5H308Z" fill="url(#paint24_linear_3379_7735)" stroke="black" stroke-width="2"/>
<rect x="321" y="559.5" width="2" height="4" fill="black"/>
<rect x="317" y="561.5" width="2" height="4" fill="black"/>
<rect x="313" y="561.5" width="2" height="4" fill="black"/>
<rect x="321" y="565.5" width="2" height="2" fill="black"/>
<rect x="325" y="565.5" width="2" height="2" fill="black"/>
<rect x="329" y="563.5" width="2" height="2" fill="black"/>
</g>
<g clip-path="url(#clip12_3379_7735)">
<path d="M92 578.5V570.5H96V578.5L98.5 576.5L105 581L111 576.5L114 584L112.5 590L109 591.5L115.5 593L111 599.5L105 605L112.5 607.5L108 618.5H104L114 625L105 630L109 631L101.5 641L106 641.5L102.5 647L106 656L98.5 669.5L100.5 676L92 671.5L94.5 666.5H91.375L92 663.375L90.5 663L88.5 653.5L90.5 648H86.5L80.5 641.5L87.5 634.5L79 626.5L84 622.5V618.5L76 594V586.5L72 578.5H92Z" fill="url(#paint25_linear_3379_7735)"/>
<path d="M92 577.5V585.5H96V577.5L98.5 579.5L105 575L111 579.5L114 572L112.5 566L109 564.5L115.5 563L111 556.5L105 551L112.5 548.5L108 537.5H104L114 531L105 526L109 525L101.5 515L106 514.5L102.5 509L106 500L98.5 486.5L100.5 480L92 484.5L94.5 489.5H91.375L92 492.625L90.5 493L88.5 502.5L90.5 508H86.5L80.5 514.5L87.5 521.5L79 529.5L84 533.5V537.5L76 562V569.5L72 577.5H92Z" fill="url(#paint26_linear_3379_7735)" stroke="black" stroke-width="2"/>
<rect x="105" y="580.5" width="2" height="4" fill="black"/>
<rect x="101" y="582.5" width="2" height="4" fill="black"/>
<rect x="97" y="582.5" width="2" height="4" fill="black"/>
<rect x="105" y="586.5" width="2" height="2" fill="black"/>
<rect x="109" y="586.5" width="2" height="2" fill="black"/>
<rect x="113" y="584.5" width="2" height="2" fill="black"/>
</g>
<path d="M151 601.5V609.5H155V601.5L157.5 603.5L164 599L170 603.5L173 596L171.5 590L168 588.5L174.5 587L170 580.5L164 575L171.5 572.5L167 561.5H163L173 555L164 550L168 549L160.5 539L165 538.5L161.5 533L165 524L157.5 510.5L159.5 504L151 508.5L153.5 513.5H150.375L151 516.625L149.5 517L147.5 526.5L149.5 532H145.5L139.5 538.5L146.5 545.5L138 553.5L143 557.5V561.5L135 586V593.5L131 601.5H151Z" fill="#2A3026" stroke="black" stroke-width="2"/>
<path d="M44 562.5V570.5H48V562.5L50.5 564.5L57 560L63 564.5L66 557L64.5 551L61 549.5L67.5 548L63 541.5L57 536L64.5 533.5L60 522.5H56L66 516L57 511L61 510L53.5 500L58 499.5L54.5 494L58 485L50.5 471.5L52.5 465L44 469.5L46.5 474.5H43.375L44 477.625L42.5 478L40.5 487.5L42.5 493H38.5L32.5 499.5L39.5 506.5L31 514.5L36 518.5V522.5L28 547V554.5L24 562.5H44Z" fill="#2A3026" stroke="black" stroke-width="2"/>
<path opacity="0.8" d="M0 -1H463V800H0V-1Z" fill="url(#paint27_linear_3379_7735)"/>
<g opacity="0.4">
<rect x="295" y="172" width="2" height="2" fill="white"/>
<rect x="325" y="200" width="2" height="2" fill="white"/>
<rect x="369" y="150" width="2" height="2" fill="white"/>
<rect width="2" height="2" transform="matrix(-1 0 0 1 251 196)" fill="white"/>
<rect width="2" height="2" transform="matrix(-1 0 0 1 221 224)" fill="white"/>
<rect width="2" height="2" transform="matrix(-1 0 0 1 177 174)" fill="white"/>
<rect width="2" height="2" transform="matrix(-1 0 0 1 155 292)" fill="white"/>
<rect width="2" height="2" transform="matrix(-1 0 0 1 125 320)" fill="white"/>
<rect width="2" height="2" transform="matrix(-1 0 0 1 81 270)" fill="white"/>
<rect width="2" height="2" transform="matrix(-1 0 0 1 347 412)" fill="white"/>
<rect width="2" height="2" transform="matrix(-1 0 0 1 317 440)" fill="white"/>
<rect width="2" height="2" transform="matrix(-1 0 0 1 273 390)" fill="white"/>
<rect width="2" height="2" transform="matrix(-1 0 0 1 179 460)" fill="white"/>
<rect width="2" height="2" transform="matrix(-1 0 0 1 149 488)" fill="white"/>
<rect width="2" height="2" transform="matrix(-1 0 0 1 105 438)" fill="white"/>
<rect width="2" height="2" transform="matrix(-1 0 0 1 251 532)" fill="white"/>
<rect width="2" height="2" transform="matrix(-1 0 0 1 221 560)" fill="white"/>
<rect width="2" height="2" transform="matrix(-1 0 0 1 177 510)" fill="white"/>
</g>
<path d="M146 397H165V405H177V410H187M146 349L173.5 361H182V364H185M224 349V352H229V355H234V358H238M315 378H320V381M339 378H345.5M345.5 378V380M345.5 378H348" stroke="#8D8D8D" stroke-width="2"/>
<path d="M198.5 426.5C198.5 424.9 198.5 417.5 198.5 414H187V410" stroke="black" stroke-width="2"/>
<path d="M210.5 431L219 434V436.5H225V438.5M235 438.5C236.6 438.5 242.667 438.5 245.5 438.5V435H260.5" stroke="black" stroke-width="2"/>
</g>
<defs>
<linearGradient id="paint0_linear_3379_7735" x1="226.25" y1="419.5" x2="226.25" y2="646.5" gradientUnits="userSpaceOnUse">
<stop stop-color="#2B92CC"/>
<stop offset="1" stop-color="#1E2940"/>
</linearGradient>
<linearGradient id="paint1_linear_3379_7735" x1="276.75" y1="530" x2="276.75" y2="424.5" gradientUnits="userSpaceOnUse">
<stop stop-opacity="0.21"/>
<stop offset="1" stop-opacity="0.79"/>
</linearGradient>
<linearGradient id="paint2_linear_3379_7735" x1="276.75" y1="334" x2="276.75" y2="439.5" gradientUnits="userSpaceOnUse">
<stop stop-color="#2A3026"/>
<stop offset="1"/>
</linearGradient>
<linearGradient id="paint3_linear_3379_7735" x1="195.75" y1="405" x2="195.75" y2="299.5" gradientUnits="userSpaceOnUse">
<stop stop-opacity="0.21"/>
<stop offset="1" stop-opacity="0.79"/>
</linearGradient>
<linearGradient id="paint4_linear_3379_7735" x1="195.75" y1="209" x2="195.75" y2="314.5" gradientUnits="userSpaceOnUse">
<stop stop-color="#2A3026"/>
<stop offset="1"/>
</linearGradient>
<linearGradient id="paint5_linear_3379_7735" x1="326.75" y1="366" x2="326.75" y2="260.5" gradientUnits="userSpaceOnUse">
<stop stop-opacity="0.21"/>
<stop offset="1" stop-opacity="0.79"/>
</linearGradient>
<linearGradient id="paint6_linear_3379_7735" x1="326.75" y1="170" x2="326.75" y2="275.5" gradientUnits="userSpaceOnUse">
<stop stop-color="#658550"/>
<stop offset="1"/>
</linearGradient>
<linearGradient id="paint7_linear_3379_7735" x1="109.75" y1="332" x2="109.75" y2="226.5" gradientUnits="userSpaceOnUse">
<stop stop-opacity="0.21"/>
<stop offset="1" stop-opacity="0.79"/>
</linearGradient>
<linearGradient id="paint8_linear_3379_7735" x1="109.75" y1="136" x2="109.75" y2="241.5" gradientUnits="userSpaceOnUse">
<stop stop-color="#658550"/>
<stop offset="1"/>
</linearGradient>
<linearGradient id="paint9_linear_3379_7735" x1="167.75" y1="314" x2="167.75" y2="208.5" gradientUnits="userSpaceOnUse">
<stop stop-opacity="0.21"/>
<stop offset="1" stop-opacity="0.79"/>
</linearGradient>
<linearGradient id="paint10_linear_3379_7735" x1="167.75" y1="118" x2="167.75" y2="223.5" gradientUnits="userSpaceOnUse">
<stop stop-color="#658550"/>
<stop offset="1"/>
</linearGradient>
<linearGradient id="paint11_linear_3379_7735" x1="122.75" y1="530.5" x2="122.75" y2="425" gradientUnits="userSpaceOnUse">
<stop stop-opacity="0.21"/>
<stop offset="1" stop-opacity="0.79"/>
</linearGradient>
<linearGradient id="paint12_linear_3379_7735" x1="122.75" y1="334.5" x2="122.75" y2="440" gradientUnits="userSpaceOnUse">
<stop stop-color="#2A3026"/>
<stop offset="1"/>
</linearGradient>
<linearGradient id="paint13_linear_3379_7735" x1="408.75" y1="648" x2="408.75" y2="542.5" gradientUnits="userSpaceOnUse">
<stop stop-opacity="0.21"/>
<stop offset="1" stop-opacity="0.79"/>
</linearGradient>
<linearGradient id="paint14_linear_3379_7735" x1="408.75" y1="452" x2="408.75" y2="557.5" gradientUnits="userSpaceOnUse">
<stop stop-color="#2A3026"/>
<stop offset="1"/>
</linearGradient>
<linearGradient id="paint15_linear_3379_7735" x1="74.75" y1="448" x2="74.75" y2="342.5" gradientUnits="userSpaceOnUse">
<stop stop-opacity="0.21"/>
<stop offset="1" stop-opacity="0.79"/>
</linearGradient>
<linearGradient id="paint16_linear_3379_7735" x1="74.75" y1="252" x2="74.75" y2="357.5" gradientUnits="userSpaceOnUse">
<stop stop-color="#2A3026"/>
<stop offset="1"/>
</linearGradient>
<linearGradient id="paint17_linear_3379_7735" x1="390.75" y1="568" x2="390.75" y2="462.5" gradientUnits="userSpaceOnUse">
<stop stop-opacity="0.21"/>
<stop offset="1" stop-opacity="0.79"/>
</linearGradient>
<linearGradient id="paint18_linear_3379_7735" x1="390.75" y1="372" x2="390.75" y2="477.5" gradientUnits="userSpaceOnUse">
<stop stop-color="#2A3026"/>
<stop offset="1"/>
</linearGradient>
<radialGradient id="paint19_radial_3379_7735" cx="0" cy="0" r="1" gradientUnits="userSpaceOnUse" gradientTransform="translate(295 268) rotate(90) scale(44)">
<stop stop-color="#0066FF"/>
<stop offset="1" stop-opacity="0"/>
</radialGradient>
<radialGradient id="paint20_radial_3379_7735" cx="0" cy="0" r="1" gradientUnits="userSpaceOnUse" gradientTransform="translate(164 301) rotate(90) scale(44)">
<stop stop-color="#FF8E4F"/>
<stop offset="1" stop-color="#FF8A00" stop-opacity="0"/>
</radialGradient>
<linearGradient id="paint21_linear_3379_7735" x1="257.75" y1="430" x2="257.75" y2="324.5" gradientUnits="userSpaceOnUse">
<stop stop-opacity="0.21"/>
<stop offset="1" stop-opacity="0.79"/>
</linearGradient>
<linearGradient id="paint22_linear_3379_7735" x1="257.75" y1="234" x2="257.75" y2="339.5" gradientUnits="userSpaceOnUse">
<stop stop-color="#2A3026"/>
<stop offset="1"/>
</linearGradient>
<linearGradient id="paint23_linear_3379_7735" x1="309.75" y1="655" x2="309.75" y2="549.5" gradientUnits="userSpaceOnUse">
<stop stop-opacity="0.21"/>
<stop offset="1" stop-opacity="0.79"/>
</linearGradient>
<linearGradient id="paint24_linear_3379_7735" x1="309.75" y1="459" x2="309.75" y2="564.5" gradientUnits="userSpaceOnUse">
<stop stop-color="#2A3026"/>
<stop offset="1"/>
</linearGradient>
<linearGradient id="paint25_linear_3379_7735" x1="93.75" y1="676" x2="93.75" y2="570.5" gradientUnits="userSpaceOnUse">
<stop stop-opacity="0.21"/>
<stop offset="1" stop-opacity="0.79"/>
</linearGradient>
<linearGradient id="paint26_linear_3379_7735" x1="93.75" y1="480" x2="93.75" y2="585.5" gradientUnits="userSpaceOnUse">
<stop stop-color="#2A3026"/>
<stop offset="1"/>
</linearGradient>
<linearGradient id="paint27_linear_3379_7735" x1="231.5" y1="142" x2="231.5" y2="639.999" gradientUnits="userSpaceOnUse">
<stop/>
<stop offset="1" stop-opacity="0"/>
</linearGradient>
<clipPath id="clip0_3379_7735">
<rect width="463" height="800" fill="white"/>
</clipPath>
<clipPath id="clip1_3379_7735">
<rect width="44" height="161" fill="white" transform="translate(255 334)"/>
</clipPath>
<clipPath id="clip2_3379_7735">
<rect width="43.5" height="196" fill="white" transform="translate(174 209)"/>
</clipPath>
<clipPath id="clip3_3379_7735">
<rect width="43.5" height="196" fill="white" transform="translate(305 170)"/>
</clipPath>
<clipPath id="clip4_3379_7735">
<rect width="44" height="117" fill="white" transform="translate(88 136)"/>
</clipPath>
<clipPath id="clip5_3379_7735">
<rect width="44" height="134" fill="white" transform="translate(146 118)"/>
</clipPath>
<clipPath id="clip6_3379_7735">
<rect width="43.5" height="196" fill="white" transform="translate(101 334.5)"/>
</clipPath>
<clipPath id="clip7_3379_7735">
<rect width="43.5" height="196" fill="white" transform="translate(387 452)"/>
</clipPath>
<clipPath id="clip8_3379_7735">
<rect width="43.5" height="196" fill="white" transform="translate(53 252)"/>
</clipPath>
<clipPath id="clip9_3379_7735">
<rect width="43.5" height="196" fill="white" transform="translate(369 372)"/>
</clipPath>
<clipPath id="clip10_3379_7735">
<rect width="43.5" height="196" fill="white" transform="translate(236 234)"/>
</clipPath>
<clipPath id="clip11_3379_7735">
<rect width="43.5" height="196" fill="white" transform="translate(288 459)"/>
</clipPath>
<clipPath id="clip12_3379_7735">
<rect width="43.5" height="196" fill="white" transform="translate(72 480)"/>
</clipPath>
</defs>
</svg>
