<svg width="2000" height="1200" viewBox="0 0 2000 1200" fill="none" xmlns="http://www.w3.org/2000/svg">
<mask id="mask0_376_23907" style="mask-type:alpha" maskUnits="userSpaceOnUse" x="16" y="9" width="1969" height="1185">
<path d="M169 136L47 107H96L82 40L206 58L185 23L314 45L302 23L589 40L603 15L949 45L927 23H1265V45L1443 23V45L1551 9V34L1911 9V69L1973 34L1963 85L1985 69L1973 169L1985 179L1973 452H1985L1963 681L1979 700L1946 730L1985 747L1963 758L1985 774L1953 899L1985 934H1911L1973 1099L1911 1075L1902 1171L1748 1139L1801 1177L1683 1165L1741 1187L1593 1165L1509 1187L1459 1153L1443 1177L1273 1153V1177L1075 1139L1079 1177L1027 1165L969 1194V1177H691V1136L653 1170L531 1131V1187L130 1153L165 1095H93L80 1109V1095L47 1131L139 969L16 1084L93 962L35 995L58 956L24 969L88 566L24 563H50.5L29.4867 371L96 373V360L104 352L16 210L229 192L58 147L169 136Z" fill="white"/>
</mask>
<g mask="url(#mask0_376_23907)">
<rect x="4" y="-13" width="2062" height="1238" fill="#0D0D0D"/>
<rect x="4" width="2062" height="1200" fill="url(#paint0_linear_376_23907)"/>
<path opacity="0.1" d="M736.796 484L595.939 492L536 459V430L-8 250V-4L282 102V166L450 250V284L583.202 410V388L648.386 376L736.796 391V410H822.21V430L799.733 459L918.112 442H975.055L1029 492V510.5L961.568 572L894.137 550V583L819.213 549.5L736.796 514.5V484Z" fill="black"/>
<path opacity="0.1" d="M736.796 614L620 638L528 580L-20 666L0 404H270L450 472L583.202 548V518L736.796 548L914 598L736.796 614Z" fill="black"/>
<path opacity="0.1" d="M1312.32 475.243L1367.68 445.066L1682 330L1838 102H2004V403L1709 543.14H1496V611.037H1386.55L1428.06 662H1312.32L1259.48 611.037V506.676L1167.65 559L1123.61 465.184H1067V433L1109 403L1152 422L1167.65 459L1180.23 391H1270L1312.32 475.243Z" fill="black"/>
<path opacity="0.2" d="M896 309L908 238L1234 206L1390 -22H1556V279L1407.5 341.184H1060V382.676H980.065V425.5L858 425.5L834 382.676L756.5 395.269V341.184H675.613L576 354L552 309L634 279H675.613L608 170L704 -6.00003L896 -22L846 170L896 309Z" fill="black"/>
<path d="M-48 778L519.5 677L647.25 737L830 638L850 660H876L980 725L1050 677L1134 725L1728 618L2066 706V1088H-48V778Z" fill="#232F39"/>
<path d="M4 814H519.5L777.25 828H1035L1550.5 807H2066V1225H4V814Z" fill="url(#paint1_linear_376_23907)"/>
<path opacity="0.5" d="M1163 919.728V944H1121H1119.28L1120.13 945.495L1197.1 1080.45L1250.48 1205H982.099L732.247 1155.23L782.839 969.723L870.711 931H921.5L921.683 929.017L889.893 923.113L948.899 897.417L949.249 897.265L949.408 896.918L960.641 872.5H1016.84L1163 919.728Z" fill="#534E3D" stroke="black" stroke-width="2"/>
<path opacity="0.5" d="M1591.96 851.001L1668.36 858.277L1604.83 869.014L1604 869.155V870V914.5V914.854L1604.22 915.13L1704.15 1038.42L1662.59 1079H1539H1538.58L1538.29 1079.3L1453.58 1165H1318.47L1153.26 968.946L1191.02 915.5H1220H1221V914.5V903.5V902.683L1220.2 902.52L1058.54 869.598L1066.78 865.479L1139.05 858.999L1591.96 851.001Z" fill="#534E3D" stroke="black" stroke-width="2"/>
<path opacity="0.5" d="M646.058 969.336L702.807 1128.63L589.668 1211.01L78.5922 1218.99L30.6408 1129.94L238.038 1122L239.448 1121.95L238.93 1120.63L179.47 970H194H194.838L194.985 969.175L210.985 879.175L211.119 878.419L210.423 878.094L167.375 858.005L178.236 852.992L524.959 841.002L858.355 879.99L914.826 889.985L914.937 890.004L915.05 889.999L944 888.551V895.265L869.701 918.546L869.686 918.55L869.671 918.556L727.831 968H647H645.582L646.058 969.336Z" fill="#534E3D" stroke="black" stroke-width="2"/>
<path d="M1495.25 727.995L1440.5 665.884L1380.17 659.082L1348.69 745.874L1347.91 748.025L1346.86 745.992L1316.08 686.342L1287.17 753.728L1286.1 756.215L1285.3 753.631L1256.36 660.905L1217.17 753.722L1216.28 755.822L1215.34 753.748L1175.96 667.258L1132.9 753.779L1132.1 755.373L1131.15 753.866L1073 661.466V826H1563V660.448L1496.71 728.034L1495.96 728.801L1495.25 727.995Z" fill="#333435" stroke="black" stroke-width="2"/>
<path d="M1084.11 745.716L1083.11 745.758L1083.07 744.759L1082.9 740.923L1082.86 739.924L1083.86 739.881L1292.67 731.001L1293.67 730.958L1293.71 731.957L1293.88 735.794L1293.92 736.793L1292.92 736.835L1084.11 745.716Z" fill="#1F1F1F" stroke="black" stroke-width="2"/>
<path d="M1203.59 746.639L1202.59 746.681L1202.55 745.682L1202.39 741.846L1202.34 740.847L1203.34 740.804L1292.77 737.001L1293.77 736.958L1293.81 737.958L1293.97 741.794L1294.02 742.793L1293.02 742.835L1203.59 746.639Z" fill="#1F1F1F" stroke="black" stroke-width="2"/>
<path d="M1281 819H1280V818V732V731H1281H1285H1286V732V818V819H1285H1281Z" fill="#1F1F1F" stroke="black" stroke-width="2"/>
<path d="M1263 819H1261.78L1262.02 817.806L1279.02 731.806L1279.18 731H1280H1286H1287.22L1286.98 732.194L1269.98 818.194L1269.82 819H1269H1263Z" fill="#1F1F1F" stroke="black" stroke-width="2"/>
<path d="M1211 819H1210V818V732V731H1211H1216H1217V732V818V819H1216H1211Z" fill="#1F1F1F" stroke="black" stroke-width="2"/>
<path d="M1147 819H1146V818V732V731H1147H1152H1153V732V818V819H1152H1147Z" fill="#1F1F1F" stroke="black" stroke-width="2"/>
<path d="M1097 819H1096.08L1096 818.086L1089 737.086L1088.91 736H1090H1095H1095.92L1096 736.914L1103 817.914L1103.09 819H1102H1097Z" fill="#1F1F1F" stroke="black" stroke-width="2"/>
<path d="M1253.5 799.5L1335 782H1377.5V805.5H1411.5" stroke="black" stroke-width="2"/>
<path d="M856.351 651.893L824.442 741.336L823.564 743.795L822.575 741.379L789.521 660.689L757.931 741.365L757.682 742H757H701H700.235L700.035 741.262L678.362 661.313L647.69 745.874L646.91 748.025L645.861 745.992L615.083 686.342L586.169 753.728L585.102 756.215L584.295 753.631L555.359 660.905L516.171 753.722L515.285 755.822L514.34 753.748L474.96 667.258L431.895 753.779L431.016 755.545L430.111 753.792L403.111 701.458L402.359 700H404H408.353L384.036 653.236L361.589 700H371H372.577L371.904 701.427L351.246 745.237L360.615 752.545L361.197 752.999L360.935 753.689L333.45 826H889V777.128L856.351 651.893Z" fill="#333435" stroke="black" stroke-width="2"/>
<path d="M657 827H803V758.81L730 721.125L657 758.81V827Z" fill="#131415" stroke="black" stroke-width="2"/>
<path d="M336 824H384V790.393L360 772L336 790.393V824Z" fill="#131415"/>
<path d="M957 827H1073V748.423L1015 713.17L957 748.423V827Z" fill="#242527" stroke="black" stroke-width="2"/>
<path d="M746.75 793.5H731.5V811.058L996 826.938V745.417L925.733 705H815.27L746.021 745.4L747.749 792.463L747.787 793.5H746.75Z" fill="#202124" stroke="black" stroke-width="2"/>
<path d="M869.448 822.353L869.993 746H860V826.473L869.448 822.353Z" fill="#1B1C1F" stroke="black" stroke-width="2"/>
<path d="M999 746V740H871.5L867 746H999Z" fill="#1B1C1F" stroke="black" stroke-width="2"/>
<path d="M1002.45 822.353L1002.99 746H993V826.473L1002.45 822.353Z" fill="#1B1C1F" stroke="black" stroke-width="2"/>
<path d="M842 757.363V765.265L928.499 715.135L929 714.844L929.501 715.135L1016 765.265V757.363L929 697.216L842 757.363Z" fill="#121212" stroke="black" stroke-width="2"/>
<path d="M936.5 687.5L928 697V701L942 689.5L936.5 687.5Z" fill="#121212"/>
<path d="M1137.5 516L1129 519L1121.5 525H1127.5L1129 553L1137.5 556L1135 582L1151.5 587.5L1141.5 550.5L1148 533.5L1137.5 516Z" fill="#201F1F" stroke="black" stroke-width="2"/>
<path d="M927.5 701.5L919 692V688L933 699.5L927.5 701.5Z" fill="#121212"/>
<path d="M824 693.907L738 753.363V761.265L824 711.424V693.907Z" fill="#121212" stroke="black" stroke-width="2"/>
<path d="M862 689.907L776 749.363V757.265L862 707.424V689.907Z" fill="#121212" stroke="black" stroke-width="2"/>
<path d="M897 690.907L811 750.363V758.265L897 708.424V690.907Z" fill="#121212" stroke="black" stroke-width="2"/>
<path d="M519.5 835H5V797.137L519.469 813L519.485 813H519.5H782H782.414L782.707 812.707L812.339 783.075L891.826 797.09L891.841 797.093L891.855 797.095L1034.86 817.989L1034.93 818H1035H1171H1171.1L1171.21 817.978L1336.1 783H1376V806V807.016L1377.02 807L2065 796.016V816.034L1550.47 834.001L1550.46 834.001L1550.45 834.001L1035 859.999L519.548 835.001L519.524 835H519.5Z" fill="#2A2A2A" stroke="black" stroke-width="2"/>
<g opacity="0.2">
<rect x="904" y="460" width="2" height="2" fill="#D9D9D9"/>
<rect x="952" y="508" width="2" height="2" fill="#D9D9D9"/>
<rect x="1000" y="556" width="2" height="2" fill="#D9D9D9"/>
<rect x="928" y="556" width="2" height="2" fill="#D9D9D9"/>
<rect x="976" y="604" width="2" height="2" fill="#D9D9D9"/>
<rect x="1024" y="652" width="2" height="2" fill="#D9D9D9"/>
<rect x="1000" y="484" width="2" height="2" fill="#D9D9D9"/>
<rect x="1048" y="532" width="2" height="2" fill="#D9D9D9"/>
<rect x="1096" y="580" width="2" height="2" fill="#D9D9D9"/>
<rect x="1024" y="580" width="2" height="2" fill="#D9D9D9"/>
<rect x="1072" y="628" width="2" height="2" fill="#D9D9D9"/>
<rect x="1120" y="676" width="2" height="2" fill="#D9D9D9"/>
<rect x="928" y="676" width="2" height="2" fill="#D9D9D9"/>
<rect x="976" y="724" width="2" height="2" fill="#D9D9D9"/>
<rect x="1024" y="772" width="2" height="2" fill="#D9D9D9"/>
<rect x="760" y="652" width="2" height="2" fill="#D9D9D9"/>
<rect x="808" y="700" width="2" height="2" fill="#D9D9D9"/>
<rect x="856" y="748" width="2" height="2" fill="#D9D9D9"/>
<rect x="856" y="724" width="2" height="2" fill="#D9D9D9"/>
<rect x="904" y="772" width="2" height="2" fill="#D9D9D9"/>
<rect x="952" y="820" width="2" height="2" fill="#D9D9D9"/>
<rect x="760" y="652" width="2" height="2" fill="#D9D9D9"/>
<rect x="808" y="700" width="2" height="2" fill="#D9D9D9"/>
<rect x="856" y="748" width="2" height="2" fill="#D9D9D9"/>
<rect x="1072" y="748" width="2" height="2" fill="#D9D9D9"/>
<rect x="1120" y="796" width="2" height="2" fill="#D9D9D9"/>
<rect x="1168" y="844" width="2" height="2" fill="#D9D9D9"/>
<rect x="1120" y="508" width="2" height="2" fill="#D9D9D9"/>
<rect x="1168" y="556" width="2" height="2" fill="#D9D9D9"/>
<rect x="1216" y="604" width="2" height="2" fill="#D9D9D9"/>
</g>
<path opacity="0.5" d="M670 912L869.88 919.623V930.295H921.478L933 938.68L717.09 1005" stroke="black" stroke-width="2"/>
<path d="M1310.63 834.517L1281 845.202V854H1335V836.907L1310.63 834.517Z" fill="#323730" stroke="black" stroke-width="2"/>
<path d="M1162 919L1184 931L1208 919V909H1175L1162 919Z" fill="#24261F" stroke="black" stroke-width="2"/>
<path d="M1131 929L1153 941L1177 929V919H1144L1131 929Z" fill="#34382C" stroke="black" stroke-width="2"/>
<path d="M1160 937L1182 925L1206 937V947H1173L1160 937Z" fill="#34382C" stroke="black" stroke-width="2"/>
<path opacity="0.5" d="M1317 852.5L1117.5 857.5V864.5H1066L1054.5 870L1270 913.5" stroke="black" stroke-width="2"/>
<path d="M1400 1024L1379 1230H1572L1532 1004L1379 776L1364 734L1485 570L1563 469L1685 485L1805 404L1685 469L1556 442L1485 531L1523 390L1476.5 330.5L1492 211L1457.5 330.5L1485 390L1329 361L1485 415L1430 551L1342 662L1308 582L1217 434L1211 361L1335 263L1202 355L1156 229L1191 367V415L1083 335L1053 256.5L948 125L1034 256.5L1053 335L969 316L770 361L969 335L1062 361L1171 442L1260 595L1097 531L1041 434L1083 519H1062L978 404L1055 531L1083 540L1002 578.5L956 657L1015.5 582L1097 551L1201 606L1142.5 622L1041 610L999 630L1038 619L991.5 664.5L1047.5 619L1130.5 632.5L1113.5 653L1050.5 664.5L1015.5 725.5L1055 671.5L1062 696V671.5L1119 662L1152 632.5L1221.5 619L1267 645L1297 802L1354 920L1329 956L1400 1024Z" fill="black"/>
<path d="M60.8802 1004.88L88.7184 1278H-167.128L-114.103 978.364L88.7184 676.076L108.603 620.392L-51.7983 402.957L-155.198 269.049L-316.924 290.262L-476 182.87L-316.924 269.049L-145.918 233.251L-51.7983 351.25L-102.172 164.308L-40.5305 85.422L-61.0778 -73.0139L-15.3435 85.422L-51.7983 164.308L155 125.86L-51.7983 197.454L21.1113 377.766L137.767 524.932L182.838 418.867L303.471 222.645L311.424 125.86L147.046 -4.07106L323.355 117.905L384.334 -49.149L337.937 133.815V197.454L481.105 91.3882L520.874 -12.6889L546.061 -252V-12.6889L520.874 91.3882L632.227 66.1976L786 -106.159L632.227 91.3882L508.943 125.86L364.45 233.251L246.468 436.102L462.546 351.25L536.782 222.645L481.105 335.34H508.943L620.296 182.87L518.223 351.25L481.105 363.182L588.481 414.226L649.46 518.303L570.585 418.867L462.546 377.766L324.681 450.686L402.23 471.899L536.782 455.99L592.458 482.506L540.758 467.922L602.4 528.247L528.165 467.922L418.138 485.821L440.673 513L524.188 528.247L570.585 609.122L518.223 537.528L508.943 570.01V537.528L433.382 524.932L389.637 485.821L297.505 467.922L237.189 502.393L197.42 710.548L121.859 866.995L155 914.724L60.8802 1004.88Z" fill="black"/>
<path d="M809.373 898.517L839 909.202V918H785V900.907L809.373 898.517Z" fill="#323730" stroke="black" stroke-width="2"/>
<rect x="731" y="811" width="10" height="44" fill="#121212" stroke="black" stroke-width="2"/>
<rect x="755" y="811" width="10" height="44" fill="#121212" stroke="black" stroke-width="2"/>
<rect x="779" y="811" width="10" height="44" fill="#121212" stroke="black" stroke-width="2"/>
<rect x="803" y="811" width="10" height="44" fill="#121212" stroke="black" stroke-width="2"/>
<rect x="827.898" y="809.517" width="9" height="44" transform="rotate(2.26176 827.898 809.517)" fill="#121212" stroke="black" stroke-width="2"/>
<rect x="849.881" y="810.386" width="10" height="44" transform="rotate(2.26176 849.881 810.386)" fill="#121212" stroke="black" stroke-width="2"/>
<rect x="871.863" y="811.254" width="10" height="44" transform="rotate(2.26176 871.863 811.254)" fill="#121212" stroke="black" stroke-width="2"/>
<rect x="894.846" y="812.162" width="9" height="44" transform="rotate(2.26176 894.846 812.162)" fill="#121212" stroke="black" stroke-width="2"/>
<rect x="720" y="824" width="5.99999" height="196" transform="rotate(-90 720 824)" fill="#121212" stroke="black" stroke-width="2"/>
<rect x="719.922" y="847.063" width="7.99999" height="191" transform="rotate(-88.2391 719.922 847.063)" fill="#121212" stroke="black" stroke-width="2"/>
<path d="M577 843.852L649.644 1136.23V1221H1018.06V1177.75L1044 1115.47L966.167 1177.75L1037.08 1061.84L881.415 1162.18L966.167 1001.29L810.5 1151.8L966.167 904.403L765.53 1151.8L848.552 824.821L727.478 1162.18L765.53 766L701.533 1162.18L687.696 766L665.211 1115.47L577 843.852Z" fill="black"/>
<path d="M434 843.852L506.644 1136.23V1221H875.056V1177.75L901 1115.47L823.167 1177.75L894.081 1061.84L738.415 1162.18L823.167 1001.29L667.5 1151.8L823.167 904.403L622.53 1151.8L705.552 824.821L584.478 1162.18L622.53 766L558.533 1162.18L544.696 766L522.211 1115.47L434 843.852Z" fill="black"/>
<path d="M1537 843.852L1609.64 1136.23V1221H1978.06V1177.75L2004 1115.47L1926.17 1177.75L1997.08 1061.84L1841.41 1162.18L1926.17 1001.29L1770.5 1151.8L1926.17 904.403L1725.53 1151.8L1808.55 824.821L1687.48 1162.18L1725.53 766L1661.53 1162.18L1647.7 766L1625.21 1115.47L1537 843.852Z" fill="black"/>
<path d="M1394 843.852L1466.64 1136.23V1221H1835.06V1177.75L1861 1115.47L1783.17 1177.75L1854.08 1061.84L1698.41 1162.18L1783.17 1001.29L1627.5 1151.8L1783.17 904.403L1582.53 1151.8L1665.55 824.821L1544.48 1162.18L1582.53 766L1518.53 1162.18L1504.7 766L1482.21 1115.47L1394 843.852Z" fill="black"/>
<path d="M1166 762.6L1170 772.2V866H1162V772.2L1166 762.6Z" fill="#121212" stroke="black" stroke-width="2"/>
<path d="M1182 762.6L1186 772.2V866H1178V772.2L1182 762.6Z" fill="#121212" stroke="black" stroke-width="2"/>
<path d="M1152 762.6L1156 772.2V866H1148V772.2L1152 762.6Z" fill="#121212" stroke="black" stroke-width="2"/>
<path d="M1216 766.6L1212 776.2V870H1220V776.2L1216 766.6Z" fill="#121212" stroke="black" stroke-width="2"/>
<path d="M1200 766.6L1196 776.2V870H1204V776.2L1200 766.6Z" fill="#121212" stroke="black" stroke-width="2"/>
<path d="M1258.78 767.363L1253.19 776.126L1237.08 872.024L1244.82 870.235L1261.07 777.509L1258.78 767.363Z" fill="#121212" stroke="black" stroke-width="2"/>
</g>
<rect opacity="0.5" x="1102" y="916" width="2" height="5" fill="black"/>
<rect opacity="0.5" x="1107" y="918" width="2" height="5" fill="black"/>
<rect opacity="0.5" x="1116" y="920" width="2" height="5" fill="black"/>
<rect opacity="0.5" x="1036" y="880" width="2" height="5" fill="black"/>
<rect opacity="0.5" width="2" height="5" transform="matrix(-1 0 0 1 944 888)" fill="black"/>
<rect opacity="0.5" width="2" height="5" transform="matrix(-1 0 0 1 939 890)" fill="black"/>
<rect opacity="0.5" width="2" height="5" transform="matrix(-1 0 0 1 930 892)" fill="black"/>
<rect opacity="0.5" width="2" height="5" transform="matrix(-1 0 0 1 1010 852)" fill="black"/>
<path d="M1039.26 905.806L1045 900L1041.2 920H1019V912.381H1021.67L1022.8 901.613L1025.71 910.968L1028.65 900L1035.42 910.968C1036.48 907.849 1039.26 900 1039.26 900V905.806Z" fill="#B26D2E" stroke="#EBBB40" stroke-width="2"/>
<path d="M1025.2 903.806L1018.96 896.077L1017.07 900.105L1022.03 906.366L1025.2 903.806Z" fill="#0B0B0B" stroke="black" stroke-width="2"/>
<path d="M1016.18 910.065L1010 906L1014.09 920H1038V913.677L1034.23 913.395L1033.91 907.129L1030.78 913.677L1024 899.5L1020.31 913.677C1019.18 911.495 1016.18 906 1016.18 906V910.065Z" fill="#DDB731" stroke="#E97E01" stroke-width="2"/>
<rect x="1041" y="916" width="10" height="6" fill="#222222" stroke="black" stroke-width="2"/>
<rect x="1013.24" y="919.429" width="30" height="3.60611" transform="rotate(-51.0652 1013.24 919.429)" fill="#070707" stroke="black" stroke-width="2"/>
<path opacity="0.4" d="M1091 923C1091 906.026 1084.26 889.747 1072.25 877.745C1060.25 865.743 1043.97 859 1027 859C1010.03 859 993.748 865.743 981.745 877.745C969.743 889.747 963 906.026 963 923L1027 923H1091Z" fill="url(#paint2_radial_376_23907)"/>
<path d="M1038.06 916.858L1031.79 909.099L1029.66 913.39L1034.61 919.642L1038.06 916.858Z" fill="#222222" stroke="black" stroke-width="2"/>
<rect x="1031" y="916" width="10" height="6" fill="#222222" stroke="black" stroke-width="2"/>
<rect x="1005" y="916" width="10" height="6" fill="#222222" stroke="black" stroke-width="2"/>
<rect x="1026" y="920" width="4" height="7" fill="#070707" stroke="black" stroke-width="2"/>
<rect x="1020" y="916" width="4" height="7" fill="#070707" stroke="black" stroke-width="2"/>
<rect x="1014" y="921" width="4" height="4" fill="#070707" stroke="black" stroke-width="2"/>
<rect x="999" y="920" width="8" height="2" fill="#222222" stroke="black" stroke-width="2"/>
<rect x="1048" y="920" width="8" height="2" fill="#222222" stroke="black" stroke-width="2"/>
<rect x="1043" y="922" width="8" height="2" fill="#222222" stroke="black" stroke-width="2"/>
<path d="M935.5 760.105L943 763.635V788H928V763.635L935.5 760.105Z" fill="#121212" stroke="black" stroke-width="2"/>
<rect x="769" y="765" width="15" height="46" fill="#121212" stroke="black" stroke-width="2"/>
<circle opacity="0.2" cx="692" cy="212" r="20" fill="#90EBFF"/>
<defs>
<linearGradient id="paint0_linear_376_23907" x1="1035" y1="0" x2="1035" y2="1200" gradientUnits="userSpaceOnUse">
<stop stop-color="#334456"/>
<stop offset="1" stop-color="#484B4E"/>
</linearGradient>
<linearGradient id="paint1_linear_376_23907" x1="1035" y1="828" x2="1035" y2="1225" gradientUnits="userSpaceOnUse">
<stop stop-color="#43474A"/>
<stop offset="1"/>
</linearGradient>
<radialGradient id="paint2_radial_376_23907" cx="0" cy="0" r="1" gradientUnits="userSpaceOnUse" gradientTransform="translate(1027 923) rotate(90) scale(64)">
<stop stop-color="#FFA800"/>
<stop offset="1" stop-color="#FFA800" stop-opacity="0"/>
</radialGradient>
</defs>
</svg>
