<svg width="312" height="312" viewBox="0 0 312 312" fill="none" xmlns="http://www.w3.org/2000/svg">
<rect width="160" height="124" transform="matrix(1 0 5.51922e-06 1 76 66)" fill="white"/>
<path d="M76.5 66.7603H236.001L236.001 114.903C236.001 114.903 211.592 102.095 194.5 99.5C154.75 93.4643 135 143 97.5004 134C86.7215 131.413 76.5003 114.903 76.5003 114.903L76.5 66.7603Z" fill="url(#paint0_linear_63_15954)"/>
<path d="M77.0007 157.125C88.4998 154.826 98.7507 166.375 109.501 152.375L85.0006 150.375C113.237 138.204 126.32 157.125 154.751 157.125C164.351 157.125 164.251 155.458 163.001 154.625L166.501 158.375L167.751 154.625C174.334 152.125 191.001 147.175 205.001 147.375C219.001 147.575 214.334 137.125 210.251 131.875L221.001 135.375L221.001 131.875H224.251L224.251 128.625L215.25 122.875L217.25 121.125L226.751 126.375H242.751" stroke="black" stroke-width="2"/>
<path d="M184.25 81.8742C184.25 81.8742 194.25 79.1252 201.25 80.75C208.25 82.3748 213 84.8746 213 89.3746L214 86.3747L216 92.3746L219 94.3746L217 96.3746L218 97.3746L218 101.375L216 105.375L215 104.375L213 110.375L209 111.375L204 121.375L198 119.375L197 117.375L198 106.375L196 104.375L196 101.375L192 105.375C191.286 108.589 187.5 116.625 188.25 119.875C189.201 123.996 192 124.24 192 129L206 130.375L208 133.375L208 138.375L202 141.375L202 137.375L189.375 139.375L190.25 146.375L198 147.5L198 155.125H185.25L177 144.375C165.21 150.925 151.589 149.279 143 145.375C137.891 143.052 136.383 140.308 136 138.466L136 145.375L136 160.375L148.625 168.125L144.001 171.375L128 162.375L127 153.375L116 160.375L116.001 175.375L113.001 172.375H108.001L108 157.375L117 149.375L117 145.375C103.5 131.625 110.812 110.374 129.5 110.375C140.789 110.375 145.125 115 163 109.375C163 109.375 169.758 93.6104 178.375 87.9994C181.926 85.6869 188.25 83.4995 188.25 83.4995L184.25 81.8742Z" fill="#515151"/>
<path d="M196 101.375L196 104.375L198 106.375L197 117.375L198 119.375L204 121.375L209 111.375L213 110.375L215 104.375L216 105.375L218 101.375L218 97.3746L217 96.3746L219 94.3746L216 92.3746L214 86.3747L213 89.3746C213 84.8746 208.25 82.3748 201.25 80.75C194.25 79.1252 184.25 81.8742 184.25 81.8742L188.25 83.4995C188.25 83.4995 181.926 85.6869 178.375 87.9994C169.758 93.6104 163 109.375 163 109.375C145.125 115 140.789 110.375 129.5 110.375C110.812 110.374 103.5 131.625 117 145.375L117 149.375L108 157.375L108.001 172.375H113.001L116.001 175.375L116 160.375L127 153.375M196 101.375L197 96.3746H199M196 101.375L192 105.375C191.286 108.589 187.5 116.625 188.25 119.875C189.201 123.996 192 124.24 192 129M192 129L206 130.375L208 133.375L208 138.375L202 141.375L202 137.375L189.375 139.375M192 129L189.375 139.375M189.375 139.375L190.25 146.375L198 147.5L198 155.125H185.25L177 144.375C165.21 150.925 151.589 149.279 143 145.375C134.411 141.471 136 136.375 136 136.375L136 145.375L136 160.375L148.625 168.125L144.001 171.375L128 162.375L127 153.375M189.375 139.375L186 132.375M127 153.375C131 151.375 135.934 146.375 135.934 146.375" stroke="black" stroke-width="2"/>
<path d="M132.21 169.375C129.844 169.375 121.363 173.375 117.418 175.375C112.428 169.722 106.691 168.878 99.6679 171.375C108.382 162.538 76.0852 171.344 76.0007 171.375L76.0011 246H236.001L236 127.875C228.764 128.182 224.361 131.448 221.948 138.375C212.539 135.422 202.914 138.677 196.309 145.375L196.309 157.375L184.475 164.875L169.683 160.375L167.711 162.875L181.517 168.375C177.586 169.039 173.549 169.395 169.683 170.375C165.739 171.375 153.905 167.375 149.961 167.375C146.016 167.375 143.058 173.375 141.085 172.375C139.113 171.375 135.169 169.375 132.21 169.375Z" fill="#C4C4C4" stroke="black" stroke-width="2"/>
<path d="M209 104.375L208 108.375" stroke="black" stroke-width="2"/>
<path d="M114 118.375L112 120.376C92.8892 114.005 93.3752 147.375 68.5001 128.376C80.6113 128.366 99.8749 89.1251 114 118.375Z" fill="#515151" stroke="black" stroke-width="2"/>
<path d="M164.001 108.5L161 110.375C161.486 110.983 166.5 117.625 166.5 117.625L170 115.937L170 123.375C170 123.375 164.291 137.732 164.001 142.375C163.711 147.017 171 149.375 171 149.375L158 147.375L159 142.375L160.001 124.375L146.125 111.75L142.5 106.5L160.999 76.8748L165 77.3748L163 74.4998L167.125 72.1248C167.125 72.1248 167.938 69.7505 170.312 69.2189C172.687 68.6873 174.312 70.0623 174.312 70.0623L177.999 72.1248L176 75.2498L173 83.7498L168.875 81.7498L170.625 87.3748L174.188 91.5623L170.625 95.6874L178 99.3748L182 100.375L184.001 101.375L181 105.875L176 103.375L161.938 100.75L160.5 102.25L160.5 105.096C163.938 106.688 164.001 108.5 164.001 108.5Z" fill="#C4C4C4"/>
<path d="M168.875 81.7498L173 83.7498L176 75.2498L177.999 72.1248L174.312 70.0623C174.312 70.0623 172.687 68.6873 170.312 69.2189C167.938 69.7505 167.125 72.1248 167.125 72.1248L163 74.4998L165 77.3748L160.999 76.8748L142.5 106.5L146.125 111.75L160.001 124.375L159 142.375L158 147.375L171 149.375C171 149.375 163.711 147.017 164.001 142.375C164.291 137.732 170 123.375 170 123.375L170 115.937L166.5 117.625C166.5 117.625 161.486 110.983 161 110.375L164.001 108.5C164.001 108.5 163.875 104.875 154.25 103.375M168.875 81.7498L168.125 94.9375L170.625 95.6874M168.875 81.7498L170.625 87.3748L174.188 91.5623L170.625 95.6874M161.938 100.75L176 103.375L181 105.875L184.001 101.375L182 100.375L178 99.3748L170.625 95.6874M161.938 100.75C160.856 96.4264 160.5 90.5623 160.999 86.3748M161.938 100.75L160.5 102.25L160.5 105.875" stroke="black" stroke-width="2"/>
<path d="M165.001 139.375L161.001 138.375L157 134.375L159.001 142.375" stroke="black" stroke-width="2"/>
<path d="M168.438 127.625H164.25L160.563 125.438L160.563 128.5L158 127.062L159.751 132.375" stroke="black" stroke-width="2"/>
<path d="M189.875 88L189.875 93.375L186 91.75L188 95.75L183.875 97.25L186 101.375L178.125 110.375L172.125 113.5L170.375 110.375L170.375 114.875L166.125 116.625" stroke="black" stroke-width="2"/>
<path d="M194.5 89.75L197 86.625L198.5 89H202.875L207.25 90.5L207.25 92.875L205 96.125L206.5 96.75L207.25 100.5H212.125L216 105.5" stroke="black" stroke-width="2"/>
<path d="M163 113C163 113 158.95 113.484 157 115C155.459 116.199 154.001 119 154.001 119" stroke="black" stroke-width="2"/>
<path d="M168.625 116.188C168.625 116.188 160.813 116.5 162.438 120.375C160.897 121.574 159.438 124.375 159.438 124.375" stroke="black" stroke-width="2"/>
<path d="M155.437 113.625C155.437 113.625 159.187 112.688 160.125 109.313L151.813 102.875L155.813 98.375C155.042 98.4791 153.25 98.525 152.25 97.875C151.25 97.225 147.208 100.187 145.313 101.75L143.813 105.375C143.813 105.375 143.687 112 146 117.125C149.312 118.063 152.687 115.438 152.687 115.438L149.75 108.813L155.437 113.625Z" fill="#C4C4C4" stroke="black" stroke-width="2"/>
<path d="M157.875 122.125L151.125 122.875L145.625 119.75L146.375 125.5L141.625 126.25L138.25 110.5" stroke="black" stroke-width="2"/>
<path d="M159.5 124.875L150.5 126.375L150.5 128.125L138.125 130.25L134.375 110.5" stroke="black" stroke-width="2"/>
<path d="M146.188 146.625L143.125 129.125" stroke="black" stroke-width="2"/>
<path d="M172.376 146.375L168.75 127.125" stroke="black" stroke-width="2"/>
<path d="M184 100.375L182 98.375L178 99.375L177 101.375L173 100.375L176 103.375L181 106.062L184 105.375H184.438L181 104.375L182 102.375L185 103.375M183 101.375H186" stroke="black" stroke-width="2"/>
<path d="M154.999 78.375L164.999 77.75C164.999 77.75 159.2 85.375 152 97.375C144.8 109.375 107.917 93.5417 98.2501 92.875C109.421 89.4582 108.088 86.2431 105.289 84.2349C103.863 83.6066 102.433 82.905 101 82.1248C101 82.1248 103.458 82.9218 105.289 84.2349C131.721 95.8882 156.258 82.358 154.999 78.375Z" fill="#FF4B3C" stroke="black" stroke-width="2"/>
<path d="M114 110.375C110.522 92.9868 103.001 103.375 103.001 103.375L95.5206 87.3624C113.741 94.2968 146.479 103.937 155 78.375L158.75 78.0625L159.75 71.0625L172.25 79.4375L162.125 82.0625C147.247 101.623 142.146 112.316 114 110.375Z" fill="#FF4B3C" stroke="black" stroke-width="2"/>
<path d="M164.156 77.9062L160 81.0469L159.656 84.8594L161.375 84.75L159.453 84.9375L159.125 88.125C159.125 88.125 160.438 91.6875 165.313 91.4375C170.188 91.1875 171 87.375 171 87.375L170.359 83.9687L170.159 83.9827L169.125 80.375L164.156 77.9062Z" fill="#C4C4C4" stroke="black" stroke-width="2"/>
<path d="M164.641 81.9062L165.313 88.5625" stroke="black" stroke-width="2"/>
<path d="M167.188 84.2031L162.641 84.625" stroke="black" stroke-width="2"/>
<path d="M207.001 116.125L197.626 113C195.209 108.75 188.975 100.025 183.375 99.125C183.375 103.5 176.125 105.75 197.001 116.75" stroke="black" stroke-width="2"/>
<path d="M243.501 150.375C231.917 152.792 207.501 158.125 202.501 160.125C197.501 162.125 200.417 165.125 202.501 166.375L224.751 162.875L219.251 167.625C220.417 168.958 222.401 172.625 221.001 176.625C217.396 186.925 200.251 189.674 200.251 202.125" stroke="black" stroke-width="2"/>
<path d="M197 169.375L185.75 171.375C198.378 170.133 208.794 177.582 197.001 189.375C191.001 195.375 187.876 198 187.876 202.125" stroke="black" stroke-width="2"/>
<path d="M179.501 172.875C171.001 174.625 152.451 178.675 146.251 180.875C140.051 183.075 145.501 182.792 149.001 182.375C153.334 181.792 162.201 181.725 163.001 186.125C164.444 194.065 146.252 193.79 146.251 202.125" stroke="black" stroke-width="2"/>
<path d="M69.0005 175.874C74.9172 174.874 88.2748 173.059 94.2505 174.374C101.063 175.875 100.313 178.062 100.313 178.062L111.751 177.125C110.501 179.375 107.001 184.375 103.001 186.375C99.0006 188.375 77.5006 200.542 67.2507 206.375C79.334 201.542 105.651 191.325 114.251 189.125" stroke="black" stroke-width="2"/>
<path d="M121.251 187.125C124.167 186.292 131.05 184.425 135.25 183.625" stroke="black" stroke-width="2"/>
<path d="M52.563 179.875C52.563 179.875 60.188 177.562 66.563 176.375" stroke="black" stroke-width="2"/>
<path d="M90.4689 78.7194C92.4375 78.7194 95.0313 79.4687 98.4065 81.0632" stroke="black" stroke-width="2"/>
<path d="M221.001 176.743C221.726 175.419 223.44 172.451 224.485 171.18" stroke="black" stroke-width="2"/>
<path d="M155.751 164.625C159.001 168.125 167.001 170.375 167.001 170.375" stroke="black" stroke-width="2"/>
<path d="M119.938 98.815L121.965 98.8145" stroke="black" stroke-width="2"/>
<path d="M124.719 98.5962L126.746 98.5958" stroke="black" stroke-width="2"/>
<path d="M129.407 98.4087L131.434 98.4083" stroke="black" stroke-width="2"/>
<path d="M133.885 98.2095L135.912 98.2091" stroke="black" stroke-width="2"/>
<path d="M236 106.283L236 104.219" stroke="black" stroke-width="2"/>
<path d="M236 110.236L236 108.172" stroke="black" stroke-width="2"/>
<path d="M236 114.19L236 112.125" stroke="black" stroke-width="2"/>
<path d="M236 118.143L236 116.078" stroke="black" stroke-width="2"/>
<path d="M236 122.096L236 120.031" stroke="black" stroke-width="2"/>
<path d="M236 126.049L236 123.984" stroke="black" stroke-width="2"/>
<path d="M236 130.002L236 127.938" stroke="black" stroke-width="2"/>
<path d="M236 133.955L236 131.891" stroke="black" stroke-width="2"/>
<path d="M75.7344 88.9697C92.2692 88.9697 99.2271 98.8754 117.446 98.8754" stroke="black" stroke-width="2"/>
<path d="M236.001 101.875L236.001 66H76.2656L76.2659 120" stroke="black" stroke-width="2"/>
<path d="M64.0005 182L44.0005 182L44.0003 198L52.0001 206.5L44 214L43.9998 230L53.9998 230L63.9998 230L64.0005 182Z" fill="#FF4B3C"/>
<path d="M64.0005 182L44.0005 182L44.0003 198L52.0001 206.5L44 214L43.9998 230L53.9998 230L63.9998 230L64.0005 182Z" fill="black" fill-opacity="0.2"/>
<path d="M64.0005 182L44.0005 182L44.0003 198L52.0001 206.5L44 214L43.9998 230L53.9998 230L63.9998 230L64.0005 182Z" stroke="black" stroke-width="2"/>
<path d="M55.9999 190L64 182L63.9999 190L55.9999 190Z" fill="black" fill-opacity="0.38" stroke="black" stroke-width="2" stroke-linejoin="bevel"/>
<path d="M248 182L268 182L268 198L260 206.5L268 214L268.001 230L258.001 230L248.001 230L248 182Z" fill="#FF4B3C"/>
<path d="M248 182L268 182L268 198L260 206.5L268 214L268.001 230L258.001 230L248.001 230L248 182Z" fill="black" fill-opacity="0.2"/>
<path d="M248 182L268 182L268 198L260 206.5L268 214L268.001 230L258.001 230L248.001 230L248 182Z" stroke="black" stroke-width="2"/>
<path d="M256.002 190L248.002 182L248.002 190L256.002 190Z" fill="black" fill-opacity="0.38" stroke="black" stroke-width="2" stroke-linejoin="bevel"/>
<path d="M255.99 189.977L55.9902 189.977L55.9896 237.977L255.99 237.977L255.99 189.977Z" fill="#FF4B3C" stroke="black" stroke-width="2"/>
<path d="M127.302 225.36C126.006 225.36 124.842 224.988 123.81 224.244C122.778 223.476 121.95 222.324 121.326 220.788C120.702 219.228 120.39 217.284 120.391 214.956C120.391 213.348 120.487 211.872 120.679 210.528C120.871 209.184 121.135 208.092 121.471 207.252C121.879 206.676 122.515 206.052 123.379 205.38C124.243 204.708 125.107 204.132 125.971 203.652C126.859 203.172 127.495 202.932 127.879 202.932C128.575 202.956 129.547 203.016 130.795 203.112C132.043 203.184 133.279 203.268 134.503 203.364L134.071 209.844L131.947 209.844L131.479 206.028C130.903 205.908 130.171 205.812 129.283 205.74C128.419 205.644 127.759 205.596 127.303 205.596C126.847 205.596 126.475 205.668 126.187 205.812C125.659 206.076 125.239 206.928 124.927 208.368C124.639 209.784 124.495 211.596 124.495 213.804C124.494 217.044 124.89 219.3 125.682 220.572C126.474 221.82 127.578 222.444 128.994 222.444L131.406 222.444L132.018 217.908L134.07 217.944L134.142 224.496C133.518 224.664 132.306 224.844 130.506 225.036C128.73 225.252 127.662 225.36 127.302 225.36ZM142.635 225.36C141.579 225.36 140.607 225.072 139.719 224.496C138.855 223.896 138.159 223.008 137.631 221.832C137.127 220.656 136.875 219.216 136.875 217.512C136.875 216.384 136.959 215.34 137.127 214.38C137.295 213.396 137.511 212.628 137.775 212.076C138.183 211.524 139.083 210.78 140.475 209.844C141.892 208.908 142.828 208.44 143.284 208.44C143.548 208.44 144.484 208.56 146.092 208.8C147.7 209.016 148.936 209.196 149.8 209.34L149.799 222.696L151.059 223.2L151.059 224.748C148.875 225.156 147.663 225.36 147.423 225.36C147.327 225.36 147.087 225.18 146.703 224.82C146.343 224.46 146.163 224.22 146.163 224.1L146.163 222.804C143.979 224.508 142.803 225.36 142.635 225.36ZM143.031 222.444C143.271 222.444 144.279 222 146.055 221.112L146.055 211.428C145.479 211.212 144.747 211.02 143.859 210.852C142.995 210.66 142.419 210.588 142.131 210.636C141.699 210.732 141.375 211.272 141.159 212.256C140.943 213.24 140.835 214.884 140.835 217.188C140.835 218.34 140.955 219.312 141.195 220.104C141.459 220.896 141.759 221.484 142.095 221.868C142.455 222.252 142.767 222.444 143.031 222.444ZM155.776 225.36C155.656 225.36 155.404 225.18 155.02 224.82C154.66 224.46 154.48 224.22 154.48 224.1L154.481 211.104L153.149 210.564L153.149 209.052C155.405 208.668 156.653 208.476 156.893 208.476C157.013 208.476 157.241 208.656 157.577 209.016C157.913 209.352 158.081 209.58 158.081 209.7L158.081 210.96C158.705 210.432 159.365 209.892 160.061 209.34C160.781 208.764 161.177 208.476 161.249 208.476C162.473 208.476 163.493 208.668 164.309 209.052C165.125 209.436 165.713 210.072 166.073 210.96C166.649 210.432 167.273 209.892 167.945 209.34C168.617 208.764 168.989 208.476 169.061 208.476C171.005 208.476 172.457 208.92 173.417 209.808C174.377 210.672 174.857 212.196 174.857 214.38L174.856 222.66L176.116 223.2L176.116 224.712C173.908 225.144 172.696 225.36 172.48 225.36C172.36 225.36 172.096 225.18 171.688 224.82C171.304 224.46 171.112 224.22 171.112 224.1L171.113 214.38C171.113 213.084 170.897 212.268 170.465 211.932C170.033 211.572 169.553 211.392 169.025 211.392C168.833 211.392 168.005 211.812 166.541 212.652L166.54 222.66L167.764 223.2L167.764 224.712C165.58 225.144 164.38 225.36 164.164 225.36C164.044 225.36 163.78 225.18 163.372 224.82C162.988 224.46 162.796 224.22 162.796 224.1L162.797 214.38C162.797 213.084 162.593 212.268 162.185 211.932C161.801 211.572 161.357 211.392 160.853 211.392C160.637 211.392 159.761 211.812 158.225 212.652L158.224 222.66L159.448 223.2L159.448 224.712C157.24 225.144 156.016 225.36 155.776 225.36ZM180.696 231.552C180.576 231.552 180.324 231.372 179.94 231.012C179.58 230.652 179.4 230.412 179.4 230.292L179.616 224.388L179.616 211.068L178.32 210.564L178.321 209.052C178.921 208.932 179.641 208.8 180.481 208.656C181.321 208.512 181.813 208.44 181.957 208.44C182.077 208.44 182.317 208.62 182.677 208.98C183.037 209.316 183.217 209.556 183.217 209.7L183.216 210.996L183.9 210.492C184.092 210.348 184.584 209.976 185.377 209.376C186.193 208.752 186.649 208.44 186.745 208.44C187.777 208.44 188.725 208.728 189.589 209.304C190.476 209.88 191.184 210.756 191.712 211.932C192.24 213.084 192.504 214.488 192.504 216.144C192.504 217.344 192.42 218.448 192.252 219.456C192.108 220.44 191.904 221.196 191.64 221.724C191.232 222.276 190.32 223.02 188.904 223.956C187.512 224.892 186.588 225.36 186.132 225.36C186.012 225.36 185.352 225.288 184.152 225.144C183.96 225.096 183.648 225.048 183.216 225L183.216 228.744L184.656 229.32L184.656 230.94C184.032 231.06 183.324 231.18 182.532 231.3C181.74 231.42 181.128 231.504 180.696 231.552ZM187.284 223.128C187.692 223.032 188.004 222.504 188.22 221.544C188.436 220.56 188.544 218.928 188.544 216.648C188.544 215.496 188.424 214.524 188.184 213.732C187.944 212.916 187.644 212.316 187.284 211.932C186.948 211.548 186.636 211.356 186.348 211.356C186.252 211.356 185.868 211.512 185.196 211.824C184.524 212.136 183.912 212.424 183.36 212.688L183.36 222.372C183.96 222.588 184.692 222.792 185.556 222.984C186.42 223.152 186.996 223.2 187.284 223.128Z" fill="#9E3333"/>
<defs>
<linearGradient id="paint0_linear_63_15954" x1="76.5002" y1="95" x2="236.001" y2="95.9991" gradientUnits="userSpaceOnUse">
<stop stop-color="#A9D6FF"/>
<stop offset="1" stop-color="#D1F4FF" stop-opacity="0"/>
</linearGradient>
</defs>
</svg>
