<svg width="108" height="172" viewBox="0 0 108 172" fill="none" xmlns="http://www.w3.org/2000/svg">
<g clip-path="url(#clip0_376_25147)">
<rect x="70" y="91" width="4" height="56" transform="rotate(-30 70 91)" fill="black"/>
<rect x="82.2939" y="94.2949" width="4" height="14" transform="rotate(60 82.2939 94.2949)" fill="black"/>
<path d="M71 64H59V84H77.5L71 64Z" fill="#3A2E2E" stroke="black" stroke-width="2"/>
<path d="M76 65C76 58.3726 70.6274 53 64 53H59V84.0002L64.5 78.0002L67 78.0002L67 84.0002H72V78.0002L75 78.0002L78 84.0002H83L76 71V65Z" fill="#956A2A" stroke="black" stroke-width="2"/>
<rect width="2" height="5" transform="matrix(4.37114e-08 1 1 -4.37114e-08 73 56)" fill="black"/>
<rect width="2" height="5" transform="matrix(4.37114e-08 1 1 -4.37114e-08 75 60)" fill="black"/>
<rect width="2" height="8" transform="matrix(4.37114e-08 1 1 -4.37114e-08 65 52)" fill="black"/>
<path d="M68 88L75 88.0002V98H68.0001L68 88Z" fill="#282828" stroke="black" stroke-width="2"/>
<path d="M68.0003 89L70 87H75L78 92L76.0001 95.9993L74 92.5L68 95.9993L68.0003 89Z" fill="#282828"/>
<path d="M68.0003 89L70 87H75L78 92L76.0001 95.9993L74 92.5L68 95.9993L68.0003 89Z" fill="white" fill-opacity="0.2"/>
<path d="M68.0003 89L70 87H75L78 92L76.0001 95.9993L74 92.5L68 95.9993L68.0003 89Z" stroke="black" stroke-width="2"/>
<path d="M70 84L75 84.0001V88H70.0001L70 84Z" fill="#282828" stroke="black" stroke-width="2"/>
<path d="M75 150.677L75 151L60.153 151L60.9899 145.141L61 145.071L61 145L61 138.5L61 138.424L60.9884 138.348L60.1656 133L67 133L67 146L67 146.535L67.4453 146.832L70.4453 148.832L70.5319 148.89L70.6286 148.928L75 150.677Z" fill="#A8A18E" stroke="black" stroke-width="2"/>
<path d="M47.6126 133L38 133L38 147L38 147.162L37.9487 147.316L37 150.162L37 151L45 151L45 150.162L44.0513 147.316L44 147.162L44 147L44 144L44 143.838L44.0513 143.684L47.6126 133Z" fill="#A8A18E" stroke="black" stroke-width="2"/>
<path d="M58 92H39L37 99L33 140H36V141.5L38 144H48L49 138L52.5 106H58V92Z" fill="#735133" stroke="black" stroke-width="2"/>
<path d="M59 100.5L56 102L54 134.5V143H69V140H71L72 115.5L71 92H59V100.5Z" fill="#735133" stroke="black" stroke-width="2"/>
<path opacity="0.3" d="M59 152L76 152L76 154L72 155L68 157.5L68 160L70 160L71 172L60 172L60 156.961L59 152Z" fill="url(#paint0_linear_376_25147)"/>
<path opacity="0.3" d="M46 152L36 152L36 156L37 172L49 172L46 158L46 152Z" fill="url(#paint1_linear_376_25147)"/>
<path d="M60 137.5V139H66V89H46V138.806L58.8242 136.516L60 136.306V137.5Z" fill="url(#paint2_linear_376_25147)" stroke="black" stroke-width="2"/>
<path d="M42 101V138.472L37.6728 136.584L36.2727 135.972V137.5V139H35V97.7019L38.664 89H46V96.1198L42.2526 100.336L42 100.62V101Z" fill="url(#paint3_linear_376_25147)" stroke="black" stroke-width="2"/>
<rect opacity="0.5" width="2" height="2" transform="matrix(-1 0 0 1 49 115)" fill="black"/>
<rect opacity="0.5" width="2" height="2" transform="matrix(-1 0 0 1 49 126)" fill="black"/>
<path d="M68 52H45C40.5817 52 37 55.5817 37 60V77L39 79H72V65L68 52Z" fill="#898989" stroke="black" stroke-width="2"/>
<path d="M70 83H39V79H70V83Z" fill="#4B392C" stroke="black" stroke-width="2"/>
<path d="M70 83H65V79H70V83Z" fill="#4B392C" stroke="black" stroke-width="2"/>
<path d="M70 83H39L37 83.6875L35 94H72V84.375L70 83Z" fill="#4B392C" stroke="black" stroke-width="2"/>
<path d="M70.4865 83H46V88V101H72V85.25L70.4865 83Z" fill="#898989" stroke="black" stroke-width="2"/>
<path d="M37 83H41L39 88V101H34L35.25 86.25L37 83Z" fill="#898989" stroke="black" stroke-width="2"/>
<path d="M48.9343 56.3576C49.51 54.9677 49.8571 53.4962 49.9642 52H44C40.134 52 37 55.134 37 59V64.9642C38.4962 64.8571 39.9677 64.51 41.3576 63.9343C43.0561 63.2307 44.5995 62.1995 45.8995 60.8995C47.1995 59.5995 48.2307 58.0561 48.9343 56.3576Z" fill="black" fill-opacity="0.5" stroke="black" stroke-width="2"/>
<rect width="2" height="4" transform="matrix(-1 0 0 1 65 58)" fill="#D9D9D9"/>
<g opacity="0.4">
<rect width="2" height="4" transform="matrix(-1 0 0 1 68 74)" fill="#D9D9D9"/>
<rect width="2" height="4" transform="matrix(-1 0 0 1 66 70)" fill="#D9D9D9"/>
<rect width="2" height="4" transform="matrix(-1 0 0 1 68 66)" fill="#D9D9D9"/>
<rect width="2" height="4" transform="matrix(-1 0 0 1 64 66)" fill="#D9D9D9"/>
<rect width="2" height="4" transform="matrix(-1 0 0 1 66 62)" fill="#D9D9D9"/>
<rect width="2" height="4" transform="matrix(-1 0 0 1 70 62)" fill="#D9D9D9"/>
<rect width="2" height="4" transform="matrix(-1 0 0 1 62 62)" fill="#D9D9D9"/>
<rect width="2" height="4" transform="matrix(-1 0 0 1 64 74)" fill="#D9D9D9"/>
<rect width="2" height="4" transform="matrix(-1 0 0 1 62 70)" fill="#D9D9D9"/>
<rect width="2" height="4" transform="matrix(-1 0 0 1 70 70)" fill="#D9D9D9"/>
</g>
<g opacity="0.4">
<rect width="2" height="4" transform="matrix(-1 0 0 1 67 96)" fill="#D9D9D9"/>
<rect width="2" height="4" transform="matrix(-1 0 0 1 65 92)" fill="#D9D9D9"/>
<rect width="2" height="4" transform="matrix(-1 0 0 1 67 88)" fill="#D9D9D9"/>
<rect width="2" height="4" transform="matrix(-1 0 0 1 63 88)" fill="#D9D9D9"/>
<rect width="2" height="4" transform="matrix(-1 0 0 1 65 84)" fill="#D9D9D9"/>
<rect width="2" height="4" transform="matrix(-1 0 0 1 69 84)" fill="#D9D9D9"/>
<rect width="2" height="4" transform="matrix(-1 0 0 1 61 84)" fill="#D9D9D9"/>
<rect width="2" height="4" transform="matrix(-1 0 0 1 63 96)" fill="#D9D9D9"/>
<rect width="2" height="4" transform="matrix(-1 0 0 1 61 92)" fill="#D9D9D9"/>
<rect width="2" height="4" transform="matrix(-1 0 0 1 69 92)" fill="#D9D9D9"/>
</g>
<rect opacity="0.5" width="2" height="2" transform="matrix(-1 0 0 1 69 100)" fill="white"/>
<rect opacity="0.5" width="2" height="2" transform="matrix(-1 0 0 1 65 100)" fill="white"/>
<rect opacity="0.5" width="2" height="2" transform="matrix(-1 0 0 1 61 100)" fill="white"/>
<rect opacity="0.5" width="2" height="2" transform="matrix(-1 0 0 1 57 100)" fill="white"/>
<rect opacity="0.5" width="2" height="2" transform="matrix(-1 0 0 1 69 78)" fill="white"/>
<rect opacity="0.5" width="2" height="2" transform="matrix(-1 0 0 1 65 78)" fill="white"/>
<rect opacity="0.5" width="2" height="2" transform="matrix(-1 0 0 1 61 78)" fill="white"/>
<rect opacity="0.5" width="2" height="2" transform="matrix(-1 0 0 1 57 78)" fill="white"/>
<path d="M69 110H65V83H69V110Z" fill="#4B392C" stroke="black" stroke-width="2"/>
<path d="M61.9822 94.2627L58.5181 92.2627L64.0181 82.7364L67.4822 84.7364L61.9822 94.2627Z" fill="#4B392C" stroke="black" stroke-width="2"/>
<path d="M35.5 52L22 68C22 79.3764 30.5276 87.8276 42.5 88L48 70.0001L41 70.0001V63H44V52H35.5Z" fill="#956A2A"/>
<path d="M41 70.0001L48 70.0001L42.5 88C30.5276 87.8276 22 79.3764 22 68L35.5 52H44V63H41V70.0001ZM41 70.0001H33.9999" stroke="black" stroke-width="2"/>
<path d="M36.9999 75.0005L36.9999 69.0002L32.0289 69.0002L34.654 75.0005L36.9999 75.0005Z" fill="#534C42" stroke="black" stroke-width="2"/>
<rect width="2" height="2" transform="matrix(-1 0 0 1 52 68)" fill="black"/>
<rect width="5" height="2" transform="matrix(-1 0 0 1 35 51)" fill="black"/>
<rect width="5" height="2" transform="matrix(-1 0 0 1 32 55)" fill="black"/>
<g filter="url(#filter0_d_376_25147)">
<path d="M55 63H31V63.0282V63.0585V63.0892V63.1204V63.1519V63.1838V63.2162V63.2489V63.2821V63.3156V63.3496V63.3839V63.4186V63.4537V63.4893V63.5252V63.5614V63.5981V63.6352V63.6726V63.7104V63.7486V63.7872V63.8262V63.8655V63.9052V63.9453V63.9858V64.0266V64.0678V64.1094V64.1513V64.1936V64.2363V64.2793V64.3227V64.3664V64.4105V64.455V64.4998V64.5449V64.5904V64.6363V64.6825V64.7291V64.776V64.8232V64.8708V64.9188V64.9671V65.0157V65.0646V65.1139V65.1635V65.2135V65.2638V65.3144V65.3654V65.4166V65.4682V65.5202V65.5724V65.625V65.6779V65.7311V65.7846V65.8385V65.8926V65.9471V66.0019V66.057V66.1124V66.1681V66.2241V66.2805V66.3371V66.394V66.4513V66.5088V66.5666V66.6247V66.6832V66.7419V66.8009V66.8602V66.9197V66.9796V67.0398V67.1002V67.1609V67.2219V67.2832V67.3448V67.4066V67.4688V67.5311V67.5938V67.6567V67.72V67.7834V67.8472V67.9112V67.9755V68.04V68.1048V68.1699V68.2352V68.3008V68.3666V68.4327V68.499V68.5656V68.6325V68.6996V68.7669V68.8345V68.9023V68.9704V69.0387V69.1073V69.176V69.2451V69.3143V69.3838V69.4536V69.5236V69.5938V69.6642V69.7348V69.8057V69.8768V69.9481V70.0197V70.0915V70.1635V70.2357V70.3081V70.3807V70.4536V70.5266V70.5999V70.6734V70.7471V70.821V70.8951V70.9694V71.0439V71.1186V71.1935V71.2686V71.3439V71.4194V71.495V71.5709V71.647V71.7232V71.7997V71.8763V71.9531V72.0301V72.1073V72.1847V72.2622V72.3399V72.4178V72.4959V72.5741V72.6525V72.7311V72.8098V72.8887V72.9678V73.0471V73.1265V73.2061V73.2858V73.3657V73.4457V73.5259V73.6063V73.6868V73.7675V73.8483V73.9292V74.0103V74.0916V74.173V74.2545V74.3362V74.418V74.5V74.5821V74.6643V74.7467V74.8292V74.9118V74.9946V75.0775V75.1605V75.2437V75.3269V75.4103V75.4939V75.5775V75.6612V75.7451V75.8291V75.9132V75.9974V76.0817V76.1662V76.2507V76.3354V76.4201V76.505V76.59V76.675V76.7602V76.8455V76.9308V77.0163V77.1019V77.1875V77.2732V77.3591V77.445V77.531V77.6171V77.7033V77.7895V77.8759V77.9623V78.0488V78.1353V78.222V78.3087V78.3955V78.4824V78.5693V78.6563V78.7434V78.8306V78.9178V79.005V79.0924V79.1798V79.2672V79.3547V79.4423V79.5299V79.6176V79.7053V79.7931V79.8809V79.9688V80.0567V80.1446V80.2326V80.3207V80.4087V80.4969V80.585V80.6732V80.7614V80.8497V80.938V81.0263V81.1147V81.2031V81.2915V81.3799V81.4683V81.5568V81.6453V81.7338V81.8223V81.9109V81.9994V82.088V82.1766V82.2652V82.3538V82.4424V82.531V82.6196V82.7083V82.7969V82.8855V82.9741V83.0627V83.1514V83.24V83.3286V83.4172V83.5057V83.5943V83.6829V83.7714V83.8599V83.9485V84.0369V84.1254V84.2139V84.3023V84.3907V84.4791V84.5674V84.6558V84.744V84.8323V84.9205V85.0087V85.0969V85.185V85.2731V85.3611V85.4491V85.5371V85.625V85.7129V85.8007V85.8885V85.9762V86.0639V86.1515V86.239V86.3265V86.414V86.5014V86.5887V86.676V86.7632V86.8503V86.9374V87.0244V87.1114V87.1982V87.285V87.3717V87.4584V87.545V87.6315V87.7179V87.8042V87.8905V87.9767V88.0628V88.1488V88.2347V88.3205V88.4062V88.4919V88.5775V88.6629V88.7483V88.8335V88.9187V89.0038V89.0887V89.1736V89.2584V89.343V89.4276V89.512V89.5963V89.6805V89.7646V89.8486V89.9325V90.0163V90.0999V90.1834V90.2668V90.3501V90.4332V90.5162V90.5991V90.6819V90.7645V90.847V90.9294V91.0117V91.0938V91.1757V91.2575V91.3392V91.4208V91.5022V91.5834V91.6645V91.7455V91.8263V91.907V91.9875V92.0678V92.148V92.2281V92.308V92.3877V92.4673V92.5467V92.6259V92.705V92.7839V92.8627V92.9412V93.0197V93.0979V93.176V93.2538V93.3316V93.4091V93.4865V93.5636V93.6406V93.7174V93.7941V93.8705V93.9468V94.0228V94.0987V94.1744V94.2499V94.3252V94.4003V94.4752V94.5499V94.6244V94.6987V94.7728V94.8467V94.9204V94.9939V95.0671V95.1402V95.213V95.2857V95.3581V95.4303V95.5023V95.5741V95.6456V95.7169V95.788V95.8589V95.9296V96C31 97.6828 31.7151 99.6586 32.9007 101.745C34.0758 103.813 35.6562 105.891 37.2584 107.755C38.8573 109.615 40.4593 111.24 41.663 112.402C42.2018 112.921 42.6596 113.347 43 113.658C43.3404 113.347 43.7982 112.921 44.337 112.402C45.5407 111.24 47.1426 109.615 48.7416 107.755C50.3438 105.891 51.9242 103.813 53.0993 101.745C54.2849 99.6586 55 97.6828 55 96L55 74.5L55 65.625L55 63Z" fill="#4C8859" stroke="black" stroke-width="2"/>
<rect width="2" height="2" transform="matrix(-1 0 0 1 52 90)" fill="black"/>
<rect opacity="0.5" width="2" height="2" transform="matrix(-1 0 0 1 52 92)" fill="black"/>
<rect opacity="0.2" width="2" height="2" transform="matrix(-1 0 0 1 44 88)" fill="black"/>
<rect opacity="0.5" width="2" height="2" transform="matrix(-1 0 0 1 34 92)" fill="black"/>
<rect width="2" height="2" transform="matrix(-1 0 0 1 44 86)" fill="black"/>
<rect width="2" height="2" transform="matrix(-1 0 0 1 36 66)" fill="black"/>
<rect width="2" height="2" transform="matrix(-1 0 0 1 36 70)" fill="black"/>
<path d="M52 83L47 78L42 83" stroke="black" stroke-width="2"/>
<path d="M52 78L47 73L42 78" stroke="white" stroke-width="2"/>
<path d="M52 88L47 83L42 88" stroke="white" stroke-width="2"/>
<path d="M52 73L47 68L42 73" stroke="black" stroke-width="2"/>
<rect width="2" height="2" transform="matrix(-1 0 0 1 36 90)" fill="black"/>
</g>
<path d="M64.1699 28L47.1699 36L48.6699 51L47.1699 58H64.1699L63.1699 35L68.1699 28H64.1699Z" fill="#393027" stroke="black" stroke-width="2"/>
<path d="M70.1699 55L67.1699 49H62.1699V51L55.1699 49H46.6699L44.1699 54H55.1699L62.1699 61.5V55H70.1699Z" fill="#393027" stroke="black" stroke-width="2"/>
<rect width="2" height="5" transform="matrix(-1 0 0 1 61.1699 37)" fill="black"/>
<rect width="2" height="2" transform="matrix(-1 0 0 1 57.1699 37)" fill="black"/>
<rect width="2" height="2" transform="matrix(-1 0 0 1 54.1699 40)" fill="black"/>
<rect opacity="0.5" width="2" height="2" transform="matrix(-1 0 0 1 61 42)" fill="#491B0D"/>
<rect opacity="0.5" width="4" height="2" transform="matrix(-1 0 0 1 57 44)" fill="#3A0202"/>
<rect opacity="0.5" width="2" height="2" transform="matrix(-1 0 0 1 57 46)" fill="#3A0202"/>
<rect opacity="0.5" width="2" height="2" transform="matrix(-1 0 0 1 61 44)" fill="#3A0202"/>
</g>
<defs>
<filter id="filter0_d_376_25147" x="28" y="62" width="28" height="57" filterUnits="userSpaceOnUse" color-interpolation-filters="sRGB">
<feFlood flood-opacity="0" result="BackgroundImageFix"/>
<feColorMatrix in="SourceAlpha" type="matrix" values="0 0 0 0 0 0 0 0 0 0 0 0 0 0 0 0 0 0 127 0" result="hardAlpha"/>
<feOffset dx="-2" dy="4"/>
<feComposite in2="hardAlpha" operator="out"/>
<feColorMatrix type="matrix" values="0 0 0 0 0 0 0 0 0 0 0 0 0 0 0 0 0 0 0.25 0"/>
<feBlend mode="normal" in2="BackgroundImageFix" result="effect1_dropShadow_376_25147"/>
<feBlend mode="normal" in="SourceGraphic" in2="effect1_dropShadow_376_25147" result="shape"/>
</filter>
<linearGradient id="paint0_linear_376_25147" x1="68" y1="152" x2="68" y2="172" gradientUnits="userSpaceOnUse">
<stop/>
<stop offset="1" stop-opacity="0"/>
</linearGradient>
<linearGradient id="paint1_linear_376_25147" x1="42.5" y1="152" x2="42.5" y2="172" gradientUnits="userSpaceOnUse">
<stop/>
<stop offset="1" stop-opacity="0"/>
</linearGradient>
<linearGradient id="paint2_linear_376_25147" x1="56" y1="88" x2="56" y2="140" gradientUnits="userSpaceOnUse">
<stop stop-color="#735133"/>
<stop offset="1" stop-color="#736533"/>
</linearGradient>
<linearGradient id="paint3_linear_376_25147" x1="38.5" y1="88" x2="38.5" y2="140" gradientUnits="userSpaceOnUse">
<stop stop-color="#735133"/>
<stop offset="1" stop-color="#736533"/>
</linearGradient>
<clipPath id="clip0_376_25147">
<rect width="108" height="172" fill="white"/>
</clipPath>
</defs>
</svg>
