<svg width="108" height="172" viewBox="0 0 108 172" fill="none" xmlns="http://www.w3.org/2000/svg">
<g clip-path="url(#clip0_376_25147)">
<path d="M71 64H59V84H77.5L71 64Z" fill="#3A2E2E" stroke="black" stroke-width="2"/>
<path d="M76 65C76 58.3726 70.6274 53 64 53H59V84.0002L64.5 78.0002L67 78.0002L67 84.0002H72V78.0002L75 78.0002L78 84.0002H83L76 71V65Z" fill="#956A2A" stroke="black" stroke-width="2"/>
<rect width="2" height="5" transform="matrix(4.37114e-08 1 1 -4.37114e-08 73 56)" fill="black"/>
<rect width="2" height="5" transform="matrix(4.37114e-08 1 1 -4.37114e-08 75 60)" fill="black"/>
<rect width="2" height="8" transform="matrix(4.37114e-08 1 1 -4.37114e-08 65 52)" fill="black"/>
<path d="M68 88L75 88.0002V98H68.0001L68 88Z" fill="#282828" stroke="black" stroke-width="2"/>
<path d="M68.0003 89L70 87H75L78 92L76.0001 95.9993L74 92.5L68 95.9993L68.0003 89Z" fill="#282828"/>
<path d="M68.0003 89L70 87H75L78 92L76.0001 95.9993L74 92.5L68 95.9993L68.0003 89Z" fill="white" fill-opacity="0.2"/>
<path d="M68.0003 89L70 87H75L78 92L76.0001 95.9993L74 92.5L68 95.9993L68.0003 89Z" stroke="black" stroke-width="2"/>
<path d="M70 84L75 84.0001V88H70.0001L70 84Z" fill="#282828" stroke="black" stroke-width="2"/>
<path d="M73 149.781L73 151L59 151L59 147.039L59 133L67.847 133L66.0101 145.859L65.9209 146.482L66.4453 146.832L69.4453 148.832L69.5894 148.928L69.7575 148.97L73 149.781Z" fill="black" stroke="black" stroke-width="2"/>
<path d="M45 146L45 145.894L45.0222 145.79L47.763 133L37.9395 133L37 148.031L37 151L45 151L45 146Z" fill="black" stroke="black" stroke-width="2"/>
<path d="M58 92H39L37 99L33 140L35.5 138L36 141.5L38.5 140L48 144L47 141L49 138L52.5 106H58V92Z" fill="#383838" stroke="black" stroke-width="2"/>
<path d="M57 100.5L54 102V134L52.5 137.5L55 143.5L60.5 141L63.5 143L64.5 139.5L67 142V138L69 141L70 115.5L69 92H57V100.5Z" fill="#383838" stroke="black" stroke-width="2"/>
<rect opacity="0.5" x="-1" y="1" width="6" height="8" transform="matrix(-1 0 0 1 45 116)" fill="white" fill-opacity="0.2" stroke="black" stroke-width="2"/>
<rect opacity="0.5" width="2" height="2" transform="matrix(-1 0 0 1 44 114)" fill="black"/>
<rect opacity="0.5" width="2" height="2" transform="matrix(-1 0 0 1 44 126)" fill="black"/>
<path opacity="0.3" d="M58 152L74 152L74 154L70 155L67 158L69 172L58 172L58 156.961L58 152Z" fill="url(#paint0_linear_376_25147)"/>
<path opacity="0.3" d="M46 152L36 152L36 156L37 172L49 172L46 158L46 152Z" fill="url(#paint1_linear_376_25147)"/>
<path d="M68 52H45C40.5817 52 37 55.5817 37 60V77L39 79H72V65L68 52Z" fill="#898989" stroke="black" stroke-width="2"/>
<path d="M70 83H39V79H70V83Z" fill="#4B392C" stroke="black" stroke-width="2"/>
<path d="M70 83H65V79H70V83Z" fill="#4B392C" stroke="black" stroke-width="2"/>
<path d="M70 83H39L37 83.6875L35 94H72V84.375L70 83Z" fill="#4B392C" stroke="black" stroke-width="2"/>
<path d="M70.4865 83H46V88V101H72V85.25L70.4865 83Z" fill="#898989" stroke="black" stroke-width="2"/>
<path d="M37 83H41L39 88V101H34L35.25 86.25L37 83Z" fill="#898989" stroke="black" stroke-width="2"/>
<path d="M48.9343 56.3576C49.51 54.9677 49.8571 53.4962 49.9642 52H44C40.134 52 37 55.134 37 59V64.9642C38.4962 64.8571 39.9677 64.51 41.3576 63.9343C43.0561 63.2307 44.5995 62.1995 45.8995 60.8995C47.1995 59.5995 48.2307 58.0561 48.9343 56.3576Z" fill="black" fill-opacity="0.5" stroke="black" stroke-width="2"/>
<rect width="2" height="4" transform="matrix(-1 0 0 1 65 58)" fill="#D9D9D9"/>
<g opacity="0.4">
<rect width="2" height="4" transform="matrix(-1 0 0 1 68 74)" fill="#D9D9D9"/>
<rect width="2" height="4" transform="matrix(-1 0 0 1 66 70)" fill="#D9D9D9"/>
<rect width="2" height="4" transform="matrix(-1 0 0 1 68 66)" fill="#D9D9D9"/>
<rect width="2" height="4" transform="matrix(-1 0 0 1 64 66)" fill="#D9D9D9"/>
<rect width="2" height="4" transform="matrix(-1 0 0 1 66 62)" fill="#D9D9D9"/>
<rect width="2" height="4" transform="matrix(-1 0 0 1 70 62)" fill="#D9D9D9"/>
<rect width="2" height="4" transform="matrix(-1 0 0 1 62 62)" fill="#D9D9D9"/>
<rect width="2" height="4" transform="matrix(-1 0 0 1 64 74)" fill="#D9D9D9"/>
<rect width="2" height="4" transform="matrix(-1 0 0 1 62 70)" fill="#D9D9D9"/>
<rect width="2" height="4" transform="matrix(-1 0 0 1 70 70)" fill="#D9D9D9"/>
</g>
<g opacity="0.4">
<rect width="2" height="4" transform="matrix(-1 0 0 1 67 96)" fill="#D9D9D9"/>
<rect width="2" height="4" transform="matrix(-1 0 0 1 65 92)" fill="#D9D9D9"/>
<rect width="2" height="4" transform="matrix(-1 0 0 1 67 88)" fill="#D9D9D9"/>
<rect width="2" height="4" transform="matrix(-1 0 0 1 63 88)" fill="#D9D9D9"/>
<rect width="2" height="4" transform="matrix(-1 0 0 1 65 84)" fill="#D9D9D9"/>
<rect width="2" height="4" transform="matrix(-1 0 0 1 69 84)" fill="#D9D9D9"/>
<rect width="2" height="4" transform="matrix(-1 0 0 1 61 84)" fill="#D9D9D9"/>
<rect width="2" height="4" transform="matrix(-1 0 0 1 63 96)" fill="#D9D9D9"/>
<rect width="2" height="4" transform="matrix(-1 0 0 1 61 92)" fill="#D9D9D9"/>
<rect width="2" height="4" transform="matrix(-1 0 0 1 69 92)" fill="#D9D9D9"/>
</g>
<rect opacity="0.5" width="2" height="2" transform="matrix(-1 0 0 1 69 100)" fill="white"/>
<rect opacity="0.5" width="2" height="2" transform="matrix(-1 0 0 1 65 100)" fill="white"/>
<rect opacity="0.5" width="2" height="2" transform="matrix(-1 0 0 1 61 100)" fill="white"/>
<rect opacity="0.5" width="2" height="2" transform="matrix(-1 0 0 1 57 100)" fill="white"/>
<rect opacity="0.5" width="2" height="2" transform="matrix(-1 0 0 1 69 78)" fill="white"/>
<rect opacity="0.5" width="2" height="2" transform="matrix(-1 0 0 1 65 78)" fill="white"/>
<rect opacity="0.5" width="2" height="2" transform="matrix(-1 0 0 1 61 78)" fill="white"/>
<rect opacity="0.5" width="2" height="2" transform="matrix(-1 0 0 1 57 78)" fill="white"/>
<path d="M69 110H65V83H69V110Z" fill="#4B392C" stroke="black" stroke-width="2"/>
<path d="M61.9822 94.2627L58.5181 92.2627L64.0181 82.7364L67.4822 84.7364L61.9822 94.2627Z" fill="#4B392C" stroke="black" stroke-width="2"/>
<path d="M39.5 52C36.9819 52 34.6108 53.1856 33.1 55.2L25 66L22 73C22 73 31.2178 82.7583 48.0003 83L48 70.0001L41 70.0001V63H44V56C44 53.7909 42.2091 52 40 52H39.5Z" fill="#726F5E"/>
<path d="M41 70.0001L48 70.0001L48.0003 83C31.2178 82.7583 22 73 22 73L25 66L33.1 55.2C34.6108 53.1856 36.9819 52 39.5 52H40C42.2091 52 44 53.7909 44 56V63H41V70.0001ZM41 70.0001H33.9999" stroke="black" stroke-width="2"/>
<g filter="url(#filter0_d_376_25147)">
<rect x="-1" y="1" width="8" height="32" transform="matrix(-1 0 0 1 54 58)" fill="#534C42" stroke="black" stroke-width="2"/>
<rect x="-1" y="1" width="8" height="32" transform="matrix(-1 0 0 1 38 58)" fill="#534C42" stroke="black" stroke-width="2"/>
<rect x="-1" y="1" width="8" height="32" transform="matrix(-1 0 0 1 46 58)" fill="#534C42" stroke="black" stroke-width="2"/>
<rect width="2" height="2" transform="matrix(-1 0 0 1 52 63)" fill="black"/>
<rect width="2" height="2" transform="matrix(-1 0 0 1 52 86)" fill="black"/>
<rect opacity="0.5" width="2" height="2" transform="matrix(-1 0 0 1 52 88)" fill="black"/>
<rect opacity="0.2" width="2" height="2" transform="matrix(-1 0 0 1 44 88)" fill="black"/>
<rect opacity="0.2" width="2" height="16" transform="matrix(-1 0 0 1 44 65)" fill="black"/>
<rect opacity="0.5" width="2" height="2" transform="matrix(-1 0 0 1 34 88)" fill="black"/>
<rect width="2" height="2" transform="matrix(-1 0 0 1 44 86)" fill="black"/>
<rect width="2" height="2" transform="matrix(-1 0 0 1 44 63)" fill="black"/>
<rect width="2" height="2" transform="matrix(-1 0 0 1 36 63)" fill="black"/>
<rect width="2" height="2" transform="matrix(-1 0 0 1 36 86)" fill="black"/>
<rect width="6" height="2" transform="matrix(-1 0 0 1 46 69)" fill="#491B0D"/>
<rect width="2" height="13" transform="matrix(-1 0 0 1 44 65)" fill="#491B0D"/>
<rect opacity="0.5" width="2" height="2" transform="matrix(-1 0 0 1 42 71)" fill="#491B0D"/>
</g>
<path d="M64.1699 28L47.1699 36L48.6699 51L47.1699 58H64.1699L63.1699 35L68.1699 28H64.1699Z" fill="#393027" stroke="black" stroke-width="2"/>
<path d="M70.1699 55L67.1699 49H62.1699V51L55.1699 49H46.6699L44.1699 54H55.1699L62.1699 61.5V55H70.1699Z" fill="#393027" stroke="black" stroke-width="2"/>
<rect width="2" height="5" transform="matrix(-1 0 0 1 61.1699 37)" fill="black"/>
<rect width="2" height="2" transform="matrix(-1 0 0 1 57.1699 37)" fill="black"/>
<rect width="2" height="2" transform="matrix(-1 0 0 1 54.1699 40)" fill="black"/>
<rect opacity="0.5" width="2" height="2" transform="matrix(-1 0 0 1 61 42)" fill="#491B0D"/>
<rect opacity="0.5" width="4" height="2" transform="matrix(-1 0 0 1 57 44)" fill="#3A0202"/>
<rect opacity="0.5" width="2" height="2" transform="matrix(-1 0 0 1 57 46)" fill="#3A0202"/>
<rect opacity="0.5" width="2" height="2" transform="matrix(-1 0 0 1 61 44)" fill="#3A0202"/>
</g>
<defs>
<filter id="filter0_d_376_25147" x="28" y="58" width="28" height="36" filterUnits="userSpaceOnUse" color-interpolation-filters="sRGB">
<feFlood flood-opacity="0" result="BackgroundImageFix"/>
<feColorMatrix in="SourceAlpha" type="matrix" values="0 0 0 0 0 0 0 0 0 0 0 0 0 0 0 0 0 0 127 0" result="hardAlpha"/>
<feOffset dx="-2" dy="2"/>
<feComposite in2="hardAlpha" operator="out"/>
<feColorMatrix type="matrix" values="0 0 0 0 0 0 0 0 0 0 0 0 0 0 0 0 0 0 0.25 0"/>
<feBlend mode="normal" in2="BackgroundImageFix" result="effect1_dropShadow_376_25147"/>
<feBlend mode="normal" in="SourceGraphic" in2="effect1_dropShadow_376_25147" result="shape"/>
</filter>
<linearGradient id="paint0_linear_376_25147" x1="66" y1="152" x2="66" y2="172" gradientUnits="userSpaceOnUse">
<stop/>
<stop offset="1" stop-opacity="0"/>
</linearGradient>
<linearGradient id="paint1_linear_376_25147" x1="42.5" y1="152" x2="42.5" y2="172" gradientUnits="userSpaceOnUse">
<stop/>
<stop offset="1" stop-opacity="0"/>
</linearGradient>
<clipPath id="clip0_376_25147">
<rect width="108" height="172" fill="white"/>
</clipPath>
</defs>
</svg>
