<svg width="2000" height="1200" viewBox="0 0 2000 1200" fill="none" xmlns="http://www.w3.org/2000/svg">
<mask id="mask0_376_23907" style="mask-type:alpha" maskUnits="userSpaceOnUse" x="16" y="9" width="1969" height="1185">
<path d="M169 136L47 107H96L82 40L206 58L185 23L314 45L302 23L589 40L603 15L949 45L927 23H1265V45L1443 23V45L1551 9V34L1911 9V69L1973 34L1963 85L1985 69L1973 169L1985 179L1973 452H1985L1963 681L1979 700L1946 730L1985 747L1963 758L1985 774L1953 899L1985 934H1911L1973 1099L1911 1075L1902 1171L1748 1139L1801 1177L1683 1165L1741 1187L1593 1165L1509 1187L1459 1153L1443 1177L1273 1153V1177L1075 1139L1079 1177L1027 1165L969 1194V1177H691V1136L653 1170L531 1131V1187L130 1153L165 1095H93L80 1109V1095L47 1131L139 969L16 1084L93 962L35 995L58 956L24 969L88 566L24 563H50.5L29.4867 371L96 373V360L104 352L16 210L229 192L58 147L169 136Z" fill="white"/>
</mask>
<g mask="url(#mask0_376_23907)">
<rect x="4" y="-193" width="2062" height="1238" fill="#0D0D0D"/>
<rect x="4" y="-180" width="2062" height="1200" fill="url(#paint0_linear_376_23907)"/>
<path opacity="0.1" d="M736.796 304L595.939 312L536 279V250L-8 70V-184L282 -78V-14L450 70V104L583.202 230V208L648.386 196L736.796 211V230H822.21V250L799.733 279L918.112 262H975.055L1029 312V330.5L961.568 392L894.137 370V403L819.213 369.5L736.796 334.5V304Z" fill="black"/>
<path opacity="0.1" d="M736.796 434L620 458L528 400L-20 486L0 224H270L450 292L583.202 368V338L736.796 368L914 418L736.796 434Z" fill="black"/>
<path opacity="0.1" d="M1312.32 295.243L1367.68 265.066L1682 150L1838 -78H2004V223L1709 363.14H1496V431.037H1386.55L1428.06 482H1312.32L1259.48 431.037V326.676L1167.65 379L1123.61 285.184H1067V253L1109 223L1152 242L1167.65 279L1180.23 211H1270L1312.32 295.243Z" fill="black"/>
<path opacity="0.2" d="M896 129L908 58L1234 26L1390 -202H1556V99L1407.5 161.184H1060V202.676H980.065V245.5L858 245.5L834 202.676L756.5 215.269V161.184H675.613L576 174L552 129L634 99H675.613L608 -10L704 -186L896 -202L846 -10L896 129Z" fill="black"/>
<path d="M-48 598L519.5 497L647.25 557L830 458L850 480H876L980 545L1050 497L1134 545L1728 438L2066 526V908H-48V598Z" fill="#232F39"/>
<path d="M4 636.495H519.5L777.25 655.486H1035L1550.5 627H2066V1194H4V636.495Z" fill="url(#paint1_linear_376_23907)"/>
<path opacity="0.5" d="M1163 763.053V800.525H1121H1119.55L1120.07 801.879L1197.05 1004.84L1250.68 1193H982.147L732.144 1118.11L782.908 838.212L870.801 779.969H921.5L921.769 778.005L888.891 768.824L949.048 729.43L949.35 729.232L949.456 728.886L960.74 692H1016.77L1163 763.053Z" fill="#534E3D" stroke="black" stroke-width="2"/>
<path opacity="0.5" d="M1673.16 671.002L1764.53 683.237L1687.96 701.432L1687.19 701.615V702.405V774.506V774.774L1687.33 775.006L1802.81 975.354L1754.52 1041.66H1612.14H1611.62L1611.32 1042.08L1513.68 1181H1358.05L1167.34 862.768L1211.18 775.506H1244.55H1245.55V774.506V756.684V755.93L1244.83 755.722L1057.29 702.02L1068.05 694.455L1151.29 683.96L1673.16 671.002Z" fill="#534E3D" stroke="black" stroke-width="2"/>
<path opacity="0.5" d="M646.03 842.203L702.894 1067.34L589.569 1183.73L78.6828 1194.98L30.4233 1068.57L238.054 1057.36L239.299 1057.29L238.963 1056.09L179.318 842.958H194H194.882L194.992 842.083L210.992 715.136L211.07 714.518L210.55 714.175L166.826 685.394L178.319 677.912L524.942 661.004L858.297 715.991L914.758 730.086L914.912 730.124L915.07 730.113L944 728.073V738.338L869.596 771.222L869.577 771.23L869.559 771.239L727.767 840.958H647H645.716L646.03 842.203Z" fill="#534E3D" stroke="black" stroke-width="2"/>
<path d="M1495.25 547.995L1440.5 485.884L1380.17 479.082L1348.69 565.874L1347.91 568.025L1346.86 565.992L1316.08 506.342L1287.17 573.728L1286.1 576.215L1285.3 573.631L1256.36 480.905L1217.17 573.722L1216.28 575.822L1215.34 573.748L1175.96 487.258L1132.9 573.779L1132.1 575.373L1131.15 573.866L1073 481.466V646H1563V480.448L1496.71 548.034L1495.96 548.801L1495.25 547.995Z" fill="#333435" stroke="black" stroke-width="2"/>
<path d="M1084.11 565.716L1083.11 565.758L1083.07 564.759L1082.9 560.923L1082.86 559.924L1083.86 559.881L1292.67 551.001L1293.67 550.958L1293.71 551.957L1293.88 555.794L1293.92 556.793L1292.92 556.835L1084.11 565.716Z" fill="#1F1F1F" stroke="black" stroke-width="2"/>
<path d="M1203.59 566.639L1202.59 566.681L1202.55 565.682L1202.39 561.846L1202.34 560.847L1203.34 560.804L1292.77 557.001L1293.77 556.958L1293.81 557.958L1293.97 561.794L1294.02 562.793L1293.02 562.835L1203.59 566.639Z" fill="#1F1F1F" stroke="black" stroke-width="2"/>
<path d="M1281 639H1280V638V552V551H1281H1285H1286V552V638V639H1285H1281Z" fill="#1F1F1F" stroke="black" stroke-width="2"/>
<path d="M1263 639H1261.78L1262.02 637.806L1279.02 551.806L1279.18 551H1280H1286H1287.22L1286.98 552.194L1269.98 638.194L1269.82 639H1269H1263Z" fill="#1F1F1F" stroke="black" stroke-width="2"/>
<path d="M1211 639H1210V638V552V551H1211H1216H1217V552V638V639H1216H1211Z" fill="#1F1F1F" stroke="black" stroke-width="2"/>
<path d="M1147 639H1146V638V552V551H1147H1152H1153V552V638V639H1152H1147Z" fill="#1F1F1F" stroke="black" stroke-width="2"/>
<path d="M1097 639H1096.08L1096 638.086L1089 557.086L1088.91 556H1090H1095H1095.92L1096 556.914L1103 637.914L1103.09 639H1102H1097Z" fill="#1F1F1F" stroke="black" stroke-width="2"/>
<path d="M1253.5 619.5L1335 602H1377.5V625.5H1411.5" stroke="black" stroke-width="2"/>
<path d="M856.351 471.893L824.442 561.336L823.564 563.795L822.575 561.379L789.521 480.689L757.931 561.365L757.682 562H757H701H700.235L700.035 561.262L678.362 481.313L647.69 565.874L646.91 568.025L645.861 565.992L615.083 506.342L586.169 573.728L585.102 576.215L584.295 573.631L555.359 480.905L516.171 573.722L515.285 575.822L514.34 573.748L474.96 487.258L431.895 573.779L431.016 575.545L430.111 573.792L403.111 521.458L402.359 520H404H408.353L384.036 473.236L361.589 520H371H372.577L371.904 521.427L351.246 565.237L360.615 572.545L361.197 572.999L360.935 573.689L333.45 646H889V597.128L856.351 471.893Z" fill="#333435" stroke="black" stroke-width="2"/>
<path d="M657 647H803V578.81L730 541.125L657 578.81V647Z" fill="#131415" stroke="black" stroke-width="2"/>
<path d="M336 644H384V610.393L360 592L336 610.393V644Z" fill="#131415"/>
<path d="M957 647H1073V568.423L1015 533.17L957 568.423V647Z" fill="#242527" stroke="black" stroke-width="2"/>
<path d="M746.75 613.5H731.5V631.058L996 646.938V565.417L925.733 525H815.27L746.021 565.4L747.749 612.463L747.787 613.5H746.75Z" fill="#202124" stroke="black" stroke-width="2"/>
<path d="M869.448 642.353L869.993 566H860V646.473L869.448 642.353Z" fill="#1B1C1F" stroke="black" stroke-width="2"/>
<path d="M999 566V560H871.5L867 566H999Z" fill="#1B1C1F" stroke="black" stroke-width="2"/>
<path d="M1002.45 642.353L1002.99 566H993V646.473L1002.45 642.353Z" fill="#1B1C1F" stroke="black" stroke-width="2"/>
<path d="M842 577.363V585.265L928.499 535.135L929 534.844L929.501 535.135L1016 585.265V577.363L929 517.216L842 577.363Z" fill="#121212" stroke="black" stroke-width="2"/>
<path d="M936.5 507.5L928 517V521L942 509.5L936.5 507.5Z" fill="#121212"/>
<path d="M1137.5 336L1129 339L1121.5 345H1127.5L1129 373L1137.5 376L1135 402L1151.5 407.5L1141.5 370.5L1148 353.5L1137.5 336Z" fill="#201F1F" stroke="black" stroke-width="2"/>
<path d="M927.5 521.5L919 512V508L933 519.5L927.5 521.5Z" fill="#121212"/>
<path d="M824 513.907L738 573.363V581.265L824 531.424V513.907Z" fill="#121212" stroke="black" stroke-width="2"/>
<path d="M862 509.907L776 569.363V577.265L862 527.424V509.907Z" fill="#121212" stroke="black" stroke-width="2"/>
<path d="M897 510.907L811 570.363V578.265L897 528.424V510.907Z" fill="#121212" stroke="black" stroke-width="2"/>
<path d="M519.5 655H5V617.137L519.469 633L519.485 633H519.5H782H782.414L782.707 632.707L812.339 603.075L891.826 617.09L891.841 617.093L891.855 617.095L1034.86 637.989L1034.93 638H1035H1171H1171.1L1171.21 637.978L1336.1 603H1376V626V627.016L1377.02 627L2065 616.016V636.034L1550.47 654.001L1550.46 654.001L1550.45 654.001L1035 679.999L519.548 655.001L519.524 655H519.5Z" fill="#2A2A2A" stroke="black" stroke-width="2"/>
<g opacity="0.2">
<rect x="904" y="280" width="2" height="2" fill="#D9D9D9"/>
<rect x="952" y="328" width="2" height="2" fill="#D9D9D9"/>
<rect x="1000" y="376" width="2" height="2" fill="#D9D9D9"/>
<rect x="928" y="376" width="2" height="2" fill="#D9D9D9"/>
<rect x="976" y="424" width="2" height="2" fill="#D9D9D9"/>
<rect x="1024" y="472" width="2" height="2" fill="#D9D9D9"/>
<rect x="1000" y="304" width="2" height="2" fill="#D9D9D9"/>
<rect x="1048" y="352" width="2" height="2" fill="#D9D9D9"/>
<rect x="1096" y="400" width="2" height="2" fill="#D9D9D9"/>
<rect x="1024" y="400" width="2" height="2" fill="#D9D9D9"/>
<rect x="1072" y="448" width="2" height="2" fill="#D9D9D9"/>
<rect x="1120" y="496" width="2" height="2" fill="#D9D9D9"/>
<rect x="928" y="496" width="2" height="2" fill="#D9D9D9"/>
<rect x="976" y="544" width="2" height="2" fill="#D9D9D9"/>
<rect x="1024" y="592" width="2" height="2" fill="#D9D9D9"/>
<rect x="760" y="472" width="2" height="2" fill="#D9D9D9"/>
<rect x="808" y="520" width="2" height="2" fill="#D9D9D9"/>
<rect x="856" y="568" width="2" height="2" fill="#D9D9D9"/>
<rect x="856" y="544" width="2" height="2" fill="#D9D9D9"/>
<rect x="904" y="592" width="2" height="2" fill="#D9D9D9"/>
<rect x="952" y="640" width="2" height="2" fill="#D9D9D9"/>
<rect x="760" y="472" width="2" height="2" fill="#D9D9D9"/>
<rect x="808" y="520" width="2" height="2" fill="#D9D9D9"/>
<rect x="856" y="568" width="2" height="2" fill="#D9D9D9"/>
<rect x="1072" y="568" width="2" height="2" fill="#D9D9D9"/>
<rect x="1120" y="616" width="2" height="2" fill="#D9D9D9"/>
<rect x="1168" y="664" width="2" height="2" fill="#D9D9D9"/>
<rect x="1120" y="328" width="2" height="2" fill="#D9D9D9"/>
<rect x="1168" y="376" width="2" height="2" fill="#D9D9D9"/>
<rect x="1216" y="424" width="2" height="2" fill="#D9D9D9"/>
</g>
<path opacity="0.5" d="M670 732L869.88 739.623V750.295H921.478L933 758.68L717.09 825" stroke="black" stroke-width="2"/>
<path d="M1310.63 654.517L1281 665.202V674H1335V656.907L1310.63 654.517Z" fill="#323730" stroke="black" stroke-width="2"/>
<path d="M1162 739L1184 751L1208 739V729H1175L1162 739Z" fill="#24261F" stroke="black" stroke-width="2"/>
<path d="M1131 749L1153 761L1177 749V739H1144L1131 749Z" fill="#34382C" stroke="black" stroke-width="2"/>
<path d="M1160 757L1182 745L1206 757V767H1173L1160 757Z" fill="#34382C" stroke="black" stroke-width="2"/>
<path opacity="0.5" d="M1317 672.5L1117.5 677.5V684.5H1066L1054.5 690L1270 733.5" stroke="black" stroke-width="2"/>
<path d="M1400 844L1379 1050H1572L1532 824L1379 596L1364 554L1485 390L1563 289L1685 305L1805 224L1685 289L1556 262L1485 351L1523 210L1476.5 150.5L1492 31L1457.5 150.5L1485 210L1329 181L1485 235L1430 371L1342 482L1308 402L1217 254L1211 181L1335 83L1202 175L1156 49L1191 187V235L1083 155L1053 76.5L948 -55L1034 76.5L1053 155L969 136L770 181L969 155L1062 181L1171 262L1260 415L1097 351L1041 254L1083 339H1062L978 224L1055 351L1083 360L1002 398.5L956 477L1015.5 402L1097 371L1201 426L1142.5 442L1041 430L999 450L1038 439L991.5 484.5L1047.5 439L1130.5 452.5L1113.5 473L1050.5 484.5L1015.5 545.5L1055 491.5L1062 516V491.5L1119 482L1152 452.5L1221.5 439L1267 465L1297 622L1354 740L1329 776L1400 844Z" fill="black"/>
<path d="M60.8802 824.88L88.7184 1098H-167.128L-114.103 798.364L88.7184 496.076L108.603 440.392L-51.7983 222.957L-155.198 89.0485L-316.924 110.262L-476 2.87L-316.924 89.0485L-145.918 53.2513L-51.7983 171.25L-102.172 -15.6915L-40.5305 -94.578L-61.0778 -253.014L-15.3435 -94.578L-51.7983 -15.6915L155 -54.1404L-51.7983 17.4541L21.1113 197.766L137.767 344.932L182.838 238.867L303.471 42.6447L311.424 -54.1404L147.046 -184.071L323.355 -62.0953L384.334 -229.149L337.937 -46.1855V17.4541L481.105 -88.6118L520.874 -192.689L546.061 -432V-192.689L520.874 -88.6118L632.227 -113.802L786 -286.159L632.227 -88.6118L508.943 -54.1404L364.45 53.2513L246.468 256.102L462.546 171.25L536.782 42.6447L481.105 155.34H508.943L620.296 2.87L518.223 171.25L481.105 183.182L588.481 234.226L649.46 338.303L570.585 238.867L462.546 197.766L324.681 270.686L402.23 291.899L536.782 275.99L592.458 302.506L540.758 287.922L602.4 348.247L528.165 287.922L418.138 305.821L440.673 333L524.188 348.247L570.585 429.122L518.223 357.528L508.943 390.01V357.528L433.382 344.932L389.637 305.821L297.505 287.922L237.189 322.393L197.42 530.548L121.859 686.995L155 734.724L60.8802 824.88Z" fill="black"/>
<path d="M809.373 718.517L839 729.202V738H785V720.907L809.373 718.517Z" fill="#323730" stroke="black" stroke-width="2"/>
<rect x="731" y="631" width="10" height="44" fill="#121212" stroke="black" stroke-width="2"/>
<rect x="755" y="631" width="10" height="44" fill="#121212" stroke="black" stroke-width="2"/>
<rect x="779" y="631" width="10" height="44" fill="#121212" stroke="black" stroke-width="2"/>
<rect x="803" y="631" width="10" height="44" fill="#121212" stroke="black" stroke-width="2"/>
<rect x="827.898" y="629.517" width="9" height="44" transform="rotate(2.26176 827.898 629.517)" fill="#121212" stroke="black" stroke-width="2"/>
<rect x="849.881" y="630.386" width="10" height="44" transform="rotate(2.26176 849.881 630.386)" fill="#121212" stroke="black" stroke-width="2"/>
<rect x="871.863" y="631.254" width="10" height="44" transform="rotate(2.26176 871.863 631.254)" fill="#121212" stroke="black" stroke-width="2"/>
<rect x="894.846" y="632.162" width="9" height="44" transform="rotate(2.26176 894.846 632.162)" fill="#121212" stroke="black" stroke-width="2"/>
<rect x="720" y="644" width="5.99999" height="196" transform="rotate(-90 720 644)" fill="#121212" stroke="black" stroke-width="2"/>
<rect x="719.922" y="667.063" width="7.99999" height="191" transform="rotate(-88.2391 719.922 667.063)" fill="#121212" stroke="black" stroke-width="2"/>
<path d="M1166 582.6L1170 592.2V686H1162V592.2L1166 582.6Z" fill="#121212" stroke="black" stroke-width="2"/>
<path d="M1182 582.6L1186 592.2V686H1178V592.2L1182 582.6Z" fill="#121212" stroke="black" stroke-width="2"/>
<path d="M1152 582.6L1156 592.2V686H1148V592.2L1152 582.6Z" fill="#121212" stroke="black" stroke-width="2"/>
<path d="M1216 586.6L1212 596.2V690H1220V596.2L1216 586.6Z" fill="#121212" stroke="black" stroke-width="2"/>
<path d="M1200 586.6L1196 596.2V690H1204V596.2L1200 586.6Z" fill="#121212" stroke="black" stroke-width="2"/>
<path d="M1258.78 587.363L1253.19 596.126L1237.08 692.024L1244.82 690.235L1261.07 597.51L1258.78 587.363Z" fill="#121212" stroke="black" stroke-width="2"/>
<rect opacity="0.5" x="1102" y="736" width="2" height="5" fill="black"/>
<rect opacity="0.5" x="1107" y="738" width="2" height="5" fill="black"/>
<rect opacity="0.5" x="1116" y="740" width="2" height="5" fill="black"/>
<rect opacity="0.5" x="1036" y="700" width="2" height="5" fill="black"/>
<rect opacity="0.5" width="2" height="5" transform="matrix(-1 0 0 1 944 708)" fill="black"/>
<rect opacity="0.5" width="2" height="5" transform="matrix(-1 0 0 1 939 710)" fill="black"/>
<rect opacity="0.5" width="2" height="5" transform="matrix(-1 0 0 1 930 712)" fill="black"/>
<rect opacity="0.5" width="2" height="5" transform="matrix(-1 0 0 1 1010 672)" fill="black"/>
<path d="M1039.26 725.806L1045 720L1041.2 740H1019V732.381H1021.67L1022.8 721.613L1025.71 730.968L1028.65 720L1035.42 730.968C1036.48 727.849 1039.26 720 1039.26 720V725.806Z" fill="#B26D2E" stroke="#EBBB40" stroke-width="2"/>
<path d="M1025.2 723.806L1018.96 716.077L1017.07 720.105L1022.03 726.366L1025.2 723.806Z" fill="#0B0B0B" stroke="black" stroke-width="2"/>
<path d="M1016.18 730.065L1010 726L1014.09 740H1038V733.677L1034.23 733.395L1033.91 727.129L1030.78 733.677L1024 719.5L1020.31 733.677C1019.18 731.495 1016.18 726 1016.18 726V730.065Z" fill="#DDB731" stroke="#E97E01" stroke-width="2"/>
<rect x="1041" y="736" width="10" height="6" fill="#222222" stroke="black" stroke-width="2"/>
<rect x="1013.24" y="739.429" width="30" height="3.60611" transform="rotate(-51.0652 1013.24 739.429)" fill="#070707" stroke="black" stroke-width="2"/>
<path opacity="0.4" d="M1091 743C1091 726.026 1084.26 709.747 1072.25 697.745C1060.25 685.743 1043.97 679 1027 679C1010.03 679 993.748 685.743 981.745 697.745C969.743 709.747 963 726.026 963 743L1027 743H1091Z" fill="url(#paint2_radial_376_23907)"/>
<path d="M1038.06 736.858L1031.79 729.099L1029.66 733.39L1034.61 739.642L1038.06 736.858Z" fill="#222222" stroke="black" stroke-width="2"/>
<rect x="1031" y="736" width="10" height="6" fill="#222222" stroke="black" stroke-width="2"/>
<rect x="1005" y="736" width="10" height="6" fill="#222222" stroke="black" stroke-width="2"/>
<rect x="1026" y="740" width="4" height="7" fill="#070707" stroke="black" stroke-width="2"/>
<rect x="1020" y="736" width="4" height="7" fill="#070707" stroke="black" stroke-width="2"/>
<rect x="1014" y="741" width="4" height="4" fill="#070707" stroke="black" stroke-width="2"/>
<rect x="999" y="740" width="8" height="2" fill="#222222" stroke="black" stroke-width="2"/>
<rect x="1048" y="740" width="8" height="2" fill="#222222" stroke="black" stroke-width="2"/>
<rect x="1043" y="742" width="8" height="2" fill="#222222" stroke="black" stroke-width="2"/>
<path d="M935.5 580.105L943 583.635V608H928V583.635L935.5 580.105Z" fill="#121212" stroke="black" stroke-width="2"/>
<rect x="769" y="585" width="15" height="46" fill="#121212" stroke="black" stroke-width="2"/>
<circle opacity="0.2" cx="692" cy="32" r="20" fill="#90EBFF"/>
<path d="M1583 822.852L1655.64 1115.23V1200H2024.06V1156.75L2050 1094.47L1972.17 1156.75L2043.08 1040.84L1887.41 1141.18L1972.17 980.285L1816.5 1130.8L1972.17 883.403L1771.53 1130.8L1854.55 803.821L1733.48 1141.18L1771.53 745L1707.53 1141.18L1693.7 745L1671.21 1094.47L1583 822.852Z" fill="black"/>
<path d="M1440 822.852L1512.64 1115.23V1200H1881.06V1156.75L1907 1094.47L1829.17 1156.75L1900.08 1040.84L1744.41 1141.18L1829.17 980.285L1673.5 1130.8L1829.17 883.403L1628.53 1130.8L1711.55 803.821L1590.48 1141.18L1628.53 745L1564.53 1141.18L1550.7 745L1528.21 1094.47L1440 822.852Z" fill="black"/>
<path d="M535 813.852L607.644 1106.23V1191H976.056V1147.75L1002 1085.47L924.167 1147.75L995.081 1031.84L839.415 1132.18L924.167 971.285L768.5 1121.8L924.167 874.403L723.53 1121.8L806.552 794.821L685.478 1132.18L723.53 736L659.533 1132.18L645.696 736L623.211 1085.47L535 813.852Z" fill="black"/>
<path d="M392 813.852L464.644 1106.23V1191H833.056V1147.75L859 1085.47L781.167 1147.75L852.081 1031.84L696.415 1132.18L781.167 971.285L625.5 1121.8L781.167 874.403L580.53 1121.8L663.552 794.821L542.478 1132.18L580.53 736L516.533 1132.18L502.696 736L480.211 1085.47L392 813.852Z" fill="black"/>
</g>
<defs>
<linearGradient id="paint0_linear_376_23907" x1="1035" y1="-180" x2="1035" y2="1020" gradientUnits="userSpaceOnUse">
<stop stop-color="#334456"/>
<stop offset="1" stop-color="#484B4E"/>
</linearGradient>
<linearGradient id="paint1_linear_376_23907" x1="1035" y1="655.486" x2="1035" y2="1194" gradientUnits="userSpaceOnUse">
<stop stop-color="#43474A"/>
<stop offset="1"/>
</linearGradient>
<radialGradient id="paint2_radial_376_23907" cx="0" cy="0" r="1" gradientUnits="userSpaceOnUse" gradientTransform="translate(1027 743) rotate(90) scale(64)">
<stop stop-color="#FFA800"/>
<stop offset="1" stop-color="#FFA800" stop-opacity="0"/>
</radialGradient>
</defs>
</svg>
