<svg width="312" height="312" viewBox="0 0 312 312" fill="none" xmlns="http://www.w3.org/2000/svg">
<rect width="160" height="180" transform="matrix(1 0 5.51922e-06 1 76.0002 71)" fill="black" fill-opacity="0.1"/>
<path d="M76.0008 164.25L76.0005 119H78.7505L82.5005 116.25L88.0005 117.5L92.0005 119H96.0005L102.5 107L105.5 105L105.5 107L98.5005 121.5H100.001L102.501 123L104.001 125.75H108.001L112.001 127L116.001 129.25L120.001 127L122.751 129.25H125.501L125.501 127L132.001 123H134.251L134.251 125.75H138.001L138.001 123L140.001 121.5L141.501 119L141.5 114L144 108.25L145.25 105L156 108.25L162.75 111L169.501 117.5H172.001L172 115L172 114L172 111H170.75L174.25 107L172 105L170.75 103H177.5L182 101.25L182 105H185.5L185.5 107H188L192 111L196 114L200 115L201.5 111L206.75 114L206.75 111L204 107H208H212L212 104L217.75 103L217.75 101.25H226L228 109L232 114L232 115L236.001 119L236.001 172.75L190.501 188.75L108.001 215L76.0008 164.25Z" fill="url(#paint0_linear_3654_100690)"/>
<path d="M97.0006 146.375L97.0006 144.5C97.7506 143.583 99.7506 141.375 101.751 139.875C103.751 138.375 112.834 136 117.126 135L133.001 131L135.126 138C134.792 137.542 134.151 137.275 134.251 139.875C134.351 142.475 138.876 143.542 141.126 143.75L140.001 146.375L141.126 150.25L141.126 151.625L144.626 153.125H148.001L148.001 162C148.251 163.084 149.251 165.25 151.251 165.25C153.751 165.25 156.001 164.25 157.126 163C158.026 162 158.001 160.584 157.876 160C159.042 159.334 161.676 157.825 162.876 157.125C164.076 156.425 165.126 154.584 165.501 153.75C167.751 153.25 171.226 153.025 167.126 156.125C163.026 159.225 162.584 162.834 162.876 164.25C162.542 164.584 161.501 165.25 160.001 165.25C158.126 165.25 156.001 166.75 156.001 167.75L156.001 171.5C155.542 171.084 153.951 170.4 151.251 171C147.876 171.75 147.126 175.625 148.001 177.375C148.876 179.125 151.626 181 153.626 180.875C155.226 180.775 157.126 179.584 157.876 179L159.001 180.125L159.001 182.25L156.001 184L154.626 185.5C153.584 185.25 151.101 184.75 149.501 184.75C147.501 184.75 145.376 186.375 144.626 187.875C144.026 189.075 144.876 191.125 145.376 192H144.001H141.751L142.501 189.875L141.751 186.375L139.001 184.75L139.001 183L136.001 180.125H133.001C127.751 174.084 116.601 161.6 114.001 160C111.401 158.4 109.501 160.667 108.876 162L118.001 179C117.126 178.792 115.226 178.375 114.626 178.375C113.876 178.375 111.751 178.875 110.126 179C108.826 179.1 102.334 167.709 99.2507 162C97.209 161.042 92.6507 160.15 90.7507 164.25C88.8508 168.35 94.6258 182.542 97.7509 189.125L98.6259 191L95.0009 189.125L93.1259 187.875L92.0008 185.5L90.7508 183C90.7092 181.542 90.5008 178.375 90.0008 177.375C89.5008 176.375 87.9591 175.792 87.2508 175.625L87.2508 171L84.0008 169.25L88.0008 167.75L84.0007 165.875L88.6257 165.25L84.0007 163L88.0007 160C89.084 158.25 91.6257 154.425 93.1257 153.125C94.6257 151.825 97.834 150 99.2506 149.25L97.0006 146.375Z" fill="#AA0404"/>
<path d="M133.001 160L119.251 152.5L119.251 149.25L118.001 148L116.001 148.5L116.001 151L108.876 148.5L108.876 146.375H107.251L107.251 148L104.001 147.5L101.751 148L99.2506 144.5L119.251 139.875L120.001 142H121.876L124.876 147L124.001 148L124.876 148.5L126.251 148L128.126 151.625M90.0007 160.875C90.459 159.958 92.1007 157.925 95.0007 157.125C97.9007 156.325 101.126 156.792 102.376 157.125L104.001 160L106.251 156.125C108.084 155.5 112.601 154.825 116.001 157.125C119.401 159.425 120.084 161.083 120.001 161.625L121.876 160L131.376 165.25M97.0006 144.5L97.0006 146.375L99.2506 149.25C97.834 150 94.6257 151.825 93.1257 153.125C91.6257 154.425 89.084 158.25 88.0007 160L84.0007 163L88.6257 165.25L84.0007 165.875L88.0008 167.75L84.0008 169.25L87.2508 171L87.2508 175.625C87.9591 175.792 89.5008 176.375 90.0008 177.375C90.5008 178.375 90.7092 181.542 90.7508 183L92.0008 185.5L93.1259 187.875L95.0009 189.125L98.6259 191L97.7509 189.125C94.6258 182.542 88.8508 168.35 90.7507 164.25C92.6507 160.15 97.209 161.042 99.2507 162C102.334 167.709 108.826 179.1 110.126 179C111.751 178.875 113.876 178.375 114.626 178.375C115.226 178.375 117.126 178.792 118.001 179L108.876 162C109.501 160.667 111.401 158.4 114.001 160C116.601 161.6 127.751 174.084 133.001 180.125H136.001L139.001 183L139.001 184.75L141.751 186.375L142.501 189.875L141.751 192H144.001H145.376C144.876 191.125 144.026 189.075 144.626 187.875C145.376 186.375 147.501 184.75 149.501 184.75C151.101 184.75 153.584 185.25 154.626 185.5L156.001 184L159.001 182.25L159.001 180.125L157.876 179C157.126 179.584 155.226 180.775 153.626 180.875C151.626 181 148.876 179.125 148.001 177.375C147.126 175.625 147.876 171.75 151.251 171C153.951 170.4 155.542 171.084 156.001 171.5C156.001 170.584 156.001 168.55 156.001 167.75C156.001 166.75 158.126 165.25 160.001 165.25C161.501 165.25 162.542 164.584 162.876 164.25C162.584 162.834 163.026 159.225 167.126 156.125C171.226 153.025 167.751 153.25 165.501 153.75C165.126 154.584 164.076 156.425 162.876 157.125C161.676 157.825 159.042 159.334 157.876 160C158.001 160.584 158.026 162 157.126 163C156.001 164.25 153.751 165.25 151.251 165.25C149.251 165.25 148.251 163.084 148.001 162L148.001 153.125H144.626L141.126 151.625L141.126 150.25L140.001 146.375L141.126 143.75C138.876 143.542 134.351 142.475 134.251 139.875C134.151 137.275 134.792 137.542 135.126 138L133.001 131L117.126 135C112.834 136 103.751 138.375 101.751 139.875C99.7506 141.375 97.7506 143.583 97.0006 144.5Z" stroke="black" stroke-width="2"/>
<path d="M105.126 104.562L105.688 107L97.972 121.109C98.837 121.322 99.5589 121.451 100.001 121.437C102.001 121.375 103.501 122.75 104.313 125C104.963 126.8 104.376 129.75 104.001 131H105.126L106.001 130.375L106.001 131.75L120.451 136.46L121.626 135.937L122.012 136.969L134.188 140.937L136.001 143L140.938 143.625L140.438 145.687L140.438 149.312L125.938 144.875L124.751 140.625L123.126 139.937L122.012 136.969L120.451 136.46L116.001 138.437L109.501 140.312L102.688 138L101.188 138.437L101.188 137L99.5007 135.5L94.2507 133.135C93.5637 133.993 91.8857 135.082 89.7441 136.155L86.943 141.277L79.4383 155L78.9383 157L76.3758 157.312L76.0008 155L77.5008 153.562L85.2072 139.469C84.8992 139.096 84.6341 138.738 84.4206 138.415C77.6525 140.84 70.3727 141.833 72.5632 136.687C75.2506 130.375 82.2452 134.283 82.9382 130.125C83.2381 128.325 82.4966 126.518 82.0883 125.839C80.0205 124.389 77.5947 121.593 80.0006 118.75C81.2368 117.289 82.8057 116.666 84.3268 116.5C86.1892 116.297 87.9799 116.78 89.0006 117.25C89.5066 117.589 90.1256 118.107 90.688 118.75C91.8963 119.204 93.8019 119.881 95.6114 120.442L102.688 107.5L102.688 106.187L105.126 104.562Z" fill="#C4C4C4"/>
<path d="M76.0006 121.437L76.0003 71H112M84.0006 126.632C84.3131 126.673 85.4882 128.775 85.4382 130.375C85.3757 132.375 82.9863 135.555 84.0007 137.687C85.0151 139.82 90.1257 145.312 94.2507 143.875C97.5507 142.725 99.7507 139.271 100.438 137.687M90.688 118.75C91.955 120.2 92.9347 122.291 91.6881 124.437C89.8881 127.537 85.1048 127.021 82.9381 126.375C82.6723 126.226 82.3839 126.047 82.0883 125.839M90.688 118.75C90.1256 118.107 89.5066 117.589 89.0006 117.25C87.1464 116.396 82.7506 115.5 80.0006 118.75C77.5947 121.593 80.0205 124.389 82.0883 125.839M90.688 118.75C93.1255 119.667 98.4006 121.487 100.001 121.437C102.001 121.375 103.501 122.75 104.313 125C104.963 126.8 104.376 129.75 104.001 131M104.001 131H102.001L94.6881 128.25L92.5632 132.375L94.2507 133.135M104.001 131H105.126L106.001 130.375L106.001 131.75L134.188 140.937L136.001 143L140.938 143.625L140.438 145.687L140.438 149.312L125.938 144.875L124.751 140.625L123.126 139.937L121.626 135.937L116.001 138.437L109.501 140.312L102.688 138L101.188 138.437L101.188 137L99.5007 135.5L94.2507 133.135M82.0883 125.839C82.4965 126.518 83.2381 128.325 82.9382 130.125C82.2452 134.283 75.2506 130.375 72.5632 136.687C68.9403 145.197 91.2225 136.916 94.2507 133.135M90.0006 117.25C90.584 116.292 92.1006 114.5 93.5006 115C94.9006 115.5 96.3756 116.708 96.9381 117.25C95.9798 115.958 93.4756 113.387 91.1256 113.437C88.7756 113.487 85.7226 115.625 84.3268 116.5M105.126 104.562L105.688 107L79.4383 155L78.9383 157L76.3758 157.312L76.0008 155L77.5008 153.562L102.688 107.5L102.688 106.187L105.126 104.562Z" stroke="black" stroke-width="2"/>
<path d="M76.0005 121.75L76.0012 251H160.001M164.001 251H168.001L168.001 247H172.001L172.001 251H176.001L176.001 247H180.001L180.001 251H184.001L184.001 247H188.001L188.001 251H192.001L192.001 247H196.001L196.001 251" stroke="black" stroke-width="2"/>
<path d="M236 111L236 71H200" stroke="black" stroke-width="2"/>
<path d="M236.001 141.5L236.001 251H200.001" stroke="black" stroke-width="2"/>
<path d="M239.126 156.5L232.126 148.625L216.251 151.25L214.876 169.875C224.501 179.5 225.376 154.375 239.126 156.5Z" fill="#C4C4C4"/>
<path d="M219.626 163L219.626 165.312H217.501M232.126 148.625L239.126 156.5C225.376 154.375 224.501 179.5 214.876 169.875L216.251 151.25L232.126 148.625Z" stroke="black" stroke-width="2"/>
<path d="M215.376 170.375C216.076 174.975 220.668 180.708 222.876 183C186.001 203.75 135.681 164.4 179.376 149.375C182.876 137.125 189.365 120.25 206.876 120.25C211.576 120.25 214.917 124.75 216.001 127L220.001 128.125L222.876 131L225.001 135L225.001 139L228.001 141.25C229.209 141.833 232.351 143.375 235.251 144.875C238.151 146.375 239.626 151.167 240.001 153.375C239.501 151.708 237.576 148.4 233.876 148.5C223.789 148.773 213.875 160.516 215.376 170.375Z" fill="#C4C4C4" stroke="black" stroke-width="2"/>
<path d="M213.574 133.298C212.704 132.963 210.746 132.495 209.875 133.298C209.005 134.101 208.787 136.197 208.787 137.145" stroke="black" stroke-width="2"/>
<path d="M221.751 132.125C221.751 132.125 220.357 129.878 218.626 130.5C217.683 130.839 217.376 132.125 217.376 132.125" stroke="black" stroke-width="2"/>
<path d="M221.001 136.375C219.251 136.375 218.251 135 218.251 135C218.251 135 216.626 136.375 217.501 139M210.438 124.25H212.001L210.126 123H206.438L207.688 124.625L204.813 125.5L203.063 123.375L200.063 124.625L202.501 127L200.563 128.312L198.751 130.375L197.438 128.812L198.751 127.625L196.751 125.875L193.376 129.125L196.751 133L194.501 135.875L192.126 134.5L193.376 133L191.313 131.625L189.063 135L192.626 138.125L190.251 141.625L190.251 139L187.376 137.625L186.126 140.125L188.751 145.125L187.376 148L184.376 143.187L183.001 147L182.063 150L183.876 151.562L187.813 154.437" stroke="black" stroke-width="2"/>
<path d="M226.251 140.5C222.594 137.919 218.34 142.329 217.001 145.625L212.001 141.5L207.251 142.25C197.489 138.589 199.251 128.958 210.126 127C214.362 126.237 219.751 128.875 220.251 128.959" stroke="black" stroke-width="2"/>
<path d="M201.001 133.5C194.751 138.25 189.626 148.75 187.376 155.75C162.501 155.75 173.025 185.05 203.001 179C213.901 176.8 214.293 170.083 213.126 167M208.001 171.812L207.438 173.687L205.313 173.187M198.501 172.812L197.688 174.312L196.001 173.687" stroke="black" stroke-width="2"/>
<path d="M221.001 148.454C221.542 147.246 223.226 144.579 225.626 143.579C228.026 142.579 230.292 142.746 231.126 142.954M215.751 149.125C215.751 149.125 212.001 146.5 208.126 146.375C204.251 146.25 198.701 147.35 196.001 152.25C193.301 157.15 188.751 159.375 185.126 161.875C192.001 161.875 195.276 161.725 196.876 161.125C198.476 160.525 201.792 156.792 202.251 155L198.751 163.125C202.501 161.5 205.026 161.35 206.126 160.25C207.226 159.15 208.834 156.583 209.001 155L209.001 161.875C210.626 160.625 214.001 157.85 214.001 155.75C214.001 153.65 217.751 159.625 220.001 151.5M187.126 158.25C184.579 171.75 206.842 170.443 214.001 167.625" stroke="black" stroke-width="2"/>
<path d="M170.782 178.7L173.266 176.316L172.688 174.03L175.385 174.566L177.257 173.141L178.971 174.806L177.143 176.348L177.744 178.425L175.101 178.036L172.263 180.451" stroke="black" stroke-width="2"/>
<path d="M184.737 187.085L185.942 183.86L184.431 182.051L187.094 181.366L188.164 179.27L190.431 180.028L189.451 182.21L190.892 183.821L188.342 184.615L186.83 188.022" stroke="black" stroke-width="2"/>
<path d="M162.739 164.706L166.978 163.862L168.001 161.739L169.726 163.88L173.258 164.287L173.505 166.664L169.931 166.375L169.06 168.354L167.282 166.36L162.751 167" stroke="black" stroke-width="2"/>
<path d="M196.75 108.125C195.05 112.425 200 115 200 115C200 115 198.12 114.455 196 113.191C194.617 112.367 193.132 111.236 192 109.75C191.01 108.45 190.25 106.942 189.703 105.29C184.783 99.9945 177.452 93.4994 168 88.1249L188.61 97.6785C188.624 95.9659 188.787 94.2108 189.086 92.4579C181.534 89.205 175.374 85.4629 172 82.9999C176.969 84.9912 182.412 87.718 189.579 90.0692C190.127 87.8071 190.897 85.5834 191.862 83.4966C191.225 82.7746 190.55 82.1152 189.875 81.6249C187.675 80.0249 184.459 79.2082 183.125 78.9999C188.75 59 209.197 57.0444 221 63.9999C226.6 67.2999 228 74.5049 228 77.6949C229.519 79.2641 230.842 81.0077 232 82.8383C233.563 85.3073 234.826 87.9344 235.867 90.5046C236.529 88.5768 235.566 86.4645 234.375 85.1249L245.25 89.1249L241.875 97.75C241.412 97.9948 240.374 98.2938 238.63 98.5634C240.015 102.826 241.585 105.031 242.973 106.142C245.07 107.819 246.75 107 246.75 107L237.375 116.875C236.526 116.234 235.385 115.356 234.188 114.405C231.57 112.327 228.687 109.904 228 108.875C227 107.375 225.917 102.917 225.5 100.875L206.75 99.2499C204.542 100.208 198.45 103.825 196.75 108.125Z" fill="#D9EFFF"/>
<path d="M245.25 104L232.625 115.875L238.375 120.375L249.375 108.875M205.5 90.9999L205.5 89.6249L205.5 88.1249M228 91.9999L226.75 90.9999L226.75 89.1249M216.875 92.6249L216.25 91.9999L216.25 89.1249M196 113.191C194.617 112.367 193.132 111.236 192 109.75C183.707 98.8596 191.553 73.3492 205.5 71C215.872 69.2531 222.999 72.5277 228 77.6949M196 113.191C198.12 114.455 200 115 200 115C200 115 195.05 112.425 196.75 108.125C198.45 103.825 204.542 100.208 206.75 99.2499L225.5 100.875C225.917 102.917 227 107.375 228 108.875C229 110.375 234.667 114.833 237.375 116.875L246.75 107C246.75 107 241.875 109.375 238.375 97.75C237.03 93.2807 235.106 87.747 232 82.8383M196 113.191C195.5 112.044 194.3 109.2 193.5 107C192.7 104.8 192.167 100.917 192 99.2499L168 88.1249C183.3 96.8249 193.042 108.461 196 113.191ZM232 82.8383C226.75 87.3749 216.875 88.1249 209.334 86.3749C211.322 78.9181 194.672 78.6124 195.125 88.1249C194.292 86.6249 192.075 83.2249 189.875 81.6249C187.675 80.0249 184.459 79.2082 183.125 78.9999C188.75 59 209.197 57.0444 221 63.9999C226.6 67.2999 228 74.5049 228 77.6949M232 82.8383C230.842 81.0077 229.519 79.2641 228 77.6949M172 82.9999C178.792 87.9582 196.875 98.0999 214.875 98.9999C232.875 99.8999 240.375 98.5416 241.875 97.75L245.25 89.1249L234.375 85.1249C237.042 88.1249 238.566 94.9999 223.25 94.9999C195.621 94.9999 182.709 87.2915 172 82.9999Z" stroke="black" stroke-width="2"/>
<path d="M132.001 180L132.001 182.562H130.438L129.751 187L132.001 189L134.313 187L133.688 182.562H132.376M140.001 159.5H139.188L139.188 157.187H142.063L142.063 159.875H143.376L145.188 160.562L145.438 162.312L147.376 161.937L146.938 159L148.501 156.812L150.376 155.875L149.563 153.375L147.688 155H145.813L145.188 156.437L141.188 155L138.501 154.375L136.001 154.687L134.938 153.375H133.688L134.938 151L133.313 148.937L132.376 147L131.188 147.5L130.438 148.937L128.001 149.687L128.001 151.687L126.313 153L127.188 155.562L130.063 155.312L131.188 153.875L131.188 157.187L132.376 157.937L133.001 160.562L135.251 161.062L136.376 159.5L138.126 160.312M137.751 163C136.709 162.916 134.438 162.912 133.688 163.562C132.938 164.212 132.001 164.083 131.626 163.937L132.001 165.687L131.188 166.625L128.376 167L130.063 168.937L129.751 172.187L128.001 173.312L129.751 173.75L131.626 175.75L130.063 179.312L133.313 176.5L137.001 177L137.751 179.312L138.501 176.5L140.688 174.562L143.376 175L142.063 172.625L143.376 170.375L144.813 169.312L142.688 168.375C142.522 167.375 142.038 165.262 141.438 164.812C140.838 164.362 141.605 163.792 142.063 163.562L141.438 162.312L142.063 161.437L140.688 160.562L139.188 161.437H138.126L137.751 163ZM136.376 172.625L139.188 168.375L134.938 166L132.376 169.875L136.376 172.625Z" stroke="black" stroke-width="2"/>
<path d="M175.625 108.119L179.677 111.157L181.5 106.701L177.955 103.155L175.625 108.119Z" stroke="black" stroke-width="2"/>
<path d="M176 107C174.896 107.75 172.55 109.6 172 111C168.537 119.815 182.436 124.855 188.438 120.437C192.038 117.787 192.884 113.202 190.5 109.625M190.5 109.625C188.902 107.226 189.438 112.812 184 112.812M190.5 109.625C190.5 109.625 189.006 107.516 187.688 107C186.551 106.555 184.875 107 184.875 107" stroke="black" stroke-width="2"/>
<path d="M178.313 103.539C178.448 102.59 182.003 99.5532 182.003 99.5532C182.003 99.5532 182.085 103.024 180.783 104.922C181.109 104.054 185.908 104.922 185.908 104.922C185.908 104.922 184.2 109.151 181.271 109.965C182.681 109.395 186.396 112.161 186.396 112.161C186.396 112.161 182.573 114.113 180.214 113.137C180.973 112.595 181.776 111.917 178.912 113.544C176.049 115.171 173.563 115.062 173.563 115.062L176.879 111.104C176.065 111.483 170.25 110.687 170.25 110.687C170.25 110.687 173.462 107.958 175.008 106.955C173.652 106.521 171.188 103.539 171.188 103.539C171.188 103.539 175.387 102.834 176.879 103.539" stroke="black" stroke-width="2"/>
<path d="M242.751 131L240.949 131.807C246.626 138.187 237.938 136.625 237.938 136.625C237.938 136.625 237.188 141.5 235.688 141.562C234.188 141.625 231.376 143.437 231.126 143C230.926 142.65 229.251 141.312 228.438 140.687C229.042 140.271 230.138 139.187 229.688 138.187C229.238 137.187 228.667 136.979 228.438 137L225.563 138.562L225.563 135C226.146 134.771 227.313 134.087 227.313 133.187C227.313 132.287 225.313 132.562 224.313 132.812L223.126 131L224.751 129.438C224.646 128.292 225.013 125.863 227.313 125.313C229.613 124.763 230.896 127.208 231.126 127.437L235.313 125.875L232.563 123C233.313 122.75 236.177 121.5 238.563 123C240.949 124.5 239.662 126.567 239.773 127.976L242.751 131Z" fill="#FFD464"/>
<path d="M239.773 127.976L238.813 127L230.188 130.438L233.813 135L242.751 131L239.773 127.976ZM239.773 127.976C239.662 126.567 240.949 124.5 238.563 123C236.177 121.5 233.313 122.75 232.563 123L235.313 125.875L231.126 127.437C230.896 127.208 229.613 124.763 227.313 125.313C225.013 125.863 224.646 128.292 224.751 129.438L223.126 131L224.313 132.812C225.313 132.562 227.313 132.287 227.313 133.187C227.313 134.087 226.146 134.771 225.563 135L225.563 138.562L228.438 137C228.667 136.979 229.238 137.187 229.688 138.187C230.138 139.187 229.042 140.271 228.438 140.687C229.251 141.312 230.926 142.65 231.126 143C231.376 143.437 234.188 141.625 235.688 141.562C237.188 141.5 237.938 136.625 237.938 136.625C237.938 136.625 246.626 138.187 240.949 131.807" stroke="black" stroke-width="2"/>
<path d="M76.0009 185.75L105.251 229.5L249.251 179L241.001 171L190.751 188.25L108.001 215L76.0008 164.75L76.0009 185.75Z" fill="#C4C4C4"/>
<path d="M76.0005 120L184 91M228.75 78.5L236 76.25M105.251 123L141.25 113.25M158.5 108.25L172 105.25M104.751 127L107.126 126.25H111.126L114.751 129.5L117.001 128.125L120.001 127L123.376 129.5H126.126L126.126 127L129.251 124.5L132.501 123L134.626 123.875L134.626 126.25H137.376L137.376 123.875L140.001 120.75H141.251M76.0005 113.25L190.75 83M76.0004 100.25L182 73.5L182 71H136L136 81.9375L132.5 83L132.5 71H128L128 83.875L124 84.875L124 71H120L120 85.75L116 86.8125L116 71H113M104.001 200.5L105.251 191L111.126 188.25L150.501 193L152.001 197.5L150.501 200.5M105.251 229.5L76.0009 185.75L76.0008 164.75L108.001 215L190.751 188.25L241.001 171L249.251 179L105.251 229.5Z" stroke="black" stroke-width="2"/>
<path d="M80.0004 99L80.0004 112.375" stroke="black" stroke-width="2"/>
<path d="M84.0004 99L84.0004 111" stroke="black" stroke-width="2"/>
<path d="M88.0004 97L88.0004 110.375" stroke="black" stroke-width="2"/>
<path d="M92.0004 95.6875L92.0004 109.375" stroke="black" stroke-width="2"/>
<path d="M96.0004 95L96.0004 108.5" stroke="black" stroke-width="2"/>
<path d="M100 94.5312L100 107" stroke="black" stroke-width="2"/>
<path d="M104 93.375L104 105.875" stroke="black" stroke-width="2"/>
<path d="M108 92.3125L108 105" stroke="black" stroke-width="2"/>
<path d="M112 91.3086L112 111" stroke="black" stroke-width="2"/>
<path d="M116 90.3638L116 109.375" stroke="black" stroke-width="2"/>
<path d="M120 89L120 101.25" stroke="black" stroke-width="2"/>
<path d="M124 88.375L124 101.154" stroke="black" stroke-width="2"/>
<path d="M128 87.1553L128 99.8694" stroke="black" stroke-width="2"/>
<path d="M132 85.75L132 99" stroke="black" stroke-width="2"/>
<path d="M136 85.25L136 97.625" stroke="black" stroke-width="2"/>
<path d="M140 83.8691L140 97" stroke="black" stroke-width="2"/>
<path d="M144 83L144 95.6875" stroke="black" stroke-width="2"/>
<path d="M148 81.625L148 94.5312" stroke="black" stroke-width="2"/>
<path d="M152 81.3438L152 93.5123" stroke="black" stroke-width="2"/>
<path d="M156 80.0781L156 92.3125" stroke="black" stroke-width="2"/>
<path d="M160 79L160 91.4375" stroke="black" stroke-width="2"/>
<path d="M164 78.5312L164 90.4346" stroke="black" stroke-width="2"/>
<path d="M168 77.2188L168 89.3437" stroke="black" stroke-width="2"/>
<path d="M172 76.3125L172 88.0781" stroke="black" stroke-width="2"/>
<path d="M176 74.1953L176 87.1553" stroke="black" stroke-width="2"/>
<path d="M180 73.3438L180 87" stroke="black" stroke-width="2"/>
<path d="M170.814 184C174.164 183.952 176.376 187.361 177.064 189.071C175.98 190.881 173.051 194.5 170.001 194.5C166.188 194.5 163.626 190.324 163.439 188.713C163.251 187.102 166.626 184.06 170.814 184Z" fill="white"/>
<path d="M164.751 149.5L164.001 146.562L160.001 144.875L158.438 145.687L155.063 149.875L155.376 152.75L158.438 154.437L161.438 153.812L164.751 149.5Z" fill="white"/>
<path d="M168.938 138.5L168.001 140.937L169.313 143.437H172.376L178.126 139.437L178.751 136.687L176.938 135L173.938 135.312L168.938 138.5Z" fill="white"/>
<path d="M147.063 138.5L150.438 135.937L150.438 133.937L148.001 132.312L146.063 132.625L143.313 134.5L142.813 136.687L144.626 138.5H147.063Z" fill="white"/>
<path d="M158.063 134.5H164.751L168.001 136.437L167.563 140.375L164.501 141.812H158.063L155.376 139.437L155.376 136.687L158.063 134.5Z" fill="white"/>
<path d="M175.251 130.687L174.938 128.812L176.188 127.5L177.688 126.625L183.001 127L184.876 128.312L184.876 131L183.001 132.625L177.251 132.312L175.251 130.687Z" fill="white"/>
<path d="M208.501 116.562L206.438 115L206.063 112.25L206.138 112.165L206.869 111.34L208 110.062H211.125L214.438 112.25L215.126 115L213.376 117.25L210.688 117.687L208.501 116.562Z" fill="white"/>
<path d="M222.876 119L225.813 117.25L229.813 117.687L233.876 121.375L232.001 124.437L228.001 125.187L224.876 124.437L222.251 121.375L222.876 119Z" fill="white"/>
<path d="M199.626 114.625C199.626 114.325 199.625 112.542 199.625 111.687L201.438 110.062L205.188 112.625L207.125 111.687L205.188 109.062L205.188 107L208.5 105.875L212.375 106.375L212.375 104.062L215.438 102.625L217.375 102.312L217.375 101.187L221.563 100.312M177.064 189.071C176.376 187.361 174.164 183.952 170.814 184C166.626 184.06 163.251 187.102 163.439 188.713C163.626 190.324 166.188 194.5 170.001 194.5C173.051 194.5 175.98 190.881 177.064 189.071ZM164.001 146.562L164.751 149.5L161.438 153.812L158.438 154.437L155.376 152.75L155.063 149.875L158.438 145.687L160.001 144.875L164.001 146.562ZM168.001 140.937L168.938 138.5L173.938 135.312L176.938 135L178.751 136.687L178.126 139.437L172.376 143.437H169.313L168.001 140.937ZM150.438 135.937L147.063 138.5H144.626L142.813 136.687L143.313 134.5L146.063 132.625L148.001 132.312L150.438 133.937L150.438 135.937ZM164.751 134.5H158.063L155.376 136.687L155.376 139.437L158.063 141.812H164.501L167.563 140.375L168.001 136.437L164.751 134.5ZM174.938 128.812L175.251 130.687L177.251 132.312L183.001 132.625L184.876 131L184.876 128.312L183.001 127L177.688 126.625L176.188 127.5L174.938 128.812ZM208.501 116.562L206.438 115L206.063 112.25L208 110.062H211.125L214.438 112.25L215.126 115L213.376 117.25L210.688 117.687L208.501 116.562ZM225.813 117.25L222.876 119L222.251 121.375L224.876 124.437L228.001 125.187L232.001 124.437L233.876 121.375L229.813 117.687L225.813 117.25Z" stroke="black" stroke-width="2"/>
<path d="M144.001 130.25C140.076 131.274 140.206 105.875 145.626 105.875C145.765 105.875 145.9 105.906 146.031 105.966L146.074 105.976C149.253 106.688 155.207 107.922 158.967 108.887C159.334 108.981 159.68 109.073 160 109.161C161.01 109.439 161.766 109.685 162.125 109.875C162.746 110.203 163.174 110.926 163.467 111.841C165.145 113.144 168.65 115.925 169.25 116.625C169.415 116.817 169.5 117.187 169.5 117.187C169.5 117.187 176.188 117.469 178.875 117.644C179.782 112.875 182.188 110.094 183.063 110.094C183.938 110.094 184.873 116.092 184.438 120.625C184.001 125.187 181.844 129.344 181.188 129.344C180.532 129.344 178.719 126.25 178.719 121.375C176.657 121.375 169.251 121.062 169.251 121.062C169.251 121.062 169.306 121.438 169.251 121.75L162.8 125.217C162.603 125.661 162.379 126.022 162.126 126.25C161.818 126.526 161.333 126.922 159.688 127.312C154.638 128.511 144.733 129.936 144.733 129.936C144.501 130.077 144.257 130.183 144.001 130.25Z" fill="#FFE27A"/>
<path d="M145.626 105.875C140.206 105.875 140.076 131.274 144.001 130.25C144.257 130.183 144.501 130.077 144.733 129.936M145.626 105.875C149.233 105.875 149.925 126.777 144.733 129.936M145.626 105.875C148.662 106.566 155.022 107.874 158.967 108.887M145.626 105.875L158.967 108.887M144.733 129.936C144.733 129.936 154.638 128.511 159.688 127.312M163.467 111.841C163.174 110.926 162.746 110.203 162.125 109.875C161.766 109.685 161.01 109.439 160 109.161M163.467 111.841C164.177 114.059 164.089 117.407 164 119C163.921 120.434 163.571 123.472 162.8 125.217M163.467 111.841C165.145 113.144 168.65 115.925 169.25 116.625C169.415 116.817 169.5 117.187 169.5 117.187M162.8 125.217C162.603 125.661 162.379 126.022 162.126 126.25C161.818 126.526 161.333 126.922 159.688 127.312M162.8 125.217L169.251 121.75C169.306 121.438 169.251 121.062 169.251 121.062M169.5 117.187C169.5 117.187 176.188 117.469 178.875 117.644C179.782 112.875 182.188 110.094 183.063 110.094C183.938 110.094 184.873 116.092 184.438 120.625C184.001 125.187 181.844 129.344 181.188 129.344C180.532 129.344 178.719 126.25 178.719 121.375C176.657 121.375 169.251 121.062 169.251 121.062M169.5 117.187L169.251 121.062M158.967 108.887C159.334 108.981 159.68 109.073 160 109.161M159.688 127.312L156.751 123.437L160.313 120.625L157.188 117.644L160 114.812C159.25 113.937 157.188 111.841 157.188 111.841L160 109.161" stroke="black" stroke-width="2"/>
<path d="M64.0007 187L44.0007 187L44.0004 203L52.0003 211.5L44.0002 219L44 235L54 235L64 235L64.0007 187Z" fill="#ADA577"/>
<path d="M64.0007 187L44.0007 187L44.0004 203L52.0003 211.5L44.0002 219L44 235L54 235L64 235L64.0007 187Z" fill="black" fill-opacity="0.2"/>
<path d="M64.0007 187L44.0007 187L44.0004 203L52.0003 211.5L44.0002 219L44 235L54 235L64 235L64.0007 187Z" stroke="black" stroke-width="2"/>
<path d="M56.0001 195L64.0002 187L64.0001 195L56.0001 195Z" fill="black" fill-opacity="0.38" stroke="black" stroke-width="2" stroke-linejoin="bevel"/>
<path d="M248 187L268 187L268 203L260.001 211.5L268.001 219L268.001 235L258.001 235L248.001 235L248 187Z" fill="#ADA577"/>
<path d="M248 187L268 187L268 203L260.001 211.5L268.001 219L268.001 235L258.001 235L248.001 235L248 187Z" fill="black" fill-opacity="0.2"/>
<path d="M248 187L268 187L268 203L260.001 211.5L268.001 219L268.001 235L258.001 235L248.001 235L248 187Z" stroke="black" stroke-width="2"/>
<path d="M256.002 195L248.002 187L248.002 195L256.002 195Z" fill="black" fill-opacity="0.38" stroke="black" stroke-width="2" stroke-linejoin="bevel"/>
<path d="M255.99 194.977L55.9904 194.977L55.9897 242.977L255.99 242.977L255.99 194.977Z" fill="#ADA577" stroke="black" stroke-width="2"/>
<path d="M72.2793 228.452L74.4753 227.696L74.4755 210.56L72.2795 209.804L72.2795 208.256L80.7035 208.256L80.7035 209.984L78.3635 210.776L78.3634 217.724L86.1394 217.724L86.1395 210.776L83.8355 209.984L83.8355 208.256L92.2595 208.256L92.2595 209.804L90.0275 210.56L90.0273 227.696L92.2593 228.452L92.2592 230L83.8352 230L83.8353 228.2L86.1393 227.48L86.1394 219.884L78.3634 219.884L78.3633 227.48L80.7033 228.2L80.7032 230L72.2792 230L72.2793 228.452ZM97.5453 230.36C97.4013 230.36 97.1133 230.168 96.6813 229.784C96.2493 229.376 96.0333 229.112 96.0333 228.992L96.0335 215.996L94.7015 215.564L94.7016 214.052C96.8616 213.668 98.0616 213.476 98.3016 213.476C98.4456 213.476 98.7216 213.668 99.1296 214.052C99.5375 214.412 99.7415 214.676 99.7415 214.844L99.7414 227.804L101.037 228.2L101.037 229.712C98.9493 230.144 97.7853 230.36 97.5453 230.36ZM95.7817 206.78L98.9137 206.6L99.5256 207.428L99.3096 210.668L96.0696 210.668L95.7817 206.78ZM109.149 230.36C108.117 230.36 107.157 230.072 106.269 229.496C105.405 228.92 104.709 228.056 104.181 226.904C103.653 225.752 103.389 224.348 103.389 222.692C103.389 221.492 103.473 220.4 103.641 219.416C103.809 218.408 104.025 217.628 104.289 217.076C104.697 216.524 105.597 215.78 106.989 214.844C108.405 213.908 109.341 213.44 109.797 213.44C110.253 213.44 111.225 213.56 112.713 213.8L112.713 209.264L111.381 208.76L111.381 207.248C113.709 206.84 114.981 206.636 115.197 206.636C115.317 206.636 115.557 206.816 115.917 207.176C116.301 207.512 116.493 207.752 116.493 207.896L116.313 214.556L116.313 227.696L117.573 228.2L117.573 229.748C115.389 230.156 114.177 230.36 113.937 230.36C113.841 230.36 113.601 230.18 113.217 229.82C112.857 229.46 112.677 229.22 112.677 229.1L112.677 227.804C112.365 228.02 112.089 228.236 111.849 228.452C111.633 228.62 111.153 228.98 110.409 229.532C109.689 230.084 109.269 230.36 109.149 230.36ZM109.545 227.444C109.761 227.444 110.769 227 112.569 226.112L112.569 216.428C111.873 216.212 111.105 216.008 110.265 215.816C109.449 215.624 108.909 215.564 108.645 215.636C108.213 215.732 107.889 216.272 107.673 217.256C107.457 218.24 107.349 219.884 107.349 222.188C107.349 223.34 107.469 224.312 107.709 225.104C107.973 225.896 108.273 226.484 108.609 226.868C108.969 227.252 109.281 227.444 109.545 227.444ZM125.708 230.36C124.676 230.36 123.716 230.072 122.828 229.496C121.964 228.92 121.268 228.056 120.74 226.904C120.212 225.752 119.948 224.348 119.948 222.692C119.948 221.492 120.032 220.4 120.2 219.416C120.368 218.408 120.584 217.628 120.848 217.076C121.256 216.524 122.156 215.78 123.548 214.844C124.964 213.908 125.9 213.44 126.356 213.44C126.812 213.44 127.784 213.56 129.272 213.8L129.272 209.264L127.94 208.76L127.94 207.248C130.268 206.84 131.54 206.636 131.756 206.636C131.876 206.636 132.116 206.816 132.476 207.176C132.86 207.512 133.052 207.752 133.052 207.896L132.872 214.556L132.872 227.696L134.132 228.2L134.132 229.748C131.948 230.156 130.736 230.36 130.496 230.36C130.4 230.36 130.16 230.18 129.776 229.82C129.416 229.46 129.236 229.22 129.236 229.1L129.236 227.804C128.924 228.02 128.648 228.236 128.408 228.452C128.192 228.62 127.712 228.98 126.968 229.532C126.248 230.084 125.828 230.36 125.708 230.36ZM126.104 227.444C126.32 227.444 127.328 227 129.128 226.112L129.128 216.428C128.432 216.212 127.664 216.008 126.824 215.816C126.008 215.624 125.468 215.564 125.204 215.636C124.772 215.732 124.448 216.272 124.232 217.256C124.016 218.24 123.908 219.884 123.908 222.188C123.908 223.34 124.028 224.312 124.268 225.104C124.532 225.896 124.832 226.484 125.168 226.868C125.528 227.252 125.84 227.444 126.104 227.444ZM142.734 230.36C141.606 230.36 140.562 230.072 139.602 229.496C138.666 228.92 137.91 228.056 137.334 226.904C136.782 225.752 136.506 224.348 136.506 222.692C136.506 221.516 136.59 220.412 136.758 219.38C136.926 218.348 137.143 217.58 137.407 217.076C137.671 216.716 138.199 216.236 138.991 215.636C139.783 215.012 140.575 214.472 141.367 214.016C142.183 213.56 142.747 213.332 143.059 213.332C144.379 213.332 145.459 213.548 146.299 213.98C147.139 214.412 147.787 215.228 148.243 216.428C148.699 217.604 148.926 219.272 148.926 221.432L140.43 222.152C140.43 223.472 140.598 224.528 140.934 225.32C141.294 226.112 141.714 226.676 142.194 227.012C142.674 227.348 143.13 227.516 143.562 227.516L148.386 227.336L148.386 228.956C147.546 229.244 146.478 229.556 145.182 229.892C143.886 230.204 143.07 230.36 142.734 230.36ZM145.074 219.884C145.075 217.052 144.331 215.624 142.843 215.6L142.555 215.6C142.171 215.6 141.823 215.66 141.511 215.78C141.223 215.876 140.983 216.404 140.791 217.364C140.598 218.3 140.502 219.344 140.502 220.496L145.074 219.884ZM153.79 230.36C153.67 230.36 153.418 230.18 153.034 229.82C152.674 229.46 152.494 229.22 152.494 229.1L152.494 216.104L151.162 215.564L151.162 214.052C153.418 213.668 154.666 213.476 154.906 213.476C155.026 213.476 155.254 213.656 155.59 214.016C155.926 214.352 156.094 214.58 156.094 214.7L156.094 215.96C156.79 215.432 157.546 214.892 158.362 214.34C159.178 213.764 159.634 213.476 159.73 213.476C161.482 213.476 162.802 213.92 163.69 214.808C164.578 215.672 165.022 217.196 165.022 219.38L165.022 227.66L166.318 228.2L166.318 229.712C164.086 230.144 162.862 230.36 162.646 230.36C162.526 230.36 162.262 230.18 161.854 229.82C161.47 229.46 161.278 229.22 161.278 229.1L161.278 219.38C161.278 217.364 160.654 216.356 159.406 216.356C159.286 216.356 158.962 216.464 158.434 216.68C157.93 216.896 157.558 217.052 157.318 217.148C157.078 217.268 156.718 217.424 156.238 217.616L156.238 227.66L157.498 228.2L157.498 229.712C155.266 230.144 154.03 230.36 153.79 230.36ZM179.875 230.36C178.915 230.36 178.027 230.072 177.211 229.496C176.395 228.92 175.735 228.056 175.231 226.904C174.727 225.752 174.475 224.348 174.475 222.692C174.475 221.54 174.559 220.448 174.727 219.416C174.895 218.384 175.111 217.616 175.375 217.112C175.639 216.752 176.155 216.284 176.923 215.708C177.691 215.108 178.459 214.58 179.227 214.124C180.019 213.668 180.559 213.44 180.847 213.44C181.423 213.44 182.083 213.512 182.827 213.656C183.595 213.776 184.315 213.944 184.987 214.16L184.879 218.948L182.503 218.948L181.963 216.392C181.699 216.248 181.363 216.116 180.955 215.996C180.571 215.876 180.223 215.816 179.911 215.816C179.695 215.816 179.527 215.864 179.407 215.96C179.095 216.2 178.855 216.884 178.687 218.012C178.519 219.116 178.435 220.484 178.435 222.116C178.435 223.292 178.555 224.288 178.795 225.104C179.059 225.896 179.383 226.484 179.767 226.868C180.151 227.252 180.535 227.444 180.919 227.444L184.987 227.444L184.987 229.1C184.027 229.388 183.019 229.676 181.963 229.964C180.907 230.228 180.211 230.36 179.875 230.36ZM189.506 230.36C189.386 230.36 189.134 230.18 188.75 229.82C188.39 229.46 188.21 229.22 188.21 229.1L188.211 209.264L186.915 208.76L186.915 207.248C189.195 206.84 190.455 206.636 190.695 206.636C190.815 206.636 191.055 206.816 191.415 207.176C191.775 207.512 191.955 207.752 191.955 207.896L191.775 215.888L191.955 215.924C192.651 215.396 193.383 214.856 194.151 214.304C194.943 213.752 195.387 213.476 195.483 213.476C197.259 213.476 198.579 213.92 199.443 214.808C200.331 215.672 200.775 217.196 200.775 219.38L200.775 227.66L202.071 228.2L202.07 229.712C199.814 230.144 198.578 230.36 198.362 230.36C198.242 230.36 197.99 230.18 197.606 229.82C197.222 229.46 197.03 229.22 197.03 229.1L197.031 219.38C197.031 218.084 196.827 217.256 196.419 216.896C196.035 216.536 195.591 216.356 195.087 216.356C194.991 216.356 194.283 216.632 192.963 217.184C192.795 217.256 192.615 217.34 192.423 217.436C192.255 217.508 192.099 217.568 191.955 217.616L191.955 227.66L193.251 228.2L193.25 229.712C190.994 230.144 189.746 230.36 189.506 230.36ZM210.691 230.36C209.563 230.36 208.519 230.072 207.559 229.496C206.623 228.92 205.867 228.056 205.291 226.904C204.739 225.752 204.463 224.348 204.463 222.692C204.463 221.516 204.547 220.412 204.716 219.38C204.884 218.348 205.1 217.58 205.364 217.076C205.628 216.716 206.156 216.236 206.948 215.636C207.74 215.012 208.532 214.472 209.324 214.016C210.14 213.56 210.704 213.332 211.016 213.332C212.336 213.332 213.416 213.548 214.256 213.98C215.096 214.412 215.744 215.228 216.2 216.428C216.656 217.604 216.884 219.272 216.883 221.432L208.387 222.152C208.387 223.472 208.555 224.528 208.891 225.32C209.251 226.112 209.671 226.676 210.151 227.012C210.631 227.348 211.087 227.516 211.519 227.516L216.343 227.336L216.343 228.956C215.503 229.244 214.435 229.556 213.139 229.892C211.843 230.204 211.027 230.36 210.691 230.36ZM213.032 219.884C213.032 217.052 212.288 215.624 210.8 215.6L210.512 215.6C210.128 215.6 209.78 215.66 209.468 215.78C209.18 215.876 208.94 216.404 208.748 217.364C208.556 218.3 208.46 219.344 208.459 220.496L213.032 219.884ZM226.103 230.36C225.575 230.36 224.519 230.3 222.935 230.18C221.375 230.084 220.175 229.988 219.335 229.892L219.407 224.528L221.387 224.492L222.143 227.264C222.671 227.456 223.319 227.636 224.087 227.804C224.879 227.948 225.455 228.02 225.815 228.02C226.007 228.02 226.223 227.78 226.463 227.3C226.703 226.796 226.823 226.364 226.823 226.004C226.823 225.428 226.631 224.972 226.247 224.636C225.887 224.3 225.131 223.82 223.979 223.196C223.691 223.052 223.475 222.932 223.331 222.836C221.843 222.02 220.811 221.3 220.235 220.676C219.683 220.052 219.407 219.308 219.407 218.444C219.407 217.628 219.479 217.028 219.623 216.644C220.031 216.02 220.692 215.336 221.604 214.592C222.54 213.848 223.212 213.476 223.62 213.476C224.46 213.476 225.528 213.512 226.824 213.584C228.144 213.632 229.14 213.692 229.812 213.764L229.703 218.3L227.507 218.3L227.255 216.392C227.063 216.32 226.439 216.2 225.383 216.032C224.351 215.864 223.715 215.78 223.475 215.78C222.995 215.78 222.755 216.236 222.755 217.148C222.755 217.58 222.935 217.964 223.295 218.3C223.655 218.612 224.051 218.9 224.483 219.164C224.915 219.428 225.215 219.608 225.383 219.704L226.247 220.208C227.567 220.928 228.623 221.624 229.415 222.296C230.207 222.968 230.603 223.724 230.603 224.564C230.603 225.188 230.519 225.824 230.351 226.472C229.967 227.192 229.295 228.02 228.335 228.956C227.375 229.892 226.631 230.36 226.103 230.36ZM236.548 230.36C236.26 230.36 235.9 230.18 235.468 229.82C235.036 229.46 234.652 229.04 234.316 228.56C233.98 228.08 233.812 227.696 233.812 227.408L233.813 215.888L231.473 215.888L231.473 214.592L233.813 213.476L236.153 210.704C236.369 210.68 236.837 210.848 237.557 211.208L237.557 213.8L241.085 213.8L241.085 216.032L237.557 216.032L237.556 225.824C237.556 226.52 237.616 227 237.736 227.264C237.856 227.504 238.084 227.624 238.42 227.624L241.444 227.732L241.444 229.64C240.7 229.808 239.764 229.964 238.636 230.108C237.532 230.276 236.836 230.36 236.548 230.36Z" fill="black" fill-opacity="0.6"/>
<defs>
<linearGradient id="paint0_linear_3654_100690" x1="156" y1="101.25" x2="156" y2="215" gradientUnits="userSpaceOnUse">
<stop stop-color="#AC8B16"/>
<stop offset="1" stop-color="#FFC700" stop-opacity="0.72"/>
</linearGradient>
</defs>
</svg>
