<svg width="226" height="224" viewBox="0 0 226 224" fill="none" xmlns="http://www.w3.org/2000/svg">
<rect width="160" height="180" transform="matrix(1 0 5.51922e-06 1 33 27)" fill="black" fill-opacity="0.1"/>
<path d="M33.0003 120.25L33.0001 75H35.7501L39.5001 72.25L45.0001 73.5L49.0001 75H53.0001L59.5 63L62.5 61L62.5 63L55.5001 77.5H57.0001L59.5001 79L61.0001 81.75H65.0001L69.0001 83L73.0002 85.25L77.0001 83L79.7502 85.25H82.5002L82.5001 83L89.0001 79H91.2501L91.2501 81.75H95.0001L95.0001 79L97.0001 77.5L98.5001 75L98.5001 70L101 64.25L102.25 61L113 64.25L119.75 67L126.5 73.5H129L129 71L129 70L129 67H127.75L131.25 63L129 61L127.75 59H134.5L139 57.25L139 61H142.5L142.5 63H145L149 67L153 70L157 71L158.5 67L163.75 70L163.75 67L161 63H165H169L169 60L174.75 59L174.75 57.25H183L185 65L189 70L189 71L193 75L193 128.75L147.5 144.75L65.0006 171L33.0003 120.25Z" fill="url(#paint0_linear_3654_100690)"/>
<path d="M54.0006 102.375L54.0006 100.5C54.7506 99.5835 56.7505 97.375 58.7505 95.8752C60.7505 94.3754 69.8338 92.0002 74.1255 91L90.0005 87L92.1255 94.0002C91.7922 93.5419 91.1505 93.2752 91.2505 95.8752C91.3505 98.4752 95.8756 99.5419 98.1256 99.7502L97.0006 102.375L98.1256 106.25L98.1256 107.625L101.626 109.125H105.001L105.001 118C105.251 119.084 106.251 121.25 108.251 121.25C110.751 121.25 113.001 120.25 114.126 119C115.026 118 115.001 116.584 114.876 116C116.042 115.334 118.676 113.825 119.876 113.125C121.076 112.425 122.126 110.584 122.501 109.75C124.751 109.25 128.226 109.025 124.126 112.125C120.026 115.225 119.584 118.834 119.876 120.25C119.542 120.584 118.501 121.25 117.001 121.25C115.126 121.25 113.001 122.75 113.001 123.75L113.001 127.5C112.542 127.084 110.951 126.4 108.251 127C104.876 127.75 104.126 131.625 105.001 133.375C105.876 135.125 108.626 137 110.626 136.875C112.226 136.775 114.126 135.584 114.876 135L116.001 136.125L116.001 138.25L113.001 140L111.626 141.5C110.584 141.25 108.101 140.75 106.501 140.75C104.501 140.75 102.376 142.375 101.626 143.875C101.026 145.075 101.876 147.125 102.376 148H101.001H98.7508L99.5008 145.875L98.7508 142.375L96.0008 140.75L96.0008 139L93.0008 136.125H90.0008C84.7507 130.084 73.6007 117.6 71.0006 116C68.4006 114.4 66.5007 116.667 65.8757 118L75.0008 135C74.1258 134.792 72.2257 134.375 71.6257 134.375C70.8757 134.375 68.7508 134.875 67.1258 135C65.8258 135.1 59.334 123.709 56.2507 118C54.209 117.042 49.6506 116.15 47.7507 120.25C45.8507 124.35 51.6258 138.542 54.7508 145.125L55.6258 147L52.0008 145.125L50.1258 143.875L49.0008 141.5L47.7508 139C47.7091 137.542 47.5007 134.375 47.0007 133.375C46.5007 132.375 44.9591 131.792 44.2507 131.625L44.2507 127L41.0007 125.25L45.0007 123.75L41.0007 121.875L45.6257 121.25L41.0007 119L45.0006 116C46.084 114.25 48.6256 110.425 50.1256 109.125C51.6256 107.825 54.8339 106 56.2506 105.25L54.0006 102.375Z" fill="#AA0404"/>
<path d="M90.0006 116L76.2506 108.5L76.2506 105.25L75.0006 104L73.0006 104.5L73.0006 107L65.8756 104.5L65.8756 102.375H64.2506L64.2506 104L61.0006 103.5L58.7506 104L56.2506 100.5L76.2505 95.8752L77.0005 98H78.8755L81.8756 103L81.0006 104L81.8756 104.5L83.2506 104L85.1256 107.625M47.0007 116.875C47.459 115.958 49.1006 113.925 52.0006 113.125C54.9006 112.325 58.1256 112.792 59.3756 113.125L61.0006 116L63.2506 112.125C65.084 111.5 69.6006 110.825 73.0006 113.125C76.4006 115.425 77.084 117.083 77.0007 117.625L78.8756 116L88.3757 121.25M54.0006 100.5L54.0006 102.375L56.2506 105.25C54.8339 106 51.6256 107.825 50.1256 109.125C48.6256 110.425 46.084 114.25 45.0006 116L41.0007 119L45.6257 121.25L41.0007 121.875L45.0007 123.75L41.0007 125.25L44.2507 127L44.2507 131.625C44.9591 131.792 46.5007 132.375 47.0007 133.375C47.5007 134.375 47.7091 137.542 47.7508 139L49.0008 141.5L50.1258 143.875L52.0008 145.125L55.6258 147L54.7508 145.125C51.6258 138.542 45.8507 124.35 47.7507 120.25C49.6506 116.15 54.209 117.042 56.2507 118C59.334 123.709 65.8258 135.1 67.1258 135C68.7508 134.875 70.8757 134.375 71.6257 134.375C72.2257 134.375 74.1258 134.792 75.0008 135L65.8757 118C66.5007 116.667 68.4006 114.4 71.0006 116C73.6007 117.6 84.7507 130.084 90.0008 136.125H93.0008L96.0008 139L96.0008 140.75L98.7508 142.375L99.5008 145.875L98.7508 148H101.001H102.376C101.876 147.125 101.026 145.075 101.626 143.875C102.376 142.375 104.501 140.75 106.501 140.75C108.101 140.75 110.584 141.25 111.626 141.5L113.001 140L116.001 138.25L116.001 136.125L114.876 135C114.126 135.584 112.226 136.775 110.626 136.875C108.626 137 105.876 135.125 105.001 133.375C104.126 131.625 104.876 127.75 108.251 127C110.951 126.4 112.542 127.084 113.001 127.5C113.001 126.584 113.001 124.55 113.001 123.75C113.001 122.75 115.126 121.25 117.001 121.25C118.501 121.25 119.542 120.584 119.876 120.25C119.584 118.834 120.026 115.225 124.126 112.125C128.226 109.025 124.751 109.25 122.501 109.75C122.126 110.584 121.076 112.425 119.876 113.125C118.676 113.825 116.042 115.334 114.876 116C115.001 116.584 115.026 118 114.126 119C113.001 120.25 110.751 121.25 108.251 121.25C106.251 121.25 105.251 119.084 105.001 118L105.001 109.125H101.626L98.1256 107.625L98.1256 106.25L97.0006 102.375L98.1256 99.7502C95.8756 99.5419 91.3505 98.4752 91.2505 95.8752C91.1505 93.2752 91.7922 93.5419 92.1255 94.0002L90.0005 87L74.1255 91C69.8338 92.0002 60.7505 94.3754 58.7505 95.8752C56.7505 97.375 54.7506 99.5835 54.0006 100.5Z" stroke="black" stroke-width="2"/>
<path d="M62.1253 60.5625L62.6878 63L54.9717 77.1095C55.8367 77.3225 56.5586 77.4513 57.0004 77.4375C59.0004 77.375 60.5004 78.75 61.3129 81C61.9629 82.8 61.3754 85.75 61.0004 87H62.1254L63.0004 86.375L63.0004 87.75L77.4503 92.4598L78.6255 91.9375L79.0122 92.9689L91.188 96.9375L93.0005 99L97.938 99.625L97.438 101.687L97.438 105.312L82.938 100.875L81.7505 96.625L80.1255 95.9375L79.0122 92.9689L77.4503 92.4598L73.0005 94.4375L66.5005 96.3125L59.6879 94L58.188 94.4375L58.1879 93L56.5004 91.5L51.2504 89.1351C50.5634 89.993 48.8855 91.0824 46.7439 92.1548L43.9427 97.2771L36.4381 111L35.9381 113L33.3756 113.312L33.0006 111L34.5005 109.562L42.207 95.469C41.899 95.0957 41.6339 94.7383 41.4204 94.4145C34.6522 96.8399 27.3725 97.8329 29.563 92.6875C32.2503 86.375 39.2449 90.2831 39.9379 86.125C40.2379 84.325 39.4963 82.5178 39.088 81.8392C37.0203 80.389 34.5944 77.5934 37.0004 74.75C38.2366 73.289 39.8055 72.6658 41.3265 72.5C43.189 72.297 44.9797 72.7798 46.0003 73.25C46.5063 73.5895 47.1253 74.1065 47.6878 74.75C48.8961 75.2044 50.8016 75.881 52.6112 76.4417L59.6878 63.5L59.6878 62.1875L62.1253 60.5625Z" fill="#C4C4C4"/>
<path d="M33.0004 77.4375L33.0001 27H69.0001M41.0004 82.6318C41.3129 82.6735 42.4879 84.775 42.4379 86.375C42.3754 88.375 39.9861 91.5546 41.0005 93.6875C42.0148 95.8203 47.1255 101.312 51.2505 99.875C54.5505 98.725 56.7505 95.2708 57.4379 93.6875M47.6878 74.75C48.9547 76.1996 49.9345 78.2905 48.6879 80.4375C46.8879 83.5375 42.1046 83.0208 39.9379 82.375C39.672 82.2264 39.3837 82.0466 39.088 81.8392M47.6878 74.75C47.1253 74.1065 46.5063 73.5895 46.0003 73.25C44.1462 72.3958 39.7503 71.5 37.0004 74.75C34.5944 77.5934 37.0203 80.389 39.088 81.8392M47.6878 74.75C50.1253 75.6667 55.4004 77.4875 57.0004 77.4375C59.0004 77.375 60.5004 78.75 61.3129 81C61.9629 82.8 61.3754 85.75 61.0004 87M61.0004 87H59.0004L51.6879 84.25L49.5629 88.375L51.2504 89.1351M61.0004 87H62.1254L63.0004 86.375L63.0004 87.75L91.188 96.9375L93.0005 99L97.938 99.625L97.438 101.687L97.438 105.312L82.938 100.875L81.7505 96.625L80.1255 95.9375L78.6255 91.9375L73.0005 94.4375L66.5005 96.3125L59.6879 94L58.188 94.4375L58.1879 93L56.5004 91.5L51.2504 89.1351M39.088 81.8392C39.4963 82.5178 40.2379 84.325 39.9379 86.125C39.2449 90.2831 32.2503 86.375 29.563 92.6875C25.9401 101.197 48.2222 92.9165 51.2504 89.1351M47.0004 73.25C47.5837 72.2917 49.1004 70.5 50.5004 71C51.9004 71.5 53.3754 72.7083 53.9379 73.25C52.9795 71.9583 50.4754 69.3875 48.1254 69.4375C45.7754 69.4875 42.7223 71.625 41.3265 72.5M62.1253 60.5625L62.6878 63L36.4381 111L35.9381 113L33.3756 113.312L33.0006 111L34.5005 109.562L59.6878 63.5L59.6878 62.1875L62.1253 60.5625Z" stroke="black" stroke-width="2"/>
<path d="M33.0003 77.75L33.001 207H117.001M121.001 207H125.001L125.001 203H129.001L129.001 207H133.001L133.001 203H137.001L137.001 207H141.001L141.001 203H145.001L145.001 207H149.001L149.001 203H153.001L153.001 207" stroke="black" stroke-width="2"/>
<path d="M193 67L193 27H157" stroke="black" stroke-width="2"/>
<path d="M193 97.5L193.001 207H157.001" stroke="black" stroke-width="2"/>
<path d="M196.126 112.5L189.125 104.625L173.251 107.25L171.876 125.875C181.501 135.5 182.376 110.375 196.126 112.5Z" fill="#C4C4C4"/>
<path d="M176.626 119L176.626 121.312H174.501M189.125 104.625L196.126 112.5C182.376 110.375 181.501 135.5 171.876 125.875L173.251 107.25L189.125 104.625Z" stroke="black" stroke-width="2"/>
<path d="M172.376 126.375C173.076 130.975 177.668 136.708 179.876 139C143.001 159.75 92.6808 120.4 136.376 105.375C139.876 93.125 146.365 76.25 163.876 76.25C168.576 76.25 171.917 80.75 173.001 83L177.001 84.125L179.876 87L182.001 91L182.001 95L185.001 97.25C186.209 97.8333 189.351 99.375 192.251 100.875C195.151 102.375 196.626 107.167 197.001 109.375C196.501 107.708 194.576 104.4 190.876 104.5C180.789 104.773 170.875 116.516 172.376 126.375Z" fill="#C4C4C4" stroke="black" stroke-width="2"/>
<path d="M170.574 89.2978C169.704 88.9633 167.745 88.4949 166.875 89.2978C166.005 90.1008 165.787 92.1972 165.787 93.145" stroke="black" stroke-width="2"/>
<path d="M178.75 88.1249C178.75 88.1249 177.357 85.8777 175.625 86.5C174.683 86.8388 174.375 88.125 174.375 88.125" stroke="black" stroke-width="2"/>
<path d="M178 92.375C176.25 92.375 175.25 91 175.25 91C175.25 91 173.626 92.375 174.5 95M167.438 80.25H169L167.125 79H163.438L164.688 80.625L161.813 81.5L160.063 79.375L157.063 80.625L159.501 83L157.563 84.3125L155.751 86.375L154.438 84.8125L155.751 83.625L153.751 81.875L150.376 85.125L153.751 89L151.501 91.875L149.126 90.5L150.376 89L148.313 87.625L146.063 91L149.626 94.125L147.251 97.625L147.251 95L144.376 93.625L143.126 96.125L145.751 101.125L144.376 104L141.376 99.1875L140.001 103L139.063 106L140.876 107.562L144.813 110.437" stroke="black" stroke-width="2"/>
<path d="M183.251 96.5C179.594 93.919 175.34 98.3291 174.001 101.625L169.001 97.5L164.251 98.25C154.489 94.5893 156.251 84.9583 167.126 83.0001C171.362 82.2373 176.751 84.8752 177.251 84.9585" stroke="black" stroke-width="2"/>
<path d="M158 89.5C151.751 94.25 146.626 104.75 144.376 111.75C119.501 111.75 130.025 141.05 160.001 135C170.901 132.8 171.292 126.083 170.126 123M165.001 127.812L164.438 129.687L162.313 129.187M155.501 128.812L154.688 130.312L153.001 129.687" stroke="black" stroke-width="2"/>
<path d="M178.001 104.454C178.542 103.246 180.225 100.579 182.625 99.5789C185.025 98.5789 187.292 98.7456 188.125 98.9539M172.751 105.125C172.751 105.125 169.001 102.5 165.126 102.375C161.251 102.25 155.701 103.35 153.001 108.25C150.301 113.15 145.751 115.375 142.126 117.875C149.001 117.875 152.276 117.725 153.876 117.125C155.476 116.525 158.792 112.792 159.251 111L155.751 119.125C159.501 117.5 162.026 117.35 163.126 116.25C164.226 115.15 165.834 112.583 166.001 111L166.001 117.875C167.626 116.625 171.001 113.85 171.001 111.75C171.001 109.65 174.751 115.625 177.001 107.5M144.126 114.25C141.578 127.75 163.842 126.443 171.001 123.625" stroke="black" stroke-width="2"/>
<path d="M127.782 134.7L130.266 132.316L129.687 130.03L132.384 130.566L134.256 129.141L135.971 130.806L134.142 132.348L134.743 134.425L132.101 134.036L129.262 136.451" stroke="black" stroke-width="2"/>
<path d="M141.737 143.085L142.942 139.86L141.431 138.051L144.094 137.366L145.163 135.27L147.43 136.028L146.45 138.21L147.892 139.821L145.342 140.615L143.83 144.022" stroke="black" stroke-width="2"/>
<path d="M119.739 120.706L123.978 119.862L125 117.739L126.725 119.88L130.257 120.287L130.505 122.664L126.931 122.375L126.059 124.354L124.282 122.36L119.751 123" stroke="black" stroke-width="2"/>
<path d="M153.75 64.125C152.05 68.425 157 71 157 71C157 71 155.12 70.4552 153 69.1914C151.617 68.3666 150.132 67.2356 149 65.7499C148.01 64.4501 147.25 62.9419 146.703 61.2898C141.783 55.9945 134.452 49.4994 125 44.1249L145.61 53.6785C145.624 51.9659 145.786 50.2108 146.086 48.4579C138.534 45.205 132.374 41.4629 129 38.9999C133.969 40.9912 139.412 43.718 146.579 46.0692C147.127 43.8071 147.897 41.5834 148.862 39.4966C148.225 38.7746 147.549 38.1152 146.875 37.6249C144.675 36.0249 141.458 35.2082 140.125 34.9999C145.75 15 166.197 13.0444 178 19.9999C183.6 23.2999 185 30.5049 185 33.6949C186.519 35.2641 187.842 37.0077 189 38.8383C190.562 41.3073 191.826 43.9344 192.866 46.5046C193.529 44.5768 192.566 42.4645 191.375 41.1249L202.25 45.1249L198.875 53.75C198.411 53.9948 197.374 54.2938 195.63 54.5634C197.015 58.8257 198.585 61.0309 199.973 62.1416C202.069 63.8188 203.75 63 203.75 63L194.375 72.875C193.525 72.2344 192.384 71.3559 191.188 70.4054C188.57 68.3268 185.686 65.9044 185 64.875C184 63.375 182.917 58.9167 182.5 56.875L163.75 55.2499C161.542 56.2083 155.45 59.825 153.75 64.125Z" fill="#D9EFFF"/>
<path d="M202.25 59.9999L189.625 71.8749L195.375 76.3749L206.375 64.875M162.5 46.9999L162.5 45.6249L162.5 44.1249M185 47.9999L183.75 46.9999L183.75 45.1249M173.875 48.6249L173.25 47.9999L173.25 45.1249M153 69.1914C151.617 68.3666 150.132 67.2356 149 65.7499C140.706 54.8596 148.553 29.3492 162.5 27C172.872 25.2531 179.998 28.5277 185 33.6949M153 69.1914C155.12 70.4552 157 71 157 71C157 71 152.05 68.425 153.75 64.125C155.45 59.825 161.542 56.2083 163.75 55.2499L182.5 56.875C182.917 58.9167 184 63.375 185 64.875C186 66.375 191.667 70.8334 194.375 72.875L203.75 63C203.75 63 198.875 65.3749 195.375 53.75C194.03 49.2807 192.106 43.747 189 38.8383M153 69.1914C152.5 68.0442 151.3 65.1999 150.5 62.9999C149.7 60.7998 149.167 56.9166 149 55.2499L125 44.1249C140.3 52.8249 150.042 64.4609 153 69.1914ZM189 38.8383C183.75 43.3749 173.875 44.1249 166.333 42.3749C168.322 34.9181 151.672 34.6124 152.125 44.1249C151.292 42.6249 149.075 39.2249 146.875 37.6249C144.675 36.0249 141.458 35.2082 140.125 34.9999C145.75 15 166.197 13.0444 178 19.9999C183.6 23.2999 185 30.5049 185 33.6949M189 38.8383C187.842 37.0077 186.519 35.2641 185 33.6949M129 38.9999C135.792 43.9582 153.875 54.0999 171.875 54.9999C189.875 55.8999 197.375 54.5416 198.875 53.75L202.25 45.1249L191.375 41.1249C194.042 44.1249 195.566 50.9999 180.25 50.9999C152.621 50.9999 139.708 43.2915 129 38.9999Z" stroke="black" stroke-width="2"/>
<path d="M89.0007 136L89.0007 138.562H87.4382L86.7507 143L89.0007 145L91.3132 143L90.6882 138.562H89.3757M97.0006 115.5H96.1881L96.188 113.187H99.063L99.0631 115.875H100.376L102.188 116.562L102.438 118.312L104.376 117.937L103.938 115L105.501 112.812L107.376 111.875L106.563 109.375L104.688 111H102.813L102.188 112.437L98.188 111L95.5005 110.375L93.0005 110.687L91.938 109.375H90.688L91.938 107L90.313 104.937L89.3755 103L88.188 103.5L87.438 104.937L85.0005 105.687L85.0005 107.687L83.313 109L84.188 111.562L87.063 111.312L88.188 109.875L88.188 113.187L89.3755 113.937L90.0006 116.562L92.2506 117.062L93.3756 115.5L95.1256 116.312M94.7506 119C93.7089 118.916 91.4381 118.912 90.6881 119.562C89.9381 120.212 89.0006 120.083 88.6256 119.937L89.0006 121.687L88.1881 122.625L85.3756 123L87.0631 124.937L86.7506 128.187L85.0006 129.312L86.7506 129.75L88.6256 131.75L87.0632 135.312L90.3132 132.5L94.0007 133L94.7507 135.312L95.5007 132.5L97.6881 130.562L100.376 131L99.0631 128.625L100.376 126.375L101.813 125.312L99.6881 124.375C99.5214 123.375 99.0381 121.262 98.4381 120.812C97.8381 120.362 98.6047 119.792 99.0631 119.562L98.4381 118.312L99.0631 117.437L97.6881 116.562L96.1881 117.437H95.1256L94.7506 119ZM93.3756 128.625L96.1881 124.375L91.9381 122L89.3756 125.875L93.3756 128.625Z" stroke="black" stroke-width="2"/>
<path d="M132.625 64.1186L136.677 67.1574L138.5 62.7005L134.955 59.1553L132.625 64.1186Z" stroke="black" stroke-width="2"/>
<path d="M133 63C131.896 63.75 129.55 65.6 129 67C125.538 75.8146 139.436 80.8551 145.438 76.4375C149.038 73.7875 149.884 69.2023 147.5 65.625M147.5 65.625C145.902 63.2257 146.438 68.8125 141 68.8125M147.5 65.625C147.5 65.625 146.006 63.5161 144.688 63C143.551 62.5551 141.875 63 141.875 63" stroke="black" stroke-width="2"/>
<path d="M135.313 59.5388C135.448 58.5898 139.003 55.5532 139.003 55.5532C139.003 55.5532 139.084 59.0238 137.783 60.9218C138.108 60.0543 142.907 60.9218 142.907 60.9218C142.907 60.9218 141.199 65.1514 138.271 65.9648C139.681 65.3954 143.395 68.1611 143.395 68.1611C143.395 68.1611 139.572 70.1133 137.213 69.1372C137.973 68.5949 138.775 67.9171 135.912 69.5439C133.049 71.1708 130.563 71.0625 130.563 71.0625L133.878 67.1036C133.065 67.4832 127.25 66.6875 127.25 66.6875C127.25 66.6875 130.462 63.9584 132.007 62.9552C130.652 62.5213 128.188 59.5388 128.188 59.5388C128.188 59.5388 132.387 58.8338 133.878 59.5388" stroke="black" stroke-width="2"/>
<path d="M199.751 87.0001L197.949 87.8066C203.626 94.1874 194.938 92.6249 194.938 92.6249C194.938 92.6249 194.188 97.4999 192.688 97.5624C191.188 97.6249 188.376 99.4374 188.126 98.9999C187.926 98.6499 186.251 97.3124 185.438 96.6874C186.042 96.2707 187.138 95.1874 186.688 94.1874C186.238 93.1874 185.667 92.9791 185.438 92.9999L182.563 94.5624L182.563 91.0001C183.146 90.7709 184.313 90.0874 184.313 89.1874C184.313 88.2874 182.313 88.5624 181.313 88.8124L180.126 86.9999L181.751 85.4376C181.646 84.2918 182.013 81.8626 184.313 81.3126C186.613 80.7626 187.896 83.2082 188.126 83.4374L192.313 81.8749L189.563 78.9999C190.313 78.7499 193.177 77.5003 195.563 79.0003C197.949 80.5003 196.662 82.5671 196.773 83.9755L199.751 87.0001Z" fill="#FFD464"/>
<path d="M196.773 83.9755L195.813 83.0001L187.188 86.4376L190.813 91.0001L199.751 87.0001L196.773 83.9755ZM196.773 83.9755C196.662 82.5671 197.949 80.5003 195.563 79.0003C193.177 77.5003 190.313 78.7499 189.563 78.9999L192.313 81.8749L188.126 83.4374C187.896 83.2082 186.613 80.7626 184.313 81.3126C182.013 81.8626 181.646 84.2918 181.751 85.4376L180.126 86.9999L181.313 88.8124C182.313 88.5624 184.313 88.2874 184.313 89.1874C184.313 90.0874 183.146 90.7709 182.563 91.0001L182.563 94.5624L185.438 92.9999C185.667 92.9791 186.238 93.1874 186.688 94.1874C187.138 95.1874 186.042 96.2707 185.438 96.6874C186.251 97.3124 187.926 98.6499 188.126 98.9999C188.376 99.4374 191.188 97.6249 192.688 97.5624C194.188 97.4999 194.938 92.6249 194.938 92.6249C194.938 92.6249 203.626 94.1874 197.949 87.8066" stroke="black" stroke-width="2"/>
<path d="M33.0006 141.75L62.2509 185.5L206.251 135L198.001 127L147.751 144.25L65.0008 171L33.0005 120.75L33.0006 141.75Z" fill="#C4C4C4"/>
<path d="M33.0003 76L141 47M185.75 34.5L193 32.25M62.2503 79L98.2502 69.25M115.5 64.25L129 61.25M61.7503 83L64.1253 82.25H68.1253L71.7503 85.5L74.0003 84.125L77.0003 83L80.3753 85.5H83.1253L83.1253 83L86.2503 80.5L89.5003 79L91.6253 79.875L91.6253 82.25H94.3753L94.3753 79.875L97.0003 76.75H98.2503M33.0002 69.25L147.75 39M33.0002 56.25L139 29.5L139 27H93L93.0001 37.9375L89.5001 39L89.5 27H85L85.0001 39.875L81.0001 40.875L81 27H77L77.0001 41.75L73.0001 42.8125L73 27H70M61.0007 156.5L62.2507 147L68.1256 144.25L107.501 149L109.001 153.5L107.501 156.5M62.2509 185.5L33.0006 141.75L33.0005 120.75L65.0008 171L147.751 144.25L198.001 127L206.251 135L62.2509 185.5Z" stroke="black" stroke-width="2"/>
<path d="M37 55L37.0001 68.375" stroke="black" stroke-width="2"/>
<path d="M41 55L41.0001 67" stroke="black" stroke-width="2"/>
<path d="M45 53L45.0001 66.375" stroke="black" stroke-width="2"/>
<path d="M49 51.6875L49.0001 65.375" stroke="black" stroke-width="2"/>
<path d="M53 51L53.0001 64.5" stroke="black" stroke-width="2"/>
<path d="M57 50.5312L57.0001 63" stroke="black" stroke-width="2"/>
<path d="M61 49.375L61.0001 61.875" stroke="black" stroke-width="2"/>
<path d="M65 48.3125L65.0001 61" stroke="black" stroke-width="2"/>
<path d="M69 47.3086L69.0001 67" stroke="black" stroke-width="2"/>
<path d="M73 46.3638L73.0001 65.375" stroke="black" stroke-width="2"/>
<path d="M77 45L77.0001 57.25" stroke="black" stroke-width="2"/>
<path d="M81 44.375L81.0001 57.1543" stroke="black" stroke-width="2"/>
<path d="M85 43.1553L85.0001 55.8694" stroke="black" stroke-width="2"/>
<path d="M89 41.75L89.0001 55" stroke="black" stroke-width="2"/>
<path d="M93 41.25L93.0001 53.625" stroke="black" stroke-width="2"/>
<path d="M97 39.8691L97.0001 53" stroke="black" stroke-width="2"/>
<path d="M101 39L101 51.6875" stroke="black" stroke-width="2"/>
<path d="M105 37.625L105 50.5312" stroke="black" stroke-width="2"/>
<path d="M109 37.3438L109 49.5123" stroke="black" stroke-width="2"/>
<path d="M113 36.0781L113 48.3125" stroke="black" stroke-width="2"/>
<path d="M117 35L117 47.4375" stroke="black" stroke-width="2"/>
<path d="M121 34.5312L121 46.4346" stroke="black" stroke-width="2"/>
<path d="M125 33.2188L125 45.3437" stroke="black" stroke-width="2"/>
<path d="M129 32.3125L129 44.0781" stroke="black" stroke-width="2"/>
<path d="M133 30.1953L133 43.1553" stroke="black" stroke-width="2"/>
<path d="M137 29.3438L137 43" stroke="black" stroke-width="2"/>
<path d="M127.813 140C131.163 139.952 133.376 143.361 134.063 145.071C132.98 146.881 130.051 150.5 127.001 150.5C123.188 150.5 120.626 146.324 120.438 144.713C120.251 143.102 123.626 140.06 127.813 140Z" fill="white"/>
<path d="M121.75 105.5L121 102.562L117 100.875L115.438 101.687L112.063 105.875L112.375 108.75L115.438 110.437L118.438 109.812L121.75 105.5Z" fill="white"/>
<path d="M125.938 94.5L125 96.9375L126.313 99.4375H129.375L135.125 95.4375L135.75 92.6875L133.938 91L130.938 91.3125L125.938 94.5Z" fill="white"/>
<path d="M104.063 94.5L107.438 91.9375L107.438 89.9375L105 88.3125L103.063 88.625L100.313 90.5L99.8127 92.6875L101.625 94.5H104.063Z" fill="white"/>
<path d="M115.063 90.5H121.75L125 92.4375L124.563 96.375L121.5 97.8125H115.063L112.375 95.4375L112.375 92.6875L115.063 90.5Z" fill="white"/>
<path d="M132.25 86.6875L131.938 84.8125L133.188 83.5L134.688 82.625L140 83L141.875 84.3125L141.875 87L140 88.625L134.25 88.3125L132.25 86.6875Z" fill="white"/>
<path d="M165.5 72.5625L163.438 71L163.063 68.25L163.138 68.1653L163.869 67.34L165 66.0625H168.125L171.438 68.25L172.125 71L170.375 73.25L167.688 73.6875L165.5 72.5625Z" fill="white"/>
<path d="M179.875 75L182.813 73.25L186.813 73.6875L190.875 77.375L189 80.4375L185 81.1875L181.875 80.4375L179.25 77.375L179.875 75Z" fill="white"/>
<path d="M156.625 70.625C156.625 70.325 156.625 68.5417 156.625 67.6875L158.438 66.0625L162.188 68.625L164.125 67.6875L162.188 65.0625L162.188 63L165.5 61.875L169.375 62.375L169.375 60.0625L172.438 58.625L174.375 58.3125L174.375 57.1875L178.562 56.3125M134.063 145.071C133.376 143.361 131.163 139.952 127.813 140C123.626 140.06 120.251 143.102 120.438 144.713C120.626 146.324 123.188 150.5 127.001 150.5C130.051 150.5 132.98 146.881 134.063 145.071ZM121 102.562L121.75 105.5L118.438 109.812L115.438 110.437L112.375 108.75L112.063 105.875L115.438 101.687L117 100.875L121 102.562ZM125 96.9375L125.938 94.5L130.938 91.3125L133.938 91L135.75 92.6875L135.125 95.4375L129.375 99.4375H126.313L125 96.9375ZM107.438 91.9375L104.063 94.5H101.625L99.8127 92.6875L100.313 90.5L103.063 88.625L105 88.3125L107.438 89.9375L107.438 91.9375ZM121.75 90.5H115.063L112.375 92.6875L112.375 95.4375L115.063 97.8125H121.5L124.563 96.375L125 92.4375L121.75 90.5ZM131.938 84.8125L132.25 86.6875L134.25 88.3125L140 88.625L141.875 87L141.875 84.3125L140 83L134.688 82.625L133.188 83.5L131.938 84.8125ZM165.5 72.5625L163.438 71L163.063 68.25L165 66.0625H168.125L171.438 68.25L172.125 71L170.375 73.25L167.688 73.6875L165.5 72.5625ZM182.813 73.25L179.875 75L179.25 77.375L181.875 80.4375L185 81.1875L189 80.4375L190.875 77.375L186.813 73.6875L182.813 73.25Z" stroke="black" stroke-width="2"/>
<path d="M101.001 86.25C97.0756 87.274 97.2061 61.875 102.626 61.875C102.765 61.875 102.9 61.9062 103.031 61.9664L103.074 61.9762C106.253 62.6884 112.207 63.9215 115.967 64.8867C116.334 64.9809 116.68 65.0726 117.001 65.1609C118.01 65.4391 118.766 65.6848 119.126 65.875C119.746 66.2034 120.174 66.926 120.467 67.8407C122.145 69.1438 125.651 71.925 126.251 72.625C126.415 72.8173 126.501 73.1875 126.501 73.1875C126.501 73.1875 133.188 73.4687 135.876 73.6437C136.782 68.875 139.188 66.0937 140.063 66.0937C140.938 66.0937 141.873 72.0917 141.438 76.625C141.001 81.1875 138.844 85.3437 138.188 85.3437C137.532 85.3437 135.719 82.25 135.719 77.375C133.657 77.375 126.251 77.0625 126.251 77.0625C126.251 77.0625 126.306 77.4382 126.251 77.75L119.8 81.2166C119.603 81.6611 119.379 82.0215 119.126 82.25C118.818 82.5264 118.333 82.922 116.688 83.3125C111.638 84.5113 101.733 85.936 101.733 85.936C101.501 86.0773 101.257 86.1832 101.001 86.25Z" fill="#FFE27A"/>
<path d="M102.626 61.875C97.2061 61.875 97.0756 87.274 101.001 86.25C101.257 86.1832 101.501 86.0773 101.733 85.936M102.626 61.875C106.233 61.875 106.925 82.7771 101.733 85.936M102.626 61.875C105.662 62.5665 112.022 63.8741 115.967 64.8867M102.626 61.875L115.967 64.8867M101.733 85.936C101.733 85.936 111.638 84.5113 116.688 83.3125M120.467 67.8407C120.174 66.926 119.746 66.2034 119.126 65.875C118.766 65.6848 118.01 65.4391 117.001 65.1609M120.467 67.8407C121.178 70.059 121.089 73.4069 121.001 75C120.921 76.4344 120.571 79.4724 119.8 81.2166M120.467 67.8407C122.145 69.1438 125.651 71.925 126.251 72.625C126.415 72.8173 126.501 73.1875 126.501 73.1875M119.8 81.2166C119.603 81.6611 119.379 82.0215 119.126 82.25C118.818 82.5264 118.333 82.922 116.688 83.3125M119.8 81.2166L126.251 77.75C126.306 77.4382 126.251 77.0625 126.251 77.0625M126.501 73.1875C126.501 73.1875 133.188 73.4687 135.876 73.6437C136.782 68.875 139.188 66.0937 140.063 66.0937C140.938 66.0937 141.873 72.0917 141.438 76.625C141.001 81.1875 138.844 85.3437 138.188 85.3437C137.532 85.3437 135.719 82.25 135.719 77.375C133.657 77.375 126.251 77.0625 126.251 77.0625M126.501 73.1875L126.251 77.0625M115.967 64.8867C116.334 64.9809 116.68 65.0726 117.001 65.1609M116.688 83.3125L113.751 79.4375L117.313 76.625L114.188 73.6437L117.001 70.8125C116.251 69.9375 114.188 67.8407 114.188 67.8407L117.001 65.1609" stroke="black" stroke-width="2"/>
<path d="M21.0005 143L1.00049 143L1.00026 159L9.00014 167.5L1.00003 175L0.999808 191L10.9998 191L20.9998 191L21.0005 143Z" fill="#909253"/>
<path d="M21.0005 143L1.00049 143L1.00026 159L9.00014 167.5L1.00003 175L0.999808 191L10.9998 191L20.9998 191L21.0005 143Z" fill="black" fill-opacity="0.2"/>
<path d="M21.0005 143L1.00049 143L1.00026 159L9.00014 167.5L1.00003 175L0.999808 191L10.9998 191L20.9998 191L21.0005 143Z" stroke="black" stroke-width="2"/>
<path d="M12.9999 151L21 143L20.9999 151L12.9999 151Z" fill="black" fill-opacity="0.38" stroke="black" stroke-width="2" stroke-linejoin="bevel"/>
<path d="M205 143L225 143L225 159L217 167.5L225 175L225.001 191L215.001 191L205.001 191L205 143Z" fill="#909253"/>
<path d="M205 143L225 143L225 159L217 167.5L225 175L225.001 191L215.001 191L205.001 191L205 143Z" fill="black" fill-opacity="0.2"/>
<path d="M205 143L225 143L225 159L217 167.5L225 175L225.001 191L215.001 191L205.001 191L205 143Z" stroke="black" stroke-width="2"/>
<path d="M213.002 151L205.002 143L205.002 151L213.002 151Z" fill="black" fill-opacity="0.38" stroke="black" stroke-width="2" stroke-linejoin="bevel"/>
<path d="M212.99 150.977L12.9902 150.977L12.9896 198.977L212.99 198.977L212.99 150.977Z" fill="#909253" stroke="black" stroke-width="2"/>
<path d="M29.2791 184.452L31.4751 183.696L31.4753 166.56L29.2793 165.804L29.2794 164.256L37.7034 164.256L37.7033 165.984L35.3633 166.776L35.3632 173.724L43.1392 173.724L43.1393 166.776L40.8353 165.984L40.8354 164.256L49.2594 164.256L49.2593 165.804L47.0273 166.56L47.0271 183.696L49.2591 184.452L49.2591 186L40.835 186L40.8351 184.2L43.1391 183.48L43.1392 175.884L35.3632 175.884L35.3631 183.48L37.7031 184.2L37.703 186L29.279 186L29.2791 184.452ZM54.5451 186.36C54.4011 186.36 54.1131 186.168 53.6811 185.784C53.2492 185.376 53.0332 185.112 53.0332 184.992L53.0333 171.996L51.7013 171.564L51.7014 170.052C53.8614 169.668 55.0614 169.476 55.3014 169.476C55.4454 169.476 55.7214 169.668 56.1294 170.052C56.5374 170.412 56.7414 170.676 56.7414 170.844L56.7412 183.804L58.0372 184.2L58.0371 185.712C55.9491 186.144 54.7851 186.36 54.5451 186.36ZM52.7815 162.78L55.9135 162.6L56.5255 163.428L56.3094 166.668L53.0694 166.668L52.7815 162.78ZM66.149 186.36C65.117 186.36 64.157 186.072 63.269 185.496C62.405 184.92 61.709 184.056 61.181 182.904C60.653 181.752 60.389 180.348 60.3891 178.692C60.3891 177.492 60.4731 176.4 60.6411 175.416C60.8091 174.408 61.0251 173.628 61.2891 173.076C61.6971 172.524 62.5972 171.78 63.9892 170.844C65.4052 169.908 66.3412 169.44 66.7972 169.44C67.2532 169.44 68.2252 169.56 69.7132 169.8L69.7132 165.264L68.3813 164.76L68.3813 163.248C70.7093 162.84 71.9813 162.636 72.1973 162.636C72.3173 162.636 72.5573 162.816 72.9173 163.176C73.3013 163.512 73.4933 163.752 73.4933 163.896L73.3132 170.556L73.313 183.696L74.573 184.2L74.573 185.748C72.389 186.156 71.177 186.36 70.937 186.36C70.841 186.36 70.601 186.18 70.217 185.82C69.857 185.46 69.677 185.22 69.677 185.1L69.677 183.804C69.365 184.02 69.089 184.236 68.849 184.452C68.633 184.62 68.153 184.98 67.409 185.532C66.689 186.084 66.269 186.36 66.149 186.36ZM66.545 183.444C66.761 183.444 67.769 183 69.569 182.112L69.5691 172.428C68.8732 172.212 68.1052 172.008 67.2652 171.816C66.4492 171.624 65.9092 171.564 65.6452 171.636C65.2132 171.732 64.8891 172.272 64.6731 173.256C64.4571 174.24 64.3491 175.884 64.3491 178.188C64.349 179.34 64.469 180.312 64.709 181.104C64.973 181.896 65.273 182.484 65.609 182.868C65.969 183.252 66.281 183.444 66.545 183.444ZM82.7075 186.36C81.6755 186.36 80.7155 186.072 79.8276 185.496C78.9636 184.92 78.2676 184.056 77.7396 182.904C77.2116 181.752 76.9476 180.348 76.9477 178.692C76.9477 177.492 77.0317 176.4 77.1997 175.416C77.3677 174.408 77.5837 173.628 77.8477 173.076C78.2557 172.524 79.1558 171.78 80.5478 170.844C81.9638 169.908 82.8998 169.44 83.3558 169.44C83.8118 169.44 84.7838 169.56 86.2718 169.8L86.2718 165.264L84.9398 164.76L84.9399 163.248C87.2679 162.84 88.5399 162.636 88.7559 162.636C88.8759 162.636 89.1159 162.816 89.4759 163.176C89.8599 163.512 90.0519 163.752 90.0519 163.896L89.8718 170.556L89.8716 183.696L91.1316 184.2L91.1316 185.748C88.9475 186.156 87.7355 186.36 87.4955 186.36C87.3995 186.36 87.1595 186.18 86.7756 185.82C86.4156 185.46 86.2356 185.22 86.2356 185.1L86.2356 183.804C85.9236 184.02 85.6476 184.236 85.4076 184.452C85.1916 184.62 84.7116 184.98 83.9676 185.532C83.2475 186.084 82.8275 186.36 82.7075 186.36ZM83.1036 183.444C83.3196 183.444 84.3276 183 86.1276 182.112L86.1277 172.428C85.4317 172.212 84.6637 172.008 83.8238 171.816C83.0078 171.624 82.4678 171.564 82.2038 171.636C81.7718 171.732 81.4477 172.272 81.2317 173.256C81.0157 174.24 80.9077 175.884 80.9077 178.188C80.9076 179.34 81.0276 180.312 81.2676 181.104C81.5316 181.896 81.8316 182.484 82.1676 182.868C82.5276 183.252 82.8396 183.444 83.1036 183.444ZM99.7341 186.36C98.6061 186.36 97.5621 186.072 96.6021 185.496C95.6662 184.92 94.9102 184.056 94.3342 182.904C93.7822 181.752 93.5062 180.348 93.5062 178.692C93.5063 177.516 93.5903 176.412 93.7583 175.38C93.9263 174.348 94.1423 173.58 94.4063 173.076C94.6703 172.716 95.1983 172.236 95.9903 171.636C96.7824 171.012 97.5744 170.472 98.3664 170.016C99.1824 169.56 99.7464 169.332 100.058 169.332C101.378 169.332 102.458 169.548 103.298 169.98C104.138 170.412 104.786 171.228 105.242 172.428C105.698 173.604 105.926 175.272 105.926 177.432L97.4303 178.152C97.4302 179.472 97.5982 180.528 97.9342 181.32C98.2942 182.112 98.7142 182.676 99.1942 183.012C99.6742 183.348 100.13 183.516 100.562 183.516L105.386 183.336L105.386 184.956C104.546 185.244 103.478 185.556 102.182 185.892C100.886 186.204 100.07 186.36 99.7341 186.36ZM102.074 175.884C102.074 173.052 101.33 171.624 99.8423 171.6L99.5543 171.6C99.1703 171.6 98.8223 171.66 98.5103 171.78C98.2223 171.876 97.9823 172.404 97.7903 173.364C97.5983 174.3 97.5023 175.344 97.5023 176.496L102.074 175.884ZM110.79 186.36C110.67 186.36 110.418 186.18 110.034 185.82C109.674 185.46 109.494 185.22 109.494 185.1L109.494 172.104L108.162 171.564L108.162 170.052C110.418 169.668 111.666 169.476 111.906 169.476C112.026 169.476 112.254 169.656 112.59 170.016C112.926 170.352 113.094 170.58 113.094 170.7L113.094 171.96C113.79 171.432 114.546 170.892 115.362 170.34C116.178 169.764 116.634 169.476 116.73 169.476C118.482 169.476 119.802 169.92 120.69 170.808C121.578 171.672 122.022 173.196 122.022 175.38L122.022 183.66L123.318 184.2L123.318 185.712C121.086 186.144 119.862 186.36 119.646 186.36C119.526 186.36 119.262 186.18 118.854 185.82C118.47 185.46 118.278 185.22 118.278 185.1L118.278 175.38C118.278 173.364 117.654 172.356 116.406 172.356C116.286 172.356 115.962 172.464 115.434 172.68C114.93 172.896 114.558 173.052 114.318 173.148C114.078 173.268 113.718 173.424 113.238 173.616L113.238 183.66L114.498 184.2L114.498 185.712C112.266 186.144 111.03 186.36 110.79 186.36ZM136.875 186.36C135.915 186.36 135.027 186.072 134.211 185.496C133.395 184.92 132.735 184.056 132.231 182.904C131.727 181.752 131.475 180.348 131.475 178.692C131.475 177.54 131.559 176.448 131.727 175.416C131.895 174.384 132.111 173.616 132.375 173.112C132.639 172.752 133.155 172.284 133.923 171.708C134.691 171.108 135.459 170.58 136.227 170.124C137.019 169.668 137.559 169.44 137.847 169.44C138.423 169.44 139.083 169.512 139.827 169.656C140.595 169.776 141.315 169.944 141.987 170.16L141.879 174.948L139.503 174.948L138.963 172.392C138.699 172.248 138.363 172.116 137.955 171.996C137.571 171.876 137.223 171.816 136.911 171.816C136.695 171.816 136.527 171.864 136.407 171.96C136.095 172.2 135.855 172.884 135.687 174.012C135.519 175.116 135.435 176.484 135.435 178.116C135.435 179.292 135.555 180.288 135.795 181.104C136.059 181.896 136.383 182.484 136.767 182.868C137.151 183.252 137.535 183.444 137.919 183.444L141.987 183.444L141.987 185.1C141.027 185.388 140.019 185.676 138.963 185.964C137.907 186.228 137.211 186.36 136.875 186.36ZM146.506 186.36C146.386 186.36 146.134 186.18 145.75 185.82C145.39 185.46 145.21 185.22 145.21 185.1L145.211 165.264L143.915 164.76L143.915 163.248C146.195 162.84 147.455 162.636 147.695 162.636C147.815 162.636 148.055 162.816 148.415 163.176C148.775 163.512 148.955 163.752 148.955 163.896L148.774 171.888L148.954 171.924C149.651 171.396 150.383 170.856 151.151 170.304C151.943 169.752 152.387 169.476 152.483 169.476C154.259 169.476 155.579 169.92 156.443 170.808C157.331 171.672 157.774 173.196 157.774 175.38L157.774 183.66L159.07 184.2L159.07 185.712C156.814 186.144 155.578 186.36 155.362 186.36C155.242 186.36 154.99 186.18 154.606 185.82C154.222 185.46 154.03 185.22 154.03 185.1L154.03 175.38C154.03 174.084 153.826 173.256 153.418 172.896C153.034 172.536 152.59 172.356 152.086 172.356C151.99 172.356 151.282 172.632 149.962 173.184C149.794 173.256 149.614 173.34 149.422 173.436C149.254 173.508 149.098 173.568 148.954 173.616L148.954 183.66L150.25 184.2L150.25 185.712C147.994 186.144 146.746 186.36 146.506 186.36ZM167.691 186.36C166.563 186.36 165.519 186.072 164.559 185.496C163.623 184.92 162.867 184.056 162.291 182.904C161.739 181.752 161.463 180.348 161.463 178.692C161.463 177.516 161.547 176.412 161.715 175.38C161.883 174.348 162.099 173.58 162.363 173.076C162.627 172.716 163.155 172.236 163.947 171.636C164.739 171.012 165.531 170.472 166.323 170.016C167.139 169.56 167.703 169.332 168.015 169.332C169.335 169.332 170.415 169.548 171.255 169.98C172.095 170.412 172.743 171.228 173.199 172.428C173.655 173.604 173.883 175.272 173.883 177.432L165.387 178.152C165.387 179.472 165.555 180.528 165.891 181.32C166.251 182.112 166.671 182.676 167.151 183.012C167.631 183.348 168.087 183.516 168.519 183.516L173.343 183.336L173.343 184.956C172.503 185.244 171.435 185.556 170.139 185.892C168.843 186.204 168.027 186.36 167.691 186.36ZM170.031 175.884C170.031 173.052 169.287 171.624 167.799 171.6L167.511 171.6C167.127 171.6 166.779 171.66 166.467 171.78C166.179 171.876 165.939 172.404 165.747 173.364C165.555 174.3 165.459 175.344 165.459 176.496L170.031 175.884ZM183.103 186.36C182.575 186.36 181.519 186.3 179.935 186.18C178.375 186.084 177.175 185.988 176.335 185.892L176.407 180.528L178.387 180.492L179.143 183.264C179.671 183.456 180.319 183.636 181.087 183.804C181.879 183.948 182.455 184.02 182.815 184.02C183.007 184.02 183.223 183.78 183.463 183.3C183.703 182.796 183.823 182.364 183.823 182.004C183.823 181.428 183.631 180.972 183.247 180.636C182.887 180.3 182.131 179.82 180.979 179.196C180.691 179.052 180.475 178.932 180.331 178.836C178.843 178.02 177.811 177.3 177.235 176.676C176.683 176.052 176.407 175.308 176.407 174.444C176.407 173.628 176.479 173.028 176.623 172.644C177.031 172.02 177.691 171.336 178.603 170.592C179.539 169.848 180.211 169.476 180.619 169.476C181.459 169.476 182.527 169.512 183.823 169.584C185.143 169.632 186.139 169.692 186.811 169.764L186.703 174.3L184.507 174.3L184.255 172.392C184.063 172.32 183.439 172.2 182.383 172.032C181.351 171.864 180.715 171.78 180.475 171.78C179.995 171.78 179.755 172.236 179.755 173.148C179.755 173.58 179.935 173.964 180.295 174.3C180.655 174.612 181.051 174.9 181.483 175.164C181.915 175.428 182.215 175.608 182.383 175.704L183.247 176.208C184.567 176.928 185.623 177.624 186.415 178.296C187.207 178.968 187.603 179.724 187.603 180.564C187.603 181.188 187.519 181.824 187.351 182.472C186.967 183.192 186.295 184.02 185.335 184.956C184.375 185.892 183.631 186.36 183.103 186.36ZM193.548 186.36C193.26 186.36 192.9 186.18 192.468 185.82C192.036 185.46 191.652 185.04 191.316 184.56C190.98 184.08 190.812 183.696 190.812 183.408L190.812 171.888L188.472 171.888L188.472 170.592L190.812 169.476L193.152 166.704C193.368 166.68 193.836 166.848 194.556 167.208L194.556 169.8L198.084 169.8L198.084 172.032L194.556 172.032L194.556 181.824C194.556 182.52 194.616 183 194.736 183.264C194.856 183.504 195.084 183.624 195.42 183.624L198.444 183.732L198.444 185.64C197.7 185.808 196.764 185.964 195.636 186.108C194.532 186.276 193.836 186.36 193.548 186.36Z" fill="black" fill-opacity="0.6"/>
<defs>
<linearGradient id="paint0_linear_3654_100690" x1="113" y1="57.25" x2="113" y2="171" gradientUnits="userSpaceOnUse">
<stop stop-color="#AC8B16"/>
<stop offset="1" stop-color="#FFC700" stop-opacity="0.72"/>
</linearGradient>
</defs>
</svg>
