<svg width="2000" height="1200" viewBox="0 0 2000 1200" fill="none" xmlns="http://www.w3.org/2000/svg">
<mask id="mask0_3946_45119" style="mask-type:alpha" maskUnits="userSpaceOnUse" x="16" y="9" width="1969" height="1185">
<path d="M169 136L47 107H96C96 107 70.7927 57.5102 82 40C105.232 3.70222 206 58 206 58L185 23L314 45L302 23L589 40L603 15L949 45L927 23H1265V45L1443 23V45L1551 9V34L1911 9V69L1973 34L1963 85L1985 69L1973 169L1985 179L1973 452H1985L1963 681L1979 700L1946 730L1985 747L1963 758L1985 774L1953 899L1985 934H1911L1973 1099L1911 1075L1902 1171L1748 1139L1801 1177L1683 1165L1741 1187L1593 1165L1509 1187L1459 1153L1443 1177L1273 1153V1177L1075 1139L1079 1177L1027 1165L969 1194V1177H691V1136L653 1170L531 1131V1187L130 1153L165 1095H93L80 1109V1095L47 1131L139 969L16 1084L93 962L35 995L58 956L24 969L88 566L24 563H50.5L29.4867 371L96 373V360L104 352C104 352 58.7491 285.402 88 229C121.801 163.825 229 192 229 192L58 147L169 136Z" fill="white"/>
</mask>
<g mask="url(#mask0_3946_45119)">
<rect width="2000" height="1200" fill="url(#paint0_linear_3946_45119)"/>
<rect x="1160" y="340" width="2" height="2" fill="#D9D9D9"/>
<rect x="896" y="268" width="2" height="2" fill="#D9D9D9"/>
<rect x="440" y="460" width="2" height="2" fill="#D9D9D9"/>
<rect width="2" height="2" transform="matrix(-1 0 0 1 1126 555)" fill="#D9D9D9"/>
<rect width="2" height="2" transform="matrix(-1 0 0 1 1234 500)" fill="#D9D9D9"/>
<path d="M2009 764V633H-9V764H2009Z" fill="#CAC8A6"/>
<path d="M2009 764V633H-9V764H2009Z" fill="black" fill-opacity="0.2"/>
<path d="M2009 764V633H-9V764H2009Z" stroke="black" stroke-width="2"/>
<path fill-rule="evenodd" clip-rule="evenodd" d="M846 611C849.565 604.762 845.06 597 837.875 597H826C821.558 597 817.68 599.413 815.605 603H806.482C798.105 603 791.958 610.873 793.99 619H789C782.373 619 777 624.373 777 631V640H814H822H834H860H863C867.971 640 872 635.971 872 631C872 626.029 867.971 622 863 622H860V619.5V619C860 614.582 856.418 611 852 611H846Z" fill="#8E7054"/>
<path d="M846 611V612H844.277L845.132 610.504L846 611ZM815.605 603L816.471 603.501L816.182 604H815.605V603ZM793.99 619L794.96 618.757L795.271 620H793.99V619ZM777 640V641H776V640H777ZM860 622V623H859V622H860ZM837.875 596C845.828 596 850.814 604.591 846.868 611.496L845.132 610.504C848.315 604.932 844.292 598 837.875 598V596ZM826 596H837.875V598H826V596ZM814.74 602.499C816.986 598.616 821.187 596 826 596V598C821.93 598 818.374 600.21 816.471 603.501L814.74 602.499ZM806.482 602H815.605V604H806.482V602ZM793.02 619.243C790.83 610.484 797.454 602 806.482 602V604C798.755 604 793.086 611.261 794.96 618.757L793.02 619.243ZM789 618H793.99V620H789V618ZM776 631C776 623.82 781.82 618 789 618V620C782.925 620 778 624.925 778 631H776ZM776 640V631H778V640H776ZM814 641H777V639H814V641ZM822 641H814V639H822V641ZM834 641H822V639H834V641ZM834 639H860V641H834V639ZM860 639H863V641H860V639ZM863 639C867.418 639 871 635.418 871 631H873C873 636.523 868.523 641 863 641V639ZM871 631C871 626.582 867.418 623 863 623V621C868.523 621 873 625.477 873 631H871ZM863 623H860V621H863V623ZM861 619.5V622H859V619.5H861ZM861 619V619.5H859V619H861ZM852 610C856.971 610 861 614.029 861 619H859C859 615.134 855.866 612 852 612V610ZM846 610H852V612H846V610Z" fill="black"/>
<path d="M841 611H838.5C834.91 611 832 613.91 832 617.5V617.5V622L831.222 621.308C828.036 618.476 823 620.738 823 625V625" stroke="black" stroke-width="2"/>
<path d="M805 619V619C811.075 619 816 623.925 816 630V639V612" stroke="black" stroke-width="2"/>
<path opacity="0.5" d="M821 603H824C828.418 603 832 606.582 832 611V617" stroke="black" stroke-width="2"/>
<rect x="850" y="637" width="2" height="4" fill="black"/>
<rect x="852" y="637" width="2" height="4" fill="#8E7054"/>
<rect x="846" y="637" width="2" height="4" fill="black"/>
<rect x="848" y="637" width="2" height="4" fill="#8E7054"/>
<rect x="842" y="637" width="2" height="4" fill="black"/>
<rect x="844" y="637" width="2" height="4" fill="#8E7054"/>
<rect x="801" y="637" width="2" height="4" fill="black"/>
<rect x="803" y="637" width="2" height="4" fill="#8E7054"/>
<rect x="811" y="602" width="2" height="4" fill="black"/>
<rect x="813" y="602" width="2" height="4" fill="#8E7054"/>
<rect x="833" y="596" width="2" height="4" fill="black"/>
<rect x="835" y="596" width="2" height="4" fill="#8E7054"/>
<rect x="849" y="610" width="2" height="4" fill="black"/>
<rect x="851" y="610" width="2" height="4" fill="#8E7054"/>
<rect x="859" y="621" width="2" height="4" fill="black"/>
<rect x="861" y="621" width="2" height="4" fill="#8E7054"/>
<path d="M1014 536H1002V548M1014 536V548H1002M1014 536L1002 548" stroke="black" stroke-width="2"/>
<path d="M1014 524H1002V536M1014 524V536H1002M1014 524L1002 536" stroke="black" stroke-width="2"/>
<path d="M1014 512H1002V524M1014 512V524H1002M1014 512L1002 524" stroke="black" stroke-width="2"/>
<path d="M1014 500H1002V512M1014 500V512H1002M1014 500L1002 512" stroke="black" stroke-width="2"/>
<path d="M1014 488H1002V500M1014 488V500H1002M1014 488L1002 500" stroke="black" stroke-width="2"/>
<path d="M1014 476H1002V488M1014 476V488H1002M1014 476L1002 488" stroke="black" stroke-width="2"/>
<path d="M1014 464H1002V476M1014 464V476H1002M1014 464L1002 476" stroke="black" stroke-width="2"/>
<path d="M1014 452H1002V464M1014 452V464H1002M1014 452L1002 464" stroke="black" stroke-width="2"/>
<rect x="981" y="455" width="5" height="12" fill="#323232" stroke="black" stroke-width="2"/>
<rect x="986" y="455" width="5" height="12" fill="#323232" stroke="black" stroke-width="2"/>
<rect x="991" y="455" width="5" height="12" fill="#323232" stroke="black" stroke-width="2"/>
<path d="M978 464H1021V458H978" stroke="black" stroke-width="2"/>
<rect x="1009" y="435" width="18" height="2" transform="rotate(90 1009 435)" fill="black"/>
<circle cx="1014" cy="464" r="4" fill="#2E2E2E" stroke="black" stroke-width="2"/>
<path d="M932 564H944V574H929V570L932 567V564Z" fill="#7F8080" stroke="black" stroke-width="2"/>
<path d="M972 548H1084V580H1199V644H972V548Z" fill="#9E9FA0"/>
<path d="M1084 580V548H972V644H1199V580H1084ZM1084 580H1026V644" stroke="black" stroke-width="2"/>
<path d="M1199 572H1223V685H1199V572Z" fill="#9E9FA0" stroke="black" stroke-width="2"/>
<path d="M794.731 620L772.425 636L21 657V705H416.927H2009V657L1304.97 631L1288.25 642H1271.52V636H1024.76L1002.45 620H843.525H794.731Z" fill="#888564"/>
<path d="M21 705V657L772.425 636L794.731 620H843.525H1002.45L1024.76 636H1271.52V642H1288.25L1304.97 631L2009 657V705H416.927M21 705H416.927M21 705L697.579 644.312M416.927 705L733.564 644.625" stroke="black" stroke-width="2"/>
<path opacity="0.2" d="M964 641C964 641 950.559 642.094 942.421 643.769C934.878 645.322 924 649 924 649" stroke="black" stroke-width="2"/>
<path opacity="0.2" d="M976 653C976 653 962.559 654.094 954.421 655.769C946.878 657.322 936 661 936 661" stroke="black" stroke-width="2"/>
<path opacity="0.2" d="M968 645C968 645 954.559 646.094 946.421 647.769C938.878 649.322 928 653 928 653" stroke="black" stroke-width="2"/>
<path opacity="0.2" d="M980 657C980 657 966.559 658.094 958.421 659.769C950.878 661.322 940 665 940 665" stroke="black" stroke-width="2"/>
<path opacity="0.2" d="M972 649C972 649 958.559 650.094 950.421 651.769C942.878 653.322 932 657 932 657" stroke="black" stroke-width="2"/>
<path opacity="0.2" d="M984 661C984 661 970.559 662.094 962.421 663.769C954.878 665.322 944 669 944 669" stroke="black" stroke-width="2"/>
<path opacity="0.2" d="M1020 641C1020 641 1006.56 642.094 998.421 643.769C990.878 645.322 980 649 980 649" stroke="black" stroke-width="2"/>
<path opacity="0.2" d="M1032 653C1032 653 1018.56 654.094 1010.42 655.769C1002.88 657.322 992 661 992 661" stroke="black" stroke-width="2"/>
<path opacity="0.2" d="M1024 645C1024 645 1010.56 646.094 1002.42 647.769C994.878 649.322 984 653 984 653" stroke="black" stroke-width="2"/>
<path opacity="0.2" d="M1036 657C1036 657 1022.56 658.094 1014.42 659.769C1006.88 661.322 996 665 996 665" stroke="black" stroke-width="2"/>
<path opacity="0.2" d="M1028 649C1028 649 1014.56 650.094 1006.42 651.769C998.878 653.322 988 657 988 657" stroke="black" stroke-width="2"/>
<path opacity="0.2" d="M1040 661C1040 661 1026.56 662.094 1018.42 663.769C1010.88 665.322 1000 669 1000 669" stroke="black" stroke-width="2"/>
<path d="M920 656H923H936L932 661H916L920 656Z" fill="#773C3C"/>
<path d="M936 656L932 661H940L936 656Z" fill="#773C3C"/>
<path d="M936 656L932 661M936 656L940 661H932M936 656H923M932 661H916L920 656H923M923 656V652" stroke="black" stroke-width="2"/>
<path d="M917 661H931H939V669H931H917V661Z" fill="#D9D9D9"/>
<path d="M931 661H917V669H931M931 661H939V669H931M931 661V669" stroke="black" stroke-width="2"/>
<path d="M937 669.073V665H1016L1016 683H868V669.073H937Z" fill="#9E9FA0" stroke="black" stroke-width="2"/>
<path d="M855.765 669V667.992C855.765 664.315 852.488 661.503 848.854 662.062L846 662.5V665H842C838.686 665 836 667.686 836 671V677H860V669H855.765Z" fill="#828D55" stroke="black" stroke-width="2"/>
<path d="M830.969 673H752V705H1283V689H1080.24V684L830.969 673Z" fill="#9E9FA0" stroke="black" stroke-width="2"/>
<rect x="892" y="572" width="112" height="48" fill="#9E9FA0" stroke="black" stroke-width="2"/>
<rect x="980" y="572" width="24" height="48" fill="#9E9FA0"/>
<rect x="980" y="572" width="24" height="48" fill="black" fill-opacity="0.15"/>
<rect x="980" y="572" width="24" height="48" stroke="black" stroke-width="2"/>
<path d="M944 564H972V572H940L944 564Z" fill="#6A322A" stroke="black" stroke-width="2"/>
<path d="M1113 572H1085V580H1117L1113 572Z" fill="#6A322A" stroke="black" stroke-width="2"/>
<path d="M1077 572H1105V580H1073L1077 572Z" fill="#6A322A" stroke="black" stroke-width="2"/>
<path d="M1023 540H1051L1047 548H1019L1023 540Z" fill="#4A3131"/>
<path d="M1051 540L1047 548H1055L1051 540Z" fill="#4A3131"/>
<path d="M1051 540H1023L1019 548H1047M1051 540L1047 548M1051 540L1055 548H1047" stroke="black" stroke-width="2"/>
<path fill-rule="evenodd" clip-rule="evenodd" d="M1291 665C1291 662.239 1293.24 660 1296 660H1306C1308.21 660 1310 661.791 1310 664V673C1310.58 669.538 1313.57 667 1317.08 667H1321.03C1325.78 667 1329.46 671.181 1328.85 675.9L1327.8 684.048C1326.77 692.026 1319.98 698 1311.93 698H1306H1297H1273V680C1273 675.582 1276.58 672 1281 672H1285V671C1285 667.686 1287.69 665 1291 665ZM1332 693C1332 686.373 1337.37 681 1344 681H1352C1358.63 681 1364 686.373 1364 693V697H1332V693Z" fill="#866D55"/>
<path d="M1291 665V666H1292V665H1291ZM1310 673H1309L1310.99 673.164L1310 673ZM1328.85 675.9L1327.86 675.772L1328.85 675.9ZM1327.8 684.048L1328.79 684.176L1327.8 684.048ZM1273 698H1272V699H1273V698ZM1285 672V673H1286V672H1285ZM1364 697V698H1365V697H1364ZM1332 697H1331V698H1332V697ZM1296 659C1292.69 659 1290 661.686 1290 665H1292C1292 662.791 1293.79 661 1296 661V659ZM1306 659H1296V661H1306V659ZM1311 664C1311 661.239 1308.76 659 1306 659V661C1307.66 661 1309 662.343 1309 664H1311ZM1311 673V664H1309V673H1311ZM1317.08 666C1313.08 666 1309.67 668.891 1309.01 672.836L1310.99 673.164C1311.48 670.184 1314.06 668 1317.08 668V666ZM1321.03 666H1317.08V668H1321.03V666ZM1329.84 676.028C1330.53 670.71 1326.39 666 1321.03 666V668C1325.18 668 1328.39 671.651 1327.86 675.772L1329.84 676.028ZM1328.79 684.176L1329.84 676.028L1327.86 675.772L1326.81 683.92L1328.79 684.176ZM1311.93 699C1320.48 699 1327.7 692.653 1328.79 684.176L1326.81 683.92C1325.84 691.4 1319.47 697 1311.93 697V699ZM1306 699H1311.93V697H1306V699ZM1306 697H1297V699H1306V697ZM1297 697H1273V699H1297V697ZM1274 698V680H1272V698H1274ZM1274 680C1274 676.134 1277.13 673 1281 673V671C1276.03 671 1272 675.029 1272 680H1274ZM1281 673H1285V671H1281V673ZM1284 671V672H1286V671H1284ZM1291 664C1287.13 664 1284 667.134 1284 671H1286C1286 668.239 1288.24 666 1291 666V664ZM1344 680C1336.82 680 1331 685.82 1331 693H1333C1333 686.925 1337.92 682 1344 682V680ZM1352 680H1344V682H1352V680ZM1365 693C1365 685.82 1359.18 680 1352 680V682C1358.08 682 1363 686.925 1363 693H1365ZM1365 697V693H1363V697H1365ZM1332 698H1364V696H1332V698ZM1331 693V697H1333V693H1331Z" fill="black"/>
<path opacity="0.5" d="M1293 685H1295C1299.42 685 1303 688.582 1303 693V696V679" stroke="black" stroke-width="2"/>
<path d="M1286 672V672C1290.42 672 1294 675.582 1294 680V681" stroke="black" stroke-width="2"/>
<rect width="2" height="4" transform="matrix(-1 0 0 1 1347 680)" fill="black"/>
<rect width="2" height="4" transform="matrix(-1 0 0 1 1345 680)" fill="#866D55"/>
<rect width="2" height="4" transform="matrix(-1 0 0 1 1312 693)" fill="black"/>
<rect width="2" height="4" transform="matrix(-1 0 0 1 1310 693)" fill="#866D55"/>
<rect width="2" height="4" transform="matrix(-1 0 0 1 1286 671)" fill="black"/>
<rect width="2" height="4" transform="matrix(-1 0 0 1 1284 671)" fill="#866D55"/>
<rect width="2" height="4" transform="matrix(-1 0 0 1 1300 659)" fill="black"/>
<rect width="2" height="4" transform="matrix(-1 0 0 1 1298 659)" fill="#866D55"/>
<rect width="2" height="4" transform="matrix(-1 0 0 1 1304 659)" fill="black"/>
<rect width="2" height="4" transform="matrix(-1 0 0 1 1302 659)" fill="#866D55"/>
<rect width="2" height="4" transform="matrix(-1 0 0 1 1316 693)" fill="black"/>
<rect width="2" height="4" transform="matrix(-1 0 0 1 1314 693)" fill="#866D55"/>
<path fill-rule="evenodd" clip-rule="evenodd" d="M1024 653C1024 648.582 1027.58 645 1032 645H1041C1044.87 645 1048 648.134 1048 652H1066C1069.31 652 1072 654.686 1072 658V659H1077.93C1085.31 659 1090.94 665.605 1089.78 672.896L1089.62 673.896C1088.69 679.717 1083.66 684 1077.77 684H1072H1065H1037V688H1025C1018.37 688 1013 682.627 1013 676V672C1013 667.582 1016.58 664 1021 664H1024V662.5V653Z" fill="#9A885A"/>
<path d="M1048 652H1047V653H1048V652ZM1072 659H1071V660H1072V659ZM1089.78 672.896L1088.79 672.738V672.738L1089.78 672.896ZM1089.62 673.896L1090.6 674.054V674.054L1089.62 673.896ZM1037 684V683H1036V684H1037ZM1037 688V689H1038V688H1037ZM1024 664V665H1025V664H1024ZM1032 644C1027.03 644 1023 648.029 1023 653H1025C1025 649.134 1028.13 646 1032 646V644ZM1041 644H1032V646H1041V644ZM1049 652C1049 647.582 1045.42 644 1041 644V646C1044.31 646 1047 648.686 1047 652H1049ZM1066 651H1048V653H1066V651ZM1073 658C1073 654.134 1069.87 651 1066 651V653C1068.76 653 1071 655.239 1071 658H1073ZM1073 659V658H1071V659H1073ZM1077.93 658H1072V660H1077.93V658ZM1090.76 673.054C1092.03 665.155 1085.93 658 1077.93 658V660C1084.7 660 1089.86 666.054 1088.79 672.738L1090.76 673.054ZM1090.6 674.054L1090.76 673.054L1088.79 672.738L1088.63 673.738L1090.6 674.054ZM1077.77 685C1084.15 685 1089.6 680.361 1090.6 674.054L1088.63 673.738C1087.78 679.074 1083.17 683 1077.77 683V685ZM1072 685H1077.77V683H1072V685ZM1065 685H1072V683H1065V685ZM1037 685H1065V683H1037V685ZM1036 684V688H1038V684H1036ZM1037 687H1025V689H1037V687ZM1025 687C1018.92 687 1014 682.075 1014 676H1012C1012 683.18 1017.82 689 1025 689V687ZM1014 676V672H1012V676H1014ZM1014 672C1014 668.134 1017.13 665 1021 665V663C1016.03 663 1012 667.029 1012 672H1014ZM1021 665H1024V663H1021V665ZM1023 662.5V664H1025V662.5H1023ZM1023 653V662.5H1025V653H1023Z" fill="black"/>
<path opacity="0.5" d="M1057 674V667C1057 662.582 1060.58 659 1065 659H1068" stroke="black" stroke-width="2"/>
<path opacity="0.5" d="M1027 671L1029 671C1033.42 671 1037 674.582 1037 679L1037 683L1037 654" stroke="black" stroke-width="2"/>
<path d="M1057 675L1057 672C1057 667.582 1053.42 664 1049 664L1042 664" stroke="black" stroke-width="2"/>
<path d="M1048 657L1048 660C1048 662.209 1046.21 664 1044 664L1040 664" stroke="black" stroke-width="2"/>
<rect width="2" height="4" transform="matrix(-1 0 0 1 1058 681)" fill="black"/>
<rect width="2" height="4" transform="matrix(-1 0 0 1 1056 681)" fill="#9A885A"/>
<rect width="2" height="4" transform="matrix(-1 0 0 1 1077 658)" fill="black"/>
<rect width="2" height="4" transform="matrix(-1 0 0 1 1075 658)" fill="#9A885A"/>
<rect width="2" height="4" transform="matrix(-1 0 0 1 1053 651)" fill="black"/>
<rect width="2" height="4" transform="matrix(-1 0 0 1 1051 651)" fill="#9A885A"/>
<rect width="2" height="4" transform="matrix(-1 0 0 1 1036 644)" fill="black"/>
<rect width="2" height="4" transform="matrix(-1 0 0 1 1034 644)" fill="#9A885A"/>
<rect width="2" height="4" transform="matrix(-1 0 0 1 1042 644)" fill="black"/>
<rect width="2" height="4" transform="matrix(-1 0 0 1 1040 644)" fill="#9A885A"/>
<rect width="2" height="4" transform="matrix(-1 0 0 1 1023 663)" fill="black"/>
<rect width="2" height="4" transform="matrix(-1 0 0 1 1021 663)" fill="#9A885A"/>
<path d="M1263.24 693V691.992C1263.24 688.315 1266.51 685.503 1270.15 686.062L1273 686.5V689H1277C1280.31 689 1283 691.686 1283 695V701H1259V693H1263.24Z" fill="#828D55" stroke="black" stroke-width="2"/>
<path d="M989 697H1005L1001 705H985L989 697Z" fill="#595652"/>
<path d="M1005 697L1001 705H1009L1005 697Z" fill="#595652"/>
<path d="M1005 697H989L985 705H1001M1005 697L1001 705M1005 697L1009 705H1001" stroke="black" stroke-width="2"/>
<path d="M-8 1207V650.087C-7.79739 650.104 -7.56667 650.123 -7.30813 650.144C-6.13338 650.241 -4.3841 650.386 -2.08575 650.575C2.51094 650.952 9.30391 651.506 18.0895 652.211C35.6607 653.623 61.2025 655.643 93.0857 658.076C156.852 662.943 245.984 669.463 347.45 676.08C550.375 689.313 802.649 702.932 999.992 704.467C1197.19 706 1449.46 696.324 1652.42 686.266C1753.91 681.236 1843.07 676.111 1906.86 672.243C1938.75 670.309 1964.3 668.689 1981.88 667.553C1990.67 666.985 1997.47 666.538 2002.07 666.233C2004.37 666.08 2006.12 665.963 2007.29 665.884L2008 665.836V1207H-8Z" fill="#A9A995"/>
<path d="M-8 1207V650.087C-7.79739 650.104 -7.56667 650.123 -7.30813 650.144C-6.13338 650.241 -4.3841 650.386 -2.08575 650.575C2.51094 650.952 9.30391 651.506 18.0895 652.211C35.6607 653.623 61.2025 655.643 93.0857 658.076C156.852 662.943 245.984 669.463 347.45 676.08C550.375 689.313 802.649 702.932 999.992 704.467C1197.19 706 1449.46 696.324 1652.42 686.266C1753.91 681.236 1843.07 676.111 1906.86 672.243C1938.75 670.309 1964.3 668.689 1981.88 667.553C1990.67 666.985 1997.47 666.538 2002.07 666.233C2004.37 666.08 2006.12 665.963 2007.29 665.884L2008 665.836V1207H-8Z" fill="url(#paint1_linear_3946_45119)" fill-opacity="0.2"/>
<path d="M-8 1207V650.087C-7.79739 650.104 -7.56667 650.123 -7.30813 650.144C-6.13338 650.241 -4.3841 650.386 -2.08575 650.575C2.51094 650.952 9.30391 651.506 18.0895 652.211C35.6607 653.623 61.2025 655.643 93.0857 658.076C156.852 662.943 245.984 669.463 347.45 676.08C550.375 689.313 802.649 702.932 999.992 704.467C1197.19 706 1449.46 696.324 1652.42 686.266C1753.91 681.236 1843.07 676.111 1906.86 672.243C1938.75 670.309 1964.3 668.689 1981.88 667.553C1990.67 666.985 1997.47 666.538 2002.07 666.233C2004.37 666.08 2006.12 665.963 2007.29 665.884L2008 665.836V1207H-8Z" stroke="black" stroke-width="2"/>
<path d="M860 556H884V620H860V556Z" fill="#9E9FA0" stroke="black" stroke-width="2"/>
<rect x="867" y="552" width="26" height="4" fill="#9E9FA0"/>
<rect x="867" y="552" width="26" height="4" fill="black" fill-opacity="0.2"/>
<rect x="867" y="552" width="26" height="4" stroke="black" stroke-width="2"/>
<rect x="995" y="544" width="26" height="4" fill="#9E9FA0"/>
<rect x="995" y="544" width="26" height="4" fill="black" fill-opacity="0.2"/>
<rect x="995" y="544" width="26" height="4" stroke="black" stroke-width="2"/>
<rect x="867" y="552" width="20" height="4" fill="#9E9FA0" stroke="black" stroke-width="2"/>
<rect x="995" y="544" width="20" height="4" fill="#9E9FA0" stroke="black" stroke-width="2"/>
<path d="M884 556H898V572H892V620H884V612V556Z" fill="#9E9FA0"/>
<path d="M884 556H898V572H892V620H884V612V556Z" fill="black" fill-opacity="0.15"/>
<path d="M884 620H892V572H898V556H884V612V620ZM884 620H860V612" stroke="black" stroke-width="2"/>
<rect x="867" y="564" width="2" height="6" fill="black"/>
<rect x="875" y="564" width="2" height="6" fill="black"/>
<rect x="903" y="580" width="2" height="6" fill="black"/>
<rect x="919" y="580" width="2" height="6" fill="black"/>
<rect x="935" y="580" width="2" height="6" fill="black"/>
<rect x="951" y="580" width="2" height="6" fill="black"/>
<rect x="967" y="580" width="2" height="6" fill="black"/>
<rect x="943" y="664" width="2" height="4" fill="black"/>
<rect x="959" y="664" width="2" height="4" fill="black"/>
<rect x="975" y="664" width="2" height="4" fill="black"/>
<rect x="991" y="664" width="2" height="4" fill="black"/>
<rect x="1007" y="664" width="2" height="4" fill="black"/>
<rect x="945" y="664" width="2" height="4" fill="#9E9FA0"/>
<rect x="961" y="664" width="2" height="4" fill="#9E9FA0"/>
<rect x="977" y="664" width="2" height="4" fill="#9E9FA0"/>
<rect x="993" y="664" width="2" height="4" fill="#9E9FA0"/>
<rect x="1009" y="664" width="2" height="4" fill="#9E9FA0"/>
<rect x="987" y="556" width="2" height="6" fill="black"/>
<rect x="1003" y="556" width="2" height="6" fill="black"/>
<rect x="1019" y="556" width="2" height="6" fill="black"/>
<rect x="1035" y="556" width="2" height="6" fill="black"/>
<rect x="1051" y="556" width="2" height="6" fill="black"/>
<rect x="987" y="580" width="2" height="6" fill="black"/>
<rect x="995" y="580" width="2" height="6" fill="black"/>
<circle cx="844" cy="540" r="8" fill="url(#paint2_linear_3946_45119)"/>
<path d="M991 614H992H993V620H991V614Z" fill="#3D3D3D" stroke="black" stroke-width="2"/>
<g opacity="0.2">
<path d="M604 750H1004V742L849 732L1300 720V732H1327" stroke="black" stroke-width="2"/>
<rect x="938" y="729" width="2" height="7" fill="black"/>
<rect x="944" y="729" width="2" height="7" fill="black"/>
<rect x="950" y="729" width="2" height="7" fill="black"/>
<rect x="948" y="727" width="2" height="5" fill="#8D8D7C"/>
<rect x="942" y="727" width="2" height="5" fill="#8D8D7C"/>
</g>
<path d="M1066 572H1078V580H1063V578L1066 575V572Z" fill="#7F8080" stroke="black" stroke-width="2"/>
<rect x="1205" y="568" width="6" height="4" fill="#9E9FA0"/>
<rect x="1205" y="568" width="6" height="4" fill="black" fill-opacity="0.2"/>
<rect x="1205" y="568" width="6" height="4" stroke="black" stroke-width="2"/>
<rect x="1211" y="568" width="12" height="4" fill="#9E9FA0"/>
<rect x="1211" y="568" width="12" height="4" fill="black" fill-opacity="0.2"/>
<rect x="1211" y="568" width="12" height="4" stroke="black" stroke-width="2"/>
<rect x="1199" y="572" width="6" height="4" fill="#9E9FA0"/>
<rect x="1199" y="572" width="6" height="4" fill="black" fill-opacity="0.4"/>
<rect x="1199" y="572" width="6" height="4" stroke="black" stroke-width="2"/>
<rect x="1193" y="576" width="6" height="4" fill="#9E9FA0" stroke="black" stroke-width="2"/>
<g opacity="0.9">
<rect x="943" y="569" width="2" height="2" fill="#C66731"/>
<rect x="947" y="569" width="2" height="2" fill="#C66731"/>
<rect x="951" y="569" width="2" height="2" fill="#C63131"/>
<rect x="945" y="567" width="2" height="2" fill="#C66731"/>
<rect x="949" y="567" width="2" height="2" fill="#C66731"/>
<rect x="953" y="567" width="2" height="2" fill="#C63131"/>
<rect x="947" y="565" width="2" height="2" fill="#C63131"/>
<rect x="951" y="565" width="2" height="2" fill="#C63131"/>
<rect x="955" y="565" width="2" height="2" fill="#C63131"/>
</g>
<g opacity="0.9">
<rect x="955" y="569" width="2" height="2" fill="#C66731"/>
<rect x="959" y="569" width="2" height="2" fill="#C66731"/>
<rect x="963" y="569" width="2" height="2" fill="#A33E3E"/>
<rect x="957" y="567" width="2" height="2" fill="#C66731"/>
<rect x="961" y="567" width="2" height="2" fill="#C66731"/>
<rect x="965" y="567" width="2" height="2" fill="#A33E3E"/>
<rect x="959" y="565" width="2" height="2" fill="#A33E3E"/>
<rect x="963" y="565" width="2" height="2" fill="#A33E3E"/>
<rect x="967" y="565" width="2" height="2" fill="#A33E3E"/>
</g>
<g opacity="0.5">
<rect x="1034" y="545" width="2" height="2" fill="#C66731"/>
<rect x="1038" y="545" width="2" height="2" fill="#C66731"/>
<rect x="1042" y="545" width="2" height="2" fill="#C63131"/>
<rect x="1036" y="543" width="2" height="2" fill="#C66731"/>
<rect x="1040" y="543" width="2" height="2" fill="#C66731"/>
<rect x="1044" y="543" width="2" height="2" fill="#C63131"/>
<rect x="1038" y="541" width="2" height="2" fill="#C63131"/>
<rect x="1042" y="541" width="2" height="2" fill="#C63131"/>
<rect x="1046" y="541" width="2" height="2" fill="#C63131"/>
</g>
<g opacity="0.7">
<rect x="1022" y="545" width="2" height="2" fill="#C66731"/>
<rect x="1026" y="545" width="2" height="2" fill="#C66731"/>
<rect x="1030" y="545" width="2" height="2" fill="#C63131"/>
<rect x="1024" y="543" width="2" height="2" fill="#C66731"/>
<rect x="1028" y="543" width="2" height="2" fill="#C66731"/>
<rect x="1032" y="543" width="2" height="2" fill="#C63131"/>
<rect x="1026" y="541" width="2" height="2" fill="#C63131"/>
<rect x="1030" y="541" width="2" height="2" fill="#C63131"/>
<rect x="1034" y="541" width="2" height="2" fill="#C63131"/>
</g>
<g opacity="0.5">
<rect x="1090" y="577" width="2" height="2" fill="#C66731"/>
<rect x="1094" y="577" width="2" height="2" fill="#C66731"/>
<rect x="1098" y="577" width="2" height="2" fill="#C63131"/>
<rect x="1092" y="575" width="2" height="2" fill="#C66731"/>
<rect x="1096" y="575" width="2" height="2" fill="#C66731"/>
<rect x="1100" y="575" width="2" height="2" fill="#C63131"/>
<rect x="1094" y="573" width="2" height="2" fill="#C63131"/>
<rect x="1098" y="573" width="2" height="2" fill="#C63131"/>
<rect x="1102" y="573" width="2" height="2" fill="#C63131"/>
</g>
<g opacity="0.7">
<rect x="1078" y="577" width="2" height="2" fill="#C66731"/>
<rect x="1082" y="577" width="2" height="2" fill="#C66731"/>
<rect x="1086" y="577" width="2" height="2" fill="#C63131"/>
<rect x="1080" y="575" width="2" height="2" fill="#C66731"/>
<rect x="1084" y="575" width="2" height="2" fill="#C66731"/>
<rect x="1088" y="575" width="2" height="2" fill="#C63131"/>
<rect x="1082" y="573" width="2" height="2" fill="#C63131"/>
<rect x="1086" y="573" width="2" height="2" fill="#C63131"/>
<rect x="1090" y="573" width="2" height="2" fill="#C63131"/>
</g>
<path fill-rule="evenodd" clip-rule="evenodd" d="M1166 660C1162.44 653.762 1166.94 646 1174.12 646H1186C1190.44 646 1194.32 648.413 1196.39 652H1205.52C1213.9 652 1220.04 659.873 1218.01 668H1223.32C1232.54 668 1238.31 677.954 1233.74 685.954L1232 689H1198H1190H1178H1152H1149C1144.03 689 1140 684.971 1140 680C1140 675.029 1144.03 671 1149 671H1152V668.5V668C1152 663.582 1155.58 660 1160 660H1166Z" fill="#9A795A"/>
<path d="M1166 660V661H1167.72L1166.87 659.504L1166 660ZM1196.39 652L1195.53 652.501L1195.82 653H1196.39V652ZM1218.01 668L1217.04 667.757L1216.73 669H1218.01V668ZM1233.74 685.954L1232.87 685.458L1233.74 685.954ZM1232 689V690H1232.58L1232.87 689.496L1232 689ZM1152 671V672H1153V671H1152ZM1174.12 645C1166.17 645 1161.19 653.591 1165.13 660.496L1166.87 659.504C1163.68 653.932 1167.71 647 1174.12 647V645ZM1186 645H1174.12V647H1186V645ZM1197.26 651.499C1195.01 647.616 1190.81 645 1186 645V647C1190.07 647 1193.63 649.21 1195.53 652.501L1197.26 651.499ZM1205.52 651H1196.39V653H1205.52V651ZM1218.98 668.243C1221.17 659.484 1214.55 651 1205.52 651V653C1213.24 653 1218.91 660.261 1217.04 667.757L1218.98 668.243ZM1223.32 667H1218.01V669H1223.32V667ZM1234.61 686.45C1239.56 677.783 1233.3 667 1223.32 667V669C1231.77 669 1237.06 678.124 1232.87 685.458L1234.61 686.45ZM1232.87 689.496L1234.61 686.45L1232.87 685.458L1231.13 688.504L1232.87 689.496ZM1198 690H1232V688H1198V690ZM1190 690H1198V688H1190V690ZM1178 690H1190V688H1178V690ZM1178 688H1152V690H1178V688ZM1152 688H1149V690H1152V688ZM1149 688C1144.58 688 1141 684.418 1141 680H1139C1139 685.523 1143.48 690 1149 690V688ZM1141 680C1141 675.582 1144.58 672 1149 672V670C1143.48 670 1139 674.477 1139 680H1141ZM1149 672H1152V670H1149V672ZM1151 668.5V671H1153V668.5H1151ZM1151 668V668.5H1153V668H1151ZM1160 659C1155.03 659 1151 663.029 1151 668H1153C1153 664.134 1156.13 661 1160 661V659ZM1166 659H1160V661H1166V659Z" fill="black"/>
<path d="M1171 660H1173.5C1177.09 660 1180 662.91 1180 666.5V666.5V671L1180.78 670.308C1183.96 667.476 1189 669.738 1189 674V674" stroke="black" stroke-width="2"/>
<path d="M1207 668V668C1200.92 668 1196 672.925 1196 679V688V661" stroke="black" stroke-width="2"/>
<path opacity="0.5" d="M1191 652H1188C1183.58 652 1180 655.582 1180 660V666" stroke="black" stroke-width="2"/>
<rect width="2" height="4" transform="matrix(-1 0 0 1 1162 686)" fill="black"/>
<rect width="2" height="4" transform="matrix(-1 0 0 1 1160 686)" fill="#9A795A"/>
<rect width="2" height="4" transform="matrix(-1 0 0 1 1166 686)" fill="black"/>
<rect width="2" height="4" transform="matrix(-1 0 0 1 1164 686)" fill="#9A795A"/>
<rect width="2" height="4" transform="matrix(-1 0 0 1 1170 686)" fill="black"/>
<rect width="2" height="4" transform="matrix(-1 0 0 1 1168 686)" fill="#9A795A"/>
<rect width="2" height="4" transform="matrix(-1 0 0 1 1211 686)" fill="black"/>
<rect width="2" height="4" transform="matrix(-1 0 0 1 1209 686)" fill="#9A795A"/>
<rect width="2" height="4" transform="matrix(-1 0 0 1 1201 651)" fill="black"/>
<rect width="2" height="4" transform="matrix(-1 0 0 1 1199 651)" fill="#9A795A"/>
<rect width="2" height="4" transform="matrix(-1 0 0 1 1179 645)" fill="black"/>
<rect width="2" height="4" transform="matrix(-1 0 0 1 1177 645)" fill="#9A795A"/>
<rect width="2" height="4" transform="matrix(-1 0 0 1 1163 659)" fill="black"/>
<rect width="2" height="4" transform="matrix(-1 0 0 1 1161 659)" fill="#9A795A"/>
<rect width="2" height="4" transform="matrix(-1 0 0 1 1153 670)" fill="black"/>
<rect width="2" height="4" transform="matrix(-1 0 0 1 1151 670)" fill="#9A795A"/>
<rect width="2" height="4" transform="matrix(-1 0 0 1 1173 659)" fill="black"/>
<rect width="2" height="4" transform="matrix(-1 0 0 1 1171 659)" fill="#9A795A"/>
<path d="M1092.24 632V630C1092.24 626.686 1094.92 624 1098.24 624H1102V628H1106C1109.31 628 1112 630.686 1112 634V636H1102H1098H1090L1088 632H1092.24Z" fill="#9A795A"/>
<path d="M1098 636H1090L1088 632H1092.24V630C1092.24 626.686 1094.92 624 1098.24 624H1102V628H1106C1109.31 628 1112 630.686 1112 634V636H1102M1098 636V633M1098 636H1102M1102 636V633" stroke="black" stroke-width="2"/>
<rect x="1099" y="633" width="2" height="4" fill="#9A795A"/>
<rect x="1095" y="633" width="2" height="4" fill="#9A795A"/>
<path d="M1232 632V635H1218.5V631H1215V625C1215 622.791 1216.79 621 1219 621H1223V618H1224C1230.63 618 1236 623.373 1236 630V632H1232Z" fill="#828D55" stroke="black" stroke-width="2"/>
<rect x="1220" y="620" width="2" height="4" fill="#828D55"/>
<rect x="1225" y="632" width="2" height="4" fill="#828D55"/>
<rect x="1223" y="632" width="2" height="4" fill="black"/>
<path opacity="0.2" d="M1652 815L1332 847C1332 847 1423.39 856.599 1471 887C1584.69 959.604 1131 959 1131 959V982L712 1014" stroke="black" stroke-width="2"/>
</g>
<defs>
<linearGradient id="paint0_linear_3946_45119" x1="1000" y1="0" x2="1000" y2="634.5" gradientUnits="userSpaceOnUse">
<stop stop-color="#647E8D"/>
<stop offset="1" stop-color="#526773"/>
</linearGradient>
<linearGradient id="paint1_linear_3946_45119" x1="1000" y1="649" x2="1000" y2="1202.27" gradientUnits="userSpaceOnUse">
<stop/>
<stop offset="1" stop-opacity="0"/>
</linearGradient>
<linearGradient id="paint2_linear_3946_45119" x1="844" y1="532" x2="844" y2="548" gradientUnits="userSpaceOnUse">
<stop stop-color="#D6D3BE"/>
<stop offset="1" stop-color="#D6D3BE" stop-opacity="0.76"/>
</linearGradient>
</defs>
</svg>
