<svg width="1020" height="616" viewBox="0 0 1020 616" fill="none" xmlns="http://www.w3.org/2000/svg">
<g clip-path="url(#clip0_3379_8391)">
<g opacity="0.4">
<path opacity="0.5" d="M473 292L780 204H798V3H225V133H440V253L427 262H436L441 275L452 292H473Z" fill="url(#paint0_radial_3379_8391)"/>
<path d="M473 292L780 380H798V581H225V451H427V322H436L441 309L452 292H473Z" fill="url(#paint1_radial_3379_8391)"/>
<path opacity="0.5" d="M261 178L538 178" stroke="black" stroke-width="2"/>
<path d="M261 171L528 171" stroke="black" stroke-width="2"/>
<path fill-rule="evenodd" clip-rule="evenodd" d="M397.5 165.556V251.556H427.5V165.556V165.056H427.492C427.228 157.003 420.617 150.556 412.5 150.556C404.383 150.556 397.772 157.003 397.508 165.056H397.5V165.556Z" fill="#535353" fill-opacity="0.58"/>
<path d="M397.5 251.556V252.556H396.5V251.556H397.5ZM427.5 251.556H428.5V252.556H427.5V251.556ZM427.5 165.056V164.056H428.5V165.056H427.5ZM427.492 165.056V166.056H426.524L426.492 165.088L427.492 165.056ZM397.508 165.056L398.508 165.088L398.476 166.056H397.508V165.056ZM397.5 165.056H396.5V164.056H397.5V165.056ZM398.5 165.556V251.556H396.5V165.556H398.5ZM397.5 250.556H427.5V252.556H397.5V250.556ZM426.5 251.556V165.556H428.5V251.556H426.5ZM426.5 165.556V165.056H428.5V165.556H426.5ZM427.5 166.056H427.492V164.056H427.5V166.056ZM426.492 165.088C426.246 157.573 420.076 151.556 412.5 151.556V149.556C421.158 149.556 428.21 156.433 428.491 165.023L426.492 165.088ZM412.5 151.556C404.924 151.556 398.754 157.573 398.508 165.088L396.509 165.023C396.79 156.433 403.842 149.556 412.5 149.556V151.556ZM397.508 166.056H397.5V164.056H397.508V166.056ZM398.5 165.056V165.556H396.5V165.056H398.5Z" fill="black"/>
<path fill-rule="evenodd" clip-rule="evenodd" d="M355.5 165.556V251.556H385.5V165.556V165.056H385.492C385.228 157.003 378.617 150.556 370.5 150.556C362.383 150.556 355.772 157.003 355.508 165.056H355.5V165.556Z" fill="#535353" fill-opacity="0.58"/>
<path d="M355.5 251.556V252.556H354.5V251.556H355.5ZM385.5 251.556H386.5V252.556H385.5V251.556ZM385.5 165.056V164.056H386.5V165.056H385.5ZM385.492 165.056V166.056H384.524L384.492 165.088L385.492 165.056ZM355.508 165.056L356.508 165.088L356.476 166.056H355.508V165.056ZM355.5 165.056H354.5V164.056H355.5V165.056ZM356.5 165.556V251.556H354.5V165.556H356.5ZM355.5 250.556H385.5V252.556H355.5V250.556ZM384.5 251.556V165.556H386.5V251.556H384.5ZM384.5 165.556V165.056H386.5V165.556H384.5ZM385.5 166.056H385.492V164.056H385.5V166.056ZM384.492 165.088C384.246 157.573 378.076 151.556 370.5 151.556V149.556C379.158 149.556 386.21 156.433 386.491 165.023L384.492 165.088ZM370.5 151.556C362.924 151.556 356.754 157.573 356.508 165.088L354.509 165.023C354.79 156.433 361.842 149.556 370.5 149.556V151.556ZM355.508 166.056H355.5V164.056H355.508V166.056ZM356.5 165.056V165.556H354.5V165.056H356.5Z" fill="black"/>
<path opacity="0.5" d="M239.5 139.056L427.5 139.056" stroke="black" stroke-width="2"/>
<path d="M239.5 133.056L427.5 133.056" stroke="black" stroke-width="2"/>
<path opacity="0.5" d="M603.5 178.056L779.5 178.056" stroke="black" stroke-width="2"/>
<path d="M603.5 171.056H779.5" stroke="black" stroke-width="2"/>
<path opacity="0.01" d="M446 51.0557H239.5V148.663H254V122.806H246.75L255.5 114.556L265.5 65.5557L275.25 114.556L284 122.806H278V145.806L309.75 114.556L343.5 148.663H335.5V168.556L347.5 180.056L366.5 225.056L382.25 207.942L401.924 228.556L399.924 196.056L371.5 157.056L383 111.556L385.5 114.056L387 112.806L384 109.056L387.75 106.556L387.25 104.056L399.5 99.5557L400 92.8057L404.25 96.8057L407 95.3057L405.5 93.3057L415.5 86.0557L415 82.8057L418 84.0557L421.75 81.0557L422.25 78.0557L426.5 74.8057L427.75 72.0557L435.5 72.8057L436.25 74.0557V75.3057L438.75 79.0557L447.25 78.0557V74.8057H443.5L447.25 54.5557L446 51.0557Z" fill="#43494A"/>
<path d="M476.25 290.806L517.25 302.547M506 290.806L508.75 292.056V290.806M572.75 319.056L529.5 307.556M578.5 307.306V309.556M566.5 307.556V308.806L564.25 307.556" stroke="#43494A" stroke-width="2"/>
<path d="M777.5 171.056L777.5 179.056" stroke="black" stroke-width="2"/>
<path d="M773.5 171.056L773.5 175.056" stroke="black" stroke-width="2"/>
<path d="M769.5 171.056L769.5 175.056" stroke="black" stroke-width="2"/>
<path d="M765.5 171.056L765.5 175.056" stroke="black" stroke-width="2"/>
<path d="M761.5 171.056L761.5 179.056" stroke="black" stroke-width="2"/>
<path d="M735.5 171.056L735.5 179.056" stroke="black" stroke-width="2"/>
<path d="M731.5 171.056L731.5 175.056" stroke="black" stroke-width="2"/>
<path d="M727.5 171.056L727.5 175.056" stroke="black" stroke-width="2"/>
<path d="M723.5 171.056L723.5 175.056" stroke="black" stroke-width="2"/>
<path d="M719.5 171.056L719.5 179.056" stroke="black" stroke-width="2"/>
<path d="M693.5 171.056L693.5 179.056" stroke="black" stroke-width="2"/>
<path d="M689.5 171.056L689.5 175.056" stroke="black" stroke-width="2"/>
<path d="M685.5 171.056L685.5 175.056" stroke="black" stroke-width="2"/>
<path d="M681.5 171.056L681.5 175.056" stroke="black" stroke-width="2"/>
<path d="M677.5 171.056L677.5 179.056" stroke="black" stroke-width="2"/>
<path d="M651.5 171.056L651.5 179.056" stroke="black" stroke-width="2"/>
<path d="M647.5 171.056L647.5 175.056" stroke="black" stroke-width="2"/>
<path d="M643.5 171.056L643.5 175.056" stroke="black" stroke-width="2"/>
<path d="M639.5 171.056L639.5 175.056" stroke="black" stroke-width="2"/>
<path d="M635.5 171.056L635.5 179.056" stroke="black" stroke-width="2"/>
<path d="M379.5 89.5558C379.5 67.3472 353.715 56.8842 339.5 73.5558C322.304 47.621 299.415 34.4849 272.5 53.5558" stroke="black" stroke-width="2"/>
<path d="M544.5 187.111C544.5 164.903 570.285 154.44 584.5 171.111C601.696 145.177 624.585 132.041 651.5 151.111" stroke="black" stroke-width="2"/>
<path fill-rule="evenodd" clip-rule="evenodd" d="M737.5 165.556V251.556H767.5V165.556V165.056H767.492C767.228 157.003 760.617 150.556 752.5 150.556C744.383 150.556 737.772 157.003 737.508 165.056H737.5V165.556Z" fill="#535353" fill-opacity="0.58"/>
<path d="M737.5 251.556V252.556H736.5V251.556H737.5ZM767.5 251.556H768.5V252.556H767.5V251.556ZM767.5 165.056V164.056H768.5V165.056H767.5ZM767.492 165.056V166.056H766.524L766.492 165.088L767.492 165.056ZM737.508 165.056L738.508 165.088L738.476 166.056H737.508V165.056ZM737.5 165.056H736.5V164.056H737.5V165.056ZM738.5 165.556V251.556H736.5V165.556H738.5ZM737.5 250.556H767.5V252.556H737.5V250.556ZM766.5 251.556V165.556H768.5V251.556H766.5ZM766.5 165.556V165.056H768.5V165.556H766.5ZM767.5 166.056H767.492V164.056H767.5V166.056ZM766.492 165.088C766.246 157.573 760.076 151.556 752.5 151.556V149.556C761.158 149.556 768.21 156.433 768.491 165.023L766.492 165.088ZM752.5 151.556C744.924 151.556 738.754 157.573 738.508 165.088L736.509 165.023C736.79 156.433 743.842 149.556 752.5 149.556V151.556ZM737.508 166.056H737.5V164.056H737.508V166.056ZM738.5 165.056V165.556H736.5V165.056H738.5Z" fill="black"/>
<path fill-rule="evenodd" clip-rule="evenodd" d="M695.5 165.556V251.556H725.5V165.556V165.056H725.492C725.228 157.003 718.617 150.556 710.5 150.556C702.383 150.556 695.772 157.003 695.508 165.056H695.5V165.556Z" fill="#535353" fill-opacity="0.58"/>
<path d="M695.5 251.556V252.556H694.5V251.556H695.5ZM725.5 251.556H726.5V252.556H725.5V251.556ZM725.5 165.056V164.056H726.5V165.056H725.5ZM725.492 165.056V166.056H724.524L724.492 165.088L725.492 165.056ZM695.508 165.056L696.508 165.088L696.476 166.056H695.508V165.056ZM695.5 165.056H694.5V164.056H695.5V165.056ZM696.5 165.556V251.556H694.5V165.556H696.5ZM695.5 250.556H725.5V252.556H695.5V250.556ZM724.5 251.556V165.556H726.5V251.556H724.5ZM724.5 165.556V165.056H726.5V165.556H724.5ZM725.5 166.056H725.492V164.056H725.5V166.056ZM724.492 165.088C724.246 157.573 718.076 151.556 710.5 151.556V149.556C719.158 149.556 726.21 156.433 726.491 165.023L724.492 165.088ZM710.5 151.556C702.924 151.556 696.754 157.573 696.508 165.088L694.509 165.023C694.79 156.433 701.842 149.556 710.5 149.556V151.556ZM695.508 166.056H695.5V164.056H695.508V166.056ZM696.5 165.056V165.556H694.5V165.056H696.5Z" fill="black"/>
<path fill-rule="evenodd" clip-rule="evenodd" d="M653.5 165.556V251.556H683.5V165.556V165.056H683.492C683.228 157.003 676.617 150.556 668.5 150.556C660.383 150.556 653.772 157.003 653.508 165.056H653.5V165.556Z" fill="#535353" fill-opacity="0.58"/>
<path d="M653.5 251.556V252.556H652.5V251.556H653.5ZM683.5 251.556H684.5V252.556H683.5V251.556ZM683.5 165.056V164.056H684.5V165.056H683.5ZM683.492 165.056V166.056H682.524L682.492 165.088L683.492 165.056ZM653.508 165.056L654.508 165.088L654.476 166.056H653.508V165.056ZM653.5 165.056H652.5V164.056H653.5V165.056ZM654.5 165.556V251.556H652.5V165.556H654.5ZM653.5 250.556H683.5V252.556H653.5V250.556ZM682.5 251.556V165.556H684.5V251.556H682.5ZM682.5 165.556V165.056H684.5V165.556H682.5ZM683.5 166.056H683.492V164.056H683.5V166.056ZM682.492 165.088C682.246 157.573 676.076 151.556 668.5 151.556V149.556C677.158 149.556 684.21 156.433 684.491 165.023L682.492 165.088ZM668.5 151.556C660.924 151.556 654.754 157.573 654.508 165.088L652.509 165.023C652.79 156.433 659.842 149.556 668.5 149.556V151.556ZM653.508 166.056H653.5V164.056H653.508V166.056ZM654.5 165.056V165.556H652.5V165.056H654.5Z" fill="black"/>
<path fill-rule="evenodd" clip-rule="evenodd" d="M611.5 165.556V251.556H641.5V165.556V165.056H641.492C641.228 157.003 634.617 150.556 626.5 150.556C618.383 150.556 611.772 157.003 611.508 165.056H611.5V165.556Z" fill="#535353" fill-opacity="0.58"/>
<path d="M611.5 251.556V252.556H610.5V251.556H611.5ZM641.5 251.556H642.5V252.556H641.5V251.556ZM641.5 165.056V164.056H642.5V165.056H641.5ZM641.492 165.056V166.056H640.524L640.492 165.088L641.492 165.056ZM611.508 165.056L612.508 165.088L612.476 166.056H611.508V165.056ZM611.5 165.056H610.5V164.056H611.5V165.056ZM612.5 165.556V251.556H610.5V165.556H612.5ZM611.5 250.556H641.5V252.556H611.5V250.556ZM640.5 251.556V165.556H642.5V251.556H640.5ZM640.5 165.556V165.056H642.5V165.556H640.5ZM641.5 166.056H641.492V164.056H641.5V166.056ZM640.492 165.088C640.246 157.573 634.076 151.556 626.5 151.556V149.556C635.158 149.556 642.21 156.433 642.491 165.023L640.492 165.088ZM626.5 151.556C618.924 151.556 612.754 157.573 612.508 165.088L610.509 165.023C610.79 156.433 617.842 149.556 626.5 149.556V151.556ZM611.508 166.056H611.5V164.056H611.508V166.056ZM612.5 165.056V165.556H610.5V165.056H612.5Z" fill="black"/>
<path d="M663.5 238.306V243.056H647.5V239.056L653.5 235.556V219.056L658.25 221.806L663.5 225.056V238.306Z" fill="#43494A" stroke="black" stroke-width="2"/>
<path d="M462.5 303.556L458 298.056L454 296.556L451 289.806H447V292.806L440.5 291.556L410.5 284.056L403 275.306V284.056L406.5 285.306L410.5 289.806L421.75 298.056L418.75 302.556H410.5V310.056L406.5 312.306H370L358.25 317.556L352.25 318.306L332 308.306L287.75 279.806L283.25 283.056L283.75 266.556L278.5 257.806L263 256.556L255.5 248.306L252.75 240.056L246 223.806L239.5 241.806V272.056L247.75 280.556L259 275.306L271.75 286.056H282.25H304.75L313 309.306L293.5 316.806L282.25 327.806L18 420.556V509.556L355.5 338.556L364 335.056L387.5 331.056L410.5 327.806L421.75 319.306H426.5L436.75 312.306L446.25 307.556L451.5 306.306L451 304.306L454 305.806L462.5 303.556Z" fill="#43494A"/>
<path d="M362.75 201.556L370 213.556H366L370 220.306L366 223.806V253.806L355.5 255.056L340.25 248.306L330.75 241.806L326.25 240.056H295.75L259 215.056L251 212.056L244.25 206.056L239.5 201.556V192.306H256.25L266.75 215.056L283.25 217.306L295.75 227.556L307.5 231.806H326.25L336.25 234.556L352.25 248.306L355.5 240.056H349.25L358.25 231.806H353.5L357 221.556H355.5L360.25 213.556H358.25L362.75 201.556Z" fill="#43494A"/>
<path d="M355.25 338.056L336.75 321.056L331.25 307.556L328.25 294.556L324.5 293.306L315 283.806H307L297 291.306V307.556L289 313.056L285.5 330.556H323L303.5 338.056L292.25 349.056L275 352.556V360.306L248 382.056L16.75 541.806L222.25 589.306L289 506.806L241.5 479.806L307 483.806L355.25 369.556L311.25 360.306L371.5 350.556L363.25 349.056H378.25L417 341.056V338.056H355.25Z" fill="#4E5E44"/>
<path d="M996.5 142.556L477 291.056H505.75L508.75 289.306L509 290.806L529 291.056H582.75L529 305.556L530 307.556L642.75 306.306L625.75 308.806V310.306L604.75 313.556L600.75 312.306L596.75 315.556L562.75 320.556L520.5 328.056L495.5 343.056V357.056H635L708.25 380.056H673.75L890 506.056L961.5 328.056H983.5L996.5 142.556Z" fill="#4E5E44"/>
<path d="M422 290.056L410.5 286.556L406.75 285.306L410.5 290.056L422 298.056L418.5 302.556H410.5V310.056L408 312.556H403H391H380H370L366 315.056L358 318.056H352L346.5 315.056L336.5 310.056L331.5 307.556C330.833 302.889 328.9 293.556 326.5 293.556C324.1 293.556 318.167 287.222 315.5 284.056H306.5C304.899 284.856 302.531 286.248 300.5 287.877L286.5 280.056L283 283.306V267.056L278 258.056H259V253L255 249L253 251L251 253V258.056H259H278L273 267.056V286.556H280.5L283 283.306L286.5 280.056L300.5 287.877C302.531 286.248 304.899 284.856 306.5 284.056H315.5C318.167 287.222 324.1 293.556 326.5 293.556C328.9 293.556 330.833 302.889 331.5 307.556L336.5 321.056L346.5 329.556L355.5 338.056L376.5 334.056L386.5 329.556H408L415 323.556L427.5 315.056L436.5 307.556L432 298.056L422 290.056Z" fill="#43494A"/>
<path d="M377.5 235.056L373.5 231.056H401.5V225.056L383.5 209.056L365.5 225.056V256.78L377.5 265.056V241.056V235.056Z" fill="#43494A"/>
<path d="M349.5 240.056V248.556L355.5 240.056H349.5V239.798V199.056H355.25V197.056L353.5 192.806V191.306H346.5V179.056L336.5 169.056V149.056H344L309.5 114.556L278.5 146.056V123.056H283.5L275.5 115.056L265.5 66.0557L255.5 115.056L248.5 123.056H253.5V149.056L259.5 154.056V181.056H267.5V183.056H275.5V185.056H283.5V187.056H291.5V189.056H299.5V191.306H309.5H336.5H346.5H353.5V192.806L355.25 197.056V199.056H349.5V239.798L349.25 240.056H349.5Z" fill="#43494A"/>
<path d="M442 291.306L410.5 284.056L403 275.556M403 275.556H391L377.5 265.056M403 275.556L412 268.806L415 272.056L428 262.306L437.5 262.806L439 272.056L436 275.056L440.25 274.306L438.25 278.306L446.75 289.556M159 160.556L244.5 205.556C246.333 208.056 250.6 213.156 253 213.556C255.4 213.956 259.667 216.056 261.5 217.056C268.833 222.389 284.1 233.356 286.5 234.556C289.5 236.056 294 240.056 300.5 240.056C307 240.056 321.5 240.056 326.5 240.056C330.5 240.056 337.5 245.722 340.5 248.556L355.5 255.056H363L377.5 265.056M391.5 280.056H403V284.056L406.75 285.306M355.5 338.056L376.5 334.056L386.5 329.556H408L415 323.556L427.5 315.056L436.5 307.556L432 298.056L422 290.056L410.5 286.556L406.75 285.306M355.5 338.056L346.5 329.556L336.5 321.056L331.5 307.556M355.5 338.056H416.75M331.5 307.556C330.833 302.889 328.9 293.556 326.5 293.556C324.1 293.556 318.167 287.222 315.5 284.056H306.5C304.899 284.856 302.531 286.248 300.5 287.877M331.5 307.556L336.5 310.056L346.5 315.056L352 318.056C353.167 318.056 356 318.056 358 318.056L366 315.056L370 312.556H380H391H403H408L410.5 310.056V302.556H418.5L422 298.056L410.5 290.056L406.75 285.306M7 341.556H249C250.333 341.722 253.5 341.956 255.5 341.556C257.5 341.156 263 339.056 265.5 338.056L278 334.056L286.5 327.056C286.5 323.056 287.2 314.556 290 312.556C292.8 310.556 295.5 308.389 296.5 307.556C296.5 304.389 296.5 297.156 296.5 293.556C296.5 291.684 298.302 289.642 300.5 287.877M7 551.556L180 351.056H276M331.5 341.556C331.5 341.556 335.667 345.722 339 344.556M417.5 267.056V255.103V241.056M377.5 265.056V241.056M401.5 231.056H421.5L417.5 235.149V241.056M401.5 231.056H373.5L377.5 235.056V241.056M401.5 231.056V225.056L383.5 209.056L365.5 225.056V256.78M349.5 248.556V199.056H355.25V197.056L353.5 192.806V191.306H346.5M349.5 248.556L346.5 243.556L336.5 234.556L326.5 232.056H309.5L296.5 228.056L283.5 217.056L267.5 215.556L259 198.556M349.5 248.556L355.5 240.056H349.25L357 232.056C357 232.056 353.5 231.639 353.5 230.306L358 221.806L355.5 221.056L360.5 213.556H358L363 200.556L370 213.556H366L369 218.556M244.5 192.556L276.75 191.306M346.5 191.306V179.056L336.5 169.056M346.5 191.306H336.5M336.5 169.056V191.306M336.5 169.056V149.056H344L309.5 114.556L278.5 146.056M336.5 191.306H309.5M283.5 149.056H275L278.5 146.056M309.5 191.306V179.056H315.5L309.5 173.056H267.5M309.5 191.306H299.5M299.5 191.306V189.056H291.5V187.056H283.5V185.056H275.5V183.056H267.5V181.056H259.5V154.056L253.5 149.056M299.5 191.306H276.75M253.5 149.056H193M253.5 149.056V123.056H248.5L255.5 115.056L265.5 66.0557M278.5 146.056V123.056H283.5L275.5 115.056L265.5 66.0557M265.5 66.0557V61.0557M273 286.556L259 275.556L256.125 276.681M273 286.556H280.5L283 283.306M273 286.556V267.056L278 258.056M300.5 287.877L286.5 280.056L283 283.306M283 283.306V267.056L278 258.056M278 258.056H259M256.125 276.681L253.25 277.806L247.5 280.056L166 262.806V243.556H139M256.125 276.681V265.997L248 256L243 261M259 258.056V253L255 249L253 251M259 258.056H251V253L253 251M253 251V242M253 242L247 225.056M253 242H243M247 225.056L242 236M247 225.056V221M239 173.056H251.5L256.125 183.056H261.5L263.5 185.056L269.5 186.556L276.75 191.306M458 291.056H451.5L454 296.306L458 298.056L463.5 303.806L454 305.806L451.5 303.806V305.806L446.25 307.556L444.5 305.806V308.556L434 314.056M265.5 56.0557V61.0557M265.5 61.0557H269.5M265.5 61.0557H261.5M247 217.056V221M247 221H250M247 221H244M418.5 338.056H416.75M416.75 338.056V340.806M416.75 340.806L378.5 348.806H362.25M416.75 340.806L430 341.556L348.5 362.556L377.25 369.056L391 412.556H382.25L391 416.306L396 529.806L362.25 623.306M362.25 348.806V347.056M362.25 348.806L370 350.306L343 360.306H312L349.5 369.056L306.5 474.556L253.25 478.056L294.5 503.306L200 623.306M354 351.056L359.75 342.806M354 351.056L357.25 346.306M354 351.056H334.5M432 316.056L425.5 319.556H423.75M417.5 241.056H420.5M377.5 241.056H374.5" stroke="black" stroke-width="2"/>
<path d="M416.5 240.056H378.5" stroke="black" stroke-width="2" stroke-dasharray="8 4"/>
<path d="M370.5 236.056H373.587V248.056H421.413V236.056H424.5" stroke="black" stroke-width="2"/>
<path d="M433 133.056L779.5 133.056" stroke="black" stroke-width="2"/>
<path opacity="0.5" d="M451 139.056L779.5 139.056" stroke="black" stroke-width="2"/>
<path d="M347.5 200.556L347.5 209.056" stroke="black" stroke-width="2"/>
<path d="M343.5 200.556L343.5 209.056" stroke="black" stroke-width="2"/>
<path d="M339.5 200.556L339.5 209.056" stroke="black" stroke-width="2"/>
<path d="M335.5 200.556L335.5 209.056" stroke="black" stroke-width="2"/>
<path d="M331.5 200.556L331.5 209.056" stroke="black" stroke-width="2"/>
<path d="M327.5 200.556L327.5 209.056" stroke="black" stroke-width="2"/>
<path d="M323.5 200.556L323.5 209.056" stroke="black" stroke-width="2"/>
<path d="M319.5 200.556L319.5 209.056" stroke="black" stroke-width="2"/>
<path d="M315.5 200.556L315.5 209.056" stroke="black" stroke-width="2"/>
<path d="M311.5 200.556L311.5 209.056" stroke="black" stroke-width="2"/>
<path d="M353 201.056H309.5" stroke="black" stroke-width="2"/>
<path d="M355 209.056L265.5 209.056" stroke="black" stroke-width="2"/>
<path d="M349.5 201.056H350.5M353.5 209.056V204.056M353.5 204.056V201.056H350.5M353.5 204.056L350.5 201.056" stroke="black" stroke-width="2"/>
<path d="M353.5 209.056H352.5M349.5 217.056V212.056M349.5 212.056V209.056H352.5M349.5 212.056L352.5 209.056" stroke="black" stroke-width="2"/>
<path d="M779.5 275.556L769.5 281.806L762 297.806L736 305.306L696.25 311.306L674.25 321.056L654.25 335.056L652.25 338.306L627 327.556L606.75 324.056L562.5 321.056L522.5 327.556L479.5 351.056L508 362.306L556 366.306L616.5 364.556L644 360.056L631 369.056H779.5H912.25V355.056L863.5 336.556C863.5 336.556 844.182 316.588 832.75 305.306C814.036 286.836 779.5 275.556 779.5 275.556Z" fill="#43494A"/>
<g opacity="0.4">
<path opacity="0.3" d="M702 317.556C698.089 297.164 683.5 232.056 683.5 232.056L663.5 237.556V250.556L654.501 257.556C654.501 257.556 646.991 316.483 645.5 327.556C642 353.556 709 354.056 702 317.556Z" fill="#535353" fill-opacity="0.58"/>
<path opacity="0.3" d="M781 291.306C768.75 275.306 725.75 219.806 725.75 219.806L696.25 228.306C696.25 228.306 724.096 289.18 732.5 308.556C750.5 350.056 806.716 324.894 781 291.306Z" fill="#535353" fill-opacity="0.58"/>
<path opacity="0.3" d="M570.5 317.056C582.75 301.056 609 253.556 609 253.556L640 246.556C640 246.556 617.749 303.056 611.749 323.306C603.074 352.586 544.509 351.002 570.5 317.056Z" fill="#535353" fill-opacity="0.58"/>
<path opacity="0.3" d="M845 241.556L767 207.806L737.25 216.806L792 258.056L845 241.556Z" fill="#535353" fill-opacity="0.58"/>
</g>
<path d="M495.5 296.056L495.5 305.056" stroke="#43494A" stroke-width="2"/>
<path d="M495.5 276.556V285.056" stroke="black" stroke-width="2"/>
<path d="M713.5 369.056L719.25 354.556L734.75 338.556C734.75 338.556 737.593 323.282 743.25 315.556C748.457 308.445 760.75 301.306 760.75 301.306L762.406 297.556M762.406 297.556L769.25 282.056L779.5 275.556M762.406 297.556L734.75 305.556C734.75 305.556 710.864 306.632 696.5 311.306C687.564 314.213 674.5 321.056 674.5 321.056L654.25 335.306L652.36 338.556M644.5 359.806L631 369.056M644.5 359.806L617.5 364.806C581.251 366.893 521.25 369.056 490.5 355.556M644.5 359.806L652.36 338.556M652.36 338.556L627.25 328.306L606.5 324.056L575 321.056H561.25C561.25 321.056 536.256 323.125 521.25 328.306C504.147 334.21 480.75 350.806 480.75 350.806" stroke="black" stroke-width="2"/>
<rect x="-1" y="1" width="5" height="10" transform="matrix(-1 0 0 1 312 137)" fill="#535353" fill-opacity="0.58" stroke="black" stroke-width="2"/>
<rect width="2.5" height="5.5" transform="matrix(-1 0 0 1 304.5 183.056)" fill="#535353" fill-opacity="0.58"/>
<path d="M997.75 141.556C933.756 160.205 476.25 290.806 476.25 290.806H506L508.75 289.556V290.806H551.75H582.25L529.5 306.056V307.556H564.5L566.5 306.806V307.556L578.5 307.37M546.75 321.556L561.25 319.056L570.75 319.556L595.25 316.056H597L600.25 312.306L605 313.806L625.5 310.056V308.556L643 306.056L615 306.806L578.5 307.37M578.5 307.37V305.556M475.25 291.056H473.25" stroke="black" stroke-width="2"/>
<path d="M560 290.73L556.903 292.556H552V289.056H558.968L560 290.73Z" fill="#43494A" stroke="black" stroke-width="2"/>
<path d="M455 308.425C455 308.425 452.38 306.224 450.355 305.556C447.627 304.656 443 305.556 443 305.556V311.056H453.452L455 308.425Z" fill="#43494A" stroke="black" stroke-width="2"/>
<path d="M638.5 360.825C638.5 360.825 635.88 358.624 633.855 357.956C631.127 357.056 626.5 357.956 626.5 357.956V363.456H636.952L638.5 360.825Z" fill="#43494A" stroke="black" stroke-width="2"/>
<path d="M492 355.562C492 355.562 490.799 357.241 489.871 357.751C488.621 358.437 486.5 357.751 486.5 357.751V353.556H491.29L492 355.562Z" fill="#535353" fill-opacity="0.58" stroke="black" stroke-width="2"/>
<path d="M629.5 363.062C629.5 363.062 628.19 364.741 627.177 365.251C625.814 365.937 623.5 365.251 623.5 365.251V361.056H628.726L629.5 363.062Z" fill="#43494A" stroke="black" stroke-width="2"/>
<path opacity="0.3" d="M455 313.686C455 313.686 452.38 315.888 450.355 316.556C447.627 317.455 443 316.556 443 316.556V311.056H453.452L455 313.686Z" fill="#535353" fill-opacity="0.58" stroke="black" stroke-width="2"/>
<path d="M493.597 289.056H496.847L498.5 290.806H493.597V289.056Z" fill="#43494A" stroke="black" stroke-width="2"/>
<path opacity="0.3" d="M498.5 291.056L496.847 292.806H493.597V291.056" stroke="black" stroke-width="2"/>
<path opacity="0.3" d="M558.968 297.056L560 295.382L556.903 293.556H552V297.056" stroke="black" stroke-width="2"/>
<path d="M549.5 288.556V293.056" stroke="black" stroke-width="2"/>
<path opacity="0.3" d="M549.5 292.556V297.056" stroke="black" stroke-width="2"/>
<path d="M332.75 184.056H331.5L330.5 186.306L328.25 190.306H330V191.556H332.75L333.5 189.806L332.75 186.056V184.056Z" fill="#4E5E44" stroke="black" stroke-width="2"/>
<path d="M319.5 183.556L317.5 185.556V191.056H321.5V185.556L319.5 183.556Z" stroke="black" stroke-width="2"/>
<path d="M305.5 201.556L303.5 203.556V209.056H307.5V203.556L305.5 201.556Z" stroke="black" stroke-width="2"/>
<path d="M409.5 255.056L407.5 257.189V263.056H411.5V257.189L409.5 255.056Z" stroke="black" stroke-width="2"/>
<path d="M397.5 255.056L395.5 257.189V263.056H399.5V257.189L397.5 255.056Z" stroke="black" stroke-width="2"/>
<path d="M266 125.056L263.5 127.189V133.056H268.5V127.189L266 125.056Z" stroke="black" stroke-width="2"/>
<path d="M269.5 137.056H266.5M263.5 137.056H266.5M266.5 137.056V141.056" stroke="black" stroke-width="2"/>
<path d="M261.5 137.056H258.5M255.5 137.056H258.5M258.5 137.056V141.056" stroke="black" stroke-width="2"/>
<path d="M277.5 137.056H274.5M271.5 137.056H274.5M274.5 137.056V141.056" stroke="black" stroke-width="2"/>
<path d="M256.5 137.056H253.5M250.5 137.056H253.5M253.5 137.056V149.056" stroke="black" stroke-width="2"/>
<path d="M284.5 137.056H281.5M278.5 137.056H281.5M281.5 137.056V146.056" stroke="black" stroke-width="2"/>
<path d="M385.5 255.056L383.5 257.189V263.056H387.5V257.189L385.5 255.056Z" stroke="black" stroke-width="2"/>
<path d="M271.5 95.0557H267.5M267.5 95.0557V98.0557M267.5 95.0557H263.5" stroke="black" stroke-width="2"/>
<path d="M286.5 91.0557H282.5M282.5 91.0557V94.0557M282.5 91.0557H278.5" stroke="black" stroke-width="2"/>
<path d="M294.5 105.056H290.5M290.5 105.056V108.056M290.5 105.056H286.5" stroke="black" stroke-width="2"/>
<path d="M363.5 67.0557V113.056" stroke="black" stroke-width="2"/>
<path d="M340.5 90.0557L386.5 90.0557" stroke="black" stroke-width="2"/>
<path d="M353.5 80.0557L373.5 100.056" stroke="black" stroke-width="2"/>
<path d="M353.5 100.056L373.5 80.0558" stroke="black" stroke-width="2"/>
<circle cx="7" cy="7" r="6" transform="matrix(-1 0 0 1 370.5 83.0557)" fill="#535353" fill-opacity="0.58" stroke="black" stroke-width="2"/>
<circle cx="15" cy="15" r="14" transform="matrix(-1 0 0 1 378.5 75.0557)" stroke="black" stroke-width="2"/>
<path d="M560.5 164.611V210.611" stroke="black" stroke-width="2"/>
<path d="M583.5 187.611L537.5 187.611" stroke="black" stroke-width="2"/>
<path d="M570.5 177.611L550.5 197.611" stroke="black" stroke-width="2"/>
<path d="M570.5 197.612L550.5 177.611" stroke="black" stroke-width="2"/>
<circle cx="560.5" cy="187.611" r="6" fill="#535353" fill-opacity="0.58" stroke="black" stroke-width="2"/>
<circle cx="560.5" cy="187.611" r="14" stroke="black" stroke-width="2"/>
<path d="M596.5 287.556L569 299.056V303.056H628L695 253.556L609.5 284.556L596.5 292.556V287.556Z" fill="#4E5E44"/>
<path d="M670 301.556L632.5 311.556L649.5 329.556L700 305.056L702.5 291.556L673 297.056L670 301.556Z" fill="#4E5E44"/>
<path d="M688.901 260.056L668.5 263.151V265.056H713.921L717 260.056H698.909L685.821 263.151L688.901 260.056Z" fill="#4E5E44"/>
<path d="M744.27 233.556L724.5 235.413V236.556H768.516L771.5 233.556H753.968L741.286 235.413L744.27 233.556Z" fill="#4E5E44"/>
<path d="M682 207.222C657.158 207.222 649.843 185.556 628.221 185.556C606.598 185.556 600.321 215.556 639.309 215.556C657.527 215.556 648.101 205 629.884 205" stroke="black" stroke-width="2"/>
<path d="M683.75 211.135C675.44 211.135 669.087 211.135 660.777 207.819M601.5 214.451C615.35 242.638 656.609 237.316 665.763 225.505C673.187 215.925 657.541 205.056 629.754 205.056M627.538 205.056C617.012 205.056 615.904 210.03 633.077 211.135" stroke="black" stroke-width="2"/>
<path d="M751.57 164.043C727.723 152.161 711.121 180.307 728.292 189.718C734.171 192.941 738.188 191.5 740.75 189.718C748.947 184.017 740.47 171.035 732.272 176.736C728.686 179.231 730.059 183.938 730.059 183.938M723.679 210.335C759.564 205.579 770.064 175.776 754.017 171.827C758.854 168.463 755.334 161.242 750.408 160.39M732.532 205.792C732.532 205.792 726.932 208.551 712.85 209.091M721.957 206.249C721.957 206.249 714.925 207.683 701.709 207.806" stroke="black" stroke-width="2" stroke-linejoin="bevel"/>
</g>
</g>
<defs>
<radialGradient id="paint0_radial_3379_8391" cx="0" cy="0" r="1" gradientUnits="userSpaceOnUse" gradientTransform="translate(512 292) rotate(-90) scale(190 376.713)">
<stop stop-color="#FBFFC9"/>
<stop offset="1" stop-color="#8C8943" stop-opacity="0"/>
</radialGradient>
<radialGradient id="paint1_radial_3379_8391" cx="0" cy="0" r="1" gradientUnits="userSpaceOnUse" gradientTransform="translate(512 292) rotate(90) scale(190 376.713)">
<stop stop-color="#527E9D" stop-opacity="0.58"/>
<stop offset="1" stop-color="#00485F" stop-opacity="0"/>
</radialGradient>
<clipPath id="clip0_3379_8391">
<rect width="1020" height="616" fill="white"/>
</clipPath>
</defs>
</svg>
