<svg width="2000" height="1200" viewBox="0 0 2000 1200" fill="none" xmlns="http://www.w3.org/2000/svg">
<mask id="mask0_63_18310" style="mask-type:alpha" maskUnits="userSpaceOnUse" x="16" y="9" width="1969" height="1185">
<path d="M169 136L47 107H96C96 107 70.7927 57.5102 82 40C105.232 3.70222 206 58 206 58L185 23L314 45L302 23L589 40L603 15L949 45L927 23H1265V45L1443 23V45L1551 9V34L1911 9V69L1973 34L1963 85L1985 69L1973 169L1985 179L1973 452H1985L1963 681L1979 700L1946 730L1985 747L1963 758L1985 774L1953 899L1985 934H1911L1973 1099L1911 1075L1902 1171L1748 1139L1801 1177L1683 1165L1741 1187L1593 1165L1509 1187L1459 1153L1443 1177L1273 1153V1177L1075 1139L1079 1177L1027 1165L969 1194V1177H691V1136L653 1170L531 1131V1187L130 1153L165 1095H93L80 1109V1095L47 1131L139 969L16 1084L93 962L35 995L58 956L24 969L88 566L24 563H50.5L29.4867 371L96 373V360L104 352C104 352 58.7491 285.402 88 229C121.801 163.825 229 192 229 192L58 147L169 136Z" fill="white"/>
</mask>
<g mask="url(#mask0_63_18310)">
<rect width="2000" height="1199" fill="url(#paint0_linear_63_18310)"/>
<path opacity="0.5" fill-rule="evenodd" clip-rule="evenodd" d="M1719.5 707C1838.52 707 1935 610.517 1935 491.5C1935 372.483 1838.52 276 1719.5 276C1606.84 276 1514.38 362.447 1504.82 472.625C1462.39 490.168 1431.49 529.952 1426.66 577.445C1420.96 572.202 1413.35 569 1405 569C1392.11 569 1380.99 576.626 1375.93 587.615L1369.5 597.5L1367 595L1347 590L1337.5 602.5L1334.5 596L1326 595L1315 602.5H1305.5C1299.17 604.667 1286 609 1284 609H1244V706H1499.43C1515.84 713.698 1534.17 718 1553.5 718C1584.03 718 1612.05 707.27 1634 689.375C1660.22 700.715 1689.12 707 1719.5 707ZM1504.47 477.114C1463.28 494.948 1433.73 534.566 1430.33 581.439C1431.77 583.306 1433.01 585.337 1434.02 587.5H1437.04C1438.19 542.099 1465.31 503.153 1504.1 484.963C1504.18 482.335 1504.3 479.718 1504.47 477.114ZM1509.68 706H1538.17C1543.18 706.66 1548.3 707 1553.5 707C1579.46 707 1603.44 698.506 1622.81 684.146C1625.15 685.32 1627.51 686.453 1629.89 687.544C1608.87 704.113 1582.34 714 1553.5 714C1538.07 714 1523.3 711.17 1509.68 706Z" fill="url(#paint1_linear_63_18310)"/>
<path opacity="0.5" fill-rule="evenodd" clip-rule="evenodd" d="M654 615.837L642.334 619.634L626.541 615.837L611.501 619.634L562.615 600.47C565.725 574.108 553.269 547.201 528.823 533.087C515.951 525.655 501.67 522.876 487.927 524.227C483.801 519.286 479.449 514.523 474.882 509.955C454.871 489.944 431.114 474.071 404.968 463.241C378.823 452.411 350.8 446.837 322.5 446.837C294.2 446.837 266.177 452.411 240.032 463.241C213.886 474.071 190.13 489.944 170.119 509.955C150.108 529.966 134.234 553.723 123.404 579.868C112.574 606.014 107 634.037 107 662.337C107 662.337 223.335 657.569 310.5 657.837C361.692 657.994 430.668 660.331 474.747 662.041C494.276 663.433 613.479 670.88 688.5 651.337C717.435 643.799 761 626.723 761 626.723L673.919 626.723C670.029 626.723 667.052 624.028 664.061 621.319C661.041 618.585 658.006 615.837 654 615.837Z" fill="url(#paint2_linear_63_18310)"/>
<path opacity="0.5" fill-rule="evenodd" clip-rule="evenodd" d="M825 570L836 562.5L844.5 563.5L847.5 570L857 557.5L877 562.5L879.5 565L886 555H1062.5L996.5 570C996.5 570 992.153 570.722 984.569 571.853C984.852 573.191 985 574.578 985 576C985 587.046 976.046 596 965 596C954.346 596 945.637 587.669 945.033 577.166C897.299 582.92 826.718 589.049 779.5 582.5C736.057 576.474 641.5 542 641.5 542C755 570 806.5 573 825 570ZM1164 876C1082.74 876 1015.29 818.886 1002.27 743.93C978.819 730.605 963 705.4 963 676.5C963 633.698 997.698 599 1040.5 599C1045.03 599 1049.46 599.388 1053.78 600.133C1082.9 574.575 1121.57 559 1164 559C1254.57 559 1328 629.963 1328 717.5C1328 805.037 1254.57 876 1164 876Z" fill="url(#paint3_linear_63_18310)"/>
<path d="M-14.5 700L696 669H701V673L706 672.442L720 670.879C720 670.879 958.676 632.725 1113 627C1190.27 624.134 1311 627 1311 627C1402.88 643.647 1493.91 663.343 1584.5 686V697L2008.5 718V1040H-8.5L-14.5 700Z" fill="url(#paint4_linear_63_18310)"/>
<path d="M701 673L691 675.5M701 673L706 672.442M701 673V669H696L-14.5 700L-8.5 1040H2008.5V718L1584.5 697V686C1493.91 663.343 1402.88 643.647 1311 627C1311 627 1190.27 624.134 1113 627C958.676 632.725 720 670.879 720 670.879M685.5 676.5L640 684L622.5 688L695.5 700C695.5 700 663.442 710.625 642.5 716C559.554 737.291 424 734.5 424 734.5M706 672.442V667H709V669H720V670.879M706 672.442L720 670.879" stroke="black" stroke-width="2"/>
<path d="M1297.24 673.5L1300.98 671.628L1308.9 675.947L1301.26 675.513L1297.24 673.5Z" stroke="black" stroke-width="2"/>
<path d="M1187.5 760.5C1187.6 761.495 1187.6 761.495 1187.6 761.495L1187.6 761.495L1187.62 761.493L1187.71 761.485L1188.04 761.453C1188.33 761.425 1188.77 761.383 1189.34 761.329C1190.49 761.221 1192.18 761.063 1194.38 760.863C1198.79 760.462 1205.21 759.894 1213.28 759.223C1229.41 757.88 1252.14 756.125 1278.5 754.476C1331.22 751.177 1398.43 748.305 1456.47 750C1505.38 751.428 1644.53 751.428 1771.42 751.071C1834.87 750.892 1895.27 750.625 1939.8 750.402C1962.07 750.29 1980.37 750.19 1993.1 750.117C1999.47 750.081 2004.45 750.052 2007.83 750.031L2011.69 750.008L2012 750.006V1206.5H-11V827.932L738.07 774.998L739 774.932V774V771V770.183L738.2 770.02L693.429 760.892C806.143 750.969 913.943 742.968 1026.47 746.5C1057.99 747.489 1098.2 751.235 1130.56 754.737C1146.74 756.488 1160.94 758.176 1171.1 759.427C1176.18 760.053 1180.24 760.569 1183.04 760.929C1184.44 761.108 1185.52 761.249 1186.26 761.345C1186.62 761.393 1186.9 761.429 1187.09 761.454L1187.3 761.482L1187.35 761.489L1187.36 761.491L1187.37 761.491C1187.37 761.491 1187.37 761.491 1187.5 760.5ZM1187.5 760.5L1187.37 761.491L1187.48 761.506L1187.6 761.495L1187.5 760.5Z" fill="url(#paint5_linear_63_18310)" stroke="black" stroke-width="2"/>
<path opacity="0.3" d="M759 771L791 773V775L855 779" stroke="black" stroke-width="2"/>
<path d="M1278 569L1252 563L1245 586L1238 587L1229.5 604L1221 605L1238 628.5L1257 631.311L1322.5 641V620.5H1310.5V617.5L1292 610.5L1290 599.5H1285L1274.5 580L1278 569Z" fill="#282828" stroke="black" stroke-width="2"/>
<path d="M1518.94 680.327L1519.22 680.516L1519.55 680.499L1548.54 679.025L1558.37 691.196L1554.79 701.5H1522.13L1478.09 690.247L1479.44 678.609L1495.65 669.072L1506.58 671.924L1518.94 680.327Z" fill="#282828" stroke="black" stroke-width="2"/>
<path d="M1491.89 696.696L1490.29 698.293L1489.56 699.022L1490.31 699.728L1498.67 707.597L1501.45 713.546L1486.47 714L1484.29 714.067L1485.76 715.676L1489.17 719.396L1432.77 707.772C1435.15 707.492 1437.64 707.198 1439.86 706.93C1442.02 706.67 1443.94 706.435 1445.27 706.265C1445.93 706.181 1446.45 706.111 1446.79 706.063C1446.95 706.04 1447.09 706.018 1447.18 705.999C1447.2 705.994 1447.24 705.986 1447.28 705.975C1447.3 705.97 1447.34 705.96 1447.38 705.942L1447.38 705.942C1447.39 705.938 1447.55 705.882 1447.7 705.745C1447.77 705.681 1448.03 705.432 1448.03 705.007C1448.03 704.529 1447.72 704.264 1447.6 704.178C1447.47 704.088 1447.35 704.052 1447.3 704.04C1447.25 704.024 1447.2 704.017 1447.18 704.013C1447.15 704.009 1447.13 704.006 1447.11 704.005C1447.08 703.995 1447.02 703.979 1446.95 703.955C1446.78 703.9 1446.54 703.814 1446.23 703.697C1445.61 703.466 1444.75 703.128 1443.71 702.706C1441.62 701.862 1438.81 700.692 1435.71 699.391C1430.35 697.134 1424.15 694.485 1419.44 692.463L1432.42 686.406L1432.93 686.169L1432.99 685.61L1433.96 676.919L1442.86 666.61L1461.3 670.866L1466.1 680.93L1466.23 681.201L1466.48 681.356L1491.89 696.696ZM1447.15 704.015C1447.15 704.015 1447.15 704.014 1447.14 704.012C1447.14 704.013 1447.15 704.014 1447.15 704.015Z" fill="#282828" stroke="black" stroke-width="2"/>
<path d="M1281.5 663.5H1282L1282.3 663.1C1282.81 662.419 1283.58 661.348 1284.22 660.336C1284.54 659.832 1284.84 659.326 1285.06 658.882C1285.14 658.728 1285.21 658.574 1285.28 658.424C1285.43 658.449 1285.61 658.484 1285.82 658.53C1286.72 658.728 1288 659.087 1289.46 659.531C1292.09 660.336 1295.21 661.396 1297.5 662.206V671.5V673.349L1264 668.631V667.566L1270.78 663.5H1281.5ZM1284.8 658.372C1284.8 658.372 1284.8 658.372 1284.8 658.372L1284.8 658.372Z" fill="#282828" stroke="black" stroke-width="2"/>
<path d="M1253 679.389L1200.03 673.814L1213.02 665.853L1213.39 665.624L1213.48 665.196L1214.91 658.053L1216.78 656.557L1244.36 660.911L1253 676.755V679.389Z" fill="#282828" stroke="black" stroke-width="2"/>
<path d="M1163 676.09V675.692L1167.85 676.547L1163 676.09ZM1210.74 680.593L1171.06 676.85L1174.39 675.419L1176.67 674.445L1174.36 673.566L1164.57 669.838L1164.93 666.223L1188.57 657.54L1196.5 659.302V662.5V676.682V677.487L1197.29 677.659L1210.74 680.593Z" fill="#282828" stroke="black" stroke-width="2"/>
<path d="M1413 657V657.414L1413.29 657.707L1419.27 663.689L1422.15 666.889L1393.5 665.546V659.914L1403.41 650H1407.45L1410.66 655.037L1410.95 655.5H1411.5H1413V657Z" fill="#282828" stroke="black" stroke-width="2"/>
<path d="M1370.5 650V649.083L1369.59 649.004L1348.3 647.153L1351.73 642.209L1356.76 638.551L1368.67 640.383L1371.49 653.691L1370.5 652.985V650Z" fill="#282828" stroke="black" stroke-width="2"/>
<path d="M1280.12 647.007L1259.07 643.829L1260.71 643.478L1260.64 641.509L1240.02 638.698L1240.6 637.543L1254.43 638.498L1255.37 638.562L1255.49 637.632L1256.38 631H1259.5H1260.5V630V623H1261.88L1298.39 631.881C1300.55 635.044 1303.71 639.664 1306.4 643.636C1307.79 645.689 1309.06 647.568 1310 648.983C1310.2 649.283 1310.38 649.561 1310.55 649.816L1280.12 647.007Z" fill="#282828" stroke="black" stroke-width="2"/>
<path d="M1354.54 741.659L1354.36 741.541L1354.14 741.51L1343.93 740.051L1342.1 738.48C1343.05 738.231 1344.08 737.961 1345.03 737.719C1345.85 737.511 1346.6 737.325 1347.16 737.192C1347.45 737.125 1347.68 737.073 1347.85 737.038C1347.92 737.023 1347.98 737.012 1348.02 737.005C1348.03 737.006 1348.04 737.007 1348.05 737.008C1348.13 737.017 1348.23 737.031 1348.37 737.049C1348.64 737.086 1349.01 737.14 1349.47 737.208C1350.38 737.343 1351.59 737.53 1352.93 737.738C1355.46 738.13 1358.39 738.596 1360.47 738.928C1361.63 740.341 1363.29 742.402 1364.79 744.326C1365.56 745.322 1366.28 746.276 1366.87 747.083L1361.38 746.053L1354.54 741.659ZM1348.07 736.997C1348.07 736.997 1348.07 736.997 1348.07 736.997L1348.07 736.997Z" fill="#282828" stroke="black" stroke-width="2"/>
<path d="M1171.15 716L1163.24 713.628L1168.58 709.814L1167.64 708.067L1157.89 711.819L1158.8 710.6L1157.51 709.126L1148.78 713.98L1124.91 712.179L1147.85 691.533L1188.75 694.983L1199.85 699.807L1204.57 706.418L1206.75 716H1171.15Z" fill="#282828" stroke="black" stroke-width="2"/>
<path d="M1207 716L1192 708.915V705L1160 699L1148 708V714" stroke="black" stroke-width="2"/>
<path d="M1200.35 635.28L1185.67 627.274L1199.7 613.719L1199.96 613.466L1199.99 613.105L1200.99 603.605L1201.01 603.47L1200.99 603.336L1200.13 598.205L1209.05 595.53L1227.69 599.356C1227.93 600.232 1228.21 601.372 1228.46 602.46C1228.62 603.137 1228.75 603.786 1228.85 604.333C1228.95 604.902 1229 605.297 1229 605.5V605.811L1229.18 606.068L1248.43 633.989L1240.04 636.928L1212.39 625.081L1211.8 624.827L1211.33 625.262L1200.35 635.28Z" fill="#282828" stroke="black" stroke-width="2"/>
<path d="M1199.88 637L1212.65 618.065L1231.59 637H1199.88Z" fill="#282828" stroke="black" stroke-width="2"/>
<path d="M1317 635L1310 665.5L1415 695.5L1436 691L1441 674L1438.5 672V671.5L1349 642V640.5L1343 639L1342 640.5L1317 635Z" fill="#282828" stroke="black" stroke-width="2"/>
<path d="M1268.5 764.912H1267.5V765.912V769H1183.88L1157 745.025V738.32L1174.6 734.794H1194H1194.39L1194.68 734.528C1196.67 732.685 1199.74 729.921 1202.45 727.622C1203.8 726.471 1205.06 725.447 1206.04 724.715C1206.54 724.347 1206.95 724.066 1207.25 723.882C1207.41 723.789 1207.52 723.732 1207.59 723.701C1207.6 723.699 1207.6 723.697 1207.61 723.695C1207.81 723.681 1208.09 723.634 1208.37 723.586C1208.75 723.52 1209.25 723.425 1209.85 723.306C1211.06 723.067 1212.7 722.729 1214.63 722.327C1215.32 722.185 1216.05 722.034 1216.8 721.876C1220.3 721.149 1224.45 720.285 1228.63 719.445C1233.73 718.424 1238.85 717.442 1242.89 716.788C1244.91 716.461 1246.64 716.218 1247.95 716.094C1248.6 716.031 1249.14 716 1249.54 716C1249.95 716 1250.11 716.034 1250.13 716.039C1250.14 716.039 1250.14 716.039 1250.14 716.039C1252.54 716.975 1269.48 723.44 1277.64 726.553L1277.82 726.619H1278H1281.11L1306 749.522V757.559L1301.8 769H1282.12L1280.4 765.473L1280.12 764.912H1279.5H1268.5ZM1207.64 723.681C1207.64 723.682 1207.64 723.683 1207.63 723.684C1207.64 723.682 1207.64 723.681 1207.64 723.681Z" fill="#282828" stroke="black" stroke-width="2"/>
<path d="M1486.63 965.928L1555.12 993.325L1303.12 1215.5H-127V915.975C-126.721 915.967 -126.384 915.958 -125.988 915.948C-124.676 915.913 -122.726 915.861 -120.176 915.792C-115.075 915.652 -107.57 915.441 -97.9551 915.157C-78.7254 914.589 -51.0542 913.726 -17.2876 912.548C50.2452 910.192 142.161 906.575 239.692 901.533C337.221 896.491 440.371 890.023 530.372 881.965C620.349 873.909 697.252 864.257 742.246 852.834C786.643 841.562 844.714 833.135 891.716 827.526C915.21 824.723 935.927 822.624 950.771 821.226C958.192 820.528 964.145 820.004 968.242 819.655C970.29 819.481 971.875 819.35 972.947 819.263C973.15 819.247 973.334 819.232 973.5 819.218V841V841.556L973.972 841.849L1008.13 863.08L1008.4 863.246L1008.71 863.23L2019.44 810.057L2013.55 914.086L1486.91 964.004L1486.63 965.928Z" fill="url(#paint6_linear_63_18310)" stroke="black" stroke-width="2"/>
<path d="M1383.91 637.598L1396 639.945V648.792L1377.81 645.326L1383.91 637.598Z" fill="#5F5F5F" stroke="black" stroke-width="2"/>
<path d="M1280 652L1311.5 656V658.5L1280 652Z" stroke="black"/>
<path d="M1440 738H1433.5L1445.5 744L1466 746.5V742L1446.5 736L1440 738Z" fill="#D9D9D9" stroke="black" stroke-width="2"/>
<path d="M1467.5 732.5V731L1489 733.5L1489.5 735.5L1467.5 732.5Z" stroke="black" stroke-width="2"/>
<path d="M1314.09 735.504L1314.05 735.5H1314H1311.47L1314.2 734.029L1331.04 735.954L1332.09 737H1330.05L1314.09 735.504Z" stroke="black" stroke-width="2"/>
<path d="M1372.99 687.407L1373.09 687.5H1356.5V684.5H1360.88L1372.99 687.407Z" stroke="black" stroke-width="2"/>
<path d="M1338 690.781L1346 692.781V694.091L1338 691.291V690.781Z" stroke="black" stroke-width="2"/>
<path d="M1003.41 706H1013V710H1000V709.414L1003.41 706Z" fill="#4F4F4F" stroke="black" stroke-width="2"/>
<path d="M1024 710H1020V708.387L1024 709.721V710Z" stroke="black" stroke-width="2"/>
<path d="M1056.96 664.5L1058.63 667H1052H1050.39L1051.22 664.5H1056.96Z" stroke="black" stroke-width="2"/>
<path d="M1496.5 852C1496.5 852 1505 861.333 1520 867L1384 850C1445.83 850 1501.1 816 1560 816L1618.5 829L1793 833.5V836L1685 841V846L1647.5 849.5L1648.5 853.5L1636.5 860L1625 858L1564 863C1534.88 850.381 1496.5 852 1496.5 852Z" fill="white" stroke="black" stroke-width="2"/>
<path d="M823.5 704H801V701H794H781V703.125H776V696L780 688L794 695V697H805V700" stroke="black" stroke-width="2"/>
<path d="M776 703H781V701H794V695L780 688L776 696V703Z" fill="#728869"/>
<path d="M776 703H781V701H794V695L780 688L776 696V703Z" stroke="black" stroke-width="2"/>
<path d="M776 703H781V701H794V695L780 688L776 696V703Z" stroke="black" stroke-opacity="0.2" stroke-width="2"/>
<rect width="2" height="4" transform="matrix(-1 0 0 1 770 696)" fill="#8AA580"/>
<rect width="2" height="4" transform="matrix(-1 0 0 1 772 696)" fill="black"/>
<rect width="2" height="4" transform="matrix(-1 0 0 1 784 698)" fill="#8AA580"/>
<rect width="2" height="4" transform="matrix(-1 0 0 1 786 698)" fill="black"/>
<rect x="925" y="640" width="2" height="4" fill="#8AA580"/>
<rect x="923" y="640" width="2" height="4" fill="black"/>
<rect x="934" y="743" width="2" height="4" fill="#8AA580"/>
<rect x="932" y="743" width="2" height="4" fill="black"/>
<rect x="938" y="743" width="2" height="4" fill="#8AA580"/>
<rect x="936" y="743" width="2" height="4" fill="black"/>
<rect opacity="0.4" x="753" y="696" width="2" height="4" fill="black"/>
<rect opacity="0.4" x="956" y="662" width="2" height="4" fill="black"/>
<rect opacity="0.4" x="952" y="664" width="2" height="4" fill="black"/>
<path opacity="0.1" d="M764.5 700H794.5L834.5 736H815L764.5 700Z" fill="url(#paint7_linear_63_18310)"/>
<path opacity="0.78" d="M1184 759L1210 750L1221 739L1265 749H1305V763L1440.5 787L1298 791.5L1184 770V759Z" fill="url(#paint8_linear_63_18310)"/>
<rect width="2" height="4" transform="matrix(-1 0 0 1 906 652)" fill="#8AA580"/>
<rect width="2" height="4" transform="matrix(-1 0 0 1 908 652)" fill="black"/>
<rect width="2" height="4" transform="matrix(-1 0 0 1 902 654)" fill="#8AA580"/>
<rect width="2" height="4" transform="matrix(-1 0 0 1 904 654)" fill="black"/>
</g>
<defs>
<linearGradient id="paint0_linear_63_18310" x1="1000" y1="0" x2="1000" y2="1199" gradientUnits="userSpaceOnUse">
<stop stop-color="#82A1AE"/>
<stop offset="1" stop-color="#B1DAFF"/>
</linearGradient>
<linearGradient id="paint1_linear_63_18310" x1="1589.5" y1="276" x2="1589.5" y2="718" gradientUnits="userSpaceOnUse">
<stop stop-color="white"/>
<stop offset="1" stop-color="white" stop-opacity="0.55"/>
</linearGradient>
<linearGradient id="paint2_linear_63_18310" x1="510.959" y1="482.361" x2="332.038" y2="792.262" gradientUnits="userSpaceOnUse">
<stop stop-color="white"/>
<stop offset="1" stop-color="white" stop-opacity="0.55"/>
</linearGradient>
<linearGradient id="paint3_linear_63_18310" x1="1034.25" y1="459" x2="1034.25" y2="950" gradientUnits="userSpaceOnUse">
<stop stop-color="white"/>
<stop offset="1" stop-color="white" stop-opacity="0.55"/>
</linearGradient>
<linearGradient id="paint4_linear_63_18310" x1="994.5" y1="627" x2="1002" y2="897" gradientUnits="userSpaceOnUse">
<stop stop-color="#617B62"/>
<stop offset="1" stop-color="#6E5B2B"/>
</linearGradient>
<linearGradient id="paint5_linear_63_18310" x1="1000.5" y1="742.5" x2="1000.5" y2="1119" gradientUnits="userSpaceOnUse">
<stop stop-color="#8B8E8E"/>
<stop offset="1" stop-color="#665E66"/>
</linearGradient>
<linearGradient id="paint6_linear_63_18310" x1="1023.5" y1="809" x2="1023.5" y2="1045" gradientUnits="userSpaceOnUse">
<stop stop-color="#6F98AF"/>
<stop offset="1" stop-color="#3E709E"/>
</linearGradient>
<linearGradient id="paint7_linear_63_18310" x1="799.5" y1="700" x2="799.5" y2="736" gradientUnits="userSpaceOnUse">
<stop/>
<stop offset="1" stop-opacity="0"/>
</linearGradient>
<linearGradient id="paint8_linear_63_18310" x1="1310.75" y1="738.5" x2="1310.75" y2="791.5" gradientUnits="userSpaceOnUse">
<stop/>
<stop offset="1" stop-opacity="0"/>
</linearGradient>
</defs>
</svg>
