<svg width="1376" height="904" viewBox="0 0 1376 904" fill="none" xmlns="http://www.w3.org/2000/svg">
<rect width="1376" height="904" fill="url(#paint0_linear_3946_46023)"/>
<g opacity="0.8">
<path opacity="0.2" d="M892.5 540.806L919.5 545.806L927.359 567.056L902.25 577.306L881.5 581.556L850 584.556H836.25C836.25 584.556 811.256 582.486 796.25 577.306C779.147 571.402 755.75 554.806 755.75 554.806H765.5V550.056C796.25 536.556 856.251 538.719 892.5 540.806Z" fill="#636B72" stroke="black" stroke-width="2"/>
<rect x="438" y="352" width="56" height="36" fill="#A7987A" stroke="black" stroke-width="2"/>
<rect x="478" y="352" width="56" height="36" fill="#B9B9B9" stroke="black" stroke-width="2"/>
<g opacity="0.2">
<rect x="633" y="315" width="44" height="2" fill="black"/>
<rect opacity="0.5" x="633" y="319" width="44" height="2" fill="black"/>
<path d="M664 361C664 352.716 657.284 346 649 346C640.716 346 634 352.716 634 361V488H664V361Z" stroke="black" stroke-width="2"/>
<rect x="665" y="369" width="12" height="2" fill="black"/>
<rect opacity="0.5" x="665" y="373" width="12" height="2" fill="black"/>
<rect x="677" y="315" width="44" height="2" fill="black"/>
<rect opacity="0.5" x="677" y="319" width="44" height="2" fill="black"/>
<path d="M708 361C708 352.716 701.284 346 693 346C684.716 346 678 352.716 678 361V488H708V361Z" stroke="black" stroke-width="2"/>
<rect x="709" y="369" width="12" height="2" fill="black"/>
<rect opacity="0.5" x="709" y="373" width="12" height="2" fill="black"/>
<rect x="721" y="315" width="44" height="2" fill="black"/>
<rect opacity="0.5" x="721" y="319" width="44" height="2" fill="black"/>
<path d="M752 361C752 352.716 745.284 346 737 346C728.716 346 722 352.716 722 361V488H752V361Z" stroke="black" stroke-width="2"/>
<rect x="753" y="369" width="12" height="2" fill="black"/>
<rect opacity="0.5" x="753" y="373" width="12" height="2" fill="black"/>
<rect x="765" y="315" width="44" height="2" fill="black"/>
<rect opacity="0.5" x="765" y="319" width="44" height="2" fill="black"/>
<path d="M796 361C796 352.716 789.284 346 781 346C772.716 346 766 352.716 766 361V488H796V361Z" stroke="black" stroke-width="2"/>
<rect x="797" y="369" width="12" height="2" fill="black"/>
<rect opacity="0.5" x="797" y="373" width="12" height="2" fill="black"/>
<rect x="809" y="315" width="44" height="2" fill="black"/>
<rect opacity="0.5" x="809" y="319" width="44" height="2" fill="black"/>
<path d="M840 361C840 352.716 833.284 346 825 346C816.716 346 810 352.716 810 361V488H840V361Z" stroke="black" stroke-width="2"/>
<rect x="841" y="369" width="12" height="2" fill="black"/>
<rect opacity="0.5" x="841" y="373" width="12" height="2" fill="black"/>
<rect x="853" y="315" width="44" height="2" fill="black"/>
<rect opacity="0.5" x="853" y="319" width="44" height="2" fill="black"/>
<path d="M884 361C884 352.716 877.284 346 869 346C860.716 346 854 352.716 854 361V488H884V361Z" stroke="black" stroke-width="2"/>
<rect x="885" y="369" width="12" height="2" fill="black"/>
<rect opacity="0.5" x="885" y="373" width="12" height="2" fill="black"/>
<rect x="897" y="315" width="44" height="2" fill="black"/>
<rect opacity="0.5" x="897" y="319" width="44" height="2" fill="black"/>
<path d="M928 361C928 352.716 921.284 346 913 346C904.716 346 898 352.716 898 361V488H928V361Z" stroke="black" stroke-width="2"/>
<rect x="929" y="369" width="12" height="2" fill="black"/>
<rect opacity="0.5" x="929" y="373" width="12" height="2" fill="black"/>
<rect x="941" y="315" width="44" height="2" fill="black"/>
<rect opacity="0.5" x="941" y="319" width="44" height="2" fill="black"/>
<path d="M972 361C972 352.716 965.284 346 957 346C948.716 346 942 352.716 942 361V488H972V361Z" stroke="black" stroke-width="2"/>
<rect x="973" y="369" width="12" height="2" fill="black"/>
<rect opacity="0.5" x="973" y="373" width="12" height="2" fill="black"/>
<rect x="985" y="315" width="44" height="2" fill="black"/>
<rect opacity="0.5" x="985" y="319" width="44" height="2" fill="black"/>
<path d="M1016 361C1016 352.716 1009.28 346 1001 346C992.716 346 986 352.716 986 361V488H1016V361Z" stroke="black" stroke-width="2"/>
<rect x="1017" y="369" width="12" height="2" fill="black"/>
<rect opacity="0.5" x="1017" y="373" width="12" height="2" fill="black"/>
<rect x="1029" y="315" width="44" height="2" fill="black"/>
<rect opacity="0.5" x="1029" y="319" width="44" height="2" fill="black"/>
<path d="M1060 361C1060 352.716 1053.28 346 1045 346C1036.72 346 1030 352.716 1030 361V488H1060V361Z" stroke="black" stroke-width="2"/>
<rect x="1061" y="369" width="12" height="2" fill="black"/>
<rect opacity="0.5" x="1061" y="373" width="12" height="2" fill="black"/>
</g>
<path d="M751.25 487.806L792.25 499.547M781 487.806L783.75 489.056V487.806M847.75 516.056L804.5 504.556M853.5 504.306V506.556M841.5 504.556V505.806L839.25 504.556" stroke="#434A45" stroke-width="2"/>
<path d="M752 488C752 488 1208.01 357.65 1272 339V737L950.5 577H982L821.75 518.556L836.25 516.056L845.75 516.556L870.25 513.056H872L875.25 509.306L880 510.806L900.5 507.056V505.556L918 503.056L890 503.806L853.5 504.37L841.5 504.556V503.806L839.5 504.556H804.5V503.056L857.25 487.806H826.75H783.75V486.556L781 487.806L752 488Z" fill="#697062"/>
<path d="M853.5 504.37L841.5 504.556V503.806L839.5 504.556H804.5V503.056L857.25 487.806H826.75H783.75V486.556L781 487.806L752 488C752 488 1208.01 357.65 1272 339V737L950.5 577H982L821.75 518.556L836.25 516.056L845.75 516.556L870.25 513.056H872L875.25 509.306L880 510.806L900.5 507.056V505.556L918 503.056L890 503.806L853.5 504.37ZM853.5 504.37V502.556M750 488H747" stroke="black" stroke-width="2"/>
<path d="M438 316H482.307L493.557 346H438V316Z" fill="#A7987A" stroke="black" stroke-width="2"/>
<path d="M558.828 318H523.172L530.573 312.819L530.889 312.599L530.975 312.223L541 268.477L551.025 312.223L551.111 312.599L551.427 312.819L558.828 318Z" fill="#A7987A" stroke="black" stroke-width="2"/>
<path d="M618.631 346H549.369L584 310.433L618.631 346Z" fill="#A7987A" stroke="black" stroke-width="2"/>
<rect x="-1" y="1" width="24" height="70" transform="matrix(-1 0 0 1 552 317)" fill="#A7987A" stroke="black" stroke-width="2"/>
<path d="M928 437.25V442H912V438L918 434.5V418L922.75 420.75L928 424V437.25Z" fill="#434A45" stroke="black" stroke-width="2"/>
<path d="M770.5 493.056L770.5 502.056" stroke="#434A45" stroke-width="2"/>
<path d="M770.5 473.556V482.056" stroke="black" stroke-width="2"/>
<path d="M1044.25 483.056L1037.41 498.556L1009.75 506.556C1009.75 506.556 985.864 507.632 971.5 512.306C962.564 515.213 949.5 522.056 949.5 522.056L929.25 536.306L927.36 539.556L902.25 529.306L881.5 525.056L850 522.056H836.25C836.25 522.056 811.256 524.125 796.25 529.306C779.147 535.21 755.75 551.806 755.75 551.806H765.5V556.556C796.25 570.056 856.251 567.893 892.5 565.806L919.5 560.806L906 570.056H988.5H1187.5V555.556L1138 536.306L1109 508.5L1054.5 476.556L1044.25 483.056Z" fill="#636B72"/>
<path d="M988.5 570.056L994.25 555.556L1009.75 539.556C1009.75 539.556 1012.59 524.282 1018.25 516.556C1023.46 509.445 1035.75 502.306 1035.75 502.306L1037.41 498.556M988.5 570.056H1187.5V555.556L1138 536.306L1109 508.5L1054.5 476.556L1044.25 483.056L1037.41 498.556M988.5 570.056H906L919.5 560.806M1037.41 498.556L1009.75 506.556C1009.75 506.556 985.864 507.632 971.5 512.306C962.564 515.213 949.5 522.056 949.5 522.056L929.25 536.306L927.36 539.556M919.5 560.806L892.5 565.806C856.251 567.893 796.25 570.056 765.5 556.556V551.806H755.75C755.75 551.806 779.147 535.21 796.25 529.306C811.256 524.125 836.25 522.056 836.25 522.056H850L881.5 525.056L902.25 529.306L927.36 539.556M919.5 560.806L927.36 539.556" stroke="black" stroke-width="2"/>
<path d="M835 487.73L831.903 489.556H827V486.056H833.968L835 487.73Z" fill="#434A45" stroke="black" stroke-width="2"/>
<path d="M913.5 557.825C913.5 557.825 910.88 555.624 908.855 554.956C906.127 554.056 901.5 554.956 901.5 554.956V560.456H911.952L913.5 557.825Z" fill="#434A45" stroke="black" stroke-width="2"/>
<path d="M904.5 560.062C904.5 560.062 903.19 561.741 902.177 562.251C900.814 562.937 898.5 562.251 898.5 562.251V558.056H903.726L904.5 560.062Z" fill="#434A45" stroke="black" stroke-width="2"/>
<path d="M768.597 486.056H771.847L773.5 487.806H768.597V486.056Z" fill="#434A45" stroke="black" stroke-width="2"/>
<path opacity="0.3" d="M773.5 488.056L771.847 489.806H768.597V488.056" stroke="black" stroke-width="2"/>
<path opacity="0.3" d="M833.968 494.056L835 492.382L831.903 490.556H827V494.056" stroke="black" stroke-width="2"/>
<path d="M824.5 485.556V490.056" stroke="black" stroke-width="2"/>
<path opacity="0.3" d="M824.5 489.556V494.056" stroke="black" stroke-width="2"/>
<path d="M594 380L592 382V388H596V382L594 380Z" stroke="black" stroke-width="2"/>
<g opacity="0.3">
<path d="M654 296.171C654 273.497 628.082 262.15 614 279.171C596.965 252.692 574.664 239.946 548 259.416" stroke="black" stroke-width="2"/>
<path d="M634 301L634 317" stroke="black" stroke-width="2"/>
<path d="M634 275L634 291" stroke="black" stroke-width="2"/>
<path d="M613 296H629" stroke="black" stroke-width="2"/>
<path d="M639 296H655" stroke="black" stroke-width="2"/>
<path d="M625 287L631 293" stroke="black" stroke-width="2"/>
<path d="M644 287L638 293" stroke="black" stroke-width="2"/>
<path d="M625 305L631 299" stroke="black" stroke-width="2"/>
<path d="M644 305L638 299" stroke="black" stroke-width="2"/>
<circle cx="6" cy="6" r="5" transform="matrix(-1 0 0 1 640 290)" stroke="black" stroke-width="2"/>
<circle cx="14" cy="14" r="13" transform="matrix(-1 0 0 1 648 282)" stroke="black" stroke-width="2"/>
</g>
<path d="M631 437L625 445H628L621.5 452H658L650 445H654L647 437H653L645 429H649L643 419H647L642 411H645L638 398L633 411H636L630 419H634L628 429H632L624 437H631Z" fill="#A7987A" stroke="black" stroke-width="2"/>
<rect x="641" y="422" width="34" height="51" fill="#A7987A" stroke="black" stroke-width="2"/>
<path d="M641 424H675V420.535L658 409.202L641 420.535V424Z" fill="#A7987A" stroke="black" stroke-width="2"/>
<path d="M697 428.056L693 432.056V473H653V432.056L649 428.056H697Z" fill="#A7987A" stroke="black" stroke-width="2"/>
<path d="M646 433.056H649V445.056H697V433.056H700" stroke="black" stroke-width="2"/>
<rect x="649" y="437" width="8" height="2" fill="black"/>
<rect x="659" y="437" width="8" height="2" fill="black"/>
<rect x="669" y="437" width="8" height="2" fill="black"/>
<rect x="679" y="437" width="8" height="2" fill="black"/>
<rect x="689" y="437" width="8" height="2" fill="black"/>
<path d="M660 460V454.333L662 451.667L664 454.333V460H660Z" fill="#ADADAD" stroke="black" stroke-width="2"/>
<path d="M671 460V454.333L673 451.667L675 454.333V460H671Z" fill="#ADADAD" stroke="black" stroke-width="2"/>
<path d="M682 460V454.333L684 451.667L686 454.333V460H682Z" fill="#ADADAD" stroke="black" stroke-width="2"/>
<rect x="556" y="346" width="56" height="42" fill="#B9B9B9" stroke="black" stroke-width="2"/>
<path d="M478 346H529.586L535.586 352H478V346Z" fill="#A7987A" stroke="black" stroke-width="2"/>
<rect x="544" y="376" width="40" height="12" fill="#B9B9B9" stroke="black" stroke-width="2"/>
<path d="M544 376H587L582.5 370H544V376Z" fill="#A7987A" stroke="black" stroke-width="2"/>
<path d="M622 374.414V388H612V364.414L622 374.414Z" fill="#D9D9D9" fill-opacity="0.5" stroke="black" stroke-width="2"/>
<path d="M539 310V304.333L541 301.667L543 304.333V310H539Z" fill="#A7987A" stroke="black" stroke-width="2"/>
<path d="M470 346V340.333L472 337.667L474 340.333V346H470Z" fill="#ADADAD" stroke="black" stroke-width="2"/>
<path d="M539 335V329.333L541 326.667L543 329.333V335H539Z" fill="#ADADAD" stroke="black" stroke-width="2"/>
<path d="M567 370V364.333L569 361.667L571 364.333V370H567Z" fill="#ADADAD" stroke="black" stroke-width="2"/>
<path d="M597 388V382.333L599 379.667L601 382.333V388H597Z" fill="#ADADAD" stroke="black" stroke-width="2"/>
<path d="M575 386H566V383" stroke="black" stroke-width="2"/>
<path d="M567 384H558V381" stroke="black" stroke-width="2"/>
<path d="M559 382H550V379" stroke="black" stroke-width="2"/>
<path d="M551 380H542V377" stroke="black" stroke-width="2"/>
<path d="M543 378H534V375" stroke="black" stroke-width="2"/>
<path d="M541 259V263M541 276V263M541 263H544M541 263H538" stroke="black" stroke-width="2"/>
<path d="M539 310H536M533 310H536M536 310V314" stroke="black" stroke-width="2"/>
<path d="M549 310H546M543 310H546M546 310V314" stroke="black" stroke-width="2"/>
<path d="M530 310H527M524 310H527M527 310V319" stroke="black" stroke-width="2"/>
<path d="M558 310H555M552 310H555M555 310V319" stroke="black" stroke-width="2"/>
<path opacity="0.5" d="M556 288H552M552 288V291M552 288H548" stroke="black" stroke-width="2"/>
<path opacity="0.6" d="M563 276H559M559 276V279M559 276H555" stroke="black" stroke-width="2"/>
<path opacity="0.3" d="M599 294H595M595 294V297M595 294H591" stroke="black" stroke-width="2"/>
<path d="M622 420V418H558V448H622V427V426H623H626V423.5L622.4 420.8L622 420.5V420Z" fill="#D9D9D9" fill-opacity="0.5" stroke="black" stroke-width="2"/>
<path d="M622 390V388H558V418H622V397V396H623H626V393.5L622.4 390.8L622 390.5V390Z" fill="#D9D9D9" fill-opacity="0.5" stroke="black" stroke-width="2"/>
<path d="M612 390V388H548V418H612V397V396H613H616V393.5L612.4 390.8L612 390.5V390Z" fill="#A7987A" stroke="black" stroke-width="2"/>
<path d="M542 396H622V406" stroke="black" stroke-width="2"/>
<path d="M623 406L542 406" stroke="black" stroke-width="2"/>
<path d="M576 396L576 406" stroke="black" stroke-width="2"/>
<path d="M584 396L584 406" stroke="black" stroke-width="2"/>
<path d="M592 396L592 406" stroke="black" stroke-width="2"/>
<path d="M600 396L600 406" stroke="black" stroke-width="2"/>
<path d="M608 396L608 406" stroke="black" stroke-width="2"/>
<path d="M617 406L612 411" stroke="black" stroke-width="2"/>
<path d="M617 396L612 401" stroke="black" stroke-width="2"/>
<path d="M564 406V400.333L566 397.667L568 400.333V406H564Z" fill="#ADADAD" stroke="black" stroke-width="2"/>
<path d="M617 396L622 401" stroke="black" stroke-width="2"/>
<path d="M730 505.425C730 505.425 727.38 503.224 725.355 502.556C722.627 501.656 718 502.556 718 502.556V508.056H728.452L730 505.425Z" fill="#434A45" stroke="black" stroke-width="2"/>
<path d="M767 552.562C767 552.562 765.799 554.241 764.871 554.751C763.621 555.437 761.5 554.751 761.5 554.751V550.556H766.29L767 552.562Z" fill="#535353" stroke="black" stroke-width="2"/>
<path d="M677.5 472H666L638 452.056H630.5L625 449.672V445.551L621.5 440.556L611.5 431.556L601.5 429.056H584.5L571.5 425.056L558.5 414.056L542.5 412.556L534 395.556H529V410.786C528.642 410.685 528.306 410.607 528 410.556C525.6 410.156 521.333 405.056 519.5 402.556L434 357.556L390 440.556L282 538.556L256 643L491 837L655 861C663.361 777.891 680.655 697.35 666 614L657 610H666L652 566L624 560L705 539L692 538V535H630L652 531L662 526H683L690 514H701L706 509L709 511.056L719 506V502L721 504L726 503V500L729 503L739 501L732 495.056L727 493V488L720 485L713 476L715 472.056H711L715 469.056L712 460H703L690 469.056L687 465.806L677.5 472Z" fill="#636B72"/>
<path d="M526.5 370.056H514V388C526.482 387.89 551.556 387.737 552 388L544.5 383.556L538.5 382.056L536.5 380.056H531.125L526.5 370.056Z" fill="#636B72"/>
<path d="M712 485H720M685 472H677.5M677.5 472H666L638 452.056H630.5L625 449.672M677.5 472L687 465.806L690 469.056L703 460H712L715 469.056L711 472.056H715L713 476L720 485M666.5 477.056H678V481.056L681.75 482.306M630 535L652 531L662 526H683L690 514H701L706 509M630 535V528L612 518L606 505M630 535H692M606 505L602 490L590.5 481.056H582L576 484M606 505L627 515.056C628.167 515.056 631 515.056 633 515.056L645 510H683L686 507.056V500H694L697 495.056L685.5 487.056L681.75 482.306M282 538.556C282 538.556 379.062 548.067 441 543.306C488.515 539.653 562 524 562 524L565 509L571 504V490L576 484M282 538.556L390 440.556M282 538.556L256 643M256 643C256 643 392.607 615.218 475 585C505.983 573.637 551 548.056 551 548.056M256 643L491 837M606 538C606 538 609 543 615 541M576 484L561.5 477.056L558 480.306L551.5 479.556H544L534 472.556L522.5 477.056L441 459.806V440.556H390M681.75 482.306L685.5 483.556L697 487.056L707 495.056L711.5 504.556L706 509M720 485L727 488M732 488H727M727 488V493L732 495.056L739 501L729 503L726 500V503L721 504L719 502V506L709 511.056L706 509M695 535H692M692 535V538M692 538L654 546H637M692 538L705 539L624 560L652 566L666 610H657L666 614C680.655 697.35 663.361 777.891 655 861L491 837M637 546V543M637 546L644 549L618 557H587L624 566L581.5 671.556L528.25 675.056L569.5 700.306L491 837M633 540L629 548H610M707 513L702 518H699M390 440.556L434 357.556L519.5 402.556C521.333 405.056 525.6 410.156 528 410.556C528.306 410.607 528.642 410.685 529 410.786M625 449.672L615.5 445.556C612.5 442.722 605.5 437.056 601.5 437.056C596.5 437.056 582 437.056 575.5 437.056C569 437.056 564.5 433.056 561.5 431.556C559.1 430.356 543.833 419.389 536.5 414.056C534.9 413.183 531.448 411.473 529 410.786M625 449.672V445.551L621.5 440.556L611.5 431.556L601.5 429.056H584.5L571.5 425.056L558.5 414.056L542.5 412.556L534 395.556H529V410.786M538.5 382.056L536.5 380.056H531.125L526.5 370.056H514V388C526.482 387.89 551.556 387.737 552 388L544.5 383.556L538.5 382.056Z" stroke="black" stroke-width="2"/>
<path d="M503 442H517V477H503V442Z" fill="#A7987A" stroke="black" stroke-width="2"/>
<path d="M527 466.449L518.62 459H502V478H527V466.449Z" fill="#A7987A" stroke="black" stroke-width="2"/>
<path d="M527 467H502V478H527V467Z" fill="#A7987A" stroke="black" stroke-width="2"/>
<path d="M514 455V451.287L518 444.887L522 451.287V455H514Z" fill="#A7987A" stroke="black" stroke-width="2"/>
<path d="M503 442V439.148L510 424.34L517 439.148V442H503Z" fill="#A7987A" stroke="black" stroke-width="2"/>
<path d="M510 414V418M510 424V418M510 418H507M510 418H513" stroke="black" stroke-width="2"/>
<path d="M493 478V466.449L501 459.338L509 466.449V478H493Z" fill="#A7987A" stroke="black" stroke-width="2"/>
<path d="M539 455H514V486H539V455Z" fill="#A7987A" stroke="black" stroke-width="2"/>
<path d="M535 486V459.468L540 455.302L545 459.468V486H535Z" fill="#A7987A" stroke="black" stroke-width="2"/>
<path d="M697 487.056L685.5 483.556L681.75 482.306L685.5 487.056L697 495.056L694 500H686V507.056L683 510H645L633 515.056H627L606 505L602 490L590.5 481.056H582L576 484L561.5 477.056L558 480.306L555.5 483.556L545 486H535L522.5 477.056L441 459.806V440H390L282 538.556L256 643L491 837L655 861C663.361 777.891 680.655 697.35 666 614L657 610H666L652 566L624 560L705 539L692 538V535H630L652 531L662 526H683L690 514H701L706 509L711.5 504.556L707 495.056L697 487.056Z" fill="#697062"/>
<path d="M678 481.056L681.75 482.306M630 535L652 531L662 526H683L690 514H701L706 509M630 535V528L612 518L606 505M630 535H692M606 505L602 490L590.5 481.056H582L576 484M606 505L627 515.056C628.167 515.056 631 515.056 633 515.056L645 510H683L686 507.056V500H694L697 495.056L685.5 487.056L681.75 482.306M562 524L565 509L571 504V490L576 484M441 535C364 549 282 538.556 282 538.556M282 538.556L390 440H441V459.806L522.5 477.056L535 486H545L555.5 483.556L558 480.306L561.5 477.056L576 484M282 538.556L256 643M256 643C256 643 392.607 615.218 475 585C505.983 573.637 551 548.056 551 548.056M256 643L491 837M606 538C606 538 609 543 615 541M681.75 482.306L685.5 483.556L697 487.056L707 495.056L711.5 504.556L706 509M695 535H692M692 535V538M692 538L654 546H637M692 538L705 539L624 560L652 566L666 610H657L666 614C680.655 697.35 663.361 777.891 655 861L491 837M637 546V543M637 546L644 549L618 557H587L624 566L581.5 671.556L528.25 675.056L569.5 700.306L491 837M633 540L629 548H610M709 511.056L706 509" stroke="black" stroke-width="2"/>
</g>
<defs>
<linearGradient id="paint0_linear_3946_46023" x1="688" y1="0" x2="688" y2="904" gradientUnits="userSpaceOnUse">
<stop stop-color="#CAF2FF"/>
<stop offset="1" stop-color="#666666"/>
</linearGradient>
</defs>
</svg>
