<svg width="1376" height="904" viewBox="0 0 1376 904" fill="none" xmlns="http://www.w3.org/2000/svg">
<g clip-path="url(#clip0_3946_45119)">
<rect width="1376" height="904" fill="#9A9A9A"/>
<path d="M0 493H1376V0H0V493Z" fill="#647E8D"/>
<path d="M0 493H1376V0H0V493Z" fill="url(#paint0_linear_3946_45119)" fill-opacity="0.2"/>
<rect x="848" y="192" width="2" height="2" fill="#D9D9D9"/>
<rect x="584" y="120" width="2" height="2" fill="#D9D9D9"/>
<rect x="128" y="312" width="2" height="2" fill="#D9D9D9"/>
<rect width="2" height="2" transform="matrix(-1 0 0 1 814 407)" fill="#D9D9D9"/>
<rect width="2" height="2" transform="matrix(-1 0 0 1 922 352)" fill="#D9D9D9"/>
<path d="M1381 616V485H-5V616H1381Z" fill="#CAC8A6"/>
<path d="M1381 616V485H-5V616H1381Z" fill="black" fill-opacity="0.2"/>
<path d="M1381 616V485H-5V616H1381Z" stroke="black" stroke-width="2"/>
<path fill-rule="evenodd" clip-rule="evenodd" d="M534 463C537.565 456.762 533.06 449 525.875 449H514C509.558 449 505.68 451.413 503.605 455H494.482C486.105 455 479.958 462.873 481.99 471H477C470.373 471 465 476.373 465 483V492H502H510H522H548H551C555.971 492 560 487.971 560 483C560 478.029 555.971 474 551 474H548V471.5V471C548 466.582 544.418 463 540 463H534Z" fill="#8E7054"/>
<path d="M534 463V464H532.277L533.132 462.504L534 463ZM503.605 455L504.471 455.501L504.182 456H503.605V455ZM481.99 471L482.96 470.757L483.271 472H481.99V471ZM465 492V493H464V492H465ZM548 474V475H547V474H548ZM525.875 448C533.828 448 538.814 456.591 534.868 463.496L533.132 462.504C536.315 456.932 532.292 450 525.875 450V448ZM514 448H525.875V450H514V448ZM502.74 454.499C504.986 450.616 509.187 448 514 448V450C509.93 450 506.374 452.21 504.471 455.501L502.74 454.499ZM494.482 454H503.605V456H494.482V454ZM481.02 471.243C478.83 462.484 485.454 454 494.482 454V456C486.755 456 481.086 463.261 482.96 470.757L481.02 471.243ZM477 470H481.99V472H477V470ZM464 483C464 475.82 469.82 470 477 470V472C470.925 472 466 476.925 466 483H464ZM464 492V483H466V492H464ZM502 493H465V491H502V493ZM510 493H502V491H510V493ZM522 493H510V491H522V493ZM522 491H548V493H522V491ZM548 491H551V493H548V491ZM551 491C555.418 491 559 487.418 559 483H561C561 488.523 556.523 493 551 493V491ZM559 483C559 478.582 555.418 475 551 475V473C556.523 473 561 477.477 561 483H559ZM551 475H548V473H551V475ZM549 471.5V474H547V471.5H549ZM549 471V471.5H547V471H549ZM540 462C544.971 462 549 466.029 549 471H547C547 467.134 543.866 464 540 464V462ZM534 462H540V464H534V462Z" fill="black"/>
<path d="M529 463H526.5C522.91 463 520 465.91 520 469.5V469.5V474L519.222 473.308C516.036 470.476 511 472.738 511 477V477" stroke="black" stroke-width="2"/>
<path d="M493 471V471C499.075 471 504 475.925 504 482V491V464" stroke="black" stroke-width="2"/>
<path opacity="0.5" d="M509 455H512C516.418 455 520 458.582 520 463V469" stroke="black" stroke-width="2"/>
<rect x="538" y="489" width="2" height="4" fill="black"/>
<rect x="540" y="489" width="2" height="4" fill="#8E7054"/>
<rect x="534" y="489" width="2" height="4" fill="black"/>
<rect x="536" y="489" width="2" height="4" fill="#8E7054"/>
<rect x="530" y="489" width="2" height="4" fill="black"/>
<rect x="532" y="489" width="2" height="4" fill="#8E7054"/>
<rect x="489" y="489" width="2" height="4" fill="black"/>
<rect x="491" y="489" width="2" height="4" fill="#8E7054"/>
<rect x="499" y="454" width="2" height="4" fill="black"/>
<rect x="501" y="454" width="2" height="4" fill="#8E7054"/>
<rect x="521" y="448" width="2" height="4" fill="black"/>
<rect x="523" y="448" width="2" height="4" fill="#8E7054"/>
<rect x="537" y="462" width="2" height="4" fill="black"/>
<rect x="539" y="462" width="2" height="4" fill="#8E7054"/>
<rect x="547" y="473" width="2" height="4" fill="black"/>
<rect x="549" y="473" width="2" height="4" fill="#8E7054"/>
<path d="M702 388H690V400M702 388V400H690M702 388L690 400" stroke="black" stroke-width="2"/>
<path d="M702 376H690V388M702 376V388H690M702 376L690 388" stroke="black" stroke-width="2"/>
<path d="M702 364H690V376M702 364V376H690M702 364L690 376" stroke="black" stroke-width="2"/>
<path d="M702 352H690V364M702 352V364H690M702 352L690 364" stroke="black" stroke-width="2"/>
<path d="M702 340H690V352M702 340V352H690M702 340L690 352" stroke="black" stroke-width="2"/>
<path d="M702 328H690V340M702 328V340H690M702 328L690 340" stroke="black" stroke-width="2"/>
<path d="M702 316H690V328M702 316V328H690M702 316L690 328" stroke="black" stroke-width="2"/>
<path d="M702 304H690V316M702 304V316H690M702 304L690 316" stroke="black" stroke-width="2"/>
<rect x="669" y="307" width="5" height="12" fill="#323232" stroke="black" stroke-width="2"/>
<rect x="674" y="307" width="5" height="12" fill="#323232" stroke="black" stroke-width="2"/>
<rect x="679" y="307" width="5" height="12" fill="#323232" stroke="black" stroke-width="2"/>
<path d="M666 316H709V310H666" stroke="black" stroke-width="2"/>
<rect x="697" y="287" width="18" height="2" transform="rotate(90 697 287)" fill="black"/>
<circle cx="702" cy="316" r="4" fill="#2E2E2E" stroke="black" stroke-width="2"/>
<path d="M620 416H632V426H617V422L620 419V416Z" fill="#7F8080" stroke="black" stroke-width="2"/>
<path d="M660 400H772V432H887V496H660V400Z" fill="#9E9FA0"/>
<path d="M772 432V400H660V496H887V432H772ZM772 432H714V496" stroke="black" stroke-width="2"/>
<path d="M887 424H911V537H887V424Z" fill="#9E9FA0" stroke="black" stroke-width="2"/>
<path d="M545 472L529 488L-10 509V557H274H1416V509L911 483L899 494H887V488H710L694 472H580H545Z" fill="#888564"/>
<path d="M-10 557V509L529 488L545 472H580H694L710 488H887V494H899L911 483L1416 509V557H274M-10 557H274M-10 557L475.312 496.312M274 557L501.125 496.625" stroke="black" stroke-width="2"/>
<path opacity="0.2" d="M1040 489C1040 489 1026.56 490.094 1018.42 491.769C1010.88 493.322 1000 497 1000 497" stroke="black" stroke-width="2"/>
<path opacity="0.2" d="M1052 501C1052 501 1038.56 502.094 1030.42 503.769C1022.88 505.322 1012 509 1012 509" stroke="black" stroke-width="2"/>
<path opacity="0.2" d="M1044 493C1044 493 1030.56 494.094 1022.42 495.769C1014.88 497.322 1004 501 1004 501" stroke="black" stroke-width="2"/>
<path opacity="0.2" d="M1056 505C1056 505 1042.56 506.094 1034.42 507.769C1026.88 509.322 1016 513 1016 513" stroke="black" stroke-width="2"/>
<path opacity="0.2" d="M1048 497C1048 497 1034.56 498.094 1026.42 499.769C1018.88 501.322 1008 505 1008 505" stroke="black" stroke-width="2"/>
<path opacity="0.2" d="M1060 509C1060 509 1046.56 510.094 1038.42 511.769C1030.88 513.322 1020 517 1020 517" stroke="black" stroke-width="2"/>
<path opacity="0.2" d="M1088 509C1088 509 1074.56 510.094 1066.42 511.769C1058.88 513.322 1048 517 1048 517" stroke="black" stroke-width="2"/>
<path opacity="0.2" d="M1100 521C1100 521 1086.56 522.094 1078.42 523.769C1070.88 525.322 1060 529 1060 529" stroke="black" stroke-width="2"/>
<path opacity="0.2" d="M1092 513C1092 513 1078.56 514.094 1070.42 515.769C1062.88 517.322 1052 521 1052 521" stroke="black" stroke-width="2"/>
<path opacity="0.2" d="M1104 525C1104 525 1090.56 526.094 1082.42 527.769C1074.88 529.322 1064 533 1064 533" stroke="black" stroke-width="2"/>
<path opacity="0.2" d="M1096 517C1096 517 1082.56 518.094 1074.42 519.769C1066.88 521.322 1056 525 1056 525" stroke="black" stroke-width="2"/>
<path opacity="0.2" d="M1108 529C1108 529 1094.56 530.094 1086.42 531.769C1078.88 533.322 1068 537 1068 537" stroke="black" stroke-width="2"/>
<path d="M992 482L990 487H1008L1006 482H992Z" fill="#5F3939" stroke="black" stroke-width="2"/>
<path d="M991 487H1001.18H1007V492H1001.18H991V487Z" fill="#D9D9D9"/>
<path d="M991 487H1001.18H1007V492H1001.18H991V487Z" fill="black" fill-opacity="0.2"/>
<path d="M991 487H1001.18H1007V492H1001.18H991V487Z" stroke="black" stroke-width="2"/>
<path opacity="0.2" d="M652 493C652 493 638.559 494.094 630.421 495.769C622.878 497.322 612 501 612 501" stroke="black" stroke-width="2"/>
<path opacity="0.2" d="M664 505C664 505 650.559 506.094 642.421 507.769C634.878 509.322 624 513 624 513" stroke="black" stroke-width="2"/>
<path opacity="0.2" d="M656 497C656 497 642.559 498.094 634.421 499.769C626.878 501.322 616 505 616 505" stroke="black" stroke-width="2"/>
<path opacity="0.2" d="M668 509C668 509 654.559 510.094 646.421 511.769C638.878 513.322 628 517 628 517" stroke="black" stroke-width="2"/>
<path opacity="0.2" d="M660 501C660 501 646.559 502.094 638.421 503.769C630.878 505.322 620 509 620 509" stroke="black" stroke-width="2"/>
<path opacity="0.2" d="M672 513C672 513 658.559 514.094 650.421 515.769C642.878 517.322 632 521 632 521" stroke="black" stroke-width="2"/>
<path opacity="0.2" d="M708 493C708 493 694.559 494.094 686.421 495.769C678.878 497.322 668 501 668 501" stroke="black" stroke-width="2"/>
<path opacity="0.2" d="M720 505C720 505 706.559 506.094 698.421 507.769C690.878 509.322 680 513 680 513" stroke="black" stroke-width="2"/>
<path opacity="0.2" d="M712 497C712 497 698.559 498.094 690.421 499.769C682.878 501.322 672 505 672 505" stroke="black" stroke-width="2"/>
<path opacity="0.2" d="M724 509C724 509 710.559 510.094 702.421 511.769C694.878 513.322 684 517 684 517" stroke="black" stroke-width="2"/>
<path opacity="0.2" d="M716 501C716 501 702.559 502.094 694.421 503.769C686.878 505.322 676 509 676 509" stroke="black" stroke-width="2"/>
<path opacity="0.2" d="M728 513C728 513 714.559 514.094 706.421 515.769C698.878 517.322 688 521 688 521" stroke="black" stroke-width="2"/>
<path d="M608 508H611H624L620 513H604L608 508Z" fill="#773C3C"/>
<path d="M624 508L620 513H628L624 508Z" fill="#773C3C"/>
<path d="M624 508L620 513M624 508L628 513H620M624 508H611M620 513H604L608 508H611M611 508V504" stroke="black" stroke-width="2"/>
<path d="M605 513H619H627V521H619H605V513Z" fill="#D9D9D9"/>
<path d="M619 513H605V521H619M619 513H627V521H619M619 513V521" stroke="black" stroke-width="2"/>
<path d="M625 521.073V517H704L704 535H556V521.073H625Z" fill="#9E9FA0" stroke="black" stroke-width="2"/>
<path d="M543.765 521V519.992C543.765 516.315 540.488 513.503 536.854 514.062L534 514.5V517H530C526.686 517 524 519.686 524 523V529H548V521H543.765Z" fill="#828D55" stroke="black" stroke-width="2"/>
<path d="M518.969 525H440V557H971V541H768.245V536L518.969 525Z" fill="#9E9FA0" stroke="black" stroke-width="2"/>
<rect x="580" y="424" width="112" height="48" fill="#9E9FA0" stroke="black" stroke-width="2"/>
<rect x="668" y="424" width="24" height="48" fill="#9E9FA0"/>
<rect x="668" y="424" width="24" height="48" fill="black" fill-opacity="0.15"/>
<rect x="668" y="424" width="24" height="48" stroke="black" stroke-width="2"/>
<path d="M632 416H660V424H628L632 416Z" fill="#6A322A" stroke="black" stroke-width="2"/>
<path d="M801 424H773V432H805L801 424Z" fill="#6A322A" stroke="black" stroke-width="2"/>
<path d="M765 424H793V432H761L765 424Z" fill="#6A322A" stroke="black" stroke-width="2"/>
<path d="M711 392H739L735 400H707L711 392Z" fill="#4A3131"/>
<path d="M739 392L735 400H743L739 392Z" fill="#4A3131"/>
<path d="M739 392H711L707 400H735M739 392L735 400M739 392L743 400H735" stroke="black" stroke-width="2"/>
<path fill-rule="evenodd" clip-rule="evenodd" d="M979 517C979 514.239 981.239 512 984 512H994C996.209 512 998 513.791 998 516V525C998.577 521.538 1001.57 519 1005.08 519H1009.03C1013.78 519 1017.46 523.181 1016.85 527.9L1015.8 536.048C1014.77 544.026 1007.98 550 999.932 550H994H985H961V532C961 527.582 964.582 524 969 524H973V523C973 519.686 975.686 517 979 517ZM1020 545C1020 538.373 1025.37 533 1032 533H1040C1046.63 533 1052 538.373 1052 545V549H1020V545Z" fill="#866D55"/>
<path d="M979 517V518H980V517H979ZM998 525H997L998.986 525.164L998 525ZM1016.85 527.9L1015.86 527.772L1015.86 527.772L1016.85 527.9ZM1015.8 536.048L1016.79 536.176L1016.79 536.176L1015.8 536.048ZM961 550H960V551H961V550ZM973 524V525H974V524H973ZM1052 549V550H1053V549H1052ZM1020 549H1019V550H1020V549ZM984 511C980.686 511 978 513.686 978 517H980C980 514.791 981.791 513 984 513V511ZM994 511H984V513H994V511ZM999 516C999 513.239 996.761 511 994 511V513C995.657 513 997 514.343 997 516H999ZM999 525V516H997V525H999ZM1005.08 518C1001.08 518 997.671 520.891 997.014 524.836L998.986 525.164C999.483 522.184 1002.06 520 1005.08 520V518ZM1009.03 518H1005.08V520H1009.03V518ZM1017.84 528.028C1018.53 522.71 1014.39 518 1009.03 518V520C1013.18 520 1016.39 523.651 1015.86 527.772L1017.84 528.028ZM1016.79 536.176L1017.84 528.028L1015.86 527.772L1014.81 535.92L1016.79 536.176ZM999.932 551C1008.48 551 1015.7 544.653 1016.79 536.176L1014.81 535.92C1013.84 543.4 1007.47 549 999.932 549V551ZM994 551H999.932V549H994V551ZM994 549H985V551H994V549ZM985 549H961V551H985V549ZM962 550V532H960V550H962ZM962 532C962 528.134 965.134 525 969 525V523C964.029 523 960 527.029 960 532H962ZM969 525H973V523H969V525ZM972 523V524H974V523H972ZM979 516C975.134 516 972 519.134 972 523H974C974 520.239 976.239 518 979 518V516ZM1032 532C1024.82 532 1019 537.82 1019 545H1021C1021 538.925 1025.92 534 1032 534V532ZM1040 532H1032V534H1040V532ZM1053 545C1053 537.82 1047.18 532 1040 532V534C1046.08 534 1051 538.925 1051 545H1053ZM1053 549V545H1051V549H1053ZM1020 550H1052V548H1020V550ZM1019 545V549H1021V545H1019Z" fill="black"/>
<path opacity="0.5" d="M981 537H983C987.418 537 991 540.582 991 545V548V531" stroke="black" stroke-width="2"/>
<path d="M974 524V524C978.418 524 982 527.582 982 532V533" stroke="black" stroke-width="2"/>
<rect width="2" height="4" transform="matrix(-1 0 0 1 1035 532)" fill="black"/>
<rect width="2" height="4" transform="matrix(-1 0 0 1 1033 532)" fill="#866D55"/>
<rect width="2" height="4" transform="matrix(-1 0 0 1 1000 545)" fill="black"/>
<rect width="2" height="4" transform="matrix(-1 0 0 1 998 545)" fill="#866D55"/>
<rect width="2" height="4" transform="matrix(-1 0 0 1 974 523)" fill="black"/>
<rect width="2" height="4" transform="matrix(-1 0 0 1 972 523)" fill="#866D55"/>
<rect width="2" height="4" transform="matrix(-1 0 0 1 988 511)" fill="black"/>
<rect width="2" height="4" transform="matrix(-1 0 0 1 986 511)" fill="#866D55"/>
<rect width="2" height="4" transform="matrix(-1 0 0 1 992 511)" fill="black"/>
<rect width="2" height="4" transform="matrix(-1 0 0 1 990 511)" fill="#866D55"/>
<rect width="2" height="4" transform="matrix(-1 0 0 1 1004 545)" fill="black"/>
<rect width="2" height="4" transform="matrix(-1 0 0 1 1002 545)" fill="#866D55"/>
<path fill-rule="evenodd" clip-rule="evenodd" d="M712 505C712 500.582 715.582 497 720 497H729C732.866 497 736 500.134 736 504H754C757.314 504 760 506.686 760 510V511H765.927C773.311 511 778.943 517.605 777.777 524.896L777.617 525.896C776.685 531.717 771.663 536 765.767 536H760H753H725V540H713C706.373 540 701 534.627 701 528V524C701 519.582 704.582 516 709 516H712V514.5V505Z" fill="#9A885A"/>
<path d="M736 504H735V505H736V504ZM760 511H759V512H760V511ZM777.777 524.896L776.789 524.738L776.789 524.738L777.777 524.896ZM777.617 525.896L778.604 526.054L778.604 526.054L777.617 525.896ZM725 536V535H724V536H725ZM725 540V541H726V540H725ZM712 516V517H713V516H712ZM720 496C715.029 496 711 500.029 711 505H713C713 501.134 716.134 498 720 498V496ZM729 496H720V498H729V496ZM737 504C737 499.582 733.418 496 729 496V498C732.314 498 735 500.686 735 504H737ZM754 503H736V505H754V503ZM761 510C761 506.134 757.866 503 754 503V505C756.761 505 759 507.239 759 510H761ZM761 511V510H759V511H761ZM765.927 510H760V512H765.927V510ZM778.764 525.054C780.028 517.155 773.926 510 765.927 510V512C772.696 512 777.859 518.054 776.789 524.738L778.764 525.054ZM778.604 526.054L778.764 525.054L776.789 524.738L776.629 525.738L778.604 526.054ZM765.767 537C772.154 537 777.595 532.361 778.604 526.054L776.629 525.738C775.775 531.074 771.172 535 765.767 535V537ZM760 537H765.767V535H760V537ZM753 537H760V535H753V537ZM725 537H753V535H725V537ZM724 536V540H726V536H724ZM725 539H713V541H725V539ZM713 539C706.925 539 702 534.075 702 528H700C700 535.18 705.82 541 713 541V539ZM702 528V524H700V528H702ZM702 524C702 520.134 705.134 517 709 517V515C704.029 515 700 519.029 700 524H702ZM709 517H712V515H709V517ZM711 514.5V516H713V514.5H711ZM711 505V514.5H713V505H711Z" fill="black"/>
<path opacity="0.5" d="M745 526V519C745 514.582 748.582 511 753 511H756" stroke="black" stroke-width="2"/>
<path opacity="0.5" d="M715 523L717 523C721.418 523 725 526.582 725 531L725 535L725 506" stroke="black" stroke-width="2"/>
<path d="M745 527L745 524C745 519.582 741.418 516 737 516L730 516" stroke="black" stroke-width="2"/>
<path d="M736 509L736 512C736 514.209 734.209 516 732 516L728 516" stroke="black" stroke-width="2"/>
<rect width="2" height="4" transform="matrix(-1 0 0 1 746 533)" fill="black"/>
<rect width="2" height="4" transform="matrix(-1 0 0 1 744 533)" fill="#9A885A"/>
<rect width="2" height="4" transform="matrix(-1 0 0 1 765 510)" fill="black"/>
<rect width="2" height="4" transform="matrix(-1 0 0 1 763 510)" fill="#9A885A"/>
<rect width="2" height="4" transform="matrix(-1 0 0 1 741 503)" fill="black"/>
<rect width="2" height="4" transform="matrix(-1 0 0 1 739 503)" fill="#9A885A"/>
<rect width="2" height="4" transform="matrix(-1 0 0 1 724 496)" fill="black"/>
<rect width="2" height="4" transform="matrix(-1 0 0 1 722 496)" fill="#9A885A"/>
<rect width="2" height="4" transform="matrix(-1 0 0 1 730 496)" fill="black"/>
<rect width="2" height="4" transform="matrix(-1 0 0 1 728 496)" fill="#9A885A"/>
<rect width="2" height="4" transform="matrix(-1 0 0 1 711 515)" fill="black"/>
<rect width="2" height="4" transform="matrix(-1 0 0 1 709 515)" fill="#9A885A"/>
<path d="M951.235 545V543.992C951.235 540.315 954.512 537.503 958.146 538.062L961 538.5V541H965C968.314 541 971 543.686 971 547V553H947V545H951.235Z" fill="#828D55" stroke="black" stroke-width="2"/>
<path d="M676 545H692L688 553H672L676 545Z" fill="#595652"/>
<path d="M692 545L688 553H696L692 545Z" fill="#595652"/>
<path d="M692 545H676L672 553H688M692 545L688 553M692 545L696 553H688" stroke="black" stroke-width="2"/>
<path d="M1378.85 526.252L1379 526.241V909H-3V515.09L-2.86832 515.101C-2.06255 515.17 -0.862754 515.272 0.713611 515.406C3.86634 515.673 8.52534 516.065 14.551 516.565C26.6022 517.565 44.1199 518.996 65.9868 520.72C109.72 524.168 170.851 528.787 240.44 533.475C379.613 542.849 552.638 552.497 687.992 553.585C823.244 554.671 996.269 547.816 1135.47 540.69C1205.07 537.127 1266.22 533.497 1309.97 530.756C1331.84 529.386 1349.37 528.239 1361.42 527.434C1367.45 527.032 1372.11 526.715 1375.27 526.499C1376.85 526.391 1378.05 526.308 1378.85 526.252Z" fill="#A9A995"/>
<path d="M1378.85 526.252L1379 526.241V909H-3V515.09L-2.86832 515.101C-2.06255 515.17 -0.862754 515.272 0.713611 515.406C3.86634 515.673 8.52534 516.065 14.551 516.565C26.6022 517.565 44.1199 518.996 65.9868 520.72C109.72 524.168 170.851 528.787 240.44 533.475C379.613 542.849 552.638 552.497 687.992 553.585C823.244 554.671 996.269 547.816 1135.47 540.69C1205.07 537.127 1266.22 533.497 1309.97 530.756C1331.84 529.386 1349.37 528.239 1361.42 527.434C1367.45 527.032 1372.11 526.715 1375.27 526.499C1376.85 526.391 1378.05 526.308 1378.85 526.252Z" fill="url(#paint1_linear_3946_45119)" fill-opacity="0.2"/>
<path d="M1378.85 526.252L1379 526.241V909H-3V515.09L-2.86832 515.101C-2.06255 515.17 -0.862754 515.272 0.713611 515.406C3.86634 515.673 8.52534 516.065 14.551 516.565C26.6022 517.565 44.1199 518.996 65.9868 520.72C109.72 524.168 170.851 528.787 240.44 533.475C379.613 542.849 552.638 552.497 687.992 553.585C823.244 554.671 996.269 547.816 1135.47 540.69C1205.07 537.127 1266.22 533.497 1309.97 530.756C1331.84 529.386 1349.37 528.239 1361.42 527.434C1367.45 527.032 1372.11 526.715 1375.27 526.499C1376.85 526.391 1378.05 526.308 1378.85 526.252Z" stroke="black" stroke-width="2"/>
<path d="M548 408H572V472H548V408Z" fill="#9E9FA0" stroke="black" stroke-width="2"/>
<rect x="555" y="404" width="26" height="4" fill="#9E9FA0"/>
<rect x="555" y="404" width="26" height="4" fill="black" fill-opacity="0.2"/>
<rect x="555" y="404" width="26" height="4" stroke="black" stroke-width="2"/>
<rect x="683" y="396" width="26" height="4" fill="#9E9FA0"/>
<rect x="683" y="396" width="26" height="4" fill="black" fill-opacity="0.2"/>
<rect x="683" y="396" width="26" height="4" stroke="black" stroke-width="2"/>
<rect x="555" y="404" width="20" height="4" fill="#9E9FA0" stroke="black" stroke-width="2"/>
<rect x="683" y="396" width="20" height="4" fill="#9E9FA0" stroke="black" stroke-width="2"/>
<path d="M572 408H586V424H580V472H572V464V408Z" fill="#9E9FA0"/>
<path d="M572 408H586V424H580V472H572V464V408Z" fill="black" fill-opacity="0.15"/>
<path d="M572 472H580V424H586V408H572V464V472ZM572 472H548V464" stroke="black" stroke-width="2"/>
<rect x="555" y="416" width="2" height="6" fill="black"/>
<rect x="563" y="416" width="2" height="6" fill="black"/>
<rect x="591" y="432" width="2" height="6" fill="black"/>
<rect x="607" y="432" width="2" height="6" fill="black"/>
<rect x="623" y="432" width="2" height="6" fill="black"/>
<rect x="639" y="432" width="2" height="6" fill="black"/>
<rect x="655" y="432" width="2" height="6" fill="black"/>
<rect x="631" y="516" width="2" height="4" fill="black"/>
<rect x="647" y="516" width="2" height="4" fill="black"/>
<rect x="663" y="516" width="2" height="4" fill="black"/>
<rect x="679" y="516" width="2" height="4" fill="black"/>
<rect x="695" y="516" width="2" height="4" fill="black"/>
<rect x="633" y="516" width="2" height="4" fill="#9E9FA0"/>
<rect x="649" y="516" width="2" height="4" fill="#9E9FA0"/>
<rect x="665" y="516" width="2" height="4" fill="#9E9FA0"/>
<rect x="681" y="516" width="2" height="4" fill="#9E9FA0"/>
<rect x="697" y="516" width="2" height="4" fill="#9E9FA0"/>
<rect x="675" y="408" width="2" height="6" fill="black"/>
<rect x="691" y="408" width="2" height="6" fill="black"/>
<rect x="707" y="408" width="2" height="6" fill="black"/>
<rect x="723" y="408" width="2" height="6" fill="black"/>
<rect x="739" y="408" width="2" height="6" fill="black"/>
<rect x="675" y="432" width="2" height="6" fill="black"/>
<rect x="683" y="432" width="2" height="6" fill="black"/>
<circle cx="532" cy="392" r="8" fill="url(#paint2_linear_3946_45119)"/>
<path d="M681 466V472H679V466H680H681Z" fill="#3D3D3D" stroke="black" stroke-width="2"/>
<g opacity="0.2">
<path d="M292 602H692V594L537 584L988 572V584H1015" stroke="black" stroke-width="2"/>
<rect x="626" y="581" width="2" height="7" fill="black"/>
<rect x="632" y="581" width="2" height="7" fill="black"/>
<rect x="638" y="581" width="2" height="7" fill="black"/>
<rect x="636" y="579" width="2" height="5" fill="#8D8D7C"/>
<rect x="630" y="579" width="2" height="5" fill="#8D8D7C"/>
</g>
<path d="M754 424H766V432H751V430L754 427V424Z" fill="#7F8080" stroke="black" stroke-width="2"/>
<rect x="893" y="420" width="6" height="4" fill="#9E9FA0"/>
<rect x="893" y="420" width="6" height="4" fill="black" fill-opacity="0.2"/>
<rect x="893" y="420" width="6" height="4" stroke="black" stroke-width="2"/>
<rect x="899" y="420" width="12" height="4" fill="#9E9FA0"/>
<rect x="899" y="420" width="12" height="4" fill="black" fill-opacity="0.2"/>
<rect x="899" y="420" width="12" height="4" stroke="black" stroke-width="2"/>
<rect x="887" y="424" width="6" height="4" fill="#9E9FA0"/>
<rect x="887" y="424" width="6" height="4" fill="black" fill-opacity="0.4"/>
<rect x="887" y="424" width="6" height="4" stroke="black" stroke-width="2"/>
<rect x="881" y="428" width="6" height="4" fill="#9E9FA0" stroke="black" stroke-width="2"/>
<g opacity="0.9">
<rect x="631" y="421" width="2" height="2" fill="#C66731"/>
<rect x="635" y="421" width="2" height="2" fill="#C66731"/>
<rect x="639" y="421" width="2" height="2" fill="#C63131"/>
<rect x="633" y="419" width="2" height="2" fill="#C66731"/>
<rect x="637" y="419" width="2" height="2" fill="#C66731"/>
<rect x="641" y="419" width="2" height="2" fill="#C63131"/>
<rect x="635" y="417" width="2" height="2" fill="#C63131"/>
<rect x="639" y="417" width="2" height="2" fill="#C63131"/>
<rect x="643" y="417" width="2" height="2" fill="#C63131"/>
</g>
<g opacity="0.9">
<rect x="643" y="421" width="2" height="2" fill="#C66731"/>
<rect x="647" y="421" width="2" height="2" fill="#C66731"/>
<rect x="651" y="421" width="2" height="2" fill="#A33E3E"/>
<rect x="645" y="419" width="2" height="2" fill="#C66731"/>
<rect x="649" y="419" width="2" height="2" fill="#C66731"/>
<rect x="653" y="419" width="2" height="2" fill="#A33E3E"/>
<rect x="647" y="417" width="2" height="2" fill="#A33E3E"/>
<rect x="651" y="417" width="2" height="2" fill="#A33E3E"/>
<rect x="655" y="417" width="2" height="2" fill="#A33E3E"/>
</g>
<g opacity="0.5">
<rect x="722" y="397" width="2" height="2" fill="#C66731"/>
<rect x="726" y="397" width="2" height="2" fill="#C66731"/>
<rect x="730" y="397" width="2" height="2" fill="#C63131"/>
<rect x="724" y="395" width="2" height="2" fill="#C66731"/>
<rect x="728" y="395" width="2" height="2" fill="#C66731"/>
<rect x="732" y="395" width="2" height="2" fill="#C63131"/>
<rect x="726" y="393" width="2" height="2" fill="#C63131"/>
<rect x="730" y="393" width="2" height="2" fill="#C63131"/>
<rect x="734" y="393" width="2" height="2" fill="#C63131"/>
</g>
<g opacity="0.7">
<rect x="710" y="397" width="2" height="2" fill="#C66731"/>
<rect x="714" y="397" width="2" height="2" fill="#C66731"/>
<rect x="718" y="397" width="2" height="2" fill="#C63131"/>
<rect x="712" y="395" width="2" height="2" fill="#C66731"/>
<rect x="716" y="395" width="2" height="2" fill="#C66731"/>
<rect x="720" y="395" width="2" height="2" fill="#C63131"/>
<rect x="714" y="393" width="2" height="2" fill="#C63131"/>
<rect x="718" y="393" width="2" height="2" fill="#C63131"/>
<rect x="722" y="393" width="2" height="2" fill="#C63131"/>
</g>
<g opacity="0.5">
<rect x="778" y="429" width="2" height="2" fill="#C66731"/>
<rect x="782" y="429" width="2" height="2" fill="#C66731"/>
<rect x="786" y="429" width="2" height="2" fill="#C63131"/>
<rect x="780" y="427" width="2" height="2" fill="#C66731"/>
<rect x="784" y="427" width="2" height="2" fill="#C66731"/>
<rect x="788" y="427" width="2" height="2" fill="#C63131"/>
<rect x="782" y="425" width="2" height="2" fill="#C63131"/>
<rect x="786" y="425" width="2" height="2" fill="#C63131"/>
<rect x="790" y="425" width="2" height="2" fill="#C63131"/>
</g>
<g opacity="0.7">
<rect x="766" y="429" width="2" height="2" fill="#C66731"/>
<rect x="770" y="429" width="2" height="2" fill="#C66731"/>
<rect x="774" y="429" width="2" height="2" fill="#C63131"/>
<rect x="768" y="427" width="2" height="2" fill="#C66731"/>
<rect x="772" y="427" width="2" height="2" fill="#C66731"/>
<rect x="776" y="427" width="2" height="2" fill="#C63131"/>
<rect x="770" y="425" width="2" height="2" fill="#C63131"/>
<rect x="774" y="425" width="2" height="2" fill="#C63131"/>
<rect x="778" y="425" width="2" height="2" fill="#C63131"/>
</g>
<path fill-rule="evenodd" clip-rule="evenodd" d="M854 512C850.435 505.762 854.94 498 862.125 498H874C878.442 498 882.32 500.413 884.395 504H893.518C901.895 504 908.042 511.873 906.01 520H911.322C920.536 520 926.312 529.954 921.741 537.954L920 541H886H878H866H840H837C832.029 541 828 536.971 828 532C828 527.029 832.029 523 837 523H840V520.5V520C840 515.582 843.582 512 848 512H854Z" fill="#9A795A"/>
<path d="M854 512V513H855.723L854.868 511.504L854 512ZM884.395 504L883.529 504.501L883.818 505H884.395V504ZM906.01 520L905.04 519.757L904.729 521H906.01V520ZM921.741 537.954L920.872 537.458L920.872 537.458L921.741 537.954ZM920 541V542H920.58L920.868 541.496L920 541ZM840 523V524H841V523H840ZM862.125 497C854.172 497 849.186 505.591 853.132 512.496L854.868 511.504C851.685 505.932 855.708 499 862.125 499V497ZM874 497H862.125V499H874V497ZM885.26 503.499C883.014 499.616 878.813 497 874 497V499C878.07 499 881.626 501.21 883.529 504.501L885.26 503.499ZM893.518 503H884.395V505H893.518V503ZM906.98 520.243C909.17 511.484 902.546 503 893.518 503V505C901.245 505 906.914 512.261 905.04 519.757L906.98 520.243ZM911.322 519H906.01V521H911.322V519ZM922.609 538.45C927.561 529.783 921.304 519 911.322 519V521C919.768 521 925.063 530.124 920.872 537.458L922.609 538.45ZM920.868 541.496L922.609 538.45L920.872 537.458L919.132 540.504L920.868 541.496ZM886 542H920V540H886V542ZM878 542H886V540H878V542ZM866 542H878V540H866V542ZM866 540H840V542H866V540ZM840 540H837V542H840V540ZM837 540C832.582 540 829 536.418 829 532H827C827 537.523 831.477 542 837 542V540ZM829 532C829 527.582 832.582 524 837 524V522C831.477 522 827 526.477 827 532H829ZM837 524H840V522H837V524ZM839 520.5V523H841V520.5H839ZM839 520V520.5H841V520H839ZM848 511C843.029 511 839 515.029 839 520H841C841 516.134 844.134 513 848 513V511ZM854 511H848V513H854V511Z" fill="black"/>
<path d="M859 512H861.5C865.09 512 868 514.91 868 518.5V518.5V523L868.778 522.308C871.964 519.476 877 521.738 877 526V526" stroke="black" stroke-width="2"/>
<path d="M895 520V520C888.925 520 884 524.925 884 531V540V513" stroke="black" stroke-width="2"/>
<path opacity="0.5" d="M879 504H876C871.582 504 868 507.582 868 512V518" stroke="black" stroke-width="2"/>
<rect width="2" height="4" transform="matrix(-1 0 0 1 850 538)" fill="black"/>
<rect width="2" height="4" transform="matrix(-1 0 0 1 848 538)" fill="#9A795A"/>
<rect width="2" height="4" transform="matrix(-1 0 0 1 854 538)" fill="black"/>
<rect width="2" height="4" transform="matrix(-1 0 0 1 852 538)" fill="#9A795A"/>
<rect width="2" height="4" transform="matrix(-1 0 0 1 858 538)" fill="black"/>
<rect width="2" height="4" transform="matrix(-1 0 0 1 856 538)" fill="#9A795A"/>
<rect width="2" height="4" transform="matrix(-1 0 0 1 899 538)" fill="black"/>
<rect width="2" height="4" transform="matrix(-1 0 0 1 897 538)" fill="#9A795A"/>
<rect width="2" height="4" transform="matrix(-1 0 0 1 889 503)" fill="black"/>
<rect width="2" height="4" transform="matrix(-1 0 0 1 887 503)" fill="#9A795A"/>
<rect width="2" height="4" transform="matrix(-1 0 0 1 867 497)" fill="black"/>
<rect width="2" height="4" transform="matrix(-1 0 0 1 865 497)" fill="#9A795A"/>
<rect width="2" height="4" transform="matrix(-1 0 0 1 851 511)" fill="black"/>
<rect width="2" height="4" transform="matrix(-1 0 0 1 849 511)" fill="#9A795A"/>
<rect width="2" height="4" transform="matrix(-1 0 0 1 841 522)" fill="black"/>
<rect width="2" height="4" transform="matrix(-1 0 0 1 839 522)" fill="#9A795A"/>
<rect width="2" height="4" transform="matrix(-1 0 0 1 861 511)" fill="black"/>
<rect width="2" height="4" transform="matrix(-1 0 0 1 859 511)" fill="#9A795A"/>
<path d="M780.235 484V482C780.235 478.686 782.922 476 786.235 476H790V480H794C797.314 480 800 482.686 800 486V488H790H786H778L776 484H780.235Z" fill="#9A795A"/>
<path d="M786 488H778L776 484H780.235V482C780.235 478.686 782.922 476 786.235 476H790V480H794C797.314 480 800 482.686 800 486V488H790M786 488V485M786 488H790M790 488V485" stroke="black" stroke-width="2"/>
<rect x="787" y="485" width="2" height="4" fill="#9A795A"/>
<rect x="783" y="485" width="2" height="4" fill="#9A795A"/>
<path d="M920 484V487H906.5V483H903V477C903 474.791 904.791 473 907 473H911V470H912C918.627 470 924 475.373 924 482V484H920Z" fill="#828D55" stroke="black" stroke-width="2"/>
<rect x="908" y="472" width="2" height="4" fill="#828D55"/>
<rect x="913" y="484" width="2" height="4" fill="#828D55"/>
<rect x="911" y="484" width="2" height="4" fill="black"/>
<path opacity="0.2" d="M1340 667L1020 699C1020 699 1111.39 708.599 1159 739C1272.69 811.604 819 811 819 811V834L400 866" stroke="black" stroke-width="2"/>
</g>
<defs>
<linearGradient id="paint0_linear_3946_45119" x1="688" y1="493" x2="688" y2="0" gradientUnits="userSpaceOnUse">
<stop/>
<stop offset="1" stop-opacity="0"/>
</linearGradient>
<linearGradient id="paint1_linear_3946_45119" x1="688" y1="514" x2="688" y2="905.938" gradientUnits="userSpaceOnUse">
<stop/>
<stop offset="1" stop-opacity="0"/>
</linearGradient>
<linearGradient id="paint2_linear_3946_45119" x1="532" y1="384" x2="532" y2="400" gradientUnits="userSpaceOnUse">
<stop stop-color="#D6D3BE"/>
<stop offset="1" stop-color="#D6D3BE" stop-opacity="0.76"/>
</linearGradient>
<clipPath id="clip0_3946_45119">
<rect width="1376" height="904" fill="white"/>
</clipPath>
</defs>
</svg>
