<svg width="2000" height="1200" viewBox="0 0 2000 1200" fill="none" xmlns="http://www.w3.org/2000/svg">
<mask id="mask0_63_17937" style="mask-type:alpha" maskUnits="userSpaceOnUse" x="16" y="9" width="1969" height="1185">
<path d="M169 136L47 107H96C96 107 70.7927 57.5102 82 40C105.232 3.70222 206 58 206 58L185 23L314 45L302 23L589 40L603 15L949 45L927 23H1265V45L1443 23V45L1551 9V34L1911 9V69L1973 34L1963 85L1985 69L1973 169L1985 179L1973 452H1985L1963 681L1979 700L1946 730L1985 747L1963 758L1985 774L1953 899L1985 934H1911L1973 1099L1911 1075L1902 1171L1748 1139L1801 1177L1683 1165L1741 1187L1593 1165L1509 1187L1459 1153L1443 1177L1273 1153V1177L1075 1139L1079 1177L1027 1165L969 1194V1177H691V1136L653 1170L531 1131V1187L130 1153L165 1095H93L80 1109V1095L47 1131L139 969L16 1084L93 962L35 995L58 956L24 969L88 566L24 563H50.5L29.4867 371L96 373V360L104 352C104 352 58.7491 285.402 88 229C121.801 163.825 229 192 229 192L58 147L169 136Z" fill="white"/>
</mask>
<g mask="url(#mask0_63_17937)">
<rect y="-20" width="2000" height="1200" fill="url(#paint0_linear_63_17937)"/>
<rect x="1160" y="320" width="2" height="2" fill="#D9D9D9"/>
<rect x="896" y="248" width="2" height="2" fill="#D9D9D9"/>
<rect x="440" y="440" width="2" height="2" fill="#D9D9D9"/>
<rect width="2" height="2" transform="matrix(-1 0 0 1 1126 535)" fill="#D9D9D9"/>
<rect width="2" height="2" transform="matrix(-1 0 0 1 1234 480)" fill="#D9D9D9"/>
<path d="M2009 744V613H-9V744H2009Z" fill="#CAC8A6"/>
<path d="M2009 744V613H-9V744H2009Z" fill="black" fill-opacity="0.2"/>
<path d="M2009 744V613H-9V744H2009Z" stroke="#353535" stroke-width="2"/>
<path fill-rule="evenodd" clip-rule="evenodd" d="M846 591C849.565 584.762 845.06 577 837.875 577H826C821.558 577 817.68 579.413 815.605 583H806.482C798.105 583 791.958 590.873 793.99 599H789C782.373 599 777 604.373 777 611V620H814H822H834H860H863C867.971 620 872 615.971 872 611C872 606.029 867.971 602 863 602H860V599.5V599C860 594.582 856.418 591 852 591H846Z" fill="#8E7054"/>
<path d="M846 591V592H844.277L845.132 590.504L846 591ZM815.605 583L816.471 583.501L816.182 584H815.605V583ZM793.99 599L794.96 598.757L795.271 600H793.99V599ZM777 620V621H776V620H777ZM860 602V603H859V602H860ZM837.875 576C845.828 576 850.814 584.591 846.868 591.496L845.132 590.504C848.315 584.932 844.292 578 837.875 578V576ZM826 576H837.875V578H826V576ZM814.74 582.499C816.986 578.616 821.187 576 826 576V578C821.93 578 818.374 580.21 816.471 583.501L814.74 582.499ZM806.482 582H815.605V584H806.482V582ZM793.02 599.243C790.83 590.484 797.454 582 806.482 582V584C798.755 584 793.086 591.261 794.96 598.757L793.02 599.243ZM789 598H793.99V600H789V598ZM776 611C776 603.82 781.82 598 789 598V600C782.925 600 778 604.925 778 611H776ZM776 620V611H778V620H776ZM814 621H777V619H814V621ZM822 621H814V619H822V621ZM834 621H822V619H834V621ZM834 619H860V621H834V619ZM860 619H863V621H860V619ZM863 619C867.418 619 871 615.418 871 611H873C873 616.523 868.523 621 863 621V619ZM871 611C871 606.582 867.418 603 863 603V601C868.523 601 873 605.477 873 611H871ZM863 603H860V601H863V603ZM861 599.5V602H859V599.5H861ZM861 599V599.5H859V599H861ZM852 590C856.971 590 861 594.029 861 599H859C859 595.134 855.866 592 852 592V590ZM846 590H852V592H846V590Z" fill="#353535"/>
<path d="M841 591H838.5C834.91 591 832 593.91 832 597.5V597.5V602L831.222 601.308C828.036 598.476 823 600.738 823 605V605" stroke="#353535" stroke-width="2"/>
<path d="M805 599V599C811.075 599 816 603.925 816 610V619V592" stroke="#353535" stroke-width="2"/>
<path opacity="0.5" d="M821 583H824C828.418 583 832 586.582 832 591V597" stroke="#353535" stroke-width="2"/>
<rect x="850" y="617" width="2" height="4" fill="#353535"/>
<rect x="852" y="617" width="2" height="4" fill="#8E7054"/>
<rect x="846" y="617" width="2" height="4" fill="#353535"/>
<rect x="848" y="617" width="2" height="4" fill="#8E7054"/>
<rect x="842" y="617" width="2" height="4" fill="#353535"/>
<rect x="844" y="617" width="2" height="4" fill="#8E7054"/>
<rect x="801" y="617" width="2" height="4" fill="#353535"/>
<rect x="803" y="617" width="2" height="4" fill="#8E7054"/>
<rect x="811" y="582" width="2" height="4" fill="#353535"/>
<rect x="813" y="582" width="2" height="4" fill="#8E7054"/>
<rect x="833" y="576" width="2" height="4" fill="#353535"/>
<rect x="835" y="576" width="2" height="4" fill="#8E7054"/>
<rect x="849" y="590" width="2" height="4" fill="#353535"/>
<rect x="851" y="590" width="2" height="4" fill="#8E7054"/>
<rect x="859" y="601" width="2" height="4" fill="#353535"/>
<rect x="861" y="601" width="2" height="4" fill="#8E7054"/>
<path d="M932 544H944V554H929V550L932 547V544Z" fill="#7F8080" stroke="#353535" stroke-width="2"/>
<path d="M972 528H1084V560H1199V624H972V528Z" fill="#9E9FA0"/>
<path d="M1084 560V528H972V624H1199V560H1084ZM1084 560H1026V624" stroke="#353535" stroke-width="2"/>
<path d="M1199 552H1223V665H1199V552Z" fill="#9E9FA0" stroke="#353535" stroke-width="2"/>
<path d="M794.731 600L772.425 616L21 637V685H416.927H2009V637L1304.97 611L1288.25 622H1271.52V616H1024.76L1002.45 600H843.525H794.731Z" fill="#888564"/>
<path d="M21 685V637L772.425 616L794.731 600H843.525H1002.45L1024.76 616H1271.52V622H1288.25L1304.97 611L2009 637V685H416.927M21 685H416.927M21 685L697.579 624.312M416.927 685L733.564 624.625" stroke="#353535" stroke-width="2"/>
<path opacity="0.2" d="M964 621C964 621 950.559 622.094 942.421 623.769C934.878 625.322 924 629 924 629" stroke="#353535" stroke-width="2"/>
<path opacity="0.2" d="M976 633C976 633 962.559 634.094 954.421 635.769C946.878 637.322 936 641 936 641" stroke="#353535" stroke-width="2"/>
<path opacity="0.2" d="M968 625C968 625 954.559 626.094 946.421 627.769C938.878 629.322 928 633 928 633" stroke="#353535" stroke-width="2"/>
<path opacity="0.2" d="M980 637C980 637 966.559 638.094 958.421 639.769C950.878 641.322 940 645 940 645" stroke="#353535" stroke-width="2"/>
<path opacity="0.2" d="M972 629C972 629 958.559 630.094 950.421 631.769C942.878 633.322 932 637 932 637" stroke="#353535" stroke-width="2"/>
<path opacity="0.2" d="M984 641C984 641 970.559 642.094 962.421 643.769C954.878 645.322 944 649 944 649" stroke="#353535" stroke-width="2"/>
<path opacity="0.2" d="M1020 621C1020 621 1006.56 622.094 998.421 623.769C990.878 625.322 980 629 980 629" stroke="#353535" stroke-width="2"/>
<path opacity="0.2" d="M1032 633C1032 633 1018.56 634.094 1010.42 635.769C1002.88 637.322 992 641 992 641" stroke="#353535" stroke-width="2"/>
<path opacity="0.2" d="M1024 625C1024 625 1010.56 626.094 1002.42 627.769C994.878 629.322 984 633 984 633" stroke="#353535" stroke-width="2"/>
<path opacity="0.2" d="M1036 637C1036 637 1022.56 638.094 1014.42 639.769C1006.88 641.322 996 645 996 645" stroke="#353535" stroke-width="2"/>
<path opacity="0.2" d="M1028 629C1028 629 1014.56 630.094 1006.42 631.769C998.878 633.322 988 637 988 637" stroke="#353535" stroke-width="2"/>
<path opacity="0.2" d="M1040 641C1040 641 1026.56 642.094 1018.42 643.769C1010.88 645.322 1000 649 1000 649" stroke="#353535" stroke-width="2"/>
<path d="M920 636H923H936L932 641H916L920 636Z" fill="#773C3C"/>
<path d="M936 636L932 641H940L936 636Z" fill="#773C3C"/>
<path d="M936 636L932 641M936 636L940 641H932M936 636H923M932 641H916L920 636H923M923 636V632" stroke="#353535" stroke-width="2"/>
<path d="M917 641H931H939V649H931H917V641Z" fill="#D9D9D9"/>
<path d="M931 641H917V649H931M931 641H939V649H931M931 641V649" stroke="#353535" stroke-width="2"/>
<path d="M937 649.073V645H1016L1016 663H868V649.073H937Z" fill="#9E9FA0" stroke="#353535" stroke-width="2"/>
<path d="M855.765 649V647.992C855.765 644.315 852.488 641.503 848.854 642.062L846 642.5V645H842C838.686 645 836 647.686 836 651V657H860V649H855.765Z" fill="#828D55" stroke="#353535" stroke-width="2"/>
<path d="M830.969 653H752V685H1283V669H1080.24V664L830.969 653Z" fill="#9E9FA0" stroke="#353535" stroke-width="2"/>
<rect x="892" y="552" width="112" height="48" fill="#9E9FA0" stroke="#353535" stroke-width="2"/>
<rect x="980" y="552" width="24" height="48" fill="#9E9FA0"/>
<rect x="980" y="552" width="24" height="48" fill="black" fill-opacity="0.15"/>
<rect x="980" y="552" width="24" height="48" stroke="#353535" stroke-width="2"/>
<path d="M944 544H972V552H940L944 544Z" fill="#6A322A" stroke="#353535" stroke-width="2"/>
<path d="M1113 552H1085V560H1117L1113 552Z" fill="#6A322A" stroke="#353535" stroke-width="2"/>
<path d="M1077 552H1105V560H1073L1077 552Z" fill="#6A322A" stroke="#353535" stroke-width="2"/>
<path d="M1023 520H1051L1047 528H1019L1023 520Z" fill="#4A3131"/>
<path d="M1051 520L1047 528H1055L1051 520Z" fill="#4A3131"/>
<path d="M1051 520H1023L1019 528H1047M1051 520L1047 528M1051 520L1055 528H1047" stroke="#353535" stroke-width="2"/>
<path fill-rule="evenodd" clip-rule="evenodd" d="M1291 649C1291 646.239 1293.24 644 1296 644H1306C1308.21 644 1310 645.791 1310 648V657C1310.58 653.538 1313.57 651 1317.08 651H1321.03C1325.78 651 1329.46 655.181 1328.85 659.9L1327.8 668.048C1326.77 676.026 1319.98 682 1311.93 682H1306H1297H1273V664C1273 659.582 1276.58 656 1281 656H1285V655C1285 651.686 1287.69 649 1291 649ZM1332 677C1332 670.373 1337.37 665 1344 665H1352C1358.63 665 1364 670.373 1364 677V681H1332V677Z" fill="#866D55"/>
<path d="M1291 649V650H1292V649H1291ZM1310 657H1309L1310.99 657.164L1310 657ZM1328.85 659.9L1327.86 659.772L1328.85 659.9ZM1327.8 668.048L1328.79 668.176L1327.8 668.048ZM1273 682H1272V683H1273V682ZM1285 656V657H1286V656H1285ZM1364 681V682H1365V681H1364ZM1332 681H1331V682H1332V681ZM1296 643C1292.69 643 1290 645.686 1290 649H1292C1292 646.791 1293.79 645 1296 645V643ZM1306 643H1296V645H1306V643ZM1311 648C1311 645.239 1308.76 643 1306 643V645C1307.66 645 1309 646.343 1309 648H1311ZM1311 657V648H1309V657H1311ZM1317.08 650C1313.08 650 1309.67 652.891 1309.01 656.836L1310.99 657.164C1311.48 654.184 1314.06 652 1317.08 652V650ZM1321.03 650H1317.08V652H1321.03V650ZM1329.84 660.028C1330.53 654.71 1326.39 650 1321.03 650V652C1325.18 652 1328.39 655.651 1327.86 659.772L1329.84 660.028ZM1328.79 668.176L1329.84 660.028L1327.86 659.772L1326.81 667.92L1328.79 668.176ZM1311.93 683C1320.48 683 1327.7 676.653 1328.79 668.176L1326.81 667.92C1325.84 675.4 1319.47 681 1311.93 681V683ZM1306 683H1311.93V681H1306V683ZM1306 681H1297V683H1306V681ZM1297 681H1273V683H1297V681ZM1274 682V664H1272V682H1274ZM1274 664C1274 660.134 1277.13 657 1281 657V655C1276.03 655 1272 659.029 1272 664H1274ZM1281 657H1285V655H1281V657ZM1284 655V656H1286V655H1284ZM1291 648C1287.13 648 1284 651.134 1284 655H1286C1286 652.239 1288.24 650 1291 650V648ZM1344 664C1336.82 664 1331 669.82 1331 677H1333C1333 670.925 1337.92 666 1344 666V664ZM1352 664H1344V666H1352V664ZM1365 677C1365 669.82 1359.18 664 1352 664V666C1358.08 666 1363 670.925 1363 677H1365ZM1365 681V677H1363V681H1365ZM1332 682H1364V680H1332V682ZM1331 677V681H1333V677H1331Z" fill="#353535"/>
<path opacity="0.5" d="M1293 669H1295C1299.42 669 1303 672.582 1303 677V680V663" stroke="#353535" stroke-width="2"/>
<path d="M1286 656V656C1290.42 656 1294 659.582 1294 664V665" stroke="#353535" stroke-width="2"/>
<rect width="2" height="4" transform="matrix(-1 0 0 1 1347 664)" fill="#353535"/>
<rect width="2" height="4" transform="matrix(-1 0 0 1 1345 664)" fill="#866D55"/>
<rect width="2" height="4" transform="matrix(-1 0 0 1 1312 677)" fill="#353535"/>
<rect width="2" height="4" transform="matrix(-1 0 0 1 1310 677)" fill="#866D55"/>
<rect width="2" height="4" transform="matrix(-1 0 0 1 1286 655)" fill="#353535"/>
<rect width="2" height="4" transform="matrix(-1 0 0 1 1284 655)" fill="#866D55"/>
<rect width="2" height="4" transform="matrix(-1 0 0 1 1300 643)" fill="#353535"/>
<rect width="2" height="4" transform="matrix(-1 0 0 1 1298 643)" fill="#866D55"/>
<rect width="2" height="4" transform="matrix(-1 0 0 1 1304 643)" fill="#353535"/>
<rect width="2" height="4" transform="matrix(-1 0 0 1 1302 643)" fill="#866D55"/>
<rect width="2" height="4" transform="matrix(-1 0 0 1 1316 677)" fill="#353535"/>
<rect width="2" height="4" transform="matrix(-1 0 0 1 1314 677)" fill="#866D55"/>
<path fill-rule="evenodd" clip-rule="evenodd" d="M1024 633C1024 628.582 1027.58 625 1032 625H1041C1044.87 625 1048 628.134 1048 632H1066C1069.31 632 1072 634.686 1072 638V639H1077.93C1085.31 639 1090.94 645.605 1089.78 652.896L1089.62 653.896C1088.69 659.717 1083.66 664 1077.77 664H1072H1065H1037V668H1025C1018.37 668 1013 662.627 1013 656V652C1013 647.582 1016.58 644 1021 644H1024V642.5V633Z" fill="#9A885A"/>
<path d="M1048 632H1047V633H1048V632ZM1072 639H1071V640H1072V639ZM1089.78 652.896L1088.79 652.738V652.738L1089.78 652.896ZM1089.62 653.896L1090.6 654.054V654.054L1089.62 653.896ZM1037 664V663H1036V664H1037ZM1037 668V669H1038V668H1037ZM1024 644V645H1025V644H1024ZM1032 624C1027.03 624 1023 628.029 1023 633H1025C1025 629.134 1028.13 626 1032 626V624ZM1041 624H1032V626H1041V624ZM1049 632C1049 627.582 1045.42 624 1041 624V626C1044.31 626 1047 628.686 1047 632H1049ZM1066 631H1048V633H1066V631ZM1073 638C1073 634.134 1069.87 631 1066 631V633C1068.76 633 1071 635.239 1071 638H1073ZM1073 639V638H1071V639H1073ZM1077.93 638H1072V640H1077.93V638ZM1090.76 653.054C1092.03 645.155 1085.93 638 1077.93 638V640C1084.7 640 1089.86 646.054 1088.79 652.738L1090.76 653.054ZM1090.6 654.054L1090.76 653.054L1088.79 652.738L1088.63 653.738L1090.6 654.054ZM1077.77 665C1084.15 665 1089.6 660.361 1090.6 654.054L1088.63 653.738C1087.78 659.074 1083.17 663 1077.77 663V665ZM1072 665H1077.77V663H1072V665ZM1065 665H1072V663H1065V665ZM1037 665H1065V663H1037V665ZM1036 664V668H1038V664H1036ZM1037 667H1025V669H1037V667ZM1025 667C1018.92 667 1014 662.075 1014 656H1012C1012 663.18 1017.82 669 1025 669V667ZM1014 656V652H1012V656H1014ZM1014 652C1014 648.134 1017.13 645 1021 645V643C1016.03 643 1012 647.029 1012 652H1014ZM1021 645H1024V643H1021V645ZM1023 642.5V644H1025V642.5H1023ZM1023 633V642.5H1025V633H1023Z" fill="#353535"/>
<path opacity="0.5" d="M1057 654V647C1057 642.582 1060.58 639 1065 639H1068" stroke="#353535" stroke-width="2"/>
<path opacity="0.5" d="M1027 651L1029 651C1033.42 651 1037 654.582 1037 659L1037 663L1037 634" stroke="#353535" stroke-width="2"/>
<path d="M1057 655L1057 652C1057 647.582 1053.42 644 1049 644L1042 644" stroke="#353535" stroke-width="2"/>
<path d="M1048 637L1048 640C1048 642.209 1046.21 644 1044 644L1040 644" stroke="#353535" stroke-width="2"/>
<rect width="2" height="4" transform="matrix(-1 0 0 1 1058 661)" fill="#353535"/>
<rect width="2" height="4" transform="matrix(-1 0 0 1 1056 661)" fill="#9A885A"/>
<rect width="2" height="4" transform="matrix(-1 0 0 1 1077 638)" fill="#353535"/>
<rect width="2" height="4" transform="matrix(-1 0 0 1 1075 638)" fill="#9A885A"/>
<rect width="2" height="4" transform="matrix(-1 0 0 1 1053 631)" fill="#353535"/>
<rect width="2" height="4" transform="matrix(-1 0 0 1 1051 631)" fill="#9A885A"/>
<rect width="2" height="4" transform="matrix(-1 0 0 1 1036 624)" fill="#353535"/>
<rect width="2" height="4" transform="matrix(-1 0 0 1 1034 624)" fill="#9A885A"/>
<rect width="2" height="4" transform="matrix(-1 0 0 1 1042 624)" fill="#353535"/>
<rect width="2" height="4" transform="matrix(-1 0 0 1 1040 624)" fill="#9A885A"/>
<rect width="2" height="4" transform="matrix(-1 0 0 1 1023 643)" fill="#353535"/>
<rect width="2" height="4" transform="matrix(-1 0 0 1 1021 643)" fill="#9A885A"/>
<path d="M1263.24 673V671.992C1263.24 668.315 1266.51 665.503 1270.15 666.062L1273 666.5V669H1277C1280.31 669 1283 671.686 1283 675V681H1259V673H1263.24Z" fill="#828D55" stroke="#353535" stroke-width="2"/>
<path d="M989 677H1005L1001 685H985L989 677Z" fill="#595652"/>
<path d="M1005 677L1001 685H1009L1005 677Z" fill="#595652"/>
<path d="M1005 677H989L985 685H1001M1005 677L1001 685M1005 677L1009 685H1001" stroke="#353535" stroke-width="2"/>
<path d="M2007.29 645.884L2008 645.836V1199H-8V630.087C-7.79739 630.104 -7.56667 630.123 -7.30813 630.144C-6.13338 630.241 -4.3841 630.386 -2.08575 630.575C2.51094 630.952 9.30391 631.506 18.0895 632.211C35.6607 633.623 61.2025 635.643 93.0857 638.076C156.852 642.943 245.984 649.463 347.45 656.08C550.375 669.313 802.649 682.932 999.992 684.467C1197.19 686 1449.46 676.324 1652.42 666.266C1753.91 661.236 1843.07 656.111 1906.86 652.243C1938.75 650.309 1964.3 648.689 1981.88 647.553C1990.67 646.985 1997.47 646.538 2002.07 646.233C2004.37 646.08 2006.12 645.963 2007.29 645.884Z" fill="#A9A995"/>
<path d="M2007.29 645.884L2008 645.836V1199H-8V630.087C-7.79739 630.104 -7.56667 630.123 -7.30813 630.144C-6.13338 630.241 -4.3841 630.386 -2.08575 630.575C2.51094 630.952 9.30391 631.506 18.0895 632.211C35.6607 633.623 61.2025 635.643 93.0857 638.076C156.852 642.943 245.984 649.463 347.45 656.08C550.375 669.313 802.649 682.932 999.992 684.467C1197.19 686 1449.46 676.324 1652.42 666.266C1753.91 661.236 1843.07 656.111 1906.86 652.243C1938.75 650.309 1964.3 648.689 1981.88 647.553C1990.67 646.985 1997.47 646.538 2002.07 646.233C2004.37 646.08 2006.12 645.963 2007.29 645.884Z" fill="url(#paint1_linear_63_17937)" fill-opacity="0.2"/>
<path d="M2007.29 645.884L2008 645.836V1199H-8V630.087C-7.79739 630.104 -7.56667 630.123 -7.30813 630.144C-6.13338 630.241 -4.3841 630.386 -2.08575 630.575C2.51094 630.952 9.30391 631.506 18.0895 632.211C35.6607 633.623 61.2025 635.643 93.0857 638.076C156.852 642.943 245.984 649.463 347.45 656.08C550.375 669.313 802.649 682.932 999.992 684.467C1197.19 686 1449.46 676.324 1652.42 666.266C1753.91 661.236 1843.07 656.111 1906.86 652.243C1938.75 650.309 1964.3 648.689 1981.88 647.553C1990.67 646.985 1997.47 646.538 2002.07 646.233C2004.37 646.08 2006.12 645.963 2007.29 645.884Z" stroke="#353535" stroke-width="2"/>
<path d="M860 536H884V600H860V536Z" fill="#9E9FA0" stroke="#353535" stroke-width="2"/>
<rect x="867" y="532" width="26" height="4" fill="#9E9FA0"/>
<rect x="867" y="532" width="26" height="4" fill="black" fill-opacity="0.2"/>
<rect x="867" y="532" width="26" height="4" stroke="#353535" stroke-width="2"/>
<rect x="995" y="524" width="26" height="4" fill="#9E9FA0"/>
<rect x="995" y="524" width="26" height="4" fill="black" fill-opacity="0.2"/>
<rect x="995" y="524" width="26" height="4" stroke="#353535" stroke-width="2"/>
<rect x="867" y="532" width="20" height="4" fill="#9E9FA0" stroke="#353535" stroke-width="2"/>
<rect x="995" y="524" width="20" height="4" fill="#9E9FA0" stroke="#353535" stroke-width="2"/>
<path d="M884 536H898V552H892V600H884V592V536Z" fill="#9E9FA0"/>
<path d="M884 536H898V552H892V600H884V592V536Z" fill="black" fill-opacity="0.15"/>
<path d="M884 600H892V552H898V536H884V592V600ZM884 600H860V592" stroke="#353535" stroke-width="2"/>
<rect x="867" y="544" width="2" height="6" fill="#353535"/>
<rect x="875" y="544" width="2" height="6" fill="#353535"/>
<rect x="903" y="560" width="2" height="6" fill="#353535"/>
<rect x="919" y="560" width="2" height="6" fill="#353535"/>
<rect x="935" y="560" width="2" height="6" fill="#353535"/>
<rect x="951" y="560" width="2" height="6" fill="#353535"/>
<rect x="967" y="560" width="2" height="6" fill="#353535"/>
<rect x="943" y="644" width="2" height="4" fill="#353535"/>
<rect x="959" y="644" width="2" height="4" fill="#353535"/>
<rect x="975" y="644" width="2" height="4" fill="#353535"/>
<rect x="991" y="644" width="2" height="4" fill="#353535"/>
<rect x="1007" y="644" width="2" height="4" fill="#353535"/>
<rect x="945" y="644" width="2" height="4" fill="#9E9FA0"/>
<rect x="961" y="644" width="2" height="4" fill="#9E9FA0"/>
<rect x="977" y="644" width="2" height="4" fill="#9E9FA0"/>
<rect x="993" y="644" width="2" height="4" fill="#9E9FA0"/>
<rect x="1009" y="644" width="2" height="4" fill="#9E9FA0"/>
<rect x="987" y="536" width="2" height="6" fill="#353535"/>
<rect x="1003" y="536" width="2" height="6" fill="#353535"/>
<rect x="1019" y="536" width="2" height="6" fill="#353535"/>
<rect x="1035" y="536" width="2" height="6" fill="#353535"/>
<rect x="1051" y="536" width="2" height="6" fill="#353535"/>
<rect x="987" y="560" width="2" height="6" fill="#353535"/>
<rect x="995" y="560" width="2" height="6" fill="#353535"/>
<circle cx="844" cy="520" r="8" fill="url(#paint2_linear_63_17937)"/>
<path d="M991 594H992H993V600H991V594Z" fill="#3D3D3D" stroke="#353535" stroke-width="2"/>
<g opacity="0.2">
<path d="M604 730H1004V722L849 712L1300 700V712H1327" stroke="#353535" stroke-width="2"/>
<rect x="938" y="709" width="2" height="7" fill="#353535"/>
<rect x="944" y="709" width="2" height="7" fill="#353535"/>
<rect x="950" y="709" width="2" height="7" fill="#353535"/>
<rect x="948" y="707" width="2" height="5" fill="#8D8D7C"/>
<rect x="942" y="707" width="2" height="5" fill="#8D8D7C"/>
</g>
<path d="M1066 552H1078V560H1063V558L1066 555V552Z" fill="#7F8080" stroke="#353535" stroke-width="2"/>
<rect x="1205" y="548" width="6" height="4" fill="#9E9FA0"/>
<rect x="1205" y="548" width="6" height="4" fill="black" fill-opacity="0.2"/>
<rect x="1205" y="548" width="6" height="4" stroke="#353535" stroke-width="2"/>
<rect x="1211" y="548" width="12" height="4" fill="#9E9FA0"/>
<rect x="1211" y="548" width="12" height="4" fill="black" fill-opacity="0.2"/>
<rect x="1211" y="548" width="12" height="4" stroke="#353535" stroke-width="2"/>
<rect x="1199" y="552" width="6" height="4" fill="#9E9FA0"/>
<rect x="1199" y="552" width="6" height="4" fill="black" fill-opacity="0.4"/>
<rect x="1199" y="552" width="6" height="4" stroke="#353535" stroke-width="2"/>
<rect x="1193" y="556" width="6" height="4" fill="#9E9FA0" stroke="#353535" stroke-width="2"/>
<g opacity="0.9">
<rect x="943" y="549" width="2" height="2" fill="#C66731"/>
<rect x="947" y="549" width="2" height="2" fill="#C66731"/>
<rect x="951" y="549" width="2" height="2" fill="#C63131"/>
<rect x="945" y="547" width="2" height="2" fill="#C66731"/>
<rect x="949" y="547" width="2" height="2" fill="#C66731"/>
<rect x="953" y="547" width="2" height="2" fill="#C63131"/>
<rect x="947" y="545" width="2" height="2" fill="#C63131"/>
<rect x="951" y="545" width="2" height="2" fill="#C63131"/>
<rect x="955" y="545" width="2" height="2" fill="#C63131"/>
</g>
<g opacity="0.9">
<rect x="955" y="549" width="2" height="2" fill="#C66731"/>
<rect x="959" y="549" width="2" height="2" fill="#C66731"/>
<rect x="963" y="549" width="2" height="2" fill="#A33E3E"/>
<rect x="957" y="547" width="2" height="2" fill="#C66731"/>
<rect x="961" y="547" width="2" height="2" fill="#C66731"/>
<rect x="965" y="547" width="2" height="2" fill="#A33E3E"/>
<rect x="959" y="545" width="2" height="2" fill="#A33E3E"/>
<rect x="963" y="545" width="2" height="2" fill="#A33E3E"/>
<rect x="967" y="545" width="2" height="2" fill="#A33E3E"/>
</g>
<g opacity="0.5">
<rect x="1034" y="525" width="2" height="2" fill="#C66731"/>
<rect x="1038" y="525" width="2" height="2" fill="#C66731"/>
<rect x="1042" y="525" width="2" height="2" fill="#C63131"/>
<rect x="1036" y="523" width="2" height="2" fill="#C66731"/>
<rect x="1040" y="523" width="2" height="2" fill="#C66731"/>
<rect x="1044" y="523" width="2" height="2" fill="#C63131"/>
<rect x="1038" y="521" width="2" height="2" fill="#C63131"/>
<rect x="1042" y="521" width="2" height="2" fill="#C63131"/>
<rect x="1046" y="521" width="2" height="2" fill="#C63131"/>
</g>
<g opacity="0.7">
<rect x="1022" y="525" width="2" height="2" fill="#C66731"/>
<rect x="1026" y="525" width="2" height="2" fill="#C66731"/>
<rect x="1030" y="525" width="2" height="2" fill="#C63131"/>
<rect x="1024" y="523" width="2" height="2" fill="#C66731"/>
<rect x="1028" y="523" width="2" height="2" fill="#C66731"/>
<rect x="1032" y="523" width="2" height="2" fill="#C63131"/>
<rect x="1026" y="521" width="2" height="2" fill="#C63131"/>
<rect x="1030" y="521" width="2" height="2" fill="#C63131"/>
<rect x="1034" y="521" width="2" height="2" fill="#C63131"/>
</g>
<g opacity="0.5">
<rect x="1090" y="557" width="2" height="2" fill="#C66731"/>
<rect x="1094" y="557" width="2" height="2" fill="#C66731"/>
<rect x="1098" y="557" width="2" height="2" fill="#C63131"/>
<rect x="1092" y="555" width="2" height="2" fill="#C66731"/>
<rect x="1096" y="555" width="2" height="2" fill="#C66731"/>
<rect x="1100" y="555" width="2" height="2" fill="#C63131"/>
<rect x="1094" y="553" width="2" height="2" fill="#C63131"/>
<rect x="1098" y="553" width="2" height="2" fill="#C63131"/>
<rect x="1102" y="553" width="2" height="2" fill="#C63131"/>
</g>
<g opacity="0.7">
<rect x="1078" y="557" width="2" height="2" fill="#C66731"/>
<rect x="1082" y="557" width="2" height="2" fill="#C66731"/>
<rect x="1086" y="557" width="2" height="2" fill="#C63131"/>
<rect x="1080" y="555" width="2" height="2" fill="#C66731"/>
<rect x="1084" y="555" width="2" height="2" fill="#C66731"/>
<rect x="1088" y="555" width="2" height="2" fill="#C63131"/>
<rect x="1082" y="553" width="2" height="2" fill="#C63131"/>
<rect x="1086" y="553" width="2" height="2" fill="#C63131"/>
<rect x="1090" y="553" width="2" height="2" fill="#C63131"/>
</g>
<path fill-rule="evenodd" clip-rule="evenodd" d="M1166 640C1162.44 633.762 1166.94 626 1174.12 626H1186C1190.44 626 1194.32 628.413 1196.39 632H1205.52C1213.9 632 1220.04 639.873 1218.01 648H1223.32C1232.54 648 1238.31 657.954 1233.74 665.954L1232 669H1198H1190H1178H1152H1149C1144.03 669 1140 664.971 1140 660C1140 655.029 1144.03 651 1149 651H1152V648.5V648C1152 643.582 1155.58 640 1160 640H1166Z" fill="#9A795A"/>
<path d="M1166 640V641H1167.72L1166.87 639.504L1166 640ZM1196.39 632L1195.53 632.501L1195.82 633H1196.39V632ZM1218.01 648L1217.04 647.757L1216.73 649H1218.01V648ZM1233.74 665.954L1232.87 665.458L1233.74 665.954ZM1232 669V670H1232.58L1232.87 669.496L1232 669ZM1152 651V652H1153V651H1152ZM1174.12 625C1166.17 625 1161.19 633.591 1165.13 640.496L1166.87 639.504C1163.68 633.932 1167.71 627 1174.12 627V625ZM1186 625H1174.12V627H1186V625ZM1197.26 631.499C1195.01 627.616 1190.81 625 1186 625V627C1190.07 627 1193.63 629.21 1195.53 632.501L1197.26 631.499ZM1205.52 631H1196.39V633H1205.52V631ZM1218.98 648.243C1221.17 639.484 1214.55 631 1205.52 631V633C1213.24 633 1218.91 640.261 1217.04 647.757L1218.98 648.243ZM1223.32 647H1218.01V649H1223.32V647ZM1234.61 666.45C1239.56 657.783 1233.3 647 1223.32 647V649C1231.77 649 1237.06 658.124 1232.87 665.458L1234.61 666.45ZM1232.87 669.496L1234.61 666.45L1232.87 665.458L1231.13 668.504L1232.87 669.496ZM1198 670H1232V668H1198V670ZM1190 670H1198V668H1190V670ZM1178 670H1190V668H1178V670ZM1178 668H1152V670H1178V668ZM1152 668H1149V670H1152V668ZM1149 668C1144.58 668 1141 664.418 1141 660H1139C1139 665.523 1143.48 670 1149 670V668ZM1141 660C1141 655.582 1144.58 652 1149 652V650C1143.48 650 1139 654.477 1139 660H1141ZM1149 652H1152V650H1149V652ZM1151 648.5V651H1153V648.5H1151ZM1151 648V648.5H1153V648H1151ZM1160 639C1155.03 639 1151 643.029 1151 648H1153C1153 644.134 1156.13 641 1160 641V639ZM1166 639H1160V641H1166V639Z" fill="#353535"/>
<path d="M1171 640H1173.5C1177.09 640 1180 642.91 1180 646.5V646.5V651L1180.78 650.308C1183.96 647.476 1189 649.738 1189 654V654" stroke="#353535" stroke-width="2"/>
<path d="M1207 648V648C1200.92 648 1196 652.925 1196 659V668V641" stroke="#353535" stroke-width="2"/>
<path opacity="0.5" d="M1191 632H1188C1183.58 632 1180 635.582 1180 640V646" stroke="#353535" stroke-width="2"/>
<rect width="2" height="4" transform="matrix(-1 0 0 1 1162 666)" fill="#353535"/>
<rect width="2" height="4" transform="matrix(-1 0 0 1 1160 666)" fill="#9A795A"/>
<rect width="2" height="4" transform="matrix(-1 0 0 1 1166 666)" fill="#353535"/>
<rect width="2" height="4" transform="matrix(-1 0 0 1 1164 666)" fill="#9A795A"/>
<rect width="2" height="4" transform="matrix(-1 0 0 1 1170 666)" fill="#353535"/>
<rect width="2" height="4" transform="matrix(-1 0 0 1 1168 666)" fill="#9A795A"/>
<rect width="2" height="4" transform="matrix(-1 0 0 1 1211 666)" fill="#353535"/>
<rect width="2" height="4" transform="matrix(-1 0 0 1 1209 666)" fill="#9A795A"/>
<rect width="2" height="4" transform="matrix(-1 0 0 1 1201 631)" fill="#353535"/>
<rect width="2" height="4" transform="matrix(-1 0 0 1 1199 631)" fill="#9A795A"/>
<rect width="2" height="4" transform="matrix(-1 0 0 1 1179 625)" fill="#353535"/>
<rect width="2" height="4" transform="matrix(-1 0 0 1 1177 625)" fill="#9A795A"/>
<rect width="2" height="4" transform="matrix(-1 0 0 1 1163 639)" fill="#353535"/>
<rect width="2" height="4" transform="matrix(-1 0 0 1 1161 639)" fill="#9A795A"/>
<rect width="2" height="4" transform="matrix(-1 0 0 1 1153 650)" fill="#353535"/>
<rect width="2" height="4" transform="matrix(-1 0 0 1 1151 650)" fill="#9A795A"/>
<rect width="2" height="4" transform="matrix(-1 0 0 1 1173 639)" fill="#353535"/>
<rect width="2" height="4" transform="matrix(-1 0 0 1 1171 639)" fill="#9A795A"/>
<path d="M1092.24 612V610C1092.24 606.686 1094.92 604 1098.24 604H1102V608H1106C1109.31 608 1112 610.686 1112 614V616H1102H1098H1090L1088 612H1092.24Z" fill="#9A795A"/>
<path d="M1098 616H1090L1088 612H1092.24V610C1092.24 606.686 1094.92 604 1098.24 604H1102V608H1106C1109.31 608 1112 610.686 1112 614V616H1102M1098 616V613M1098 616H1102M1102 616V613" stroke="#353535" stroke-width="2"/>
<rect x="1099" y="613" width="2" height="4" fill="#9A795A"/>
<rect x="1095" y="613" width="2" height="4" fill="#9A795A"/>
<path d="M1232 612V615H1218.5V611H1215V605C1215 602.791 1216.79 601 1219 601H1223V598H1224C1230.63 598 1236 603.373 1236 610V612H1232Z" fill="#828D55" stroke="#353535" stroke-width="2"/>
<rect x="1220" y="600" width="2" height="4" fill="#828D55"/>
<rect x="1225" y="612" width="2" height="4" fill="#828D55"/>
<rect x="1223" y="612" width="2" height="4" fill="#353535"/>
<path opacity="0.2" d="M1652 795L1332 827C1332 827 1423.39 836.599 1471 867C1584.69 939.604 1131 939 1131 939V962L712 994" stroke="#353535" stroke-width="2"/>
</g>
<defs>
<linearGradient id="paint0_linear_63_17937" x1="1000" y1="-20" x2="1000" y2="614.5" gradientUnits="userSpaceOnUse">
<stop stop-color="#647E8D"/>
<stop offset="1" stop-color="#526773"/>
</linearGradient>
<linearGradient id="paint1_linear_63_17937" x1="1000" y1="629" x2="1000" y2="1182.27" gradientUnits="userSpaceOnUse">
<stop/>
<stop offset="1" stop-opacity="0"/>
</linearGradient>
<linearGradient id="paint2_linear_63_17937" x1="844" y1="512" x2="844" y2="528" gradientUnits="userSpaceOnUse">
<stop stop-color="#D6D3BE"/>
<stop offset="1" stop-color="#D6D3BE" stop-opacity="0.76"/>
</linearGradient>
</defs>
</svg>
