<svg width="540" height="544" viewBox="0 0 540 544" fill="none" xmlns="http://www.w3.org/2000/svg">
<g clip-path="url(#clip0_1_4150)">
<g opacity="0.3">
<path opacity="0.5" d="M20.5 141.556L196.5 141.556" stroke="black" stroke-width="2"/>
<path d="M20.5 134.556H196.5" stroke="black" stroke-width="2"/>
<path fill-rule="evenodd" clip-rule="evenodd" d="M157.5 129.056V215.056H187.5V129.056V128.556H187.492C187.228 120.503 180.617 114.056 172.5 114.056C164.383 114.056 157.772 120.503 157.508 128.556H157.5V129.056Z" fill="#6E7880"/>
<path d="M157.5 215.056V216.056H156.5V215.056H157.5ZM187.5 215.056H188.5V216.056H187.5V215.056ZM187.5 128.556V127.556H188.5V128.556H187.5ZM187.492 128.556V129.556H186.524L186.492 128.588L187.492 128.556ZM157.508 128.556L158.508 128.588L158.476 129.556H157.508V128.556ZM157.5 128.556H156.5V127.556H157.5V128.556ZM158.5 129.056V215.056H156.5V129.056H158.5ZM157.5 214.056H187.5V216.056H157.5V214.056ZM186.5 215.056V129.056H188.5V215.056H186.5ZM186.5 129.056V128.556H188.5V129.056H186.5ZM187.5 129.556H187.492V127.556H187.5V129.556ZM186.492 128.588C186.246 121.073 180.076 115.056 172.5 115.056V113.056C181.158 113.056 188.21 119.933 188.491 128.523L186.492 128.588ZM172.5 115.056C164.924 115.056 158.754 121.073 158.508 128.588L156.509 128.523C156.79 119.933 163.842 113.056 172.5 113.056V115.056ZM157.508 129.556H157.5V127.556H157.508V129.556ZM158.5 128.556V129.056H156.5V128.556H158.5Z" fill="black"/>
<path fill-rule="evenodd" clip-rule="evenodd" d="M115.5 129.056V215.056H145.5V129.056V128.556H145.492C145.228 120.503 138.617 114.056 130.5 114.056C122.383 114.056 115.772 120.503 115.508 128.556H115.5V129.056Z" fill="#6E7880"/>
<path d="M115.5 215.056V216.056H114.5V215.056H115.5ZM145.5 215.056H146.5V216.056H145.5V215.056ZM145.5 128.556V127.556H146.5V128.556H145.5ZM145.492 128.556V129.556H144.524L144.492 128.588L145.492 128.556ZM115.508 128.556L116.508 128.588L116.476 129.556H115.508V128.556ZM115.5 128.556H114.5V127.556H115.5V128.556ZM116.5 129.056V215.056H114.5V129.056H116.5ZM115.5 214.056H145.5V216.056H115.5V214.056ZM144.5 215.056V129.056H146.5V215.056H144.5ZM144.5 129.056V128.556H146.5V129.056H144.5ZM145.5 129.556H145.492V127.556H145.5V129.556ZM144.492 128.588C144.246 121.073 138.076 115.056 130.5 115.056V113.056C139.158 113.056 146.21 119.933 146.491 128.523L144.492 128.588ZM130.5 115.056C122.924 115.056 116.754 121.073 116.508 128.588L114.509 128.523C114.79 119.933 121.842 113.056 130.5 113.056V115.056ZM115.508 129.556H115.5V127.556H115.508V129.556ZM116.5 128.556V129.056H114.5V128.556H116.5Z" fill="black"/>
<path opacity="0.5" d="M-0.5 102.556L187.5 102.556" stroke="black" stroke-width="2"/>
<path d="M-0.5 96.5557L187.5 96.5557" stroke="black" stroke-width="2"/>
<path opacity="0.5" d="M363.5 141.556L539.5 141.556" stroke="black" stroke-width="2"/>
<path d="M363.5 134.556H539.5" stroke="black" stroke-width="2"/>
<path opacity="0.01" d="M206 14.5557H-0.5V112.163H14V86.3057H6.75L15.5 78.0557L25.5 29.0557L35.25 78.0557L44 86.3057H38V109.306L69.75 78.0557L103.5 112.163H95.5V132.056L107.5 143.556L126.5 188.556L142.25 171.442L161.924 192.056L159.924 159.556L131.5 120.556L143 75.0557L145.5 77.5557L147 76.3057L144 72.5557L147.75 70.0557L147.25 67.5557L159.5 63.0557L160 56.3057L164.25 60.3057L167 58.8057L165.5 56.8057L175.5 49.5557L175 46.3057L178 47.5557L181.75 44.5557L182.25 41.5557L186.5 38.3057L187.75 35.5557L195.5 36.3057L196.25 37.5557V38.8057L198.75 42.5557L207.25 41.5557V38.3057H203.5L207.25 18.0557L206 14.5557Z" fill="#43494A"/>
<path d="M236.25 254.306L277.25 266.047M266 254.306L268.75 255.556V254.306M332.75 282.556L289.5 271.056M338.5 270.806V273.056M326.5 271.056V272.306L324.25 271.056" stroke="#43494A" stroke-width="2"/>
<path d="M537.5 134.556L537.5 142.556" stroke="black" stroke-width="2"/>
<path d="M533.5 134.556L533.5 138.556" stroke="black" stroke-width="2"/>
<path d="M529.5 134.556L529.5 138.556" stroke="black" stroke-width="2"/>
<path d="M525.5 134.556L525.5 138.556" stroke="black" stroke-width="2"/>
<path d="M521.5 134.556L521.5 142.556" stroke="black" stroke-width="2"/>
<path d="M495.5 134.556L495.5 142.556" stroke="black" stroke-width="2"/>
<path d="M491.5 134.556L491.5 138.556" stroke="black" stroke-width="2"/>
<path d="M487.5 134.556L487.5 138.556" stroke="black" stroke-width="2"/>
<path d="M483.5 134.556L483.5 138.556" stroke="black" stroke-width="2"/>
<path d="M479.5 134.556L479.5 142.556" stroke="black" stroke-width="2"/>
<path d="M453.5 134.556L453.5 142.556" stroke="black" stroke-width="2"/>
<path d="M449.5 134.556L449.5 138.556" stroke="black" stroke-width="2"/>
<path d="M445.5 134.556L445.5 138.556" stroke="black" stroke-width="2"/>
<path d="M441.5 134.556L441.5 138.556" stroke="black" stroke-width="2"/>
<path d="M437.5 134.556L437.5 142.556" stroke="black" stroke-width="2"/>
<path d="M411.5 134.556L411.5 142.556" stroke="black" stroke-width="2"/>
<path d="M407.5 134.556L407.5 138.556" stroke="black" stroke-width="2"/>
<path d="M403.5 134.556L403.5 138.556" stroke="black" stroke-width="2"/>
<path d="M399.5 134.556L399.5 138.556" stroke="black" stroke-width="2"/>
<path d="M395.5 134.556L395.5 142.556" stroke="black" stroke-width="2"/>
<path d="M139.5 53.0558C139.5 30.8472 113.715 20.3842 99.5 37.0558C82.3039 11.121 59.4154 -2.01509 32.5 17.0558" stroke="black" stroke-width="2"/>
<path d="M304.5 150.611C304.5 128.403 330.285 117.94 344.5 134.611C361.696 108.677 384.585 95.5406 411.5 114.611" stroke="black" stroke-width="2"/>
<path fill-rule="evenodd" clip-rule="evenodd" d="M497.5 129.056V215.056H527.5V129.056V128.556H527.492C527.228 120.503 520.617 114.056 512.5 114.056C504.383 114.056 497.772 120.503 497.508 128.556H497.5V129.056Z" fill="#6E7880"/>
<path d="M497.5 215.056V216.056H496.5V215.056H497.5ZM527.5 215.056H528.5V216.056H527.5V215.056ZM527.5 128.556V127.556H528.5V128.556H527.5ZM527.492 128.556V129.556H526.524L526.492 128.588L527.492 128.556ZM497.508 128.556L498.508 128.588L498.476 129.556H497.508V128.556ZM497.5 128.556H496.5V127.556H497.5V128.556ZM498.5 129.056V215.056H496.5V129.056H498.5ZM497.5 214.056H527.5V216.056H497.5V214.056ZM526.5 215.056V129.056H528.5V215.056H526.5ZM526.5 129.056V128.556H528.5V129.056H526.5ZM527.5 129.556H527.492V127.556H527.5V129.556ZM526.492 128.588C526.246 121.073 520.076 115.056 512.5 115.056V113.056C521.158 113.056 528.21 119.933 528.491 128.523L526.492 128.588ZM512.5 115.056C504.924 115.056 498.754 121.073 498.508 128.588L496.509 128.523C496.79 119.933 503.842 113.056 512.5 113.056V115.056ZM497.508 129.556H497.5V127.556H497.508V129.556ZM498.5 128.556V129.056H496.5V128.556H498.5Z" fill="black"/>
<path fill-rule="evenodd" clip-rule="evenodd" d="M455.5 129.056V215.056H485.5V129.056V128.556H485.492C485.228 120.503 478.617 114.056 470.5 114.056C462.383 114.056 455.772 120.503 455.508 128.556H455.5V129.056Z" fill="#6E7880"/>
<path d="M455.5 215.056V216.056H454.5V215.056H455.5ZM485.5 215.056H486.5V216.056H485.5V215.056ZM485.5 128.556V127.556H486.5V128.556H485.5ZM485.492 128.556V129.556H484.524L484.492 128.588L485.492 128.556ZM455.508 128.556L456.508 128.588L456.476 129.556H455.508V128.556ZM455.5 128.556H454.5V127.556H455.5V128.556ZM456.5 129.056V215.056H454.5V129.056H456.5ZM455.5 214.056H485.5V216.056H455.5V214.056ZM484.5 215.056V129.056H486.5V215.056H484.5ZM484.5 129.056V128.556H486.5V129.056H484.5ZM485.5 129.556H485.492V127.556H485.5V129.556ZM484.492 128.588C484.246 121.073 478.076 115.056 470.5 115.056V113.056C479.158 113.056 486.21 119.933 486.491 128.523L484.492 128.588ZM470.5 115.056C462.924 115.056 456.754 121.073 456.508 128.588L454.509 128.523C454.79 119.933 461.842 113.056 470.5 113.056V115.056ZM455.508 129.556H455.5V127.556H455.508V129.556ZM456.5 128.556V129.056H454.5V128.556H456.5Z" fill="black"/>
<path fill-rule="evenodd" clip-rule="evenodd" d="M413.5 129.056V215.056H443.5V129.056V128.556H443.492C443.228 120.503 436.617 114.056 428.5 114.056C420.383 114.056 413.772 120.503 413.508 128.556H413.5V129.056Z" fill="#6E7880"/>
<path d="M413.5 215.056V216.056H412.5V215.056H413.5ZM443.5 215.056H444.5V216.056H443.5V215.056ZM443.5 128.556V127.556H444.5V128.556H443.5ZM443.492 128.556V129.556H442.524L442.492 128.588L443.492 128.556ZM413.508 128.556L414.508 128.588L414.476 129.556H413.508V128.556ZM413.5 128.556H412.5V127.556H413.5V128.556ZM414.5 129.056V215.056H412.5V129.056H414.5ZM413.5 214.056H443.5V216.056H413.5V214.056ZM442.5 215.056V129.056H444.5V215.056H442.5ZM442.5 129.056V128.556H444.5V129.056H442.5ZM443.5 129.556H443.492V127.556H443.5V129.556ZM442.492 128.588C442.246 121.073 436.076 115.056 428.5 115.056V113.056C437.158 113.056 444.21 119.933 444.491 128.523L442.492 128.588ZM428.5 115.056C420.924 115.056 414.754 121.073 414.508 128.588L412.509 128.523C412.79 119.933 419.842 113.056 428.5 113.056V115.056ZM413.508 129.556H413.5V127.556H413.508V129.556ZM414.5 128.556V129.056H412.5V128.556H414.5Z" fill="black"/>
<path fill-rule="evenodd" clip-rule="evenodd" d="M371.5 129.056V215.056H401.5V129.056V128.556H401.492C401.228 120.503 394.617 114.056 386.5 114.056C378.383 114.056 371.772 120.503 371.508 128.556H371.5V129.056Z" fill="#6E7880"/>
<path d="M371.5 215.056V216.056H370.5V215.056H371.5ZM401.5 215.056H402.5V216.056H401.5V215.056ZM401.5 128.556V127.556H402.5V128.556H401.5ZM401.492 128.556V129.556H400.524L400.492 128.588L401.492 128.556ZM371.508 128.556L372.508 128.588L372.476 129.556H371.508V128.556ZM371.5 128.556H370.5V127.556H371.5V128.556ZM372.5 129.056V215.056H370.5V129.056H372.5ZM371.5 214.056H401.5V216.056H371.5V214.056ZM400.5 215.056V129.056H402.5V215.056H400.5ZM400.5 129.056V128.556H402.5V129.056H400.5ZM401.5 129.556H401.492V127.556H401.5V129.556ZM400.492 128.588C400.246 121.073 394.076 115.056 386.5 115.056V113.056C395.158 113.056 402.21 119.933 402.491 128.523L400.492 128.588ZM386.5 115.056C378.924 115.056 372.754 121.073 372.508 128.588L370.509 128.523C370.79 119.933 377.842 113.056 386.5 113.056V115.056ZM371.508 129.556H371.5V127.556H371.508V129.556ZM372.5 128.556V129.056H370.5V128.556H372.5Z" fill="black"/>
<path d="M423.5 201.806V206.556H407.5V202.556L413.5 199.056V182.556L418.25 185.306L423.5 188.556V201.806Z" fill="#43494A" stroke="black" stroke-width="2"/>
<path d="M222.5 267.056L218 261.556L214 260.056L211 253.306H207V256.306L200.5 255.056L170.5 247.556L163 238.806V247.556L166.5 248.806L170.5 253.306L181.75 261.556L178.75 266.056H170.5V273.556L166.5 275.806H130L118.25 281.056L112.25 281.806L92 271.806L47.75 243.306L43.25 246.556L43.75 230.056L38.5 221.306L23 220.056L15.5 211.806L12.75 203.556L6 187.306L-0.5 205.306V235.556L7.75 244.056L19 238.806L31.75 249.556H42.25H64.75L73 272.806L53.5 280.306L42.25 291.306L-222 384.056V473.056L115.5 302.056L124 298.556L147.5 294.556L170.5 291.306L181.75 282.806H186.5L196.75 275.806L206.25 271.056L211.5 269.806L211 267.806L214 269.306L222.5 267.056Z" fill="#43494A"/>
<path d="M122.75 165.056L130 177.056H126L130 183.806L126 187.306V217.306L115.5 218.556L100.25 211.806L90.75 205.306L86.25 203.556H55.75L19 178.556L11 175.556L4.25 169.556L-0.5 165.056V155.806H16.25L26.75 178.556L43.25 180.806L55.75 191.056L67.5 195.306H86.25L96.25 198.056L112.25 211.806L115.5 203.556H109.25L118.25 195.306H113.5L117 185.056H115.5L120.25 177.056H118.25L122.75 165.056Z" fill="#43494A"/>
<path d="M115.25 301.556L96.75 284.556L91.25 271.056L88.25 258.056L84.5 256.806L75 247.306H67L57 254.806V271.056L49 276.556L45.5 294.056H83L63.5 301.556L52.25 312.556L35 316.056V323.806L8 345.556L-223.25 505.306L-17.75 552.806L49 470.306L1.5 443.306L67 447.306L115.25 333.056L71.25 323.806L131.5 314.056L123.25 312.556H138.25L177 304.556V301.556H115.25Z" fill="#4E5E44"/>
<path d="M756.5 106.056L237 254.556H265.75L268.75 252.806L269 254.306L289 254.556H342.75L289 269.056L290 271.056L402.75 269.806L385.75 272.306V273.806L364.75 277.056L360.75 275.806L356.75 279.056L322.75 284.056L280.5 291.556L255.5 306.556V320.556H395L468.25 343.556H433.75L650 469.556L721.5 291.556H743.5L756.5 106.056Z" fill="#4E5E44"/>
<path d="M182 253.556L170.5 250.056L166.75 248.806L170.5 253.556L182 261.556L178.5 266.056H170.5V273.556L168 276.056H163H151H140H130L126 278.556L118 281.556H112L106.5 278.556L96.5 273.556L91.5 271.056C90.8333 266.389 88.9 257.056 86.5 257.056C84.1 257.056 78.1667 250.722 75.5 247.556H66.5C64.8995 248.356 62.5305 249.748 60.5 251.377L46.5 243.556L43.5 246.806V230.556L38 221.556H19V216.306L15.5 212.056L13.5 214.181L11.5 216.306V221.556H19H38L32.5 230.556V250.056H40.5L43.5 246.806L46.5 243.556L60.5 251.377C62.5305 249.748 64.8995 248.356 66.5 247.556H75.5C78.1667 250.722 84.1 257.056 86.5 257.056C88.9 257.056 90.8333 266.389 91.5 271.056L96.5 284.556L106.5 293.056L115.5 301.556L136.5 297.556L146.5 293.056H168L175 287.056L187.5 278.556L196.5 271.056L192 261.556L182 253.556Z" fill="#43494A"/>
<path d="M137.5 198.556L133.5 194.556H161.5V188.556L143.5 172.556L125.5 188.556V220.28L137.5 228.556V204.556V198.556Z" fill="#43494A"/>
<path d="M109.5 203.556V212.056L115.5 203.556H109.5V203.298V162.556H115.25V160.556L113.5 156.306V154.806H106.5V142.556L96.5 132.556V112.556H104L69.5 78.0557L38.5 109.556V86.5557H43.5L35.5 78.5557L25.5 29.5557L15.5 78.5557L8.5 86.5557H13.5V112.556L19.5 117.556V144.556H27.5V146.556H35.5V148.556H43.5V150.556H51.5V152.556H59.5V154.806H69.5H96.5H106.5H113.5V156.306L115.25 160.556V162.556H109.5V203.298L109.25 203.556H109.5Z" fill="#43494A"/>
<path d="M202 254.806L170.5 247.556L163 239.056M163 239.056H151L137.5 228.556M163 239.056L172 232.306L175 235.556L188 225.806L197.5 226.306L199 235.556L196 238.556L200.25 237.806L198.25 241.806L206.75 253.056M-81 124.056L4.5 169.056C6.33333 171.556 10.6 176.656 13 177.056C15.4 177.456 19.6667 179.556 21.5 180.556C28.8333 185.889 44.1 196.856 46.5 198.056C49.5 199.556 54 203.556 60.5 203.556C67 203.556 81.5 203.556 86.5 203.556C90.5 203.556 97.5 209.222 100.5 212.056L115.5 218.556H123L137.5 228.556M151.5 243.556H163V247.556L166.75 248.806M115.5 301.556L136.5 297.556L146.5 293.056H168L175 287.056L187.5 278.556L196.5 271.056L192 261.556L182 253.556L170.5 250.056L166.75 248.806M115.5 301.556L106.5 293.056L96.5 284.556L91.5 271.056M115.5 301.556H176.75M91.5 271.056C90.8333 266.389 88.9 257.056 86.5 257.056C84.1 257.056 78.1667 250.722 75.5 247.556H66.5C64.8995 248.356 62.5305 249.748 60.5 251.377M91.5 271.056L96.5 273.556L106.5 278.556L112 281.556C113.167 281.556 116 281.556 118 281.556L126 278.556L130 276.056H140H151H163H168L170.5 273.556V266.056H178.5L182 261.556L170.5 253.556L166.75 248.806M-233 305.056H9C10.3333 305.222 13.5 305.456 15.5 305.056C17.5 304.656 23 302.556 25.5 301.556L38 297.556L46.5 290.556C46.5 286.556 47.2 278.056 50 276.056C52.8 274.056 55.5 271.889 56.5 271.056C56.5 267.889 56.5 260.656 56.5 257.056C56.5 255.184 58.3016 253.142 60.5 251.377M-233 515.056L-60 314.556H36M91.5 305.056C91.5 305.056 95.6667 309.222 99 308.056M177.5 230.556V218.603V204.556M137.5 228.556V204.556M161.5 194.556H181.5L177.5 198.649V204.556M161.5 194.556H133.5L137.5 198.556V204.556M161.5 194.556V188.556L143.5 172.556L125.5 188.556V220.28M109.5 212.056V162.556H115.25V160.556L113.5 156.306V154.806H106.5M109.5 212.056L106.5 207.056L96.5 198.056L86.5 195.556H69.5L56.5 191.556L43.5 180.556L27.5 179.056L19 162.056M109.5 212.056L115.5 203.556H109.25L117 195.556C117 195.556 113.5 195.139 113.5 193.806L118 185.306L115.5 184.556L120.5 177.056H118L123 164.056L130 177.056H126L129 182.056M4.5 156.056L36.75 154.806M106.5 154.806V142.556L96.5 132.556M106.5 154.806H96.5M96.5 132.556V154.806M96.5 132.556V112.556H104L69.5 78.0557L38.5 109.556M96.5 154.806H69.5M43.5 112.556H35L38.5 109.556M69.5 154.806V142.556H75.5L69.5 136.556H27.5M69.5 154.806H59.5M59.5 154.806V152.556H51.5V150.556H43.5V148.556H35.5V146.556H27.5V144.556H19.5V117.556L13.5 112.556M59.5 154.806H36.75M13.5 112.556H-1M13.5 112.556V86.5557H8.5L15.5 78.5557L25.5 29.5557M38.5 109.556V86.5557H43.5L35.5 78.5557L25.5 29.5557M25.5 29.5557V24.5557M4.5 239.056L7.5 243.556L13.25 241.306L16.125 240.181M32.5 250.056L19 239.056L16.125 240.181M32.5 250.056H40.5L43.5 246.806M32.5 250.056V230.556L38 221.556M60.5 251.377L46.5 243.556L43.5 246.806M43.5 246.806V230.556L38 221.556M38 221.556H19M16.125 240.181V229.497L7.5 218.556L3 223.556M19 221.556V216.306L15.5 212.056L13.5 214.181M19 221.556H11.5V216.306L13.5 214.181M13.5 214.181V205.306M13.5 205.306L7.5 188.556M13.5 205.306H3M7.5 188.556L3 200.306M7.5 188.556V184.556M-1 136.556H11.5L16.125 146.556H21.5L23.5 148.556L29.5 150.056L36.75 154.806M218 254.556H211.5L214 259.806L218 261.556L223.5 267.306L214 269.306L211.5 267.306V269.306L206.25 271.056L204.5 269.306V272.056L194 277.556M25.5 19.5557V24.5557M25.5 24.5557H29.5M25.5 24.5557H21.5M7.5 180.556V184.556M7.5 184.556H10M7.5 184.556H4.5M178.5 301.556H176.75M176.75 301.556V304.306M176.75 304.306L138.5 312.306H122.25M176.75 304.306L190 305.056L108.5 326.056L137.25 332.556L151 376.056H142.25L151 379.806L156 493.306L122.25 586.806M122.25 312.306V310.556M122.25 312.306L130 313.806L103 323.806H72L109.5 332.556L66.5 438.056L13.25 441.556L54.5 466.806L-40 586.806M114 314.556L119.75 306.306M114 314.556L117.25 309.806M114 314.556H94.5M192 279.556L185.5 283.056H183.75M177.5 204.556H180.5M137.5 204.556H134.5" stroke="black" stroke-width="2"/>
<path d="M176.5 203.556H138.5" stroke="black" stroke-width="2" stroke-dasharray="8 4"/>
<path d="M130.5 199.556H133.587V211.556H181.413V199.556H184.5" stroke="black" stroke-width="2"/>
<path d="M299.5 96.5557L539.5 96.5557" stroke="black" stroke-width="2"/>
<path opacity="0.5" d="M299.5 102.556L539.5 102.556" stroke="black" stroke-width="2"/>
<path d="M107.5 164.056L107.5 172.556" stroke="black" stroke-width="2"/>
<path d="M103.5 164.056L103.5 172.556" stroke="black" stroke-width="2"/>
<path d="M99.5 164.056L99.5 172.556" stroke="black" stroke-width="2"/>
<path d="M95.5 164.056L95.5 172.556" stroke="black" stroke-width="2"/>
<path d="M91.5 164.056L91.5 172.556" stroke="black" stroke-width="2"/>
<path d="M87.5 164.056L87.5 172.556" stroke="black" stroke-width="2"/>
<path d="M83.5 164.056L83.5 172.556" stroke="black" stroke-width="2"/>
<path d="M79.5 164.056L79.5 172.556" stroke="black" stroke-width="2"/>
<path d="M75.5 164.056L75.5 172.556" stroke="black" stroke-width="2"/>
<path d="M71.5 164.056L71.5 172.556" stroke="black" stroke-width="2"/>
<path d="M113 164.556H69.5" stroke="black" stroke-width="2"/>
<path d="M115 172.556L25.5 172.556" stroke="black" stroke-width="2"/>
<path d="M109.5 164.556H110.5M113.5 172.556V167.556M113.5 167.556V164.556H110.5M113.5 167.556L110.5 164.556" stroke="black" stroke-width="2"/>
<path d="M113.5 172.556H112.5M109.5 180.556V175.556M109.5 175.556V172.556H112.5M109.5 175.556L112.5 172.556" stroke="black" stroke-width="2"/>
<path d="M539.5 239.056L529.5 245.306L522 261.306L496 268.806L456.25 274.806L434.25 284.556L414.25 298.556L412.25 301.806L387 291.056L366.75 287.556L322.5 284.556L282.5 291.056L239.5 314.556L268 325.806L316 329.806L376.5 328.056L404 323.556L391 332.556H539.5H672.25V318.556L623.5 300.056C623.5 300.056 604.182 280.088 592.75 268.806C574.036 250.336 539.5 239.056 539.5 239.056Z" fill="#43494A"/>
<g opacity="0.4">
<path opacity="0.3" d="M462 281.056C458.089 260.664 443.5 195.556 443.5 195.556L423.5 201.056V214.056L414.501 221.056C414.501 221.056 406.991 279.983 405.5 291.056C402 317.056 469 317.556 462 281.056Z" fill="white"/>
<path opacity="0.3" d="M541 254.806C528.75 238.806 485.75 183.306 485.75 183.306L456.25 191.806C456.25 191.806 484.096 252.68 492.5 272.056C510.5 313.556 566.716 288.394 541 254.806Z" fill="white"/>
<path opacity="0.3" d="M330.5 280.556C342.75 264.556 369 217.056 369 217.056L400 210.056C400 210.056 377.749 266.556 371.749 286.806C363.074 316.086 304.509 314.502 330.5 280.556Z" fill="white"/>
<path opacity="0.3" d="M605 205.056L527 171.306L497.25 180.306L552 221.556L605 205.056Z" fill="white"/>
</g>
<path d="M255.5 259.556L255.5 268.556" stroke="#43494A" stroke-width="2"/>
<path d="M255.5 240.056V248.556" stroke="black" stroke-width="2"/>
<path d="M473.5 332.556L479.25 318.056L494.75 302.056C494.75 302.056 497.593 286.782 503.25 279.056C508.457 271.945 520.75 264.806 520.75 264.806L522.406 261.056M522.406 261.056L529.25 245.556L539.5 239.056M522.406 261.056L494.75 269.056C494.75 269.056 470.864 270.132 456.5 274.806C447.564 277.713 434.5 284.556 434.5 284.556L414.25 298.806L412.36 302.056M404.5 323.306L391 332.556M404.5 323.306L377.5 328.306C341.251 330.393 281.25 332.556 250.5 319.056M404.5 323.306L412.36 302.056M412.36 302.056L387.25 291.806L366.5 287.556L335 284.556H321.25C321.25 284.556 296.256 286.625 281.25 291.806C264.147 297.71 240.75 314.306 240.75 314.306" stroke="black" stroke-width="2"/>
<rect width="6" height="12.5" transform="matrix(-1 0 0 1 73.5 100.056)" fill="#6E7880"/>
<rect width="2.5" height="5.5" transform="matrix(-1 0 0 1 64.5 146.556)" fill="#6E7880"/>
<path d="M757.75 105.056C693.756 123.705 236.25 254.306 236.25 254.306H266L268.75 253.056V254.306H311.75H342.25L289.5 269.556V271.056H324.5L326.5 270.306V271.056L338.5 270.87M306.75 285.056L321.25 282.556L330.75 283.056L355.25 279.556H357L360.25 275.806L365 277.306L385.5 273.556V272.056L403 269.556L375 270.306L338.5 270.87M338.5 270.87V269.056M235.25 254.556H233.25" stroke="black" stroke-width="2"/>
<path d="M320 254.23L316.903 256.056H312V252.556H318.968L320 254.23Z" fill="#43494A" stroke="black" stroke-width="2"/>
<path d="M215 271.925C215 271.925 212.38 269.724 210.355 269.056C207.627 268.156 203 269.056 203 269.056V274.556H213.452L215 271.925Z" fill="#43494A" stroke="black" stroke-width="2"/>
<path d="M398.5 324.325C398.5 324.325 395.88 322.124 393.855 321.456C391.127 320.556 386.5 321.456 386.5 321.456V326.956H396.952L398.5 324.325Z" fill="#43494A" stroke="black" stroke-width="2"/>
<path d="M252 319.062C252 319.062 250.799 320.741 249.871 321.251C248.621 321.937 246.5 321.251 246.5 321.251V317.056H251.29L252 319.062Z" fill="#6E7880" stroke="black" stroke-width="2"/>
<path d="M389.5 326.562C389.5 326.562 388.19 328.241 387.177 328.751C385.814 329.437 383.5 328.751 383.5 328.751V324.556H388.726L389.5 326.562Z" fill="#43494A" stroke="black" stroke-width="2"/>
<path opacity="0.3" d="M215 277.186C215 277.186 212.38 279.388 210.355 280.056C207.627 280.955 203 280.056 203 280.056V274.556H213.452L215 277.186Z" fill="#6E7880" stroke="black" stroke-width="2"/>
<path d="M253.597 252.556H256.847L258.5 254.306H253.597V252.556Z" fill="#43494A" stroke="black" stroke-width="2"/>
<path opacity="0.3" d="M258.5 254.556L256.847 256.306H253.597V254.556" stroke="black" stroke-width="2"/>
<path opacity="0.3" d="M318.968 260.556L320 258.882L316.903 257.056H312V260.556" stroke="black" stroke-width="2"/>
<path d="M309.5 252.056V256.556" stroke="black" stroke-width="2"/>
<path opacity="0.3" d="M309.5 256.056V260.556" stroke="black" stroke-width="2"/>
<path d="M92.75 147.556H91.5L90.5 149.806L88.25 153.806H90V155.056H92.75L93.5 153.306L92.75 149.556V147.556Z" fill="#4E5E44" stroke="black" stroke-width="2"/>
<path d="M79.5 147.056L77.5 149.056V154.556H81.5V149.056L79.5 147.056Z" stroke="black" stroke-width="2"/>
<path d="M65.5 165.056L63.5 167.056V172.556H67.5V167.056L65.5 165.056Z" stroke="black" stroke-width="2"/>
<path d="M169.5 218.556L167.5 220.689V226.556H171.5V220.689L169.5 218.556Z" stroke="black" stroke-width="2"/>
<path d="M157.5 218.556L155.5 220.689V226.556H159.5V220.689L157.5 218.556Z" stroke="black" stroke-width="2"/>
<path d="M26 88.5557L23.5 90.689V96.5557H28.5V90.689L26 88.5557Z" stroke="black" stroke-width="2"/>
<path d="M29.5 100.556H26.5M23.5 100.556H26.5M26.5 100.556V104.556" stroke="black" stroke-width="2"/>
<path d="M21.5 100.556H18.5M15.5 100.556H18.5M18.5 100.556V104.556" stroke="black" stroke-width="2"/>
<path d="M37.5 100.556H34.5M31.5 100.556H34.5M34.5 100.556V104.556" stroke="black" stroke-width="2"/>
<path d="M16.5 100.556H13.5M10.5 100.556H13.5M13.5 100.556V112.556" stroke="black" stroke-width="2"/>
<path d="M44.5 100.556H41.5M38.5 100.556H41.5M41.5 100.556V109.556" stroke="black" stroke-width="2"/>
<path d="M145.5 218.556L143.5 220.689V226.556H147.5V220.689L145.5 218.556Z" stroke="black" stroke-width="2"/>
<path d="M31.5 58.5557H27.5M27.5 58.5557V61.5557M27.5 58.5557H23.5" stroke="black" stroke-width="2"/>
<path d="M46.5 54.5557H42.5M42.5 54.5557V57.5557M42.5 54.5557H38.5" stroke="black" stroke-width="2"/>
<path d="M54.5 68.5557H50.5M50.5 68.5557V71.5557M50.5 68.5557H46.5" stroke="black" stroke-width="2"/>
<path d="M123.5 30.5557V76.5557" stroke="black" stroke-width="2"/>
<path d="M100.5 53.5557L146.5 53.5557" stroke="black" stroke-width="2"/>
<path d="M113.5 43.5557L133.5 63.5558" stroke="black" stroke-width="2"/>
<path d="M113.5 63.5559L133.5 43.5558" stroke="black" stroke-width="2"/>
<circle cx="7" cy="7" r="6" transform="matrix(-1 0 0 1 130.5 46.5557)" fill="#6E7880" stroke="black" stroke-width="2"/>
<circle cx="15" cy="15" r="14" transform="matrix(-1 0 0 1 138.5 38.5557)" stroke="black" stroke-width="2"/>
<path d="M320.5 128.111V174.111" stroke="black" stroke-width="2"/>
<path d="M343.5 151.111L297.5 151.111" stroke="black" stroke-width="2"/>
<path d="M330.5 141.111L310.5 161.111" stroke="black" stroke-width="2"/>
<path d="M330.5 161.112L310.5 141.111" stroke="black" stroke-width="2"/>
<circle cx="320.5" cy="151.111" r="6" fill="#6E7880" stroke="black" stroke-width="2"/>
<circle cx="320.5" cy="151.111" r="14" stroke="black" stroke-width="2"/>
<path d="M356.5 251.056L329 262.556V266.556H388L455 217.056L369.5 248.056L356.5 256.056V251.056Z" fill="#4E5E44"/>
<path d="M430 265.056L392.5 275.056L409.5 293.056L460 268.556L462.5 255.056L433 260.556L430 265.056Z" fill="#4E5E44"/>
<path d="M448.901 223.556L428.5 226.651V228.556H473.921L477 223.556H458.909L445.821 226.651L448.901 223.556Z" fill="#4E5E44"/>
<path d="M504.27 197.056L484.5 198.913V200.056H528.516L531.5 197.056H513.968L501.286 198.913L504.27 197.056Z" fill="#4E5E44"/>
<path d="M442 170.722C417.158 170.722 409.843 149.056 388.221 149.056C366.598 149.056 360.321 179.056 399.309 179.056C417.527 179.056 408.101 168.5 389.884 168.5" stroke="black" stroke-width="2"/>
<path d="M443.75 174.635C435.44 174.635 429.087 174.635 420.777 171.319M361.5 177.951C375.35 206.138 416.609 200.816 425.763 189.005C433.187 179.425 417.541 168.556 389.754 168.556M387.538 168.556C377.012 168.556 375.904 173.53 393.077 174.635" stroke="black" stroke-width="2"/>
<path d="M511.57 127.543C487.723 115.661 471.121 143.807 488.292 153.218C494.171 156.441 498.188 155 500.75 153.218C508.947 147.517 500.47 134.535 492.272 140.236C488.686 142.731 490.059 147.438 490.059 147.438M483.679 173.835C519.564 169.079 530.064 139.276 514.017 135.327C518.854 131.963 515.334 124.742 510.408 123.89M492.532 169.292C492.532 169.292 486.932 172.051 472.85 172.591M481.957 169.749C481.957 169.749 474.925 171.183 461.709 171.306" stroke="black" stroke-width="2" stroke-linejoin="bevel"/>
</g>
<circle cx="172" cy="365" r="278" fill="url(#paint0_radial_1_4150)"/>
</g>
<defs>
<radialGradient id="paint0_radial_1_4150" cx="0" cy="0" r="1" gradientUnits="userSpaceOnUse" gradientTransform="translate(190.712 365) scale(259.289 255.831)">
<stop stop-color="#576557" stop-opacity="0.6"/>
<stop offset="0.467774" stop-color="#576557" stop-opacity="0.4"/>
<stop offset="1" stop-color="#576557" stop-opacity="0"/>
</radialGradient>
<clipPath id="clip0_1_4150">
<rect width="540" height="544" fill="white"/>
</clipPath>
</defs>
</svg>
