<svg width="1376" height="904" viewBox="0 0 1376 904" fill="none" xmlns="http://www.w3.org/2000/svg">
<g clip-path="url(#clip0_3947_47384)">
<rect width="1376" height="904" fill="url(#paint0_linear_3947_47384)"/>
<path fill-rule="evenodd" clip-rule="evenodd" d="M1407.5 571C1526.52 571 1623 474.517 1623 355.5C1623 236.483 1526.52 140 1407.5 140C1294.84 140 1202.38 226.447 1192.82 336.625C1150.39 354.168 1119.49 393.952 1114.66 441.445C1108.96 436.202 1101.35 433 1093 433C1080.11 433 1068.99 440.626 1063.93 451.615L1057.5 461.5L1055 459L1035 454L1025.5 466.5L1022.5 460L1014 459L1003 466.5H993.5C987.167 468.667 974 473 972 473H932V570H1187.43C1203.84 577.698 1222.17 582 1241.5 582C1272.03 582 1300.05 571.27 1322 553.375C1348.22 564.715 1377.12 571 1407.5 571ZM1192.47 341.114C1151.28 358.948 1121.73 398.566 1118.33 445.439C1119.77 447.306 1121.01 449.337 1122.02 451.5H1125.04C1126.19 406.099 1153.31 367.153 1192.1 348.963C1192.18 346.335 1192.3 343.718 1192.47 341.114ZM1197.68 570H1226.17C1231.18 570.66 1236.3 571 1241.5 571C1267.46 571 1291.44 562.506 1310.81 548.146C1313.15 549.32 1315.51 550.453 1317.89 551.544C1296.87 568.113 1270.34 578 1241.5 578C1226.07 578 1211.3 575.17 1197.68 570Z" fill="url(#paint1_linear_3947_47384)"/>
<path fill-rule="evenodd" clip-rule="evenodd" d="M342 479.836L330.334 483.634L314.541 479.836L299.501 483.634L250.615 464.469C253.725 438.108 241.269 411.201 216.823 397.086C203.951 389.655 189.67 386.876 175.927 388.227C171.801 383.285 167.449 378.523 162.882 373.955C142.871 353.944 119.114 338.07 92.9683 327.241C66.8227 316.411 38.7999 310.837 10.5 310.837C-17.7998 310.837 -45.8226 316.411 -71.9682 327.241C-98.1139 338.07 -121.87 353.944 -141.881 373.955C-161.892 393.966 -177.766 417.723 -188.596 443.868C-199.426 470.014 -205 498.037 -205 526.337C-205 526.337 -88.6655 521.569 -1.49999 521.837C49.6915 521.994 118.668 524.331 162.747 526.041C182.276 527.433 301.479 534.88 376.5 515.336C405.435 507.799 449 490.723 449 490.723L361.919 490.723C358.029 490.723 355.052 488.028 352.061 485.319C349.041 482.585 346.006 479.836 342 479.836Z" fill="url(#paint2_linear_3947_47384)"/>
<path fill-rule="evenodd" clip-rule="evenodd" d="M690.196 567.617C690.539 565.231 690.92 562.857 691.34 560.497C659.566 546.771 635.116 519.307 625.476 485.59C623.174 485.862 620.825 486.134 618.432 486.404C628.586 523.232 655.369 553.164 690.196 567.617ZM607.891 438.168C602.597 434.29 596.066 432 589 432C571.327 432 557 446.327 557 464C557 465.918 557.169 467.798 557.492 469.623L541 465.5L531.5 478L528.5 471.5L520 470.5L509 478C490.5 481 439 478 325.5 450C325.5 450 420.057 484.474 463.5 490.5C493.946 494.723 534.106 493.675 571.591 490.855C576.601 494.109 582.58 496 589 496C597.529 496 605.28 492.663 611.016 487.223C611.14 487.21 611.264 487.196 611.388 487.183C622.054 527.22 651.279 559.686 689.288 574.805C688.437 582.586 688 590.492 688 598.5C688 717.517 784.483 814 903.5 814C1022.52 814 1119 717.517 1119 598.5C1119 479.483 1022.52 383 903.5 383C885.461 383 867.94 385.216 851.194 389.392C828.797 349.756 786.273 323 737.5 323C670.614 323 615.48 373.32 607.891 438.168ZM614.327 444.439C618.966 380.463 672.34 330 737.5 330C783.011 330 822.773 354.618 844.195 391.263C841.879 391.925 839.58 392.624 837.297 393.36C816.899 359.583 779.837 337 737.5 337C673.159 337 621 389.159 621 453.5C621 456.698 621.129 459.867 621.382 463H620.985C620.77 456.02 618.321 449.602 614.327 444.439Z" fill="url(#paint3_linear_3947_47384)"/>
<path d="M740.942 500.07L710.372 461.029L664.151 505.003L701.621 537.479C712.233 546.676 728.094 546.308 738.268 536.629C748.442 526.95 749.599 511.126 740.942 500.07Z" fill="#262626" stroke="black" stroke-width="2"/>
<path d="M682.238 504.358L708.828 479.061C719.243 469.152 720.067 452.819 710.702 441.912L708.799 439.695C705.444 435.786 699.499 435.486 695.767 439.037L642.913 489.321C639.181 492.872 639.185 498.824 642.921 502.37L645.041 504.381C655.469 514.278 671.822 514.268 682.238 504.358Z" fill="#676767" stroke="black" stroke-width="2"/>
<path d="M693.817 431.06L709.685 449.71C711.218 451.512 712.621 453.42 713.884 455.421L729.665 480.42C738.102 493.784 735.932 511.245 724.482 522.139C713.032 533.032 695.485 534.329 682.558 525.238L658.375 508.231C656.44 506.87 654.604 505.374 652.88 503.753L635.044 486.976C618.057 470.997 617.98 444.029 634.876 427.954C651.772 411.879 678.704 413.299 693.817 431.06Z" fill="url(#paint4_linear_3947_47384)" stroke="black" stroke-width="2"/>
<path d="M695.004 512.916L698.135 504.417L709.911 493.213L718.188 490.86" stroke="black" stroke-width="2"/>
<path d="M695.004 512.916L695.378 501.519L707.154 490.315L718.188 490.86" stroke="black" stroke-width="2"/>
<path d="M704.339 510.937L716.115 499.734" stroke="black" stroke-width="2"/>
<path d="M687.015 492.912L687.202 487.213L693.09 481.612L698.607 481.884" stroke="black" stroke-width="2"/>
<path d="M653.084 492.067L654.743 484.968L663.575 476.565L670.472 475.524" stroke="black" stroke-width="2"/>
<path d="M648.54 478.447L657.372 470.045L664.269 469.004" stroke="black" stroke-width="2"/>
<path d="M681.34 465.185L682.999 458.086L691.83 449.683L698.728 448.642" stroke="black" stroke-width="2"/>
<path d="M675.136 458.665L676.795 451.565L685.627 443.163" stroke="black" stroke-width="2"/>
<path d="M650.5 427.5L639.5 424.5L646 424.5L659.5 416.5L666.5 415L668 416.5L682 421.5L681 423.5L656.5 423.5L650.5 423.5L650.5 427.5Z" fill="black" stroke="black" stroke-width="2"/>
<path d="M654.5 423L654.5 416.5L637.5 420.583L637.5 423.583L650 426.5L650 423L654.5 423Z" fill="#CBC3B7"/>
<path d="M668.259 421.325L660.5 421.464L659 424.062L671.124 431.062L672.624 428.464L668.259 421.325Z" fill="#323232" stroke="black" stroke-width="2"/>
<path d="M1092.06 459.179L1086.84 452.179L1011.67 512.428L1008 539.294L1031.39 515.928L1033.13 515.928L1092.06 459.179Z" fill="#353535" stroke="black" stroke-width="2"/>
<path d="M501.791 394.69L504.169 380.023L517.182 382.133L628.128 468.361L629.929 466.627L703.175 524.092L685.795 534.443L680.993 564.056L501.791 394.69Z" fill="#222222"/>
<path d="M504.169 380.023L501.791 394.69L680.993 564.056L685.795 534.443M504.169 380.023L517.182 382.133L628.128 468.361L629.929 466.627L703.175 524.092L685.795 534.443M504.169 380.023L685.795 534.443" stroke="black" stroke-width="2"/>
<path fill-rule="evenodd" clip-rule="evenodd" d="M488.5 503.5C488.5 503.5 450.2 537 449 537L472.5 562.5L518.5 572L547.5 540.5L571.5 522.5L568 520L562.5 521.779L567.5 502.5L565 487.5L568 486L574 477L576 467.917L589.5 469L579.5 461.5L591 445L586.5 456.5C592.333 456.833 600.2 462 601 462L600.5 447.5L610 446L608 481L611.5 481.5V470.5L618 466.5L617 451.5L610 435.5L586.5 423.5L567 425L547 436L537 446L533.5 443L527 444.5L524 450L513.5 465L512.5 472.5L488.5 503.5Z" fill="url(#paint5_linear_3947_47384)"/>
<path d="M611.5 494.5L604.5 493.5L611.5 481.5L608 481L610 446L600.5 447.5L601 462C600.2 462 592.333 456.833 586.5 456.5L591 445L579.5 461.5L589.5 469L576 467.917L574 477L568 486L565 487.5L567.5 502.5L562.5 521.779L568 520L571.5 522.5L599.5 510.5L611.5 494.5Z" fill="url(#paint6_linear_3947_47384)"/>
<path d="M611.5 494.5L604.5 493.5L611.5 481.5L608 481L610 446L600.5 447.5L601 462C600.2 462 592.333 456.833 586.5 456.5L591 445L579.5 461.5L589.5 469L576 467.917L574 477L568 486L565 487.5L567.5 502.5L562.5 521.779L568 520L571.5 522.5L599.5 510.5L611.5 494.5Z" fill="black" fill-opacity="0.4"/>
<path d="M537 446L533.5 443L527 444.5L524 450L513.5 465L512.5 472.5L488.5 503.5C488.5 503.5 450.2 537 449 537L472.5 562.5L518.5 572L547.5 540.5L571.5 522.5M537 446L547 436L567 425L586.5 423.5L610 435.5L617 451.5L618 466.5L611.5 470.5V481.5M537 446L533.5 450M571.5 522.5L599.5 510.5L611.5 494.5L604.5 493.5L611.5 481.5M571.5 522.5L568 520L562.5 521.779M550 444.5L557 443.5L568 451.5L567.5 457.5H561M551 467.917L558.5 466.5L564 471.5V480M530.5 480L533.5 481.5L540 482L545.125 488L552 492.5L554 503.5L555.5 504.5M526 457.5L507.5 483.5L505 505.5L528 528L551 525.5L562.5 521.779M573 449.5L571 442M545.125 480L548 484.5L552 487.5M537 490L541.5 494.5M522.5 497.5L535.5 510.5M576 467.917L589.5 469L579.5 461.5L591 445L586.5 456.5C592.333 456.833 600.2 462 601 462L600.5 447.5L610 446L608 481L611.5 481.5M576 467.917L574 463.5L576 461.5L577 454.5M576 467.917L574 477L568 486L565 487.5L567.5 502.5L562.5 521.779" stroke="black" stroke-width="2"/>
<path d="M750.581 474.394L751.07 475.536L752.081 474.814L756.4 471.729L756.981 471.314L758.512 470.22L794.308 494.738L798.302 499.821L775.851 498.025L746.372 477.39L744.802 471.5H746.25H747.25H749.341L750.581 474.394ZM754.68 470.5L751.93 472.464L750.919 470.106L750.659 469.5H750H747.747L751.355 468.125L754.68 470.5Z" fill="#D9D9D9" stroke="black" stroke-width="2"/>
<path d="M723.642 462.463L725.738 469.113L727.645 468.512L725.758 462.522L729.561 463.61L731.174 466.054L734.602 472.753L728.881 470.671L727.891 470.311L727.583 471.319L725.632 477.698L725.302 478.779L726.415 478.975L730.772 479.745L729.486 481.972L728.747 483.252L730.209 483.462L735.51 484.226L741.181 485.386L752.802 510.666L736.289 516.74L722.148 491.781L712.839 470.682L713.167 471.244L714.705 473.88L715.026 470.846L715.486 466.496L723.642 462.463Z" fill="url(#paint7_linear_3947_47384)" stroke="black" stroke-width="2"/>
<path d="M443.29 501.164L436.773 506.338L483.017 554.528L496.799 546.617L484.808 537.264L484.659 535.771L443.29 501.164Z" fill="#353535" stroke="black" stroke-width="2"/>
<path d="M684.579 397.883L684.888 384.388L700.5 384.388L1028.36 533.132L973.393 531.344L972.141 569.824L684.579 397.883Z" fill="#141414"/>
<path d="M684.888 384.388L684.579 397.883L972.141 569.824L973.393 531.344M684.888 384.388L700.5 384.388L1028.36 533.132L973.393 531.344M684.888 384.388L973.393 531.344" stroke="black" stroke-width="2"/>
<path d="M-27 564L384 533H389V537L394 536.442L408 534.879L801 491H999C999 491 1079.35 505.557 1130.5 516.5C1186.22 528.419 1272.5 550 1272.5 550V554V561L1392 582V904H-21L-27 564Z" fill="url(#paint8_linear_3947_47384)"/>
<path d="M1272.5 561L1392 582V904H-21L-27 564L384 533H389V537M1272.5 561L1258 563V558.5L1272.5 554M1272.5 561V554M389 537L379 539.5M389 537L394 536.442M1272.5 554V550C1272.5 550 1186.22 528.419 1130.5 516.5C1079.35 505.557 999 491 999 491H801L408 534.879M1272.5 554H1275M373.5 540.5L328 548L310.5 552L383.5 564C383.5 564 351.442 574.625 330.5 580C247.554 601.291 112 598.5 112 598.5M394 536.442V533H408V534.879M394 536.442L408 534.879" stroke="black" stroke-width="2"/>
<path d="M985.236 537.5L988.98 535.628L996.898 539.947L989.263 539.513L985.236 537.5Z" stroke="black" stroke-width="2"/>
<path d="M425.738 636.029L380.614 624.969L546.044 610.5H632H714.5H714.511L714.523 610.5L847.217 607.507L874.959 625.341L875.251 625.529L875.597 625.495L875.5 624.5C875.597 625.495 875.598 625.495 875.599 625.495L875.604 625.495L875.625 625.493L875.707 625.485L876.037 625.453C876.33 625.425 876.765 625.383 877.339 625.329C878.485 625.221 880.182 625.063 882.384 624.863C886.788 624.462 893.209 623.894 901.277 623.223C917.415 621.88 940.141 620.125 966.497 618.476C1019.22 615.177 1086.43 612.304 1144.47 614C1193.38 615.428 1256.02 615.428 1306.43 615.071C1331.63 614.892 1353.78 614.625 1369.62 614.401C1377.55 614.29 1383.9 614.19 1388.26 614.117C1390.45 614.081 1392.14 614.051 1393.28 614.031L1394 614.018V982H-17V691.886L425.621 637.993L425.738 636.029Z" fill="url(#paint9_linear_3947_47384)" stroke="black" stroke-width="2"/>
<path d="M966 433L940 427L933 450L926 451L917.5 468L909 469L926 492.5L945 495.311L1010.5 505V484.5H998.5V481.5L980 474.5L978 463.5H973L962.5 444L966 433Z" fill="#282828" stroke="black" stroke-width="2"/>
<path d="M1206.94 544.327L1207.22 544.516L1207.55 544.499L1236.54 543.025L1246.37 555.196L1242.79 565.5H1210.13L1166.09 554.247L1167.44 542.609L1183.65 533.072L1194.58 535.924L1206.94 544.327Z" fill="#282828" stroke="black" stroke-width="2"/>
<path d="M1120.42 550.406L1120.93 550.169L1120.99 549.61L1121.96 540.919L1130.86 530.61L1149.3 534.866L1154.1 544.93L1154.23 545.201L1154.48 545.356L1179.89 560.696L1178.29 562.293L1177.56 563.022L1178.31 563.728L1186.67 571.597L1189.45 577.546L1174.47 578L1172.29 578.067L1173.76 579.676L1177.17 583.396L1120.77 571.772C1123.15 571.492 1125.64 571.198 1127.86 570.93C1130.02 570.67 1131.94 570.435 1133.27 570.265C1133.93 570.181 1134.45 570.111 1134.79 570.063C1134.95 570.04 1135.09 570.018 1135.18 569.999C1135.2 569.994 1135.24 569.986 1135.28 569.975C1135.3 569.97 1135.34 569.96 1135.38 569.942L1135.38 569.942C1135.39 569.938 1135.55 569.882 1135.7 569.745C1135.77 569.681 1136.03 569.432 1136.03 569.007C1136.03 568.529 1135.72 568.264 1135.6 568.178C1135.47 568.088 1135.35 568.052 1135.3 568.04C1135.25 568.024 1135.2 568.017 1135.18 568.013C1135.15 568.009 1135.13 568.006 1135.11 568.005C1135.08 567.995 1135.02 567.979 1134.95 567.955C1134.78 567.9 1134.54 567.814 1134.23 567.697C1133.61 567.466 1132.75 567.128 1131.71 566.706C1129.62 565.862 1126.81 564.692 1123.71 563.391C1118.35 561.134 1112.15 558.485 1107.44 556.463L1120.42 550.406ZM1135.15 568.015C1135.15 568.015 1135.15 568.014 1135.14 568.012C1135.14 568.013 1135.15 568.014 1135.15 568.015Z" fill="#282828" stroke="black" stroke-width="2"/>
<path d="M969.5 527.5H970L970.3 527.1C970.81 526.419 971.576 525.348 972.219 524.336C972.539 523.832 972.84 523.326 973.064 522.882C973.142 522.728 973.215 522.574 973.277 522.424C973.427 522.449 973.607 522.484 973.818 522.53C974.724 522.728 976.005 523.087 977.458 523.531C980.09 524.336 983.208 525.396 985.5 526.206V535.5V537.349L952 532.631V531.566L958.777 527.5H969.5ZM972.8 522.372C972.8 522.372 972.801 522.372 972.802 522.372L972.8 522.372Z" fill="#282828" stroke="black" stroke-width="2"/>
<path d="M901.023 529.853L901.395 529.624L901.481 529.196L902.909 522.053L904.78 520.557L932.358 524.911L941 540.755V543.389L888.033 537.814L901.023 529.853Z" fill="#282828" stroke="black" stroke-width="2"/>
<path d="M862.356 537.566L852.571 533.838L852.933 530.223L876.569 521.54L884.5 523.302V526.5V540.682V541.487L885.287 541.659L898.737 544.593L859.056 540.85L862.394 539.419L864.666 538.445L862.356 537.566ZM855.846 540.547L851 540.09V539.692L855.846 540.547Z" fill="#282828" stroke="black" stroke-width="2"/>
<path d="M1101 519.5V521V521.414L1101.29 521.707L1107.27 527.689L1110.15 530.889L1081.5 529.546V523.914L1091.41 514H1095.45L1098.66 519.037L1098.95 519.5H1099.5H1101Z" fill="#282828" stroke="black" stroke-width="2"/>
<path d="M1058.5 514V513.083L1057.59 513.004L1036.3 511.153L1039.73 506.209L1044.76 502.551L1056.67 504.383L1059.49 517.691L1058.5 516.985V514Z" fill="#282828" stroke="black" stroke-width="2"/>
<path d="M968.121 511.007L947.069 507.829L948.71 507.478L948.635 505.509L928.019 502.698L928.596 501.543L942.431 502.498L943.367 502.562L943.491 501.632L944.376 495H947.5H948.5V494V487H949.88L986.391 495.881C988.555 499.044 991.706 503.664 994.397 507.636C995.788 509.689 997.056 511.568 997.999 512.983C998.199 513.283 998.385 513.561 998.553 513.816L968.121 511.007Z" fill="#282828" stroke="black" stroke-width="2"/>
<path d="M1042.54 605.659L1042.36 605.541L1042.14 605.51L1031.93 604.051L1030.1 602.48C1031.05 602.231 1032.08 601.961 1033.03 601.719C1033.85 601.511 1034.6 601.325 1035.16 601.192C1035.45 601.125 1035.68 601.073 1035.85 601.038C1035.92 601.023 1035.98 601.012 1036.02 601.005C1036.03 601.006 1036.04 601.007 1036.05 601.008C1036.13 601.017 1036.23 601.031 1036.37 601.049C1036.64 601.086 1037.01 601.14 1037.47 601.208C1038.38 601.343 1039.59 601.53 1040.93 601.738C1043.46 602.13 1046.39 602.596 1048.47 602.928C1049.63 604.341 1051.29 606.402 1052.79 608.326C1053.56 609.322 1054.28 610.276 1054.87 611.083L1049.38 610.053L1042.54 605.659ZM1036.07 600.997C1036.07 600.997 1036.07 600.997 1036.07 600.997L1036.07 600.997Z" fill="#282828" stroke="black" stroke-width="2"/>
<path d="M841.375 574.219L836.683 577.973L812.907 576.179L835.847 555.533L876.752 558.983L887.847 563.807L892.569 570.418L894.736 579.953L882.537 579.501L882.417 579.496L882.299 579.52L863.43 583.391L859.809 578.412L859.542 578.045L859.091 578.004L843.334 576.572L842.981 574.804L842.658 573.193L841.375 574.219Z" fill="#282828" stroke="black" stroke-width="2"/>
<path d="M917 469.5V469.811L917.177 470.068L936.433 497.989L928.037 500.928L900.394 489.081L899.802 488.827L899.326 489.262L888.353 499.28L873.673 491.274L887.695 477.719L887.956 477.466L887.995 477.105L888.995 467.605L889.009 467.47L888.986 467.336L888.131 462.205L897.046 459.53L915.694 463.356C915.926 464.232 916.215 465.372 916.463 466.46C916.617 467.137 916.754 467.786 916.851 468.333C916.953 468.902 917 469.297 917 469.5Z" fill="#282828" stroke="black" stroke-width="2"/>
<path d="M887.881 501L900.651 482.065L919.586 501H887.881Z" fill="#282828" stroke="black" stroke-width="2"/>
<path d="M1005 499L998 529.5L1103 559.5L1124 555L1129 538L1126.5 536V535.5L1037 506V504.5L1031 503L1030 504.5L1005 499Z" fill="#282828" stroke="black" stroke-width="2"/>
<path d="M955.5 629.912V633H871.881L845 609.025V602.32L862.599 598.794H882H882.391L882.679 598.528C884.673 596.685 887.736 593.921 890.447 591.622C891.804 590.471 893.06 589.447 894.044 588.715C894.538 588.347 894.946 588.066 895.253 587.882C895.408 587.789 895.519 587.732 895.591 587.701C895.596 587.699 895.601 587.697 895.605 587.695C895.808 587.681 896.093 587.634 896.369 587.586C896.745 587.52 897.246 587.425 897.849 587.306C899.057 587.067 900.7 586.729 902.633 586.327C903.321 586.185 904.047 586.034 904.803 585.876C908.298 585.149 912.45 584.285 916.634 583.445C921.725 582.424 926.851 581.442 930.887 580.788C932.906 580.461 934.637 580.218 935.947 580.094C936.604 580.031 937.137 580 937.539 580C937.946 580 938.112 580.034 938.135 580.039C938.137 580.039 938.138 580.039 938.137 580.039C940.541 580.975 957.48 587.44 965.644 590.553L965.816 590.619H966H969.11L994 613.522V621.559L989.802 633H970.124L968.398 629.473L968.124 628.912H967.5H956.5H955.5V629.912ZM895.642 587.681C895.641 587.682 895.639 587.683 895.634 587.684C895.639 587.682 895.642 587.681 895.642 587.681Z" fill="#282828" stroke="black" stroke-width="2"/>
<path d="M1174.63 829.928L1242.09 856.912L1087.84 908H-37.772C-35.6043 906.918 -32.5347 905.391 -28.6433 903.468C-20.3006 899.347 -8.18123 893.407 6.92369 886.137C37.1339 871.596 79.2848 851.734 127.047 830.448C222.59 787.866 340.522 739.613 430.246 716.834C474.643 705.562 532.714 697.135 579.716 691.526C603.21 688.723 623.928 686.624 638.771 685.226C646.192 684.528 652.145 684.004 656.242 683.655C658.29 683.481 659.875 683.35 660.947 683.263C661.15 683.247 661.334 683.232 661.5 683.218V705V705.556L661.972 705.849L696.132 727.08L696.406 727.251L696.729 727.229L1463.94 674.076L1458.05 778.153L1174.83 828.015L1171.37 828.624L1174.63 829.928Z" fill="url(#paint10_linear_3947_47384)" stroke="black" stroke-width="2"/>
<circle cx="385" cy="464" r="20" fill="white" fill-opacity="0.99"/>
<path d="M1071.91 501.598L1084 503.945V512.792L1065.81 509.326L1071.91 501.598Z" fill="#5F5F5F" stroke="black" stroke-width="2"/>
<path d="M968 516L999.5 520V522.5L968 516Z" stroke="black"/>
<path d="M1128 602H1121.5L1133.5 608L1154 610.5V606L1134.5 600L1128 602Z" fill="#D9D9D9" stroke="black" stroke-width="2"/>
<path d="M1155.5 596.5V595L1177 597.5L1177.5 599.5L1155.5 596.5Z" stroke="black" stroke-width="2"/>
<path d="M1002 599.5H999.466L1002.2 598.029L1019.04 599.954L1020.09 601H1018.05L1002.09 599.504L1002.05 599.5H1002Z" stroke="black" stroke-width="2"/>
<path d="M1060.99 551.407L1061.09 551.5H1044.5V548.5H1048.88L1060.99 551.407Z" stroke="black" stroke-width="2"/>
<path d="M1026 555.291V554.781L1034 556.781V558.091L1026 555.291Z" stroke="black" stroke-width="2"/>
<path d="M702.07 573.334L693.033 574.978C691.501 574.6 688.651 573.944 685.998 573.461L691.262 570.5H699.551L702.07 573.334Z" stroke="black" stroke-width="2"/>
<path d="M712.519 573.559L710.311 574.939C709.935 574.857 709.464 574.746 708.996 574.621C708.765 574.56 708.546 574.497 708.345 574.436L709.473 571.897L712.519 573.559Z" stroke="black" stroke-width="2"/>
<path d="M740 531H738.387L739.221 528.5H744.965L746.631 531H740Z" stroke="black" stroke-width="2"/>
<path d="M1184.5 716C1184.5 716 1193 725.333 1208 731L1072 714C1133.83 714 1189.1 680 1248 680L1306.5 693L1481 697.5V700L1373 705V710L1335.5 713.5L1336.5 717.5L1324.5 724L1313 722L1252 727C1222.88 714.381 1184.5 716 1184.5 716Z" fill="white" stroke="black" stroke-width="2"/>
<path d="M391.952 500.932L385.527 506.221L452.947 563.517L480 563.517L454.433 546.225L454.257 544.735L391.952 500.932Z" fill="#353535" stroke="black" stroke-width="2"/>
</g>
<defs>
<linearGradient id="paint0_linear_3947_47384" x1="688" y1="0" x2="688" y2="904" gradientUnits="userSpaceOnUse">
<stop stop-color="#9E9E9E"/>
<stop offset="1" stop-color="#D0B691"/>
</linearGradient>
<linearGradient id="paint1_linear_3947_47384" x1="1277.5" y1="140" x2="1277.5" y2="582" gradientUnits="userSpaceOnUse">
<stop stop-color="#CCC3B7"/>
<stop offset="1" stop-color="white"/>
</linearGradient>
<linearGradient id="paint2_linear_3947_47384" x1="198.959" y1="346.361" x2="20.0376" y2="656.262" gradientUnits="userSpaceOnUse">
<stop stop-color="#CCC3B7"/>
<stop offset="1" stop-color="white"/>
</linearGradient>
<linearGradient id="paint3_linear_3947_47384" x1="722.25" y1="323" x2="722.25" y2="814" gradientUnits="userSpaceOnUse">
<stop stop-color="#CCC3B7"/>
<stop offset="1" stop-color="white"/>
</linearGradient>
<linearGradient id="paint4_linear_3947_47384" x1="680" y1="425" x2="680" y2="503" gradientUnits="userSpaceOnUse">
<stop stop-color="#676767"/>
<stop offset="1"/>
</linearGradient>
<linearGradient id="paint5_linear_3947_47384" x1="535" y1="423.5" x2="535" y2="572" gradientUnits="userSpaceOnUse">
<stop stop-color="#7D7B7B"/>
<stop offset="1"/>
</linearGradient>
<linearGradient id="paint6_linear_3947_47384" x1="533.5" y1="423.5" x2="533.5" y2="572" gradientUnits="userSpaceOnUse">
<stop stop-color="#7D7B7B"/>
<stop offset="1"/>
</linearGradient>
<linearGradient id="paint7_linear_3947_47384" x1="743.831" y1="470.625" x2="721.331" y2="509.596" gradientUnits="userSpaceOnUse">
<stop stop-color="#F0F0F0"/>
<stop offset="1"/>
</linearGradient>
<linearGradient id="paint8_linear_3947_47384" x1="682.5" y1="491" x2="682.5" y2="904" gradientUnits="userSpaceOnUse">
<stop stop-color="white"/>
<stop offset="1" stop-color="#9C8A5A"/>
</linearGradient>
<linearGradient id="paint9_linear_3947_47384" x1="688.5" y1="606.5" x2="688.5" y2="983" gradientUnits="userSpaceOnUse">
<stop stop-color="#8B8E8E"/>
<stop offset="1" stop-color="#665E66"/>
</linearGradient>
<linearGradient id="paint10_linear_3947_47384" x1="711.5" y1="673" x2="711.5" y2="909" gradientUnits="userSpaceOnUse">
<stop stop-color="#6F98AF"/>
<stop offset="1" stop-color="#001751"/>
</linearGradient>
<clipPath id="clip0_3947_47384">
<rect width="1376" height="904" fill="white"/>
</clipPath>
</defs>
</svg>
