<svg width="232" height="60" viewBox="0 0 232 60" fill="none" xmlns="http://www.w3.org/2000/svg">
<g filter="url(#filter0_d_128_62197)">
<rect x="6" y="2" width="220" height="48" stroke="black" stroke-width="4" shape-rendering="crispEdges"/>
<rect x="5" y="1" width="222" height="50" stroke="#949494" stroke-width="2"/>
<rect x="4" width="9" height="9" fill="black" fill-opacity="0.4"/>
<path d="M5 7V1M5 1H11M5 1L12 8" stroke="#949494" stroke-width="2"/>
<rect x="11" width="2" height="2" fill="black" fill-opacity="0.4"/>
<rect x="4" y="7" width="2" height="2" fill="black" fill-opacity="0.4"/>
<rect width="9" height="9" transform="matrix(-1 0 0 1 228 0)" fill="black" fill-opacity="0.4"/>
<path d="M227 7V1M227 1H221M227 1L220 8" stroke="#949494" stroke-width="2"/>
<rect width="2" height="2" transform="matrix(-1 0 0 1 221 0)" fill="black" fill-opacity="0.4"/>
<rect width="2" height="2" transform="matrix(-1 0 0 1 228 7)" fill="black" fill-opacity="0.4"/>
<rect width="9" height="9" transform="matrix(1 0 0 -1 4 52)" fill="black" fill-opacity="0.4"/>
<path d="M5 45V51M5 51H11M5 51L12 44" stroke="#949494" stroke-width="2"/>
<rect width="2" height="2" transform="matrix(1 0 0 -1 11 52)" fill="black" fill-opacity="0.4"/>
<rect width="2" height="2" transform="matrix(1 0 0 -1 4 45)" fill="black" fill-opacity="0.4"/>
<rect x="228" y="52" width="9" height="9" transform="rotate(180 228 52)" fill="black" fill-opacity="0.4"/>
<path d="M227 45V51M227 51H221M227 51L220 44" stroke="#949494" stroke-width="2"/>
<rect x="221" y="52" width="2" height="2" transform="rotate(180 221 52)" fill="black" fill-opacity="0.4"/>
<rect x="228" y="45" width="2" height="2" transform="rotate(180 228 45)" fill="black" fill-opacity="0.4"/>
</g>
<defs>
<filter id="filter0_d_128_62197" x="0" y="0" width="232" height="60" filterUnits="userSpaceOnUse" color-interpolation-filters="sRGB">
<feFlood flood-opacity="0" result="BackgroundImageFix"/>
<feColorMatrix in="SourceAlpha" type="matrix" values="0 0 0 0 0 0 0 0 0 0 0 0 0 0 0 0 0 0 127 0" result="hardAlpha"/>
<feOffset dy="4"/>
<feGaussianBlur stdDeviation="2"/>
<feComposite in2="hardAlpha" operator="out"/>
<feColorMatrix type="matrix" values="0 0 0 0 0 0 0 0 0 0 0 0 0 0 0 0 0 0 0.25 0"/>
<feBlend mode="normal" in2="BackgroundImageFix" result="effect1_dropShadow_128_62197"/>
<feBlend mode="normal" in="SourceGraphic" in2="effect1_dropShadow_128_62197" result="shape"/>
</filter>
</defs>
</svg>
