<svg width="312" height="312" viewBox="0 0 312 312" fill="none" xmlns="http://www.w3.org/2000/svg">
<path d="M149.096 191.867L149.095 175.696H152.093L152.093 170.711H139.353L139.353 164.729H181.069L181.069 170.711H167.83L167.83 175.696H172.076L172.077 191.867L170.078 203.995L161.835 208.037L161.835 222.439L161.835 228.251L154.092 230.019L144.1 236.336L136.107 261.443L119.87 253.965L113.126 256.137L119.87 236.336L127.863 230.019L137.106 228.251L137.106 222.439L137.106 208.037L143.101 203.995H147.597L149.096 191.867Z" fill="#A52828"/>
<path d="M172.076 175.696L172.077 191.867L170.078 203.995L161.835 208.037L161.835 222.439L161.835 228.251L154.092 230.019L144.1 236.336L136.107 261.443L119.87 253.965L113.126 256.137L119.87 236.336L127.863 230.019L137.106 228.251L137.106 222.439L137.106 208.037L143.101 203.995H147.597L149.096 191.867L149.095 175.696H152.093M172.076 175.696H152.093M172.076 175.696H167.83L167.83 170.711H181.069L181.069 164.729H139.353L139.353 170.711H152.093L152.093 175.696" stroke="black" stroke-width="2"/>
<path d="M76.1553 73H236.023L236.023 145.535H232.276L232.276 148.776H196.056L196.056 156.752H182.817L167.705 118.989L153.092 116.247L150.594 117.992L129.361 114.876L124.116 121.232L132.734 126.716L135.731 138.431L139.603 142.17L139.603 156.503H119.62L119.62 153.013H85.1483L85.1482 148.776H76.1557L76.1553 73Z" fill="#433130"/>
<path d="M117.121 76.9883L122.367 65.0237L131.609 71.7538L138.604 70.7567L147.096 61.5963H165.082L165.082 69.0119L173.075 63.5281L179.32 65.0237L181.068 73.0001L182.068 74.3295L187.063 70.7567L187.688 76.9883L193.059 84.9647L193.059 77.8607C193.059 78.1598 195.723 82.7213 197.055 84.9647L196.431 88.9529L186.314 95.9322C188.437 96.2646 193.184 96.9293 195.182 96.9293C197.18 96.9293 198.679 94.2705 199.179 92.9411L201.801 96.9293C201.219 98.3418 199.453 101.366 197.055 102.164C194.657 102.961 189.395 102.496 187.064 102.164L190.311 106.9L189.062 108.894C188.198 108.262 186.712 107.073 185.812 106.07C186.698 107.805 188.158 110.919 189.062 112.882H182.068L173.075 110.14L181.069 116.87L169.079 114.378L158.587 112.882L154.84 116.87L138.604 108.894L133.108 111.137L125.115 110.14L119.62 120.859L113.125 104.906L113.125 96.9293L113.125 91.6948L117.121 76.9883Z" fill="#5E2828"/>
<path d="M178.633 56.1125L175.198 60.35L179.32 61.5963L178.633 56.1125Z" fill="#5E2828"/>
<path d="M158.587 112.882L154.84 116.87L138.604 108.894L133.108 111.137L125.115 110.14L119.62 120.859L113.125 104.906L113.125 96.9293L113.125 91.6948L117.121 76.9883L122.367 65.0237L131.609 71.7538L138.604 70.7567L147.096 61.5963H165.082L165.082 69.0119L173.075 63.5281L179.32 65.0237L181.068 73.0001L182.068 74.3295M158.587 112.882L169.079 114.378L181.069 116.87L173.075 110.14L182.068 112.882H189.062C187.646 109.808 184.865 103.909 185.065 104.906C185.265 105.903 187.813 107.98 189.062 108.894L190.311 106.9L187.064 102.164M158.587 112.882L149.095 106.9L146.098 103.909L149.095 102.164L153.092 103.909C154.341 102.413 158.063 99.397 162.959 99.2973C167.854 99.1976 172.243 101.167 173.825 102.164L178.196 104.906L178.196 100.918L169.078 96.9293L178.196 95.3091L173.825 92.9411M187.064 102.164L189.062 99.9205L181.069 96.9293L189.062 91.6948L187.063 80.9765L182.068 74.3295M187.064 102.164C189.395 102.496 194.657 102.961 197.055 102.164C199.453 101.366 201.219 98.3418 201.801 96.9293L199.179 92.9411C198.679 94.2705 197.18 96.9293 195.182 96.9293C193.184 96.9293 188.437 96.2646 186.314 95.9322L196.431 88.9529L197.055 84.9647C195.723 82.7213 193.059 78.1598 193.059 77.8607C193.059 77.5616 193.059 82.4721 193.059 84.9647L187.688 76.9883L187.063 70.7567L182.068 74.3295M175.198 60.35L178.633 56.1125L179.32 61.5963L175.198 60.35Z" stroke="black" stroke-width="2"/>
<path d="M176.199 164.666L176.199 164.227H175.199H172.702L172.702 163.669L172.702 162.669H171.702H168.58L168.58 154.945L168.58 154.637L168.407 154.382L164.209 148.218L164.209 141.236L164.209 140.414L163.403 140.255L156.471 138.884L155.277 138.648L155.277 139.675H154.154H153.154L153.154 140.675L153.154 142.669L153.154 143.669H154.154H155.377L155.403 143.716L155.592 144.056L153.505 145.834L153.468 145.866L153.467 145.224L153.467 144.224H152.467H150.906H150.259L149.994 144.814L149.447 146.031H149.158H148.357L148.182 146.812L146.995 152.109L146.863 152.702L147.328 153.093L148.514 154.091L148.793 154.325H149.158H155.163L156.151 155.599L156.151 155.815H151.531H151.081L150.783 156.151L149.346 157.771L149.095 158.055L149.095 158.435L149.095 161.052L149.095 161.382L149.291 161.648L152.851 166.446L153.541 167.376L154.215 166.703L154.215 166.723L154.215 167.723H155.215H158.775H160.885L159.549 166.09L157.688 163.815L158.217 163.388L158.986 162.766L158.373 161.99L158.028 161.554H161.896L161.896 165.539L161.896 165.808L162.032 166.041L162.718 167.225L163.007 167.723H163.583H175.199H176.199L176.199 166.723L176.199 165.227L176.199 164.666ZM158.643 145.283L158.022 144.475L158.961 144.602L158.961 145.283H158.643ZM153.79 148.898L154.027 148.062L154.54 148.724L154.484 148.898H153.79Z" fill="white" stroke="black" stroke-width="2"/>
<path d="M76.1553 73L76.1554 95.0597L76.1556 140.799L87.6461 131.577L87.6461 126.841L92.1423 123.351L92.1423 119.363H87.646L87.646 116.87L87.646 107.648C87.6459 104.856 92.3087 101.125 94.6401 97.677L94.6401 92.941H87.6459L94.6401 88.9528L94.64 80.9764L101.946 73H76.1553Z" fill="#262626"/>
<path d="M76.1554 95.0597L76.1553 73H101.946L94.64 80.9764L94.6401 88.9528L87.6459 92.941H94.6401L94.6401 97.677C92.3087 101.125 87.6459 104.856 87.6459 107.648C87.646 110.439 87.646 115.375 87.646 116.87L87.646 119.363H92.1423L92.1423 123.351L87.6461 126.841L87.6461 131.577L76.1556 140.799L76.1557 148.776L76.1554 95.0597Z" stroke="white" stroke-width="2"/>
<path d="M76.1561 230.41L76.1562 252.469H110.003" stroke="black" stroke-width="2"/>
<path d="M236.023 170.711L236.024 252.469H142.851" stroke="black" stroke-width="2"/>
<path d="M161.085 79.4808L153.092 87.7065H157.088L161.085 89.4513L164.395 90.6976L165.082 91.1961L170.053 92.1347L174.324 92.941L174.324 87.7065L172.187 84.9646L169.078 80.9764L166.873 80.5637L161.085 79.4808Z" fill="white"/>
<path d="M121.118 87.7065L114.873 95.6829L120.172 93.3563L121.118 92.941L123.705 92.3763L127.093 91.6368L129.112 91.1961L130.61 88.9528H129.112L123.206 88.032L121.118 87.7065Z" fill="white"/>
<path d="M153.092 87.7065L152.375 87.0096L150.726 88.7065H153.092L153.092 87.7065ZM161.085 79.4808L161.269 78.4979L160.742 78.3992L160.368 78.7839L161.085 79.4808ZM169.078 80.9764L169.867 80.3616L169.634 80.0631L169.262 79.9934L169.078 80.9764ZM174.324 87.7065H175.324L175.324 87.3628L175.113 87.0917L174.324 87.7065ZM174.324 92.941L174.139 93.9236L175.324 94.1474L175.324 92.941H174.324ZM165.082 91.1961L164.494 92.0055L164.676 92.1372L164.896 92.1788L165.082 91.1961ZM157.088 87.7065L157.488 86.79L157.297 86.7065H157.088L157.088 87.7065ZM114.873 95.6829L114.086 95.0664L115.275 96.5985L114.873 95.6829ZM121.118 87.7065L121.272 86.7184L120.692 86.628L120.331 87.09L121.118 87.7065ZM129.112 88.9528L128.958 89.9408L129.034 89.9528H129.112L129.112 88.9528ZM130.61 88.9528L131.442 89.5083L132.481 87.9528H130.61L130.61 88.9528ZM129.112 91.1961L129.325 92.1731L129.719 92.0871L129.943 91.7517L129.112 91.1961ZM121.118 92.941L120.905 91.964L120.807 91.9853L120.716 92.0253L121.118 92.941ZM151.093 73L150.945 72.011L150.631 72.058L150.402 72.2772L151.093 73ZM161.085 71.5044L161.513 70.6008L161.238 70.4703L160.937 70.5154L161.085 71.5044ZM135.356 84.9646L134.497 85.4759L134.788 85.9646H135.356L135.356 84.9646ZM130.61 76.9882L131.47 76.4768L131.128 75.9023L130.466 75.9986L130.61 76.9882ZM118.62 78.733L118.476 77.7434L118.012 77.8109L117.767 78.2108L118.62 78.733ZM138.853 84.9646L139.284 85.8671L138.853 83.9646L138.853 84.9646ZM133.108 87.7065L132.678 86.804L132.46 86.9079L132.313 87.0996L133.108 87.7065ZM129.112 92.941L128.317 92.3341L128.304 92.3513L128.291 92.3691L129.112 92.941ZM125.115 98.674L124.295 98.1021L123.973 98.563L124.2 99.0771L125.115 98.674ZM127.613 104.345L126.698 104.748L128.503 104.8L127.613 104.345ZM143.912 100.73L144.348 101.63L145.668 100.99L144.59 99.9953L143.912 100.73ZM129.112 101.416L129.946 100.864L128.221 100.96L129.112 101.416ZM131.048 104.345L130.213 104.896L130.51 105.345H131.048L131.048 104.345ZM135.356 101.167L136.188 100.611L134.432 100.785L135.356 101.167ZM134.045 104.345L134.045 105.345H134.714L134.969 104.726L134.045 104.345ZM137.23 103.971L136.398 104.526L136.882 105.251L137.666 104.871L137.23 103.971ZM160.023 83.469L159.633 82.5484L158.9 82.8594L159.039 83.6437L160.023 83.469ZM161.085 89.4513L160.685 90.3678L160.709 90.3781L160.733 90.3872L161.085 89.4513ZM173.7 90.0745L174.192 90.9451L174.884 90.5536L174.659 89.7906L173.7 90.0745ZM163.458 84.9646L163.19 84.0011L162.327 84.2411L162.471 85.1258L163.458 84.9646ZM170.053 88.9528L170.42 89.8832L171.161 89.5914L171.042 88.8039L170.053 88.9528ZM169.64 86.2109L170.629 86.062L170.466 84.9763L169.4 85.2402L169.64 86.2109ZM166.873 86.8964L166.632 85.9257L165.788 86.1349L165.878 87.0003L166.873 86.8964ZM167.205 90.0745L166.21 90.1784L166.347 91.487L167.571 91.0049L167.205 90.0745ZM125.115 89.7629L125.803 89.037L124.855 88.1389L124.235 89.2881L125.115 89.7629ZM120.172 93.3563L120.574 94.2719L120.574 94.2719L120.172 93.3563ZM153.809 88.4034L161.802 80.1777L160.368 78.7839L152.375 87.0096L153.809 88.4034ZM173.324 87.7065L173.324 92.941H175.324L175.324 87.7065H173.324ZM157.088 86.7065H153.092L153.092 88.7065H157.088L157.088 86.7065ZM115.661 96.2993L121.906 88.3229L120.331 87.09L114.086 95.0664L115.661 96.2993ZM129.112 89.9528H130.61L130.61 87.9528H129.112L129.112 89.9528ZM129.779 88.3973L128.28 90.6406L129.943 91.7517L131.442 89.5083L129.779 88.3973ZM145.789 79.4557L151.784 73.7227L150.402 72.2772L144.407 78.0103L145.789 79.4557ZM151.241 73.989L161.233 72.4934L160.937 70.5154L150.945 72.011L151.241 73.989ZM160.657 72.408L180.64 81.88L181.497 80.0727L161.513 70.6008L160.657 72.408ZM136.216 84.4532L131.47 76.4768L129.751 77.4995L134.497 85.4759L136.216 84.4532ZM130.466 75.9986L118.476 77.7434L118.764 79.7226L130.754 77.9777L130.466 75.9986ZM117.767 78.2108L112.272 87.1842L113.978 88.2287L119.473 79.2553L117.767 78.2108ZM135.356 85.9646H138.853L138.853 83.9646H135.356L135.356 85.9646ZM138.423 84.0621L132.678 86.804L133.539 88.609L139.284 85.8671L138.423 84.0621ZM132.313 87.0996L128.317 92.3341L129.906 93.5478L133.903 88.3133L132.313 87.0996ZM128.291 92.3691L124.295 98.1021L125.935 99.2459L129.932 93.5129L128.291 92.3691ZM124.2 99.0771L126.698 104.748L128.528 103.942L126.03 98.2709L124.2 99.0771ZM128.503 104.8L130.002 101.871L128.221 100.96L126.723 103.889L128.503 104.8ZM128.277 101.967L130.213 104.896L131.882 103.793L129.946 100.864L128.277 101.967ZM131.048 105.345H134.045L134.045 103.345H131.048L131.048 105.345ZM134.969 104.726L136.281 101.548L134.432 100.785L133.121 103.963L134.969 104.726ZM134.525 101.722L136.398 104.526L138.061 103.415L136.188 100.611L134.525 101.722ZM137.666 104.871L144.348 101.63L143.476 99.8307L136.794 103.071L137.666 104.871ZM144.59 99.9953L140.468 96.1941L139.112 97.6643L143.234 101.466L144.59 99.9953ZM160.901 80.4637L166.689 81.5466L167.057 79.5807L161.269 78.4979L160.901 80.4637ZM166.689 81.5466L168.895 81.9593L169.262 79.9934L167.057 79.5807L166.689 81.5466ZM166.482 79.6431L159.633 82.5484L160.414 84.3896L167.263 81.4843L166.482 79.6431ZM161.485 88.5348L157.488 86.79L156.688 88.6229L160.685 90.3678L161.485 88.5348ZM159.039 83.6437L160.1 89.626L162.07 89.2766L161.008 83.2943L159.039 83.6437ZM168.29 81.5911L171.398 85.5793L172.976 84.3498L169.867 80.3616L168.29 81.5911ZM171.398 85.5793L173.535 88.3212L175.113 87.0917L172.976 84.3498L171.398 85.5793ZM171.228 85.2484L172.741 90.3583L174.659 89.7906L173.146 84.6807L171.228 85.2484ZM174.51 91.9583L170.239 91.1521L169.868 93.1173L174.139 93.9236L174.51 91.9583ZM170.239 91.1521L165.267 90.2135L164.896 92.1788L169.868 93.1173L170.239 91.1521ZM173.208 89.2038L169.561 91.2641L170.545 93.0053L174.192 90.9451L173.208 89.2038ZM170.365 82.007L163.19 84.0011L163.726 85.9281L170.9 83.934L170.365 82.007ZM165.669 90.3868L164.982 89.8883L163.807 91.5069L164.494 92.0055L165.669 90.3868ZM164.747 89.7618L161.437 88.5155L160.733 90.3872L164.042 91.6335L164.747 89.7618ZM162.471 85.1258L163.408 90.8589L165.382 90.5364L164.445 84.8033L162.471 85.1258ZM171.042 88.8039L170.629 86.062L168.652 86.3598L169.064 89.1016L171.042 88.8039ZM169.4 85.2402L166.632 85.9257L167.113 87.867L169.881 87.1816L169.4 85.2402ZM165.878 87.0003L166.21 90.1784L168.2 89.9705L167.867 86.7924L165.878 87.0003ZM167.571 91.0049L170.42 89.8832L169.687 88.0223L166.839 89.144L167.571 91.0049ZM123.492 91.3993L120.905 91.964L121.331 93.918L123.918 93.3533L123.492 91.3993ZM124.585 92.8511L125.995 90.2377L124.235 89.2881L122.825 91.9015L124.585 92.8511ZM128.898 90.2191L126.879 90.6598L127.306 92.6138L129.325 92.1731L128.898 90.2191ZM126.879 90.6598L123.492 91.3993L123.918 93.3533L127.306 92.6138L126.879 90.6598ZM124.427 90.4888L126.405 92.3627L127.781 90.9109L125.803 89.037L124.427 90.4888ZM120.716 92.0253L119.77 92.4407L120.574 94.2719L121.52 93.8566L120.716 92.0253ZM119.77 92.4407L114.471 94.7672L115.275 96.5985L120.574 94.2719L119.77 92.4407ZM120.964 88.6945L123.052 89.0201L123.36 87.0439L121.272 86.7184L120.964 88.6945ZM123.052 89.0201L128.958 89.9408L129.266 87.9647L123.36 87.0439L123.052 89.0201ZM120.574 94.2719C120.805 94.1706 120.953 94.0023 120.985 93.9671C121.05 93.896 121.109 93.8187 121.16 93.7494C121.262 93.6082 121.378 93.4301 121.497 93.2368C121.739 92.8461 122.034 92.33 122.342 91.7759C122.959 90.6643 123.648 89.3561 124.095 88.4906L122.317 87.5735C121.876 88.4284 121.197 89.7174 120.593 90.8053C120.29 91.3508 120.012 91.8351 119.796 92.1861C119.686 92.3636 119.601 92.4917 119.543 92.5721C119.513 92.6136 119.501 92.6259 119.506 92.6209C119.508 92.6182 119.525 92.5996 119.555 92.5742C119.577 92.5556 119.651 92.4928 119.77 92.4407L120.574 94.2719Z" fill="black"/>
<path d="M119.682 120.547L121.743 116.559L122.398 116.714L124.178 114.565H126.614L130.298 113.194L132.332 114.908L134.732 112.882L137.029 114.908C137.34 114.633 138.999 113.443 139.79 112.882L141.865 114.565L144.162 113.817L145.098 116.185L144.63 117.556L145.098 117.229L146.597 116.185L148.158 115.734L150.282 118.054L150.282 118.366L152.218 117.229L154.311 118.182L157.088 117.229L158.275 118.366L158.275 119.363L161.085 116.964L164.52 118.927L164.52 122.79L161.772 124.847L158.275 122.79L157.089 123.725L154.836 122.79L153.092 124.847L150.282 122.416L150.282 123.725L150.906 128.336L150.906 131.951L147.659 126.467L145.536 120.858L145.098 117.229L144.63 117.556L144.162 118.927L144.536 122.79L141.865 118.366L141.865 115.689L140.415 118.366L137.029 115.734L135.169 118.054L132.424 116.559L130.798 118.927L127.113 116.964L127.613 119.363L126.957 121.077L129.736 122.416L129.736 122.79L132.332 123.413L132.908 124.13L134.732 123.413L137.979 124.847L137.979 127.713L135.981 129.707L134.295 128.835L133.108 130.704L131.568 127.713L130.798 128.336L127.613 125.719H125.615L123.702 124.148L121.118 131.514L119.682 120.547Z" fill="#EBD76F"/>
<path d="M123.054 116.87L124.178 122.79L123.702 124.148M123.054 116.87L122.398 116.714M123.054 116.87L123.91 121.376L126.302 122.79L126.957 121.077M122.398 116.714L121.743 116.559L119.682 120.547L121.118 131.514L123.702 124.148M122.398 116.714L124.178 114.565H126.614M126.614 114.565L130.298 113.194L132.332 114.908M126.614 114.565L127.113 116.964M127.113 116.964L127.613 119.363L126.957 121.077M127.113 116.964L130.798 118.927L132.424 116.559M132.332 114.908L133.108 115.562L132.424 116.559M132.332 114.908L134.732 112.882L137.029 114.908M132.424 116.559L135.169 118.054L137.029 115.734M137.029 114.908L137.417 115.25L137.029 115.734M137.029 114.908C137.34 114.633 138.999 113.443 139.79 112.882L141.865 114.565M137.029 115.734L140.415 118.366L142.288 114.908L141.865 114.565M141.865 114.565L144.162 113.817L145.098 116.185L144.63 117.556M141.865 114.565L141.865 118.366L144.536 122.79L144.162 118.927L144.63 117.556M144.63 117.556L145.098 117.229M145.098 117.229L146.597 116.185L148.158 115.734L150.282 118.054L150.282 118.366M145.098 117.229L145.536 120.858L147.659 126.467L150.906 131.951L150.906 128.336L150.282 123.725L150.282 122.416M150.282 118.366L152.218 117.229L154.311 118.182M150.282 118.366L150.282 122.416M150.282 122.416L153.092 124.847L154.836 122.79M154.311 118.182L154.715 118.366L155.153 122.416L154.836 122.79M154.311 118.182L157.088 117.229L158.275 118.366L158.275 119.363M158.275 122.79L157.089 123.725L154.836 122.79M158.275 122.79L158.275 119.363M158.275 122.79L161.772 124.847L164.52 122.79L164.52 118.927L161.085 116.964L158.275 119.363M126.957 121.077L129.736 122.416L129.736 122.79M127.613 125.719L129.736 125.47L129.736 122.79M127.613 125.719H125.615L123.702 124.148M127.613 125.719L130.798 128.336L131.568 127.713M129.736 122.79L132.332 123.413L132.908 124.13M132.908 124.13L133.483 124.847L133.108 126.467L131.568 127.713M132.908 124.13L134.732 123.413L137.979 124.847L137.979 127.713L135.981 129.707L134.295 128.835L133.108 130.704L131.568 127.713" stroke="black" stroke-width="2"/>
<path d="M166.83 118.491L157.089 116.372H155.215L158.837 112.882L171.416 115.375L172.201 108.915L185.065 112.882C187.855 113.339 191.685 112.01 197.055 115.375C202.426 118.74 203.685 122.239 203.925 127.589C204.15 132.619 200.469 137.559 198.804 139.678L195.307 136.811C196.348 134.734 198.379 129.982 198.18 127.589C197.93 124.597 194.807 118.491 186.689 119.114C180.194 119.612 179.903 125.802 179.695 128.835H177.774L177.946 129.957L177.072 132.823L179.07 132.075L181.069 136.811L183.067 138.805C183.983 135.482 185.065 132.823 185.065 132.823L191.685 140.8C191.685 140.8 191.061 146.981 189.062 148.776C187.064 150.571 183.733 151.31 182.318 151.456L181.069 152.764H183.567L182.318 165.726H209.046L209.046 170.711H87.6463H83.0251L83.0251 166.474H87.6463L87.6463 170.711H209.046L209.046 165.726H182.318H174.724L174.724 163.233L176.448 159.12L173.825 157.874L172.201 152.764L175.199 150.147L172.201 145.411L174.724 135.814L173.825 132.823L168.188 119.861L166.83 118.491Z" fill="#412020"/>
<path d="M130.111 127.589L133.108 129.957L133.733 131.452L135.731 138.556L139.353 142.918L139.229 165.726H134.108L132.359 162.236L133.733 159.743H137.105L134.482 155.381L133.733 157.874C132.942 156.96 131.235 155.057 130.736 154.758L130.736 156.752H123.367C123.367 152.764 128.437 145.137 125.74 146.533C123.042 147.928 119.703 147.114 118.371 146.533L121.118 142.918C118.954 142.212 115.123 140.8 117.122 140.8C119.62 140.8 121.118 139.802 123.367 138.556C125.165 137.559 124.116 133.405 123.367 131.452L121.118 127.589C119.287 129.333 114.824 132.823 111.626 132.823C108.429 132.823 105.132 128.17 103.883 125.844H107.63L103.883 119.861H109.128C110.327 119.861 112.292 116.87 113.125 115.375C111.293 115.707 105.132 115.375 105.132 115.375C105.132 115.375 100.802 110.389 101.135 107.398C102.883 108.063 106.93 109.293 109.128 108.894C111.326 108.495 112.709 106.069 113.125 104.906H107.629C106.38 104.49 103.882 99.6712 103.882 99.6712C103.882 99.6712 110.044 92.9411 113.125 90.6978L113.125 104.906L117.122 115.375H113.125C112.292 116.87 110.327 119.861 109.128 119.861H103.883L107.63 125.844H103.883C105.132 128.17 108.429 132.823 111.626 132.823C114.824 132.823 119.287 129.333 121.118 127.589L123.991 124.847L125.74 125.844L130.111 127.589Z" fill="#412020"/>
<path d="M198.179 113.755L189.062 108.894L190.561 106.775C191.851 107.066 194.957 107.623 197.055 107.523C199.154 107.423 201.177 104.656 201.926 103.286L205.049 105.529L198.179 113.755Z" fill="#412020"/>
<path d="M168.188 119.861L166.83 118.491L157.089 116.372H155.215L158.837 112.882L171.416 115.375M168.188 119.861L177.072 128.835L177.422 126.539M168.188 119.861L173.825 132.823L174.724 135.814M177.422 126.539L177.946 123.102L177.072 121.606L175.199 122.479L176.447 119.861L176.447 116.372L171.416 115.375M177.422 126.539L177.774 128.835M125.74 125.844L129.112 132.823L132.359 144.788L133.108 135.814L133.108 129.957M125.74 125.844L130.111 127.589L133.108 129.957M125.74 125.844L123.991 124.847L121.118 127.589M133.108 129.957L133.733 131.452L135.731 138.556L139.353 142.918L139.229 165.726H146.847H134.108M103.883 165.726H134.108M133.109 145.411L132.359 147.779L134.482 150.147L133.733 152.016C132.526 152.806 130.236 154.459 130.736 154.758M130.736 154.758C131.235 155.057 132.942 156.96 133.733 157.874L134.482 155.381L137.105 159.743H133.733L132.359 162.236L134.108 165.726M130.736 154.758L130.736 156.752H123.367C123.367 152.764 128.437 145.137 125.74 146.533C123.042 147.928 119.703 147.114 118.371 146.533L121.118 142.918C118.954 142.212 115.123 140.8 117.122 140.8C119.62 140.8 121.118 139.802 123.367 138.556C125.165 137.559 124.116 133.405 123.367 131.452L121.118 127.589M174.724 135.814L177.946 146.533L182.318 165.726L183.567 152.764H181.069L182.318 151.456M174.724 135.814L172.201 145.411L175.199 150.147L172.201 152.764L173.825 157.874L176.448 159.12L174.724 163.233L174.724 165.726H209.046L209.046 170.711H87.6463M79.1533 170.711H83.0251M113.125 104.906H107.629C106.38 104.49 103.882 99.6712 103.882 99.6712C103.882 99.6712 110.044 92.9411 113.125 90.6978L113.125 104.906ZM113.125 104.906C112.709 106.069 111.326 108.495 109.128 108.894C106.93 109.293 102.883 108.063 101.135 107.398C100.802 110.389 105.132 115.375 105.132 115.375C105.132 115.375 111.293 115.707 113.125 115.375M113.125 104.906L117.122 115.375H113.125M113.125 115.375C112.292 116.87 110.327 119.861 109.128 119.861C107.929 119.861 105.132 119.861 103.883 119.861L107.63 125.844H103.883C105.132 128.17 108.429 132.823 111.626 132.823C114.824 132.823 119.287 129.333 121.118 127.589M182.318 151.456L183.567 150.147L179.82 148.776L182.568 145.411L185.065 140.8L183.067 138.805M182.318 151.456C183.733 151.31 187.064 150.571 189.062 148.776C191.061 146.981 191.685 140.8 191.685 140.8L185.065 132.823C185.065 132.823 183.983 135.482 183.067 138.805M183.067 138.805L181.069 136.811L179.07 132.075L177.072 132.823L177.946 129.957L177.774 128.835M171.416 115.375L172.201 108.915L185.065 112.882C187.855 113.339 191.685 112.01 197.055 115.375C202.426 118.74 203.685 122.239 203.925 127.589C204.15 132.619 200.469 137.559 198.804 139.678L195.307 136.811C196.348 134.734 198.379 129.982 198.18 127.589C197.93 124.597 194.807 118.491 186.689 119.114C180.194 119.612 179.903 125.802 179.695 128.835H177.774M83.0251 170.711L83.0251 166.474H87.6463L87.6463 170.711M83.0251 170.711H87.6463M189.062 108.894L198.179 113.755L205.049 105.529L201.926 103.286C201.177 104.656 199.154 107.423 197.055 107.523C194.957 107.623 191.851 107.066 190.561 106.775L189.062 108.894Z" stroke="black" stroke-width="2"/>
<path d="M236.148 171.833H231.028M114.374 170.711L114.374 175.696H218.663L218.663 171.833H222.909M118.246 175.696L118.246 170.711M121.868 175.696L121.868 170.711M125.74 175.696L125.74 170.711M129.237 175.696L129.237 170.711M132.859 175.696L132.859 170.711M136.731 175.696L136.731 170.711M140.602 175.696L140.602 170.711M144.474 175.696L144.474 170.711M148.471 175.696L148.471 170.711M152.468 175.696L152.468 170.711M156.464 175.696L156.464 170.711M222.909 171.833L218.663 168.094H234.525L231.028 171.833M222.909 171.833H231.028" stroke="black" stroke-width="2"/>
<path d="M210.232 159.276L210.232 149.056H208.109L208.109 145.068H217.226H221.723L221.723 149.056H219.724L219.724 159.276H223.908L223.908 155.88L229.029 156.254L229.217 159.276H223.908H219.724H215.478H210.232Z" fill="#6D6D6D"/>
<path d="M210.232 159.276L210.232 149.056H208.109L208.109 145.068H217.226M217.226 145.068L217.226 149.056H215.478L215.478 159.276M217.226 145.068H221.723L221.723 149.056H219.724L219.724 159.276M215.478 159.276H205.236M215.478 159.276H219.724M219.724 159.276H223.908M249.013 152.515H234.525L234.525 159.276H229.217M223.908 159.276L223.908 155.88L229.029 156.254L229.217 159.276M223.908 159.276H229.217M203.425 159.276H199.304" stroke="black" stroke-width="2"/>
<path d="M97.638 159.276L97.6379 149.056H95.5147L95.5147 145.068H104.632H109.128L109.128 149.056H107.13L107.13 159.276H102.884H97.7629H97.638Z" fill="#6D6D6D"/>
<path d="M97.638 159.276L97.6379 149.056H95.5147L95.5147 145.068H104.632M104.632 145.068L104.632 149.056H102.884L102.884 159.276M104.632 145.068H109.128L109.128 149.056H107.13L107.13 159.276M92.6421 159.276H97.7629H102.884M107.13 159.276H113.312L113.313 165.601M107.13 159.276H102.884" stroke="black" stroke-width="2"/>
<path d="M61.1681 148.776H85.1483L85.1483 152.764H97.1383M107.63 152.764H119.12L119.12 156.752H133.109M182.568 156.752H195.807L195.807 148.776H207.547M221.972 148.776H231.777L231.777 146.034H241.019" stroke="black" stroke-width="2"/>
<path d="M249.013 150.022L249.013 181.429H225.033L225.033 185.417H213.043H191.061L191.061 189.406H177.072L177.073 232.528H173.076L173.076 252.22M69.1615 148.776L69.1617 178.687H78.404L78.404 181.429H102.634H114.374L114.374 189.406H127.613L127.614 229.786" stroke="black" stroke-width="2"/>
<path d="M215.574 236.516H236.024L236.024 252.469H163.334L163.334 244.493H185.188L185.188 240.505H204.85H215.574L215.574 236.516Z" fill="#262626"/>
<path d="M104.633 244.493H98.5363L98.5363 236.516H88.0352H84.423L84.4229 233.774H76.1562M236.024 236.516H215.574L215.574 240.505H204.85H185.188L185.188 244.493H163.334L163.334 252.469H236.024L236.024 236.516Z" stroke="white" stroke-width="2"/>
<path d="M215.103 136.811H211.668L209.982 135.378L209.982 132.823L208.608 131.951L209.982 130.891L209.982 125.532L209.046 123.85H207.047" stroke="black" stroke-width="2"/>
<path d="M215.103 136.811H218.538L220.224 135.378L220.224 132.823L221.598 131.951L220.224 130.891L220.224 125.532L221.16 123.85H223.159" stroke="black" stroke-width="2"/>
<path d="M215.103 145.162L215.103 131.888L215.103 123.85H216.914H212.98" stroke="black" stroke-width="2"/>
<path d="M212.168 140.8H218.101" stroke="black" stroke-width="2"/>
<path d="M101.947 136.811H98.5121L96.826 135.378L96.826 132.823L95.4521 131.951L96.826 130.891L96.8259 125.532L95.8892 123.85H93.8909" stroke="black" stroke-width="2"/>
<path d="M101.947 136.811H105.381L107.067 135.378L107.067 132.823L108.441 131.951L107.067 130.891L107.067 125.532L108.004 123.85H110.003" stroke="black" stroke-width="2"/>
<path d="M101.947 145.162L101.947 131.888L101.947 123.85H103.758H99.8234" stroke="black" stroke-width="2"/>
<path d="M99.0117 140.8H104.944" stroke="black" stroke-width="2"/>
<path d="M207.096 75.1187L207.096 79.4808H198.157L195.266 73H236.023L236.023 140.799L229.94 136.188L228.078 132.823L228.077 128.212L230.56 127.09L230.56 122.853H228.822L226.906 111.262L221.036 110.265L221.035 106.152H215.786L215.786 100.917L214.048 98.674L214.669 88.9528L207.096 75.1187Z" fill="#262626" stroke="white" stroke-width="2"/>
<path d="M64.0007 187L44.0007 187L44.0004 203L52.0003 211.5L44.0002 219L44 235L54 235L64 235L64.0007 187Z" fill="#495A53"/>
<path d="M64.0007 187L44.0007 187L44.0004 203L52.0003 211.5L44.0002 219L44 235L54 235L64 235L64.0007 187Z" fill="black" fill-opacity="0.2"/>
<path d="M64.0007 187L44.0007 187L44.0004 203L52.0003 211.5L44.0002 219L44 235L54 235L64 235L64.0007 187Z" stroke="black" stroke-width="2"/>
<path d="M56.0001 195L64.0002 187L64.0001 195L56.0001 195Z" fill="black" fill-opacity="0.38" stroke="black" stroke-width="2" stroke-linejoin="bevel"/>
<path d="M248 187L268 187L268 203L260.001 211.5L268.001 219L268.001 235L258.001 235L248.001 235L248 187Z" fill="#495A53"/>
<path d="M248 187L268 187L268 203L260.001 211.5L268.001 219L268.001 235L258.001 235L248.001 235L248 187Z" fill="black" fill-opacity="0.2"/>
<path d="M248 187L268 187L268 203L260.001 211.5L268.001 219L268.001 235L258.001 235L248.001 235L248 187Z" stroke="black" stroke-width="2"/>
<path d="M256.002 195L248.002 187L248.002 195L256.002 195Z" fill="black" fill-opacity="0.38" stroke="black" stroke-width="2" stroke-linejoin="bevel"/>
<path d="M255.99 194.977L55.9904 194.977L55.9897 242.977L255.99 242.977L255.99 194.977Z" fill="#495A53" stroke="black" stroke-width="2"/>
<path d="M113.598 228.452L115.794 227.696L115.794 210.56L113.598 209.804L113.598 208.256L124.074 208.256C125.394 208.256 126.63 208.592 127.782 209.264C128.934 209.912 129.87 211.004 130.59 212.54C131.31 214.076 131.67 216.068 131.67 218.516C131.67 222.428 131.01 225.32 129.69 227.192C128.37 229.064 126.498 230 124.074 230L113.598 230L113.598 228.452ZM124.362 228.056C125.346 228.056 126.126 227.228 126.702 225.572C127.278 223.892 127.566 221.624 127.566 218.768C127.566 217.208 127.434 215.78 127.17 214.484C126.906 213.164 126.534 212.12 126.054 211.352C125.574 210.56 125.01 210.164 124.362 210.164L119.718 210.632L119.718 227.516L124.362 228.056ZM140.564 230.36C139.436 230.36 138.392 230.072 137.432 229.496C136.496 228.92 135.74 228.056 135.164 226.904C134.612 225.752 134.336 224.348 134.337 222.692C134.337 221.516 134.421 220.412 134.589 219.38C134.757 218.348 134.973 217.58 135.237 217.076C135.501 216.716 136.029 216.236 136.821 215.636C137.613 215.012 138.405 214.472 139.197 214.016C140.013 213.56 140.577 213.332 140.889 213.332C142.209 213.332 143.289 213.548 144.129 213.98C144.969 214.412 145.617 215.228 146.073 216.428C146.529 217.604 146.757 219.272 146.757 221.432L138.261 222.152C138.26 223.472 138.428 224.528 138.764 225.32C139.124 226.112 139.544 226.676 140.024 227.012C140.504 227.348 140.96 227.516 141.392 227.516L146.216 227.336L146.216 228.956C145.376 229.244 144.308 229.556 143.012 229.892C141.716 230.204 140.9 230.36 140.564 230.36ZM142.905 219.884C142.905 217.052 142.161 215.624 140.673 215.6L140.385 215.6C140.001 215.6 139.653 215.66 139.341 215.78C139.053 215.876 138.813 216.404 138.621 217.364C138.429 218.3 138.333 219.344 138.333 220.496L142.905 219.884ZM151.62 230.36C151.5 230.36 151.248 230.18 150.864 229.82C150.48 229.46 150.288 229.22 150.288 229.1L150.289 215.888L148.561 215.888L148.561 214.304L150.289 213.62L150.289 212.252C150.289 211.772 150.601 211.088 151.225 210.2C151.849 209.288 152.545 208.472 153.313 207.752C154.081 207.008 154.657 206.636 155.041 206.636C155.425 206.636 155.953 206.66 156.625 206.708C157.297 206.756 157.945 206.804 158.569 206.852C158.713 206.972 158.869 207.176 159.037 207.464C159.229 207.728 159.325 207.92 159.325 208.04C159.325 208.112 159.217 208.4 159.001 208.904C158.809 209.408 158.653 209.792 158.533 210.056C158.389 210.008 157.789 209.84 156.733 209.552C155.701 209.264 155.029 209.12 154.717 209.12C154.573 209.12 154.429 209.324 154.285 209.732C154.141 210.14 154.069 210.584 154.069 211.064L154.033 213.8L157.561 213.8L157.561 215.924L154.033 215.924L154.032 227.516L155.976 228.128L155.976 229.712C153.312 230.144 151.86 230.36 151.62 230.36ZM165.209 230.36C164.081 230.36 163.037 230.072 162.077 229.496C161.141 228.92 160.385 228.056 159.809 226.904C159.257 225.752 158.981 224.348 158.981 222.692C158.981 221.516 159.065 220.412 159.233 219.38C159.401 218.348 159.617 217.58 159.881 217.076C160.145 216.716 160.673 216.236 161.465 215.636C162.257 215.012 163.049 214.472 163.841 214.016C164.657 213.56 165.221 213.332 165.533 213.332C166.853 213.332 167.933 213.548 168.773 213.98C169.613 214.412 170.261 215.228 170.717 216.428C171.173 217.604 171.401 219.272 171.401 221.432L162.905 222.152C162.905 223.472 163.073 224.528 163.409 225.32C163.769 226.112 164.189 226.676 164.669 227.012C165.149 227.348 165.605 227.516 166.037 227.516L170.861 227.336L170.861 228.956C170.021 229.244 168.953 229.556 167.657 229.892C166.361 230.204 165.545 230.36 165.209 230.36ZM167.549 219.884C167.549 217.052 166.805 215.624 165.317 215.6L165.029 215.6C164.645 215.6 164.297 215.66 163.985 215.78C163.697 215.876 163.457 216.404 163.265 217.364C163.073 218.3 162.977 219.344 162.977 220.496L167.549 219.884Z" fill="black" fill-opacity="0.57"/>
<path d="M179.577 230.36C178.521 230.36 177.549 230.072 176.661 229.496C175.797 228.896 175.101 228.008 174.573 226.832C174.069 225.656 173.817 224.216 173.817 222.512C173.817 221.384 173.901 220.34 174.069 219.38C174.237 218.396 174.453 217.628 174.717 217.076C175.125 216.524 176.025 215.78 177.417 214.844C178.833 213.908 179.769 213.44 180.225 213.44C180.489 213.44 181.425 213.56 183.033 213.8C184.641 214.016 185.877 214.196 186.741 214.34L186.741 227.696L188.001 228.2L188.001 229.748C185.817 230.156 184.605 230.36 184.365 230.36C184.269 230.36 184.029 230.18 183.645 229.82C183.285 229.46 183.105 229.22 183.105 229.1L183.105 227.804C180.921 229.508 179.745 230.36 179.577 230.36ZM179.973 227.444C180.213 227.444 181.221 227 182.997 226.112L182.997 216.428C182.421 216.212 181.689 216.02 180.801 215.852C179.937 215.66 179.361 215.588 179.073 215.636C178.641 215.732 178.317 216.272 178.101 217.256C177.885 218.24 177.777 219.884 177.777 222.188C177.777 223.34 177.897 224.312 178.137 225.104C178.401 225.896 178.701 226.484 179.037 226.868C179.397 227.252 179.709 227.444 179.973 227.444ZM194.23 230.36C193.942 230.36 193.582 230.18 193.15 229.82C192.718 229.46 192.334 229.04 191.998 228.56C191.662 228.08 191.494 227.696 191.494 227.408L191.494 215.888L189.154 215.888L189.154 214.592L191.494 213.476L193.834 210.704C194.05 210.68 194.518 210.848 195.238 211.208L195.238 213.8L198.766 213.8L198.766 216.032L195.238 216.032L195.238 225.824C195.238 226.52 195.298 227 195.418 227.264C195.538 227.504 195.766 227.624 196.102 227.624L199.126 227.732L199.126 229.64C198.382 229.808 197.446 229.964 196.318 230.108C195.214 230.276 194.518 230.36 194.23 230.36Z" fill="black" fill-opacity="0.3"/>
</svg>
