<svg width="226" height="224" viewBox="0 0 226 224" fill="none" xmlns="http://www.w3.org/2000/svg">
<path d="M106 148L106 132H107L107 127H97L97 121H138L138 127H125L125 132H129.077L129 148L127.078 159.995L118.835 164.037L118.835 178.439L118.835 184.25L111.092 186.019L101.1 192.336L93.1067 217.442L76.8702 209.965L70.1257 212.136L76.8701 192.336L84.8634 186.019L94.1057 184.25L94.1057 178.439L94.1056 164.037L100.101 159.995H104.597L106 148Z" fill="#A52828"/>
<path d="M129.077 132L129 148L127.078 159.995L118.835 164.037L118.835 178.439L118.835 184.25L111.092 186.019L101.1 192.336L93.1067 217.442L76.8702 209.965L70.1257 212.136L76.8701 192.336L84.8634 186.019L94.1057 184.25L94.1057 178.439L94.1056 164.037L100.101 159.995H104.597L106 148L106 132H107M129.077 132H107M129.077 132H125L125 127H138L138 121H97L97 127H107L107 132" stroke="black" stroke-width="2"/>
<path d="M33.1553 29H193.023L193.023 101.535H189.276L189.276 104.776H153.056L153.056 112.752H139.817L124.705 74.989L110.092 72.2471L107.594 73.9919L86.3614 70.8761L81.1158 77.2323L89.7337 82.7161L92.7313 94.4314L96.6031 98.1704L96.6032 112.503H76.6197L76.6197 109.013H42.1483L42.1482 104.776H33.1557L33.1553 29Z" fill="#433130"/>
<path d="M74.1213 32.9883L79.3669 21.0237L88.6093 27.7538L95.6035 26.7567L104.096 17.5963H122.082L122.082 25.0119L130.075 19.5281L136.32 21.0237L138.068 29.0001L139.068 30.3295L144.063 26.7567L144.688 32.9883L150.058 40.9647L150.058 33.8607C150.058 34.1598 152.723 38.7213 154.055 40.9647L153.431 44.9529L143.314 51.9322C145.437 52.2646 150.183 52.9293 152.182 52.9293C154.18 52.9293 155.679 50.2705 156.178 48.9411L158.801 52.9293C158.218 54.3418 156.453 57.3662 154.055 58.1638C151.657 58.9615 146.395 58.4962 144.064 58.1638L147.311 62.8998L146.062 64.8939C145.198 64.2616 143.712 63.0725 142.812 62.0695C143.698 63.8055 145.158 66.9195 146.062 68.8821H139.068L130.075 66.1402L138.069 72.8703L126.079 70.3777L115.587 68.8821L111.84 72.8703L95.6037 64.8939L90.1083 67.1373L82.1149 66.1402L76.6195 76.8585L70.1248 60.9057L70.1247 52.9293L70.1247 47.6948L74.1213 32.9883Z" fill="#5E2828"/>
<path d="M135.633 12.1125L132.198 16.35L136.32 17.5963L135.633 12.1125Z" fill="#5E2828"/>
<path d="M115.587 68.8821L111.84 72.8703L95.6037 64.8939L90.1083 67.1373L82.1149 66.1402L76.6195 76.8585L70.1248 60.9057L70.1247 52.9293L70.1247 47.6948L74.1213 32.9883L79.3669 21.0237L88.6093 27.7538L95.6035 26.7567L104.096 17.5963H122.082L122.082 25.0119L130.075 19.5281L136.32 21.0237L138.068 29.0001L139.068 30.3295M115.587 68.8821L126.079 70.3777L138.069 72.8703L130.075 66.1402L139.068 68.8821H146.062C144.646 65.8079 141.865 59.9087 142.065 60.9057C142.265 61.9028 144.813 63.9799 146.062 64.8939L147.311 62.8998L144.064 58.1638M115.587 68.8821L106.095 62.8998L103.097 59.9087L106.095 58.1638L110.092 59.9087C111.341 58.4131 115.063 55.397 119.958 55.2973C124.854 55.1976 129.242 57.1668 130.825 58.1638L135.196 60.9057L135.196 56.9175L126.078 52.9293L135.196 51.3091L130.824 48.9411M144.064 58.1638L146.062 55.9205L138.068 52.9293L146.062 47.6948L144.063 36.9765L139.068 30.3295M144.064 58.1638C146.395 58.4962 151.657 58.9615 154.055 58.1638C156.453 57.3662 158.218 54.3418 158.801 52.9293L156.178 48.9411C155.679 50.2705 154.18 52.9293 152.182 52.9293C150.183 52.9293 145.437 52.2646 143.314 51.9322L153.431 44.9529L154.055 40.9647C152.723 38.7213 150.058 34.1598 150.058 33.8607C150.058 33.5616 150.058 38.4721 150.058 40.9647L144.688 32.9883L144.063 26.7567L139.068 30.3295M132.198 16.35L135.633 12.1125L136.32 17.5963L132.198 16.35Z" stroke="black" stroke-width="2"/>
<path d="M133.199 120.666L133.199 120.227H132.199H129.702L129.702 119.669L129.702 118.669H128.702H125.58L125.58 110.945L125.58 110.637L125.407 110.382L121.209 104.218L121.209 97.2357L121.209 96.4141L120.403 96.2547L113.471 94.8837L112.277 94.6476L112.277 95.6748H111.154H110.154L110.154 96.6748L110.154 98.669L110.154 99.669H111.154H112.377L112.403 99.7162L112.592 100.056L110.505 101.834L110.468 101.866L110.467 101.224L110.467 100.224H109.467H107.906H107.259L106.994 100.814L106.447 102.031H106.158H105.357L105.182 102.812L103.995 108.109L103.863 108.702L104.328 109.093L105.514 110.091L105.793 110.325H106.158H112.163L113.151 111.599L113.151 111.815H108.531H108.081L107.783 112.151L106.346 113.771L106.095 114.055L106.095 114.435L106.095 117.052L106.095 117.382L106.291 117.648L109.851 122.446L110.541 123.376L111.215 122.703L111.215 122.723L111.215 123.723H112.215H115.775H117.885L116.549 122.09L114.688 119.815L115.217 119.388L115.986 118.766L115.373 117.99L115.028 117.554H118.896L118.896 121.539L118.896 121.808L119.032 122.041L119.718 123.225L120.007 123.723H120.583H132.199H133.199L133.199 122.723L133.199 121.227L133.199 120.666ZM115.643 101.283L115.022 100.475L115.961 100.602L115.961 101.283H115.643ZM110.79 104.898L111.027 104.062L111.54 104.724L111.484 104.898H110.79Z" fill="white" stroke="black" stroke-width="2"/>
<path d="M33.1553 29L33.1554 51.0597L33.1556 96.7994L44.6461 87.5767L44.6461 82.8407L49.1423 79.351L49.1423 75.3628H44.646L44.646 72.8702L44.646 63.6475C44.6459 60.8558 49.3087 57.1251 51.6401 53.677L51.6401 48.941H44.6459L51.6401 44.9528L51.64 36.9764L58.9464 29H33.1553Z" fill="#262626"/>
<path d="M33.1554 51.0597L33.1553 29H58.9464L51.64 36.9764L51.6401 44.9528L44.6459 48.941H51.6401L51.6401 53.677C49.3087 57.1251 44.6459 60.8558 44.6459 63.6475C44.646 66.4392 44.646 71.3746 44.646 72.8702L44.646 75.3628H49.1423L49.1423 79.351L44.6461 82.8407L44.6461 87.5767L33.1556 96.7994L33.1557 104.776L33.1554 51.0597Z" stroke="white" stroke-width="2"/>
<path d="M32.9999 187L33 209L66 209" stroke="black" stroke-width="2"/>
<path d="M193 127L193 209H100" stroke="black" stroke-width="2"/>
<path d="M118.085 35.4808L110.092 43.7065H114.088L118.085 45.4513L121.395 46.6976L122.082 47.1961L127.053 48.1347L131.324 48.941L131.324 43.7065L129.187 40.9646L126.078 36.9764L123.873 36.5637L118.085 35.4808Z" fill="white"/>
<path d="M78.1182 43.7065L71.8734 51.6829L77.1723 49.3563L78.1183 48.941L80.7051 48.3763L84.0928 47.6368L86.1116 47.1961L87.6104 44.9528H86.1116L80.2061 44.032L78.1182 43.7065Z" fill="white"/>
<path d="M110.092 43.7065L109.375 43.0096L107.726 44.7065H110.092L110.092 43.7065ZM118.085 35.4808L118.269 34.4979L117.742 34.3992L117.368 34.7839L118.085 35.4808ZM126.078 36.9764L126.867 36.3616L126.634 36.0631L126.262 35.9934L126.078 36.9764ZM131.324 43.7065H132.324L132.324 43.3628L132.113 43.0917L131.324 43.7065ZM131.324 48.941L131.139 49.9236L132.324 50.1474L132.324 48.941H131.324ZM122.082 47.1961L121.494 48.0055L121.676 48.1372L121.896 48.1788L122.082 47.1961ZM114.088 43.7065L114.489 42.79L114.297 42.7065H114.088L114.088 43.7065ZM71.8734 51.6829L71.086 51.0664L72.2755 52.5985L71.8734 51.6829ZM78.1182 43.7065L78.2723 42.7184L77.6925 42.628L77.3308 43.09L78.1182 43.7065ZM86.1116 44.9528L85.9576 45.9408L86.0341 45.9528H86.1116L86.1116 44.9528ZM87.6104 44.9528L88.4419 45.5083L89.4811 43.9528H87.6104L87.6104 44.9528ZM86.1116 47.1961L86.3249 48.1731L86.719 48.0871L86.9431 47.7517L86.1116 47.1961ZM78.1183 48.941L77.905 47.964L77.8075 47.9853L77.7162 48.0253L78.1183 48.941ZM108.093 29L107.945 28.011L107.631 28.058L107.402 28.2772L108.093 29ZM118.085 27.5044L118.513 26.6008L118.238 26.4703L117.937 26.5154L118.085 27.5044ZM92.3564 40.9646L91.497 41.4759L91.7878 41.9646H92.3564L92.3564 40.9646ZM87.6103 32.9882L88.4697 32.4768L88.1278 31.9023L87.4663 31.9986L87.6103 32.9882ZM75.6202 34.733L75.4762 33.7434L75.0123 33.8109L74.7675 34.2108L75.6202 34.733ZM95.8535 40.9646L96.2842 41.8671L95.8535 39.9646L95.8535 40.9646ZM90.1083 43.7065L89.6776 42.804L89.4599 42.9079L89.3135 43.0996L90.1083 43.7065ZM86.1116 48.941L85.3168 48.3341L85.3037 48.3513L85.2913 48.3691L86.1116 48.941ZM82.115 54.674L81.2946 54.1021L80.9734 54.563L81.1998 55.0771L82.115 54.674ZM84.6129 60.3447L83.6978 60.7479L85.5032 60.8003L84.6129 60.3447ZM100.912 56.7304L101.348 57.6302L102.668 56.99L101.59 55.9953L100.912 56.7304ZM86.1117 57.4159L86.9459 56.8645L85.2215 56.9604L86.1117 57.4159ZM88.0476 60.3447L87.2134 60.8962L87.5099 61.3447H88.0476L88.0476 60.3447ZM92.3565 57.1666L93.188 56.6111L91.4321 56.7852L92.3565 57.1666ZM91.0451 60.3447L91.0451 61.3447H91.7143L91.9695 60.7262L91.0451 60.3447ZM94.23 59.9709L93.3985 60.5264L93.8824 61.2508L94.6663 60.8706L94.23 59.9709ZM117.023 39.469L116.633 38.5484L115.9 38.8594L116.039 39.6437L117.023 39.469ZM118.085 45.4513L117.685 46.3678L117.709 46.3781L117.733 46.3872L118.085 45.4513ZM130.7 46.0745L131.192 46.9451L131.884 46.5536L131.659 45.7906L130.7 46.0745ZM120.458 40.9646L120.19 40.0011L119.327 40.2411L119.471 41.1258L120.458 40.9646ZM127.053 44.9528L127.42 45.8832L128.161 45.5914L128.042 44.8039L127.053 44.9528ZM126.641 42.2109L127.629 42.062L127.466 40.9763L126.4 41.2402L126.641 42.2109ZM123.873 42.8964L123.632 41.9257L122.788 42.1349L122.878 43.0003L123.873 42.8964ZM124.205 46.0745L123.21 46.1784L123.347 47.487L124.572 47.0049L124.205 46.0745ZM82.1149 45.7629L82.8027 45.037L81.8548 44.1389L81.2348 45.2881L82.1149 45.7629ZM77.1723 49.3563L77.5744 50.2719L77.5744 50.2719L77.1723 49.3563ZM110.809 44.4034L118.802 36.1777L117.368 34.7839L109.375 43.0096L110.809 44.4034ZM130.324 43.7065L130.324 48.941H132.324L132.324 43.7065H130.324ZM114.088 42.7065H110.092L110.092 44.7065H114.088L114.088 42.7065ZM72.6608 52.2993L78.9056 44.3229L77.3308 43.09L71.086 51.0664L72.6608 52.2993ZM86.1116 45.9528H87.6104L87.6104 43.9528H86.1116L86.1116 45.9528ZM86.7789 44.3973L85.2801 46.6406L86.9431 47.7517L88.4419 45.5083L86.7789 44.3973ZM102.789 35.4557L108.784 29.7227L107.402 28.2772L101.407 34.0103L102.789 35.4557ZM108.241 29.989L118.233 28.4934L117.937 26.5154L107.945 28.011L108.241 29.989ZM117.657 28.408L137.64 37.88L138.497 36.0727L118.513 26.6008L117.657 28.408ZM93.2158 40.4532L88.4697 32.4768L86.7509 33.4995L91.497 41.4759L93.2158 40.4532ZM87.4663 31.9986L75.4762 33.7434L75.7643 35.7226L87.7543 33.9777L87.4663 31.9986ZM74.7675 34.2108L69.2721 43.1842L70.9776 44.2287L76.473 35.2553L74.7675 34.2108ZM92.3564 41.9646H95.8535L95.8535 39.9646H92.3564L92.3564 41.9646ZM95.4228 40.0621L89.6776 42.804L90.539 44.609L96.2842 41.8671L95.4228 40.0621ZM89.3135 43.0996L85.3168 48.3341L86.9064 49.5478L90.9031 44.3133L89.3135 43.0996ZM85.2913 48.3691L81.2946 54.1021L82.9353 55.2459L86.932 49.5129L85.2913 48.3691ZM81.1998 55.0771L83.6978 60.7479L85.5281 59.9416L83.0301 54.2709L81.1998 55.0771ZM85.5032 60.8003L87.0019 57.8715L85.2215 56.9604L83.7227 59.8892L85.5032 60.8003ZM85.2775 57.9673L87.2134 60.8962L88.8818 59.7933L86.9459 56.8645L85.2775 57.9673ZM88.0476 61.3447H91.0451L91.0451 59.3447H88.0476L88.0476 61.3447ZM91.9695 60.7262L93.2809 57.5481L91.4321 56.7852L90.1207 59.9633L91.9695 60.7262ZM91.525 57.7222L93.3985 60.5264L95.0615 59.4153L93.188 56.6111L91.525 57.7222ZM94.6663 60.8706L101.348 57.6302L100.476 55.8307L93.7936 59.0711L94.6663 60.8706ZM101.59 55.9953L97.4683 52.1941L96.1124 53.6643L100.234 57.4655L101.59 55.9953ZM117.901 36.4637L123.689 37.5466L124.057 35.5807L118.269 34.4979L117.901 36.4637ZM123.689 37.5466L125.895 37.9593L126.262 35.9934L124.057 35.5807L123.689 37.5466ZM123.482 35.6431L116.633 38.5484L117.414 40.3896L124.263 37.4843L123.482 35.6431ZM118.485 44.5348L114.489 42.79L113.688 44.6229L117.685 46.3678L118.485 44.5348ZM116.039 39.6437L117.101 45.626L119.07 45.2766L118.008 39.2943L116.039 39.6437ZM125.29 37.5911L128.398 41.5793L129.976 40.3498L126.867 36.3616L125.29 37.5911ZM128.398 41.5793L130.535 44.3212L132.113 43.0917L129.976 40.3498L128.398 41.5793ZM128.228 41.2484L129.741 46.3583L131.659 45.7906L130.146 40.6807L128.228 41.2484ZM131.51 47.9583L127.239 47.1521L126.868 49.1173L131.139 49.9236L131.51 47.9583ZM127.239 47.1521L122.267 46.2135L121.896 48.1788L126.868 49.1173L127.239 47.1521ZM130.208 45.2038L126.561 47.2641L127.545 49.0053L131.192 46.9451L130.208 45.2038ZM127.365 38.007L120.19 40.0011L120.726 41.9281L127.901 39.934L127.365 38.007ZM122.669 46.3868L121.982 45.8883L120.808 47.5069L121.494 48.0055L122.669 46.3868ZM121.747 45.7618L118.438 44.5155L117.733 46.3872L121.043 47.6335L121.747 45.7618ZM119.471 41.1258L120.408 46.8589L122.382 46.5364L121.445 40.8033L119.471 41.1258ZM128.042 44.8039L127.629 42.062L125.652 42.3598L126.064 45.1016L128.042 44.8039ZM126.4 41.2402L123.632 41.9257L124.113 43.867L126.881 43.1816L126.4 41.2402ZM122.878 43.0003L123.21 46.1784L125.2 45.9705L124.867 42.7924L122.878 43.0003ZM124.572 47.0049L127.42 45.8832L126.687 44.0223L123.839 45.144L124.572 47.0049ZM80.4918 47.3993L77.905 47.964L78.3315 49.918L80.9184 49.3533L80.4918 47.3993ZM81.5852 48.8511L82.995 46.2377L81.2348 45.2881L79.825 47.9015L81.5852 48.8511ZM85.8984 46.2191L83.8795 46.6598L84.3061 48.6138L86.3249 48.1731L85.8984 46.2191ZM83.8795 46.6598L80.4918 47.3993L80.9184 49.3533L84.3061 48.6138L83.8795 46.6598ZM81.4272 46.4888L83.405 48.3627L84.7806 46.9109L82.8027 45.037L81.4272 46.4888ZM77.7162 48.0253L76.7703 48.4407L77.5744 50.2719L78.5203 49.8566L77.7162 48.0253ZM76.7703 48.4407L71.4714 50.7672L72.2755 52.5985L77.5744 50.2719L76.7703 48.4407ZM77.9642 44.6945L80.0521 45.0201L80.3602 43.0439L78.2723 42.7184L77.9642 44.6945ZM80.0521 45.0201L85.9576 45.9408L86.2657 43.9647L80.3602 43.0439L80.0521 45.0201ZM77.5744 50.2719C77.8052 50.1706 77.953 50.0023 77.985 49.9671C78.0497 49.896 78.1093 49.8187 78.1598 49.7494C78.2626 49.6082 78.3781 49.4301 78.4974 49.2368C78.7386 48.8461 79.0342 48.33 79.3418 47.7759C79.9588 46.6643 80.6482 45.3561 81.0948 44.4906L79.3174 43.5735C78.8763 44.4284 78.1969 45.7174 77.5931 46.8053C77.2902 47.3508 77.0123 47.8351 76.7956 48.1861C76.686 48.3636 76.6015 48.4917 76.5429 48.5721C76.5127 48.6136 76.5013 48.6259 76.5059 48.6209C76.5083 48.6182 76.5252 48.5996 76.5549 48.5742C76.5768 48.5556 76.6515 48.4928 76.7703 48.4407L77.5744 50.2719Z" fill="black"/>
<path d="M76.6819 76.5469L78.7427 72.5587L79.3984 72.7145L81.1782 70.5646H83.6137L87.2981 69.1937L89.3322 70.9077L91.7319 68.8821L94.029 70.9077C94.3396 70.6332 95.9992 69.4429 96.7902 68.8821L98.8651 70.5646L101.162 69.8168L102.098 72.1848L101.63 73.5558L102.098 73.2293L103.597 72.1848L105.158 71.7343L107.282 74.0543L107.282 74.3659L109.217 73.2293L111.311 74.1818L114.088 73.2293L115.275 74.3659L115.275 75.3629L118.085 72.9638L121.52 74.9267L121.52 78.7903L118.772 80.8467L115.275 78.7903L114.088 79.725L111.836 78.7903L110.092 80.8467L107.282 78.4164L107.282 79.725L107.906 84.3364L107.906 87.9507L104.659 82.4669L102.536 76.8585L102.098 73.2293L101.63 73.5558L101.162 74.9267L101.536 78.7903L98.8651 74.3659L98.8651 71.6887L97.4147 74.3659L94.029 71.7343L92.1691 74.0543L89.4237 72.5587L87.7977 74.9267L84.1133 72.9638L84.6129 75.3629L83.9572 77.0766L86.7361 78.4164L86.7361 78.7903L89.3323 79.4134L89.9076 80.1301L91.732 79.4134L94.9793 80.8467L94.9793 83.7132L92.981 85.7073L91.2949 84.8349L90.1084 86.7044L88.568 83.7132L87.7978 84.3364L84.6129 81.7191H82.6145L80.7021 80.1476L78.1183 87.5145L76.6819 76.5469Z" fill="#EBD76F"/>
<path d="M80.0541 72.8703L81.1782 78.7903L80.7021 80.1476M80.0541 72.8703L79.3984 72.7145M80.0541 72.8703L80.9096 77.3757L83.3015 78.7903L83.9572 77.0766M79.3984 72.7145L78.7427 72.5587L76.6819 76.5469L78.1183 87.5145L80.7021 80.1476M79.3984 72.7145L81.1782 70.5646H83.6137M83.6137 70.5646L87.2981 69.1937L89.3322 70.9077M83.6137 70.5646L84.1133 72.9638M84.1133 72.9638L84.6129 75.3629L83.9572 77.0766M84.1133 72.9638L87.7977 74.9267L89.4237 72.5587M89.3322 70.9077L90.1083 71.5617L89.4237 72.5587M89.3322 70.9077L91.7319 68.8821L94.029 70.9077M89.4237 72.5587L92.1691 74.0543L94.029 71.7343M94.029 70.9077L94.4172 71.2501L94.029 71.7343M94.029 70.9077C94.3396 70.6332 95.9992 69.4429 96.7902 68.8821L98.8651 70.5646M94.029 71.7343L97.4147 74.3659L99.2882 70.9077L98.8651 70.5646M98.8651 70.5646L101.162 69.8168L102.098 72.1848L101.63 73.5558M98.8651 70.5646L98.8651 74.3659L101.536 78.7903L101.162 74.9267L101.63 73.5558M101.63 73.5558L102.098 73.2293M102.098 73.2293L103.597 72.1848L105.158 71.7343L107.282 74.0543L107.282 74.3659M102.098 73.2293L102.536 76.8585L104.659 82.4669L107.906 87.9507L107.906 84.3364L107.282 79.725L107.282 78.4164M107.282 74.3659L109.217 73.2293L111.311 74.1818M107.282 74.3659L107.282 78.4164M107.282 78.4164L110.092 80.8467L111.836 78.7903M111.311 74.1818L111.715 74.3659L112.153 78.4164L111.836 78.7903M111.311 74.1818L114.088 73.2293L115.275 74.3659L115.275 75.3629M115.275 78.7903L114.088 79.725L111.836 78.7903M115.275 78.7903L115.275 75.3629M115.275 78.7903L118.772 80.8467L121.52 78.7903L121.52 74.9267L118.085 72.9638L115.275 75.3629M83.9572 77.0766L86.7361 78.4164L86.7361 78.7903M84.6129 81.7191L86.7361 81.4698L86.7361 78.7903M84.6129 81.7191H82.6145L80.7021 80.1476M84.6129 81.7191L87.7978 84.3364L88.568 83.7132M86.7361 78.7903L89.3323 79.4134L89.9076 80.1301M89.9076 80.1301L90.483 80.8467L90.1083 82.4669L88.568 83.7132M89.9076 80.1301L91.732 79.4134L94.9793 80.8467L94.9793 83.7132L92.981 85.7073L91.2949 84.8349L90.1084 86.7044L88.568 83.7132" stroke="black" stroke-width="2"/>
<path d="M123.83 74.4905L114.088 72.3718H112.215L115.837 68.8821L128.416 71.3748L129.201 64.9151L142.065 68.8821C144.855 69.3391 148.685 68.0097 154.055 71.3748C159.426 74.7398 160.685 78.2392 160.925 83.5886C161.15 88.6194 157.469 93.5591 155.804 95.6779L152.307 92.8113C153.348 90.7341 155.379 85.9815 155.179 83.5886C154.93 80.5975 151.807 74.4905 143.689 75.1137C137.194 75.6122 136.903 81.8022 136.695 84.8349H134.774L134.946 85.9566L134.072 88.8231L136.07 88.0753L138.069 92.8113L140.067 94.8054C140.983 91.4819 142.065 88.8231 142.065 88.8231L148.685 96.7995C148.685 96.7995 148.06 102.981 146.062 104.776C144.064 106.571 140.733 107.31 139.318 107.456L138.069 108.764H140.567L140 122H166.046L166.046 127H45H40.025L40 122H45L45 127H166.046L166.046 122H140H132L132 119L134 115L131 114L129 109L132.199 106.147L129.201 101.411L131.724 91.8143L130.825 88.8231L125.188 75.8615L123.83 74.4905Z" fill="#412020"/>
<path d="M87.1108 83.5886L90.1083 85.9566L90.7328 87.4522L92.7312 94.5562L96.3532 98.9183L96 121H91L89.3591 118.236L90.733 115.743H94.1052L91.4823 111.381L90.733 113.874C89.9419 112.96 88.235 111.057 87.7354 110.758L87.7354 112.752H80.3665C80.3665 108.764 85.4373 101.137 82.7395 102.533C80.0418 103.928 76.7029 103.114 75.3706 102.533L78.1183 98.9183C75.9534 98.212 72.1233 96.7995 74.1216 96.7995C76.6196 96.7995 78.1183 95.8025 80.3664 94.5562C82.1649 93.5591 81.1158 89.4047 80.3664 87.4522L78.1182 83.5886C76.2864 85.3335 71.8235 88.8231 68.6261 88.8231C65.4288 88.8231 62.1315 84.1702 60.8825 81.8438H64.6294L60.8825 75.8615H66.1281C67.3271 75.8615 69.2922 72.8703 70.1248 71.3748C68.293 71.7071 62.1314 71.3748 62.1314 71.3748C62.1314 71.3748 57.8016 66.3895 58.1347 63.3983C59.8832 64.063 63.9299 65.2927 66.1281 64.8939C68.3262 64.4951 69.7084 62.0689 70.1247 60.9057H64.6293C63.3803 60.4903 60.8824 55.6712 60.8824 55.6712C60.8824 55.6712 67.0439 48.9411 70.1247 46.6978L70.1247 60.9057L74.1215 71.3748H70.1248C69.2922 72.8703 67.3271 75.8615 66.1281 75.8615H60.8825L64.6294 81.8438H60.8825C62.1315 84.1702 65.4288 88.8231 68.6261 88.8231C71.8235 88.8231 76.2864 85.3335 78.1182 83.5886L80.9908 80.8467L82.7394 81.8438L87.1108 83.5886Z" fill="#412020"/>
<path d="M155.179 69.7545L146.062 64.8939L147.561 62.7752C148.851 63.066 151.957 63.6227 154.055 63.523C156.154 63.4233 158.177 60.6565 158.926 59.2855L162.049 61.5289L155.179 69.7545Z" fill="#412020"/>
<path d="M125.188 75.8615L123.83 74.4905L114.088 72.3718H112.215L115.837 68.8821L128.416 71.3748M125.188 75.8615L134.072 84.8349L134.422 82.5391M125.188 75.8615L130.825 88.8231L131.724 91.8143M134.422 82.5391L134.946 79.1019L134.072 77.6063L132.198 78.4787L133.447 75.8615L133.447 72.3718L128.416 71.3748M134.422 82.5391L134.774 84.8349M82.7394 81.8438L86.1117 88.8231L89.359 100.788L90.1084 91.8143L90.1083 85.9566M82.7394 81.8438L87.1108 83.5886L90.1083 85.9566M82.7394 81.8438L80.9908 80.8467L78.1182 83.5886M90.1083 85.9566L90.7328 87.4522L92.7312 94.5562L96.3532 98.9183L96 121H104H91M61 121H91M90.1084 101.411L89.359 103.779L91.4823 106.147L90.7329 108.016C89.5256 108.806 87.2358 110.459 87.7354 110.758M87.7354 110.758C88.235 111.057 89.9419 112.96 90.733 113.874L91.4823 111.381L94.1052 115.743H90.733L89.3591 118.236L91 121M87.7354 110.758L87.7354 112.752H80.3665C80.3665 108.764 85.4373 101.137 82.7395 102.533C80.0418 103.928 76.7029 103.114 75.3706 102.533L78.1183 98.9183C75.9534 98.212 72.1233 96.7995 74.1216 96.7995C76.6196 96.7995 78.1183 95.8025 80.3664 94.5562C82.1649 93.5591 81.1158 89.4047 80.3664 87.4522L78.1182 83.5886M131.724 91.8143L134.946 102.533L140 122L140.567 108.764H138.069L139.318 107.456M131.724 91.8143L129.201 101.411L132.199 106.147L129 109L131 114L134 115L132 119L132 122H166.046L166.046 127H45M36 127H40.025M70.1247 60.9057H64.6293C63.3803 60.4903 60.8824 55.6712 60.8824 55.6712C60.8824 55.6712 67.0439 48.9411 70.1247 46.6978L70.1247 60.9057ZM70.1247 60.9057C69.7084 62.0689 68.3262 64.4951 66.1281 64.8939C63.9299 65.2927 59.8832 64.063 58.1347 63.3983C57.8016 66.3895 62.1314 71.3748 62.1314 71.3748C62.1314 71.3748 68.293 71.7071 70.1248 71.3748M70.1247 60.9057L74.1215 71.3748H70.1248M70.1248 71.3748C69.2922 72.8703 67.3271 75.8615 66.1281 75.8615C64.9291 75.8615 62.1314 75.8615 60.8825 75.8615L64.6294 81.8438H60.8825C62.1315 84.1702 65.4288 88.8231 68.6261 88.8231C71.8235 88.8231 76.2864 85.3335 78.1182 83.5886M139.318 107.456L140.567 106.147L136.82 104.776L139.567 101.411L142.065 96.7995L140.067 94.8054M139.318 107.456C140.733 107.31 144.064 106.571 146.062 104.776C148.06 102.981 148.685 96.7995 148.685 96.7995L142.065 88.8231C142.065 88.8231 140.983 91.4819 140.067 94.8054M140.067 94.8054L138.069 92.8113L136.07 88.0753L134.072 88.8231L134.946 85.9566L134.774 84.8349M128.416 71.3748L129.201 64.9151L142.065 68.8821C144.855 69.3391 148.685 68.0097 154.055 71.3748C159.426 74.7398 160.685 78.2392 160.925 83.5886C161.15 88.6194 157.469 93.5591 155.804 95.6779L152.307 92.8113C153.348 90.7341 155.379 85.9815 155.179 83.5886C154.93 80.5975 151.807 74.4905 143.689 75.1137C137.194 75.6122 136.903 81.8022 136.695 84.8349H134.774M40.025 127L40 122H45L45 127M40.025 127H45M146.062 64.8939L155.179 69.7545L162.049 61.5289L158.926 59.2855C158.177 60.6565 156.154 63.4233 154.055 63.523C151.957 63.6227 148.851 63.066 147.561 62.7752L146.062 64.8939Z" stroke="black" stroke-width="2"/>
<path d="M193 128H188M71.0002 127L71 132H175L175 128H180M75 132L75 127M79 132L79 127M83 132L83 127M87 132L87 127M91 132L91 127M95 132L95 127M99 132L99 127M103 132L103 127M107 132L107 127M113 132L113 127M180 128L176 124H192L188 128M180 128H188" stroke="black" stroke-width="2"/>
<path d="M167 115L167 105H165L165 101L174 101.068H179L179 105H177L177 115H181L181 112H186L186 115H181H177H172H167Z" fill="#6D6D6D"/>
<path d="M167 115L167 105H165L165 101L174 101.068M174 101.068L174 105H172L172 115M174 101.068H179L179 105H177L177 115M172 115H162M172 115H177M177 115H181M206.013 109H192L191.983 115H186M181 115L181 112H186L186 115M181 115H186M160 115H156" stroke="black" stroke-width="2"/>
<path d="M54.638 115.276L54.638 105.056H52.5147L52.5147 101.068H61.6322H66.1284L66.1285 105.056H64.1301L64.1302 115.276H59.8837H54.7629H54.638Z" fill="#6D6D6D"/>
<path d="M54.638 115.276L54.638 105.056H52.5147L52.5147 101.068H61.6322M61.6322 101.068L61.6322 105.056H59.8836L59.8837 115.276M61.6322 101.068H66.1284L66.1285 105.056H64.1301L64.1302 115.276M49.6422 115.276H54.7629H59.8837M64.1302 115.276H70.3126L70.3126 121.601M64.1302 115.276H59.8837" stroke="black" stroke-width="2"/>
<path d="M18 105H42L42 109H55M65 109H76L76 113H90M140 113H153L153 105H165M178.972 104.776H188.777L188.777 102.034H198.019" stroke="black" stroke-width="2"/>
<path d="M206.012 106.022L206.012 137H182L182 142H148.061L148.061 146H134.072L134.072 189H130.076L130.076 208.22M26 105L26 134H35L35 137H72L72 145H85L85 153" stroke="black" stroke-width="2"/>
<path d="M172.103 92.8113H168.668L166.982 91.378L166.982 88.8231L165.608 87.9506L166.982 86.8913L166.982 81.5321L166.045 79.8496H164.047" stroke="black" stroke-width="2"/>
<path d="M172.103 92.8113H175.538L177.224 91.378L177.224 88.8231L178.598 87.9506L177.224 86.8913L177.224 81.5321L178.16 79.8496H180.159" stroke="black" stroke-width="2"/>
<path d="M172.103 101.162L172.103 87.8883L172.103 79.8496H173.914H169.98" stroke="black" stroke-width="2"/>
<path d="M169.168 96.7996H175.101" stroke="black" stroke-width="2"/>
<path d="M58.9468 92.8113H55.5121L53.826 91.378L53.826 88.8231L52.4521 87.9506L53.826 86.8913L53.8259 81.5321L52.8892 79.8496H50.8909" stroke="black" stroke-width="2"/>
<path d="M58.9467 92.8113H62.3813L64.0674 91.378L64.0674 88.8231L65.4413 87.9506L64.0674 86.8913L64.0674 81.5321L65.0041 79.8496H67.0024" stroke="black" stroke-width="2"/>
<path d="M58.9468 101.162L58.9468 87.8883L58.9467 79.8496H60.7577H56.8235" stroke="black" stroke-width="2"/>
<path d="M56.0117 96.7996H61.9443" stroke="black" stroke-width="2"/>
<path d="M164.096 31.1187L164.096 35.4808H155.157L152.266 29H193.023L193.023 96.7994L186.94 92.1881L185.078 88.823L185.077 84.2117L187.56 83.09L187.56 78.8525H185.822L183.906 67.2618L178.036 66.2648L178.035 62.1519H172.786L172.786 56.9174L171.048 54.674L171.669 44.9528L164.096 31.1187Z" fill="#262626" stroke="white" stroke-width="2"/>
<path d="M21.0007 143L1.00073 143L1.00051 159L9.00039 167.5L1.00028 175L1.00005 191L11.0001 191L21.0001 191L21.0007 143Z" fill="#495A53"/>
<path d="M21.0007 143L1.00073 143L1.00051 159L9.00039 167.5L1.00028 175L1.00005 191L11.0001 191L21.0001 191L21.0007 143Z" fill="black" fill-opacity="0.2"/>
<path d="M21.0007 143L1.00073 143L1.00051 159L9.00039 167.5L1.00028 175L1.00005 191L11.0001 191L21.0001 191L21.0007 143Z" stroke="black" stroke-width="2"/>
<path d="M13.0001 151L21.0002 143L21.0001 151L13.0001 151Z" fill="black" fill-opacity="0.38" stroke="black" stroke-width="2" stroke-linejoin="bevel"/>
<path d="M205 143L225 143L225 159L217.001 167.5L225.001 175L225.001 191L215.001 191L205.001 191L205 143Z" fill="#495A53"/>
<path d="M205 143L225 143L225 159L217.001 167.5L225.001 175L225.001 191L215.001 191L205.001 191L205 143Z" fill="black" fill-opacity="0.2"/>
<path d="M205 143L225 143L225 159L217.001 167.5L225.001 175L225.001 191L215.001 191L205.001 191L205 143Z" stroke="black" stroke-width="2"/>
<path d="M213.002 151L205.002 143L205.002 151L213.002 151Z" fill="black" fill-opacity="0.38" stroke="black" stroke-width="2" stroke-linejoin="bevel"/>
<path d="M212.99 150.977L12.9905 150.977L12.9898 198.977L212.99 198.977L212.99 150.977Z" fill="#495A53" stroke="black" stroke-width="2"/>
<path d="M70.5977 184.452L72.7937 183.696L72.7939 166.56L70.5979 165.804L70.598 164.256L81.074 164.256C82.394 164.256 83.63 164.592 84.7819 165.264C85.9339 165.912 86.8699 167.004 87.5899 168.54C88.3099 170.076 88.6699 172.068 88.6698 174.516C88.6698 178.428 88.0097 181.32 86.6897 183.192C85.3697 185.064 83.4977 186 81.0737 186L70.5977 186L70.5977 184.452ZM81.3617 184.056C82.3457 184.056 83.1257 183.228 83.7017 181.572C84.2777 179.892 84.5658 177.624 84.5658 174.768C84.5658 173.208 84.4339 171.78 84.1699 170.484C83.9059 169.164 83.5339 168.12 83.0539 167.352C82.5739 166.56 82.0099 166.164 81.3619 166.164L76.7179 166.632L76.7177 183.516L81.3617 184.056ZM97.5645 186.36C96.4365 186.36 95.3925 186.072 94.4325 185.496C93.4965 184.92 92.7405 184.056 92.1645 182.904C91.6125 181.752 91.3365 180.348 91.3366 178.692C91.3366 177.516 91.4206 176.412 91.5886 175.38C91.7566 174.348 91.9726 173.58 92.2366 173.076C92.5007 172.716 93.0287 172.236 93.8207 171.636C94.6127 171.012 95.4047 170.472 96.1967 170.016C97.0127 169.56 97.5767 169.332 97.8887 169.332C99.2087 169.332 100.289 169.548 101.129 169.98C101.969 170.412 102.617 171.228 103.073 172.428C103.529 173.604 103.757 175.272 103.757 177.432L95.2606 178.152C95.2606 179.472 95.4285 180.528 95.7645 181.32C96.1245 182.112 96.5445 182.676 97.0245 183.012C97.5045 183.348 97.9605 183.516 98.3925 183.516L103.217 183.336L103.216 184.956C102.376 185.244 101.308 185.556 100.012 185.892C98.7165 186.204 97.9005 186.36 97.5645 186.36ZM99.9046 175.884C99.9046 173.052 99.1607 171.624 97.6727 171.6L97.3847 171.6C97.0007 171.6 96.6527 171.66 96.3407 171.78C96.0527 171.876 95.8127 172.404 95.6206 173.364C95.4286 174.3 95.3326 175.344 95.3326 176.496L99.9046 175.884ZM108.62 186.36C108.5 186.36 108.248 186.18 107.864 185.82C107.48 185.46 107.288 185.22 107.288 185.1L107.289 171.888L105.561 171.888L105.561 170.304L107.289 169.62L107.289 168.252C107.289 167.772 107.601 167.088 108.225 166.2C108.849 165.288 109.545 164.472 110.313 163.752C111.081 163.008 111.657 162.636 112.041 162.636C112.425 162.636 112.953 162.66 113.625 162.708C114.297 162.756 114.945 162.804 115.569 162.852C115.713 162.972 115.869 163.176 116.037 163.464C116.229 163.728 116.325 163.92 116.325 164.04C116.325 164.112 116.217 164.4 116.001 164.904C115.809 165.408 115.653 165.792 115.533 166.056C115.389 166.008 114.789 165.84 113.733 165.552C112.701 165.264 112.029 165.12 111.717 165.12C111.573 165.12 111.429 165.324 111.285 165.732C111.141 166.14 111.069 166.584 111.069 167.064L111.033 169.8L114.561 169.8L114.561 171.924L111.033 171.924L111.032 183.516L112.976 184.128L112.976 185.712C110.312 186.144 108.86 186.36 108.62 186.36ZM122.209 186.36C121.081 186.36 120.037 186.072 119.077 185.496C118.141 184.92 117.385 184.056 116.809 182.904C116.257 181.752 115.981 180.348 115.981 178.692C115.981 177.516 116.065 176.412 116.233 175.38C116.401 174.348 116.617 173.58 116.881 173.076C117.145 172.716 117.673 172.236 118.465 171.636C119.257 171.012 120.049 170.472 120.841 170.016C121.657 169.56 122.221 169.332 122.533 169.332C123.853 169.332 124.933 169.548 125.773 169.98C126.613 170.412 127.261 171.228 127.717 172.428C128.173 173.604 128.401 175.272 128.401 177.432L119.905 178.152C119.905 179.472 120.073 180.528 120.409 181.32C120.769 182.112 121.189 182.676 121.669 183.012C122.149 183.348 122.605 183.516 123.037 183.516L127.861 183.336L127.861 184.956C127.021 185.244 125.953 185.556 124.657 185.892C123.361 186.204 122.545 186.36 122.209 186.36ZM124.549 175.884C124.549 173.052 123.805 171.624 122.317 171.6L122.029 171.6C121.645 171.6 121.297 171.66 120.985 171.78C120.697 171.876 120.457 172.404 120.265 173.364C120.073 174.3 119.977 175.344 119.977 176.496L124.549 175.884Z" fill="black" fill-opacity="0.57"/>
<path d="M136.577 186.36C135.521 186.36 134.549 186.072 133.661 185.496C132.797 184.896 132.101 184.008 131.573 182.832C131.069 181.656 130.817 180.216 130.817 178.512C130.817 177.384 130.901 176.34 131.069 175.38C131.237 174.396 131.453 173.628 131.717 173.076C132.125 172.524 133.025 171.78 134.417 170.844C135.833 169.908 136.769 169.44 137.225 169.44C137.489 169.44 138.425 169.56 140.033 169.8C141.641 170.016 142.877 170.196 143.741 170.34L143.741 183.696L145.001 184.2L145.001 185.748C142.817 186.156 141.605 186.36 141.365 186.36C141.269 186.36 141.029 186.18 140.645 185.82C140.285 185.46 140.105 185.22 140.105 185.1L140.105 183.804C137.921 185.508 136.745 186.36 136.577 186.36ZM136.973 183.444C137.213 183.444 138.221 183 139.997 182.112L139.997 172.428C139.421 172.212 138.689 172.02 137.801 171.852C136.937 171.66 136.361 171.588 136.073 171.636C135.641 171.732 135.317 172.272 135.101 173.256C134.885 174.24 134.777 175.884 134.777 178.188C134.777 179.34 134.897 180.312 135.137 181.104C135.401 181.896 135.701 182.484 136.037 182.868C136.397 183.252 136.709 183.444 136.973 183.444ZM151.23 186.36C150.942 186.36 150.582 186.18 150.15 185.82C149.718 185.46 149.334 185.04 148.998 184.56C148.662 184.08 148.494 183.696 148.494 183.408L148.494 171.888L146.154 171.888L146.154 170.592L148.494 169.476L150.834 166.704C151.05 166.68 151.518 166.848 152.238 167.208L152.238 169.8L155.766 169.8L155.766 172.032L152.238 172.032L152.238 181.824C152.238 182.52 152.298 183 152.418 183.264C152.538 183.504 152.766 183.624 153.102 183.624L156.126 183.732L156.126 185.64C155.382 185.808 154.446 185.964 153.318 186.108C152.214 186.276 151.518 186.36 151.23 186.36Z" fill="black" fill-opacity="0.3"/>
</svg>
