<svg width="312" height="312" viewBox="0 0 312 312" fill="none" xmlns="http://www.w3.org/2000/svg">
<rect x="-2.50001" y="-2.5" width="157" height="177" transform="matrix(1 0 5.51922e-06 1 80.0003 75)" stroke="#DADADA" stroke-width="5"/>
<path d="M176 71H76.0002L76.0008 175.5" stroke="black" stroke-width="2"/>
<path d="M184 71H236L236 87" stroke="black" stroke-width="2"/>
<path d="M108.001 251H236.001L236.001 182.5" stroke="black" stroke-width="2"/>
<path d="M100.001 251H76.0012L76.0009 183" stroke="black" stroke-width="2"/>
<path d="M232.001 247L232 75H80.0003L80.0012 247" stroke="black" stroke-width="2"/>
<path d="M156.001 175L156.001 259" stroke="black" stroke-width="2"/>
<path d="M120.001 139H72.0006" stroke="black" stroke-width="2"/>
<path d="M240.001 139H192.001" stroke="black" stroke-width="2"/>
<path d="M240.001 135H224.001" stroke="black" stroke-width="2"/>
<path d="M240 87H224" stroke="black" stroke-width="2"/>
<path d="M184 81L184 65" stroke="black" stroke-width="2"/>
<path d="M176 81L176 65" stroke="black" stroke-width="2"/>
<path d="M72.0008 175L88.0008 175" stroke="black" stroke-width="2"/>
<path d="M72.0009 183L88.0009 183" stroke="black" stroke-width="2"/>
<path d="M100.001 239L100.001 255" stroke="black" stroke-width="2"/>
<path d="M108.001 239L108.001 255" stroke="black" stroke-width="2"/>
<path d="M240.001 183L224.001 183L224.001 135" stroke="black" stroke-width="2"/>
<path d="M88.0006 135H72.0006" stroke="black" stroke-width="2"/>
<path d="M241.001 236L76.0003 71" stroke="black" stroke-width="2"/>
<path d="M204 103L236 71" stroke="black" stroke-width="2"/>
<path d="M192.001 139C192.001 133.08 190.541 127.251 187.75 122.03C184.959 116.809 180.923 112.356 176.001 109.067C171.078 105.778 165.421 103.754 159.529 103.173C153.637 102.593 147.693 103.475 142.224 105.74C136.754 108.006 131.928 111.585 128.172 116.162C124.416 120.738 121.847 126.17 120.692 131.977C119.537 137.783 119.832 143.785 121.551 149.45C123.269 155.116 126.359 160.27 130.545 164.456L156.001 139H192.001Z" fill="white" stroke="black" stroke-width="2"/>
<path d="M112.001 139C112.001 146.236 113.785 153.36 117.196 159.741C120.607 166.123 125.539 171.565 131.556 175.585C137.572 179.605 144.487 182.079 151.688 182.788C158.889 183.497 166.154 182.42 172.839 179.651C179.524 176.882 185.423 172.507 190.013 166.913C194.604 161.32 197.744 154.681 199.155 147.584C200.567 140.487 200.206 133.152 198.106 126.227C196.005 119.303 192.23 113.004 187.113 107.887L156.001 139L112.001 139Z" fill="#DADADA" stroke="black" stroke-width="2"/>
<path d="M216.001 139C216.001 128.277 213.127 117.751 207.679 108.515C202.231 99.2794 194.407 91.6726 185.022 86.486C175.638 81.2994 165.034 78.7226 154.316 79.0236C143.597 79.3247 133.155 82.4926 124.076 88.1978C114.998 93.9029 107.613 101.937 102.692 111.464C97.7714 120.99 95.4933 131.662 96.0952 142.368C96.6971 153.073 100.157 163.422 106.115 172.338C112.073 181.253 120.311 188.408 129.972 193.06L156.001 139L216.001 139Z" stroke="black" stroke-width="2"/>
<circle cx="28" cy="28" r="28" transform="matrix(1 0 5.51922e-06 1 128 111)" fill="white" stroke="black" stroke-width="2"/>
<circle cx="6" cy="6" r="6" transform="matrix(1 0 5.51922e-06 1 150.001 133)" fill="#DADADA" stroke="black" stroke-width="2"/>
<path d="M156 103L156 111" stroke="black" stroke-width="2"/>
<path d="M156.001 167L156.001 183" stroke="black" stroke-width="2"/>
<path d="M156 67L156 79" stroke="black" stroke-width="2"/>
<path d="M128.001 139H120.001" stroke="black" stroke-width="2"/>
<path d="M64.0007 187L44.0007 187L44.0005 203L52.0003 211.5L44.0002 219L44 235L54 235L64 235L64.0007 187Z" fill="#6E7387"/>
<path d="M64.0007 187L44.0007 187L44.0005 203L52.0003 211.5L44.0002 219L44 235L54 235L64 235L64.0007 187Z" fill="black" fill-opacity="0.2"/>
<path d="M64.0007 187L44.0007 187L44.0005 203L52.0003 211.5L44.0002 219L44 235L54 235L64 235L64.0007 187Z" stroke="black" stroke-width="2"/>
<path d="M56.0001 195L64.0002 187L64.0001 195L56.0001 195Z" fill="black" fill-opacity="0.38" stroke="black" stroke-width="2" stroke-linejoin="bevel"/>
<path d="M248 187L268 187L268 203L260.001 211.5L268.001 219L268.001 235L258.001 235L248.001 235L248 187Z" fill="#6E7387"/>
<path d="M248 187L268 187L268 203L260.001 211.5L268.001 219L268.001 235L258.001 235L248.001 235L248 187Z" fill="black" fill-opacity="0.2"/>
<path d="M248 187L268 187L268 203L260.001 211.5L268.001 219L268.001 235L258.001 235L248.001 235L248 187Z" stroke="black" stroke-width="2"/>
<path d="M256.002 195L248.002 187L248.002 195L256.002 195Z" fill="black" fill-opacity="0.38" stroke="black" stroke-width="2" stroke-linejoin="bevel"/>
<path d="M255.99 194.977L55.9904 194.977L55.9898 242.977L255.99 242.977L255.99 194.977Z" fill="#6E7387" stroke="black" stroke-width="2"/>
<path d="M115.486 228.452L117.682 227.696L117.683 210.56L115.487 209.804L115.487 208.256L123.911 208.256L123.911 209.984L121.571 210.776L121.57 217.724L129.346 217.724L129.347 210.776L127.043 209.984L127.043 208.256L135.467 208.256L135.467 209.804L133.235 210.56L133.234 227.696L135.466 228.452L135.466 230L127.042 230L127.042 228.2L129.346 227.48L129.346 219.884L121.57 219.884L121.57 227.48L123.91 228.2L123.91 230L115.486 230L115.486 228.452ZM145.828 230.36C143.26 230.36 141.328 229.724 140.032 228.452C138.736 227.156 138.088 225.164 138.088 222.476C138.088 221.396 138.172 220.352 138.341 219.344C138.509 218.336 138.725 217.592 138.989 217.112C139.253 216.752 139.781 216.272 140.573 215.672C141.365 215.048 142.169 214.508 142.985 214.052C143.801 213.572 144.353 213.332 144.641 213.332C147.137 213.332 149.021 213.992 150.293 215.312C151.565 216.608 152.201 218.504 152.2 221C152.2 222.152 152.116 223.244 151.948 224.276C151.804 225.284 151.612 226.1 151.372 226.724C150.964 227.252 150.04 227.996 148.6 228.956C147.184 229.892 146.26 230.36 145.828 230.36ZM145.972 228.164C146.116 228.116 146.68 227.84 147.664 227.336C148.048 225.632 148.24 223.676 148.24 221.468C148.241 219.668 147.917 218.24 147.269 217.184C146.645 216.104 145.709 215.564 144.461 215.564C143.933 215.564 143.501 215.648 143.165 215.816C142.829 215.984 142.553 216.608 142.337 217.688C142.145 218.768 142.048 220.196 142.048 221.972C142.048 224.276 142.42 225.884 143.164 226.796C143.932 227.708 144.868 228.164 145.972 228.164ZM161.017 230.36C159.265 230.36 157.945 229.916 157.057 229.028C156.193 228.14 155.761 226.604 155.761 224.42L155.761 216.104L154.501 215.564L154.501 214.052C156.709 213.668 157.921 213.476 158.137 213.476C158.257 213.476 158.509 213.656 158.893 214.016C159.301 214.352 159.505 214.58 159.505 214.7L159.505 224.384C159.505 226.424 160.141 227.444 161.413 227.444C161.653 227.444 162.661 227.024 164.437 226.184L164.437 216.104L163.141 215.564L163.141 214.052C165.397 213.668 166.633 213.476 166.849 213.476C166.969 213.476 167.221 213.656 167.605 214.016C167.989 214.352 168.181 214.58 168.181 214.7L168.181 227.66L169.441 228.2L169.441 229.748C167.209 230.156 165.985 230.36 165.769 230.36C165.649 230.36 165.409 230.18 165.049 229.82C164.713 229.46 164.545 229.22 164.545 229.1L164.545 227.84C163.921 228.344 163.201 228.896 162.385 229.496C161.569 230.072 161.113 230.36 161.017 230.36ZM178.607 230.36C178.079 230.36 177.023 230.3 175.439 230.18C173.879 230.084 172.679 229.988 171.839 229.892L171.911 224.528L173.891 224.492L174.647 227.264C175.175 227.456 175.823 227.636 176.591 227.804C177.383 227.948 177.959 228.02 178.319 228.02C178.511 228.02 178.727 227.78 178.967 227.3C179.207 226.796 179.327 226.364 179.327 226.004C179.327 225.428 179.135 224.972 178.751 224.636C178.391 224.3 177.635 223.82 176.483 223.196C176.195 223.052 175.979 222.932 175.835 222.836C174.347 222.02 173.315 221.3 172.739 220.676C172.187 220.052 171.911 219.308 171.911 218.444C171.911 217.628 171.983 217.028 172.127 216.644C172.535 216.02 173.195 215.336 174.107 214.592C175.043 213.848 175.715 213.476 176.123 213.476C176.963 213.476 178.031 213.512 179.327 213.584C180.647 213.632 181.643 213.692 182.315 213.764L182.207 218.3L180.011 218.3L179.759 216.392C179.567 216.32 178.943 216.2 177.887 216.032C176.855 215.864 176.219 215.78 175.979 215.78C175.499 215.78 175.259 216.236 175.259 217.148C175.259 217.58 175.439 217.964 175.799 218.3C176.159 218.612 176.555 218.9 176.987 219.164C177.419 219.428 177.719 219.608 177.887 219.704L178.751 220.208C180.071 220.928 181.127 221.624 181.919 222.296C182.711 222.968 183.107 223.724 183.107 224.564C183.107 225.188 183.023 225.824 182.855 226.472C182.471 227.192 181.799 228.02 180.839 228.956C179.879 229.892 179.135 230.36 178.607 230.36ZM191.32 230.36C190.192 230.36 189.148 230.072 188.188 229.496C187.252 228.92 186.496 228.056 185.92 226.904C185.368 225.752 185.092 224.348 185.092 222.692C185.092 221.516 185.176 220.412 185.344 219.38C185.512 218.348 185.728 217.58 185.992 217.076C186.256 216.716 186.784 216.236 187.576 215.636C188.368 215.012 189.16 214.472 189.952 214.016C190.768 213.56 191.332 213.332 191.644 213.332C192.964 213.332 194.044 213.548 194.884 213.98C195.724 214.412 196.372 215.228 196.828 216.428C197.284 217.604 197.512 219.272 197.512 221.432L189.016 222.152C189.016 223.472 189.184 224.528 189.52 225.32C189.88 226.112 190.3 226.676 190.78 227.012C191.26 227.348 191.716 227.516 192.148 227.516L196.972 227.336L196.972 228.956C196.132 229.244 195.064 229.556 193.768 229.892C192.472 230.204 191.656 230.36 191.32 230.36ZM193.66 219.884C193.66 217.052 192.916 215.624 191.428 215.6L191.14 215.6C190.756 215.6 190.408 215.66 190.096 215.78C189.808 215.876 189.568 216.404 189.376 217.364C189.184 218.3 189.088 219.344 189.088 220.496L193.66 219.884Z" fill="black" fill-opacity="0.6"/>
</svg>
