<svg width="312" height="312" viewBox="0 0 312 312" fill="none" xmlns="http://www.w3.org/2000/svg">
<path d="M76.1252 71.0002H236L236.001 118.25L171.694 141.5L171.694 106.5C171.694 106.5 168.428 79.0002 141.949 79.0002C115.47 79.0002 110.834 106.5 110.834 106.5L76.1256 143.851L76.1252 71.0002Z" fill="url(#paint0_linear_3653_100595)"/>
<path d="M175.922 71L206.398 71L206.398 80.5L208.884 80.5C217.996 80.5 225.384 87.8873 225.384 97V97L235.875 97" stroke="black" stroke-width="2"/>
<path d="M229.762 179.875L229.762 181.75L233.616 179.75H235.876L235.876 219H76.001L76.0009 185.375L78.6179 186.25L77.1904 183L80.5211 185.375L80.5211 183.875L83.6139 183L101.98 175C101.98 175 91.9551 174.596 85.993 172.5C81.8767 171.053 76.0008 167.5 76.0008 167.5L76.0007 161L93.4871 160C93.4871 160 107.005 167.775 116.969 172C146.446 184.5 160.435 164 222.386 182.5L226.55 178.5L225.717 181.75L229.762 179.875Z" fill="#475F38" stroke="black" stroke-width="2"/>
<path d="M188.038 159L190.411 156.5H225.884L228.382 160L229.381 154.5L236.001 148.375L236 111L238.873 103L233.877 106L231.379 103L229.381 108H226.383L228.881 112.5L226.508 111L208.397 121.5L205.899 120L204.9 123.5H201.403L200.403 127.5L196.906 127L197.031 131H193.159L192.909 134.5L189.412 150.5L186.914 153.5C186.914 153.5 183.916 151.1 183.417 150.5L182.418 155L178.92 156L180.044 159.75L180.044 161.375L182.418 159.75L184.916 164L188.038 159Z" fill="#73995B" stroke="black" stroke-width="2"/>
<path d="M104.291 138.563L101.731 139L76.0006 143.688L76.0008 168L84.9937 164.5L92.4879 165L105.415 147L102.168 146.563H101.293L102.168 145.438L102.168 143.875L102.792 140.938L104.291 138.563Z" fill="#73995B" stroke="black" stroke-width="2"/>
<path d="M204.899 193.613L219.846 194.68C220.397 194.72 220.876 194.304 220.915 193.753L229.347 73.2687C229.388 72.6903 228.93 72.1988 228.35 72.1988L213.553 72.1988C213.028 72.1988 212.593 72.604 212.555 73.1271L203.973 192.544C203.933 193.095 204.348 193.574 204.899 193.613Z" fill="white" stroke="black" stroke-width="2"/>
<path d="M230.391 71.0174L211.394 71.0012L212.388 75.5002L229.38 76.0002L230.391 71.0174Z" fill="#D9D9D9" stroke="black" stroke-width="2"/>
<path d="M158.997 135.617L159.507 140.198L163.932 140.198L163.932 133.867C161.986 133.867 159.927 132.01 159.927 132.01L158.997 135.617Z" fill="#C4C4C4" stroke="black" stroke-width="2"/>
<path d="M110.599 192.5H93.6121L93.6118 139.688L93.6118 128.75L94.3612 127.25L93.6117 125L93.6117 113.281L93.6117 109.317C93.6116 94.9472 99.317 81.1653 109.474 71.0002H122.651L119.591 76.7502H122.651L122.651 82.9377C114.934 90.6616 110.598 101.134 110.598 112.053L110.599 192.5Z" fill="#C4C4C4" stroke="black" stroke-width="2"/>
<path d="M118.593 192.5H101.606L101.606 168.625L102.855 161H101.606L101.606 139.688L101.605 109.317C101.605 94.9472 107.311 81.1653 117.468 71.0002H130.645L127.585 76.7502H130.645L130.645 82.9377C122.927 90.6616 118.592 101.134 118.592 112.053L118.592 119.375L118.592 129.875L116.219 131.625H118.592L118.592 143.75L118.593 192.5Z" fill="#C4C4C4" stroke="black" stroke-width="2"/>
<path d="M119.966 179.875H99.9821L99.1078 183H120.716L119.966 179.875Z" fill="#C4C4C4" stroke="black" stroke-width="2"/>
<path d="M90.7394 179.875H99.9822L99.1079 183H91.4888L90.7394 179.875Z" fill="#C4C4C4" stroke="black" stroke-width="2"/>
<path d="M119.966 183H99.9821L99.1078 192.5H120.716L119.966 183Z" fill="#C4C4C4" stroke="black" stroke-width="2"/>
<path d="M158.717 114.5H144.353L146.445 120.656H157.655C158.88 117.856 158.873 115.386 158.717 114.5Z" fill="#203F63" stroke="black" stroke-width="2"/>
<path d="M155.126 118.313C154.976 117.963 155.397 115.417 155.626 114.188H150.692L150.692 118.313H155.126Z" fill="#EEE5C6" stroke="black" stroke-width="2"/>
<path d="M138.952 188.5L142.73 184.187L141.906 175.13L147.57 177.625L147.445 179.5L146.851 184.562L146.945 186L138.952 188.5Z" fill="#3768A2" stroke="black" stroke-width="2"/>
<path d="M228.881 123H222.886L224.634 125.5L219.951 126.883L219.888 130" stroke="black" stroke-width="2"/>
<path d="M167.055 161.625C166.555 158.625 162.433 146.875 160.435 141.375L159.435 140.5L158.436 129L144.447 128L154.564 175.75H160.435C162.683 175.8 166.826 174.979 168.616 174.563C168.304 171.5 167.554 164.625 167.055 161.625Z" fill="#C4C4C4" stroke="black" stroke-width="2"/>
<path d="M148.506 115L147.513 115.113L147.523 115.202L147.548 115.287L148.506 115ZM148.506 115C147.548 115.287 147.548 115.288 147.549 115.288L147.549 115.288L147.549 115.289L147.55 115.291L147.552 115.299L147.56 115.326C147.568 115.35 147.578 115.383 147.591 115.424C147.617 115.507 147.655 115.624 147.703 115.764C147.798 116.041 147.935 116.418 148.098 116.8C148.257 117.172 148.46 117.593 148.695 117.937C148.811 118.108 148.963 118.3 149.152 118.458C149.334 118.61 149.647 118.813 150.068 118.813C152.474 118.813 154.076 116.93 154.99 115.425C155.468 114.637 155.818 113.856 156.047 113.276C156.086 113.179 156.121 113.086 156.153 113H156.438H157.575L157.429 111.872C157.298 110.853 156.965 109.167 156.306 107.706C155.686 106.332 154.554 104.688 152.628 104.688C151.072 104.688 149.811 105.314 148.89 106.058C147.979 106.794 147.356 107.678 147.046 108.311L146.936 108.535L146.945 108.784C146.977 109.739 147.121 111.333 147.254 112.662C147.32 113.332 147.385 113.944 147.433 114.389C147.457 114.611 147.477 114.792 147.491 114.917L147.507 115.062L147.511 115.099L147.512 115.109L147.513 115.112L147.513 115.112L147.513 115.113L148.506 115Z" fill="#EEE5C6" stroke="black" stroke-width="2"/>
<path d="M134.268 172.563C140.476 175.976 151.879 178.938 159.623 176.813C161.212 163.122 161.258 150.985 158.998 137.313C154.524 135.591 149.022 136.668 144.385 137.313C140.563 149.058 136.52 160.421 134.268 172.563Z" fill="url(#paint1_linear_3653_100595)" stroke="black" stroke-width="2"/>
<path d="M163.058 131C162.808 130.2 161.58 128.334 160.997 127.5C160.893 127.792 160.622 128.488 160.372 128.938C160.122 129.388 159.186 129.709 158.748 129.813L158.748 136.438C158.915 136.5 159.385 136.588 159.935 136.438C160.485 136.288 162.454 134.334 163.37 133.375C163.37 132.917 163.307 131.8 163.058 131Z" fill="#3768A2" stroke="black" stroke-width="2"/>
<path d="M144.469 128.398L139.781 129.344L138.652 141.299L144.95 141.895C145.447 136.638 147.819 131.25 147.819 131.25L144.469 128.398Z" fill="#C4C4C4" stroke="black" stroke-width="2"/>
<path d="M171.926 132.625L163.37 133.188L162.365 136.277L163.37 140.625L171.926 137.188L171.926 134.906L171.926 132.625Z" fill="#C4C4C4" stroke="black" stroke-width="2"/>
<path d="M145.946 119C147.32 119.167 150.442 120.088 151.941 122.438C153.44 124.788 154.981 128.292 155.563 129.75" stroke="black" stroke-width="2"/>
<path d="M135.704 166.063L137.203 170L140.763 167.938L143.073 171.875L146.883 169.25L149.693 173.125L153.565 170L156.313 173.813L160.31 170.375" stroke="black" stroke-width="2"/>
<path d="M155.492 139.755L156.057 138.66L157.068 139.522L157.406 141.809L156.696 142.988L155.83 142.042L155.492 139.755Z" stroke="black" stroke-width="2"/>
<path d="M150.695 140.522L151.24 139.418L152.266 140.261L152.645 142.542L151.957 143.734L151.074 142.803L150.695 140.522Z" stroke="black" stroke-width="2"/>
<path d="M159.435 140.438C159.435 140.438 151.754 140.875 145.134 143.5" stroke="black" stroke-width="2"/>
<path d="M145.773 142.01L146.262 140.879L147.329 141.67L147.821 143.93L147.193 145.154L146.266 144.269L145.773 142.01Z" stroke="black" stroke-width="2"/>
<path d="M142.074 135.112L138.639 136.487L138.639 139.612L138.639 148.424H143.386C143.385 143.174 146.258 138.799 146.258 138.799L142.074 135.112Z" fill="#C4C4C4"/>
<path d="M138.639 139.612L141.325 138.174L144.871 141.253M138.639 136.487L142.074 135.112L146.258 138.799C146.258 138.799 143.385 143.174 143.386 148.424C141.325 148.424 140.45 148.424 138.639 148.424L138.639 136.487Z" stroke="black" stroke-width="2"/>
<path d="M138.193 149.928L138.685 146.563L143.174 145.6L144.298 149.514L142.24 154.365C142.053 154.384 141.319 153.796 141.319 153.796C141.319 153.796 141.337 151.576 141.442 150.638L140.534 152.558C139.805 152.011 138.193 149.928 138.193 149.928Z" fill="#C4C4C4" stroke="black" stroke-width="2"/>
<path d="M138.202 131.688C138.327 126.688 144.135 118.688 146.258 118.688C145.613 118.688 144.839 118.755 144.839 118.755L143.947 114.5C147.355 114.5 150.919 115.536 153.315 118.063C153.544 117.938 154.089 117.7 154.439 117.75C157.932 118.25 160.809 128.125 160.809 128.125C157.437 130 153.44 130.5 150.442 130L150.572 127.668C150.385 129.706 149.909 132.85 148.694 135.625C142.324 135.625 144.322 129.875 144.322 129.875C144.322 129.875 141.824 134.813 138.202 131.688Z" fill="#3768A2"/>
<path d="M150.442 105.938C150.442 108.063 154.439 107.5 153.94 110.5C154.939 108 161.815 108.563 164.501 108.563C164.501 108.563 158.748 104.875 156.344 105.938C158.99 102.547 153.054 101.09 150.692 100C148.275 101.641 144.43 102.686 146.258 105.938C144.259 105.313 139.326 107.375 138.202 108.563C141.262 108.563 145.946 109.438 147.445 110.5C147.445 108 150.442 108.063 150.442 105.938Z" fill="#3768A2"/>
<path d="M138.202 131.688L137.202 131.663L137.19 132.136L137.549 132.445L138.202 131.688ZM144.322 129.875L145.267 130.203L143.43 129.424L144.322 129.875ZM148.694 135.625L148.694 136.625H149.347L149.61 136.026L148.694 135.625ZM150.692 125.5L151.692 125.5L149.693 125.445L150.692 125.5ZM150.442 130L149.444 129.945L149.394 130.839L150.278 130.987L150.442 130ZM154.439 117.75L154.58 116.76H154.58L154.439 117.75ZM153.315 118.063L152.589 118.751L153.118 119.309L153.794 118.94L153.315 118.063ZM143.947 114.5L143.947 113.5L142.716 113.5L142.969 114.705L143.947 114.5ZM144.839 118.755L143.86 118.96L144.042 119.828L144.926 119.751L144.839 118.755ZM153.94 110.5L152.953 110.336L154.868 110.871L153.94 110.5ZM147.445 110.5L146.866 111.316L148.445 110.5H147.445ZM156.344 105.938L155.555 105.322L156.748 106.852L156.344 105.938ZM164.501 108.563L164.501 109.563L165.04 107.721L164.501 108.563ZM138.202 108.563L137.476 107.875L138.202 109.563L138.202 108.563ZM146.258 105.938L145.959 106.892L147.13 105.448L146.258 105.938ZM160.809 128.125L161.295 128.999L161.992 128.611L161.769 127.845L160.809 128.125ZM150.692 100L151.111 99.0922L150.598 98.8555L150.13 99.1729L150.692 100ZM146.258 117.688C145.71 117.688 145.192 117.932 144.774 118.195C144.331 118.474 143.874 118.858 143.421 119.302C142.513 120.191 141.541 121.407 140.646 122.762C138.884 125.431 137.272 128.875 137.202 131.663L139.202 131.713C139.257 129.5 140.611 126.444 142.315 123.864C143.153 122.594 144.039 121.496 144.821 120.73C145.213 120.346 145.559 120.065 145.841 119.887C146.147 119.694 146.275 119.688 146.258 119.688L146.258 117.688ZM137.549 132.445C138.603 133.354 139.674 133.755 140.718 133.722C141.741 133.69 142.593 133.245 143.237 132.741C143.88 132.237 144.371 131.632 144.694 131.173C144.857 130.939 144.984 130.735 145.071 130.586C145.114 130.511 145.148 130.45 145.172 130.406C145.184 130.384 145.194 130.366 145.201 130.353C145.204 130.346 145.207 130.34 145.21 130.336C145.211 130.334 145.212 130.332 145.212 130.33C145.213 130.33 145.213 130.329 145.214 130.328C145.214 130.328 145.214 130.328 145.214 130.327C145.214 130.327 145.214 130.327 144.322 129.875C143.43 129.424 143.43 129.423 143.43 129.423C143.43 129.423 143.43 129.423 143.43 129.422C143.431 129.422 143.431 129.422 143.431 129.422C143.431 129.421 143.431 129.421 143.431 129.421C143.431 129.422 143.43 129.423 143.429 129.426C143.426 129.431 143.421 129.44 143.414 129.453C143.399 129.48 143.376 129.522 143.344 129.576C143.281 129.686 143.184 129.842 143.057 130.023C142.798 130.391 142.438 130.826 142.004 131.166C141.57 131.505 141.118 131.709 140.655 131.723C140.211 131.737 139.612 131.583 138.855 130.93L137.549 132.445ZM149.61 136.026C150.888 133.107 151.377 129.838 151.568 127.759L149.576 127.577C149.393 129.574 148.93 132.594 147.778 135.224L149.61 136.026ZM151.568 127.759C151.629 127.083 151.66 126.524 151.676 126.131C151.684 125.935 151.688 125.78 151.69 125.673C151.691 125.619 151.691 125.578 151.692 125.549C151.692 125.534 151.692 125.523 151.692 125.515C151.692 125.511 151.692 125.507 151.692 125.505C151.692 125.504 151.692 125.503 151.692 125.502C151.692 125.502 151.692 125.501 151.692 125.501C151.692 125.501 151.692 125.501 151.692 125.501C151.692 125.5 151.692 125.5 151.692 125.5C151.692 125.5 151.692 125.5 150.692 125.5C149.692 125.5 149.692 125.5 149.692 125.5C149.692 125.5 149.692 125.5 149.692 125.5C149.692 125.5 149.692 125.5 149.692 125.5C149.692 125.5 149.692 125.5 149.692 125.5C149.692 125.5 149.692 125.5 149.692 125.501C149.692 125.501 149.692 125.503 149.692 125.506C149.692 125.511 149.692 125.519 149.692 125.53C149.691 125.553 149.691 125.589 149.69 125.636C149.688 125.73 149.685 125.87 149.678 126.052C149.663 126.415 149.634 126.939 149.576 127.577L151.568 127.759ZM149.693 125.445L149.573 127.612L151.57 127.723L151.69 125.556L149.693 125.445ZM149.573 127.612L149.444 129.945L151.441 130.056L151.57 127.723L149.573 127.612ZM154.58 116.76C154.167 116.701 153.759 116.812 153.519 116.891C153.246 116.981 152.997 117.097 152.836 117.185L153.794 118.94C153.862 118.903 154 118.838 154.144 118.791C154.215 118.767 154.272 118.753 154.311 118.747C154.356 118.739 154.346 118.747 154.297 118.74L154.58 116.76ZM142.969 114.705L143.86 118.96L145.818 118.55L144.926 114.295L142.969 114.705ZM144.839 118.755C144.926 119.751 144.926 119.751 144.926 119.751C144.926 119.751 144.926 119.751 144.926 119.751C144.926 119.751 144.925 119.751 144.925 119.751C144.925 119.751 144.926 119.751 144.926 119.751C144.926 119.751 144.926 119.751 144.927 119.751C144.928 119.751 144.93 119.751 144.932 119.751C144.937 119.75 144.945 119.75 144.955 119.749C144.976 119.747 145.007 119.745 145.046 119.742C145.125 119.736 145.237 119.728 145.368 119.719C145.633 119.703 145.965 119.688 146.258 119.688L146.258 117.688C145.905 117.688 145.528 117.706 145.245 117.723C145.102 117.732 144.98 117.741 144.894 117.747C144.85 117.751 144.816 117.754 144.791 117.756C144.779 117.757 144.77 117.757 144.763 117.758C144.76 117.758 144.757 117.758 144.755 117.759C144.754 117.759 144.754 117.759 144.753 117.759C144.753 117.759 144.753 117.759 144.752 117.759C144.752 117.759 144.752 117.759 144.752 117.759C144.752 117.759 144.752 117.759 144.752 117.759C144.752 117.759 144.752 117.759 144.839 118.755ZM154.926 110.665C155.091 109.676 154.89 108.864 154.401 108.217C153.954 107.626 153.326 107.263 152.849 107.009C152.298 106.714 151.955 106.561 151.683 106.344C151.479 106.181 151.442 106.08 151.442 105.938H149.442C149.442 106.858 149.905 107.484 150.435 107.907C150.897 108.276 151.522 108.567 151.907 108.773C152.367 109.018 152.645 109.21 152.806 109.424C152.926 109.582 153.038 109.824 152.953 110.336L154.926 110.665ZM149.442 105.938C149.442 106.418 149.191 106.642 148.343 107.279C147.586 107.847 146.445 108.722 146.445 110.5H148.445C148.445 109.779 148.802 109.435 149.544 108.878C150.195 108.389 151.442 107.583 151.442 105.938H149.442ZM144.322 129.875C143.377 129.547 143.377 129.547 143.377 129.548C143.377 129.548 143.377 129.549 143.377 129.549C143.376 129.55 143.376 129.551 143.376 129.552C143.375 129.554 143.374 129.556 143.373 129.559C143.372 129.564 143.369 129.571 143.367 129.579C143.361 129.595 143.354 129.616 143.346 129.643C143.33 129.697 143.308 129.771 143.283 129.863C143.234 130.047 143.173 130.305 143.122 130.613C143.024 131.219 142.958 132.071 143.14 132.952C143.325 133.849 143.775 134.805 144.718 135.522C145.651 136.233 146.957 136.625 148.694 136.625L148.694 134.625C147.246 134.625 146.412 134.299 145.929 133.931C145.455 133.57 145.21 133.088 145.099 132.548C144.984 131.992 145.02 131.406 145.096 130.934C145.134 130.704 145.179 130.512 145.214 130.381C145.232 130.316 145.247 130.267 145.256 130.236C145.261 130.221 145.264 130.21 145.266 130.205C145.267 130.202 145.268 130.2 145.268 130.2C145.268 130.2 145.268 130.2 145.268 130.201C145.267 130.201 145.267 130.201 145.267 130.202C145.267 130.202 145.267 130.202 145.267 130.203C145.267 130.203 145.267 130.203 144.322 129.875ZM156.748 106.852C157.048 106.72 157.595 106.692 158.414 106.876C159.197 107.051 160.072 107.382 160.911 107.762C161.743 108.14 162.509 108.553 163.069 108.872C163.348 109.031 163.573 109.166 163.728 109.26C163.806 109.307 163.865 109.344 163.905 109.369C163.925 109.382 163.939 109.391 163.949 109.397C163.954 109.4 163.957 109.402 163.959 109.403C163.96 109.404 163.961 109.404 163.961 109.405C163.961 109.405 163.961 109.405 163.961 109.405C163.961 109.405 163.961 109.405 163.961 109.405C163.961 109.405 163.961 109.405 164.501 108.563C165.04 107.721 165.04 107.721 165.04 107.721C165.04 107.721 165.04 107.72 165.04 107.72C165.039 107.72 165.039 107.72 165.038 107.72C165.037 107.719 165.036 107.718 165.034 107.717C165.03 107.715 165.026 107.711 165.019 107.708C165.007 107.7 164.989 107.688 164.966 107.674C164.92 107.645 164.854 107.604 164.769 107.553C164.6 107.449 164.358 107.305 164.06 107.135C163.466 106.796 162.643 106.352 161.737 105.941C160.837 105.533 159.823 105.141 158.851 104.924C157.915 104.714 156.841 104.625 155.939 105.023L156.748 106.852ZM148.023 109.684C147.527 109.333 146.841 109.042 146.113 108.8C145.367 108.553 144.505 108.334 143.607 108.153C141.815 107.791 139.811 107.563 138.202 107.563L138.202 109.563C139.652 109.563 141.521 109.772 143.211 110.113C144.053 110.283 144.834 110.483 145.484 110.698C146.151 110.92 146.613 111.137 146.866 111.316L148.023 109.684ZM138.928 109.25C139.095 109.074 139.497 108.783 140.127 108.444C140.732 108.119 141.472 107.789 142.241 107.511C143.013 107.233 143.791 107.016 144.475 106.904C145.187 106.788 145.684 106.806 145.959 106.892L146.556 104.983C145.833 104.757 144.964 104.798 144.153 104.93C143.315 105.067 142.414 105.322 141.562 105.63C140.708 105.938 139.879 106.307 139.18 106.683C138.507 107.045 137.871 107.458 137.476 107.875L138.928 109.25ZM160.809 128.125C161.769 127.845 161.769 127.845 161.769 127.845C161.769 127.845 161.769 127.845 161.769 127.844C161.769 127.844 161.768 127.843 161.768 127.843C161.768 127.841 161.767 127.839 161.766 127.836C161.765 127.83 161.762 127.822 161.759 127.812C161.753 127.792 161.744 127.763 161.733 127.725C161.71 127.649 161.676 127.538 161.632 127.399C161.544 127.12 161.415 126.723 161.25 126.246C160.919 125.294 160.439 124.013 159.844 122.71C159.252 121.414 158.529 120.057 157.703 118.975C156.909 117.936 155.865 116.944 154.58 116.76L154.297 118.74C154.76 118.806 155.385 119.236 156.113 120.189C156.809 121.1 157.46 122.304 158.024 123.54C158.585 124.768 159.042 125.987 159.36 126.902C159.519 127.359 159.642 127.737 159.725 128.001C159.766 128.132 159.798 128.235 159.819 128.304C159.829 128.338 159.837 128.364 159.842 128.381C159.844 128.39 159.846 128.396 159.847 128.4C159.848 128.402 159.848 128.403 159.849 128.404C159.849 128.405 159.849 128.405 159.849 128.405C159.849 128.405 159.849 128.405 159.849 128.405C159.849 128.405 159.849 128.405 160.809 128.125ZM150.273 100.908C150.89 101.193 151.777 101.518 152.569 101.838C153.406 102.177 154.215 102.539 154.858 102.949C155.524 103.374 155.857 103.755 155.966 104.064C156.042 104.281 156.076 104.656 155.555 105.322L157.132 106.553C157.935 105.524 158.219 104.446 157.853 103.402C157.519 102.45 156.716 101.762 155.934 101.263C155.128 100.749 154.176 100.331 153.319 99.9839C152.416 99.6186 151.675 99.3524 151.111 99.0922L150.273 100.908ZM147.13 105.448C146.759 104.788 146.746 104.374 146.811 104.105C146.882 103.814 147.092 103.497 147.528 103.129C147.966 102.76 148.541 102.414 149.214 102.033C149.858 101.67 150.605 101.268 151.253 100.828L150.13 99.1729C149.57 99.5529 148.931 99.8966 148.231 100.292C147.561 100.671 146.835 101.097 146.238 101.601C145.639 102.106 145.08 102.763 144.868 103.633C144.651 104.526 144.843 105.462 145.386 106.428L147.13 105.448ZM164.501 107.563C163.248 107.563 160.738 107.421 158.509 107.597C157.385 107.686 156.245 107.859 155.294 108.202C154.366 108.537 153.419 109.109 153.011 110.129L154.868 110.871C154.96 110.642 155.247 110.346 155.973 110.083C156.677 109.829 157.611 109.674 158.666 109.591C160.797 109.423 163.067 109.563 164.501 109.563L164.501 107.563ZM154.041 117.375C151.397 114.586 147.529 113.5 143.947 113.5L143.947 115.5C147.181 115.5 150.442 116.486 152.589 118.751L154.041 117.375ZM150.278 130.987C153.489 131.522 157.716 130.989 161.295 128.999L160.323 127.251C157.158 129.011 153.391 129.478 150.607 129.014L150.278 130.987Z" fill="black"/>
<path d="M93.6744 157.581L94.9235 156.331H100.482L101.606 157.581L103.042 156.331H117.156L118.717 157.581" stroke="black" stroke-width="2"/>
<path d="M93.6744 155L94.9235 156.25H100.482L101.606 155L103.042 156.25H117.156L118.717 155" stroke="black" stroke-width="2"/>
<path d="M93.6743 144.161L94.9233 142.911H100.481L101.606 144.161L103.042 142.911H117.156L118.717 144.161" stroke="black" stroke-width="2"/>
<path d="M93.6743 141.58L94.9233 142.83H100.481L101.606 141.58L103.042 142.83H117.156L118.717 141.58" stroke="black" stroke-width="2"/>
<path d="M93.6742 130.742L94.9232 129.492H100.481L101.606 130.742L103.042 129.492H117.156L118.717 130.742" stroke="black" stroke-width="2"/>
<path d="M93.6742 128.242L94.9232 129.492H100.481L101.605 128.242L103.042 129.492H117.156L118.717 128.242" stroke="black" stroke-width="2"/>
<path d="M93.6742 117.323L94.9232 116.073H100.481L101.606 117.323L103.042 116.073H117.156L118.717 117.323" stroke="black" stroke-width="2"/>
<path d="M93.6742 114.823L94.9232 116.073H100.481L101.605 114.823L103.042 116.073H117.156L118.717 114.823" stroke="black" stroke-width="2"/>
<path d="M177.921 130H176.922L176.922 129H172.925L169.802 132.5L169.802 135.5L171.926 137H174.923L177.921 133L177.921 130Z" fill="#C4C4C4" stroke="black" stroke-width="2"/>
<path d="M214.392 94.0002L215.392 98.5002L213.393 100.5L214.392 104M210.395 107.5L214.392 104M214.392 104L215.392 107L220.388 102.5L223.385 105" stroke="black" stroke-width="2"/>
<path d="M176.141 71.0003L76.1252 71.0002L76.1255 115" stroke="black" stroke-width="2"/>
<path d="M235.876 187L235.876 176.5L234.627 175H231.879L231.879 173L235.876 172.25L235.876 168.5H232.379L235.876 165.75L235.876 159" stroke="black" stroke-width="2"/>
<path d="M79.4982 176L76.1259 183.844L76.1263 251.004L236.001 250.984L235.922 189.375L237.875 185.5L222.886 186.5L224.385 182.5L215.466 185L215.466 182.5L177.921 181.5L177.169 173L175.029 177.5L172.531 174.125L171.926 178L138.278 188.375L134.948 191L131.957 186.5L131.261 189.375L128.407 188.375L125.553 184.375L125.462 188.5L114.971 193L116.989 189.375C116.989 189.375 106.242 190.531 99.4827 189.5C92.5901 188.448 82.4959 184 82.4959 184L85.4936 179.5L80.4975 181.5L79.4982 176Z" fill="#73995B" stroke="black" stroke-width="2"/>
<path d="M127.336 192.625H123.963L124.963 195H121.965L121.965 196.5" stroke="black" stroke-width="2"/>
<path d="M104.59 199.214H108.307L110.974 201.5L114.018 199.94L108.307 196.22L108.307 192.5L111.933 193.77L113.021 196.946M91.5355 194.224L93.0767 196.22L90.357 196.946L90.357 199.214L93.0767 199.94L86.5495 201.119L87.2747 198.579L82.9233 195.766L82.9233 199.214L82.0168 201.119" stroke="black" stroke-width="2"/>
<path d="M161.698 183.063L162.479 177.5L155.985 177.5L157.858 183.063L156.983 188.5L160.481 190L162.854 187L161.698 183.063Z" fill="#3768A2" stroke="black" stroke-width="2"/>
<path d="M190.506 193.031H205.609C206.114 193.031 206.539 192.656 206.602 192.155L214.503 128.624C214.577 128.027 214.111 127.5 213.51 127.5H206.716C206.569 127.5 206.423 127.533 206.29 127.596L190.08 135.23C189.729 135.395 189.506 135.747 189.506 136.135L189.506 192.031C189.506 192.584 189.954 193.031 190.506 193.031Z" fill="#C4C4C4" stroke="black" stroke-width="2"/>
<path d="M198.5 193.031H214.486L214.486 129.077C214.486 128.343 213.723 127.859 213.06 128.172L198.073 135.23C197.723 135.395 197.499 135.747 197.499 136.135L197.5 192.031C197.5 192.584 197.947 193.031 198.5 193.031Z" fill="#C4C4C4"/>
<path d="M214.486 193.031H198.5C197.947 193.031 197.5 192.584 197.5 192.031L197.499 136.135C197.499 135.747 197.723 135.395 198.073 135.23L213.06 128.172C213.723 127.859 214.486 128.343 214.486 129.077L214.486 193.031ZM214.486 193.031H220.388L220.388 195H226.883" stroke="black" stroke-width="2"/>
<path d="M189.443 144.161L190.692 142.911H196.25L197.375 144.161L198.811 142.911H212.925L214.486 144.161" stroke="black" stroke-width="2"/>
<path d="M189.443 141.58L190.692 142.83H196.25L197.375 141.58L198.811 142.83H212.925L214.486 141.58" stroke="black" stroke-width="2"/>
<path d="M189.443 157.581L190.692 156.331H196.25L197.375 157.581L198.811 156.331H212.925L214.486 157.581" stroke="black" stroke-width="2"/>
<path d="M189.443 155L190.692 156.25H196.25L197.375 155L198.811 156.25H212.925L214.486 155" stroke="black" stroke-width="2"/>
<path d="M159.935 199L158.437 201.25L177.672 225.125L209.397 207.5L225.384 206L207.898 195.75L207.898 191.875L210.396 190L210.895 186.75L204.9 190L203.901 187L201.403 189.5L201.403 185L197.406 189.5L189.912 187.875L190.661 185.5L187.289 187.875L186.664 186.75L185.665 188.625L185.665 190.25L182.168 195.75L183.917 185.5C178.996 195.81 166.181 202.189 166.181 203C166.181 203.8 164.682 200.667 163.932 199L163.058 199.75L159.935 199Z" fill="#475F38"/>
<path d="M130.333 192.625L137.453 196.5L136.953 203M145.447 190.5L141.825 194.375M158.437 196.75L158.437 201.25M158.437 201.25L159.935 199L163.058 199.75L163.932 199C164.682 200.667 166.181 203.8 166.181 203C166.181 202.189 178.996 195.81 183.917 185.5L182.168 195.75L185.665 190.25L185.665 188.625L186.664 186.75L187.289 187.875L190.661 185.5L189.912 187.875L197.406 189.5L201.403 185L201.403 189.5L203.901 187L204.9 190L210.896 186.75L210.396 190L207.898 191.875L207.898 195.75L225.384 206L209.397 207.5L177.672 225.125L158.437 201.25Z" stroke="black" stroke-width="2"/>
<path d="M174.986 116.625L172.425 175L175.485 116.625L178.444 114.477L180.419 104L175.485 109.5L171.925 104.5L172.722 114.266L174.986 116.625Z" fill="#C4C4C4" stroke="black" stroke-width="2"/>
<path d="M173.424 126L172.425 129L170.427 131L171.926 133.5" stroke="black" stroke-width="2"/>
<path d="M85.2434 126.375L85.2434 131L78.6236 134.375L76.1255 132.75L76.1257 155L77.4996 156.75H76.1257L76.1257 160.625L78.6237 159L78.9984 155L80.747 154L80.747 152.375L82.6206 151L82.6206 152.375H88.1163L94.861 153.5L90.7392 151L92.1131 151.5L94.2365 147L98.3582 145.5H102.355L100.107 144L105.727 143L104.104 141L107.101 140L99.2325 139L97.4838 131.875L94.2364 127.875L93.4869 125.5L87.1169 131L85.2434 126.375Z" fill="#73995B" stroke="black" stroke-width="2"/>
<path d="M118.967 106.5L117.468 109.5L112.472 114L109.974 111.25L109.974 124.5L111.348 132.625H109.974L109.974 136.5H113.971L113.971 132L114.595 129.875L114.595 128.25L116.469 126.875L116.469 128.25H121.965L121.965 124H127.71L125.961 121.5L128.46 119L124.588 117.5L127.96 109H124.463L123.463 105L121.465 108.5L118.967 106.5Z" fill="#73995B" stroke="black" stroke-width="2"/>
<path d="M214.892 77.5L213.393 80.5L208.397 85L205.899 82.25L205.899 95.5L207.273 103.625H205.899L205.899 107.5H209.896L209.896 103L210.52 100.875L210.52 99.25L212.394 97.875L212.394 99.25H217.89L217.89 95H223.635L221.886 92.5L224.384 90L220.512 88.5L223.885 80H220.388L219.388 76L217.39 79.5L214.892 77.5Z" fill="#73995B" stroke="black" stroke-width="2"/>
<path d="M64.0007 187L44.0007 187L44.0005 203L52.0004 211.5L44.0003 219L44.0001 235L54.0001 235L64.0001 235L64.0007 187Z" fill="#6E7387"/>
<path d="M64.0007 187L44.0007 187L44.0005 203L52.0004 211.5L44.0003 219L44.0001 235L54.0001 235L64.0001 235L64.0007 187Z" fill="black" fill-opacity="0.2"/>
<path d="M64.0007 187L44.0007 187L44.0005 203L52.0004 211.5L44.0003 219L44.0001 235L54.0001 235L64.0001 235L64.0007 187Z" stroke="black" stroke-width="2"/>
<path d="M56.0001 195L64.0002 187L64.0001 195L56.0001 195Z" fill="black" fill-opacity="0.38" stroke="black" stroke-width="2" stroke-linejoin="bevel"/>
<path d="M248 187L268 187L268 203L260.001 211.5L268.001 219L268.001 235L258.001 235L248.001 235L248 187Z" fill="#6E7387"/>
<path d="M248 187L268 187L268 203L260.001 211.5L268.001 219L268.001 235L258.001 235L248.001 235L248 187Z" fill="black" fill-opacity="0.2"/>
<path d="M248 187L268 187L268 203L260.001 211.5L268.001 219L268.001 235L258.001 235L248.001 235L248 187Z" stroke="black" stroke-width="2"/>
<path d="M256.002 195L248.002 187L248.002 195L256.002 195Z" fill="black" fill-opacity="0.38" stroke="black" stroke-width="2" stroke-linejoin="bevel"/>
<path d="M255.99 194.977L55.9905 194.977L55.9898 242.977L255.99 242.977L255.99 194.977Z" fill="#6E7387" stroke="black" stroke-width="2"/>
<path d="M125.576 228.452L127.772 227.696L127.772 210.56L125.576 209.804L125.576 208.256L134.396 208.256L134.396 209.948L131.696 210.704L131.696 227.444L137.888 228.02L138.5 223.34L140.66 223.34L140.804 230L125.576 230L125.576 228.452ZM148.102 230.36C147.046 230.36 146.074 230.072 145.186 229.496C144.322 228.896 143.626 228.008 143.098 226.832C142.594 225.656 142.342 224.216 142.342 222.512C142.342 221.384 142.426 220.34 142.594 219.38C142.762 218.396 142.978 217.628 143.242 217.076C143.65 216.524 144.55 215.78 145.942 214.844C147.358 213.908 148.294 213.44 148.75 213.44C149.014 213.44 149.95 213.56 151.558 213.8C153.166 214.016 154.402 214.196 155.266 214.34L155.266 227.696L156.526 228.2L156.526 229.748C154.342 230.156 153.13 230.36 152.89 230.36C152.794 230.36 152.554 230.18 152.17 229.82C151.81 229.46 151.63 229.22 151.63 229.1L151.63 227.804C149.446 229.508 148.27 230.36 148.102 230.36ZM148.498 227.444C148.738 227.444 149.746 227 151.522 226.112L151.522 216.428C150.946 216.212 150.214 216.02 149.326 215.852C148.462 215.66 147.886 215.588 147.598 215.636C147.166 215.732 146.842 216.272 146.626 217.256C146.41 218.24 146.302 219.884 146.302 222.188C146.302 223.34 146.422 224.312 146.662 225.104C146.926 225.896 147.226 226.484 147.562 226.868C147.922 227.252 148.234 227.444 148.498 227.444ZM161.171 230.36C161.051 230.36 160.799 230.18 160.415 229.82C160.055 229.46 159.875 229.22 159.875 229.1L159.876 209.264L158.544 208.76L158.544 207.248C160.872 206.84 162.144 206.636 162.36 206.636C162.48 206.636 162.708 206.816 163.044 207.176C163.404 207.512 163.584 207.752 163.584 207.896L163.583 227.66L164.843 228.2L164.843 229.712C162.635 230.144 161.411 230.36 161.171 230.36ZM170.315 230.36C170.219 230.36 169.979 230.204 169.595 229.892C169.211 229.58 168.959 229.352 168.839 229.208L164.267 222.152L164.268 220.568L168.372 215.924L166.644 215.672L166.644 213.8L171.756 213.512C171.876 213.512 172.02 213.764 172.188 214.268C172.38 214.748 172.476 215.096 172.476 215.312L167.256 220.82L172.187 227.624L173.627 228.2L173.627 229.712C171.611 230.144 170.507 230.36 170.315 230.36ZM181.23 230.36C180.102 230.36 179.058 230.072 178.098 229.496C177.162 228.92 176.406 228.056 175.83 226.904C175.278 225.752 175.002 224.348 175.003 222.692C175.003 221.516 175.087 220.412 175.255 219.38C175.423 218.348 175.639 217.58 175.903 217.076C176.167 216.716 176.695 216.236 177.487 215.636C178.279 215.012 179.071 214.472 179.863 214.016C180.679 213.56 181.243 213.332 181.555 213.332C182.875 213.332 183.955 213.548 184.795 213.98C185.635 214.412 186.283 215.228 186.739 216.428C187.195 217.604 187.423 219.272 187.423 221.432L178.927 222.152C178.927 223.472 179.094 224.528 179.43 225.32C179.79 226.112 180.21 226.676 180.69 227.012C181.17 227.348 181.626 227.516 182.058 227.516L186.882 227.336L186.882 228.956C186.042 229.244 184.974 229.556 183.678 229.892C182.382 230.204 181.566 230.36 181.23 230.36ZM183.571 219.884C183.571 217.052 182.827 215.624 181.339 215.6L181.051 215.6C180.667 215.6 180.319 215.66 180.007 215.78C179.719 215.876 179.479 216.404 179.287 217.364C179.095 218.3 178.999 219.344 178.999 220.496L183.571 219.884Z" fill="black" fill-opacity="0.6"/>
<defs>
<linearGradient id="paint0_linear_3653_100595" x1="212.382" y1="71.0002" x2="212.382" y2="279.329" gradientUnits="userSpaceOnUse">
<stop stop-color="white"/>
<stop offset="1" stop-opacity="0.32"/>
</linearGradient>
<linearGradient id="paint1_linear_3653_100595" x1="147.515" y1="136.383" x2="147.515" y2="177.528" gradientUnits="userSpaceOnUse">
<stop stop-color="#3768A2"/>
<stop offset="0.912044" stop-color="#0A48A4"/>
</linearGradient>
</defs>
</svg>
