<svg width="226" height="224" viewBox="0 0 226 224" fill="none" xmlns="http://www.w3.org/2000/svg">
<path d="M33.125 27.0001H193L193 74.2501L128.694 97.5001L128.694 62.5001C128.694 62.5001 125.428 35.0001 98.9486 35.0001C72.4693 35.0001 67.8341 62.5001 67.8341 62.5001L33.1254 99.8511L33.125 27.0001Z" fill="url(#paint0_linear_3653_100595)"/>
<path d="M132.922 27L163.398 27L163.398 36.5L165.883 36.5C174.996 36.5 182.383 43.8873 182.383 53V53L192.875 53" stroke="black" stroke-width="2"/>
<path d="M186.761 135.875L186.761 137.75L190.615 135.75H192.876L192.876 175H33.0007L33.0005 141.375L35.6176 142.25L34.1901 139L37.5208 141.375L37.5208 139.875L40.6136 139L58.9802 131C58.9802 131 48.9548 130.596 42.9927 128.5C38.8764 127.053 33.0004 123.5 33.0004 123.5L33.0004 117L50.4867 116C50.4867 116 64.0049 123.775 73.9685 128C103.445 140.5 117.434 120 179.386 138.5L183.55 134.5L182.717 137.75L186.761 135.875Z" fill="#475F38" stroke="black" stroke-width="2"/>
<path d="M145.038 115L147.411 112.5H182.884L185.382 116L186.381 110.5L193.001 104.375L193 67.0001L195.873 59.0001L190.877 62.0001L188.379 59.0001L186.381 64.0001H183.383L185.881 68.5001L183.508 67.0001L165.397 77.5001L162.899 76.0001L161.9 79.5001H158.402L157.403 83.5001L153.906 83.0001L154.031 87.0003H150.159L149.909 90.5001L146.412 106.5L143.914 109.5C143.914 109.5 140.916 107.1 140.417 106.5L139.417 111L135.92 112L137.044 115.75L137.044 117.375L139.418 115.75L141.916 120L145.038 115Z" fill="#73995B" stroke="black" stroke-width="2"/>
<path d="M61.2909 94.5626L58.7304 95.0001L33.0005 99.6876L33.0007 124L41.9936 120.5L49.4878 121L62.4151 103L59.1676 102.563H58.2933L59.1676 101.438L59.1676 99.8751L59.7921 96.9376L61.2909 94.5626Z" fill="#73995B" stroke="black" stroke-width="2"/>
<path d="M161.899 149.613L176.846 150.68C177.397 150.72 177.876 150.304 177.914 149.753L186.347 29.2686C186.388 28.6902 185.929 28.1987 185.349 28.1987L170.552 28.1987C170.028 28.1987 169.592 28.6039 169.555 29.1269L160.972 148.543C160.933 149.095 161.348 149.573 161.899 149.613Z" fill="white" stroke="black" stroke-width="2"/>
<path d="M187.39 27.0173L168.394 27.0011L169.388 31.5001L186.38 32.0001L187.39 27.0173Z" fill="#D9D9D9" stroke="black" stroke-width="2"/>
<path d="M115.997 91.6166L116.507 96.1984L120.932 96.1984L120.932 89.8673C118.986 89.8673 116.927 88.0104 116.927 88.0104L115.997 91.6166Z" fill="#C4C4C4" stroke="black" stroke-width="2"/>
<path d="M67.5987 148.5H50.612L50.6117 95.6876L50.6116 84.7501L51.3611 83.2501L50.6116 81.0001L50.6116 69.2814L50.6115 65.317C50.6115 50.9471 56.3169 37.1651 66.4739 27.0001H79.6511L76.5911 32.7501H79.6512L79.6512 38.9376C71.9335 46.6614 67.5982 57.1336 67.5983 68.0524L67.5987 148.5Z" fill="#C4C4C4" stroke="black" stroke-width="2"/>
<path d="M75.5924 148.5H58.6057L58.6055 124.625L59.8545 117H58.6055L58.6054 95.6876L58.6052 65.317C58.6051 50.9471 64.3106 37.1651 74.4676 27.0001H87.6448L84.5847 32.7501H87.6448L87.6449 38.9376C79.9271 46.6614 75.5919 57.1336 75.5919 68.0524L75.592 75.3751L75.592 85.8751L73.2189 87.6251H75.592L75.5921 99.7501L75.5924 148.5Z" fill="#C4C4C4" stroke="black" stroke-width="2"/>
<path d="M76.9661 135.875H56.9817L56.1074 139H77.7156L76.9661 135.875Z" fill="#C4C4C4" stroke="black" stroke-width="2"/>
<path d="M47.7393 135.875H56.982L56.1077 139H48.4887L47.7393 135.875Z" fill="#C4C4C4" stroke="black" stroke-width="2"/>
<path d="M76.9661 139H56.9817L56.1075 148.5H77.7156L76.9661 139Z" fill="#C4C4C4" stroke="black" stroke-width="2"/>
<path d="M115.717 70.5001H101.353L103.445 76.6564H114.655C115.879 73.8564 115.873 71.3855 115.717 70.5001Z" fill="#203F63" stroke="black" stroke-width="2"/>
<path d="M112.126 74.3126C111.976 73.9626 112.396 71.4168 112.625 70.1876H107.692L107.692 74.3126H112.126Z" fill="#EEE5C6" stroke="black" stroke-width="2"/>
<path d="M95.9512 144.5L99.729 140.187L98.9059 131.13L104.569 133.625L104.445 135.5L103.851 140.562L103.945 142L95.9512 144.5Z" fill="#3768A2" stroke="black" stroke-width="2"/>
<path d="M185.881 79H179.885L181.634 81.5L176.95 82.8833L176.888 86" stroke="black" stroke-width="2"/>
<path d="M124.054 117.625C123.555 114.625 119.433 102.875 117.434 97.3751L116.435 96.5001L115.436 85.0001L101.447 84.0001L111.564 131.75H117.435C119.683 131.8 123.825 130.979 125.616 130.563C125.303 127.5 124.554 120.625 124.054 117.625Z" fill="#C4C4C4" stroke="black" stroke-width="2"/>
<path d="M105.506 71.0001C104.548 71.2873 104.548 71.2874 104.548 71.2875L104.548 71.2878L104.548 71.2887L104.549 71.2911L104.552 71.2989L104.56 71.3263C104.567 71.3495 104.577 71.3826 104.591 71.424C104.617 71.5068 104.655 71.6237 104.703 71.7634C104.798 72.041 104.934 72.4174 105.098 72.7994C105.257 73.1716 105.46 73.5932 105.694 73.9371C105.811 74.1076 105.962 74.2995 106.152 74.4583C106.333 74.6103 106.647 74.8126 107.067 74.8126C109.474 74.8126 111.076 72.9296 111.989 71.4253C112.468 70.6364 112.818 69.8555 113.047 69.2763C113.085 69.1786 113.121 69.0863 113.153 69.0001H113.437H114.574L114.429 67.8722C114.298 66.8533 113.965 65.1673 113.306 63.7061C112.686 62.3315 111.554 60.6876 109.628 60.6876C108.072 60.6876 106.811 61.314 105.889 62.0581C104.979 62.7936 104.356 63.6774 104.046 64.3105L103.936 64.5347L103.944 64.7842C103.977 65.7386 104.121 67.3331 104.253 68.6617C104.32 69.3318 104.385 69.9441 104.433 70.3888C104.457 70.6111 104.477 70.7918 104.49 70.9169L104.507 71.0614L104.511 71.0993L104.512 71.1091L104.512 71.1116L104.512 71.1123L104.512 71.1124L105.506 71.0001ZM105.506 71.0001L104.548 71.2873L104.522 71.2015L104.512 71.1125L105.506 71.0001Z" fill="#EEE5C6" stroke="black" stroke-width="2"/>
<path d="M91.2678 128.562C97.4763 131.975 108.879 134.937 116.623 132.812C118.212 119.122 118.258 106.985 115.998 93.3125C111.524 91.5904 106.022 92.668 101.385 93.3125C97.5629 105.058 93.5197 116.421 91.2678 128.562Z" fill="url(#paint1_linear_3653_100595)" stroke="black" stroke-width="2"/>
<path d="M120.057 87.0001C119.807 86.2001 118.579 84.3335 117.996 83.5001C117.892 83.7918 117.622 84.4876 117.372 84.9376C117.122 85.3876 116.185 85.7085 115.748 85.8126L115.748 92.4376C115.915 92.5001 116.385 92.5876 116.935 92.4376C117.484 92.2876 119.454 90.3335 120.369 89.3751C120.369 88.9168 120.307 87.8001 120.057 87.0001Z" fill="#3768A2" stroke="black" stroke-width="2"/>
<path d="M101.469 84.3983L96.781 85.344L95.6515 97.2993L101.95 97.8953C102.446 92.6374 104.819 87.2501 104.819 87.2501L101.469 84.3983Z" fill="#C4C4C4" stroke="black" stroke-width="2"/>
<path d="M128.925 88.6251L120.369 89.1876L119.365 92.2768L120.369 96.6251L128.925 93.1876L128.925 90.9064L128.925 88.6251Z" fill="#C4C4C4" stroke="black" stroke-width="2"/>
<path d="M102.946 75.0001C104.32 75.1668 107.442 76.0876 108.941 78.4376C110.44 80.7876 111.98 84.2918 112.563 85.7501" stroke="black" stroke-width="2"/>
<path d="M92.7041 122.063L94.203 126L97.7627 123.938L100.073 127.875L103.883 125.25L106.693 129.125L110.565 126L113.313 129.813L117.31 126.375" stroke="black" stroke-width="2"/>
<path d="M112.492 95.7545L113.057 94.6602L114.068 95.5215L114.405 97.8092L113.696 98.9882L112.83 98.0422L112.492 95.7545Z" stroke="black" stroke-width="2"/>
<path d="M107.695 96.5218L108.24 95.4175L109.266 96.2606L109.645 98.5419L108.957 99.7334L108.074 98.803L107.695 96.5218Z" stroke="black" stroke-width="2"/>
<path d="M116.435 96.4376C116.435 96.4376 108.754 96.8751 102.134 99.5001" stroke="black" stroke-width="2"/>
<path d="M102.773 98.0094L103.262 96.8793L104.329 97.67L104.821 99.9294L104.193 101.154L103.265 100.269L102.773 98.0094Z" stroke="black" stroke-width="2"/>
<path d="M99.0735 91.1115L95.6387 92.4865L95.6387 95.6114L95.6387 104.424H100.385C100.385 99.1739 103.258 94.799 103.258 94.799L99.0735 91.1115Z" fill="#C4C4C4"/>
<path d="M95.6387 95.6114L98.3241 94.174L101.87 97.253M95.6387 92.4865L99.0735 91.1115L103.258 94.799C103.258 94.799 100.385 99.1739 100.385 104.424C98.3241 104.424 97.4498 104.424 95.6387 104.424L95.6387 92.4865Z" stroke="black" stroke-width="2"/>
<path d="M95.1927 105.928L95.6844 102.563L100.173 101.6L101.298 105.513L99.2399 110.365C99.0528 110.384 98.3189 109.796 98.3189 109.796C98.3189 109.796 98.3368 107.576 98.4417 106.637L97.5338 108.558C96.8049 108.011 95.1927 105.928 95.1927 105.928Z" fill="#C4C4C4" stroke="black" stroke-width="2"/>
<path d="M95.2018 87.6874C95.3267 82.6874 101.134 74.6875 103.258 74.6875C102.612 74.6875 101.839 74.7549 101.839 74.7549L100.947 70.5001C104.355 70.5 107.919 71.5356 110.315 74.0625C110.544 73.9375 111.089 73.7 111.439 73.75C114.932 74.2495 117.809 84.125 117.809 84.125C114.437 86.0001 110.44 86.5001 107.442 86.0001L107.572 83.6676C107.385 85.7059 106.909 88.8503 105.694 91.6249C99.3238 91.6249 101.322 85.875 101.322 85.875C101.322 85.875 98.824 90.8125 95.2018 87.6874Z" fill="#3768A2"/>
<path d="M107.442 61.9376C107.442 64.0626 111.439 63.5001 110.939 66.5001C111.939 64.0001 118.815 64.5626 121.501 64.5626C121.501 64.5626 115.748 60.8751 113.343 61.9376C115.99 58.5467 110.054 57.09 107.692 56.0001C105.275 57.6406 101.43 58.6863 103.258 61.9376C101.259 61.3126 96.3255 63.3751 95.2017 64.5626C98.2616 64.5626 102.946 65.4376 104.444 66.5001C104.444 64.0001 107.442 64.0626 107.442 61.9376Z" fill="#3768A2"/>
<path d="M95.2018 87.6874L94.2021 87.6625L94.1903 88.1355L94.5486 88.4446L95.2018 87.6874ZM101.322 85.875L102.267 86.2033L100.43 85.4236L101.322 85.875ZM105.694 91.6249L105.694 92.6249H106.347L106.61 92.0262L105.694 91.6249ZM107.692 81.5001L108.692 81.5001L106.693 81.4448L107.692 81.5001ZM107.442 86.0001L106.444 85.9448L106.394 86.8391L107.278 86.9865L107.442 86.0001ZM111.439 73.75L111.58 72.7601L111.58 72.7601L111.439 73.75ZM110.315 74.0625L109.589 74.7505L110.118 75.309L110.794 74.9403L110.315 74.0625ZM100.947 70.5001L100.947 69.5001L99.716 69.5002L99.9685 70.7052L100.947 70.5001ZM101.839 74.7549L100.86 74.96L101.042 75.8282L101.926 75.7512L101.839 74.7549ZM110.939 66.5001L109.953 66.3358L111.868 66.8713L110.939 66.5001ZM104.444 66.5001L103.866 67.3159L105.444 66.5001H104.444ZM113.343 61.9376L112.555 61.3223L113.748 62.8523L113.343 61.9376ZM121.501 64.5626L121.501 65.5626L122.04 63.7207L121.501 64.5626ZM95.2017 64.5626L94.4754 63.8753L95.2017 65.5626L95.2017 64.5626ZM103.258 61.9376L102.959 62.892L104.129 61.4476L103.258 61.9376ZM117.809 84.125L118.295 84.999L118.992 84.6113L118.769 83.8454L117.809 84.125ZM107.692 56.0001L108.111 55.0921L107.597 54.8554L107.13 55.1728L107.692 56.0001ZM103.258 73.6875C102.71 73.6875 102.192 73.9315 101.774 74.1953C101.331 74.4743 100.874 74.8577 100.421 75.3014C99.513 76.1912 98.5404 77.4065 97.6458 78.7615C95.8837 81.4308 94.2718 84.8753 94.2021 87.6625L96.2015 87.7124C96.2568 85.4996 97.6112 82.4442 99.3149 79.8634C100.153 78.5935 101.039 77.4963 101.821 76.7299C102.213 76.3454 102.558 76.0648 102.841 75.8868C103.147 75.6936 103.275 75.6875 103.258 75.6875L103.258 73.6875ZM94.5486 88.4446C95.6027 89.3541 96.6741 89.755 97.7177 89.7222C98.7412 89.6899 99.5929 89.2448 100.237 88.7404C100.88 88.2365 101.37 87.6322 101.693 87.1724C101.857 86.9391 101.984 86.7346 102.071 86.5859C102.114 86.5113 102.148 86.4503 102.172 86.4061C102.184 86.384 102.194 86.366 102.201 86.3526C102.204 86.3459 102.207 86.3403 102.209 86.336C102.211 86.3338 102.211 86.3319 102.212 86.3303C102.213 86.3295 102.213 86.3288 102.213 86.3282C102.214 86.3278 102.214 86.3274 102.214 86.3273C102.214 86.3268 102.214 86.3265 101.322 85.875C100.43 85.4236 100.43 85.4233 100.43 85.4229C100.43 85.4228 100.43 85.4225 100.43 85.4224C100.43 85.422 100.431 85.4218 100.431 85.4216C100.431 85.4212 100.431 85.4211 100.431 85.4212C100.431 85.4216 100.43 85.4231 100.429 85.4256C100.426 85.4307 100.421 85.4401 100.414 85.4533C100.399 85.4799 100.376 85.5219 100.344 85.5763C100.28 85.6854 100.184 85.8422 100.057 86.023C99.798 86.3913 99.4375 86.8261 99.0036 87.1659C98.5703 87.5053 98.1183 87.7085 97.6547 87.7231C97.2113 87.7371 96.612 87.5834 95.8551 86.9303L94.5486 88.4446ZM106.61 92.0262C107.888 89.1069 108.377 85.8384 108.567 83.7588L106.576 83.5765C106.393 85.5734 105.93 88.5937 104.778 91.2237L106.61 92.0262ZM108.567 83.7588C108.629 83.0827 108.66 82.5235 108.676 82.1311C108.684 81.9348 108.688 81.7799 108.69 81.6727C108.691 81.6191 108.691 81.5774 108.691 81.5484C108.692 81.5339 108.692 81.5226 108.692 81.5145C108.692 81.5104 108.692 81.5072 108.692 81.5048C108.692 81.5036 108.692 81.5026 108.692 81.5018C108.692 81.5014 108.692 81.5011 108.692 81.5008C108.692 81.5007 108.692 81.5005 108.692 81.5004C108.692 81.5003 108.692 81.5003 108.692 81.5002C108.692 81.5002 108.692 81.5001 107.692 81.5001C106.692 81.5002 106.692 81.5001 106.692 81.5C106.692 81.5 106.692 81.4999 106.692 81.4999C106.692 81.4999 106.692 81.4998 106.692 81.4998C106.692 81.4997 106.692 81.4996 106.692 81.4997C106.692 81.4997 106.692 81.5 106.692 81.5004C106.692 81.5013 106.692 81.5031 106.692 81.5056C106.692 81.5107 106.692 81.519 106.692 81.5304C106.691 81.5532 106.691 81.5885 106.69 81.6355C106.688 81.7295 106.685 81.8702 106.678 82.0516C106.663 82.4146 106.634 82.9391 106.576 83.5765L108.567 83.7588ZM106.693 81.4448L106.573 83.6122L108.57 83.723L108.69 81.5555L106.693 81.4448ZM106.573 83.6122L106.444 85.9448L108.441 86.0555L108.57 83.723L106.573 83.6122ZM111.58 72.7601C111.167 72.701 110.759 72.8116 110.519 72.8909C110.246 72.9808 109.997 73.0969 109.836 73.1848L110.794 74.9403C110.862 74.9032 111 74.838 111.144 74.7904C111.215 74.7672 111.271 74.7533 111.311 74.7468C111.356 74.7393 111.346 74.7469 111.297 74.74L111.58 72.7601ZM99.9685 70.7052L100.86 74.96L102.817 74.5499L101.926 70.2951L99.9685 70.7052ZM101.839 74.7549C101.926 75.7512 101.925 75.7512 101.925 75.7512C101.925 75.7512 101.925 75.7512 101.925 75.7512C101.925 75.7512 101.925 75.7512 101.925 75.7512C101.925 75.7512 101.925 75.7512 101.926 75.7512C101.926 75.7512 101.926 75.7511 101.927 75.7511C101.928 75.751 101.93 75.7508 101.932 75.7506C101.937 75.7502 101.945 75.7495 101.955 75.7487C101.976 75.747 102.007 75.7445 102.046 75.7415C102.125 75.7355 102.236 75.7274 102.368 75.7194C102.633 75.703 102.965 75.6875 103.258 75.6875L103.258 73.6875C102.905 73.6875 102.527 73.7058 102.245 73.7231C102.102 73.7319 101.98 73.7407 101.893 73.7473C101.85 73.7506 101.815 73.7534 101.791 73.7554C101.779 73.7564 101.77 73.7572 101.763 73.7578C101.76 73.758 101.757 73.7583 101.755 73.7584C101.754 73.7585 101.754 73.7586 101.753 73.7586C101.753 73.7586 101.753 73.7587 101.752 73.7587C101.752 73.7587 101.752 73.7587 101.752 73.7587C101.752 73.7587 101.752 73.7587 101.752 73.7587C101.752 73.7587 101.752 73.7587 101.839 74.7549ZM111.926 66.6644C112.09 65.6759 111.89 64.8634 111.401 64.217C110.954 63.6259 110.326 63.2632 109.849 63.0085C109.298 62.7142 108.955 62.5606 108.683 62.3437C108.479 62.1806 108.442 62.0802 108.442 61.9376H106.442C106.442 62.8575 106.905 63.4838 107.435 63.9066C107.897 64.2755 108.522 64.5673 108.907 64.7729C109.367 65.0183 109.645 65.2103 109.806 65.4238C109.926 65.5822 110.038 65.8244 109.953 66.3358L111.926 66.6644ZM106.442 61.9376C106.442 62.4175 106.191 62.6422 105.343 63.2785C104.585 63.8471 103.444 64.7218 103.444 66.5001H105.444C105.444 65.7784 105.802 65.4344 106.544 64.878C107.195 64.3893 108.442 63.5828 108.442 61.9376H106.442ZM101.322 85.875C100.377 85.5468 100.377 85.5473 100.377 85.5478C100.377 85.548 100.377 85.5485 100.377 85.5489C100.376 85.5497 100.376 85.5505 100.376 85.5515C100.375 85.5534 100.374 85.5557 100.373 85.5584C100.372 85.5637 100.369 85.5704 100.367 85.5785C100.361 85.5946 100.354 85.6162 100.346 85.643C100.329 85.6965 100.307 85.7708 100.283 85.8629C100.233 86.0466 100.172 86.3045 100.122 86.6127C100.024 87.219 99.9578 88.0705 100.14 88.9521C100.325 89.8493 100.775 90.8047 101.718 91.5223C102.651 92.2327 103.957 92.6249 105.694 92.6249L105.694 90.6249C104.246 90.6249 103.412 90.2985 102.929 89.9307C102.455 89.5703 102.21 89.0882 102.098 88.5479C101.984 87.992 102.019 87.406 102.096 86.9342C102.134 86.7034 102.179 86.512 102.214 86.3813C102.232 86.3162 102.247 86.2669 102.256 86.2362C102.261 86.2209 102.264 86.2102 102.266 86.2046C102.267 86.2018 102.268 86.2002 102.268 86.2C102.268 86.1999 102.268 86.2001 102.267 86.2006C102.267 86.2009 102.267 86.2013 102.267 86.2017C102.267 86.2019 102.267 86.2023 102.267 86.2024C102.267 86.2029 102.267 86.2033 101.322 85.875ZM113.748 62.8523C114.048 62.7195 114.595 62.6922 115.414 62.8754C116.197 63.0506 117.071 63.3816 117.91 63.7623C118.743 64.1403 119.509 64.5524 120.069 64.8716C120.348 65.0308 120.573 65.1657 120.728 65.2601C120.806 65.3073 120.865 65.3443 120.905 65.369C120.924 65.3814 120.939 65.3907 120.949 65.3967C120.953 65.3997 120.957 65.4019 120.959 65.4032C120.96 65.4039 120.961 65.4043 120.961 65.4045C120.961 65.4046 120.961 65.4047 120.961 65.4047C120.961 65.4047 120.961 65.4046 120.961 65.4046C120.961 65.4046 120.961 65.4045 121.501 64.5626C122.04 63.7207 122.04 63.7206 122.04 63.7205C122.04 63.7205 122.04 63.7203 122.039 63.7202C122.039 63.72 122.039 63.7197 122.038 63.7194C122.037 63.7187 122.036 63.7178 122.034 63.7167C122.03 63.7145 122.025 63.7114 122.019 63.7074C122.007 63.6995 121.989 63.6883 121.966 63.6739C121.92 63.6452 121.854 63.604 121.769 63.5524C121.6 63.4493 121.358 63.3044 121.06 63.1345C120.465 62.7955 119.643 62.3522 118.737 61.9411C117.837 61.5327 116.823 61.1411 115.851 60.9237C114.915 60.7143 113.841 60.6245 112.939 61.023L113.748 62.8523ZM105.023 65.6843C104.527 65.3325 103.841 65.0415 103.113 64.8C102.367 64.5526 101.505 64.3342 100.606 64.1527C98.8148 63.7909 96.8113 63.5626 95.2017 63.5626L95.2017 65.5626C96.652 65.5626 98.5205 65.7718 100.211 66.1131C101.053 66.2833 101.834 66.4828 102.483 66.6983C103.151 66.9197 103.613 67.1365 103.866 67.3159L105.023 65.6843ZM95.928 65.25C96.0949 65.0737 96.4969 64.7833 97.1272 64.4443C97.7323 64.1189 98.4715 63.7888 99.2412 63.5111C100.013 63.2326 100.791 63.0156 101.475 62.9041C102.186 62.7881 102.684 62.8059 102.959 62.892L103.556 60.9832C102.833 60.7569 101.964 60.7981 101.153 60.9301C100.315 61.0667 99.4144 61.3223 98.5623 61.6298C97.7082 61.938 96.8784 62.3072 96.1798 62.6829C95.5066 63.045 94.8704 63.4578 94.4754 63.8753L95.928 65.25ZM117.809 84.125C118.769 83.8454 118.769 83.8452 118.769 83.845C118.769 83.8448 118.769 83.8446 118.769 83.8443C118.769 83.8438 118.768 83.8432 118.768 83.8424C118.768 83.8408 118.767 83.8386 118.766 83.8358C118.765 83.8303 118.762 83.8224 118.759 83.8122C118.753 83.7918 118.744 83.7624 118.733 83.7244C118.71 83.6484 118.676 83.5384 118.632 83.3989C118.544 83.1201 118.415 82.7232 118.249 82.2461C117.919 81.294 117.439 80.0127 116.843 78.7095C116.252 77.4143 115.529 76.0564 114.703 74.9748C113.909 73.936 112.864 72.9437 111.58 72.7601L111.297 74.74C111.76 74.8061 112.385 75.2355 113.113 76.1889C113.809 77.0994 114.46 78.304 115.024 79.5402C115.585 80.7683 116.042 81.987 116.36 82.9023C116.519 83.3588 116.642 83.7373 116.725 84.0005C116.766 84.1321 116.798 84.2347 116.819 84.3036C116.829 84.3381 116.837 84.3641 116.842 84.3812C116.844 84.3897 116.846 84.396 116.847 84.3999C116.848 84.4019 116.848 84.4033 116.849 84.4041C116.849 84.4045 116.849 84.4047 116.849 84.4048C116.849 84.4049 116.849 84.4049 116.849 84.4049C116.849 84.4048 116.849 84.4047 117.809 84.125ZM107.273 56.9081C107.89 57.1929 108.777 57.5176 109.568 57.8378C110.406 58.1767 111.215 58.5389 111.858 58.949C112.524 59.374 112.857 59.7548 112.966 60.0638C113.042 60.2805 113.076 60.6556 112.555 61.3223L114.132 62.5529C114.935 61.5243 115.219 60.4456 114.853 59.4015C114.519 58.4496 113.716 57.7623 112.934 57.263C112.128 56.7488 111.176 56.3306 110.319 55.9838C109.415 55.6184 108.675 55.3523 108.111 55.0921L107.273 56.9081ZM104.129 61.4476C103.759 60.7881 103.746 60.3741 103.811 60.1051C103.882 59.8136 104.092 59.4966 104.528 59.1292C104.966 58.7598 105.541 58.4139 106.214 58.0333C106.858 57.6698 107.605 57.2677 108.253 56.8275L107.13 55.1728C106.57 55.5528 105.93 55.8965 105.23 56.292C104.56 56.6706 103.835 57.0969 103.238 57.6004C102.639 58.1059 102.079 58.7625 101.868 59.6327C101.651 60.5256 101.843 61.4614 102.386 62.4277L104.129 61.4476ZM121.501 63.5626C120.248 63.5626 117.738 63.4212 115.509 63.597C114.385 63.6856 113.244 63.8587 112.294 64.2022C111.366 64.5372 110.419 65.1088 110.011 66.129L111.868 66.8713C111.96 66.6415 112.246 66.3458 112.973 66.0832C113.677 65.829 114.611 65.674 115.666 65.5908C117.797 65.4228 120.067 65.5626 121.501 65.5626L121.501 63.5626ZM111.04 73.3746C108.397 70.5857 104.529 69.5 100.947 69.5001L100.947 71.5001C104.181 71.5 107.442 72.4855 109.589 74.7505L111.04 73.3746ZM107.278 86.9865C110.489 87.522 114.716 86.989 118.295 84.999L117.323 83.2511C114.158 85.0112 110.391 85.4782 107.607 85.0137L107.278 86.9865Z" fill="black"/>
<path d="M50.6743 113.581L51.9233 112.331H57.4815L58.6056 113.581L60.042 112.331H74.156L75.7173 113.581" stroke="black" stroke-width="2"/>
<path d="M50.6743 111L51.9233 112.25H57.4815L58.6056 111L60.042 112.25H74.156L75.7172 111" stroke="black" stroke-width="2"/>
<path d="M50.6743 100.161L51.9233 98.9113H57.4815L58.6056 100.161L60.042 98.9113H74.156L75.7173 100.161" stroke="black" stroke-width="2"/>
<path d="M50.6743 97.5802L51.9233 98.8302H57.4815L58.6056 97.5802L60.042 98.8302H74.156L75.7172 97.5802" stroke="black" stroke-width="2"/>
<path d="M50.6738 86.7418L51.9229 85.4918H57.481L58.6051 86.7418L60.0415 85.4918H74.1555L75.7168 86.7418" stroke="black" stroke-width="2"/>
<path d="M50.6738 84.2418L51.9229 85.4918H57.481L58.6051 84.2418L60.0415 85.4918H74.1555L75.7168 84.2418" stroke="black" stroke-width="2"/>
<path d="M50.6738 73.3224L51.9229 72.0724H57.481L58.6051 73.3224L60.0415 72.0724H74.1555L75.7168 73.3224" stroke="black" stroke-width="2"/>
<path d="M50.6738 70.8224L51.9229 72.0724H57.481L58.6051 70.8224L60.0415 72.0724H74.1555L75.7168 70.8224" stroke="black" stroke-width="2"/>
<path d="M134.921 86.0001H133.922L133.922 85.0001H129.925L126.802 88.5001L126.802 91.5001L128.926 93.0001H131.923L134.921 89.0001L134.921 86.0001Z" fill="#C4C4C4" stroke="black" stroke-width="2"/>
<path d="M171.392 50.0001L172.391 54.5001L170.393 56.5001L171.392 60.0001M167.395 63.5001L171.392 60.0001M171.392 60.0001L172.391 63.0001L177.387 58.5001L180.385 61.0001" stroke="black" stroke-width="2"/>
<path d="M133.141 27.0001L33.125 27.0001L33.1252 71.0001" stroke="black" stroke-width="2"/>
<path d="M192.876 143L192.876 132.5L191.627 131H188.879L188.879 129L192.876 128.25L192.876 124.5H189.379L192.876 121.75L192.876 115" stroke="black" stroke-width="2"/>
<path d="M36.4979 132L33.1255 139.844L33.1259 207.004L193.001 206.984L192.922 145.375L194.874 141.5L179.886 142.5L181.385 138.5L172.465 141L172.465 138.5L134.921 137.5L134.169 129L132.028 133.5L129.531 130.125L128.926 134L95.278 144.375L91.948 147L88.9569 142.5L88.261 145.375L85.4066 144.375L82.5522 140.375L82.462 144.5L71.9702 149L73.9891 145.375C73.9891 145.375 63.2412 146.531 56.4823 145.5C49.5897 144.448 39.4956 140 39.4956 140L42.4932 135.5L37.4971 137.5L36.4979 132Z" fill="#73995B" stroke="black" stroke-width="2"/>
<path d="M84.3356 148.625H80.9633L81.9625 151H78.9649L78.9649 152.5" stroke="black" stroke-width="2"/>
<path d="M61.5897 155.214H65.3066L67.9735 157.5L71.0178 155.94L65.3066 152.22L65.3065 148.5L68.9327 149.77L70.0206 152.946M48.5354 150.224L50.0765 152.22L47.3569 152.946L47.3569 155.214L50.0765 155.94L43.5494 157.119L44.2746 154.579L39.9232 151.766L39.9232 155.214L39.0166 157.119" stroke="black" stroke-width="2"/>
<path d="M118.698 139.063L119.479 133.5L112.984 133.5L114.858 139.063L113.983 144.5L117.481 146L119.854 143L118.698 139.063Z" fill="#3768A2" stroke="black" stroke-width="2"/>
<path d="M147.506 149.031H162.609C163.114 149.031 163.539 148.655 163.602 148.155L171.502 84.6235C171.577 84.0269 171.111 83.5001 170.51 83.5001H163.716C163.569 83.5001 163.423 83.5327 163.29 83.5954L147.079 91.2298C146.729 91.3948 146.506 91.7473 146.506 92.1345L146.506 148.031C146.506 148.584 146.954 149.031 147.506 149.031Z" fill="#C4C4C4" stroke="black" stroke-width="2"/>
<path d="M155.499 149.031H171.486L171.486 85.0764C171.486 84.3433 170.723 83.8594 170.06 84.1717L155.073 91.2298C154.723 91.3948 154.499 91.7473 154.499 92.1345L154.499 148.031C154.499 148.584 154.947 149.031 155.499 149.031Z" fill="#C4C4C4"/>
<path d="M171.486 149.031H155.499C154.947 149.031 154.499 148.584 154.499 148.031L154.499 92.1345C154.499 91.7473 154.723 91.3948 155.073 91.2298L170.06 84.1717C170.723 83.8594 171.486 84.3433 171.486 85.0764L171.486 149.031ZM171.486 149.031H177.388L177.388 151H183.883" stroke="black" stroke-width="2"/>
<path d="M146.443 100.161L147.692 98.9113H153.25L154.374 100.161L155.811 98.9113H169.925L171.486 100.161" stroke="black" stroke-width="2"/>
<path d="M146.443 97.5802L147.692 98.8302H153.25L154.374 97.5802L155.811 98.8302H169.925L171.486 97.5802" stroke="black" stroke-width="2"/>
<path d="M146.443 113.581L147.692 112.331H153.25L154.374 113.581L155.811 112.331H169.925L171.486 113.581" stroke="black" stroke-width="2"/>
<path d="M146.443 111L147.692 112.25H153.25L154.374 111L155.811 112.25H169.925L171.486 111" stroke="black" stroke-width="2"/>
<path d="M116.935 155L115.436 157.25L134.671 181.125L166.396 163.5L182.384 162L164.897 151.75L164.897 147.875L167.395 146L167.895 142.75L161.9 146L160.901 143L158.403 145.5L158.402 141L154.406 145.5L146.911 143.875L147.661 141.5L144.289 143.875L143.664 142.75L142.665 144.625L142.665 146.25L139.168 151.75L140.916 141.5C135.996 151.81 123.18 158.189 123.18 159C123.18 159.8 121.681 156.667 120.932 155L120.058 155.75L116.935 155Z" fill="#475F38"/>
<path d="M87.333 148.625L94.4525 152.5L93.9529 159M102.446 146.5L98.8241 150.375M115.436 152.75L115.436 157.25M115.436 157.25L116.935 155L120.058 155.75L120.932 155C121.681 156.667 123.18 159.8 123.18 159C123.18 158.189 135.996 151.81 140.916 141.5L139.168 151.75L142.665 146.25L142.665 144.625L143.664 142.75L144.289 143.875L147.661 141.5L146.911 143.875L154.406 145.5L158.402 141L158.403 145.5L160.901 143L161.9 146L167.895 142.75L167.395 146L164.897 147.875L164.897 151.75L182.384 162L166.396 163.5L134.671 181.125L115.436 157.25Z" stroke="black" stroke-width="2"/>
<path d="M131.985 72.6251L129.425 131L132.485 72.6251L135.444 70.4767L137.419 60.0001L132.485 65.5001L128.925 60.5001L129.722 70.2657L131.985 72.6251Z" fill="#C4C4C4" stroke="black" stroke-width="2"/>
<path d="M130.424 82.0001L129.425 85.0001L127.427 87.0001L128.926 89.5001" stroke="black" stroke-width="2"/>
<path d="M42.2434 82.375L42.2434 87L35.6236 90.375L33.1255 88.75L33.1257 111L34.4996 112.75H33.1257L33.1257 116.625L35.6237 115L35.9984 111L37.747 110L37.747 108.375L39.6206 107L39.6206 108.375H45.1163L51.861 109.5L47.7392 107L49.1131 107.5L51.2365 103L55.3582 101.5H59.3551L57.1069 100L62.7275 99L61.1037 97L64.1014 96L56.2325 95L54.4838 87.875L51.2364 83.875L50.4869 81.5L44.1169 87L42.2434 82.375Z" fill="#73995B" stroke="black" stroke-width="2"/>
<path d="M75.9666 62.5L74.4678 65.5L69.4717 70L66.9737 67.25L66.9737 80.5L68.3477 88.625H66.9738L66.9738 92.5H70.9707L70.9707 88L71.5952 85.875L71.5952 84.25L73.4687 82.875L73.4687 84.25H78.9644L78.9644 80H84.7099L82.9612 77.5L85.4593 75L81.5873 73.5L84.9596 65H81.4623L80.4631 61L78.4647 64.5L75.9666 62.5Z" fill="#73995B" stroke="black" stroke-width="2"/>
<path d="M171.891 33.5L170.393 36.5L165.397 41L162.898 38.25L162.899 51.5L164.273 59.625H162.899L162.899 63.5H166.895L166.895 59L167.52 56.875L167.52 55.25L169.393 53.875L169.393 55.25H174.889L174.889 51H180.635L178.886 48.5L181.384 46L177.512 44.5L180.884 36H177.387L176.388 32L174.389 35.5L171.891 33.5Z" fill="#73995B" stroke="black" stroke-width="2"/>
<path d="M21.0005 143L1.00049 143L1.00026 159L9.00014 167.5L1.00003 175L0.999808 191L10.9998 191L20.9998 191L21.0005 143Z" fill="#6E7387"/>
<path d="M21.0005 143L1.00049 143L1.00026 159L9.00014 167.5L1.00003 175L0.999808 191L10.9998 191L20.9998 191L21.0005 143Z" fill="black" fill-opacity="0.2"/>
<path d="M21.0005 143L1.00049 143L1.00026 159L9.00014 167.5L1.00003 175L0.999808 191L10.9998 191L20.9998 191L21.0005 143Z" stroke="black" stroke-width="2"/>
<path d="M12.9999 151L21 143L20.9999 151L12.9999 151Z" fill="black" fill-opacity="0.38" stroke="black" stroke-width="2" stroke-linejoin="bevel"/>
<path d="M205 143L225 143L225 159L217 167.5L225 175L225.001 191L215.001 191L205.001 191L205 143Z" fill="#6E7387"/>
<path d="M205 143L225 143L225 159L217 167.5L225 175L225.001 191L215.001 191L205.001 191L205 143Z" fill="black" fill-opacity="0.2"/>
<path d="M205 143L225 143L225 159L217 167.5L225 175L225.001 191L215.001 191L205.001 191L205 143Z" stroke="black" stroke-width="2"/>
<path d="M213.002 151L205.002 143L205.002 151L213.002 151Z" fill="black" fill-opacity="0.38" stroke="black" stroke-width="2" stroke-linejoin="bevel"/>
<path d="M212.99 150.977L12.9902 150.977L12.9896 198.977L212.99 198.977L212.99 150.977Z" fill="#6E7387" stroke="black" stroke-width="2"/>
<path d="M82.5759 184.452L84.772 183.696L84.7722 166.56L82.5762 165.804L82.5762 164.256L91.3962 164.256L91.3962 165.948L88.6962 166.704L88.696 183.444L94.888 184.02L95.5 179.34L97.66 179.34L97.8039 186L82.5759 186L82.5759 184.452ZM105.102 186.36C104.046 186.36 103.074 186.072 102.186 185.496C101.322 184.896 100.626 184.008 100.098 182.832C99.5941 181.656 99.3422 180.216 99.3422 178.512C99.3422 177.384 99.4262 176.34 99.5942 175.38C99.7622 174.396 99.9783 173.628 100.242 173.076C100.65 172.524 101.55 171.78 102.942 170.844C104.358 169.908 105.294 169.44 105.75 169.44C106.014 169.44 106.95 169.56 108.558 169.8C110.166 170.016 111.402 170.196 112.266 170.34L112.266 183.696L113.526 184.2L113.526 185.748C111.342 186.156 110.13 186.36 109.89 186.36C109.794 186.36 109.554 186.18 109.17 185.82C108.81 185.46 108.63 185.22 108.63 185.1L108.63 183.804C106.446 185.508 105.27 186.36 105.102 186.36ZM105.498 183.444C105.738 183.444 106.746 183 108.522 182.112L108.522 172.428C107.946 172.212 107.214 172.02 106.326 171.852C105.462 171.66 104.886 171.588 104.598 171.636C104.166 171.732 103.842 172.272 103.626 173.256C103.41 174.24 103.302 175.884 103.302 178.188C103.302 179.34 103.422 180.312 103.662 181.104C103.926 181.896 104.226 182.484 104.562 182.868C104.922 183.252 105.234 183.444 105.498 183.444ZM118.171 186.36C118.051 186.36 117.799 186.18 117.415 185.82C117.055 185.46 116.875 185.22 116.875 185.1L116.875 165.264L115.544 164.76L115.544 163.248C117.872 162.84 119.144 162.636 119.36 162.636C119.48 162.636 119.708 162.816 120.044 163.176C120.404 163.512 120.584 163.752 120.584 163.896L120.583 183.66L121.843 184.2L121.843 185.712C119.635 186.144 118.411 186.36 118.171 186.36ZM127.315 186.36C127.219 186.36 126.979 186.204 126.595 185.892C126.211 185.58 125.959 185.352 125.839 185.208L121.267 178.152L121.267 176.568L125.371 171.924L123.643 171.672L123.643 169.8L128.755 169.512C128.875 169.512 129.019 169.764 129.187 170.268C129.379 170.748 129.475 171.096 129.475 171.312L124.255 176.82L129.187 183.624L130.627 184.2L130.627 185.712C128.611 186.144 127.507 186.36 127.315 186.36ZM138.23 186.36C137.102 186.36 136.058 186.072 135.098 185.496C134.162 184.92 133.406 184.056 132.83 182.904C132.278 181.752 132.002 180.348 132.002 178.692C132.002 177.516 132.086 176.412 132.254 175.38C132.422 174.348 132.638 173.58 132.902 173.076C133.166 172.716 133.694 172.236 134.486 171.636C135.278 171.012 136.07 170.472 136.862 170.016C137.678 169.56 138.242 169.332 138.554 169.332C139.874 169.332 140.954 169.548 141.794 169.98C142.634 170.412 143.282 171.228 143.738 172.428C144.194 173.604 144.422 175.272 144.422 177.432L135.926 178.152C135.926 179.472 136.094 180.528 136.43 181.32C136.79 182.112 137.21 182.676 137.69 183.012C138.17 183.348 138.626 183.516 139.058 183.516L143.882 183.336L143.882 184.956C143.042 185.244 141.974 185.556 140.678 185.892C139.382 186.204 138.566 186.36 138.23 186.36ZM140.57 175.884C140.57 173.052 139.826 171.624 138.338 171.6L138.05 171.6C137.666 171.6 137.318 171.66 137.006 171.78C136.718 171.876 136.478 172.404 136.286 173.364C136.094 174.3 135.998 175.344 135.998 176.496L140.57 175.884Z" fill="black" fill-opacity="0.6"/>
<defs>
<linearGradient id="paint0_linear_3653_100595" x1="169.382" y1="27.0001" x2="169.382" y2="235.329" gradientUnits="userSpaceOnUse">
<stop stop-color="white"/>
<stop offset="1" stop-opacity="0.32"/>
</linearGradient>
<linearGradient id="paint1_linear_3653_100595" x1="104.515" y1="92.3829" x2="104.515" y2="133.528" gradientUnits="userSpaceOnUse">
<stop stop-color="#3768A2"/>
<stop offset="0.912044" stop-color="#0A48A4"/>
</linearGradient>
</defs>
</svg>
