<svg width="226" height="224" viewBox="0 0 226 224" fill="none" xmlns="http://www.w3.org/2000/svg">
<rect opacity="0.3" width="160" height="180" transform="matrix(1 0 5.51922e-06 1 33.0002 27)" fill="url(#paint0_linear_1_3921)"/>
<path d="M37.0003 43.0625L33.0003 44.5625L33.0002 27.0625H193L193.001 87.0625L189.001 85.3125C188.251 85.8958 186.401 87.0625 185.001 87.0625C183.601 87.0625 185.584 82.7292 186.751 80.5625L179.251 87.0625L169.001 89.3125L170.751 81.8125C169.251 80.3125 167.601 77.4125 173.001 77.8125C179.751 78.3125 162.75 65.5625 161 64.5625C159.6 63.7625 163.084 68.5625 165 71.0625C164.167 71.8125 160.6 73.2625 153 73.0625C145.4 72.8625 146.334 65.3125 147.75 61.5625L153 59.0625C148.084 55.0625 139.2 47.8625 143 51.0625C147.75 55.0625 150.5 57.8125 145 59.0625C140.6 60.0625 129.834 56.8125 125 55.0625L62.5003 44.5625L61.0003 45.3125L58.7503 43.0625L54.5004 47.0625L49.0003 44.5625L46.5003 43.0625L45.0003 44.5625L37.0003 43.0625Z" fill="white"/>
<path d="M141.769 95.978C139.593 96.1721 138.682 96.3125 139.751 96.3125C140.283 96.3125 140.97 96.192 141.769 95.978Z" fill="white"/>
<path d="M193.001 112.312C187.501 110.312 177.751 106.012 182.751 104.812C187.751 103.612 189.751 97.1458 189.001 96.3125C189.001 96.3125 189.084 95.9792 175.501 95.0625C161.917 94.1458 135.551 96.3125 139.751 96.3125C143.951 96.3125 157.751 88.8125 161.001 87.0625L143.001 85.3125C146.251 77.8125 135.751 96.2625 131.751 95.0625C127.751 93.8625 130.917 90.7292 133.001 89.3125H118.501M55.7505 76.3125C52.4172 75.8958 46.4005 74.6625 49.0005 73.0625C51.6005 71.4625 54.5838 68.3958 55.7505 67.0625L51.7504 59.0625L55.7504 57.3125C52.6671 56.3958 46.5004 54.2125 46.5004 52.8125C46.5004 51.4125 45.5004 48.3958 45.0004 47.0625M33.0003 44.5625L37.0003 43.0625L45.0003 44.5625L46.5003 43.0625L49.0003 44.5625L54.5004 47.0625L58.7503 43.0625L61.0003 45.3125L62.5003 44.5625L125 55.0625C129.834 56.8125 140.6 60.0625 145 59.0625C150.5 57.8125 147.75 55.0625 143 51.0625C139.2 47.8625 148.084 55.0625 153 59.0625L147.75 61.5625C146.334 65.3125 145.4 72.8625 153 73.0625C160.6 73.2625 164.167 71.8125 165 71.0625C163.084 68.5625 159.6 63.7625 161 64.5625C162.75 65.5625 179.751 78.3125 173.001 77.8125C167.601 77.4125 169.251 80.3125 170.751 81.8125L169.001 89.3125L179.251 87.0625L186.751 80.5625C185.584 82.7292 183.601 87.0625 185.001 87.0625C186.401 87.0625 188.251 85.8958 189.001 85.3125L193.001 87.0625L193 27.0625H33.0002L33.0003 44.5625Z" stroke="black" stroke-width="2"/>
<path d="M103.251 100.562L111.5 52.8125L110 48.9375L111.5 42.3125L111.5 28.5625L101.5 13.3125L95.0001 14.8125L85.5002 26.3125L79.8753 37.0625L77.0003 47.0625L66.5006 91.0625L67.7506 99.0625L69.0006 103.062L97.0006 107.062L103.251 100.562Z" fill="url(#paint1_linear_1_3921)"/>
<path d="M33.0005 71.0625H37.0005L45.0005 75.0625L43.2505 76.5625H41.0005L37.0006 92.5625H33.0006L47.0006 95.0625L45.0006 96.3125L61.0007 101.312L69.0007 103.062L94.2507 109.812L95.7507 107.062H98.5007L98.5007 103.062L105.001 107.062L105.001 109.812L109.001 113.562L118.501 116.562L126.751 119.062L130.001 117.562H133.001L137.001 107.812L136.376 106.312L137.001 104.687L147.251 107.062L147.251 109.187L145.751 109.812L143.251 120.312L135.626 117.562L145.001 121.187L149.001 123.062L149.001 125.812H145.751L145.001 133.812L143.751 151.062L137.001 155.062L133.001 156.187L122.876 155.062L123.751 147.062L118.501 145.687L118.501 140.312L65.0008 130.062L60.2508 127.687L61.0008 124.687L54.7507 114.312L55.6258 123.062H53.0008L53.0008 124.687L54.7508 129.062L53.0008 128.437L52.1258 132.062L50.2508 132.937L49.0008 129.562L49.0008 126.062L50.2508 124.687L50.2508 121.812L47.8757 113.562L33.0007 109.812L33.0007 105.437L47.8757 109.812L33.0007 103.812L33.0006 92.5625L33.0005 71.0625Z" fill="#3C3C3C"/>
<path d="M33.0012 207.062L33.0008 132.937L35.5008 134.187L37.0008 136.312L41.6259 138.187L45.0009 142.062L51.0009 143.062L54.7509 145.687C60.8343 150.771 73.501 161.362 75.501 163.062C77.501 164.762 83.4177 168.354 86.126 169.937H81.001L71.626 167.062L64.251 164.562L64.251 168.937C63.1677 168.396 61.001 167.262 61.001 167.062L61.001 169.937L45.001 164.562C46.751 166.187 49.776 169.537 47.876 169.937C45.976 170.337 43.6677 170.854 42.751 171.062L34.501 169.937L34.501 172.687L36.3761 175.062C38.6677 174.479 45.2011 173.437 53.0011 173.937C60.8011 174.437 72.2511 178.229 77.0011 180.062L69.0011 183.062C74.2095 187.396 83.6262 196.037 79.6262 195.937C75.6262 195.837 66.4595 197.229 62.3762 197.937C63.5845 198.021 68.2012 198.262 77.0012 198.562C85.8012 198.862 113.335 204.354 126.001 207.062H33.0012Z" fill="#3C3C3C"/>
<path d="M62.3758 120.312L134.251 135.062L64.2508 123.062M52.1257 111.062L122.876 127.687L123.751 121.187L129.001 121.812L126.751 129.062L131.751 129.562L134.251 123.062H139.001L137.001 130.062H141.001M34.5006 99.0625C37.5423 100.979 53.0007 106.312 53.0007 106.312C53.0007 106.312 99.5007 119.062 114.751 119.062M193.001 132.937C188.001 133.979 177.301 136.487 174.501 138.187C171.701 139.887 173.334 140.312 174.501 140.312L181.001 138.187L189.001 136.312H190.501L185.001 140.312H181.001H190.501H193.001L193.001 151.062H189.001L187.251 147.062L181.001 148.312L177.001 147.062L175.501 151.062L166.501 155.062L158.501 159.062L157.001 156.187L153.001 161.562L145.751 163.062H137.001L151.251 167.062L162.251 164.562L163.751 168.937L173.001 171.062H181.001L185.001 168.937L189.001 171.062L193.001 165.812M33.0005 71.0625H37.0005L45.0005 75.0625L43.2505 76.5625H41.0005L37.0006 92.5625H33.0006L47.0006 95.0625L45.0006 96.3125L61.0007 101.312L69.0007 103.062L94.2507 109.812L95.7507 107.062H98.5007L98.5007 103.062L105.001 107.062L105.001 109.812L109.001 113.562L118.501 116.562L126.751 119.062L130.001 117.562H133.001L137.001 107.812L136.376 106.312L137.001 104.687L147.251 107.062L147.251 109.187L145.751 109.812L143.251 120.312L135.626 117.562L145.001 121.187L149.001 123.062L149.001 125.812H145.751L145.001 133.812L143.751 151.062L137.001 155.062L133.001 156.187L122.876 155.062L123.751 147.062L118.501 145.687L118.501 140.312L65.0008 130.062L60.2508 127.687L61.0008 124.687L54.7507 114.312L55.6258 123.062H53.0008L53.0008 124.687L54.7508 129.062L53.0008 128.437L52.1258 132.062L50.2508 132.937L49.0008 129.562L49.0008 126.062L50.2508 124.687L50.2508 121.812L47.8757 113.562L33.0007 109.812L33.0007 105.437L47.8757 109.812L33.0007 103.812L33.0005 71.0625ZM33.0008 132.937L33.0012 207.062H126.001C113.335 204.354 85.8012 198.862 77.0012 198.562C68.2012 198.262 63.5845 198.021 62.3762 197.937C66.4595 197.229 75.6262 195.837 79.6262 195.937C83.6262 196.037 74.2095 187.396 69.0011 183.062L77.0011 180.062C72.2511 178.229 60.8011 174.437 53.0011 173.937C45.2011 173.437 38.6677 174.479 36.3761 175.062L34.501 172.687L34.501 169.937L42.751 171.062C43.6677 170.854 45.976 170.337 47.876 169.937C49.776 169.537 46.751 166.187 45.001 164.562L61.001 169.937C61.001 168.896 61.001 166.862 61.001 167.062C61.001 167.262 63.1677 168.396 64.251 168.937L64.251 164.562L71.626 167.062L81.001 169.937H86.126C83.4177 168.354 77.501 164.762 75.501 163.062C73.501 161.362 60.8343 150.771 54.7509 145.687L51.0009 143.062L45.0009 142.062L41.6259 138.187L37.0008 136.312L35.5008 134.187L33.0008 132.937Z" stroke="black" stroke-width="2"/>
<path d="M33.0005 66.3125L33.0002 27.0625H52.2502M160.375 27.0625H193L193.001 86.5625M193.001 165.437L193.001 207.062H165.001M128.251 207.062H131.001M133.251 207.062H136.001M138.501 207.062H141.251M143.876 207.062H146.626M149.376 207.062H152.126M154.626 207.062H157.376M159.751 207.062H162.501" stroke="black" stroke-width="2"/>
<path d="M72.3755 83.0625H69.5005L70.5005 77.4373L69.5005 76.0623L71.4259 74.498C71.45 74.4768 71.4751 74.4565 71.5004 74.4375L71.4259 74.498C71.1331 74.7563 70.9894 75.1547 72.3755 75.0623C73.8755 74.9623 77.0004 73.2708 78.3754 72.4375L78.3754 74.4375L85.0004 69.8125L93.0004 64.4373C91.2921 65.6874 88.9004 67.9625 93.0004 67.0625C98.3754 60.1875 106.375 53.8125 106.375 53.8125C106.375 53.8125 103.459 60.7708 102.625 61.8125L106.375 60.1875L105.75 61.8125L110.25 59.0625L109 68.1875L109 69.8125L107.75 70.4375L107.75 73.1875L107.125 72.4375L103.875 74.4375L103.25 73.1875L106.375 71.8125H103.875L102.625 72.4375L99.1255 76.0623L97.0004 73.1875L97.0004 71.0625L97.9802 70.2886L96.2504 71.0625L96.2504 73.1875L97.0004 74.4375L91.7505 76.6875H94.3755L89.0005 78.4375L85.0005 79.0625L81.0005 81.9375L82.5005 79.0625L81.0005 79.9375L81.7505 78.4375L76.3755 80.5625H71.5005L70.5005 81.9375L72.3755 83.0625Z" fill="white"/>
<path d="M75.3755 85.6873H69.0005L67.8755 89.4373H74.5005L79.2505 92.1873C78.0422 91.104 77.7505 89.4373 77.7505 89.4373C79.1255 89.4373 83.1255 92.1873 83.1255 92.1873L87.2506 94.6875C87.2506 94.6875 92.6256 96.2706 94.3756 97.1873L90.0006 98.4373L104.376 107.062L100.001 108.687L111.584 116.896C112.376 116.687 126.501 119.062 126.501 119.062C126.501 119.062 120.876 110.062 117.001 106.187C115.145 104.331 111.751 105.146 109.001 106.187C108.792 105.396 107.126 103.662 107.126 103.062C107.126 102.312 105.001 102.687 103.251 101.062C101.851 99.7623 100.501 99.6873 100.001 99.8123L100.001 98.4373H98.3756L99.1256 97.1873L95.0006 94.0623C93.2089 93.104 88.7505 91.9623 87.7505 91.0623C86.7505 90.1623 84.3339 89.979 82.5005 89.4373H86.3755L93.0005 91.0623L97.0005 92.1873C98.6255 93.229 102.026 95.3873 102.626 95.6873C103.376 96.0623 109.001 98.3123 112.376 101.062C115.076 103.262 122.584 104.979 126.001 105.562L132.126 107.062C130.834 105.896 126.601 102.662 120.001 99.0623C117.884 97.9079 94.3314 88.9673 103.876 91.0623C104.251 91.2706 105.276 91.7873 106.376 92.1873C107.476 92.5873 114.584 93.604 118.001 94.0623C116.542 93.4373 112.701 91.7873 109.001 90.1873C105.301 88.5873 101.751 86.0623 100.001 85.6873C98.9014 86.7864 102.635 90.6352 94.3755 88.3123L96.2505 87.0623L91.7505 86.3123L90.8755 87.0623L87.2505 86.3123L87.2505 87.0623L86.3755 86.3123L83.1255 85.6873L81.7505 86.3123L78.3755 85.6873H75.3755Z" fill="white"/>
<path d="M74.5004 60.1875L76.3754 61.1875L77.7503 56.8125L81.0003 55.0625L80.0003 56.8125L87.7503 53.8125L90.8753 48.8125L91.7503 52.4375L89.0004 59.0625L86.3754 61.8125L81.0004 64.4373L81.0004 61.8125L77.7504 65.4375L72.3754 67.0625L72.3754 68.9373L78.3754 68.1875C83.0421 66.3125 92.6504 62.0875 93.7504 60.1875C94.8504 58.2875 92.8754 59.3958 91.7504 60.1875L96.2503 51.0625L98.3753 53.8125L107.125 37.5625L108.375 40.5625L111 37.5625M69.5005 83.0625H72.3755L70.5005 81.9375L71.5005 80.5625H76.3755L81.7505 78.4375L81.0005 79.9375L82.5005 79.0625L81.0005 81.9375L85.0005 79.0625L89.0005 78.4375L94.3755 76.6875H91.7505L97.0004 74.4375L96.2504 73.1875L96.2504 71.0625L101 68.9373L98.3754 69.9764L97.0004 71.0625L97.0004 73.1875L99.1255 76.0623L102.625 72.4375L103.875 71.8125H106.375L103.25 73.1875L103.875 74.4375L107.125 72.4375L107.75 73.1875L107.75 70.4375L109 69.8125L109 68.1875L110.25 59.0625L105.75 61.8125L106.375 60.1875L102.625 61.8125C103.459 60.7708 106.375 53.8125 106.375 53.8125C106.375 53.8125 98.3754 60.1875 93.0004 67.0625C88.9004 67.9625 91.2921 65.6874 93.0004 64.4373L85.0004 69.8125L78.3754 74.4375L78.3754 72.4375C77.0004 73.2708 73.8755 74.9623 72.3755 75.0623C70.8755 75.1623 71.1671 74.6874 71.5004 74.4375L69.5005 76.0623L70.5005 77.4373L69.5005 83.0625ZM69.0005 85.6873H75.3755H78.3755L81.7505 86.3123L83.1255 85.6873L86.3755 86.3123L87.2505 87.0623L87.2505 86.3123L90.8755 87.0623L91.7505 86.3123L96.2505 87.0623L94.3755 88.3123C102.635 90.6352 98.9014 86.7864 100.001 85.6873C101.751 86.0623 105.301 88.5873 109.001 90.1873C112.701 91.7873 116.542 93.4373 118.001 94.0623C114.584 93.604 107.476 92.5873 106.376 92.1873C105.276 91.7873 104.251 91.2707 103.876 91.0623C94.3314 88.9673 117.884 97.9079 120.001 99.0623C126.601 102.662 130.834 105.896 132.126 107.062L126.001 105.562C122.584 104.979 115.076 103.262 112.376 101.062C109.001 98.3123 103.376 96.0623 102.626 95.6873C102.026 95.3873 98.6255 93.229 97.0005 92.1873L93.0005 91.0623L86.3755 89.4373H82.5005C84.3339 89.979 86.7505 90.1623 87.7505 91.0623C88.7505 91.9623 93.2089 93.104 95.0006 94.0623L99.1256 97.1873L98.3756 98.4373H100.001L100.001 99.8123C100.501 99.6873 101.851 99.7623 103.251 101.062C105.001 102.687 107.126 102.312 107.126 103.062C107.126 103.662 108.792 105.396 109.001 106.187C111.751 105.146 115.145 104.331 117.001 106.187C120.876 110.062 126.501 119.062 126.501 119.062C126.501 119.062 112.376 116.687 111.584 116.896L100.001 108.687L104.376 107.062L90.0006 98.4373L94.3756 97.1873C92.6256 96.2707 87.2506 94.6875 87.2506 94.6875L83.1255 92.1873C83.1255 92.1873 79.1255 89.4373 77.7505 89.4373C77.7505 89.4373 78.0422 91.104 79.2505 92.1873L74.5005 89.4373H67.8755L69.0005 85.6873Z" stroke="black" stroke-width="2"/>
<path d="M82.1256 93.3125L82.1256 95.6875L69.7506 91.0625H66.8756L67.6256 93.3125L72.3756 95.6875L66.8756 95.0625L66.8756 97.6875L80.8757 100.754L78.8757 103.754C78.8757 103.754 70.0414 100.834 68.3757 99.9375C66.9945 99.1938 72.8905 108.571 80.0007 107.062L82.1257 104.562C85.7131 107.448 87.8757 113.062 87.8757 113.062L107.001 124.504L94.1257 111.062L89.0007 106.187L84.1257 101.812L93.0007 104.562L97.0007 110.062L109.626 111.062L100.126 107.062L95.7507 101.812L86.7507 98.8789L86.7506 95.6875L82.1256 93.3125Z" fill="white" stroke="black" stroke-width="2"/>
<path d="M163.376 139.062L165.001 141.187L165.001 142.312L171.501 140.312H178.626L171.501 141.687L171.001 143.062L167.626 144.687L165.001 145.437L169.001 147.812C166.584 146.937 161.176 145.362 158.876 146.062M149.751 149.687L154.001 147.812L154.001 146.062L156.001 143.062C156.001 142.479 156.201 141.287 157.001 141.187C157.801 141.087 160.667 139.729 162.001 139.062L162.751 137.437L162.001 136.812H163.376L165.751 125.562L167.626 116.437L171.501 101.562L165.751 100.062L162.751 101.562L162.001 105.062H159.876L149.751 149.687Z" stroke="black" stroke-width="2"/>
<path d="M47.3756 94.4375L49.0006 93.0625L55.3852 95.0625L57.0006 95.5685L58.2506 90.4553L57.0006 90.0982L53.0006 88.9553L53.0006 86.1875L56.0005 77.1875L57.0005 77.4511L56.0005 73.9375L65.0003 38.4375L63.8753 36.4375L65.6705 35.8125L63.8753 32.9375L63.2503 29.0625H70.6253L73.0003 31.8125L73.0003 35.0625L70.6253 36.4375L71.7503 38.4375L62.2505 75.0625L62.8755 79L69.0005 80.6148L70.6255 77.4511L70.6255 75.0625L78.7503 41.1875L79.6253 40.5625L79.6253 38.4375L79.6253 36.4375L82.2503 35.0625L73.0003 29.8125L74.5002 22.0625H67.3752L79.6251 9.6875H87.2501L75.8029 22.8474L84.2502 27.9375L94.5002 15.0625L101.813 13.375L109.125 11.6875L117.875 27.0625L119 42.4375L122.75 44.75L124.625 45.9062L126.5 47.0625L125.5 53.6875L125 53.3842L122.875 55.0625L122.875 57.4375L115.251 105.062L107.626 106.437L106.876 103.062H106.126L102.501 100.687L105.001 88.5625L111.5 53.3842L109.75 49.0625L115.25 48.3125L119 51.0625L117 53.3842L117 55.0625L109.001 101.562L106.126 103.062H106.876L107.626 106.437L115.251 105.062L122.875 57.4375L122.875 55.0625L125 53.3842L117.875 49.0625L119 42.4375H111.5L110.875 27.9375L101.813 13.375L94.5002 15.0625L84.2502 27.9375L75.8029 22.8474L74.5002 22.0625L73.0003 29.8125L82.2503 35.0625L79.6253 36.4375L79.6253 38.4375L79.6253 40.5625L78.7503 41.1875L70.6255 75.0625L70.6255 77.4511L69.0005 80.6148L69.7505 80.8125L68.0006 88.9553L65.6708 92.5754L67.3756 93.0625L68.0006 95.0625L65.6708 97.5898L68.0006 98.0625L69.0006 100.687L68.0007 103.062L58.2506 100.687L54.063 99.3651L46.3756 96.9375L47.3756 94.4375Z" fill="#C4C4C4"/>
<path d="M50.2506 93.0625L49.6256 91.0625L51.6256 88.5625L53.0006 88.9553M65.6708 97.5898L59.3756 96.3125L57.0006 95.5685M65.6708 97.5898L68.0006 98.0625L69.0006 100.687L68.0007 103.062L58.2506 100.687L54.063 99.3651M65.6708 97.5898L68.0006 95.0625L67.3756 93.0625L65.6708 92.5754M53.0006 88.9553L53.0006 86.1875L56.0005 77.1875L61.0005 78.5057M53.0006 88.9553L57.0006 90.0982M65.6708 92.5754L68.0006 88.9553L69.7505 80.8125L69.0005 80.6148M65.6708 92.5754L58.2506 90.4553M57.0005 77.4511L56.0005 73.9375L65.0003 38.4375L63.8753 36.4375L65.6705 35.8125L63.8753 32.9375L63.2503 29.0625H70.6253L73.0003 31.8125L73.0003 35.0625L70.6253 36.4375L71.7503 38.4375L62.2505 75.0625L62.8755 79M62.8755 79L69.0005 80.6148M62.8755 79L61.0005 78.5057M69.0005 80.6148L70.6255 77.4511L70.6255 75.0625L78.7503 41.1875L79.6253 40.5625L79.6253 38.4375L79.6253 36.4375L82.2503 35.0625L73.0003 29.8125L74.5002 22.0625M74.5002 22.0625H67.3752M74.5002 22.0625L75.8029 22.8474M84.2502 27.9375L82.7503 35.0625M84.2502 27.9375L94.5002 15.0625L101.813 13.375M84.2502 27.9375L75.8029 22.8474M109.125 11.6875L117.875 27.0625M109.125 11.6875L101.813 13.375M109.125 11.6875L110.875 5.3125M119 42.4375L117.875 49.0625L125 53.3842M119 42.4375L117.875 27.0625M119 42.4375H111.5M119 42.4375L122.75 44.75L124.625 45.9062M117.875 27.0625L110.875 27.9375M125 53.3842L125.5 53.6875L126.5 47.0625L124.625 45.9062M125 53.3842L122.875 55.0625L122.875 57.4375L115.251 105.062L107.626 106.437L106.876 103.062H106.126M106.126 103.062L109.001 101.562L117 55.0625L117 53.3842L119 51.0625L115.25 48.3125L109.75 49.0625L111.5 53.3842L105.001 88.5625L102.501 100.687L106.126 103.062ZM110.875 48.3125L111.5 42.4375M111.5 42.4375L110.875 27.9375M110.875 27.9375L101.813 13.375M65.0002 22.0625H67.3752M67.3752 22.0625L79.6251 9.6875H87.2501L75.8029 22.8474M124.625 45.9062L123.625 31.0625M61.0005 78.5057L57.0006 90.0982M57.0006 90.0982L58.2506 90.4553M58.2506 90.4553L57.0006 95.5685M57.0006 95.5685L55.3852 95.0625M55.3852 95.0625L49.0006 93.0625L47.3756 94.4375L46.3756 96.9375L54.063 99.3651M55.3852 95.0625L54.063 99.3651" stroke="black" stroke-width="2"/>
<path d="M161.001 104.562L170.501 107.062L169.751 109.062L182.501 111.062L177.001 113.312H182.501L179.149 113.93L197.001 119.062L207.501 121.062L202.001 123.062L193.001 121.062L173.001 115.062L179.149 113.93L177.001 113.312H169.001L169.751 109.062L169.001 111.062L159.251 108.562L161.001 104.562Z" fill="#E02323"/>
<path d="M137.001 109.062L145.001 111.062L145.001 113.062L153.001 115.062L151.751 119.062H155.751L154.751 123.062H149.001L150.501 116.812H143.251L144.214 114.748L135.001 111.062L137.001 109.062Z" fill="#E02323"/>
<path d="M177.001 123.062H166.251L167.501 119.062H179.751L177.001 123.062Z" fill="#E02323"/>
<path d="M33.0005 75.0625L41.0005 77.8125L40.3755 79.3125L49.0005 83.0625L46.7505 84.8125L53.0006 87.0625L51.0006 88.8125L43.0005 84.8125L45.0005 83.0625H39.7505L40.3755 79.3125L39.7505 80.8125L33.0005 79.0625L33.0005 75.0625Z" fill="#E02323"/>
<path d="M169.751 109.062L170.501 107.062L161.001 104.562L159.251 108.562L169.001 111.062L169.751 109.062ZM169.751 109.062L182.501 111.062L177.001 113.312L197.001 119.062L207.501 121.062L202.001 123.062L193.001 121.062L173.001 115.062L182.501 113.312H169.001L169.751 109.062ZM145.001 113.062L145.001 111.062L137.001 109.062L135.001 111.062L145.001 115.062L145.001 113.062ZM145.001 113.062L153.001 115.062L151.751 119.062H155.751L154.751 123.062H149.001L150.501 116.812H143.251L145.001 113.062ZM40.3755 79.3125L41.0005 77.8125L33.0005 75.0625L33.0005 79.0625L39.7505 80.8125L40.3755 79.3125ZM40.3755 79.3125L49.0005 83.0625L46.7505 84.8125L53.0006 87.0625L51.0006 88.8125L43.0005 84.8125L45.0005 83.0625H39.7505L40.3755 79.3125ZM166.251 123.062H177.001L179.751 119.062H167.501L166.251 123.062Z" stroke="black" stroke-width="2"/>
<circle cx="4.125" cy="4.125" r="3.125" transform="matrix(1 0 5.51922e-06 1 152.751 103.062)" stroke="black" stroke-width="2"/>
<rect width="1" height="1" transform="matrix(1 0 5.51922e-06 1 103.5 24.9375)" fill="white"/>
<rect width="1" height="1" transform="matrix(1 0 5.51922e-06 1 94.5002 30.0625)" fill="white"/>
<rect width="1" height="1" transform="matrix(1 0 5.51922e-06 1 104.5 48.9375)" fill="white"/>
<rect width="1" height="1" transform="matrix(1 0 5.51922e-06 1 83.9958 38.0625)" fill="white"/>
<path d="M21.0007 143L1.00073 143L1.00051 159L9.00039 167.5L1.00028 175L1.00005 191L11.0001 191L21.0001 191L21.0007 143Z" fill="#FF4B3C"/>
<path d="M21.0007 143L1.00073 143L1.00051 159L9.00039 167.5L1.00028 175L1.00005 191L11.0001 191L21.0001 191L21.0007 143Z" fill="black" fill-opacity="0.2"/>
<path d="M21.0007 143L1.00073 143L1.00051 159L9.00039 167.5L1.00028 175L1.00005 191L11.0001 191L21.0001 191L21.0007 143Z" stroke="black" stroke-width="2"/>
<path d="M13.0001 151L21.0002 143L21.0001 151L13.0001 151Z" fill="black" fill-opacity="0.38" stroke="black" stroke-width="2" stroke-linejoin="bevel"/>
<path d="M205 143L225 143L225 159L217.001 167.5L225.001 175L225.001 191L215.001 191L205.001 191L205 143Z" fill="#FF4B3C"/>
<path d="M205 143L225 143L225 159L217.001 167.5L225.001 175L225.001 191L215.001 191L205.001 191L205 143Z" fill="black" fill-opacity="0.2"/>
<path d="M205 143L225 143L225 159L217.001 167.5L225.001 175L225.001 191L215.001 191L205.001 191L205 143Z" stroke="black" stroke-width="2"/>
<path d="M213.002 151L205.002 143L205.002 151L213.002 151Z" fill="black" fill-opacity="0.38" stroke="black" stroke-width="2" stroke-linejoin="bevel"/>
<path d="M212.99 150.977L12.9905 150.977L12.9898 198.977L212.99 198.977L212.99 150.977Z" fill="#FF4B3C" stroke="black" stroke-width="2"/>
<path d="M32.5059 184.452L34.7019 183.696L34.7021 166.56L32.5061 165.804L32.5062 164.256L42.1182 164.256C43.9902 164.256 45.3822 164.676 46.2941 165.516C47.2061 166.332 47.6621 167.772 47.6621 169.836C47.6621 171.18 47.3501 172.188 46.726 172.86C46.102 173.508 45.334 174.048 44.422 174.48L44.422 174.696C45.814 174.936 46.93 175.5 47.77 176.388C48.61 177.276 49.03 178.392 49.0299 179.736C49.0299 181.992 48.4299 183.6 47.2299 184.56C46.0539 185.52 44.4699 186 42.4779 186L32.5059 186L32.5059 184.452ZM40.894 174.012C41.854 174.012 42.55 173.772 42.982 173.292C43.414 172.812 43.6301 171.864 43.6301 170.448C43.6301 168.888 43.5101 167.772 43.2701 167.1C43.0541 166.428 42.6581 166.116 42.0821 166.164L38.6261 166.596L38.626 174.012L40.894 174.012ZM42.9459 184.056C43.6659 184.128 44.1819 183.804 44.4939 183.084C44.8059 182.34 44.9619 181.08 44.962 179.304C44.962 178.392 44.842 177.72 44.602 177.288C44.386 176.856 44.074 176.58 43.666 176.46C43.282 176.34 42.73 176.28 42.01 176.28L38.626 176.28L38.6259 183.588L42.9459 184.056ZM57.0008 186.36C55.9448 186.36 54.9728 186.072 54.0848 185.496C53.2208 184.896 52.5248 184.008 51.9968 182.832C51.4928 181.656 51.2408 180.216 51.2409 178.512C51.2409 177.384 51.3249 176.34 51.4929 175.38C51.6609 174.396 51.8769 173.628 52.1409 173.076C52.549 172.524 53.449 171.78 54.841 170.844C56.257 169.908 57.193 169.44 57.649 169.44C57.913 169.44 58.849 169.56 60.457 169.8C62.065 170.016 63.301 170.196 64.165 170.34L64.1648 183.696L65.4248 184.2L65.4248 185.748C63.2408 186.156 62.0288 186.36 61.7888 186.36C61.6928 186.36 61.4528 186.18 61.0688 185.82C60.7088 185.46 60.5288 185.22 60.5288 185.1L60.5288 183.804C58.3448 185.508 57.1688 186.36 57.0008 186.36ZM57.3968 183.444C57.6368 183.444 58.6448 183 60.4208 182.112L60.421 172.428C59.845 172.212 59.113 172.02 58.225 171.852C57.361 171.66 56.785 171.588 56.497 171.636C56.065 171.732 55.741 172.272 55.5249 173.256C55.3089 174.24 55.2009 175.884 55.2009 178.188C55.2009 179.34 55.3208 180.312 55.5608 181.104C55.8248 181.896 56.1248 182.484 56.4608 182.868C56.8208 183.252 57.1328 183.444 57.3968 183.444ZM70.1419 186.36C70.0219 186.36 69.7699 186.18 69.3859 185.82C69.0259 185.46 68.8459 185.22 68.8459 185.1L68.8461 172.032L67.5141 171.564L67.5141 170.052C69.6501 169.668 70.8381 169.476 71.0781 169.476C71.1981 169.476 71.4621 169.68 71.8701 170.088C72.3021 170.472 72.5181 170.712 72.5181 170.808L72.4461 172.14C74.1981 170.244 75.1461 169.296 75.2901 169.296C75.7221 169.296 76.5501 169.488 77.7741 169.872C77.8461 170.04 77.9061 170.244 77.9541 170.484C78.0021 170.7 78.0261 170.904 78.0261 171.096C78.0261 171.288 77.8581 171.708 77.5221 172.356C77.2101 172.98 77.0061 173.316 76.9101 173.364C75.9741 173.004 75.3141 172.824 74.9301 172.824C74.7621 172.824 74.4501 172.932 73.9941 173.148C73.5381 173.34 73.0701 173.58 72.5901 173.868L72.5899 183.48L74.5339 184.056L74.5339 185.712C71.8459 186.144 70.3819 186.36 70.1419 186.36ZM84.9271 192.552C84.8311 192.552 84.6511 192.324 84.3871 191.868C84.1471 191.412 84.0271 191.112 84.0271 190.968L85.7192 185.964C85.0952 186.06 84.7232 186.108 84.6032 186.108C84.5312 186.108 84.3392 186 84.0272 185.784L80.2834 172.032L78.8434 171.636L78.8434 170.016C80.9554 169.68 82.1194 169.512 82.3354 169.512C82.4554 169.512 82.7194 169.656 83.1274 169.944C83.5354 170.232 83.7634 170.46 83.8114 170.628L85.7913 178.944L86.5112 182.724L86.8712 182.724L89.7514 171.924L87.5554 171.672L87.5554 169.8L92.0914 169.512C92.2354 169.512 92.4514 169.692 92.7394 170.052C93.0514 170.412 93.1954 170.676 93.1714 170.844L88.4192 185.892L87.4111 189.924L88.9231 190.572L88.8871 192.084C86.4631 192.396 85.1431 192.552 84.9271 192.552ZM102.469 186.36C99.901 186.36 97.969 185.724 96.6731 184.452C95.3771 183.156 94.7291 181.164 94.7291 178.476C94.7292 177.396 94.8132 176.352 94.9812 175.344C95.1492 174.336 95.3652 173.592 95.6292 173.112C95.8932 172.752 96.4212 172.272 97.2132 171.672C98.0053 171.048 98.8093 170.508 99.6253 170.052C100.441 169.572 100.993 169.332 101.281 169.332C103.777 169.332 105.661 169.992 106.933 171.312C108.205 172.608 108.841 174.504 108.841 177C108.841 178.152 108.757 179.244 108.589 180.276C108.445 181.284 108.253 182.1 108.013 182.724C107.605 183.252 106.681 183.996 105.241 184.956C103.825 185.892 102.901 186.36 102.469 186.36ZM102.613 184.164C102.757 184.116 103.321 183.84 104.305 183.336C104.689 181.632 104.881 179.676 104.881 177.468C104.881 175.668 104.557 174.24 103.909 173.184C103.285 172.104 102.349 171.564 101.101 171.564C100.573 171.564 100.141 171.648 99.8052 171.816C99.4692 171.984 99.1932 172.608 98.9772 173.688C98.7852 174.768 98.6892 176.196 98.6892 177.972C98.6891 180.276 99.0611 181.884 99.8051 182.796C100.573 183.708 101.509 184.164 102.613 184.164ZM113.806 186.36C113.686 186.36 113.434 186.18 113.05 185.82C112.69 185.46 112.51 185.22 112.51 185.1L112.51 172.104L111.178 171.564L111.178 170.052C113.434 169.668 114.682 169.476 114.922 169.476C115.042 169.476 115.27 169.656 115.606 170.016C115.942 170.352 116.11 170.58 116.11 170.7L116.11 171.96C116.806 171.432 117.562 170.892 118.378 170.34C119.194 169.764 119.65 169.476 119.746 169.476C121.498 169.476 122.818 169.92 123.706 170.808C124.594 171.672 125.038 173.196 125.038 175.38L125.038 183.66L126.334 184.2L126.334 185.712C124.102 186.144 122.878 186.36 122.662 186.36C122.542 186.36 122.278 186.18 121.87 185.82C121.486 185.46 121.294 185.22 121.294 185.1L121.294 175.38C121.294 173.364 120.67 172.356 119.422 172.356C119.302 172.356 118.978 172.464 118.45 172.68C117.946 172.896 117.574 173.052 117.334 173.148C117.094 173.268 116.734 173.424 116.254 173.616L116.254 183.66L117.514 184.2L117.514 185.712C115.282 186.144 114.046 186.36 113.806 186.36ZM142.807 186.36C140.335 186.36 138.355 185.484 136.867 183.732C135.379 181.98 134.635 179.388 134.635 175.956C134.635 174.348 134.731 172.872 134.923 171.528C135.115 170.184 135.379 169.092 135.715 168.252C136.123 167.676 136.759 167.052 137.623 166.38C138.487 165.708 139.351 165.132 140.215 164.652C141.103 164.172 141.739 163.932 142.123 163.932C142.915 163.956 144.115 164.028 145.723 164.148C147.355 164.244 148.675 164.34 149.683 164.436L149.251 170.772L147.091 170.772L146.659 167.136C146.059 167.016 145.171 166.896 143.995 166.776C142.843 166.656 142.027 166.596 141.547 166.596C141.091 166.596 140.719 166.668 140.431 166.812C139.903 167.076 139.483 167.928 139.171 169.368C138.883 170.784 138.739 172.596 138.739 174.804C138.739 178.092 139.099 180.396 139.819 181.716C140.539 183.012 141.559 183.66 142.879 183.66L146.587 183.3L146.587 177.828L143.239 177.216L143.239 175.38L152.023 175.38L152.023 176.964L150.079 177.432L150.079 183.912C149.575 184.248 148.327 184.74 146.335 185.388C144.367 186.036 143.191 186.36 142.807 186.36ZM174.486 186.36C174.198 186.36 173.838 186.18 173.406 185.82C172.974 185.46 172.59 185.04 172.254 184.56C171.918 184.08 171.75 183.696 171.75 183.408L171.75 171.888L169.41 171.888L169.41 170.592L171.75 169.476L174.09 166.704C174.306 166.68 174.774 166.848 175.494 167.208L175.494 169.8L179.022 169.8L179.022 172.032L175.494 172.032L175.494 181.824C175.494 182.52 175.554 183 175.674 183.264C175.794 183.504 176.022 183.624 176.358 183.624L179.382 183.732L179.382 185.64C178.638 185.808 177.702 185.964 176.574 186.108C175.47 186.276 174.774 186.36 174.486 186.36ZM187.301 186.36C186.173 186.36 185.129 186.072 184.169 185.496C183.233 184.92 182.477 184.056 181.901 182.904C181.349 181.752 181.073 180.348 181.073 178.692C181.073 177.516 181.157 176.412 181.325 175.38C181.493 174.348 181.709 173.58 181.973 173.076C182.237 172.716 182.765 172.236 183.557 171.636C184.349 171.012 185.141 170.472 185.933 170.016C186.749 169.56 187.313 169.332 187.625 169.332C188.945 169.332 190.025 169.548 190.865 169.98C191.705 170.412 192.353 171.228 192.809 172.428C193.265 173.604 193.493 175.272 193.493 177.432L184.997 178.152C184.997 179.472 185.165 180.528 185.501 181.32C185.861 182.112 186.281 182.676 186.761 183.012C187.241 183.348 187.697 183.516 188.129 183.516L192.953 183.336L192.953 184.956C192.113 185.244 191.045 185.556 189.749 185.892C188.453 186.204 187.637 186.36 187.301 186.36ZM189.641 175.884C189.641 173.052 188.897 171.624 187.409 171.6L187.121 171.6C186.737 171.6 186.389 171.66 186.077 171.78C185.789 171.876 185.549 172.404 185.357 173.364C185.165 174.3 185.069 175.344 185.069 176.496L189.641 175.884Z" fill="#9E3333"/>
<path d="M159.833 186.36C158.777 186.36 157.805 186.072 156.917 185.496C156.053 184.896 155.357 184.008 154.829 182.832C154.325 181.656 154.073 180.216 154.073 178.512C154.073 177.384 154.157 176.34 154.325 175.38C154.493 174.396 154.709 173.628 154.973 173.076C155.381 172.524 156.281 171.78 157.673 170.844C159.089 169.908 160.025 169.44 160.481 169.44C160.745 169.44 161.681 169.56 163.289 169.8C164.897 170.016 166.133 170.196 166.997 170.34L166.997 183.696L168.257 184.2L168.257 185.748C166.073 186.156 164.861 186.36 164.621 186.36C164.525 186.36 164.285 186.18 163.901 185.82C163.541 185.46 163.361 185.22 163.361 185.1L163.361 183.804C161.177 185.508 160.001 186.36 159.833 186.36ZM160.229 183.444C160.469 183.444 161.477 183 163.253 182.112L163.253 172.428C162.677 172.212 161.945 172.02 161.057 171.852C160.193 171.66 159.617 171.588 159.329 171.636C158.897 171.732 158.573 172.272 158.357 173.256C158.141 174.24 158.033 175.884 158.033 178.188C158.033 179.34 158.153 180.312 158.393 181.104C158.657 181.896 158.957 182.484 159.293 182.868C159.653 183.252 159.965 183.444 160.229 183.444Z" fill="#CA3D3D"/>
<defs>
<linearGradient id="paint0_linear_1_3921" x1="80" y1="0" x2="80" y2="180" gradientUnits="userSpaceOnUse">
<stop stop-color="#FF0099"/>
<stop offset="1" stop-color="#0047FF" stop-opacity="0"/>
</linearGradient>
<linearGradient id="paint1_linear_1_3921" x1="103.25" y1="56.0625" x2="73.7506" y2="84.5625" gradientUnits="userSpaceOnUse">
<stop stop-color="#0038FF"/>
<stop offset="1"/>
</linearGradient>
</defs>
</svg>
