<svg width="226" height="224" viewBox="0 0 226 224" fill="none" xmlns="http://www.w3.org/2000/svg">
<rect width="160" height="124" transform="matrix(1 0 5.51922e-06 1 33 27)" fill="white"/>
<path d="M33.5 27.7601H193.001L193.001 75.9028C193.001 75.9028 168.592 63.0951 151.5 60.4999C111.75 54.4642 92.0004 104 54.5004 94.9999C43.7215 92.4129 33.5003 75.9028 33.5003 75.9028L33.5 27.7601Z" fill="url(#paint0_linear_3379_7734)"/>
<path d="M34.0007 118.125C45.4998 115.826 55.7507 127.375 66.5007 113.375L42.0006 111.375C70.2367 99.2043 83.3195 118.125 111.751 118.125C121.351 118.125 121.251 116.458 120.001 115.625L123.501 119.375L124.751 115.625C131.334 113.125 148.001 108.175 162.001 108.375C176.001 108.575 171.334 98.125 167.251 92.875L178.001 96.375L178.001 92.875H181.251L181.251 89.625L172.25 83.875L174.25 82.125L183.751 87.375H199.751" stroke="black" stroke-width="2"/>
<path d="M141.25 42.8742C141.25 42.8742 151.25 40.1252 158.25 41.75C165.25 43.3748 170 45.8746 170 50.3746L171 47.3747L173 53.3746L176 55.3746L174 57.3746L175 58.3746L175 62.3746L173 66.3746L172 65.3746L170 71.3746L166 72.3746L161 82.3747L155 80.3747L154 78.375L155 67.3746L153 65.3746L153 62.3746L149 66.3746C148.286 69.5892 144.5 77.625 145.25 80.875C146.201 84.9957 149 85.2402 149 90L163 91.3747L165 94.3747L165 99.3747L159 102.375L159 98.3747L146.375 100.375L147.25 107.375L155 108.5L155 116.125H142.25L134 105.375C122.21 111.925 108.589 110.279 100 106.375C94.8909 104.052 93.3833 101.308 93.0003 99.4657L93.0004 106.375L93.0004 121.375L105.625 129.125L101.001 132.375L85.0005 123.375L84.0004 114.375L73.0004 121.375L73.0005 136.375L70.0005 133.375H65.0005L65.0004 118.375L74.0004 110.375L74.0004 106.375C60.5003 92.625 67.8125 71.3738 86.5002 71.3746C97.7893 71.3751 102.125 76 120 70.3746C120 70.3746 126.758 54.6104 135.375 48.9994C138.926 46.6869 145.25 44.4995 145.25 44.4995L141.25 42.8742Z" fill="#515151"/>
<path d="M153 62.3746L153 65.3746L155 67.3746L154 78.375L155 80.3747L161 82.3747L166 72.3746L170 71.3746L172 65.3746L173 66.3746L175 62.3746L175 58.3746L174 57.3746L176 55.3746L173 53.3746L171 47.3747L170 50.3746C170 45.8746 165.25 43.3748 158.25 41.75C151.25 40.1252 141.25 42.8742 141.25 42.8742L145.25 44.4995C145.25 44.4995 138.926 46.6869 135.375 48.9994C126.758 54.6104 120 70.3746 120 70.3746C102.125 76 97.7893 71.3751 86.5002 71.3746C67.8125 71.3738 60.5003 92.625 74.0004 106.375L74.0004 110.375L65.0004 118.375L65.0005 133.375H70.0005L73.0005 136.375L73.0004 121.375L84.0004 114.375M153 62.3746L154 57.3746H156M153 62.3746L149 66.3746C148.286 69.5892 144.5 77.625 145.25 80.875C146.201 84.9957 149 85.2402 149 90M149 90L163 91.3747L165 94.3747L165 99.3747L159 102.375L159 98.3747L146.375 100.375M149 90L146.375 100.375M146.375 100.375L147.25 107.375L155 108.5L155 116.125H142.25L134 105.375C122.21 111.925 108.589 110.279 100 106.375C91.4113 102.471 93.0003 97.3747 93.0003 97.3747L93.0004 106.375L93.0004 121.375L105.625 129.125L101.001 132.375L85.0005 123.375L84.0004 114.375M146.375 100.375L143 93.3747M84.0004 114.375C88.0004 112.375 92.9337 107.375 92.9337 107.375" stroke="black" stroke-width="2"/>
<path d="M89.2103 130.375C86.8435 130.375 78.3628 134.375 74.4183 136.375C69.4281 130.722 63.6912 129.878 56.6679 132.375C65.3823 123.538 33.0852 132.344 33.0007 132.375L33.0011 207H193.001L193 88.875C185.764 89.1825 181.361 92.4482 178.948 99.375C169.539 96.4218 159.914 99.6771 153.309 106.375L153.309 118.375L141.475 125.875L126.683 121.375L124.711 123.875L138.517 129.375C134.586 130.039 130.549 130.395 126.683 131.375C122.739 132.375 110.905 128.375 106.961 128.375C103.016 128.375 100.058 134.375 98.0855 133.375C96.1132 132.375 92.1687 130.375 89.2103 130.375Z" fill="#C4C4C4" stroke="black" stroke-width="2"/>
<path d="M166 65.375L165 69.375" stroke="black" stroke-width="2"/>
<path d="M71.0001 79.3751L69.0001 81.3756C49.8892 75.0053 50.3752 108.375 25.5001 89.3756C37.6113 89.3662 56.8749 50.1251 71.0001 79.3751Z" fill="#515151" stroke="black" stroke-width="2"/>
<path d="M121.001 69.4998L118 71.3748C118.486 71.9833 123.5 78.625 123.5 78.625L127 76.9375L127 84.3748C127 84.3748 121.291 98.7324 121.001 103.375C120.711 108.017 128 110.375 128 110.375L115 108.375L116 103.375L117.001 85.3748L103.125 72.7498L99.5002 67.4998L117.999 37.8748L122 38.3748L120 35.4998L124.125 33.1248C124.125 33.1248 124.938 30.7505 127.312 30.2189C129.687 29.6873 131.312 31.0623 131.312 31.0623L134.999 33.1248L133 36.2498L130 44.7498L125.875 42.7498L127.625 48.3748L131.188 52.5623L127.625 56.6874L135 60.3748L139 61.3748L141.001 62.3748L138 66.8748L133 64.3748L118.938 61.75L117.5 63.25L117.5 66.0962C120.938 67.688 121.001 69.4998 121.001 69.4998Z" fill="#C4C4C4"/>
<path d="M125.875 42.7498L130 44.7498L133 36.2498L134.999 33.1248L131.312 31.0623C131.312 31.0623 129.687 29.6873 127.312 30.2189C124.938 30.7505 124.125 33.1248 124.125 33.1248L120 35.4998L122 38.3748L117.999 37.8748L99.5002 67.4998L103.125 72.7498L117.001 85.3748L116 103.375L115 108.375L128 110.375C128 110.375 120.711 108.017 121.001 103.375C121.291 98.7324 127 84.3748 127 84.3748L127 76.9375L123.5 78.625C123.5 78.625 118.486 71.9833 118 71.3748L121.001 69.4998C121.001 69.4998 120.875 65.8748 111.25 64.3748M125.875 42.7498L125.125 55.9375L127.625 56.6874M125.875 42.7498L127.625 48.3748L131.188 52.5623L127.625 56.6874M118.938 61.75L133 64.3748L138 66.8748L141.001 62.3748L139 61.3748L135 60.3748L127.625 56.6874M118.938 61.75C117.856 57.4264 117.5 51.5623 117.999 47.3748M118.938 61.75L117.5 63.25L117.5 66.8748" stroke="black" stroke-width="2"/>
<path d="M122.001 100.375L118.001 99.375L114 95.375L116.001 103.375" stroke="black" stroke-width="2"/>
<path d="M125.438 88.625H121.25L117.563 86.4375L117.563 89.5L115 88.0625L116.751 93.375" stroke="black" stroke-width="2"/>
<path d="M146.875 49L146.875 54.375L143 52.75L145 56.75L140.875 58.25L143 62.375L135.125 71.375L129.125 74.5L127.375 71.375L127.375 75.875L123.125 77.625" stroke="black" stroke-width="2"/>
<path d="M151.5 50.75L154 47.625L155.5 50H159.875L164.25 51.5L164.25 53.875L162 57.125L163.5 57.75L164.25 61.5H169.125L173 66.5" stroke="black" stroke-width="2"/>
<path d="M120 74C120 74 115.95 74.4836 114 76C112.459 77.1988 111.001 80 111.001 80" stroke="black" stroke-width="2"/>
<path d="M125.625 77.1875C125.625 77.1875 117.813 77.4997 119.438 81.3747C117.897 82.5735 116.438 85.3747 116.438 85.3747" stroke="black" stroke-width="2"/>
<path d="M112.437 74.6253C112.437 74.6253 116.187 73.6878 117.125 70.3128L108.813 63.875L112.813 59.375C112.042 59.4791 110.25 59.525 109.25 58.875C108.25 58.225 104.208 61.1875 102.313 62.75L100.813 66.375C100.813 66.375 100.687 73.0003 103 78.1253C106.312 79.0628 109.687 76.4378 109.687 76.4378L106.75 69.8128L112.437 74.6253Z" fill="#C4C4C4" stroke="black" stroke-width="2"/>
<path d="M114.875 83.125L108.125 83.875L102.625 80.75L103.375 86.5L98.6251 87.25L95.25 71.5" stroke="black" stroke-width="2"/>
<path d="M116.5 85.875L107.5 87.375L107.5 89.125L95.1251 91.25L91.375 71.5" stroke="black" stroke-width="2"/>
<path d="M103.188 107.625L100.125 90.125" stroke="black" stroke-width="2"/>
<path d="M129.376 107.375L125.75 88.125" stroke="black" stroke-width="2"/>
<path d="M141 61.375L139 59.375L135 60.375L134 62.375L130 61.375L133 64.375L138 67.0625L141 66.375H141.438L138 65.375L139 63.375L142 64.375M140 62.375H143" stroke="black" stroke-width="2"/>
<path d="M111.999 39.375L121.999 38.75C121.999 38.75 116.2 46.375 109 58.375C101.8 70.375 64.9168 54.5417 55.2501 53.875C66.4207 50.4582 65.0882 47.2431 62.2885 45.2349C60.8633 44.6066 59.4325 43.905 58 43.1248C58 43.1248 60.4579 43.9218 62.2885 45.2349C88.7212 56.8882 113.258 43.358 111.999 39.375Z" fill="#FF4B3C" stroke="black" stroke-width="2"/>
<path d="M71.0001 71.375C67.5224 53.9868 60.0007 64.375 60.0007 64.375L52.5206 48.3624C70.7406 55.2968 103.479 64.9366 112 39.375L115.75 39.0625L116.75 32.0625L129.25 40.4375L119.125 43.0625C104.247 62.6233 99.146 73.3161 71.0001 71.375Z" fill="#FF4B3C" stroke="black" stroke-width="2"/>
<path d="M121.156 38.9062L117 42.0469L116.656 45.8594L118.375 45.75L116.453 45.9375L116.125 49.125C116.125 49.125 117.438 52.6875 122.313 52.4375C127.188 52.1875 128 48.375 128 48.375L127.359 44.9687L127.159 44.9827L126.125 41.375L121.156 38.9062Z" fill="#C4C4C4" stroke="black" stroke-width="2"/>
<path d="M121.641 42.9062L122.313 49.5625" stroke="black" stroke-width="2"/>
<path d="M124.188 45.2031L119.641 45.625" stroke="black" stroke-width="2"/>
<path d="M164.001 77.125L154.626 74C152.209 69.75 145.975 61.025 140.375 60.125C140.375 64.5 133.125 66.75 154.001 77.75" stroke="black" stroke-width="2"/>
<path d="M200.501 111.375C188.917 113.792 164.501 119.125 159.501 121.125C154.501 123.125 157.417 126.125 159.501 127.375L181.751 123.875L176.251 128.625C177.417 129.958 179.401 133.625 178.001 137.625C174.396 147.925 157.251 150.674 157.251 163.125" stroke="black" stroke-width="2"/>
<path d="M154 130.375L142.75 132.375C155.378 131.133 165.794 138.582 154.001 150.375C148.001 156.375 144.876 159 144.876 163.125" stroke="black" stroke-width="2"/>
<path d="M136.501 133.875C128.001 135.625 109.451 139.675 103.251 141.875C97.0509 144.075 102.501 143.792 106.001 143.375C110.334 142.792 119.201 142.725 120.001 147.125C121.444 155.065 103.252 154.79 103.251 163.125" stroke="black" stroke-width="2"/>
<path d="M26.0005 136.875C31.9172 135.875 45.2748 134.059 51.2505 135.375C58.063 136.875 57.313 139.062 57.313 139.062L68.7505 138.125C67.5005 140.375 64.0005 145.375 60.0006 147.375C56.0006 149.375 34.5006 161.542 24.2507 167.375C36.334 162.542 62.6506 152.325 71.2506 150.125" stroke="black" stroke-width="2"/>
<path d="M78.2505 148.125C81.1672 147.292 88.0505 145.425 92.2505 144.625" stroke="black" stroke-width="2"/>
<path d="M9.56301 140.875C9.56301 140.875 17.188 138.562 23.563 137.375" stroke="black" stroke-width="2"/>
<path d="M47.4689 39.7194C49.4375 39.7194 52.0313 40.4687 55.4065 42.0632" stroke="black" stroke-width="2"/>
<path d="M178.001 137.743C178.726 136.419 180.44 133.451 181.485 132.18" stroke="black" stroke-width="2"/>
<path d="M112.751 125.625C116.001 129.125 124.001 131.375 124.001 131.375" stroke="black" stroke-width="2"/>
<path d="M76.9377 59.8152L78.9645 59.8148" stroke="black" stroke-width="2"/>
<path d="M81.7194 59.5962L83.7462 59.5958" stroke="black" stroke-width="2"/>
<path d="M86.4074 59.4087L88.4342 59.4083" stroke="black" stroke-width="2"/>
<path d="M90.8854 59.2095L92.9123 59.2091" stroke="black" stroke-width="2"/>
<path d="M193 67.2833L193 65.2188" stroke="black" stroke-width="2"/>
<path d="M193 71.2364L193 69.1719" stroke="black" stroke-width="2"/>
<path d="M193 75.1895L193 73.125" stroke="black" stroke-width="2"/>
<path d="M193 79.1427L193 77.0781" stroke="black" stroke-width="2"/>
<path d="M193 83.0958L193 81.0312" stroke="black" stroke-width="2"/>
<path d="M193 87.0489L193 84.9844" stroke="black" stroke-width="2"/>
<path d="M193 91.002L193 88.9375" stroke="black" stroke-width="2"/>
<path d="M193 94.9552L193 92.8906" stroke="black" stroke-width="2"/>
<path d="M32.7344 49.9697C49.2692 49.9697 56.2271 59.8754 74.4464 59.8754" stroke="black" stroke-width="2"/>
<path d="M193.001 62.875L193.001 27H33.2656L33.2659 81" stroke="black" stroke-width="2"/>
<path d="M21.0005 143L1.00049 143L1.00026 159L9.00014 167.5L1.00003 175L0.999808 191L10.9998 191L20.9998 191L21.0005 143Z" fill="#FF4B3C"/>
<path d="M21.0005 143L1.00049 143L1.00026 159L9.00014 167.5L1.00003 175L0.999808 191L10.9998 191L20.9998 191L21.0005 143Z" fill="black" fill-opacity="0.2"/>
<path d="M21.0005 143L1.00049 143L1.00026 159L9.00014 167.5L1.00003 175L0.999808 191L10.9998 191L20.9998 191L21.0005 143Z" stroke="black" stroke-width="2"/>
<path d="M12.9999 151L21 143L20.9999 151L12.9999 151Z" fill="black" fill-opacity="0.38" stroke="black" stroke-width="2" stroke-linejoin="bevel"/>
<path d="M205 143L225 143L225 159L217 167.5L225 175L225.001 191L215.001 191L205.001 191L205 143Z" fill="#FF4B3C"/>
<path d="M205 143L225 143L225 159L217 167.5L225 175L225.001 191L215.001 191L205.001 191L205 143Z" fill="black" fill-opacity="0.2"/>
<path d="M205 143L225 143L225 159L217 167.5L225 175L225.001 191L215.001 191L205.001 191L205 143Z" stroke="black" stroke-width="2"/>
<path d="M213.002 151L205.002 143L205.002 151L213.002 151Z" fill="black" fill-opacity="0.38" stroke="black" stroke-width="2" stroke-linejoin="bevel"/>
<path d="M212.99 150.977L12.9902 150.977L12.9896 198.977L212.99 198.977L212.99 150.977Z" fill="#FF4B3C" stroke="black" stroke-width="2"/>
<path d="M31.7831 186.36C29.3111 186.36 27.3311 185.484 25.8431 183.732C24.3551 181.98 23.6112 179.388 23.6112 175.956C23.6112 174.348 23.7073 172.872 23.8993 171.528C24.0913 170.184 24.3553 169.092 24.6913 168.252C25.0993 167.676 25.7353 167.052 26.5994 166.38C27.4634 165.708 28.3274 165.132 29.1914 164.652C30.0794 164.172 30.7154 163.932 31.0994 163.932C31.8914 163.956 33.0914 164.028 34.6994 164.148C36.3314 164.244 37.6514 164.34 38.6594 164.436L38.2273 170.772L36.0673 170.772L35.6353 167.136C35.0353 167.016 34.1474 166.896 32.9714 166.776C31.8194 166.656 31.0034 166.596 30.5234 166.596C30.0674 166.596 29.6954 166.668 29.4074 166.812C28.8793 167.076 28.4593 167.928 28.1473 169.368C27.8593 170.784 27.7153 172.596 27.7152 174.804C27.7152 178.092 28.0752 180.396 28.7951 181.716C29.5151 183.012 30.5351 183.66 31.8551 183.66L35.5631 183.3L35.5632 177.828L32.2152 177.216L32.2152 175.38L40.9992 175.38L40.9992 176.964L39.0552 177.432L39.0551 183.912C38.5511 184.248 37.3031 184.74 35.3111 185.388C33.3431 186.036 32.1671 186.36 31.7831 186.36ZM63.4622 186.36C63.1742 186.36 62.8142 186.18 62.3822 185.82C61.9502 185.46 61.5662 185.04 61.2303 184.56C60.8943 184.08 60.7263 183.696 60.7263 183.408L60.7264 171.888L58.3864 171.888L58.3865 170.592L60.7265 169.476L63.0665 166.704C63.2825 166.68 63.7505 166.848 64.4705 167.208L64.4705 169.8L67.9985 169.8L67.9984 172.032L64.4704 172.032L64.4703 181.824C64.4703 182.52 64.5303 183 64.6503 183.264C64.7703 183.504 64.9983 183.624 65.3343 183.624L68.3583 183.732L68.3582 185.64C67.6142 185.808 66.6782 185.964 65.5502 186.108C64.4462 186.276 63.7502 186.36 63.4622 186.36ZM76.2771 186.36C75.1491 186.36 74.1051 186.072 73.1451 185.496C72.2091 184.92 71.4531 184.056 70.8772 182.904C70.3252 181.752 70.0492 180.348 70.0492 178.692C70.0492 177.516 70.1332 176.412 70.3013 175.38C70.4693 174.348 70.6853 173.58 70.9493 173.076C71.2133 172.716 71.7413 172.236 72.5333 171.636C73.3253 171.012 74.1173 170.472 74.9093 170.016C75.7253 169.56 76.2893 169.332 76.6013 169.332C77.9213 169.332 79.0013 169.548 79.8413 169.98C80.6813 170.412 81.3293 171.228 81.7853 172.428C82.2413 173.604 82.4693 175.272 82.4692 177.432L73.9732 178.152C73.9732 179.472 74.1412 180.528 74.4772 181.32C74.8372 182.112 75.2572 182.676 75.7372 183.012C76.2171 183.348 76.6731 183.516 77.1051 183.516L81.9291 183.336L81.9291 184.956C81.0891 185.244 80.0211 185.556 78.7251 185.892C77.4291 186.204 76.6131 186.36 76.2771 186.36ZM78.6173 175.884C78.6173 173.052 77.8733 171.624 76.3853 171.6L76.0973 171.6C75.7133 171.6 75.3653 171.66 75.0533 171.78C74.7653 171.876 74.5253 172.404 74.3333 173.364C74.1413 174.3 74.0453 175.344 74.0452 176.496L78.6173 175.884ZM91.689 186.36C91.161 186.36 90.105 186.3 88.521 186.18C86.961 186.084 85.761 185.988 84.9211 185.892L84.9931 180.528L86.9731 180.492L87.7291 183.264C88.2571 183.456 88.9051 183.636 89.6731 183.804C90.4651 183.948 91.0411 184.02 91.4011 184.02C91.5931 184.02 91.8091 183.78 92.0491 183.3C92.2891 182.796 92.4091 182.364 92.4091 182.004C92.4091 181.428 92.2171 180.972 91.8331 180.636C91.4731 180.3 90.7171 179.82 89.5651 179.196C89.2771 179.052 89.0611 178.932 88.9172 178.836C87.4292 178.02 86.3972 177.3 85.8212 176.676C85.2692 176.052 84.9932 175.308 84.9932 174.444C84.9932 173.628 85.0652 173.028 85.2092 172.644C85.6172 172.02 86.2773 171.336 87.1893 170.592C88.1253 169.848 88.7973 169.476 89.2053 169.476C90.0453 169.476 91.1133 169.512 92.4093 169.584C93.7293 169.632 94.7253 169.692 95.3973 169.764L95.2892 174.3L93.0932 174.3L92.8412 172.392C92.6492 172.32 92.0252 172.2 90.9692 172.032C89.9372 171.864 89.3013 171.78 89.0613 171.78C88.5813 171.78 88.3412 172.236 88.3412 173.148C88.3412 173.58 88.5212 173.964 88.8812 174.3C89.2412 174.612 89.6372 174.9 90.0692 175.164C90.5012 175.428 90.8012 175.608 90.9692 175.704L91.8332 176.208C93.1532 176.928 94.2092 177.624 95.0012 178.296C95.7931 178.968 96.1891 179.724 96.1891 180.564C96.1891 181.188 96.1051 181.824 95.9371 182.472C95.5531 183.192 94.8811 184.02 93.9211 184.956C92.9611 185.892 92.217 186.36 91.689 186.36ZM111.68 186.36C109.112 186.36 107.18 185.724 105.884 184.452C104.588 183.156 103.94 181.164 103.94 178.476C103.94 177.396 104.024 176.352 104.192 175.344C104.36 174.336 104.576 173.592 104.84 173.112C105.104 172.752 105.632 172.272 106.424 171.672C107.216 171.048 108.02 170.508 108.836 170.052C109.652 169.572 110.204 169.332 110.492 169.332C112.988 169.332 114.872 169.992 116.144 171.312C117.416 172.608 118.052 174.504 118.052 177C118.052 178.152 117.968 179.244 117.8 180.276C117.656 181.284 117.464 182.1 117.224 182.724C116.816 183.252 115.892 183.996 114.452 184.956C113.036 185.892 112.112 186.36 111.68 186.36ZM111.824 184.164C111.968 184.116 112.532 183.84 113.516 183.336C113.9 181.632 114.092 179.676 114.092 177.468C114.092 175.668 113.768 174.24 113.12 173.184C112.496 172.104 111.56 171.564 110.312 171.564C109.784 171.564 109.352 171.648 109.016 171.816C108.68 171.984 108.404 172.608 108.188 173.688C107.996 174.768 107.9 176.196 107.9 177.972C107.9 180.276 108.272 181.884 109.016 182.796C109.784 183.708 110.72 184.164 111.824 184.164ZM123.017 186.36C122.897 186.36 122.645 186.18 122.261 185.82C121.877 185.46 121.685 185.22 121.685 185.1L121.685 171.888L119.957 171.888L119.957 170.304L121.685 169.62L121.685 168.252C121.685 167.772 121.997 167.088 122.621 166.2C123.245 165.288 123.941 164.472 124.709 163.752C125.477 163.008 126.053 162.636 126.437 162.636C126.821 162.636 127.349 162.66 128.021 162.708C128.693 162.756 129.341 162.804 129.965 162.852C130.109 162.972 130.265 163.176 130.433 163.464C130.625 163.728 130.721 163.92 130.721 164.04C130.721 164.112 130.613 164.4 130.397 164.904C130.205 165.408 130.049 165.792 129.929 166.056C129.785 166.008 129.185 165.84 128.129 165.552C127.097 165.264 126.425 165.12 126.113 165.12C125.969 165.12 125.825 165.324 125.681 165.732C125.537 166.14 125.465 166.584 125.465 167.064L125.429 169.8L128.957 169.8L128.957 171.924L125.429 171.924L125.429 183.516L127.373 184.128L127.373 185.712C124.709 186.144 123.257 186.36 123.017 186.36ZM136.215 184.452L138.447 183.696L139.095 166.56L136.863 165.804L136.863 164.256L144.387 164.256L149.103 180.816L149.535 180.816L154.251 164.256L161.775 164.256L161.775 165.804L159.579 166.56L160.263 183.696L162.495 184.452L162.495 186L153.963 186L153.963 184.236L156.339 183.48L156.087 169.08L155.799 169.08C155.679 169.608 155.415 170.58 155.007 171.996C154.623 173.412 154.287 174.588 153.999 175.524L151.263 184.344C150.567 184.44 149.847 184.548 149.103 184.668C148.383 184.764 147.867 184.824 147.555 184.848C147.459 184.848 147.243 184.752 146.907 184.56L144.171 175.704C143.811 174.504 143.211 172.296 142.371 169.08L142.083 169.08L141.795 183.48L144.207 184.236L144.207 186L136.215 186L136.215 184.452ZM172.641 186.36C170.073 186.36 168.141 185.724 166.845 184.452C165.549 183.156 164.901 181.164 164.901 178.476C164.901 177.396 164.985 176.352 165.153 175.344C165.321 174.336 165.537 173.592 165.801 173.112C166.065 172.752 166.593 172.272 167.385 171.672C168.177 171.048 168.981 170.508 169.797 170.052C170.613 169.572 171.165 169.332 171.453 169.332C173.949 169.332 175.833 169.992 177.105 171.312C178.377 172.608 179.013 174.504 179.013 177C179.013 178.152 178.929 179.244 178.761 180.276C178.617 181.284 178.425 182.1 178.185 182.724C177.777 183.252 176.853 183.996 175.413 184.956C173.997 185.892 173.073 186.36 172.641 186.36ZM172.785 184.164C172.929 184.116 173.493 183.84 174.477 183.336C174.861 181.632 175.053 179.676 175.053 177.468C175.053 175.668 174.729 174.24 174.081 173.184C173.457 172.104 172.521 171.564 171.273 171.564C170.745 171.564 170.313 171.648 169.977 171.816C169.641 171.984 169.365 172.608 169.149 173.688C168.957 174.768 168.861 176.196 168.861 177.972C168.861 180.276 169.233 181.884 169.977 182.796C170.745 183.708 171.681 184.164 172.785 184.164ZM183.978 186.36C183.858 186.36 183.606 186.18 183.222 185.82C182.862 185.46 182.682 185.22 182.682 185.1L182.682 172.032L181.35 171.564L181.35 170.052C183.486 169.668 184.674 169.476 184.914 169.476C185.034 169.476 185.298 169.68 185.706 170.088C186.138 170.472 186.354 170.712 186.354 170.808L186.282 172.14C188.034 170.244 188.982 169.296 189.126 169.296C189.558 169.296 190.386 169.488 191.61 169.872C191.682 170.04 191.742 170.244 191.79 170.484C191.838 170.7 191.862 170.904 191.862 171.096C191.862 171.288 191.694 171.708 191.358 172.356C191.046 172.98 190.842 173.316 190.746 173.364C189.81 173.004 189.15 172.824 188.766 172.824C188.598 172.824 188.286 172.932 187.83 173.148C187.374 173.34 186.906 173.58 186.426 173.868L186.426 183.48L188.37 184.056L188.37 185.712C185.682 186.144 184.218 186.36 183.978 186.36ZM195.614 186.36C195.494 186.36 195.242 186.18 194.858 185.82C194.498 185.46 194.318 185.22 194.318 185.1L194.318 172.032L192.987 171.564L192.987 170.052C195.123 169.668 196.311 169.476 196.551 169.476C196.671 169.476 196.935 169.68 197.343 170.088C197.775 170.472 197.991 170.712 197.991 170.808L197.918 172.14C199.671 170.244 200.619 169.296 200.763 169.296C201.195 169.296 202.023 169.488 203.247 169.872C203.319 170.04 203.379 170.244 203.427 170.484C203.475 170.7 203.499 170.904 203.499 171.096C203.499 171.288 203.331 171.708 202.994 172.356C202.682 172.98 202.478 173.316 202.382 173.364C201.446 173.004 200.786 172.824 200.402 172.824C200.234 172.824 199.922 172.932 199.466 173.148C199.01 173.34 198.542 173.58 198.062 173.868L198.062 183.48L200.006 184.056L200.006 185.712C197.318 186.144 195.854 186.36 195.614 186.36Z" fill="#9E3333"/>
<path d="M48.8091 186.36C47.7531 186.36 46.7811 186.072 45.8931 185.496C45.0291 184.896 44.3331 184.008 43.8052 182.832C43.3012 181.656 43.0492 180.216 43.0492 178.512C43.0492 177.384 43.1332 176.34 43.3013 175.38C43.4693 174.396 43.6853 173.628 43.9493 173.076C44.3573 172.524 45.2573 171.78 46.6493 170.844C48.0653 169.908 49.0013 169.44 49.4573 169.44C49.7213 169.44 50.6573 169.56 52.2653 169.8C53.8733 170.016 55.1093 170.196 55.9733 170.34L55.9731 183.696L57.2331 184.2L57.2331 185.748C55.0491 186.156 53.8371 186.36 53.5971 186.36C53.5011 186.36 53.2611 186.18 52.8771 185.82C52.5171 185.46 52.3371 185.22 52.3371 185.1L52.3371 183.804C50.1531 185.508 48.9771 186.36 48.8091 186.36ZM49.2051 183.444C49.4451 183.444 50.4532 183 52.2292 182.112L52.2293 172.428C51.6533 172.212 50.9213 172.02 50.0333 171.852C49.1693 171.66 48.5933 171.588 48.3053 171.636C47.8733 171.732 47.5493 172.272 47.3333 173.256C47.1173 174.24 47.0093 175.884 47.0092 178.188C47.0092 179.34 47.1292 180.312 47.3692 181.104C47.6332 181.896 47.9332 182.484 48.2692 182.868C48.6292 183.252 48.9411 183.444 49.2051 183.444Z" fill="#CA3D3D"/>
<defs>
<linearGradient id="paint0_linear_3379_7734" x1="33.5002" y1="55.9999" x2="193.001" y2="56.999" gradientUnits="userSpaceOnUse">
<stop stop-color="#A9D6FF"/>
<stop offset="1" stop-color="#D1F4FF" stop-opacity="0"/>
</linearGradient>
</defs>
</svg>
