<svg width="226" height="224" viewBox="0 0 226 224" fill="none" xmlns="http://www.w3.org/2000/svg">
<rect width="160" height="124" transform="matrix(1 0 5.51922e-06 1 33 27)" fill="white"/>
<path d="M33.5 27.7601H193.001L193.001 75.9028C193.001 75.9028 168.592 63.0951 151.5 60.4999C111.75 54.4642 92.0004 104 54.5004 94.9999C43.7215 92.4129 33.5003 75.9028 33.5003 75.9028L33.5 27.7601Z" fill="url(#paint0_linear_3379_7734)"/>
<path d="M34.0007 118.125C45.4998 115.826 55.7507 127.375 66.5007 113.375L42.0006 111.375C70.2367 99.2043 83.3195 118.125 111.751 118.125C121.351 118.125 121.251 116.458 120.001 115.625L123.501 119.375L124.751 115.625C131.334 113.125 148.001 108.175 162.001 108.375C176.001 108.575 171.334 98.125 167.251 92.875L178.001 96.375L178.001 92.875H181.251L181.251 89.625L172.25 83.875L174.25 82.125L183.751 87.375H199.751" stroke="black" stroke-width="2"/>
<path d="M141.25 42.8742C141.25 42.8742 151.25 40.1252 158.25 41.75C165.25 43.3748 170 45.8746 170 50.3746L171 47.3747L173 53.3746L176 55.3746L174 57.3746L175 58.3746L175 62.3746L173 66.3746L172 65.3746L170 71.3746L166 72.3746L161 82.3747L155 80.3747L154 78.375L155 67.3746L153 65.3746L153 62.3746L149 66.3746C148.286 69.5892 144.5 77.625 145.25 80.875C146.201 84.9957 149 85.2402 149 90L163 91.3747L165 94.3747L165 99.3747L159 102.375L159 98.3747L146.375 100.375L147.25 107.375L155 108.5L155 116.125H142.25L134 105.375C122.21 111.925 108.589 110.279 100 106.375C94.8909 104.052 93.3833 101.308 93.0003 99.4657L93.0004 106.375L93.0004 121.375L105.625 129.125L101.001 132.375L85.0005 123.375L84.0004 114.375L73.0004 121.375L73.0005 136.375L70.0005 133.375H65.0005L65.0004 118.375L74.0004 110.375L74.0004 106.375C60.5003 92.625 67.8125 71.3738 86.5002 71.3746C97.7893 71.3751 102.125 76 120 70.3746C120 70.3746 126.758 54.6104 135.375 48.9994C138.926 46.6869 145.25 44.4995 145.25 44.4995L141.25 42.8742Z" fill="#515151"/>
<path d="M153 62.3746L153 65.3746L155 67.3746L154 78.375L155 80.3747L161 82.3747L166 72.3746L170 71.3746L172 65.3746L173 66.3746L175 62.3746L175 58.3746L174 57.3746L176 55.3746L173 53.3746L171 47.3747L170 50.3746C170 45.8746 165.25 43.3748 158.25 41.75C151.25 40.1252 141.25 42.8742 141.25 42.8742L145.25 44.4995C145.25 44.4995 138.926 46.6869 135.375 48.9994C126.758 54.6104 120 70.3746 120 70.3746C102.125 76 97.7893 71.3751 86.5002 71.3746C67.8125 71.3738 60.5003 92.625 74.0004 106.375L74.0004 110.375L65.0004 118.375L65.0005 133.375H70.0005L73.0005 136.375L73.0004 121.375L84.0004 114.375M153 62.3746L154 57.3746H156M153 62.3746L149 66.3746C148.286 69.5892 144.5 77.625 145.25 80.875C146.201 84.9957 149 85.2402 149 90M149 90L163 91.3747L165 94.3747L165 99.3747L159 102.375L159 98.3747L146.375 100.375M149 90L146.375 100.375M146.375 100.375L147.25 107.375L155 108.5L155 116.125H142.25L134 105.375C122.21 111.925 108.589 110.279 100 106.375C91.4113 102.471 93.0003 97.3747 93.0003 97.3747L93.0004 106.375L93.0004 121.375L105.625 129.125L101.001 132.375L85.0005 123.375L84.0004 114.375M146.375 100.375L143 93.3747M84.0004 114.375C88.0004 112.375 92.9337 107.375 92.9337 107.375" stroke="black" stroke-width="2"/>
<path d="M89.2103 130.375C86.8435 130.375 78.3628 134.375 74.4183 136.375C69.4281 130.722 63.6912 129.878 56.6679 132.375C65.3823 123.538 33.0852 132.344 33.0007 132.375L33.0011 207H193.001L193 88.875C185.764 89.1825 181.361 92.4482 178.948 99.375C169.539 96.4218 159.914 99.6771 153.309 106.375L153.309 118.375L141.475 125.875L126.683 121.375L124.711 123.875L138.517 129.375C134.586 130.039 130.549 130.395 126.683 131.375C122.739 132.375 110.905 128.375 106.961 128.375C103.016 128.375 100.058 134.375 98.0855 133.375C96.1132 132.375 92.1687 130.375 89.2103 130.375Z" fill="#C4C4C4" stroke="black" stroke-width="2"/>
<path d="M166 65.375L165 69.375" stroke="black" stroke-width="2"/>
<path d="M71.0001 79.3751L69.0001 81.3756C49.8892 75.0053 50.3752 108.375 25.5001 89.3756C37.6113 89.3662 56.8749 50.1251 71.0001 79.3751Z" fill="#515151" stroke="black" stroke-width="2"/>
<path d="M121.001 69.4998L118 71.3748C118.486 71.9833 123.5 78.625 123.5 78.625L127 76.9375L127 84.3748C127 84.3748 121.291 98.7324 121.001 103.375C120.711 108.017 128 110.375 128 110.375L115 108.375L116 103.375L117.001 85.3748L103.125 72.7498L99.5002 67.4998L117.999 37.8748L122 38.3748L120 35.4998L124.125 33.1248C124.125 33.1248 124.938 30.7505 127.312 30.2189C129.687 29.6873 131.312 31.0623 131.312 31.0623L134.999 33.1248L133 36.2498L130 44.7498L125.875 42.7498L127.625 48.3748L131.188 52.5623L127.625 56.6874L135 60.3748L139 61.3748L141.001 62.3748L138 66.8748L133 64.3748L118.938 61.75L117.5 63.25L117.5 66.0962C120.938 67.688 121.001 69.4998 121.001 69.4998Z" fill="#C4C4C4"/>
<path d="M125.875 42.7498L130 44.7498L133 36.2498L134.999 33.1248L131.312 31.0623C131.312 31.0623 129.687 29.6873 127.312 30.2189C124.938 30.7505 124.125 33.1248 124.125 33.1248L120 35.4998L122 38.3748L117.999 37.8748L99.5002 67.4998L103.125 72.7498L117.001 85.3748L116 103.375L115 108.375L128 110.375C128 110.375 120.711 108.017 121.001 103.375C121.291 98.7324 127 84.3748 127 84.3748L127 76.9375L123.5 78.625C123.5 78.625 118.486 71.9833 118 71.3748L121.001 69.4998C121.001 69.4998 120.875 65.8748 111.25 64.3748M125.875 42.7498L125.125 55.9375L127.625 56.6874M125.875 42.7498L127.625 48.3748L131.188 52.5623L127.625 56.6874M118.938 61.75L133 64.3748L138 66.8748L141.001 62.3748L139 61.3748L135 60.3748L127.625 56.6874M118.938 61.75C117.856 57.4264 117.5 51.5623 117.999 47.3748M118.938 61.75L117.5 63.25L117.5 66.8748" stroke="black" stroke-width="2"/>
<path d="M122.001 100.375L118.001 99.375L114 95.375L116.001 103.375" stroke="black" stroke-width="2"/>
<path d="M125.438 88.625H121.25L117.563 86.4375L117.563 89.5L115 88.0625L116.751 93.375" stroke="black" stroke-width="2"/>
<path d="M146.875 49L146.875 54.375L143 52.75L145 56.75L140.875 58.25L143 62.375L135.125 71.375L129.125 74.5L127.375 71.375L127.375 75.875L123.125 77.625" stroke="black" stroke-width="2"/>
<path d="M151.5 50.75L154 47.625L155.5 50H159.875L164.25 51.5L164.25 53.875L162 57.125L163.5 57.75L164.25 61.5H169.125L173 66.5" stroke="black" stroke-width="2"/>
<path d="M120 74C120 74 115.95 74.4836 114 76C112.459 77.1988 111.001 80 111.001 80" stroke="black" stroke-width="2"/>
<path d="M125.625 77.1875C125.625 77.1875 117.813 77.4997 119.438 81.3747C117.897 82.5735 116.438 85.3747 116.438 85.3747" stroke="black" stroke-width="2"/>
<path d="M112.437 74.6253C112.437 74.6253 116.187 73.6878 117.125 70.3128L108.813 63.875L112.813 59.375C112.042 59.4791 110.25 59.525 109.25 58.875C108.25 58.225 104.208 61.1875 102.313 62.75L100.813 66.375C100.813 66.375 100.687 73.0003 103 78.1253C106.312 79.0628 109.687 76.4378 109.687 76.4378L106.75 69.8128L112.437 74.6253Z" fill="#C4C4C4" stroke="black" stroke-width="2"/>
<path d="M114.875 83.125L108.125 83.875L102.625 80.75L103.375 86.5L98.6251 87.25L95.25 71.5" stroke="black" stroke-width="2"/>
<path d="M116.5 85.875L107.5 87.375L107.5 89.125L95.1251 91.25L91.375 71.5" stroke="black" stroke-width="2"/>
<path d="M103.188 107.625L100.125 90.125" stroke="black" stroke-width="2"/>
<path d="M129.376 107.375L125.75 88.125" stroke="black" stroke-width="2"/>
<path d="M141 61.375L139 59.375L135 60.375L134 62.375L130 61.375L133 64.375L138 67.0625L141 66.375H141.438L138 65.375L139 63.375L142 64.375M140 62.375H143" stroke="black" stroke-width="2"/>
<path d="M111.999 39.375L121.999 38.75C121.999 38.75 116.2 46.375 109 58.375C101.8 70.375 64.9168 54.5417 55.2501 53.875C66.4207 50.4582 65.0882 47.2431 62.2885 45.2349C60.8633 44.6066 59.4325 43.905 58 43.1248C58 43.1248 60.4579 43.9218 62.2885 45.2349C88.7212 56.8882 113.258 43.358 111.999 39.375Z" fill="#FF4B3C"/>
<path d="M121.999 38.75L111.999 39.375C113.326 43.5728 86.0001 58.375 58 43.1248C58 43.1248 73.7249 48.2241 55.2501 53.875C64.9168 54.5417 101.8 70.375 109 58.375C116.2 46.375 121.999 38.75 121.999 38.75Z" stroke="black" stroke-width="2"/>
<path d="M71.0001 71.375C67.5224 53.9868 60.0007 64.375 60.0007 64.375L52.5206 48.3624C70.7406 55.2968 103.479 64.9366 112 39.375L115.75 39.0625L116.75 32.0625L129.25 40.4375L119.125 43.0625C104.247 62.6233 99.146 73.3161 71.0001 71.375Z" fill="#FF4B3C" stroke="black" stroke-width="2"/>
<path d="M121.156 38.9062L117 42.0469L116.656 45.8594L118.375 45.75L116.453 45.9375L116.125 49.125C116.125 49.125 117.438 52.6875 122.313 52.4375C127.188 52.1875 128 48.375 128 48.375L127.359 44.9687L127.159 44.9827L126.125 41.375L121.156 38.9062Z" fill="#C4C4C4"/>
<path d="M117 42.0469L121.156 38.9062L126.125 41.375L127.159 44.9827L125.344 45.1094L127.359 44.9687L128 48.375C128 48.375 127.188 52.1875 122.313 52.4375C117.438 52.6875 116.125 49.125 116.125 49.125L116.453 45.9375L118.375 45.75L116.656 45.8594L117 42.0469Z" stroke="black" stroke-width="2"/>
<path d="M121.641 42.9062L122.313 49.5625" stroke="black" stroke-width="2"/>
<path d="M124.188 45.2031L119.641 45.625" stroke="black" stroke-width="2"/>
<path d="M164.001 77.125L154.626 74C152.209 69.75 145.975 61.025 140.375 60.125C140.375 64.5 133.125 66.75 154.001 77.75" stroke="black" stroke-width="2"/>
<path d="M200.501 111.375C188.917 113.792 164.501 119.125 159.501 121.125C154.501 123.125 157.417 126.125 159.501 127.375L181.751 123.875L176.251 128.625C177.417 129.958 179.401 133.625 178.001 137.625C174.396 147.925 157.251 150.674 157.251 163.125" stroke="black" stroke-width="2"/>
<path d="M154 130.375L142.75 132.375C155.378 131.133 165.794 138.582 154.001 150.375C148.001 156.375 144.876 159 144.876 163.125" stroke="black" stroke-width="2"/>
<path d="M136.501 133.875C128.001 135.625 109.451 139.675 103.251 141.875C97.0509 144.075 102.501 143.792 106.001 143.375C110.334 142.792 119.201 142.725 120.001 147.125C121.444 155.065 103.252 154.79 103.251 163.125" stroke="black" stroke-width="2"/>
<path d="M26.0005 136.875C31.9172 135.875 45.2748 134.059 51.2505 135.375C58.063 136.875 57.313 139.062 57.313 139.062L68.7505 138.125C67.5005 140.375 64.0005 145.375 60.0006 147.375C56.0006 149.375 34.5006 161.542 24.2507 167.375C36.334 162.542 62.6506 152.325 71.2506 150.125" stroke="black" stroke-width="2"/>
<path d="M78.2505 148.125C81.1672 147.292 88.0505 145.425 92.2505 144.625" stroke="black" stroke-width="2"/>
<path d="M9.56301 140.875C9.56301 140.875 17.188 138.562 23.563 137.375" stroke="black" stroke-width="2"/>
<path d="M47.4689 39.7194C49.4375 39.7194 52.0313 40.4687 55.4065 42.0632" stroke="black" stroke-width="2"/>
<path d="M178.001 137.743C178.726 136.419 180.44 133.451 181.485 132.18" stroke="black" stroke-width="2"/>
<path d="M112.751 125.625C116.001 129.125 124.001 131.375 124.001 131.375" stroke="black" stroke-width="2"/>
<path d="M76.9377 59.8152L78.9645 59.8148" stroke="black" stroke-width="2"/>
<path d="M81.7194 59.5962L83.7462 59.5958" stroke="black" stroke-width="2"/>
<path d="M86.4074 59.4087L88.4342 59.4083" stroke="black" stroke-width="2"/>
<path d="M90.8854 59.2095L92.9123 59.2091" stroke="black" stroke-width="2"/>
<path d="M193 67.2833L193 65.2188" stroke="black" stroke-width="2"/>
<path d="M193 71.2364L193 69.1719" stroke="black" stroke-width="2"/>
<path d="M193 75.1895L193 73.125" stroke="black" stroke-width="2"/>
<path d="M193 79.1427L193 77.0781" stroke="black" stroke-width="2"/>
<path d="M193 83.0958L193 81.0312" stroke="black" stroke-width="2"/>
<path d="M193 87.0489L193 84.9844" stroke="black" stroke-width="2"/>
<path d="M193 91.002L193 88.9375" stroke="black" stroke-width="2"/>
<path d="M193 94.9552L193 92.8906" stroke="black" stroke-width="2"/>
<path d="M32.7344 49.9697C49.2692 49.9697 56.2271 59.8754 74.4464 59.8754" stroke="black" stroke-width="2"/>
<path d="M193.001 62.875L193.001 27H33.2656L33.2659 81" stroke="black" stroke-width="2"/>
<path d="M21.0005 143L1.00049 143L1.00026 159L9.00014 167.5L1.00003 175L0.999808 191L10.9998 191L20.9998 191L21.0005 143Z" fill="#FF4B3C"/>
<path d="M21.0005 143L1.00049 143L1.00026 159L9.00014 167.5L1.00003 175L0.999808 191L10.9998 191L20.9998 191L21.0005 143Z" fill="black" fill-opacity="0.2"/>
<path d="M21.0005 143L1.00049 143L1.00026 159L9.00014 167.5L1.00003 175L0.999808 191L10.9998 191L20.9998 191L21.0005 143Z" stroke="black" stroke-width="2"/>
<path d="M12.9999 151L21 143L20.9999 151L12.9999 151Z" fill="black" fill-opacity="0.38" stroke="black" stroke-width="2" stroke-linejoin="bevel"/>
<path d="M205 143L225 143L225 159L217 167.5L225 175L225.001 191L215.001 191L205.001 191L205 143Z" fill="#FF4B3C"/>
<path d="M205 143L225 143L225 159L217 167.5L225 175L225.001 191L215.001 191L205.001 191L205 143Z" fill="black" fill-opacity="0.2"/>
<path d="M205 143L225 143L225 159L217 167.5L225 175L225.001 191L215.001 191L205.001 191L205 143Z" stroke="black" stroke-width="2"/>
<path d="M213.002 151L205.002 143L205.002 151L213.002 151Z" fill="black" fill-opacity="0.38" stroke="black" stroke-width="2" stroke-linejoin="bevel"/>
<path d="M212.99 150.977L12.9902 150.977L12.9896 198.977L212.99 198.977L212.99 150.977Z" fill="#FF4B3C" stroke="black" stroke-width="2"/>
<path d="M32.5056 184.452L34.7016 183.696L34.7019 166.56L32.5059 165.804L32.5059 164.256L42.1179 164.256C43.9899 164.256 45.3819 164.676 46.2939 165.516C47.2059 166.332 47.6619 167.772 47.6618 169.836C47.6618 171.18 47.3498 172.188 46.7258 172.86C46.1018 173.508 45.3338 174.048 44.4218 174.48L44.4218 174.696C45.8138 174.936 46.9298 175.5 47.7697 176.388C48.6097 177.276 49.0297 178.392 49.0297 179.736C49.0297 181.992 48.4296 183.6 47.2296 184.56C46.0536 185.52 44.4696 186 42.4776 186L32.5056 186L32.5056 184.452ZM40.8938 174.012C41.8538 174.012 42.5498 173.772 42.9818 173.292C43.4138 172.812 43.6298 171.864 43.6298 170.448C43.6299 168.888 43.5099 167.772 43.2699 167.1C43.0539 166.428 42.6579 166.116 42.0819 166.164L38.6259 166.596L38.6258 174.012L40.8938 174.012ZM42.9456 184.056C43.6656 184.128 44.1816 183.804 44.4937 183.084C44.8057 182.34 44.9617 181.08 44.9617 179.304C44.9617 178.392 44.8417 177.72 44.6017 177.288C44.3857 176.856 44.0737 176.58 43.6657 176.46C43.2817 176.34 42.7297 176.28 42.0097 176.28L38.6257 176.28L38.6256 183.588L42.9456 184.056ZM57.0005 186.36C55.9445 186.36 54.9725 186.072 54.0845 185.496C53.2205 184.896 52.5245 184.008 51.9966 182.832C51.4926 181.656 51.2406 180.216 51.2406 178.512C51.2406 177.384 51.3247 176.34 51.4927 175.38C51.6607 174.396 51.8767 173.628 52.1407 173.076C52.5487 172.524 53.4487 171.78 54.8407 170.844C56.2567 169.908 57.1928 169.44 57.6488 169.44C57.9128 169.44 58.8488 169.56 60.4567 169.8C62.0647 170.016 63.3007 170.196 64.1647 170.34L64.1646 183.696L65.4245 184.2L65.4245 185.748C63.2405 186.156 62.0285 186.36 61.7885 186.36C61.6925 186.36 61.4525 186.18 61.0685 185.82C60.7085 185.46 60.5285 185.22 60.5285 185.1L60.5285 183.804C58.3445 185.508 57.1685 186.36 57.0005 186.36ZM57.3966 183.444C57.6366 183.444 58.6446 183 60.4206 182.112L60.4207 172.428C59.8447 172.212 59.1127 172.02 58.2247 171.852C57.3607 171.66 56.7847 171.588 56.4967 171.636C56.0647 171.732 55.7407 172.272 55.5247 173.256C55.3087 174.24 55.2007 175.884 55.2006 178.188C55.2006 179.34 55.3206 180.312 55.5606 181.104C55.8246 181.896 56.1246 182.484 56.4606 182.868C56.8206 183.252 57.1326 183.444 57.3966 183.444ZM70.1416 186.36C70.0216 186.36 69.7696 186.18 69.3856 185.82C69.0257 185.46 68.8457 185.22 68.8457 185.1L68.8458 172.032L67.5138 171.564L67.5139 170.052C69.6499 169.668 70.8379 169.476 71.0779 169.476C71.1979 169.476 71.4619 169.68 71.8699 170.088C72.3019 170.472 72.5179 170.712 72.5179 170.808L72.4458 172.14C74.1979 170.244 75.1459 169.296 75.2899 169.296C75.7219 169.296 76.5499 169.488 77.7739 169.872C77.8459 170.04 77.9059 170.244 77.9539 170.484C78.0019 170.7 78.0259 170.904 78.0259 171.096C78.0259 171.288 77.8578 171.708 77.5218 172.356C77.2098 172.98 77.0058 173.316 76.9098 173.364C75.9738 173.004 75.3138 172.824 74.9298 172.824C74.7618 172.824 74.4498 172.932 73.9938 173.148C73.5378 173.34 73.0698 173.58 72.5898 173.868L72.5897 183.48L74.5337 184.056L74.5336 185.712C71.8456 186.144 70.3816 186.36 70.1416 186.36ZM84.9269 192.552C84.8309 192.552 84.6509 192.324 84.3869 191.868C84.1469 191.412 84.0269 191.112 84.0269 190.968L85.719 185.964C85.095 186.06 84.723 186.108 84.603 186.108C84.531 186.108 84.339 186 84.027 185.784L80.2832 172.032L78.8432 171.636L78.8432 170.016C80.9552 169.68 82.1192 169.512 82.3352 169.512C82.4552 169.512 82.7192 169.656 83.1272 169.944C83.5352 170.232 83.7632 170.46 83.8112 170.628L85.7911 178.944L86.511 182.724L86.871 182.724L89.7512 171.924L87.5552 171.672L87.5552 169.8L92.0912 169.512C92.2352 169.512 92.4512 169.692 92.7392 170.052C93.0512 170.412 93.1952 170.676 93.1712 170.844L88.419 185.892L87.4109 189.924L88.9229 190.572L88.8869 192.084C86.4629 192.396 85.1429 192.552 84.9269 192.552ZM102.469 186.36C99.9008 186.36 97.9688 185.724 96.6728 184.452C95.3768 183.156 94.7289 181.164 94.7289 178.476C94.7289 177.396 94.8129 176.352 94.9809 175.344C95.149 174.336 95.365 173.592 95.629 173.112C95.893 172.752 96.421 172.272 97.213 171.672C98.005 171.048 98.809 170.508 99.625 170.052C100.441 169.572 100.993 169.332 101.281 169.332C103.777 169.332 105.661 169.992 106.933 171.312C108.205 172.608 108.841 174.504 108.841 177C108.841 178.152 108.757 179.244 108.589 180.276C108.445 181.284 108.253 182.1 108.013 182.724C107.605 183.252 106.681 183.996 105.241 184.956C103.825 185.892 102.901 186.36 102.469 186.36ZM102.613 184.164C102.757 184.116 103.321 183.84 104.305 183.336C104.689 181.632 104.881 179.676 104.881 177.468C104.881 175.668 104.557 174.24 103.909 173.184C103.285 172.104 102.349 171.564 101.101 171.564C100.573 171.564 100.141 171.648 99.805 171.816C99.469 171.984 99.193 172.608 98.977 173.688C98.785 174.768 98.6889 176.196 98.6889 177.972C98.6889 180.276 99.0609 181.884 99.8048 182.796C100.573 183.708 101.509 184.164 102.613 184.164ZM113.806 186.36C113.686 186.36 113.434 186.18 113.05 185.82C112.69 185.46 112.51 185.22 112.51 185.1L112.51 172.104L111.178 171.564L111.178 170.052C113.434 169.668 114.682 169.476 114.922 169.476C115.042 169.476 115.27 169.656 115.606 170.016C115.942 170.352 116.11 170.58 116.11 170.7L116.11 171.96C116.806 171.432 117.562 170.892 118.378 170.34C119.194 169.764 119.65 169.476 119.746 169.476C121.498 169.476 122.818 169.92 123.706 170.808C124.594 171.672 125.038 173.196 125.038 175.38L125.038 183.66L126.334 184.2L126.334 185.712C124.102 186.144 122.878 186.36 122.662 186.36C122.542 186.36 122.278 186.18 121.87 185.82C121.486 185.46 121.294 185.22 121.294 185.1L121.294 175.38C121.294 173.364 120.67 172.356 119.422 172.356C119.302 172.356 118.978 172.464 118.45 172.68C117.946 172.896 117.574 173.052 117.334 173.148C117.094 173.268 116.734 173.424 116.254 173.616L116.254 183.66L117.514 184.2L117.514 185.712C115.282 186.144 114.046 186.36 113.806 186.36ZM142.807 186.36C140.335 186.36 138.355 185.484 136.867 183.732C135.379 181.98 134.635 179.388 134.635 175.956C134.635 174.348 134.731 172.872 134.923 171.528C135.115 170.184 135.379 169.092 135.715 168.252C136.123 167.676 136.759 167.052 137.623 166.38C138.487 165.708 139.351 165.132 140.215 164.652C141.103 164.172 141.739 163.932 142.123 163.932C142.915 163.956 144.115 164.028 145.723 164.148C147.355 164.244 148.675 164.34 149.683 164.436L149.251 170.772L147.091 170.772L146.659 167.136C146.059 167.016 145.171 166.896 143.995 166.776C142.843 166.656 142.027 166.596 141.547 166.596C141.091 166.596 140.719 166.668 140.431 166.812C139.903 167.076 139.483 167.928 139.171 169.368C138.883 170.784 138.739 172.596 138.739 174.804C138.739 178.092 139.099 180.396 139.819 181.716C140.539 183.012 141.559 183.66 142.879 183.66L146.587 183.3L146.587 177.828L143.239 177.216L143.239 175.38L152.023 175.38L152.023 176.964L150.079 177.432L150.079 183.912C149.575 184.248 148.327 184.74 146.335 185.388C144.367 186.036 143.191 186.36 142.807 186.36ZM174.486 186.36C174.198 186.36 173.838 186.18 173.406 185.82C172.974 185.46 172.59 185.04 172.254 184.56C171.918 184.08 171.75 183.696 171.75 183.408L171.75 171.888L169.41 171.888L169.41 170.592L171.75 169.476L174.09 166.704C174.306 166.68 174.774 166.848 175.494 167.208L175.494 169.8L179.022 169.8L179.022 172.032L175.494 172.032L175.494 181.824C175.494 182.52 175.554 183 175.674 183.264C175.794 183.504 176.022 183.624 176.358 183.624L179.382 183.732L179.382 185.64C178.638 185.808 177.702 185.964 176.574 186.108C175.47 186.276 174.774 186.36 174.486 186.36ZM187.301 186.36C186.173 186.36 185.129 186.072 184.169 185.496C183.233 184.92 182.477 184.056 181.901 182.904C181.349 181.752 181.073 180.348 181.073 178.692C181.073 177.516 181.157 176.412 181.325 175.38C181.493 174.348 181.709 173.58 181.973 173.076C182.237 172.716 182.765 172.236 183.557 171.636C184.349 171.012 185.141 170.472 185.933 170.016C186.749 169.56 187.313 169.332 187.625 169.332C188.945 169.332 190.025 169.548 190.865 169.98C191.705 170.412 192.353 171.228 192.809 172.428C193.265 173.604 193.493 175.272 193.493 177.432L184.997 178.152C184.997 179.472 185.165 180.528 185.501 181.32C185.861 182.112 186.281 182.676 186.761 183.012C187.241 183.348 187.697 183.516 188.129 183.516L192.953 183.336L192.953 184.956C192.113 185.244 191.045 185.556 189.749 185.892C188.453 186.204 187.637 186.36 187.301 186.36ZM189.641 175.884C189.641 173.052 188.897 171.624 187.409 171.6L187.121 171.6C186.737 171.6 186.389 171.66 186.077 171.78C185.789 171.876 185.549 172.404 185.357 173.364C185.165 174.3 185.069 175.344 185.069 176.496L189.641 175.884Z" fill="#9E3333"/>
<path d="M159.833 186.36C158.777 186.36 157.805 186.072 156.917 185.496C156.053 184.896 155.357 184.008 154.829 182.832C154.325 181.656 154.073 180.216 154.073 178.512C154.073 177.384 154.157 176.34 154.325 175.38C154.493 174.396 154.709 173.628 154.973 173.076C155.381 172.524 156.281 171.78 157.673 170.844C159.089 169.908 160.025 169.44 160.481 169.44C160.745 169.44 161.681 169.56 163.289 169.8C164.897 170.016 166.133 170.196 166.997 170.34L166.997 183.696L168.257 184.2L168.257 185.748C166.073 186.156 164.861 186.36 164.621 186.36C164.525 186.36 164.285 186.18 163.901 185.82C163.541 185.46 163.361 185.22 163.361 185.1L163.361 183.804C161.177 185.508 160.001 186.36 159.833 186.36ZM160.229 183.444C160.469 183.444 161.477 183 163.253 182.112L163.253 172.428C162.677 172.212 161.945 172.02 161.057 171.852C160.193 171.66 159.617 171.588 159.329 171.636C158.897 171.732 158.573 172.272 158.357 173.256C158.141 174.24 158.033 175.884 158.033 178.188C158.033 179.34 158.153 180.312 158.393 181.104C158.657 181.896 158.957 182.484 159.293 182.868C159.653 183.252 159.965 183.444 160.229 183.444Z" fill="#CA3D3D"/>
<defs>
<linearGradient id="paint0_linear_3379_7734" x1="33.5002" y1="55.9999" x2="193.001" y2="56.999" gradientUnits="userSpaceOnUse">
<stop stop-color="#A9D6FF"/>
<stop offset="1" stop-color="#D1F4FF" stop-opacity="0"/>
</linearGradient>
</defs>
</svg>
