<svg width="312" height="312" viewBox="0 0 312 312" fill="none" xmlns="http://www.w3.org/2000/svg">
<rect width="159.868" height="179.469" transform="matrix(1 0 5.51922e-06 1 76.1553 73)" fill="black" fill-opacity="0.1"/>
<path d="M76.1553 73.623H236.023L236.024 253.092C236.024 253.092 189.894 193.567 147.597 190.029C140.479 189.433 131.705 190.276 123.946 191.447C111.727 193.292 99.0369 190.512 89.6173 182.514V182.514C81.078 175.264 76.1558 164.628 76.1557 153.426L76.1553 73.623Z" fill="url(#paint0_linear_3569_10087)" fill-opacity="0.17"/>
<path d="M95.1396 113.505C94.9446 113.165 94.8645 112.639 94.8646 112.009L93.641 101.54L94.546 95.3089L96.1388 84.3413L100.135 73.623H108.129H148.096H192.059L188.063 77.6112L184.066 79.8546L185.815 82.8458H192.059L193.558 76.3649H196.056L196.056 73.623H236.023L236.024 181.304L236.024 213.21L236.024 253.092H164.083H160.836H160.087H156.09H154.092H138.637H132.11H116.123H98.8872L112.126 230.658L129.352 217.821L132.11 210.468L131.461 203.79L129.496 183.571L128.113 169.34L125.683 163.33L119.645 148.392L116.123 139.678C114.683 137.917 112.922 135.76 111.038 133.446C108.32 130.106 105.346 126.439 102.711 123.165C99.8865 119.656 97.4518 116.599 96.139 114.882C95.5995 114.176 95.2494 113.697 95.1396 113.505Z" fill="#434263"/>
<path d="M98.8864 97.5523L105.881 95.3089L124.116 91.57L140.102 93.5641M98.8864 97.5523L96.568 104.282M98.8864 97.5523L100.135 81.5995L108.129 73.623M116.123 253.092H132.11M116.123 253.092L118.88 245.742M116.123 253.092H98.8872L112.126 230.658L129.352 217.821M160.087 253.092L170.328 237.139L178.072 227.917L185.815 221.187L190.463 217.198M160.087 253.092H156.09M160.087 253.092H160.836M172.076 104.282L180.069 109.517L188.063 115.748L196.056 139.678L205.299 154.633L220.536 181.304L198.305 210.468L190.463 217.198M172.076 104.282L140.102 93.5641M172.076 104.282L176.073 91.57M140.102 93.5641L142.6 79.8546M94.8646 112.009C94.8648 110.057 95.635 107.099 96.1387 105.529L96.568 104.282M94.8646 112.009C94.8645 112.639 94.9446 113.165 95.1396 113.505C95.2494 113.697 95.5995 114.176 96.139 114.882M94.8646 112.009L93.641 101.54L94.546 95.3089M184.066 79.8546L188.063 77.6112L192.059 73.623H148.096M184.066 79.8546L185.815 82.8458H192.059L193.558 76.3649H196.056L196.056 73.623H236.023L236.024 181.304M184.066 79.8546L176.073 91.57M156.09 253.092H160.836M156.09 253.092H154.092M160.836 253.092H164.083M132.11 253.092L134.708 246.611M132.11 253.092H138.637M96.568 104.282L103.449 112.384M94.546 95.3089L96.1388 84.3413L100.135 73.623H108.129M94.546 95.3089L100.135 84.3413L124.116 79.8546H142.6M142.6 79.8546L176.073 91.57M142.6 79.8546L148.096 73.623M176.073 91.57L193.558 105.529L200.053 131.452L210.045 146.906L236.024 181.304M236.024 181.304L204.05 214.955L185.815 228.285M236.024 181.304L236.024 213.21M164.083 253.092H236.024L236.024 213.21M164.083 253.092L174.824 238.386L182.568 230.658L185.815 228.285M190.463 217.198L196.057 193.269L188.063 213.21L182.568 210.468L182.568 214.955L180.07 213.21L172.077 219.94L174.824 221.187L174.824 223.181H170.328C165.332 227.966 158.754 242.457 156.09 249.104L154.092 253.092M154.092 253.092H138.637M129.496 183.571L128.113 169.34L125.683 163.33L119.645 148.392L116.123 139.678C114.683 137.917 112.922 135.76 111.038 133.446C108.32 130.106 105.346 126.439 102.711 123.165C99.8865 119.656 97.4518 116.599 96.139 114.882M129.496 183.571H135.357L137.23 178.687L140.103 183.571H144.183M129.496 183.571L131.461 203.79M144.183 183.571L142.601 171.583L138.636 163.33L131.46 148.392L128.113 141.422L120.809 132.823L112.126 122.6L103.449 112.384M144.183 183.571L145.77 195.588M96.139 114.882L98.8864 113.505L98.8864 111.137L100.635 113.505L103.449 112.384M131.461 203.79L132.11 210.468L129.352 217.821M131.461 203.79H137.855L138.636 200.248L140.103 203.79H146.853M146.853 203.79L148.096 213.21L142.601 226.92M146.853 203.79L145.77 195.588M126.594 225.175L133.484 226.047L135.357 223.181L135.357 226.047L142.601 226.92M126.594 225.175L118.88 245.742M126.594 225.175L129.352 217.821M142.601 226.92L134.708 246.611M118.88 245.742H125.99L128.738 241.875L128.738 245.742L133.484 246.611H134.708M108.129 73.623H148.096M185.815 228.285L182.568 234.647L176.073 245.116L188.064 233.151L196.057 227.917L196.057 230.658L200.054 228.285L200.054 233.151L205.299 228.285L216.04 217.198L236.024 213.21M145.77 195.588L148.096 185.293L150.594 187.536L150.594 178.687L154.091 171.583M172.076 189.53L170.328 200.248L173.326 199.002L166.581 210.468L162.834 221.187L156.09 219.94L160.087 225.175L152.093 238.386L149.346 234.647L138.637 253.092" stroke="black" stroke-width="2"/>
<path d="M148.096 213.21L132.11 253.092H154.092L160.087 238.386L170.078 223.181H176.073L176.073 221.187L172.077 219.691L180.07 213.21L182.318 215.952L182.318 209.222L188.063 213.21L196.057 194.516C194.308 200.747 190.811 213.759 190.811 215.952C190.811 218.146 193.143 215.038 194.308 213.21L201.552 194.516L198.055 190.527L193.309 179.311L124.116 91.8193L100.136 97.5524L97.3879 104.282L128.113 141.423L142.851 173.328L148.096 213.21Z" fill="url(#paint1_linear_3569_10087)"/>
<path d="M98.8864 97.5523L105.881 95.3089L124.116 91.57L140.102 93.5641M98.8864 97.5523L96.568 104.282M98.8864 97.5523L100.135 81.5995L108.129 73.623M116.123 253.092H132.11M116.123 253.092L118.88 245.742M116.123 253.092H98.8872L112.126 230.658L129.352 217.821M160.087 253.092L170.328 237.139L178.072 227.917L185.815 221.187L190.463 217.198M160.087 253.092H156.09M160.087 253.092H160.836M172.076 104.282L180.069 109.517L188.063 115.748L196.056 139.678L205.299 154.633L220.536 181.304L198.305 210.468L190.463 217.198M172.076 104.282L140.102 93.5641M172.076 104.282L176.073 91.57M140.102 93.5641L142.6 79.8546M94.8646 112.009C94.8648 110.057 95.635 107.099 96.1387 105.529L96.568 104.282M94.8646 112.009C94.8645 112.639 94.9446 113.165 95.1396 113.505C95.2494 113.697 95.5995 114.176 96.139 114.882M94.8646 112.009L93.641 101.54L94.546 95.3089M184.066 79.8546L188.063 77.6112L192.059 73.623H148.096M184.066 79.8546L185.815 82.8458H192.059L193.558 76.3649H196.056L196.056 73.623H236.023L236.024 181.304M184.066 79.8546L176.073 91.57M156.09 253.092H160.836M156.09 253.092H154.092M160.836 253.092H164.083M132.11 253.092L134.708 246.611M132.11 253.092H138.637M96.568 104.282L103.449 112.384M94.546 95.3089L96.1388 84.3413L100.135 73.623H108.129M94.546 95.3089L100.135 84.3413L124.116 79.8546H142.6M142.6 79.8546L176.073 91.57M142.6 79.8546L148.096 73.623M176.073 91.57L193.558 105.529L200.053 131.452L210.045 146.906L236.024 181.304M236.024 181.304L204.05 214.955L185.815 228.285M236.024 181.304L236.024 213.21M164.083 253.092H236.024L236.024 213.21M164.083 253.092L174.824 238.386L182.568 230.658L185.815 228.285M190.463 217.198L196.057 193.269L188.063 213.21L182.568 210.468L182.568 214.955L180.07 213.21L172.077 219.94L174.824 221.187L174.824 223.181H170.328C165.332 227.966 158.754 242.457 156.09 249.104L154.092 253.092M154.092 253.092H138.637M129.496 183.571L128.113 169.34L125.683 163.33L119.645 148.392L116.123 139.678C114.683 137.917 112.922 135.76 111.038 133.446C108.32 130.106 105.346 126.439 102.711 123.165C99.8865 119.656 97.4518 116.599 96.139 114.882M129.496 183.571H135.357L137.23 178.687L140.103 183.571H144.183M129.496 183.571L131.461 203.79M144.183 183.571L142.601 171.583L138.636 163.33L131.46 148.392L128.113 141.422L120.809 132.823L112.126 122.6L103.449 112.384M144.183 183.571L145.77 195.588M96.139 114.882L98.8864 113.505L98.8864 111.137L100.635 113.505L103.449 112.384M131.461 203.79L132.11 210.468L129.352 217.821M131.461 203.79H137.855L138.636 200.248L140.103 203.79H146.853M146.853 203.79L148.096 213.21L142.601 226.92M146.853 203.79L145.77 195.588M126.594 225.175L133.484 226.047L135.357 223.181L135.357 226.047L142.601 226.92M126.594 225.175L118.88 245.742M126.594 225.175L129.352 217.821M142.601 226.92L134.708 246.611M118.88 245.742H125.99L128.738 241.875L128.738 245.742L133.484 246.611H134.708M108.129 73.623H148.096M185.815 228.285L182.568 234.647L176.073 245.116L188.064 233.151L196.057 227.917L196.057 230.658L200.054 228.285L200.054 233.151L205.299 228.285L216.04 217.198L236.024 213.21M145.77 195.588L148.096 185.293L150.594 187.536L150.594 178.687L154.091 171.583M172.076 189.53L170.328 200.248L173.326 199.002L166.581 210.468L162.834 221.187L156.09 219.94L160.087 225.175L152.093 238.386L149.346 234.647L138.637 253.092" stroke="black" stroke-width="2"/>
<path d="M76.1554 103.597L76.1553 73.623H101.135" stroke="black" stroke-width="2"/>
<path d="M76.1554 103.597L76.1554 98.6024C76.1553 84.8067 87.3389 73.623 101.135 73.623V73.623" stroke="black" stroke-width="2"/>
<path d="M76.1561 223.118L76.1561 228.113C76.1562 241.908 87.3399 253.092 101.136 253.092V253.092" stroke="black" stroke-width="2"/>
<path d="M76.1556 133.602L76.1555 103.628H101.135" stroke="black" stroke-width="2"/>
<path d="M76.1557 163.607L76.1556 133.633H110.752" stroke="black" stroke-width="2"/>
<path d="M80.1523 133.695L80.1524 162.734" stroke="black" stroke-width="2"/>
<path d="M84.149 133.695L84.1491 162.734" stroke="black" stroke-width="2"/>
<path d="M88.1457 133.695L88.1459 162.734" stroke="black" stroke-width="2"/>
<path d="M92.1424 133.695L92.1426 162.734" stroke="black" stroke-width="2"/>
<path d="M96.139 133.695L96.1392 162.734" stroke="black" stroke-width="2"/>
<path d="M100.136 133.695L100.136 162.734" stroke="black" stroke-width="2"/>
<path d="M104.132 133.695L104.133 162.734" stroke="black" stroke-width="2"/>
<path d="M108.129 133.695L108.129 162.734" stroke="black" stroke-width="2"/>
<path d="M112.126 135.502L112.126 162.734" stroke="black" stroke-width="2"/>
<path d="M116.123 139.865L116.123 162.734" stroke="black" stroke-width="2"/>
<path d="M120.119 149.399L120.119 162.734" stroke="black" stroke-width="2"/>
<path d="M76.1559 193.269L76.1558 163.295H125.74" stroke="black" stroke-width="2"/>
<path d="M76.1561 223.118L76.1562 253.092H110.128" stroke="black" stroke-width="2"/>
<path d="M236.023 103.597L236.023 73.623H211.044" stroke="black" stroke-width="2"/>
<path d="M236.024 223.118L236.024 253.092H211.045" stroke="black" stroke-width="2"/>
<path d="M108.129 98.6739L108.129 95.0596L123.366 91.4453L136.98 93.564L154.091 98.6739L172.076 104.781L180.819 109.517L186.939 115.499L193.309 131.826L198.18 143.541L204.05 155.755L204.799 161.363C203.883 161.779 199.404 163.083 195.307 173.453C194.52 175.444 194.499 178.361 193.309 180.183C188.304 187.846 181.133 194.908 177.197 197.257L172.951 191.4L172.951 189.904L168.704 185.916L167.455 183.423H165.707L160.836 178.563L160.836 177.316H158.837L150.095 167.221L152.093 169.34L155.09 170.212L153.841 168.343L151.219 166.224H149.345L145.473 163.856L144.099 159.993L141.726 157.375L138.979 153.387L136.106 151.518L134.482 148.776L135.482 147.031L136.106 143.541L135.482 140.052H134.482L128.113 132.948L125.74 132.449L124.116 131.078L121.368 130.455L118.87 124.099L116.122 115.499L108.129 98.6739Z" fill="url(#paint2_linear_3569_10087)"/>
<path d="M193.309 180.183C188.304 187.846 181.133 194.908 177.197 197.257L172.951 191.4L172.951 189.904L168.704 185.916L167.455 183.423H165.707L160.836 178.563L160.836 177.316H158.837L150.095 167.221L152.093 169.34L155.09 170.212L153.841 168.343L151.219 166.224H149.345L145.473 163.856L144.099 159.993L141.726 157.375L138.979 153.387L136.106 151.518L134.482 148.776L135.482 147.031L136.106 143.541L135.482 140.052H134.482L128.113 132.948L125.74 132.449L124.116 131.078L121.368 130.455L118.87 124.099L116.122 115.499L108.129 98.6739L108.129 95.0596L123.366 91.4453L136.98 93.564L154.091 98.6739L172.076 104.781L180.819 109.517L186.939 115.499L193.309 131.826L198.18 143.541L204.05 155.755L204.799 161.363C203.883 161.779 199.404 163.083 195.307 173.453C194.52 175.444 194.499 178.361 193.309 180.183ZM193.309 180.183L196.931 189.904L201.053 193.269L193.309 215.204L212.043 177.316L208.047 159.12" stroke="black" stroke-width="2"/>
<path d="M152.842 113.754L150.469 120.734L145.598 121.481L140.103 119.487H137.854L136.855 122.105L134.357 123.476L133.108 125.47L134.357 117.493L133.108 115.374L133.108 108.894L135.231 99.4217L141.976 94.8103M155.215 99.4217L156.839 103.285L159.461 104.781H163.458L164.083 108.894L165.082 115.374L163.458 119.487L158.712 129.458L157.588 136.811M169.203 103.285L170.952 109.517L170.328 120.734L170.328 122.105L166.706 124.846L166.706 122.105C166.789 121.648 167.18 120.734 168.079 120.734M170.952 125.47L170.328 130.206L169.204 136.811L172.701 139.927L174.199 147.405L172.076 146.657M172.076 146.657L173.325 149.399L169.204 154.758L167.455 153.387L165.082 147.405L172.076 146.657ZM166.706 153.387L162.209 154.01L163.265 158.328M168.08 154.758L168.08 159.12L169.204 160.117L168.08 162.734L167.455 162.246M163.265 158.328L163.458 159.12L167.455 162.246M163.265 158.328H160.086L161.779 162.734M167.455 162.246L166.706 165.352L166.706 168.467L165.855 167.595M161.779 162.734L162.21 163.856L165.855 167.595M161.779 162.734L158.712 162.246L156.09 162.734L157.218 166.395M165.855 167.595L164.083 170.835L163.265 173.328L157.588 167.595L157.218 166.395M157.218 166.395L152.967 165.352L152.967 168.467M140.727 153.387L139.478 151.268L143.35 152.265M162.21 174.325L161.779 176.319L166.706 181.928L169.204 182.925L169.204 178.936L166.706 176.319L170.328 178.936H173.325L173.325 175.197L169.204 170.835L169.204 168.467L170.952 166.395L175.324 170.835L175.56 172.565M174.2 176.319H176.073L175.56 172.565M175.56 172.565L179.445 170.835L178.946 165.352L177.135 163.799M177.135 163.799L175.324 162.246L176.073 160.74L177.697 161.363L177.135 163.799ZM183.067 166.395C183.359 164.926 183.767 161.862 183.067 161.363C182.368 160.865 180.777 158.829 180.07 157.874L181.818 156.503L184.066 158.328L189.562 157.375L192.06 153.387L187.439 146.657L185.315 143.541L186.065 141.422L188.063 139.927L189.562 137.434L191.31 138.057L193.434 140.425L196.056 138.805M129.362 131.327L128.113 129.458H130.86L136.106 135.191L136.106 137.434L132.109 134.318M132.109 100.543L130.86 105.529M156.09 150.396L157.588 153.387L160.086 154.01M148.596 156.004L150.469 159.12L152.967 160.74M164.083 126.217L164.083 132.698L165.082 134.318L162.209 140.425L164.083 144.787M148.596 145.535L140.103 148.651L140.727 148.424L144.099 149.399L147.472 152.265L146.348 149.399L148.596 145.535ZM130.236 110.389L129.361 112.757L124.865 113.505L126.988 117.493H129.361L128.113 122.105L130.86 116.122L130.236 110.389ZM140.103 127.09H141.976L141.976 132.698L144.724 129.458L148.096 126.217L144.724 127.09L143.35 125.47L140.103 127.09Z" stroke="black" stroke-width="2"/>
<path d="M176.073 152.764L175.074 155.132L175.074 155.755L176.573 151.393L179.445 150.022L181.194 147.903L182.568 141.422L184.066 139.927L185.69 138.058L188.937 135.191H192.06L193.309 132.574L197.93 130.081L197.305 132.574L202.926 127.215L197.93 135.191H194.558L195.432 136.811L201.177 135.814L196.056 138.805L193.309 140.301L190.311 137.434L188.937 138.058L186.689 141.422L185.69 143.292L188.937 148.776L186.689 152.764L183.192 153.387L182.568 156.627L180.07 157.874L181.194 159.494L179.445 160.74H176.573L174.449 165.352L173.95 169.963L171.077 166.099L170.078 167.346L168.08 170.835L166.706 169.34L166.706 166.099L168.08 162.984L169.454 160.74L168.08 159.494L168.08 155.132L175.074 146.283L176.573 145.411L176.073 144.164L178.696 141.422L178.696 137.434L179.445 135.814L179.445 133.446L181.194 130.081L181.194 127.215L181.194 123.725L185.69 118.49L184.066 121.482L186.689 120.36L191.31 116.372H192.684H194.557L196.056 115.375L197.93 112.757L198.679 109.517L196.681 108.146L196.056 107.398L194.557 104.781L194.557 109.517L196.056 110.888H194.557L192.684 109.517L192.684 105.529L191.31 104.033L192.059 99.4217L193.308 97.5523H194.557L193.308 94.3118L190.311 90.4483L190.311 84.8399L192.059 82.9704L192.059 80.8517L193.308 76.3649L196.681 75.3679L197.305 73.623H229.653L224.033 76.3649L221.66 78.9822L219.412 79.73L216.914 82.9704L214.541 83.5936L212.043 82.3472H208.046L209.17 81.5995L205.923 82.3472L205.423 83.5936L202.925 85.5877L205.923 84.8399L206.922 86.7093L205.923 89.5759L210.045 86.7093L212.043 84.8399L212.043 86.7093L208.046 89.5759L205.423 91.8192L202.925 92.567L201.177 95.8074L200.053 98.1754L200.053 102.662C199.478 102.323 198.541 101.722 197.924 101.198C198.394 102.009 199.026 103.23 199.428 104.033H201.177L202.926 108.146L202.051 111.885L205.423 113.505L202.926 117.493L202.051 121.482L197.305 127.215L200.053 121.482L201.177 117.493L201.177 114.378H200.053L198.679 115.375L196.056 117.493L195.432 120.36H194.558H191.31L188.937 123.725L188.937 125.47L188.063 127.215H190.311L193.309 122.354H197.305L194.558 123.725L190.311 128.835H187.314L187.314 130.081L185.69 132.574L182.568 135.191L181.194 138.058L181.194 140.301L181.194 142.295L180.07 146.283L176.073 150.022L176.073 152.764Z" fill="white"/>
<path d="M205.923 122.354L204.05 125.47L209.17 123.725L209.17 117.493L214.541 110.888L206.922 116.87L205.923 122.354Z" fill="white"/>
<path d="M213.292 116.372L211.419 120.36L215.29 117.493L216.914 120.36L218.413 115.375L221.66 114.378L228.779 107.398L228.779 113.505L232.026 111.386L236.023 122.354L236.023 82.9704L230.652 84.8399L228.779 96.6798L225.657 95.8074L221.035 100.419L217.663 102.662L215.29 108.146H217.663L216.914 113.505L213.292 116.372Z" fill="white"/>
<path d="M175.074 155.132L176.073 152.764L176.073 150.022L180.07 146.283L181.194 142.295L181.194 140.301L181.194 138.058L182.568 135.191L185.69 132.574L187.314 130.081L187.314 128.835H190.311L194.558 123.725L197.305 122.354H193.309L190.311 127.215H188.063L188.937 125.47L188.937 123.725L191.31 120.36H194.558H195.432L196.056 117.493L198.679 115.375L200.053 114.378H201.177L201.177 117.493L200.053 121.482L197.305 127.215L202.051 121.482L202.926 117.493L205.423 113.505L202.051 111.885L202.926 108.146L201.177 104.033H199.428C198.721 102.621 197.305 99.9205 197.305 100.419C197.305 100.918 199.137 102.122 200.053 102.662L200.053 98.1754L201.177 95.8074L202.925 92.567L205.423 91.8192L208.046 89.5759L212.043 86.7093L212.043 84.8399L210.045 86.7093L205.923 89.5759L206.922 86.7093L205.923 84.8399L202.925 85.5877L205.423 83.5936L205.923 82.3472L209.17 81.5995L208.046 82.3472H212.043L214.541 83.5936L216.914 82.9704L219.412 79.73L221.66 78.9822L224.033 76.3649L229.653 73.623H197.305L196.681 75.3679L193.308 76.3649L192.059 80.8517L192.059 82.9704L190.311 84.8399L190.311 90.4483L193.308 94.3118L194.557 97.5523H193.308L192.059 99.4217L191.31 104.033L192.684 105.529L192.684 109.517L194.557 110.888H196.056L194.557 109.517L194.557 104.781L196.056 107.398L196.681 108.146L198.679 109.517L197.93 112.757L196.056 115.375L194.557 116.372H192.684H191.31L186.689 120.36L184.066 121.482L185.69 118.49L181.194 123.725L181.194 127.215L181.194 130.081L179.445 133.446L179.445 135.814L178.696 137.434L178.696 141.422L176.073 144.164L176.573 145.411L175.074 146.283L168.08 155.132L168.08 159.494L169.454 160.74L168.08 162.984L166.706 166.099L166.706 169.34L168.08 170.835L170.078 167.346L171.077 166.099L173.95 169.963L174.449 165.352L176.573 160.74H179.445L181.194 159.494L180.07 157.874L182.568 156.627L183.192 153.387L186.689 152.764L188.937 148.776L185.69 143.292L186.689 141.422L188.937 138.058L190.311 137.434L193.309 140.301L196.056 138.805L201.177 135.814L195.432 136.811L194.558 135.191H197.93L202.926 127.215L197.305 132.574L197.93 130.081L193.309 132.574L192.06 135.191H188.937L185.69 138.058L184.066 139.927L182.568 141.422L181.194 147.903L179.445 150.022L176.573 151.393L175.074 155.755L175.074 155.132ZM204.05 125.47L205.923 122.354L206.922 116.87L214.541 110.888L209.17 117.493L209.17 123.725L204.05 125.47ZM211.419 120.36L213.292 116.372L216.914 113.505L217.663 108.146H215.29L217.663 102.662L221.035 100.419L225.657 95.8074L228.779 96.6798L230.652 84.8399L236.023 82.9704L236.023 122.354L232.026 111.386L228.779 113.505L228.779 107.398L221.66 114.378L218.413 115.375L216.914 120.36L215.29 117.493L211.419 120.36Z" stroke="black" stroke-width="2"/>
<path d="M143.029 99.0588L141.986 99.6766C140.75 100.409 139.718 101.44 138.985 102.675C138.403 103.654 138.023 104.738 137.865 105.865L137.678 107.203C137.466 108.724 137.616 110.274 138.116 111.725C138.521 112.901 139.147 113.988 139.96 114.928L140.177 115.179C140.79 115.886 141.512 116.49 142.317 116.967L142.98 117.36C144.346 118.169 145.959 118.46 147.522 118.18L148.427 118.017C150.227 117.694 151.712 116.421 152.308 114.691C152.577 113.912 152.65 113.079 152.523 112.265L152.237 110.439C152.141 109.825 152.093 109.205 152.093 108.583L152.093 107.819C152.093 106.309 151.779 104.814 151.173 103.431L150.899 102.807C150.532 101.97 150.012 101.209 149.365 100.564L148.551 99.7512C147.7 98.9017 146.546 98.4246 145.343 98.4246C144.529 98.4246 143.729 98.6436 143.029 99.0588Z" fill="white" stroke="black" stroke-width="2"/>
<path d="M144.724 95.4958L148.096 81.9733L156.089 73.623" stroke="black" stroke-width="2"/>
<path d="M150.032 97.2407L153.404 83.7182L163.208 73.623" stroke="black" stroke-width="2"/>
<path d="M155.34 98.5805L158.712 85.058L168.766 73.623" stroke="black" stroke-width="2"/>
<path d="M161.46 100.45L164.832 86.9274L176.073 73.3738" stroke="black" stroke-width="2"/>
<path d="M166.768 102.257L170.141 88.7346L182.879 73.623" stroke="black" stroke-width="2"/>
<path d="M64.0007 187L44.0007 187L44.0004 203L52.0003 211.5L44.0002 219L44 235L54 235L64 235L64.0007 187Z" fill="#717476"/>
<path d="M64.0007 187L44.0007 187L44.0004 203L52.0003 211.5L44.0002 219L44 235L54 235L64 235L64.0007 187Z" fill="black" fill-opacity="0.2"/>
<path d="M64.0007 187L44.0007 187L44.0004 203L52.0003 211.5L44.0002 219L44 235L54 235L64 235L64.0007 187Z" stroke="black" stroke-width="2"/>
<path d="M56.0001 195L64.0002 187L64.0001 195L56.0001 195Z" fill="black" fill-opacity="0.38" stroke="black" stroke-width="2" stroke-linejoin="bevel"/>
<path d="M248 187L268 187L268 203L260.001 211.5L268.001 219L268.001 235L258.001 235L248.001 235L248 187Z" fill="#717476"/>
<path d="M248 187L268 187L268 203L260.001 211.5L268.001 219L268.001 235L258.001 235L248.001 235L248 187Z" fill="black" fill-opacity="0.2"/>
<path d="M248 187L268 187L268 203L260.001 211.5L268.001 219L268.001 235L258.001 235L248.001 235L248 187Z" stroke="black" stroke-width="2"/>
<path d="M256.002 195L248.002 187L248.002 195L256.002 195Z" fill="black" fill-opacity="0.38" stroke="black" stroke-width="2" stroke-linejoin="bevel"/>
<path d="M255.99 194.977L55.9904 194.977L55.9897 242.977L255.99 242.977L255.99 194.977Z" fill="#717476" stroke="black" stroke-width="2"/>
<path d="M95.7231 230.36C93.8271 230.36 91.4151 230.216 88.4871 229.928L88.7392 223.268L90.9352 223.268L91.5471 227.228C92.4831 227.348 93.4431 227.468 94.4271 227.588C95.4111 227.708 96.1911 227.768 96.7671 227.768C96.8871 227.768 97.0551 227.624 97.2711 227.336C97.5111 227.048 97.7152 226.7 97.8832 226.292C98.0512 225.884 98.1352 225.5 98.1352 225.14C98.1352 224.252 97.7992 223.508 97.1272 222.908C96.4552 222.284 95.4352 221.564 94.0672 220.748C92.9392 220.124 92.0153 219.548 91.2953 219.02C90.5753 218.492 89.9633 217.844 89.4593 217.076C88.9793 216.284 88.7393 215.36 88.7393 214.304C88.7393 213.608 88.7993 212.996 88.9194 212.468C89.2074 211.94 89.7594 211.316 90.5754 210.596C91.3914 209.876 92.2314 209.252 93.0954 208.724C93.9834 208.196 94.6434 207.932 95.0754 207.932C95.6274 207.932 97.7394 208.136 101.411 208.544L101.123 214.844L98.9273 214.844L98.4234 211.244C97.6314 211.1 96.7194 210.956 95.6874 210.812C94.6794 210.668 93.9354 210.596 93.4554 210.596C93.1674 210.596 92.9274 210.8 92.7354 211.208C92.5434 211.616 92.4474 212.216 92.4473 213.008C92.4473 213.944 92.7713 214.736 93.4193 215.384C94.0673 216.032 95.0153 216.716 96.2633 217.436C97.6553 218.228 98.6993 218.864 99.3953 219.344C100.091 219.824 100.703 220.46 101.231 221.252C101.783 222.02 102.059 222.944 102.059 224.024C102.059 224.648 101.987 225.248 101.843 225.824C101.531 226.424 100.979 227.084 100.187 227.804C99.3951 228.524 98.5671 229.136 97.7031 229.64C96.8631 230.12 96.2031 230.36 95.7231 230.36ZM108.263 230.36C107.975 230.36 107.615 230.18 107.183 229.82C106.751 229.46 106.367 229.04 106.031 228.56C105.695 228.08 105.527 227.696 105.527 227.408L105.527 215.888L103.187 215.888L103.187 214.592L105.527 213.476L107.867 210.704C108.083 210.68 108.551 210.848 109.271 211.208L109.271 213.8L112.799 213.8L112.799 216.032L109.271 216.032L109.271 225.824C109.271 226.52 109.331 227 109.451 227.264C109.571 227.504 109.799 227.624 110.135 227.624L113.159 227.732L113.159 229.64C112.415 229.808 111.479 229.964 110.351 230.108C109.247 230.276 108.551 230.36 108.263 230.36ZM120.61 230.36C119.554 230.36 118.582 230.072 117.694 229.496C116.83 228.896 116.134 228.008 115.606 226.832C115.102 225.656 114.85 224.216 114.85 222.512C114.85 221.384 114.934 220.34 115.102 219.38C115.27 218.396 115.486 217.628 115.75 217.076C116.158 216.524 117.058 215.78 118.45 214.844C119.866 213.908 120.802 213.44 121.258 213.44C121.522 213.44 122.458 213.56 124.066 213.8C125.674 214.016 126.91 214.196 127.774 214.34L127.774 227.696L129.034 228.2L129.034 229.748C126.85 230.156 125.638 230.36 125.398 230.36C125.302 230.36 125.062 230.18 124.678 229.82C124.318 229.46 124.138 229.22 124.138 229.1L124.138 227.804C121.954 229.508 120.778 230.36 120.61 230.36ZM121.006 227.444C121.246 227.444 122.254 227 124.03 226.112L124.03 216.428C123.454 216.212 122.722 216.02 121.834 215.852C120.97 215.66 120.394 215.588 120.106 215.636C119.674 215.732 119.35 216.272 119.134 217.256C118.918 218.24 118.81 219.884 118.81 222.188C118.81 223.34 118.93 224.312 119.17 225.104C119.434 225.896 119.734 226.484 120.07 226.868C120.43 227.252 120.742 227.444 121.006 227.444ZM147.44 230.396C147.368 230.396 147.2 230.3 146.936 230.108L143.012 216.032L141.608 215.636L141.608 214.016C143.744 213.68 144.92 213.512 145.136 213.512C145.256 213.512 145.508 213.656 145.892 213.944C146.3 214.232 146.528 214.46 146.576 214.628L148.664 223.268L149.312 226.364L149.708 226.364L152.516 215.924L150.356 215.672L150.356 213.8L154.892 213.512C155.012 213.512 155.216 213.692 155.504 214.052C155.816 214.412 155.972 214.676 155.972 214.844L151.256 229.748C148.904 230.18 147.632 230.396 147.44 230.396ZM163.219 230.36C162.163 230.36 161.191 230.072 160.303 229.496C159.439 228.896 158.743 228.008 158.215 226.832C157.712 225.656 157.46 224.216 157.46 222.512C157.46 221.384 157.544 220.34 157.712 219.38C157.88 218.396 158.096 217.628 158.36 217.076C158.768 216.524 159.668 215.78 161.06 214.844C162.476 213.908 163.412 213.44 163.868 213.44C164.132 213.44 165.068 213.56 166.676 213.8C168.284 214.016 169.52 214.196 170.384 214.34L170.383 227.696L171.643 228.2L171.643 229.748C169.459 230.156 168.247 230.36 168.007 230.36C167.911 230.36 167.671 230.18 167.287 229.82C166.927 229.46 166.747 229.22 166.747 229.1L166.747 227.804C164.563 229.508 163.387 230.36 163.219 230.36ZM163.615 227.444C163.855 227.444 164.863 227 166.64 226.112L166.64 216.428C166.064 216.212 165.332 216.02 164.444 215.852C163.58 215.66 163.004 215.588 162.716 215.636C162.284 215.732 161.96 216.272 161.744 217.256C161.528 218.24 161.42 219.884 161.42 222.188C161.42 223.34 161.54 224.312 161.78 225.104C162.044 225.896 162.344 226.484 162.679 226.868C163.039 227.252 163.351 227.444 163.615 227.444ZM177.873 230.36C177.585 230.36 177.225 230.18 176.793 229.82C176.361 229.46 175.977 229.04 175.641 228.56C175.305 228.08 175.137 227.696 175.137 227.408L175.137 215.888L172.797 215.888L172.797 214.592L175.137 213.476L177.477 210.704C177.693 210.68 178.161 210.848 178.881 211.208L178.881 213.8L182.409 213.8L182.409 216.032L178.881 216.032L178.881 225.824C178.881 226.52 178.941 227 179.061 227.264C179.181 227.504 179.409 227.624 179.745 227.624L182.769 227.732L182.769 229.64C182.025 229.808 181.089 229.964 179.961 230.108C178.857 230.276 178.161 230.36 177.873 230.36ZM187.123 230.36C186.979 230.36 186.691 230.168 186.259 229.784C185.827 229.376 185.611 229.112 185.611 228.992L185.612 215.996L184.28 215.564L184.28 214.052C186.44 213.668 187.64 213.476 187.88 213.476C188.024 213.476 188.3 213.668 188.708 214.052C189.116 214.412 189.32 214.676 189.32 214.844L189.319 227.804L190.615 228.2L190.615 229.712C188.527 230.144 187.363 230.36 187.123 230.36ZM185.36 206.78L188.492 206.6L189.104 207.428L188.888 210.668L185.648 210.668L185.36 206.78ZM200.707 230.36C198.139 230.36 196.207 229.724 194.911 228.452C193.615 227.156 192.967 225.164 192.967 222.476C192.967 221.396 193.051 220.352 193.219 219.344C193.387 218.336 193.603 217.592 193.867 217.112C194.131 216.752 194.659 216.272 195.451 215.672C196.243 215.048 197.047 214.508 197.863 214.052C198.679 213.572 199.231 213.332 199.519 213.332C202.015 213.332 203.899 213.992 205.171 215.312C206.443 216.608 207.079 218.504 207.079 221C207.079 222.152 206.995 223.244 206.827 224.276C206.683 225.284 206.491 226.1 206.251 226.724C205.843 227.252 204.919 227.996 203.479 228.956C202.063 229.892 201.139 230.36 200.707 230.36ZM200.851 228.164C200.995 228.116 201.559 227.84 202.543 227.336C202.927 225.632 203.119 223.676 203.119 221.468C203.119 219.668 202.795 218.24 202.147 217.184C201.523 216.104 200.587 215.564 199.339 215.564C198.811 215.564 198.379 215.648 198.043 215.816C197.707 215.984 197.431 216.608 197.215 217.688C197.023 218.768 196.927 220.196 196.927 221.972C196.927 224.276 197.299 225.884 198.043 226.796C198.811 227.708 199.747 228.164 200.851 228.164ZM212.044 230.36C211.924 230.36 211.672 230.18 211.288 229.82C210.928 229.46 210.748 229.22 210.748 229.1L210.748 216.104L209.416 215.564L209.416 214.052C211.672 213.668 212.92 213.476 213.16 213.476C213.28 213.476 213.508 213.656 213.844 214.016C214.18 214.352 214.348 214.58 214.348 214.7L214.348 215.96C215.044 215.432 215.8 214.892 216.616 214.34C217.432 213.764 217.888 213.476 217.984 213.476C219.736 213.476 221.056 213.92 221.944 214.808C222.832 215.672 223.276 217.196 223.276 219.38L223.276 227.66L224.572 228.2L224.572 229.712C222.34 230.144 221.116 230.36 220.9 230.36C220.78 230.36 220.516 230.18 220.108 229.82C219.724 229.46 219.532 229.22 219.532 229.1L219.532 219.38C219.532 217.364 218.908 216.356 217.66 216.356C217.54 216.356 217.216 216.464 216.688 216.68C216.184 216.896 215.812 217.052 215.572 217.148C215.332 217.268 214.972 217.424 214.492 217.616L214.492 227.66L215.752 228.2L215.752 229.712C213.52 230.144 212.284 230.36 212.044 230.36Z" fill="black" fill-opacity="0.57"/>
<path d="M133.751 230.36C133.631 230.36 133.379 230.18 132.995 229.82C132.635 229.46 132.455 229.22 132.455 229.1L132.455 216.032L131.123 215.564L131.123 214.052C133.259 213.668 134.447 213.476 134.687 213.476C134.807 213.476 135.071 213.68 135.479 214.088C135.911 214.472 136.127 214.712 136.127 214.808L136.055 216.14C137.807 214.244 138.755 213.296 138.899 213.296C139.331 213.296 140.159 213.488 141.383 213.872C141.455 214.04 141.515 214.244 141.563 214.484C141.611 214.7 141.635 214.904 141.635 215.096C141.635 215.288 141.467 215.708 141.131 216.356C140.819 216.98 140.615 217.316 140.519 217.364C139.583 217.004 138.923 216.824 138.539 216.824C138.371 216.824 138.059 216.932 137.603 217.148C137.147 217.34 136.679 217.58 136.199 217.868L136.199 227.48L138.143 228.056L138.143 229.712C135.455 230.144 133.991 230.36 133.751 230.36Z" fill="black" fill-opacity="0.3"/>
<defs>
<linearGradient id="paint0_linear_3569_10087" x1="156.089" y1="73.623" x2="156.089" y2="253.092" gradientUnits="userSpaceOnUse">
<stop/>
<stop offset="1" stop-opacity="0"/>
</linearGradient>
<linearGradient id="paint1_linear_3569_10087" x1="149.47" y1="91.8193" x2="149.47" y2="253.092" gradientUnits="userSpaceOnUse">
<stop stop-color="#252E45"/>
<stop offset="1" stop-color="#1D1C1C"/>
</linearGradient>
<linearGradient id="paint2_linear_3569_10087" x1="160.086" y1="91.4453" x2="160.086" y2="215.204" gradientUnits="userSpaceOnUse">
<stop stop-color="#9E9E9E"/>
<stop offset="1" stop-color="white"/>
</linearGradient>
</defs>
</svg>
