<svg width="312" height="312" viewBox="0 0 312 312" fill="none" xmlns="http://www.w3.org/2000/svg">
<rect width="160" height="124" transform="matrix(1 0 5.51922e-06 1 76.0002 66)" fill="white"/>
<path d="M76.5002 66.7603H236.001L236.001 114.903C236.001 114.903 211.592 102.095 194.5 99.5C154.751 93.4643 135.001 143 97.5006 134C86.7217 131.413 76.5005 114.903 76.5005 114.903L76.5002 66.7603Z" fill="url(#paint0_linear_3379_7734)"/>
<path d="M77.0007 157.125C88.4998 154.826 98.7507 166.375 109.501 152.375L85.0006 150.375C113.237 138.204 126.32 157.125 154.751 157.125C164.351 157.125 164.251 155.458 163.001 154.625L166.501 158.375L167.751 154.625C174.334 152.125 191.001 147.175 205.001 147.375C219.001 147.575 214.334 137.125 210.251 131.875L221.001 135.375L221.001 131.875H224.251L224.251 128.625L215.25 122.875L217.25 121.125L226.751 126.375H242.751" stroke="black" stroke-width="2"/>
<path d="M184.25 81.8742C184.25 81.8742 194.25 79.1252 201.25 80.75C208.25 82.3748 213 84.8746 213 89.3746L214 86.3747L216 92.3746L219 94.3746L217 96.3746L218 97.3746L218 101.375L216 105.375L215 104.375L213.001 110.375L209.001 111.375L204.001 121.375L198.001 119.375L197.001 117.375L198.001 106.375L196 104.375L196 101.375L192 105.375C191.286 108.589 187.501 116.625 188.251 119.875C189.202 123.996 192.001 124.24 192.001 129L206.001 130.375L208.001 133.375L208.001 138.375L202.001 141.375L202.001 137.375L189.376 139.375L190.251 146.375L198.001 147.5L198.001 155.125H185.251L177.001 144.375C165.21 150.925 151.59 149.279 143.001 145.375C137.891 143.052 136.384 140.308 136.001 138.466L136.001 145.375L136.001 160.375L148.626 168.125L144.001 171.375L128.001 162.375L127.001 153.375L116.001 160.375L116.001 175.375L113.001 172.375H108.001L108.001 157.375L117.001 149.375L117.001 145.375C103.501 131.625 110.813 110.374 129.501 110.375C140.79 110.375 145.126 115 163.001 109.375C163.001 109.375 169.759 93.6104 178.375 87.9994C181.927 85.6869 188.25 83.4995 188.25 83.4995L184.25 81.8742Z" fill="#515151"/>
<path d="M196 101.375L196 104.375L198.001 106.375L197.001 117.375L198.001 119.375L204.001 121.375L209.001 111.375L213.001 110.375L215 104.375L216 105.375L218 101.375L218 97.3746L217 96.3746L219 94.3746L216 92.3746L214 86.3747L213 89.3746C213 84.8746 208.25 82.3748 201.25 80.75C194.25 79.1252 184.25 81.8742 184.25 81.8742L188.25 83.4995C188.25 83.4995 181.927 85.6869 178.375 87.9994C169.759 93.6104 163.001 109.375 163.001 109.375C145.126 115 140.79 110.375 129.501 110.375C110.813 110.374 103.501 131.625 117.001 145.375L117.001 149.375L108.001 157.375L108.001 172.375H113.001L116.001 175.375L116.001 160.375L127.001 153.375M196 101.375L197 96.3746H199M196 101.375L192 105.375C191.286 108.589 187.501 116.625 188.251 119.875C189.202 123.996 192.001 124.24 192.001 129M192.001 129L206.001 130.375L208.001 133.375L208.001 138.375L202.001 141.375L202.001 137.375L189.376 139.375M192.001 129L189.376 139.375M189.376 139.375L190.251 146.375L198.001 147.5L198.001 155.125H185.251L177.001 144.375C165.21 150.925 151.59 149.279 143.001 145.375C134.412 141.471 136.001 136.375 136.001 136.375L136.001 145.375L136.001 160.375L148.626 168.125L144.001 171.375L128.001 162.375L127.001 153.375M189.376 139.375L186.001 132.375M127.001 153.375C131.001 151.375 135.934 146.375 135.934 146.375" stroke="black" stroke-width="2"/>
<path d="M132.21 169.375C129.844 169.375 121.363 173.375 117.418 175.375C112.428 169.722 106.691 168.878 99.668 171.375C108.382 162.538 76.0853 171.344 76.0009 171.375L76.0013 246H236.001L236.001 127.875C228.764 128.182 224.361 131.448 221.948 138.375C212.539 135.422 202.914 138.677 196.309 145.375L196.309 157.375L184.475 164.875L169.683 160.375L167.711 162.875L181.517 168.375C177.586 169.039 173.549 169.395 169.683 170.375C165.739 171.375 153.905 167.375 149.961 167.375C146.016 167.375 143.058 173.375 141.086 172.375C139.113 171.375 135.169 169.375 132.21 169.375Z" fill="#C4C4C4" stroke="black" stroke-width="2"/>
<path d="M209 104.375L208 108.375" stroke="black" stroke-width="2"/>
<path d="M114.001 118.375L112.001 120.376C92.8897 114.005 93.3757 147.375 68.5006 128.376C80.6118 128.366 99.8754 89.1251 114.001 118.375Z" fill="#515151" stroke="black" stroke-width="2"/>
<path d="M164.001 108.5L161 110.375C161.487 110.983 166.501 117.625 166.501 117.625L170 115.937L170 123.375C170 123.375 164.291 137.732 164.001 142.375C163.711 147.017 171 149.375 171 149.375L158 147.375L159 142.375L160.001 124.375L146.125 111.75L142.5 106.5L161 76.8748L165.001 77.3748L163.001 74.4998L167.125 72.1248C167.125 72.1248 167.938 69.7505 170.313 69.2189C172.688 68.6873 174.312 70.0623 174.312 70.0623L178 72.1248L176 75.2498L173 83.7498L168.875 81.7498L170.625 87.3748L174.188 91.5623L170.625 95.6874L178 99.3748L182 100.375L184.001 101.375L181 105.875L176 103.375L161.938 100.75L160.5 102.25L160.5 105.096C163.938 106.688 164.001 108.5 164.001 108.5Z" fill="#C4C4C4"/>
<path d="M168.875 81.7498L173 83.7498L176 75.2498L178 72.1248L174.312 70.0623C174.312 70.0623 172.688 68.6873 170.313 69.2189C167.938 69.7505 167.125 72.1248 167.125 72.1248L163.001 74.4998L165.001 77.3748L161 76.8748L142.5 106.5L146.125 111.75L160.001 124.375L159 142.375L158 147.375L171 149.375C171 149.375 163.711 147.017 164.001 142.375C164.291 137.732 170 123.375 170 123.375L170 115.937L166.501 117.625C166.501 117.625 161.487 110.983 161 110.375L164.001 108.5C164.001 108.5 163.875 104.875 154.25 103.375M168.875 81.7498L168.125 94.9375L170.625 95.6874M168.875 81.7498L170.625 87.3748L174.188 91.5623L170.625 95.6874M161.938 100.75L176 103.375L181 105.875L184.001 101.375L182 100.375L178 99.3748L170.625 95.6874M161.938 100.75C160.856 96.4264 160.5 90.5623 161 86.3748M161.938 100.75L160.5 102.25L160.5 105.875" stroke="black" stroke-width="2"/>
<path d="M165.001 139.375L161.001 138.375L157.001 134.375L159.001 142.375" stroke="black" stroke-width="2"/>
<path d="M168.438 127.625H164.251L160.563 125.438L160.563 128.5L158.001 127.062L159.751 132.375" stroke="black" stroke-width="2"/>
<path d="M189.875 88L189.875 93.375L186 91.75L188 95.75L183.875 97.25L186 101.375L178.125 110.375L172.126 113.5L170.375 110.375L170.376 114.875L166.126 116.625" stroke="black" stroke-width="2"/>
<path d="M194.5 89.75L197 86.625L198.5 89H202.875L207.25 90.5L207.25 92.875L205 96.125L206.5 96.75L207.25 100.5H212.125L216 105.5" stroke="black" stroke-width="2"/>
<path d="M163 113C163 113 158.95 113.484 157 115C155.459 116.199 154.001 119 154.001 119" stroke="black" stroke-width="2"/>
<path d="M168.625 116.188C168.625 116.188 160.813 116.5 162.438 120.375C160.897 121.574 159.438 124.375 159.438 124.375" stroke="black" stroke-width="2"/>
<path d="M155.438 113.625C155.438 113.625 159.188 112.688 160.125 109.313L151.813 102.875L155.813 98.375C155.042 98.4791 153.25 98.525 152.25 97.875C151.25 97.225 147.209 100.187 145.313 101.75L143.813 105.375C143.813 105.375 143.688 112 146 117.125C149.313 118.063 152.688 115.438 152.688 115.438L149.75 108.813L155.438 113.625Z" fill="#C4C4C4" stroke="black" stroke-width="2"/>
<path d="M157.876 122.125L151.126 122.875L145.626 119.75L146.376 125.5L141.626 126.25L138.25 110.5" stroke="black" stroke-width="2"/>
<path d="M159.501 124.875L150.501 126.375L150.501 128.125L138.126 130.25L134.375 110.5" stroke="black" stroke-width="2"/>
<path d="M146.188 146.625L143.126 129.125" stroke="black" stroke-width="2"/>
<path d="M172.376 146.375L168.751 127.125" stroke="black" stroke-width="2"/>
<path d="M184 100.375L182 98.375L178 99.375L177 101.375L173 100.375L176 103.375L181 106.062L184 105.375H184.438L181 104.375L182 102.375L185 103.375M183 101.375H186" stroke="black" stroke-width="2"/>
<path d="M155 78.375L165 77.75C165 77.75 159.2 85.375 152 97.375C144.8 109.375 107.917 93.5417 98.2504 92.875C109.421 89.4582 108.089 86.2431 105.289 84.2349C103.864 83.6066 102.433 82.905 101 82.1248C101 82.1248 103.458 82.9218 105.289 84.2349C131.722 95.8882 156.258 82.358 155 78.375Z" fill="#FF4B3C" stroke="black" stroke-width="2"/>
<path d="M114 110.375C110.523 92.9868 103.001 103.375 103.001 103.375L95.5208 87.3624C113.741 94.2968 146.48 103.937 155 78.375L158.75 78.0625L159.75 71.0625L172.25 79.4375L162.125 82.0625C147.247 101.623 142.146 112.316 114 110.375Z" fill="#FF4B3C" stroke="black" stroke-width="2"/>
<path d="M164.157 77.9062L160 81.0469L159.657 84.8594L161.375 84.75L159.453 84.9375L159.125 88.125C159.125 88.125 160.438 91.6875 165.313 91.4375C170.188 91.1875 171 87.375 171 87.375L170.36 83.9687L170.16 83.9827L169.125 80.375L164.157 77.9062Z" fill="#C4C4C4" stroke="black" stroke-width="2"/>
<path d="M164.641 81.9062L165.313 88.5625" stroke="black" stroke-width="2"/>
<path d="M167.188 84.2031L162.641 84.625" stroke="black" stroke-width="2"/>
<path d="M207.001 116.125L197.626 113C195.209 108.75 188.976 100.025 183.376 99.125C183.376 103.5 176.126 105.75 197.001 116.75" stroke="black" stroke-width="2"/>
<path d="M243.501 150.375C231.917 152.792 207.501 158.125 202.501 160.125C197.501 162.125 200.417 165.125 202.501 166.375L224.751 162.875L219.251 167.625C220.418 168.958 222.401 172.625 221.001 176.625C217.396 186.925 200.251 189.674 200.251 202.125" stroke="black" stroke-width="2"/>
<path d="M197.001 169.375L185.751 171.375C198.378 170.133 208.794 177.582 197.001 189.375C191.001 195.375 187.876 198 187.876 202.125" stroke="black" stroke-width="2"/>
<path d="M179.501 172.875C171.001 174.625 152.451 178.675 146.251 180.875C140.051 183.075 145.501 182.792 149.001 182.375C153.334 181.792 162.201 181.725 163.001 186.125C164.445 194.065 146.253 193.79 146.251 202.125" stroke="black" stroke-width="2"/>
<path d="M69.0009 175.875C74.9175 174.875 88.2752 173.059 94.2509 174.375C101.063 175.875 100.313 178.063 100.313 178.063L111.751 177.125C110.501 179.375 107.001 184.375 103.001 186.375C99.0009 188.375 77.501 200.542 67.251 206.375C79.3343 201.542 105.651 191.325 114.251 189.125" stroke="black" stroke-width="2"/>
<path d="M121.251 187.125C124.168 186.292 131.051 184.425 135.251 183.625" stroke="black" stroke-width="2"/>
<path d="M52.5634 179.875C52.5634 179.875 60.1884 177.562 66.5634 176.375" stroke="black" stroke-width="2"/>
<path d="M90.4692 78.7194C92.4378 78.7194 95.0315 79.4687 98.4067 81.0632" stroke="black" stroke-width="2"/>
<path d="M221.001 176.743C221.727 175.419 223.44 172.451 224.485 171.18" stroke="black" stroke-width="2"/>
<path d="M155.751 164.625C159.001 168.125 167.002 170.375 167.002 170.375" stroke="black" stroke-width="2"/>
<path d="M119.938 98.8152L121.965 98.8148" stroke="black" stroke-width="2"/>
<path d="M124.72 98.5962L126.747 98.5958" stroke="black" stroke-width="2"/>
<path d="M129.408 98.4087L131.435 98.4083" stroke="black" stroke-width="2"/>
<path d="M133.886 98.2095L135.912 98.2091" stroke="black" stroke-width="2"/>
<path d="M236 106.283L236 104.219" stroke="black" stroke-width="2"/>
<path d="M236 110.236L236 108.172" stroke="black" stroke-width="2"/>
<path d="M236 114.19L236 112.125" stroke="black" stroke-width="2"/>
<path d="M236 118.143L236 116.078" stroke="black" stroke-width="2"/>
<path d="M236 122.096L236 120.031" stroke="black" stroke-width="2"/>
<path d="M236.001 126.049L236.001 123.984" stroke="black" stroke-width="2"/>
<path d="M236.001 130.002L236.001 127.938" stroke="black" stroke-width="2"/>
<path d="M236.001 133.955L236.001 131.891" stroke="black" stroke-width="2"/>
<path d="M75.7346 88.9697C92.2694 88.9697 99.2273 98.8754 117.447 98.8754" stroke="black" stroke-width="2"/>
<path d="M236.001 101.875L236.001 66H76.2659L76.2662 120" stroke="black" stroke-width="2"/>
<path d="M64.0007 182L44.0007 182L44.0005 198L52.0004 206.5L44.0003 214L44.0001 230L54.0001 230L64.0001 230L64.0007 182Z" fill="#FF4B3C"/>
<path d="M64.0007 182L44.0007 182L44.0005 198L52.0004 206.5L44.0003 214L44.0001 230L54.0001 230L64.0001 230L64.0007 182Z" fill="black" fill-opacity="0.2"/>
<path d="M64.0007 182L44.0007 182L44.0005 198L52.0004 206.5L44.0003 214L44.0001 230L54.0001 230L64.0001 230L64.0007 182Z" stroke="black" stroke-width="2"/>
<path d="M56.0001 190L64.0002 182L64.0001 190L56.0001 190Z" fill="black" fill-opacity="0.38" stroke="black" stroke-width="2" stroke-linejoin="bevel"/>
<path d="M248 182L268 182L268 198L260.001 206.5L268.001 214L268.001 230L258.001 230L248.001 230L248 182Z" fill="#FF4B3C"/>
<path d="M248 182L268 182L268 198L260.001 206.5L268.001 214L268.001 230L258.001 230L248.001 230L248 182Z" fill="black" fill-opacity="0.2"/>
<path d="M248 182L268 182L268 198L260.001 206.5L268.001 214L268.001 230L258.001 230L248.001 230L248 182Z" stroke="black" stroke-width="2"/>
<path d="M256.002 190L248.002 182L248.002 190L256.002 190Z" fill="black" fill-opacity="0.38" stroke="black" stroke-width="2" stroke-linejoin="bevel"/>
<path d="M255.99 189.977L55.9905 189.977L55.9898 237.977L255.99 237.977L255.99 189.977Z" fill="#FF4B3C" stroke="black" stroke-width="2"/>
<path d="M74.7833 225.36C72.3113 225.36 70.3313 224.484 68.8434 222.732C67.3554 220.98 66.6114 218.388 66.6115 214.956C66.6115 213.348 66.7075 211.872 66.8995 210.528C67.0915 209.184 67.3556 208.092 67.6916 207.252C68.0996 206.676 68.7356 206.052 69.5996 205.38C70.4636 204.708 71.3276 204.132 72.1916 203.652C73.0796 203.172 73.7156 202.932 74.0996 202.932C74.8916 202.956 76.0916 203.028 77.6996 203.148C79.3316 203.244 80.6516 203.34 81.6596 203.436L81.2275 209.772L79.0675 209.772L78.6356 206.136C78.0356 206.016 77.1476 205.896 75.9716 205.776C74.8196 205.656 74.0036 205.596 73.5236 205.596C73.0676 205.596 72.6956 205.668 72.4076 205.812C71.8796 206.076 71.4596 206.928 71.1476 208.368C70.8595 209.784 70.7155 211.596 70.7155 213.804C70.7154 217.092 71.0754 219.396 71.7954 220.716C72.5154 222.012 73.5354 222.66 74.8554 222.66L78.5634 222.3L78.5634 216.828L75.2154 216.216L75.2155 214.38L83.9995 214.38L83.9995 215.964L82.0554 216.432L82.0554 222.912C81.5513 223.248 80.3033 223.74 78.3113 224.388C76.3433 225.036 75.1673 225.36 74.7833 225.36ZM106.462 225.36C106.174 225.36 105.814 225.18 105.382 224.82C104.95 224.46 104.566 224.04 104.231 223.56C103.895 223.08 103.727 222.696 103.727 222.408L103.727 210.888L101.387 210.888L101.387 209.592L103.727 208.476L106.067 205.704C106.283 205.68 106.751 205.848 107.471 206.208L107.471 208.8L110.999 208.8L110.999 211.032L107.471 211.032L107.471 220.824C107.471 221.52 107.531 222 107.651 222.264C107.771 222.504 107.999 222.624 108.335 222.624L111.359 222.732L111.358 224.64C110.614 224.808 109.678 224.964 108.55 225.108C107.446 225.276 106.75 225.36 106.462 225.36ZM119.277 225.36C118.149 225.36 117.105 225.072 116.145 224.496C115.209 223.92 114.453 223.056 113.877 221.904C113.325 220.752 113.049 219.348 113.049 217.692C113.049 216.516 113.133 215.412 113.302 214.38C113.47 213.348 113.686 212.58 113.95 212.076C114.214 211.716 114.742 211.236 115.534 210.636C116.326 210.012 117.118 209.472 117.91 209.016C118.726 208.56 119.29 208.332 119.602 208.332C120.922 208.332 122.002 208.548 122.842 208.98C123.682 209.412 124.33 210.228 124.786 211.428C125.242 212.604 125.47 214.272 125.469 216.432L116.973 217.152C116.973 218.472 117.141 219.528 117.477 220.32C117.837 221.112 118.257 221.676 118.737 222.012C119.217 222.348 119.673 222.516 120.105 222.516L124.929 222.336L124.929 223.956C124.089 224.244 123.021 224.556 121.725 224.892C120.429 225.204 119.613 225.36 119.277 225.36ZM121.617 214.884C121.618 212.052 120.874 210.624 119.386 210.6L119.098 210.6C118.714 210.6 118.366 210.66 118.054 210.78C117.766 210.876 117.526 211.404 117.334 212.364C117.142 213.3 117.046 214.344 117.045 215.496L121.617 214.884ZM134.689 225.36C134.161 225.36 133.105 225.3 131.521 225.18C129.961 225.084 128.761 224.988 127.921 224.892L127.993 219.528L129.973 219.492L130.729 222.264C131.257 222.456 131.905 222.636 132.673 222.804C133.465 222.948 134.041 223.02 134.401 223.02C134.593 223.02 134.809 222.78 135.049 222.3C135.289 221.796 135.409 221.364 135.409 221.004C135.409 220.428 135.217 219.972 134.833 219.636C134.473 219.3 133.717 218.82 132.565 218.196C132.277 218.052 132.061 217.932 131.917 217.836C130.429 217.02 129.397 216.3 128.821 215.676C128.269 215.052 127.993 214.308 127.993 213.444C127.993 212.628 128.065 212.028 128.209 211.644C128.617 211.02 129.278 210.336 130.19 209.592C131.126 208.848 131.798 208.476 132.206 208.476C133.046 208.476 134.114 208.512 135.41 208.584C136.73 208.632 137.726 208.692 138.398 208.764L138.289 213.3L136.093 213.3L135.841 211.392C135.649 211.32 135.025 211.2 133.969 211.032C132.937 210.864 132.301 210.78 132.061 210.78C131.581 210.78 131.341 211.236 131.341 212.148C131.341 212.58 131.521 212.964 131.881 213.3C132.241 213.612 132.637 213.9 133.069 214.164C133.501 214.428 133.801 214.608 133.969 214.704L134.833 215.208C136.153 215.928 137.209 216.624 138.001 217.296C138.793 217.968 139.189 218.724 139.189 219.564C139.189 220.188 139.105 220.824 138.937 221.472C138.553 222.192 137.881 223.02 136.921 223.956C135.961 224.892 135.217 225.36 134.689 225.36ZM154.68 225.36C152.112 225.36 150.18 224.724 148.884 223.452C147.588 222.156 146.94 220.164 146.94 217.476C146.94 216.396 147.024 215.352 147.192 214.344C147.36 213.336 147.576 212.592 147.84 212.112C148.104 211.752 148.632 211.272 149.424 210.672C150.216 210.048 151.02 209.508 151.836 209.052C152.652 208.572 153.204 208.332 153.492 208.332C155.988 208.332 157.872 208.992 159.144 210.312C160.416 211.608 161.052 213.504 161.052 216C161.052 217.152 160.968 218.244 160.8 219.276C160.656 220.284 160.464 221.1 160.224 221.724C159.816 222.252 158.892 222.996 157.452 223.956C156.036 224.892 155.112 225.36 154.68 225.36ZM154.824 223.164C154.968 223.116 155.532 222.84 156.516 222.336C156.9 220.632 157.092 218.676 157.092 216.468C157.092 214.668 156.768 213.24 156.12 212.184C155.496 211.104 154.56 210.564 153.312 210.564C152.784 210.564 152.352 210.648 152.016 210.816C151.68 210.984 151.404 211.608 151.188 212.688C150.996 213.768 150.9 215.196 150.9 216.972C150.9 219.276 151.272 220.884 152.016 221.796C152.784 222.708 153.72 223.164 154.824 223.164ZM166.017 225.36C165.897 225.36 165.645 225.18 165.261 224.82C164.877 224.46 164.685 224.22 164.685 224.1L164.685 210.888L162.957 210.888L162.957 209.304L164.685 208.62L164.685 207.252C164.685 206.772 164.997 206.088 165.621 205.2C166.245 204.288 166.941 203.472 167.709 202.752C168.477 202.008 169.053 201.636 169.437 201.636C169.821 201.636 170.349 201.66 171.021 201.708C171.693 201.756 172.341 201.804 172.965 201.852C173.109 201.972 173.265 202.176 173.433 202.464C173.625 202.728 173.721 202.92 173.721 203.04C173.721 203.112 173.613 203.4 173.397 203.904C173.205 204.408 173.049 204.792 172.929 205.056C172.785 205.008 172.185 204.84 171.129 204.552C170.097 204.264 169.425 204.12 169.113 204.12C168.969 204.12 168.825 204.324 168.681 204.732C168.537 205.14 168.465 205.584 168.465 206.064L168.429 208.8L171.957 208.8L171.957 210.924L168.429 210.924L168.429 222.516L170.373 223.128L170.373 224.712C167.709 225.144 166.257 225.36 166.017 225.36ZM179.215 223.452L181.447 222.696L182.095 205.56L179.863 204.804L179.863 203.256L187.387 203.256L192.103 219.816L192.535 219.816L197.251 203.256L204.775 203.256L204.775 204.804L202.579 205.56L203.263 222.696L205.495 223.452L205.495 225L196.963 225L196.963 223.236L199.339 222.48L199.087 208.08L198.799 208.08C198.679 208.608 198.415 209.58 198.007 210.996C197.623 212.412 197.287 213.588 196.999 214.524L194.263 223.344C193.567 223.44 192.847 223.548 192.103 223.668C191.383 223.764 190.867 223.824 190.555 223.848C190.459 223.848 190.243 223.752 189.907 223.56L187.171 214.704C186.811 213.504 186.211 211.296 185.371 208.08L185.083 208.08L184.795 222.48L187.207 223.236L187.207 225L179.215 225L179.215 223.452ZM215.641 225.36C213.073 225.36 211.141 224.724 209.845 223.452C208.549 222.156 207.901 220.164 207.901 217.476C207.901 216.396 207.985 215.352 208.153 214.344C208.321 213.336 208.537 212.592 208.801 212.112C209.065 211.752 209.593 211.272 210.385 210.672C211.177 210.048 211.981 209.508 212.797 209.052C213.613 208.572 214.165 208.332 214.453 208.332C216.949 208.332 218.833 208.992 220.105 210.312C221.377 211.608 222.013 213.504 222.013 216C222.013 217.152 221.929 218.244 221.761 219.276C221.617 220.284 221.425 221.1 221.185 221.724C220.777 222.252 219.853 222.996 218.413 223.956C216.997 224.892 216.073 225.36 215.641 225.36ZM215.785 223.164C215.929 223.116 216.493 222.84 217.477 222.336C217.861 220.632 218.053 218.676 218.053 216.468C218.053 214.668 217.729 213.24 217.081 212.184C216.457 211.104 215.521 210.564 214.273 210.564C213.745 210.564 213.313 210.648 212.977 210.816C212.641 210.984 212.365 211.608 212.149 212.688C211.957 213.768 211.861 215.196 211.861 216.972C211.861 219.276 212.233 220.884 212.977 221.796C213.745 222.708 214.681 223.164 215.785 223.164ZM226.978 225.36C226.858 225.36 226.606 225.18 226.222 224.82C225.862 224.46 225.682 224.22 225.682 224.1L225.682 211.032L224.35 210.564L224.35 209.052C226.486 208.668 227.674 208.476 227.914 208.476C228.034 208.476 228.298 208.68 228.706 209.088C229.138 209.472 229.354 209.712 229.354 209.808L229.282 211.14C231.034 209.244 231.982 208.296 232.126 208.296C232.558 208.296 233.386 208.488 234.61 208.872C234.682 209.04 234.742 209.244 234.79 209.484C234.838 209.7 234.862 209.904 234.862 210.096C234.862 210.288 234.694 210.708 234.358 211.356C234.046 211.98 233.842 212.316 233.746 212.364C232.81 212.004 232.15 211.824 231.766 211.824C231.598 211.824 231.286 211.932 230.83 212.148C230.374 212.34 229.906 212.58 229.426 212.868L229.426 222.48L231.37 223.056L231.37 224.712C228.682 225.144 227.218 225.36 226.978 225.36ZM238.615 225.36C238.495 225.36 238.243 225.18 237.859 224.82C237.499 224.46 237.319 224.22 237.319 224.1L237.319 211.032L235.987 210.564L235.987 209.052C238.123 208.668 239.311 208.476 239.551 208.476C239.671 208.476 239.935 208.68 240.343 209.088C240.775 209.472 240.991 209.712 240.991 209.808L240.919 211.14C242.671 209.244 243.619 208.296 243.763 208.296C244.195 208.296 245.023 208.488 246.247 208.872C246.319 209.04 246.379 209.244 246.427 209.484C246.475 209.7 246.499 209.904 246.499 210.096C246.499 210.288 246.331 210.708 245.995 211.356C245.683 211.98 245.479 212.316 245.383 212.364C244.447 212.004 243.787 211.824 243.403 211.824C243.235 211.824 242.923 211.932 242.467 212.148C242.011 212.34 241.543 212.58 241.063 212.868L241.063 222.48L243.007 223.056L243.007 224.712C240.319 225.144 238.855 225.36 238.615 225.36Z" fill="#9E3333"/>
<path d="M91.8094 225.36C90.7534 225.36 89.7814 225.072 88.8934 224.496C88.0294 223.896 87.3334 223.008 86.8054 221.832C86.3014 220.656 86.0494 219.216 86.0495 217.512C86.0495 216.384 86.1335 215.34 86.3015 214.38C86.4695 213.396 86.6855 212.628 86.9495 212.076C87.3575 211.524 88.2576 210.78 89.6496 209.844C91.0656 208.908 92.0016 208.44 92.4576 208.44C92.7216 208.44 93.6576 208.56 95.2656 208.8C96.8736 209.016 98.1096 209.196 98.9736 209.34L98.9734 222.696L100.233 223.2L100.233 224.748C98.0494 225.156 96.8374 225.36 96.5974 225.36C96.5014 225.36 96.2614 225.18 95.8774 224.82C95.5174 224.46 95.3374 224.22 95.3374 224.1L95.3374 222.804C93.1534 224.508 91.9774 225.36 91.8094 225.36ZM92.2054 222.444C92.4454 222.444 93.4534 222 95.2294 221.112L95.2295 211.428C94.6536 211.212 93.9216 211.02 93.0336 210.852C92.1696 210.66 91.5936 210.588 91.3056 210.636C90.8736 210.732 90.5496 211.272 90.3335 212.256C90.1175 213.24 90.0095 214.884 90.0095 217.188C90.0095 218.34 90.1294 219.312 90.3694 220.104C90.6334 220.896 90.9334 221.484 91.2694 221.868C91.6294 222.252 91.9414 222.444 92.2054 222.444Z" fill="#CA3D3D"/>
<defs>
<linearGradient id="paint0_linear_3379_7734" x1="76.5004" y1="95" x2="236.001" y2="95.9991" gradientUnits="userSpaceOnUse">
<stop stop-color="#A9D6FF"/>
<stop offset="1" stop-color="#D1F4FF" stop-opacity="0"/>
</linearGradient>
</defs>
</svg>
