<svg width="312" height="312" viewBox="0 0 312 312" fill="none" xmlns="http://www.w3.org/2000/svg">
<path fill-rule="evenodd" clip-rule="evenodd" d="M99.48 225.328C99.3221 225.328 99.0064 225.11 98.5327 224.676C98.0907 224.241 97.8696 223.945 97.8696 223.79V215.314L92.8108 215.314C92.7592 216.21 92.6639 217.069 92.5247 217.89C92.3352 219.195 92.0984 220.267 91.8142 221.106C91.309 221.789 90.1565 222.737 88.3566 223.948C86.5884 225.129 85.0885 226.632 84.8517 225.719C81.5678 225.719 79.1049 224.896 77.4629 223.249C75.821 221.603 75 219.04 75 215.56C75 214.131 75.0947 212.78 75.2842 211.506C75.5052 210.201 75.7894 208.679 76.1367 208.058C76.4525 207.592 77.0998 206.971 78.0787 206.194C79.0891 205.417 80.0995 204.734 81.11 204.144C82.1204 203.553 82.8151 203.258 83.194 203.258C86.3831 203.258 88.7829 204.112 90.3933 205.821C91.7291 207.186 92.5215 209.613 92.7706 211.986L97.8696 211.986L97.8695 209.223C97.8695 208.602 98.2484 207.716 99.0062 206.567C99.7956 205.386 100.664 204.33 101.611 203.398C102.59 202.466 103.316 202 103.79 202C104.232 202 104.848 202.031 105.637 202.093C106.427 202.155 107.2 202.217 107.958 202.28C108.179 202.435 108.4 202.668 108.621 202.979C108.874 203.289 109 203.522 109 203.678C109 203.771 108.858 204.144 108.574 204.796C108.29 205.417 108.116 205.821 108.053 206.008C107.326 205.821 106.411 205.604 105.306 205.355C104.2 205.107 103.474 204.982 103.127 204.982C102.906 204.982 102.701 205.262 102.511 205.821C102.322 206.349 102.227 206.94 102.227 207.592L102.18 210.27V211.758L108.053 210.974V214.302L102.18 215.086V221.973L104.595 222.672V224.582C101.469 225.079 99.7642 225.328 99.48 225.328ZM87.5041 221.898C86.1148 222.613 85.3096 223.001 85.0885 223.063C83.5097 223.063 82.1835 222.473 81.11 221.292C80.0679 220.081 79.5469 217.953 79.5469 214.908C79.5469 212.64 79.689 210.248 79.9732 208.85C80.2574 207.452 80.6205 206.629 81.0626 206.38C81.5362 206.132 82.1678 206.008 82.9572 206.008C84.7254 206.008 86.0516 206.691 86.9357 208.058C87.8514 209.425 88.3093 211.879 88.3093 214.302C88.3093 217.036 88.0409 219.568 87.5041 221.898Z" fill="#4075FF"/>
<path fill-rule="evenodd" clip-rule="evenodd" d="M99.48 225.328C99.3221 225.328 99.0064 225.11 98.5327 224.676C98.0907 224.241 97.8696 223.945 97.8696 223.79V215.314L92.8108 215.314C92.7592 216.21 92.6639 217.069 92.5247 217.89C92.3352 219.195 92.0984 220.267 91.8142 221.106C91.309 221.789 90.1565 222.737 88.3566 223.948C86.5884 225.129 85.0885 226.632 84.8517 225.719C81.5678 225.719 79.1049 224.896 77.4629 223.249C75.821 221.603 75 219.04 75 215.56C75 214.131 75.0947 212.78 75.2842 211.506C75.5052 210.201 75.7894 208.679 76.1367 208.058C76.4525 207.592 77.0998 206.971 78.0787 206.194C79.0891 205.417 80.0995 204.734 81.11 204.144C82.1204 203.553 82.8151 203.258 83.194 203.258C86.3831 203.258 88.7829 204.112 90.3933 205.821C91.7291 207.186 92.5215 209.613 92.7706 211.986L97.8696 211.986L97.8695 209.223C97.8695 208.602 98.2484 207.716 99.0062 206.567C99.7956 205.386 100.664 204.33 101.611 203.398C102.59 202.466 103.316 202 103.79 202C104.232 202 104.848 202.031 105.637 202.093C106.427 202.155 107.2 202.217 107.958 202.28C108.179 202.435 108.4 202.668 108.621 202.979C108.874 203.289 109 203.522 109 203.678C109 203.771 108.858 204.144 108.574 204.796C108.29 205.417 108.116 205.821 108.053 206.008C107.326 205.821 106.411 205.604 105.306 205.355C104.2 205.107 103.474 204.982 103.127 204.982C102.906 204.982 102.701 205.262 102.511 205.821C102.322 206.349 102.227 206.94 102.227 207.592L102.18 210.27V211.758L108.053 210.974V214.302L102.18 215.086V221.973L104.595 222.672V224.582C101.469 225.079 99.7642 225.328 99.48 225.328ZM87.5041 221.898C86.1148 222.613 85.3096 223.001 85.0885 223.063C83.5097 223.063 82.1835 222.473 81.11 221.292C80.0679 220.081 79.5469 217.953 79.5469 214.908C79.5469 212.64 79.689 210.248 79.9732 208.85C80.2574 207.452 80.6205 206.629 81.0626 206.38C81.5362 206.132 82.1678 206.008 82.9572 206.008C84.7254 206.008 86.0516 206.691 86.9357 208.058C87.8514 209.425 88.3093 211.879 88.3093 214.302C88.3093 217.036 88.0409 219.568 87.5041 221.898Z" fill="black" fill-opacity="0.2"/>
<path d="M222.721 229.648C222.481 229.648 222.001 229.312 221.281 228.64C220.609 227.968 220.273 227.512 220.273 227.272V200.776L217.753 199.912V197.248C221.401 196.528 223.441 196.168 223.873 196.168C224.113 196.168 224.641 196.552 225.457 197.32C226.321 198.088 226.753 198.568 226.753 198.76L226.609 201.28C230.065 197.632 231.937 195.808 232.225 195.808C232.993 195.808 234.601 196.192 237.049 196.96C237.193 197.296 237.289 197.68 237.337 198.112C237.433 198.544 237.481 198.904 237.481 199.192C237.481 199.48 237.193 200.152 236.617 201.208C236.089 202.264 235.729 202.84 235.537 202.936C233.953 202.312 232.681 202 231.721 202C231.097 202 229.465 202.768 226.825 204.304V224.464L230.497 225.544V228.496C225.745 229.264 223.153 229.648 222.721 229.648Z" fill="black"/>
<path d="M200.432 229.648C200.192 229.648 199.712 229.312 198.992 228.64C198.32 227.968 197.984 227.512 197.984 227.272V200.776L195.464 199.912V197.248C199.112 196.528 201.152 196.168 201.584 196.168C201.824 196.168 202.352 196.552 203.168 197.32C204.032 198.088 204.464 198.568 204.464 198.76L204.32 201.28C207.776 197.632 209.648 195.808 209.936 195.808C210.704 195.808 212.312 196.192 214.76 196.96C214.904 197.296 215 197.68 215.048 198.112C215.144 198.544 215.192 198.904 215.192 199.192C215.192 199.48 214.904 200.152 214.328 201.208C213.8 202.264 213.44 202.84 213.248 202.936C211.664 202.312 210.392 202 209.432 202C208.808 202 207.176 202.768 204.536 204.304V224.464L208.208 225.544V228.496C203.456 229.264 200.864 229.648 200.432 229.648Z" fill="black"/>
<path d="M178.103 229.648C173.111 229.648 169.367 228.376 166.871 225.832C164.375 223.288 163.127 219.328 163.127 213.952C163.127 211.744 163.271 209.656 163.559 207.688C163.895 205.672 164.327 204.184 164.855 203.224C165.335 202.504 166.319 201.544 167.807 200.344C169.343 199.144 170.879 198.088 172.415 197.176C173.951 196.264 175.007 195.808 175.583 195.808C180.431 195.808 184.079 197.128 186.527 199.768C189.023 202.36 190.271 206.128 190.271 211.072C190.271 213.376 190.103 215.536 189.767 217.552C189.479 219.568 189.119 221.224 188.687 222.52C187.919 223.576 186.167 225.04 183.431 226.912C180.743 228.736 178.967 229.648 178.103 229.648ZM178.463 225.544C178.799 225.448 180.023 224.848 182.135 223.744C182.951 220.144 183.359 216.232 183.359 212.008C183.359 208.264 182.663 205.336 181.271 203.224C179.927 201.112 177.911 200.056 175.223 200.056C174.023 200.056 173.063 200.248 172.343 200.632C171.671 201.016 171.119 202.288 170.687 204.448C170.255 206.608 170.039 209.44 170.039 212.944C170.039 217.648 170.831 220.936 172.415 222.808C174.047 224.632 176.063 225.544 178.463 225.544Z" fill="black"/>
<path d="M118.416 229.648C118.176 229.648 117.696 229.312 116.976 228.64C116.304 227.968 115.968 227.512 115.968 227.272V200.992L113.448 199.912V197.248C117.384 196.528 119.568 196.168 120 196.168C120.24 196.168 120.672 196.504 121.296 197.176C121.968 197.8 122.304 198.232 122.304 198.472V201.208C123.552 200.152 124.896 199.048 126.336 197.896C127.776 196.744 128.568 196.168 128.712 196.168C131.112 196.168 133.104 196.552 134.688 197.32C136.32 198.088 137.496 199.384 138.216 201.208C139.368 200.152 140.616 199.048 141.96 197.896C143.304 196.744 144.048 196.168 144.192 196.168C147.984 196.168 150.84 197.08 152.76 198.904C154.68 200.68 155.64 203.8 155.64 208.264V224.752L158.088 225.832V228.496C154.152 229.264 151.992 229.648 151.608 229.648C151.368 229.648 150.888 229.312 150.168 228.64C149.448 227.968 149.088 227.512 149.088 227.272V208.264C149.088 205.288 148.608 203.416 147.648 202.648C146.736 201.88 145.704 201.496 144.552 201.496C144.12 201.496 142.296 202.408 139.08 204.232V224.752L141.528 225.832V228.496C137.592 229.264 135.432 229.648 135.048 229.648C134.808 229.648 134.328 229.312 133.608 228.64C132.888 227.968 132.528 227.512 132.528 227.272V208.264C132.528 205.288 132.096 203.416 131.232 202.648C130.368 201.88 129.408 201.496 128.352 201.496C127.872 201.496 125.928 202.408 122.52 204.232V224.752L124.968 225.832V228.496C121.032 229.264 118.848 229.648 118.416 229.648Z" fill="black"/>
<path d="M216.578 190.648C215.57 190.648 213.554 190.528 210.53 190.288C207.506 190.096 205.202 189.904 203.618 189.712L203.762 179.344L207.362 179.272L208.874 184.744C209.978 185.128 211.274 185.488 212.762 185.824C214.298 186.112 215.426 186.256 216.146 186.256C216.53 186.256 216.986 185.728 217.514 184.672C218.09 183.616 218.378 182.68 218.378 181.864C218.378 181 218.162 180.28 217.73 179.704C217.346 179.08 216.722 178.504 215.858 177.976C214.994 177.4 213.53 176.56 211.466 175.456C208.538 173.872 206.522 172.48 205.418 171.28C204.314 170.08 203.762 168.64 203.762 166.96C203.762 165.328 203.882 164.152 204.122 163.432C204.89 162.232 206.162 160.888 207.938 159.4C209.762 157.912 211.058 157.168 211.826 157.168C213.41 157.168 215.45 157.24 217.946 157.384C220.49 157.48 222.434 157.6 223.778 157.744L223.562 166.528H219.53L219.026 162.712C218.642 162.568 217.394 162.352 215.282 162.064C213.17 161.728 211.85 161.56 211.322 161.56C210.266 161.56 209.738 162.568 209.738 164.584C209.738 165.496 210.074 166.288 210.746 166.96C211.466 167.584 212.258 168.16 213.122 168.688C214.034 169.216 214.634 169.576 214.922 169.768L216.866 170.92C219.458 172.36 221.498 173.728 222.986 175.024C224.522 176.272 225.29 177.712 225.29 179.344C225.29 180.448 225.122 181.672 224.786 183.016C224.018 184.408 222.698 186.04 220.826 187.912C219.002 189.736 217.586 190.648 216.578 190.648Z" fill="black"/>
<path d="M186.247 190.648C184.183 190.648 182.239 190.096 180.415 188.992C178.591 187.888 177.103 186.184 175.951 183.88C174.847 181.576 174.295 178.744 174.295 175.384C174.295 172.984 174.439 170.776 174.727 168.76C175.063 166.696 175.495 165.184 176.023 164.224C176.503 163.504 177.487 162.544 178.975 161.344C180.511 160.144 182.047 159.088 183.583 158.176C185.167 157.264 186.247 156.808 186.823 156.808C189.415 156.808 191.503 157.216 193.087 158.032C194.719 158.848 195.967 160.408 196.831 162.712C197.743 165.016 198.199 168.328 198.199 172.648L181.207 174.088C181.207 176.968 181.591 179.272 182.359 181C183.127 182.68 184.015 183.856 185.023 184.528C186.079 185.2 187.039 185.536 187.903 185.536L191.287 185.392L197.191 185.176V188.128C195.415 188.704 193.303 189.28 190.855 189.856C188.455 190.384 186.919 190.648 186.247 190.648ZM191.215 169.84C191.215 166.96 190.831 164.8 190.063 163.36C189.295 161.872 188.023 161.128 186.247 161.128C185.191 161.128 184.279 161.296 183.511 161.632C182.887 161.92 182.359 163.024 181.927 164.944C181.543 166.864 181.351 168.928 181.351 171.136L191.215 169.84Z" fill="black"/>
<path d="M161.675 190.648C161.147 190.648 160.451 190.312 159.587 189.64C158.723 188.92 157.955 188.104 157.283 187.192C156.659 186.28 156.347 185.56 156.347 185.032V161.56H151.739V159.4L156.347 157.096L160.379 152.2C160.811 152.2 161.651 152.536 162.899 153.208V157.744H169.883V161.92H162.899V181.864C162.899 183.352 163.019 184.36 163.259 184.888C163.499 185.416 163.955 185.68 164.627 185.68L170.531 185.824V189.28C169.139 189.568 167.435 189.856 165.419 190.144C163.403 190.48 162.155 190.648 161.675 190.648Z" fill="black"/>
<path d="M133.073 190.648C131.105 190.648 129.257 190.096 127.529 188.992C125.849 187.84 124.481 186.088 123.425 183.736C122.369 181.384 121.841 178.456 121.841 174.952C121.841 172.696 121.985 170.608 122.273 168.688C122.609 166.72 123.041 165.232 123.569 164.224C124.337 163.12 126.041 161.656 128.681 159.832C131.369 158.008 133.145 157.096 134.009 157.096C134.969 157.096 139.169 157.648 146.609 158.752V185.824L149.057 186.832V189.496C145.265 190.264 143.153 190.648 142.721 190.648C142.529 190.648 142.073 190.312 141.353 189.64C140.633 188.968 140.273 188.512 140.273 188.272V185.464C139.985 185.704 138.785 186.64 136.673 188.272C134.561 189.856 133.361 190.648 133.073 190.648ZM133.505 185.32C134.033 185.32 136.217 184.36 140.057 182.44V162.64C138.857 162.256 137.297 161.92 135.377 161.632C133.457 161.296 132.161 161.176 131.489 161.272C130.577 161.416 129.881 162.448 129.401 164.368C128.969 166.288 128.753 169.648 128.753 174.448C128.753 176.896 129.017 178.936 129.545 180.568C130.121 182.2 130.769 183.4 131.489 184.168C132.257 184.936 132.929 185.32 133.505 185.32Z" fill="black"/>
<path d="M100.702 196.648C97.7735 196.648 95.1575 195.88 92.8535 194.344C90.5495 192.808 88.7255 190.504 87.3815 187.432C86.0375 184.36 85.3655 180.568 85.3655 176.056C85.3655 172.792 85.5575 169.792 85.9415 167.056C86.3255 164.272 86.8535 162.064 87.5255 160.432C88.2455 159.28 89.4215 158.056 91.0535 156.76C92.6855 155.416 94.3175 154.288 95.9495 153.376C97.5815 152.464 98.7575 152.008 99.4775 152.008C101.014 152.056 103.198 152.176 106.03 152.368C108.862 152.512 111.598 152.68 114.238 152.872L113.374 165.184H109.486L108.622 158.056C107.374 157.816 105.574 157.6 103.222 157.408C100.87 157.168 99.2615 157.048 98.3975 157.048C97.4375 157.048 96.6695 157.192 96.0935 157.48C94.9415 158.104 94.0535 159.832 93.4295 162.664C92.8055 165.496 92.4935 169.12 92.4935 173.536C92.4935 180.304 93.2375 185.032 94.7255 187.72C96.2615 190.408 98.3495 191.752 100.99 191.752L108.838 191.032V179.584L102.142 178.36V175.048H118.774V177.856L115.03 178.792V191.752C114.022 192.472 111.574 193.48 107.686 194.776C103.846 196.024 101.518 196.648 100.702 196.648Z" fill="black"/>
<path fill-rule="evenodd" clip-rule="evenodd" d="M186 102.5V147H156L156 149H188V102.5C188 91.1782 178.822 82 167.5 82C158.181 82 150.314 88.218 147.823 96.7314L149.498 98.2201C151.429 90.0664 158.756 84 167.5 84C177.717 84 186 92.2827 186 102.5Z" fill="black"/>
<path d="M153 121H160L160 133L152 127.5V148H126.906L133 144L137 135L130 138H126.034L130.872 133H122.94L119.966 138H116V124H119.966L119.966 117L131 122L140 117.954V114.954L144 114V112H138L146 109L140 94L155 109L162 112H152L155 115L153.04 117L153 121Z" fill="#4075FF" stroke="black" stroke-width="2"/>
<path d="M166 118L160 126.182M144 148L156.5 130.955" stroke="black" stroke-width="2"/>
<path d="M165 119V112H171V118H168" stroke="black" stroke-width="2"/>
</svg>
