<svg width="226" height="224" viewBox="0 0 226 224" fill="none" xmlns="http://www.w3.org/2000/svg">
<rect width="159.868" height="179.469" transform="matrix(1 0 5.51922e-06 1 33.1553 29)" fill="black" fill-opacity="0.1"/>
<path d="M33.1553 29.6232H193.023L193.024 209.092C193.024 209.092 146.894 149.567 104.597 146.029C97.4792 145.433 88.7054 146.276 80.9459 147.447C68.7274 149.292 56.0369 146.512 46.6173 138.515V138.515C38.078 131.264 33.1558 120.628 33.1557 109.426L33.1553 29.6232Z" fill="url(#paint0_linear_3569_10087)" fill-opacity="0.17"/>
<path d="M52.1394 69.5052C51.9444 69.1647 51.8644 68.6395 51.8644 68.0096L50.6408 57.5406L51.5458 51.309L53.1386 40.3415L57.1352 29.6232H65.1286H105.096H149.059L145.062 33.6114L141.066 35.8547L142.814 38.8459H149.059L150.558 32.3651H153.056L153.056 29.6232H193.023L193.023 137.305L193.023 169.21L193.024 209.092H121.083H117.836H117.087H113.09H111.092H95.6365H89.1098H73.123H55.887L69.1262 186.659L86.3516 173.822L89.1095 166.468L88.4605 159.79L86.4956 139.571L85.1126 125.34L82.6832 119.33L76.6448 104.392L73.1224 95.6778C71.6823 93.9175 69.9217 91.7604 68.0382 89.4462C65.3197 86.1061 62.3455 82.4386 59.7104 79.1648C56.8863 75.6562 54.4517 72.5995 53.1388 70.8822C52.5993 70.1765 52.2492 69.697 52.1394 69.5052Z" fill="#434263"/>
<path d="M55.8862 53.5524L62.8804 51.309L81.1155 47.5701L97.1023 49.5642M55.8862 53.5524L53.5678 60.2825M55.8862 53.5524L57.1353 37.5996L65.1286 29.6232M73.123 209.092H89.1098M73.123 209.092L75.8797 201.742M73.123 209.092H55.887L69.1262 186.659L86.3516 173.822M117.087 209.092L127.328 193.139L135.072 183.917L142.815 177.187L147.462 173.198M117.087 209.092H113.09M117.087 209.092H117.836M129.076 60.2825L137.069 65.517L145.063 71.7485L153.056 95.6778L162.299 110.634L177.536 137.305L155.305 166.468L147.462 173.198M129.076 60.2825L97.1023 49.5642M129.076 60.2825L133.072 47.5701M97.1023 49.5642L99.6001 35.8547M51.8644 68.0096C51.8646 66.057 52.6349 63.0994 53.1385 61.5288L53.5678 60.2825M51.8644 68.0096C51.8644 68.6395 51.9444 69.1647 52.1394 69.5052C52.2492 69.697 52.5993 70.1765 53.1388 70.8822M51.8644 68.0096L50.6408 57.5406L51.5458 51.309M141.066 35.8547L145.062 33.6114L149.059 29.6232H105.096M141.066 35.8547L142.814 38.8459H149.059L150.558 32.3651H153.056L153.056 29.6232H193.023L193.023 137.305M141.066 35.8547L133.072 47.5701M113.09 209.092H117.836M113.09 209.092H111.092M117.836 209.092H121.083M89.1098 209.092L91.7076 202.611M89.1098 209.092H95.6365M53.5678 60.2825L60.4491 68.3844M51.5458 51.309L53.1386 40.3415L57.1352 29.6232H65.1286M51.5458 51.309L57.1353 40.3415L81.1154 35.8547H99.6001M99.6001 35.8547L133.072 47.5701M99.6001 35.8547L105.096 29.6232M133.072 47.5701L150.558 61.5288L157.053 87.4521L167.045 102.906L193.023 137.305M193.023 137.305L161.05 170.955L142.815 184.285M193.023 137.305L193.023 169.21M121.083 209.092H193.024L193.023 169.21M121.083 209.092L131.824 194.386L139.568 186.659L142.815 184.285M147.462 173.198L153.056 149.269L145.063 169.21L139.568 166.468L139.568 170.955L137.07 169.21L129.076 175.94L131.824 177.187L131.824 179.181H127.328C122.332 183.967 115.754 198.457 113.09 205.104L111.092 209.092M111.092 209.092H95.6365M86.4956 139.571L85.1126 125.34L82.6832 119.33L76.6448 104.392L73.1224 95.6778C71.6823 93.9175 69.9217 91.7604 68.0382 89.4462C65.3198 86.1061 62.3455 82.4386 59.7104 79.1648C56.8863 75.6562 54.4517 72.5995 53.1388 70.8822M86.4956 139.571H92.3567L94.2301 134.687L97.1028 139.571H101.183M86.4956 139.571L88.4605 159.79M101.183 139.571L99.6006 127.583L95.636 119.33L88.4602 104.392L85.1125 97.4226L77.8085 88.823L69.1256 78.5999L60.4491 68.3844M101.183 139.571L102.77 151.589M53.1388 70.8822L55.8863 69.5052L55.8863 67.1372L57.6351 69.5052L60.4491 68.3844M88.4605 159.79L89.1095 166.468L86.3516 173.822M88.4605 159.79H94.8547L95.6362 156.249L97.1029 159.79H103.853M103.853 159.79L105.096 169.21L99.6009 182.92M103.853 159.79L102.77 151.589M83.5937 181.175L90.4835 182.047L92.3569 179.181L92.3569 182.047L99.6009 182.92M83.5937 181.175L75.8797 201.742M83.5937 181.175L86.3516 173.822M99.6009 182.92L91.7076 202.611M75.8797 201.742H82.9898L85.7375 197.875L85.7375 201.742L90.4836 202.611H91.7076M65.1286 29.6232H105.096M142.815 184.285L139.568 190.647L133.073 201.116L145.063 189.151L153.057 183.917L153.057 186.659L157.053 184.285L157.053 189.151L162.299 184.285L173.04 173.198L193.023 169.21M102.77 151.589L105.096 141.293L107.594 143.536L107.594 134.687L111.091 127.583M129.076 145.53L127.328 156.249L130.325 155.002L123.581 166.468L119.834 177.187L113.09 175.94L117.086 181.175L109.093 194.386L106.345 190.647L95.6365 209.092" stroke="black" stroke-width="2"/>
<path d="M105.096 169.21L89.1098 209.092H111.092L117.087 194.386L127.078 179.181H133.073L133.073 177.187L129.077 175.691L137.07 169.21L139.318 171.952L139.318 165.222L145.063 169.21L153.057 150.516C151.308 156.747 147.811 169.759 147.811 171.952C147.811 174.146 150.142 171.038 151.308 169.21L158.552 150.516L155.055 146.527L150.309 135.311L81.1156 47.8193L57.1355 53.5524L54.3878 60.2825L85.1125 97.4226L99.8505 129.328L105.096 169.21Z" fill="url(#paint1_linear_3569_10087)"/>
<path d="M55.8862 53.5524L62.8804 51.309L81.1155 47.5701L97.1023 49.5642M55.8862 53.5524L53.5678 60.2825M55.8862 53.5524L57.1353 37.5996L65.1286 29.6232M73.123 209.092H89.1098M73.123 209.092L75.8797 201.742M73.123 209.092H55.887L69.1262 186.659L86.3516 173.822M117.087 209.092L127.328 193.139L135.072 183.917L142.815 177.187L147.462 173.198M117.087 209.092H113.09M117.087 209.092H117.836M129.076 60.2825L137.069 65.517L145.063 71.7485L153.056 95.6778L162.299 110.634L177.536 137.305L155.305 166.468L147.462 173.198M129.076 60.2825L97.1023 49.5642M129.076 60.2825L133.072 47.5701M97.1023 49.5642L99.6001 35.8547M51.8644 68.0096C51.8646 66.057 52.6349 63.0994 53.1385 61.5288L53.5678 60.2825M51.8644 68.0096C51.8644 68.6395 51.9444 69.1647 52.1394 69.5052C52.2492 69.697 52.5993 70.1765 53.1388 70.8822M51.8644 68.0096L50.6408 57.5406L51.5458 51.309M141.066 35.8547L145.062 33.6114L149.059 29.6232H105.096M141.066 35.8547L142.814 38.8459H149.059L150.558 32.3651H153.056L153.056 29.6232H193.023L193.023 137.305M141.066 35.8547L133.072 47.5701M113.09 209.092H117.836M113.09 209.092H111.092M117.836 209.092H121.083M89.1098 209.092L91.7076 202.611M89.1098 209.092H95.6365M53.5678 60.2825L60.4491 68.3844M51.5458 51.309L53.1386 40.3415L57.1352 29.6232H65.1286M51.5458 51.309L57.1353 40.3415L81.1154 35.8547H99.6001M99.6001 35.8547L133.072 47.5701M99.6001 35.8547L105.096 29.6232M133.072 47.5701L150.558 61.5288L157.053 87.4521L167.045 102.906L193.023 137.305M193.023 137.305L161.05 170.955L142.815 184.285M193.023 137.305L193.023 169.21M121.083 209.092H193.024L193.023 169.21M121.083 209.092L131.824 194.386L139.568 186.659L142.815 184.285M147.462 173.198L153.056 149.269L145.063 169.21L139.568 166.468L139.568 170.955L137.07 169.21L129.076 175.94L131.824 177.187L131.824 179.181H127.328C122.332 183.967 115.754 198.457 113.09 205.104L111.092 209.092M111.092 209.092H95.6365M86.4956 139.571L85.1126 125.34L82.6832 119.33L76.6448 104.392L73.1224 95.6778C71.6823 93.9175 69.9217 91.7604 68.0382 89.4462C65.3198 86.1061 62.3455 82.4386 59.7104 79.1648C56.8863 75.6562 54.4517 72.5995 53.1388 70.8822M86.4956 139.571H92.3567L94.2301 134.687L97.1028 139.571H101.183M86.4956 139.571L88.4605 159.79M101.183 139.571L99.6006 127.583L95.636 119.33L88.4602 104.392L85.1125 97.4226L77.8085 88.823L69.1256 78.5999L60.4491 68.3844M101.183 139.571L102.77 151.589M53.1388 70.8822L55.8863 69.5052L55.8863 67.1372L57.6351 69.5052L60.4491 68.3844M88.4605 159.79L89.1095 166.468L86.3516 173.822M88.4605 159.79H94.8547L95.6362 156.249L97.1029 159.79H103.853M103.853 159.79L105.096 169.21L99.6009 182.92M103.853 159.79L102.77 151.589M83.5937 181.175L90.4835 182.047L92.3569 179.181L92.3569 182.047L99.6009 182.92M83.5937 181.175L75.8797 201.742M83.5937 181.175L86.3516 173.822M99.6009 182.92L91.7076 202.611M75.8797 201.742H82.9898L85.7375 197.875L85.7375 201.742L90.4836 202.611H91.7076M65.1286 29.6232H105.096M142.815 184.285L139.568 190.647L133.073 201.116L145.063 189.151L153.057 183.917L153.057 186.659L157.053 184.285L157.053 189.151L162.299 184.285L173.04 173.198L193.023 169.21M102.77 151.589L105.096 141.293L107.594 143.536L107.594 134.687L111.091 127.583M129.076 145.53L127.328 156.249L130.325 155.002L123.581 166.468L119.834 177.187L113.09 175.94L117.086 181.175L109.093 194.386L106.345 190.647L95.6365 209.092" stroke="black" stroke-width="2"/>
<path d="M33.1554 59.597L33.1553 29.6232H58.1346" stroke="black" stroke-width="2"/>
<path d="M33.1554 59.597L33.1554 54.6025C33.1553 40.8068 44.3389 29.6232 58.1346 29.6232V29.6232" stroke="black" stroke-width="2"/>
<path d="M33.1561 179.118L33.1561 184.113C33.1562 197.909 44.3399 209.092 58.1356 209.092V209.092" stroke="black" stroke-width="2"/>
<path d="M33.1554 89.602L33.1553 59.6282H58.1346" stroke="black" stroke-width="2"/>
<path d="M33.1559 119.607L33.1558 89.6332H67.7521" stroke="black" stroke-width="2"/>
<path d="M37.1523 89.6954L37.1525 118.735" stroke="black" stroke-width="2"/>
<path d="M41.1489 89.6954L41.1491 118.735" stroke="black" stroke-width="2"/>
<path d="M45.1455 89.6954L45.1457 118.735" stroke="black" stroke-width="2"/>
<path d="M49.1426 89.6954L49.1427 118.735" stroke="black" stroke-width="2"/>
<path d="M53.1392 89.6954L53.1393 118.735" stroke="black" stroke-width="2"/>
<path d="M57.1357 89.6954L57.1359 118.735" stroke="black" stroke-width="2"/>
<path d="M61.1323 89.6954L61.1325 118.735" stroke="black" stroke-width="2"/>
<path d="M65.1289 89.6954L65.1291 118.735" stroke="black" stroke-width="2"/>
<path d="M69.126 91.5026L69.1261 118.735" stroke="black" stroke-width="2"/>
<path d="M73.1226 95.8647L73.1227 118.735" stroke="black" stroke-width="2"/>
<path d="M77.1191 105.399L77.1192 118.735" stroke="black" stroke-width="2"/>
<path d="M33.1559 149.269L33.1558 119.295H82.7397" stroke="black" stroke-width="2"/>
<path d="M33.1561 179.118L33.1562 209.092H67.1281" stroke="black" stroke-width="2"/>
<path d="M193.023 59.597L193.023 29.6232H168.044" stroke="black" stroke-width="2"/>
<path d="M193.024 179.118L193.024 209.092H168.045" stroke="black" stroke-width="2"/>
<path d="M65.1289 54.6741L65.1289 51.0597L80.3663 47.4454L93.98 49.5642L111.091 54.6741L129.076 60.781L137.819 65.517L143.939 71.4993L150.309 87.826L155.18 99.5413L161.05 111.755L161.799 117.364C160.883 117.779 156.404 119.084 152.307 129.453C151.52 131.445 151.499 134.361 150.309 136.183C145.304 143.846 138.133 150.908 134.197 153.257L129.951 147.4L129.951 145.904L125.704 141.916L124.455 139.423H122.707L117.836 134.563L117.836 133.316H115.837L107.095 123.221L109.093 125.34L112.09 126.212L110.841 124.343L108.219 122.224H106.345L102.473 119.856L101.099 115.993L98.7264 113.375L95.9787 109.387L93.1061 107.518L91.4824 104.776L92.4816 103.031L93.106 99.5413L92.4815 96.0516H91.4824L85.1126 88.9477L82.7395 88.4491L81.1159 87.0782L78.3682 86.455L75.8702 80.0988L73.1224 71.4993L65.1289 54.6741Z" fill="url(#paint2_linear_3569_10087)"/>
<path d="M150.309 136.183C145.304 143.846 138.133 150.908 134.197 153.257L129.951 147.4L129.951 145.904L125.704 141.916L124.455 139.423H122.707L117.836 134.563L117.836 133.316H115.837L107.095 123.221L109.093 125.34L112.09 126.212L110.841 124.343L108.219 122.224H106.345L102.473 119.856L101.099 115.993L98.7264 113.375L95.9787 109.387L93.1061 107.518L91.4824 104.776L92.4816 103.031L93.106 99.5413L92.4815 96.0516H91.4824L85.1126 88.9477L82.7395 88.4491L81.1159 87.0782L78.3682 86.455L75.8702 80.0988L73.1224 71.4993L65.1289 54.6741L65.1289 51.0597L80.3663 47.4454L93.98 49.5642L111.091 54.6741L129.076 60.781L137.819 65.517L143.939 71.4993L150.309 87.826L155.18 99.5413L161.05 111.755L161.799 117.364C160.883 117.779 156.404 119.084 152.307 129.453C151.52 131.445 151.499 134.361 150.309 136.183ZM150.309 136.183L153.931 145.904L158.053 149.269L150.309 171.204L169.043 133.316L165.047 115.12" stroke="black" stroke-width="2"/>
<path d="M109.842 69.7545L107.469 76.7339L102.598 77.4816L97.1028 75.4875H94.8546L93.8555 78.1048L91.3575 79.4757L90.1086 81.4698L91.3575 73.4934L90.1085 71.3747L90.1085 64.8939L92.2317 55.4219L98.9761 50.8105M112.215 55.4219L113.839 59.2855L116.462 60.7811H120.458L121.083 64.8939L122.082 71.3747L120.458 75.4875L115.712 85.458L114.588 92.8113M126.204 59.2855L127.952 65.517L127.328 76.7339L127.328 78.1048L123.706 80.8467L123.706 78.1048C123.789 77.6478 124.18 76.7339 125.08 76.7339M127.952 81.4698L127.328 86.2058L126.204 92.8113L129.701 95.9271L131.2 103.405L129.076 102.657M129.076 102.657L130.325 105.399L126.204 110.758L124.455 109.387L122.082 103.405L129.076 102.657ZM123.706 109.387L119.21 110.01L120.265 114.328M125.08 110.758L125.08 115.12L126.204 116.117L125.08 118.735L124.455 118.246M120.265 114.328L120.459 115.12L124.455 118.246M120.265 114.328H117.086L118.779 118.735M124.455 118.246L123.706 121.352L123.706 124.468L122.855 123.595M118.779 118.735L119.21 119.856L122.855 123.595M118.779 118.735L115.713 118.246L113.09 118.735L114.219 122.395M122.855 123.595L121.083 126.836L120.265 129.328L114.589 123.595L114.219 122.395M114.219 122.395L109.967 121.352L109.967 124.468M97.7274 109.387L96.4784 107.269L100.35 108.266M119.21 130.325L118.779 132.319L123.706 137.928L126.204 138.925L126.204 134.937L123.706 132.319L127.328 134.937H130.326L130.326 131.198L126.204 126.836L126.204 124.468L127.952 122.395L132.324 126.836L132.56 128.565M131.2 132.319H133.073L132.56 128.565M132.56 128.565L136.445 126.836L135.946 121.352L134.135 119.799M134.135 119.799L132.324 118.246L133.073 116.741L134.697 117.364L134.135 119.799ZM140.067 122.395C140.359 120.926 140.767 117.862 140.067 117.364C139.368 116.865 137.778 114.829 137.07 113.874L138.818 112.503L141.067 114.328L146.562 113.375L149.06 109.387L144.439 102.657L142.315 99.5414L143.065 97.4227L145.063 95.9271L146.562 93.4345L148.31 94.0576L150.434 96.4256L153.057 94.8054M86.3617 87.3275L85.1127 85.458H87.8605L93.1061 91.1911L93.1062 93.4345L89.1095 90.3187M89.1093 56.5436L87.8603 61.5288M113.09 106.396L114.588 109.387L117.086 110.01M105.596 112.005L107.469 115.12L109.967 116.741M121.083 82.2176L121.083 88.6985L122.082 90.3187L119.21 96.4256L121.083 100.788M105.596 101.535L97.1029 104.651L97.7274 104.425L101.1 105.399L104.472 108.266L103.348 105.399L105.596 101.535ZM87.2359 66.3895L86.3616 68.7575L81.8653 69.5052L83.9886 73.4934H86.3616L85.1127 78.1048L87.8604 72.1225L87.2359 66.3895ZM97.1028 83.0901H98.9762L98.9763 88.6985L101.724 85.458L105.096 82.2176L101.724 83.0901L100.35 81.4698L97.1028 83.0901Z" stroke="black" stroke-width="2"/>
<path d="M133.073 108.764L132.074 111.132L132.074 111.755L133.572 107.393L136.445 106.022L138.193 103.903L139.567 97.4226L141.066 95.927L142.69 94.0578L145.937 91.1913H149.059L150.308 88.574L154.93 86.0814L154.305 88.574L159.925 83.2149L154.93 91.1913H151.557L152.432 92.8112L158.177 91.8142L153.056 94.8053L150.308 96.3011L147.311 93.4344L145.937 94.0578L143.689 97.4226L142.69 99.2921L145.937 104.776L143.689 108.764L140.192 109.387L139.567 112.628L137.069 113.874L138.194 115.494L136.445 116.74H133.572L131.449 121.352L130.95 125.963L128.077 122.1L127.078 123.346L125.079 126.836L123.706 125.34L123.706 122.1L125.079 118.984L126.453 116.74L125.079 115.494L125.079 111.132L132.074 102.283L133.572 101.411L133.073 100.164L135.696 97.4226L135.696 93.4344L136.445 91.8142L136.445 89.4462L138.193 86.0814L138.193 83.2149L138.193 79.7252L142.69 74.4904L141.066 77.4818L143.689 76.3601L148.31 72.3717H149.684H151.557L153.056 71.3749L154.929 68.7574L155.679 65.517L153.68 64.1463L153.056 63.3983L151.557 60.781L151.557 65.517L153.056 66.8879H151.557L149.684 65.517L149.684 61.5288L148.31 60.0334L149.059 55.4219L150.308 53.5524H151.557L150.308 50.312L147.311 46.4484L147.311 40.84L149.059 38.9705L149.059 36.8518L150.308 32.3651L153.68 31.368L154.305 29.6232H186.653L181.033 32.3651L178.66 34.9823L176.411 35.7301L173.914 38.9705L171.541 39.5937L169.043 38.3474H165.046L166.17 37.5996L162.923 38.3474L162.423 39.5937L159.925 41.5878L162.923 40.84L163.922 42.7095L162.923 45.576L167.044 42.7095L169.043 40.84L169.043 42.7095L165.046 45.576L162.423 47.8193L159.925 48.5671L158.177 51.8075L157.053 54.1755L157.053 58.6623C156.477 58.3231 155.541 57.7217 154.924 57.1978C155.393 58.0089 156.025 59.2297 156.428 60.0334H158.177L159.925 64.1463L159.051 67.8852L162.423 69.5054L159.925 73.4936L159.051 77.4818L154.305 83.2149L157.053 77.4818L158.177 73.4936L158.177 70.3778H157.053L155.679 71.3749L153.056 73.4936L152.432 76.3601H151.557H148.31L145.937 79.7252L145.937 81.47L145.063 83.2149H147.311L150.308 78.3542H154.305L151.557 79.7252L147.311 84.8351H144.313L144.313 86.0814L142.69 88.574L139.567 91.1913L138.193 94.0578L138.193 96.3011L138.193 98.2952L137.069 102.283L133.073 106.022L133.073 108.764Z" fill="white"/>
<path d="M162.923 78.3542L161.049 81.47L166.17 79.7252L166.17 73.4936L171.541 66.8879L163.922 72.8702L162.923 78.3542Z" fill="white"/>
<path d="M170.292 72.3717L168.418 76.3601L172.29 73.4936L173.914 76.3601L175.412 71.3749L178.66 70.3778L185.779 63.3983L185.779 69.5054L189.026 67.3865L193.023 78.3542L193.023 38.9705L187.652 40.84L185.779 52.68L182.656 51.8075L178.035 56.4191L174.663 58.6623L172.29 64.1463H174.663L173.914 69.5054L170.292 72.3717Z" fill="white"/>
<path d="M132.074 111.132L133.073 108.764L133.073 106.022L137.069 102.283L138.193 98.2952L138.193 96.3011L138.193 94.0578L139.567 91.1913L142.69 88.574L144.313 86.0814L144.313 84.8351H147.311L151.557 79.7252L154.305 78.3542H150.308L147.311 83.2149H145.063L145.937 81.47L145.937 79.7252L148.31 76.3601H151.557H152.432L153.056 73.4936L155.679 71.3749L157.053 70.3778H158.177L158.177 73.4936L157.053 77.4818L154.305 83.2149L159.051 77.4818L159.925 73.4936L162.423 69.5054L159.051 67.8852L159.925 64.1463L158.177 60.0334H156.428C155.72 58.6209 154.305 55.9206 154.305 56.4191C154.305 56.9176 156.137 58.1223 157.053 58.6623L157.053 54.1755L158.177 51.8075L159.925 48.5671L162.423 47.8193L165.046 45.576L169.043 42.7095L169.043 40.84L167.044 42.7095L162.923 45.576L163.922 42.7095L162.923 40.84L159.925 41.5878L162.423 39.5937L162.923 38.3474L166.17 37.5996L165.046 38.3474H169.043L171.541 39.5937L173.914 38.9705L176.411 35.7301L178.66 34.9823L181.033 32.3651L186.653 29.6232H154.305L153.68 31.368L150.308 32.3651L149.059 36.8518L149.059 38.9705L147.311 40.84L147.311 46.4484L150.308 50.312L151.557 53.5524H150.308L149.059 55.4218L148.31 60.0334L149.684 61.5288L149.684 65.517L151.557 66.8879H153.056L151.557 65.517L151.557 60.781L153.056 63.3983L153.68 64.1463L155.679 65.517L154.929 68.7574L153.056 71.3749L151.557 72.3717H149.684H148.31L143.689 76.3601L141.066 77.4818L142.69 74.4904L138.193 79.7252L138.193 83.2149L138.193 86.0814L136.445 89.4462L136.445 91.8142L135.696 93.4344L135.696 97.4226L133.073 100.164L133.572 101.411L132.074 102.283L125.079 111.132L125.079 115.494L126.453 116.74L125.079 118.984L123.706 122.1L123.706 125.34L125.079 126.836L127.078 123.346L128.077 122.1L130.95 125.963L131.449 121.352L133.572 116.74H136.445L138.194 115.494L137.069 113.874L139.567 112.628L140.192 109.387L143.689 108.764L145.937 104.776L142.69 99.2921L143.689 97.4226L145.937 94.0578L147.311 93.4344L150.308 96.3011L153.056 94.8053L158.177 91.8142L152.432 92.8112L151.557 91.1913H154.93L159.925 83.2149L154.305 88.574L154.93 86.0814L150.308 88.574L149.059 91.1913H145.937L142.69 94.0578L141.066 95.927L139.567 97.4226L138.193 103.903L136.445 106.022L133.572 107.393L132.074 111.755L132.074 111.132ZM161.049 81.47L162.923 78.3542L163.922 72.8702L171.541 66.8879L166.17 73.4936L166.17 79.7252L161.049 81.47ZM168.418 76.3601L170.292 72.3717L173.914 69.5054L174.663 64.1463H172.29L174.663 58.6623L178.035 56.4191L182.656 51.8075L185.779 52.68L187.652 40.84L193.023 38.9705L193.023 78.3542L189.026 67.3865L185.779 69.5054L185.779 63.3983L178.66 70.3778L175.412 71.3749L173.914 76.3601L172.29 73.4936L168.418 76.3601Z" stroke="black" stroke-width="2"/>
<path d="M100.028 55.0591L98.9858 55.6768C97.7499 56.4091 96.7178 57.4401 95.9844 58.6752C95.4032 59.6538 95.0227 60.7384 94.8651 61.8656L94.6781 63.2034C94.4654 64.7242 94.6153 66.2738 95.1154 67.7257C95.5204 68.9012 96.1465 69.9883 96.9601 70.9283L97.1769 71.1788C97.7893 71.8863 98.512 72.4903 99.317 72.9673L99.9797 73.3599C101.346 74.1696 102.958 74.4606 104.522 74.1798L105.426 74.0173C107.227 73.6938 108.712 72.4215 109.308 70.6916C109.577 69.9125 109.65 69.0796 109.523 68.2655L109.237 66.4396C109.141 65.8254 109.092 65.2048 109.092 64.5832L109.092 63.8195C109.092 62.3088 108.779 60.8144 108.172 59.4308L107.899 58.8069C107.532 57.9701 107.012 57.2093 106.365 56.5639L105.551 55.7514C104.699 54.9019 103.546 54.4248 102.343 54.4248C101.529 54.4248 100.729 54.6439 100.028 55.0591Z" fill="white" stroke="black" stroke-width="2"/>
<path d="M101.724 51.496L105.096 37.9735L113.089 29.6232" stroke="black" stroke-width="2"/>
<path d="M107.032 53.2408L110.404 39.7183L120.208 29.6232" stroke="black" stroke-width="2"/>
<path d="M112.34 54.5806L115.713 41.0581L125.766 29.6232" stroke="black" stroke-width="2"/>
<path d="M118.46 56.4501L121.832 42.9276L133.072 29.3739" stroke="black" stroke-width="2"/>
<path d="M123.768 58.2572L127.14 44.7347L139.879 29.6232" stroke="black" stroke-width="2"/>
<path d="M21.0005 143L1.00049 143L1.00026 159L9.00014 167.5L1.00003 175L0.999808 191L10.9998 191L20.9998 191L21.0005 143Z" fill="#404040"/>
<path d="M21.0005 143L1.00049 143L1.00026 159L9.00014 167.5L1.00003 175L0.999808 191L10.9998 191L20.9998 191L21.0005 143Z" fill="black" fill-opacity="0.2"/>
<path d="M21.0005 143L1.00049 143L1.00026 159L9.00014 167.5L1.00003 175L0.999808 191L10.9998 191L20.9998 191L21.0005 143Z" stroke="black" stroke-width="2"/>
<path d="M12.9999 151L21 143L20.9999 151L12.9999 151Z" fill="black" fill-opacity="0.38" stroke="black" stroke-width="2" stroke-linejoin="bevel"/>
<path d="M205 143L225 143L225 159L217 167.5L225 175L225.001 191L215.001 191L205.001 191L205 143Z" fill="#404040"/>
<path d="M205 143L225 143L225 159L217 167.5L225 175L225.001 191L215.001 191L205.001 191L205 143Z" fill="black" fill-opacity="0.2"/>
<path d="M205 143L225 143L225 159L217 167.5L225 175L225.001 191L215.001 191L205.001 191L205 143Z" stroke="black" stroke-width="2"/>
<path d="M213.002 151L205.002 143L205.002 151L213.002 151Z" fill="black" fill-opacity="0.38" stroke="black" stroke-width="2" stroke-linejoin="bevel"/>
<path d="M212.99 150.977L12.9902 150.977L12.9896 198.977L212.99 198.977L212.99 150.977Z" fill="#404040" stroke="black" stroke-width="2"/>
<path d="M52.7229 186.36C50.8269 186.36 48.4149 186.216 45.4869 185.928L45.739 179.268L47.935 179.268L48.547 183.228C49.483 183.348 50.443 183.468 51.427 183.588C52.411 183.708 53.191 183.768 53.767 183.768C53.887 183.768 54.055 183.624 54.271 183.336C54.511 183.048 54.715 182.7 54.883 182.292C55.051 181.884 55.135 181.5 55.135 181.14C55.135 180.252 54.799 179.508 54.127 178.908C53.455 178.284 52.435 177.564 51.0671 176.748C49.9391 176.124 49.0151 175.548 48.2951 175.02C47.5751 174.492 46.9631 173.844 46.4591 173.076C45.9791 172.284 45.7391 171.36 45.7391 170.304C45.7392 169.608 45.7992 168.996 45.9192 168.468C46.2072 167.94 46.7592 167.316 47.5752 166.596C48.3912 165.876 49.2312 165.252 50.0952 164.724C50.9832 164.196 51.6432 163.932 52.0752 163.932C52.6272 163.932 54.7392 164.136 58.4112 164.544L58.1231 170.844L55.9271 170.844L55.4232 167.244C54.6312 167.1 53.7192 166.956 52.6872 166.812C51.6792 166.668 50.9352 166.596 50.4552 166.596C50.1672 166.596 49.9272 166.8 49.7352 167.208C49.5432 167.616 49.4472 168.216 49.4472 169.008C49.4472 169.944 49.7711 170.736 50.4191 171.384C51.0671 172.032 52.0151 172.716 53.2631 173.436C54.6551 174.228 55.6991 174.864 56.3951 175.344C57.0911 175.824 57.7031 176.46 58.231 177.252C58.783 178.02 59.059 178.944 59.059 180.024C59.059 180.648 58.987 181.248 58.843 181.824C58.531 182.424 57.979 183.084 57.187 183.804C56.3949 184.524 55.5669 185.136 54.7029 185.64C53.8629 186.12 53.2029 186.36 52.7229 186.36ZM65.263 186.36C64.975 186.36 64.615 186.18 64.183 185.82C63.751 185.46 63.367 185.04 63.031 184.56C62.695 184.08 62.5271 183.696 62.5271 183.408L62.5272 171.888L60.1872 171.888L60.1872 170.592L62.5273 169.476L64.8673 166.704C65.0833 166.68 65.5513 166.848 66.2713 167.208L66.2712 169.8L69.7992 169.8L69.7992 172.032L66.2712 172.032L66.2711 181.824C66.2711 182.52 66.3311 183 66.4511 183.264C66.5711 183.504 66.7991 183.624 67.1351 183.624L70.1591 183.732L70.159 185.64C69.415 185.808 68.479 185.964 67.351 186.108C66.247 186.276 65.551 186.36 65.263 186.36ZM77.6099 186.36C76.5539 186.36 75.5819 186.072 74.6939 185.496C73.8299 184.896 73.1339 184.008 72.6059 182.832C72.102 181.656 71.85 180.216 71.85 178.512C71.85 177.384 71.934 176.34 72.102 175.38C72.2701 174.396 72.4861 173.628 72.7501 173.076C73.1581 172.524 74.0581 171.78 75.4501 170.844C76.8661 169.908 77.8021 169.44 78.2581 169.44C78.5221 169.44 79.4581 169.56 81.0661 169.8C82.6741 170.016 83.9101 170.196 84.7741 170.34L84.7739 183.696L86.0339 184.2L86.0339 185.748C83.8499 186.156 82.6379 186.36 82.3979 186.36C82.3019 186.36 82.0619 186.18 81.6779 185.82C81.3179 185.46 81.1379 185.22 81.1379 185.1L81.1379 183.804C78.9539 185.508 77.7779 186.36 77.6099 186.36ZM78.0059 183.444C78.2459 183.444 79.2539 183 81.0299 182.112L81.0301 172.428C80.4541 172.212 79.7221 172.02 78.8341 171.852C77.9701 171.66 77.3941 171.588 77.1061 171.636C76.6741 171.732 76.3501 172.272 76.1341 173.256C75.9181 174.24 75.81 175.884 75.81 178.188C75.81 179.34 75.93 180.312 76.17 181.104C76.434 181.896 76.7339 182.484 77.0699 182.868C77.4299 183.252 77.7419 183.444 78.0059 183.444ZM104.44 186.396C104.368 186.396 104.2 186.3 103.936 186.108L100.012 172.032L98.6079 171.636L98.608 170.016C100.744 169.68 101.92 169.512 102.136 169.512C102.256 169.512 102.508 169.656 102.892 169.944C103.3 170.232 103.528 170.46 103.576 170.628L105.664 179.268L106.312 182.364L106.708 182.364L109.516 171.924L107.356 171.672L107.356 169.8L111.892 169.512C112.012 169.512 112.216 169.692 112.504 170.052C112.816 170.412 112.972 170.676 112.972 170.844L108.256 185.748C105.904 186.18 104.632 186.396 104.44 186.396ZM120.219 186.36C119.163 186.36 118.191 186.072 117.303 185.496C116.439 184.896 115.743 184.008 115.215 182.832C114.711 181.656 114.459 180.216 114.459 178.512C114.459 177.384 114.543 176.34 114.711 175.38C114.879 174.396 115.095 173.628 115.359 173.076C115.767 172.524 116.667 171.78 118.059 170.844C119.475 169.908 120.412 169.44 120.868 169.44C121.132 169.44 122.068 169.56 123.675 169.8C125.283 170.016 126.519 170.196 127.383 170.34L127.383 183.696L128.643 184.2L128.643 185.748C126.459 186.156 125.247 186.36 125.007 186.36C124.911 186.36 124.671 186.18 124.287 185.82C123.927 185.46 123.747 185.22 123.747 185.1L123.747 183.804C121.563 185.508 120.387 186.36 120.219 186.36ZM120.615 183.444C120.855 183.444 121.863 183 123.639 182.112L123.639 172.428C123.063 172.212 122.331 172.02 121.443 171.852C120.579 171.66 120.003 171.588 119.715 171.636C119.283 171.732 118.959 172.272 118.743 173.256C118.527 174.24 118.419 175.884 118.419 178.188C118.419 179.34 118.539 180.312 118.779 181.104C119.043 181.896 119.343 182.484 119.679 182.868C120.039 183.252 120.351 183.444 120.615 183.444ZM134.872 186.36C134.584 186.36 134.224 186.18 133.792 185.82C133.36 185.46 132.976 185.04 132.64 184.56C132.304 184.08 132.136 183.696 132.136 183.408L132.137 171.888L129.797 171.888L129.797 170.592L132.137 169.476L134.477 166.704C134.693 166.68 135.161 166.848 135.881 167.208L135.881 169.8L139.409 169.8L139.409 172.032L135.881 172.032L135.88 181.824C135.88 182.52 135.94 183 136.06 183.264C136.18 183.504 136.408 183.624 136.744 183.624L139.768 183.732L139.768 185.64C139.024 185.808 138.088 185.964 136.96 186.108C135.856 186.276 135.16 186.36 134.872 186.36ZM144.123 186.36C143.979 186.36 143.691 186.168 143.259 185.784C142.827 185.376 142.611 185.112 142.611 184.992L142.611 171.996L141.279 171.564L141.279 170.052C143.439 169.668 144.64 169.476 144.88 169.476C145.024 169.476 145.299 169.668 145.707 170.052C146.115 170.412 146.319 170.676 146.319 170.844L146.319 183.804L147.615 184.2L147.615 185.712C145.527 186.144 144.363 186.36 144.123 186.36ZM142.36 162.78L145.492 162.6L146.104 163.428L145.888 166.668L142.648 166.668L142.36 162.78ZM157.707 186.36C155.139 186.36 153.207 185.724 151.911 184.452C150.615 183.156 149.967 181.164 149.967 178.476C149.967 177.396 150.051 176.352 150.219 175.344C150.387 174.336 150.603 173.592 150.867 173.112C151.131 172.752 151.659 172.272 152.451 171.672C153.243 171.048 154.047 170.508 154.863 170.052C155.679 169.572 156.231 169.332 156.519 169.332C159.015 169.332 160.899 169.992 162.171 171.312C163.443 172.608 164.079 174.504 164.079 177C164.079 178.152 163.995 179.244 163.827 180.276C163.683 181.284 163.491 182.1 163.251 182.724C162.843 183.252 161.919 183.996 160.479 184.956C159.063 185.892 158.139 186.36 157.707 186.36ZM157.851 184.164C157.995 184.116 158.559 183.84 159.543 183.336C159.927 181.632 160.119 179.676 160.119 177.468C160.119 175.668 159.795 174.24 159.147 173.184C158.523 172.104 157.587 171.564 156.339 171.564C155.811 171.564 155.379 171.648 155.043 171.816C154.707 171.984 154.431 172.608 154.215 173.688C154.023 174.768 153.927 176.196 153.927 177.972C153.927 180.276 154.299 181.884 155.043 182.796C155.811 183.708 156.747 184.164 157.851 184.164ZM169.044 186.36C168.924 186.36 168.672 186.18 168.288 185.82C167.928 185.46 167.748 185.22 167.748 185.1L167.748 172.104L166.416 171.564L166.416 170.052C168.672 169.668 169.92 169.476 170.16 169.476C170.28 169.476 170.508 169.656 170.844 170.016C171.18 170.352 171.348 170.58 171.348 170.7L171.348 171.96C172.044 171.432 172.8 170.892 173.616 170.34C174.432 169.764 174.888 169.476 174.984 169.476C176.736 169.476 178.056 169.92 178.944 170.808C179.832 171.672 180.276 173.196 180.276 175.38L180.276 183.66L181.572 184.2L181.572 185.712C179.34 186.144 178.116 186.36 177.9 186.36C177.78 186.36 177.516 186.18 177.108 185.82C176.724 185.46 176.532 185.22 176.532 185.1L176.532 175.38C176.532 173.364 175.908 172.356 174.66 172.356C174.54 172.356 174.216 172.464 173.688 172.68C173.184 172.896 172.812 173.052 172.572 173.148C172.332 173.268 171.972 173.424 171.492 173.616L171.492 183.66L172.752 184.2L172.752 185.712C170.52 186.144 169.284 186.36 169.044 186.36Z" fill="black" fill-opacity="0.57"/>
<path d="M90.751 186.36C90.631 186.36 90.379 186.18 89.995 185.82C89.635 185.46 89.455 185.22 89.455 185.1L89.4552 172.032L88.1232 171.564L88.1232 170.052C90.2592 169.668 91.4473 169.476 91.6873 169.476C91.8073 169.476 92.0712 169.68 92.4792 170.088C92.9112 170.472 93.1272 170.712 93.1272 170.808L93.0552 172.14C94.8072 170.244 95.7553 169.296 95.8993 169.296C96.3313 169.296 97.1593 169.488 98.3832 169.872C98.4552 170.04 98.5152 170.244 98.5632 170.484C98.6112 170.7 98.6352 170.904 98.6352 171.096C98.6352 171.288 98.4672 171.708 98.1312 172.356C97.8192 172.98 97.6152 173.316 97.5192 173.364C96.5832 173.004 95.9232 172.824 95.5392 172.824C95.3712 172.824 95.0592 172.932 94.6032 173.148C94.1472 173.34 93.6792 173.58 93.1992 173.868L93.1991 183.48L95.143 184.056L95.143 185.712C92.455 186.144 90.991 186.36 90.751 186.36Z" fill="black" fill-opacity="0.3"/>
<defs>
<linearGradient id="paint0_linear_3569_10087" x1="113.089" y1="29.6232" x2="113.089" y2="209.092" gradientUnits="userSpaceOnUse">
<stop/>
<stop offset="1" stop-opacity="0"/>
</linearGradient>
<linearGradient id="paint1_linear_3569_10087" x1="106.47" y1="47.8193" x2="106.47" y2="209.092" gradientUnits="userSpaceOnUse">
<stop stop-color="#252E45"/>
<stop offset="1" stop-color="#1D1C1C"/>
</linearGradient>
<linearGradient id="paint2_linear_3569_10087" x1="117.086" y1="47.4454" x2="117.086" y2="171.204" gradientUnits="userSpaceOnUse">
<stop stop-color="#9E9E9E"/>
<stop offset="1" stop-color="white"/>
</linearGradient>
</defs>
</svg>
