<svg width="312" height="312" viewBox="0 0 312 312" fill="none" xmlns="http://www.w3.org/2000/svg">
<rect opacity="0.3" width="160" height="180" transform="matrix(1 0 5.51922e-06 1 76.0002 71)" fill="url(#paint0_linear_3567_9935)"/>
<path d="M80.0003 87.0625L76.0003 88.5625L76.0002 71.0625H236L236.001 131.062L232.001 129.312C231.251 129.896 229.401 131.062 228.001 131.062C226.601 131.062 228.584 126.729 229.751 124.562L222.251 131.062L212.001 133.312L213.751 125.812C212.251 124.312 210.601 121.412 216.001 121.812C222.751 122.312 205.75 109.562 204 108.562C202.6 107.762 206.084 112.562 208 115.062C207.167 115.812 203.6 117.262 196 117.062C188.4 116.862 189.334 109.312 190.75 105.562L196 103.062C191.084 99.0625 182.2 91.8625 186 95.0625C190.75 99.0625 193.5 101.812 188 103.062C183.6 104.062 172.834 100.812 168 99.0625L105.5 88.5625L104 89.3125L101.75 87.0625L97.5004 91.0625L92.0003 88.5625L89.5003 87.0625L88.0003 88.5625L80.0003 87.0625Z" fill="white"/>
<path d="M184.769 139.978C182.593 140.172 181.682 140.312 182.751 140.312C183.283 140.312 183.97 140.192 184.769 139.978Z" fill="white"/>
<path d="M236.001 156.312C230.501 154.312 220.751 150.012 225.751 148.812C230.751 147.612 232.751 141.146 232.001 140.312C232.001 140.312 232.084 139.979 218.501 139.062C204.917 138.146 178.551 140.312 182.751 140.312C186.951 140.312 200.751 132.812 204.001 131.062L186.001 129.312C189.251 121.812 178.751 140.262 174.751 139.062C170.751 137.862 173.917 134.729 176.001 133.312H161.501M98.7505 120.312C95.4172 119.896 89.4005 118.662 92.0005 117.062C94.6005 115.462 97.5838 112.396 98.7505 111.062L94.7504 103.062L98.7504 101.312C95.6671 100.396 89.5004 98.2125 89.5004 96.8125C89.5004 95.4125 88.5004 92.3958 88.0004 91.0625M76.0003 88.5625L80.0003 87.0625L88.0003 88.5625L89.5003 87.0625L92.0003 88.5625L97.5004 91.0625L101.75 87.0625L104 89.3125L105.5 88.5625L168 99.0625C172.834 100.812 183.6 104.062 188 103.062C193.5 101.812 190.75 99.0625 186 95.0625C182.2 91.8625 191.084 99.0625 196 103.062L190.75 105.562C189.334 109.312 188.4 116.862 196 117.062C203.6 117.262 207.167 115.812 208 115.062C206.084 112.562 202.6 107.762 204 108.562C205.75 109.562 222.751 122.312 216.001 121.812C210.601 121.412 212.251 124.312 213.751 125.812L212.001 133.312L222.251 131.062L229.751 124.562C228.584 126.729 226.601 131.062 228.001 131.062C229.401 131.062 231.251 129.896 232.001 129.312L236.001 131.062L236 71.0625H76.0002L76.0003 88.5625Z" stroke="black" stroke-width="2"/>
<path d="M146.251 144.562L154.5 96.8125L153 92.9375L154.5 86.3125L154.5 72.5625L144.5 57.3125L138 58.8125L128.5 70.3125L122.875 81.0625L120 91.0625L109.501 135.062L110.751 143.062L112.001 147.062L140.001 151.062L146.251 144.562Z" fill="url(#paint1_linear_3567_9935)"/>
<path d="M76.0005 115.062H80.0005L88.0005 119.062L86.2505 120.562H84.0005L80.0006 136.562H76.0006L90.0006 139.062L88.0006 140.312L104.001 145.312L112.001 147.062L137.251 153.812L138.751 151.062H141.501L141.501 147.062L148.001 151.062L148.001 153.812L152.001 157.562L161.501 160.562L169.751 163.062L173.001 161.562H176.001L180.001 151.812L179.376 150.312L180.001 148.687L190.251 151.062L190.251 153.187L188.751 153.812L186.251 164.312L178.626 161.562L188.001 165.187L192.001 167.062L192.001 169.812H188.751L188.001 177.812L186.751 195.062L180.001 199.062L176.001 200.187L165.876 199.062L166.751 191.062L161.501 189.687L161.501 184.312L108.001 174.062L103.251 171.687L104.001 168.687L97.7507 158.312L98.6258 167.062H96.0008L96.0008 168.687L97.7508 173.062L96.0008 172.437L95.1258 176.062L93.2508 176.937L92.0008 173.562L92.0008 170.062L93.2508 168.687L93.2508 165.812L90.8757 157.562L76.0007 153.812L76.0007 149.437L90.8757 153.812L76.0007 147.812L76.0006 136.562L76.0005 115.062Z" fill="#3C3C3C"/>
<path d="M76.0012 251.062L76.0008 176.937L78.5008 178.187L80.0008 180.312L84.6259 182.187L88.0009 186.062L94.0009 187.062L97.7509 189.687C103.834 194.771 116.501 205.362 118.501 207.062C120.501 208.762 126.418 212.354 129.126 213.937H124.001L114.626 211.062L107.251 208.562L107.251 212.937C106.168 212.396 104.001 211.262 104.001 211.062L104.001 213.937L88.001 208.562C89.751 210.187 92.776 213.537 90.876 213.937C88.976 214.337 86.6677 214.854 85.751 215.062L77.501 213.937L77.501 216.687L79.3761 219.062C81.6677 218.479 88.2011 217.437 96.0011 217.937C103.801 218.437 115.251 222.229 120.001 224.062L112.001 227.062C117.209 231.396 126.626 240.037 122.626 239.937C118.626 239.837 109.46 241.229 105.376 241.937C106.585 242.021 111.201 242.262 120.001 242.562C128.801 242.862 156.335 248.354 169.001 251.062H76.0012Z" fill="#3C3C3C"/>
<path d="M105.376 164.312L177.251 179.062L107.251 167.062M95.1257 155.062L165.876 171.687L166.751 165.187L172.001 165.812L169.751 173.062L174.751 173.562L177.251 167.062H182.001L180.001 174.062H184.001M77.5006 143.062C80.5423 144.979 96.0007 150.312 96.0007 150.312C96.0007 150.312 142.501 163.062 157.751 163.062M236.001 176.937C231.001 177.979 220.301 180.487 217.501 182.187C214.701 183.887 216.334 184.312 217.501 184.312L224.001 182.187L232.001 180.312H233.501L228.001 184.312H224.001H233.501H236.001L236.001 195.062H232.001L230.251 191.062L224.001 192.312L220.001 191.062L218.501 195.062L209.501 199.062L201.501 203.062L200.001 200.187L196.001 205.562L188.751 207.062H180.001L194.251 211.062L205.251 208.562L206.751 212.937L216.001 215.062H224.001L228.001 212.937L232.001 215.062L236.001 209.812M76.0005 115.062H80.0005L88.0005 119.062L86.2505 120.562H84.0005L80.0006 136.562H76.0006L90.0006 139.062L88.0006 140.312L104.001 145.312L112.001 147.062L137.251 153.812L138.751 151.062H141.501L141.501 147.062L148.001 151.062L148.001 153.812L152.001 157.562L161.501 160.562L169.751 163.062L173.001 161.562H176.001L180.001 151.812L179.376 150.312L180.001 148.687L190.251 151.062L190.251 153.187L188.751 153.812L186.251 164.312L178.626 161.562L188.001 165.187L192.001 167.062L192.001 169.812H188.751L188.001 177.812L186.751 195.062L180.001 199.062L176.001 200.187L165.876 199.062L166.751 191.062L161.501 189.687L161.501 184.312L108.001 174.062L103.251 171.687L104.001 168.687L97.7507 158.312L98.6258 167.062H96.0008L96.0008 168.687L97.7508 173.062L96.0008 172.437L95.1258 176.062L93.2508 176.937L92.0008 173.562L92.0008 170.062L93.2508 168.687L93.2508 165.812L90.8757 157.562L76.0007 153.812L76.0007 149.437L90.8757 153.812L76.0007 147.812L76.0005 115.062ZM76.0008 176.937L76.0012 251.062H169.001C156.335 248.354 128.801 242.862 120.001 242.562C111.201 242.262 106.585 242.021 105.376 241.937C109.46 241.229 118.626 239.837 122.626 239.937C126.626 240.037 117.209 231.396 112.001 227.062L120.001 224.062C115.251 222.229 103.801 218.437 96.0011 217.937C88.2011 217.437 81.6677 218.479 79.3761 219.062L77.501 216.687L77.501 213.937L85.751 215.062C86.6677 214.854 88.976 214.337 90.876 213.937C92.776 213.537 89.751 210.187 88.001 208.562L104.001 213.937C104.001 212.896 104.001 210.862 104.001 211.062C104.001 211.262 106.168 212.396 107.251 212.937L107.251 208.562L114.626 211.062L124.001 213.937H129.126C126.418 212.354 120.501 208.762 118.501 207.062C116.501 205.362 103.834 194.771 97.7509 189.687L94.0009 187.062L88.0009 186.062L84.6259 182.187L80.0008 180.312L78.5008 178.187L76.0008 176.937Z" stroke="black" stroke-width="2"/>
<path d="M76.0005 110.312L76.0002 71.0625H95.2502M203.375 71.0625H236L236.001 130.562M236.001 209.437L236.001 251.062H208.001M171.251 251.062H174.001M176.251 251.062H179.001M181.501 251.062H184.251M186.876 251.062H189.626M192.376 251.062H195.126M197.626 251.062H200.376M202.751 251.062H205.501" stroke="black" stroke-width="2"/>
<path d="M115.375 127.062H112.5L113.5 121.437L112.5 120.062L114.426 118.498C114.45 118.477 114.475 118.456 114.5 118.437L114.426 118.498C114.133 118.756 113.989 119.155 115.375 119.062C116.875 118.962 120 117.271 121.375 116.437L121.375 118.437L128 113.812L136 108.437C134.292 109.687 131.9 111.962 136 111.062C141.375 104.187 149.375 97.8125 149.375 97.8125C149.375 97.8125 146.459 104.771 145.625 105.812L149.375 104.187L148.75 105.812L153.25 103.062L152 112.187L152 113.812L150.75 114.437L150.75 117.187L150.125 116.437L146.875 118.437L146.25 117.187L149.375 115.812H146.875L145.625 116.437L142.125 120.062L140 117.187L140 115.062L140.98 114.289L139.25 115.062L139.25 117.187L140 118.437L134.75 120.687H137.375L132 122.437L128 123.062L124 125.937L125.5 123.062L124 123.937L124.75 122.437L119.375 124.562H114.5L113.5 125.937L115.375 127.062Z" fill="white"/>
<path d="M118.376 129.687H112.001L110.876 133.437H117.501L122.251 136.187C121.042 135.104 120.751 133.437 120.751 133.437C122.126 133.437 126.126 136.187 126.126 136.187L130.251 138.687C130.251 138.687 135.626 140.271 137.376 141.187L133.001 142.437L147.376 151.062L143.001 152.687L154.584 160.896C155.376 160.687 169.501 163.062 169.501 163.062C169.501 163.062 163.876 154.062 160.001 150.187C158.145 148.331 154.751 149.146 152.001 150.187C151.792 149.396 150.126 147.662 150.126 147.062C150.126 146.312 148.001 146.687 146.251 145.062C144.851 143.762 143.501 143.687 143.001 143.812L143.001 142.437H141.376L142.126 141.187L138.001 138.062C136.209 137.104 131.751 135.962 130.751 135.062C129.751 134.162 127.334 133.979 125.501 133.437H129.376L136.001 135.062L140.001 136.187C141.626 137.229 145.026 139.387 145.626 139.687C146.376 140.062 152.001 142.312 155.376 145.062C158.076 147.262 165.584 148.979 169.001 149.562L175.126 151.062C173.834 149.896 169.601 146.662 163.001 143.062C160.884 141.908 137.331 132.967 146.876 135.062C147.251 135.271 148.276 135.787 149.376 136.187C150.476 136.587 157.584 137.604 161.001 138.062C159.542 137.437 155.701 135.787 152.001 134.187C148.301 132.587 144.751 130.062 143.001 129.687C141.901 130.786 145.635 134.635 137.376 132.312L139.251 131.062L134.751 130.312L133.876 131.062L130.251 130.312L130.251 131.062L129.376 130.312L126.126 129.687L124.751 130.312L121.376 129.687H118.376Z" fill="white"/>
<path d="M117.5 104.187L119.375 105.187L120.75 100.812L124 99.0625L123 100.812L130.75 97.8125L133.875 92.8125L134.75 96.4375L132 103.062L129.375 105.812L124 108.437L124 105.812L120.75 109.437L115.375 111.062L115.375 112.937L121.375 112.187C126.042 110.312 135.65 106.087 136.75 104.187C137.85 102.287 135.875 103.396 134.75 104.187L139.25 95.0625L141.375 97.8125L150.125 81.5625L151.375 84.5625L154 81.5625M112.5 127.062H115.375L113.5 125.937L114.5 124.562H119.375L124.75 122.437L124 123.937L125.5 123.062L124 125.937L128 123.062L132 122.437L137.375 120.687H134.75L140 118.437L139.25 117.187L139.25 115.062L144 112.937L141.375 113.976L140 115.062L140 117.187L142.125 120.062L145.625 116.437L146.875 115.812H149.375L146.25 117.187L146.875 118.437L150.125 116.437L150.75 117.187L150.75 114.437L152 113.812L152 112.187L153.25 103.062L148.75 105.812L149.375 104.187L145.625 105.812C146.459 104.771 149.375 97.8125 149.375 97.8125C149.375 97.8125 141.375 104.187 136 111.062C131.9 111.962 134.292 109.687 136 108.437L128 113.812L121.375 118.437L121.375 116.437C120 117.271 116.875 118.962 115.375 119.062C113.875 119.162 114.167 118.687 114.5 118.437L112.5 120.062L113.5 121.437L112.5 127.062ZM112.001 129.687H118.376H121.376L124.751 130.312L126.126 129.687L129.376 130.312L130.251 131.062L130.251 130.312L133.876 131.062L134.751 130.312L139.251 131.062L137.376 132.312C145.635 134.635 141.901 130.786 143.001 129.687C144.751 130.062 148.301 132.587 152.001 134.187C155.701 135.787 159.542 137.437 161.001 138.062C157.584 137.604 150.476 136.587 149.376 136.187C148.276 135.787 147.251 135.271 146.876 135.062C137.331 132.967 160.884 141.908 163.001 143.062C169.601 146.662 173.834 149.896 175.126 151.062L169.001 149.562C165.584 148.979 158.076 147.262 155.376 145.062C152.001 142.312 146.376 140.062 145.626 139.687C145.026 139.387 141.626 137.229 140.001 136.187L136.001 135.062L129.376 133.437H125.501C127.334 133.979 129.751 134.162 130.751 135.062C131.751 135.962 136.209 137.104 138.001 138.062L142.126 141.187L141.376 142.437H143.001L143.001 143.812C143.501 143.687 144.851 143.762 146.251 145.062C148.001 146.687 150.126 146.312 150.126 147.062C150.126 147.662 151.792 149.396 152.001 150.187C154.751 149.146 158.145 148.331 160.001 150.187C163.876 154.062 169.501 163.062 169.501 163.062C169.501 163.062 155.376 160.687 154.584 160.896L143.001 152.687L147.376 151.062L133.001 142.437L137.376 141.187C135.626 140.271 130.251 138.687 130.251 138.687L126.126 136.187C126.126 136.187 122.126 133.437 120.751 133.437C120.751 133.437 121.042 135.104 122.251 136.187L117.501 133.437H110.876L112.001 129.687Z" stroke="black" stroke-width="2"/>
<path d="M125.126 137.312L125.126 139.687L112.751 135.062H109.876L110.626 137.312L115.376 139.687L109.876 139.062L109.876 141.687L123.876 144.754L121.876 147.754C121.876 147.754 113.041 144.834 111.376 143.937C109.995 143.194 115.891 152.571 123.001 151.062L125.126 148.562C128.713 151.448 130.876 157.062 130.876 157.062L150.001 168.504L137.126 155.062L132.001 150.187L127.126 145.812L136.001 148.562L140.001 154.062L152.626 155.062L143.126 151.062L138.751 145.812L129.751 142.879L129.751 139.687L125.126 137.312Z" fill="white" stroke="black" stroke-width="2"/>
<path d="M206.376 183.062L208.001 185.187L208.001 186.312L214.501 184.312H221.626L214.501 185.687L214.001 187.062L210.626 188.687L208.001 189.437L212.001 191.812C209.584 190.937 204.176 189.362 201.876 190.062M192.751 193.687L197.001 191.812L197.001 190.062L199.001 187.062C199.001 186.479 199.201 185.287 200.001 185.187C200.801 185.087 203.667 183.729 205.001 183.062L205.751 181.437L205.001 180.812H206.376L208.751 169.562L210.626 160.437L214.501 145.562L208.751 144.062L205.751 145.562L205.001 149.062H202.876L192.751 193.687Z" stroke="black" stroke-width="2"/>
<path d="M90.3756 138.437L92.0006 137.062L98.3852 139.062L100.001 139.569L101.251 134.455L100.001 134.098L96.0006 132.955L96.0006 130.187L99.0005 121.187L100.001 121.451L99.0005 117.937L108 82.4375L106.875 80.4375L108.67 79.8125L106.875 76.9375L106.25 73.0625H113.625L116 75.8125L116 79.0625L113.625 80.4375L114.75 82.4375L105.251 119.062L105.876 123L112.001 124.615L113.626 121.451L113.626 119.062L121.75 85.1875L122.625 84.5625L122.625 82.4375L122.625 80.4375L125.25 79.0625L116 73.8125L117.5 66.0625H110.375L122.625 53.6875H130.25L118.803 66.8474L127.25 71.9375L137.5 59.0625L144.813 57.375L152.125 55.6875L160.875 71.0625L162 86.4375L165.75 88.75L167.625 89.9062L169.5 91.0625L168.5 97.6875L168 97.3842L165.875 99.0625L165.875 101.437L158.251 149.062L150.626 150.437L149.876 147.062H149.126L145.501 144.687L148.001 132.562L154.5 97.3842L152.75 93.0625L158.25 92.3125L162 95.0625L160 97.3842L160 99.0625L152.001 145.562L149.126 147.062H149.876L150.626 150.437L158.251 149.062L165.875 101.437L165.875 99.0625L168 97.3842L160.875 93.0625L162 86.4375H154.5L153.875 71.9375L144.813 57.375L137.5 59.0625L127.25 71.9375L118.803 66.8474L117.5 66.0625L116 73.8125L125.25 79.0625L122.625 80.4375L122.625 82.4375L122.625 84.5625L121.75 85.1875L113.626 119.062L113.626 121.451L112.001 124.615L112.751 124.812L111.001 132.955L108.671 136.575L110.376 137.062L111.001 139.062L108.671 141.59L111.001 142.062L112.001 144.687L111.001 147.062L101.251 144.687L97.063 143.365L89.3756 140.937L90.3756 138.437Z" fill="#C4C4C4"/>
<path d="M93.2506 137.062L92.6256 135.062L94.6256 132.562L96.0006 132.955M108.671 141.59L102.376 140.312L100.001 139.569M108.671 141.59L111.001 142.062L112.001 144.687L111.001 147.062L101.251 144.687L97.063 143.365M108.671 141.59L111.001 139.062L110.376 137.062L108.671 136.575M96.0006 132.955L96.0006 130.187L99.0005 121.187L104.001 122.506M96.0006 132.955L100.001 134.098M108.671 136.575L111.001 132.955L112.751 124.812L112.001 124.615M108.671 136.575L101.251 134.455M100.001 121.451L99.0005 117.937L108 82.4375L106.875 80.4375L108.67 79.8125L106.875 76.9375L106.25 73.0625H113.625L116 75.8125L116 79.0625L113.625 80.4375L114.75 82.4375L105.251 119.062L105.876 123M105.876 123L112.001 124.615M105.876 123L104.001 122.506M112.001 124.615L113.626 121.451L113.626 119.062L121.75 85.1875L122.625 84.5625L122.625 82.4375L122.625 80.4375L125.25 79.0625L116 73.8125L117.5 66.0625M117.5 66.0625H110.375M117.5 66.0625L118.803 66.8474M127.25 71.9375L125.75 79.0625M127.25 71.9375L137.5 59.0625L144.813 57.375M127.25 71.9375L118.803 66.8474M152.125 55.6875L160.875 71.0625M152.125 55.6875L144.813 57.375M152.125 55.6875L153.875 49.3125M162 86.4375L160.875 93.0625L168 97.3842M162 86.4375L160.875 71.0625M162 86.4375H154.5M162 86.4375L165.75 88.75L167.625 89.9062M160.875 71.0625L153.875 71.9375M168 97.3842L168.5 97.6875L169.5 91.0625L167.625 89.9062M168 97.3842L165.875 99.0625L165.875 101.437L158.251 149.062L150.626 150.437L149.876 147.062H149.126M149.126 147.062L152.001 145.562L160 99.0625L160 97.3842L162 95.0625L158.25 92.3125L152.75 93.0625L154.5 97.3842L148.001 132.562L145.501 144.687L149.126 147.062ZM153.875 92.3125L154.5 86.4375M154.5 86.4375L153.875 71.9375M153.875 71.9375L144.813 57.375M108 66.0625H110.375M110.375 66.0625L122.625 53.6875H130.25L118.803 66.8474M167.625 89.9062L166.625 75.0625M104.001 122.506L100.001 134.098M100.001 134.098L101.251 134.455M101.251 134.455L100.001 139.569M100.001 139.569L98.3852 139.062M98.3852 139.062L92.0006 137.062L90.3756 138.437L89.3756 140.937L97.063 143.365M98.3852 139.062L97.063 143.365" stroke="black" stroke-width="2"/>
<path d="M204.001 148.562L213.501 151.062L212.751 153.062L225.501 155.062L220.001 157.312H225.501L222.149 157.93L240.001 163.062L250.501 165.062L245.001 167.062L236.001 165.062L216.001 159.062L222.149 157.93L220.001 157.312H212.001L212.751 153.062L212.001 155.062L202.251 152.562L204.001 148.562Z" fill="#E02323"/>
<path d="M180.001 153.062L188.001 155.062L188.001 157.062L196.001 159.062L194.751 163.062H198.751L197.751 167.062H192.001L193.501 160.812H186.251L187.214 158.748L178.001 155.062L180.001 153.062Z" fill="#E02323"/>
<path d="M220.001 167.062H209.251L210.501 163.062H222.751L220.001 167.062Z" fill="#E02323"/>
<path d="M76.0005 119.062L84.0005 121.812L83.3755 123.312L92.0005 127.062L89.7505 128.812L96.0006 131.062L94.0006 132.812L86.0005 128.812L88.0005 127.062H82.7505L83.3755 123.312L82.7505 124.812L76.0005 123.062L76.0005 119.062Z" fill="#E02323"/>
<path d="M212.751 153.062L213.501 151.062L204.001 148.562L202.251 152.562L212.001 155.062L212.751 153.062ZM212.751 153.062L225.501 155.062L220.001 157.312L240.001 163.062L250.501 165.062L245.001 167.062L236.001 165.062L216.001 159.062L225.501 157.312H212.001L212.751 153.062ZM188.001 157.062L188.001 155.062L180.001 153.062L178.001 155.062L188.001 159.062L188.001 157.062ZM188.001 157.062L196.001 159.062L194.751 163.062H198.751L197.751 167.062H192.001L193.501 160.812H186.251L188.001 157.062ZM83.3755 123.312L84.0005 121.812L76.0005 119.062L76.0005 123.062L82.7505 124.812L83.3755 123.312ZM83.3755 123.312L92.0005 127.062L89.7505 128.812L96.0006 131.062L94.0006 132.812L86.0005 128.812L88.0005 127.062H82.7505L83.3755 123.312ZM209.251 167.062H220.001L222.751 163.062H210.501L209.251 167.062Z" stroke="black" stroke-width="2"/>
<circle cx="4.125" cy="4.125" r="3.125" transform="matrix(1 0 5.51922e-06 1 195.751 147.062)" stroke="black" stroke-width="2"/>
<rect width="1" height="1" transform="matrix(1 0 5.51922e-06 1 146.5 68.9375)" fill="white"/>
<rect width="1" height="1" transform="matrix(1 0 5.51922e-06 1 137.5 74.0625)" fill="white"/>
<rect width="1" height="1" transform="matrix(1 0 5.51922e-06 1 147.5 92.9375)" fill="white"/>
<rect width="1" height="1" transform="matrix(1 0 5.51922e-06 1 126.996 82.0625)" fill="white"/>
<path d="M64.0007 187L44.0007 187L44.0005 203L52.0004 211.5L44.0003 219L44.0001 235L54.0001 235L64.0001 235L64.0007 187Z" fill="#415188"/>
<path d="M64.0007 187L44.0007 187L44.0005 203L52.0004 211.5L44.0003 219L44.0001 235L54.0001 235L64.0001 235L64.0007 187Z" fill="black" fill-opacity="0.2"/>
<path d="M64.0007 187L44.0007 187L44.0005 203L52.0004 211.5L44.0003 219L44.0001 235L54.0001 235L64.0001 235L64.0007 187Z" stroke="black" stroke-width="2"/>
<path d="M56.0001 195L64.0002 187L64.0001 195L56.0001 195Z" fill="black" fill-opacity="0.38" stroke="black" stroke-width="2" stroke-linejoin="bevel"/>
<path d="M248 187L268 187L268 203L260.001 211.5L268.001 219L268.001 235L258.001 235L248.001 235L248 187Z" fill="#415188"/>
<path d="M248 187L268 187L268 203L260.001 211.5L268.001 219L268.001 235L258.001 235L248.001 235L248 187Z" fill="black" fill-opacity="0.2"/>
<path d="M248 187L268 187L268 203L260.001 211.5L268.001 219L268.001 235L258.001 235L248.001 235L248 187Z" stroke="black" stroke-width="2"/>
<path d="M256.002 195L248.002 187L248.002 195L256.002 195Z" fill="black" fill-opacity="0.38" stroke="black" stroke-width="2" stroke-linejoin="bevel"/>
<path d="M255.99 194.977L55.9905 194.977L55.9898 242.977L255.99 242.977L255.99 194.977Z" fill="#415188" stroke="black" stroke-width="2"/>
<path d="M116.556 230.288C116.46 230.288 116.256 230.18 115.944 229.964L110.725 210.524L108.493 209.804L108.493 208.256L117.277 208.256L117.277 209.984L114.865 210.704L117.42 221L118.5 226.22L118.896 226.22L119.976 221.648C121.344 215.936 122.197 212.288 122.533 210.704L120.013 209.984L120.013 208.256L128.293 208.256L128.293 209.804L126.061 210.524L120.948 229.748C120.18 229.868 119.352 229.976 118.464 230.072C117.576 230.168 116.94 230.24 116.556 230.288ZM132.553 230.36C132.409 230.36 132.121 230.168 131.689 229.784C131.257 229.376 131.041 229.112 131.041 228.992L131.041 215.996L129.709 215.564L129.709 214.052C131.869 213.668 133.069 213.476 133.309 213.476C133.453 213.476 133.729 213.668 134.137 214.052C134.545 214.412 134.749 214.676 134.749 214.844L134.749 227.804L136.045 228.2L136.045 229.712C133.957 230.144 132.793 230.36 132.553 230.36ZM130.79 206.78L133.922 206.6L134.534 207.428L134.317 210.668L131.077 210.668L130.79 206.78ZM143.797 230.36C142.837 230.36 141.949 230.072 141.133 229.496C140.317 228.92 139.657 228.056 139.153 226.904C138.649 225.752 138.397 224.348 138.397 222.692C138.397 221.54 138.481 220.448 138.649 219.416C138.817 218.384 139.033 217.616 139.297 217.112C139.561 216.752 140.077 216.284 140.845 215.708C141.613 215.108 142.381 214.58 143.149 214.124C143.941 213.668 144.481 213.44 144.769 213.44C145.345 213.44 146.005 213.512 146.749 213.656C147.517 213.776 148.237 213.944 148.909 214.16L148.801 218.948L146.425 218.948L145.885 216.392C145.621 216.248 145.285 216.116 144.877 215.996C144.493 215.876 144.145 215.816 143.833 215.816C143.617 215.816 143.449 215.864 143.329 215.96C143.017 216.2 142.777 216.884 142.609 218.012C142.441 219.116 142.357 220.484 142.357 222.116C142.357 223.292 142.477 224.288 142.717 225.104C142.981 225.896 143.305 226.484 143.689 226.868C144.073 227.252 144.457 227.444 144.841 227.444L148.909 227.444L148.909 229.1C147.949 229.388 146.941 229.676 145.885 229.964C144.829 230.228 144.133 230.36 143.797 230.36ZM155.048 230.36C154.76 230.36 154.4 230.18 153.968 229.82C153.536 229.46 153.152 229.04 152.816 228.56C152.48 228.08 152.312 227.696 152.312 227.408L152.313 215.888L149.973 215.888L149.973 214.592L152.313 213.476L154.653 210.704C154.869 210.68 155.337 210.848 156.057 211.208L156.057 213.8L159.585 213.8L159.585 216.032L156.057 216.032L156.056 225.824C156.056 226.52 156.116 227 156.236 227.264C156.356 227.504 156.584 227.624 156.92 227.624L159.944 227.732L159.944 229.64C159.2 229.808 158.264 229.964 157.136 230.108C156.032 230.276 155.336 230.36 155.048 230.36ZM169.375 230.36C166.807 230.36 164.875 229.724 163.579 228.452C162.283 227.156 161.635 225.164 161.635 222.476C161.635 221.396 161.719 220.352 161.887 219.344C162.055 218.336 162.271 217.592 162.535 217.112C162.799 216.752 163.327 216.272 164.119 215.672C164.912 215.048 165.716 214.508 166.532 214.052C167.348 213.572 167.9 213.332 168.188 213.332C170.684 213.332 172.568 213.992 173.84 215.312C175.111 216.608 175.747 218.504 175.747 221C175.747 222.152 175.663 223.244 175.495 224.276C175.351 225.284 175.159 226.1 174.919 226.724C174.511 227.252 173.587 227.996 172.147 228.956C170.731 229.892 169.807 230.36 169.375 230.36ZM169.519 228.164C169.663 228.116 170.227 227.84 171.211 227.336C171.595 225.632 171.787 223.676 171.787 221.468C171.787 219.668 171.463 218.24 170.815 217.184C170.191 216.104 169.255 215.564 168.007 215.564C167.479 215.564 167.047 215.648 166.711 215.816C166.375 215.984 166.099 216.608 165.883 217.688C165.691 218.768 165.595 220.196 165.595 221.972C165.595 224.276 165.967 225.884 166.711 226.796C167.479 227.708 168.415 228.164 169.519 228.164ZM194.689 236.552C194.593 236.552 194.413 236.324 194.149 235.868C193.909 235.412 193.789 235.112 193.789 234.968L195.481 229.964C194.857 230.06 194.485 230.108 194.365 230.108C194.293 230.108 194.101 230 193.789 229.784L190.045 216.032L188.605 215.636L188.605 214.016C190.717 213.68 191.881 213.512 192.097 213.512C192.217 213.512 192.481 213.656 192.889 213.944C193.297 214.232 193.525 214.46 193.573 214.628L195.553 222.944L196.273 226.724L196.633 226.724L199.513 215.924L197.317 215.672L197.317 213.8L201.853 213.512C201.997 213.512 202.213 213.692 202.501 214.052C202.813 214.412 202.957 214.676 202.933 214.844L198.181 229.892L197.173 233.924L198.685 234.572L198.649 236.084C196.225 236.396 194.905 236.552 194.689 236.552Z" fill="black" fill-opacity="0.6"/>
<path d="M180.712 230.36C180.592 230.36 180.34 230.18 179.956 229.82C179.596 229.46 179.416 229.22 179.416 229.1L179.416 216.032L178.084 215.564L178.084 214.052C180.22 213.668 181.408 213.476 181.648 213.476C181.768 213.476 182.032 213.68 182.44 214.088C182.872 214.472 183.088 214.712 183.088 214.808L183.016 216.14C184.768 214.244 185.716 213.296 185.86 213.296C186.292 213.296 187.12 213.488 188.344 213.872C188.416 214.04 188.476 214.244 188.524 214.484C188.572 214.7 188.596 214.904 188.596 215.096C188.596 215.288 188.428 215.708 188.092 216.356C187.78 216.98 187.576 217.316 187.48 217.364C186.544 217.004 185.884 216.824 185.5 216.824C185.332 216.824 185.02 216.932 184.564 217.148C184.108 217.34 183.64 217.58 183.16 217.868L183.16 227.48L185.104 228.056L185.104 229.712C182.416 230.144 180.952 230.36 180.712 230.36Z" fill="black" fill-opacity="0.32"/>
<defs>
<linearGradient id="paint0_linear_3567_9935" x1="80" y1="0" x2="80" y2="180" gradientUnits="userSpaceOnUse">
<stop stop-color="#FF0099"/>
<stop offset="1" stop-color="#0047FF" stop-opacity="0"/>
</linearGradient>
<linearGradient id="paint1_linear_3567_9935" x1="146.25" y1="100.063" x2="116.751" y2="128.563" gradientUnits="userSpaceOnUse">
<stop stop-color="#0038FF"/>
<stop offset="1"/>
</linearGradient>
</defs>
</svg>
