<svg width="226" height="224" viewBox="0 0 226 224" fill="none" xmlns="http://www.w3.org/2000/svg">
<rect opacity="0.3" width="160" height="180" transform="matrix(1 0 5.51922e-06 1 33 27)" fill="url(#paint0_linear_3567_9935)"/>
<path d="M37.0001 43.0625L33.0001 44.5625L33 27.0625H193L193 87.0625L189 85.3125C188.25 85.8958 186.4 87.0625 185 87.0625C183.6 87.0625 185.584 82.7292 186.75 80.5625L179.25 87.0625L169 89.3125L170.75 81.8125C169.25 80.3125 167.6 77.4125 173 77.8125C179.75 78.3125 162.75 65.5625 161 64.5625C159.6 63.7625 163.084 68.5625 165 71.0625C164.167 71.8125 160.6 73.2625 153 73.0625C145.4 72.8625 146.334 65.3125 147.75 61.5625L153 59.0625C148.083 55.0625 139.2 47.8625 143 51.0625C147.75 55.0625 150.5 57.8125 145 59.0625C140.6 60.0625 129.833 56.8125 125 55.0625L62.5001 44.5625L61.0001 45.3125L58.7501 43.0625L54.5001 47.0625L49.0001 44.5625L46.5001 43.0625L45.0001 44.5625L37.0001 43.0625Z" fill="white"/>
<path d="M141.769 95.978C139.593 96.1721 138.681 96.3125 139.75 96.3125C140.283 96.3125 140.969 96.192 141.769 95.978Z" fill="white"/>
<path d="M193 112.312C187.5 110.312 177.75 106.012 182.75 104.812C187.75 103.612 189.75 97.1458 189 96.3125C189 96.3125 189.084 95.9792 175.5 95.0625C161.917 94.1458 135.55 96.3125 139.75 96.3125C143.95 96.3125 157.75 88.8125 161 87.0625L143 85.3125C146.25 77.8125 135.75 96.2625 131.75 95.0625C127.75 93.8625 130.917 90.7292 133 89.3125H118.5M55.7503 76.3125C52.4169 75.8958 46.4003 74.6625 49.0003 73.0625C51.6002 71.4625 54.5836 68.3958 55.7502 67.0625L51.7502 59.0625L55.7502 57.3125C52.6668 56.3958 46.5001 54.2125 46.5001 52.8125C46.5001 51.4125 45.5001 48.3958 45.0001 47.0625M33.0001 44.5625L37.0001 43.0625L45.0001 44.5625L46.5001 43.0625L49.0001 44.5625L54.5001 47.0625L58.7501 43.0625L61.0001 45.3125L62.5001 44.5625L125 55.0625C129.833 56.8125 140.6 60.0625 145 59.0625C150.5 57.8125 147.75 55.0625 143 51.0625C139.2 47.8625 148.083 55.0625 153 59.0625L147.75 61.5625C146.334 65.3125 145.4 72.8625 153 73.0625C160.6 73.2625 164.167 71.8125 165 71.0625C163.084 68.5625 159.6 63.7625 161 64.5625C162.75 65.5625 179.75 78.3125 173 77.8125C167.6 77.4125 169.25 80.3125 170.75 81.8125L169 89.3125L179.25 87.0625L186.75 80.5625C185.584 82.7292 183.6 87.0625 185 87.0625C186.4 87.0625 188.25 85.8958 189 85.3125L193 87.0625L193 27.0625H33L33.0001 44.5625Z" stroke="black" stroke-width="2"/>
<path d="M103.25 100.562L111.5 52.8125L110 48.9375L111.5 42.3125L111.5 28.5625L101.5 13.3125L95 14.8125L85.5001 26.3125L79.8751 37.0625L77.0002 47.0625L66.5004 91.0625L67.7505 99.0625L69.0005 103.062L97.0005 107.062L103.25 100.562Z" fill="url(#paint1_linear_3567_9935)"/>
<path d="M33.0005 71.0625H37.0005L45.0005 75.0625L43.2505 76.5625H41.0005L37.0006 92.5625H33.0006L47.0006 95.0625L45.0006 96.3125L61.0007 101.312L69.0007 103.062L94.2507 109.812L95.7507 107.062H98.5007L98.5007 103.062L105.001 107.062L105.001 109.812L109.001 113.562L118.501 116.562L126.751 119.062L130.001 117.562H133.001L137.001 107.812L136.376 106.312L137.001 104.687L147.251 107.062L147.251 109.187L145.751 109.812L143.251 120.312L135.626 117.562L145.001 121.187L149.001 123.062L149.001 125.812H145.751L145.001 133.812L143.751 151.062L137.001 155.062L133.001 156.187L122.876 155.062L123.751 147.062L118.501 145.687L118.501 140.312L65.0008 130.062L60.2508 127.687L61.0008 124.687L54.7507 114.312L55.6258 123.062H53.0008L53.0008 124.687L54.7508 129.062L53.0008 128.437L52.1258 132.062L50.2508 132.937L49.0008 129.562L49.0008 126.062L50.2508 124.687L50.2508 121.812L47.8757 113.562L33.0007 109.812L33.0007 105.437L47.8757 109.812L33.0007 103.812L33.0006 92.5625L33.0005 71.0625Z" fill="#3C3C3C"/>
<path d="M33.0012 207.062L33.0008 132.937L35.5008 134.187L37.0008 136.312L41.6259 138.187L45.0009 142.062L51.0009 143.062L54.7509 145.687C60.8343 150.771 73.501 161.362 75.501 163.062C77.501 164.762 83.4177 168.354 86.126 169.937H81.001L71.626 167.062L64.251 164.562L64.251 168.937C63.1677 168.396 61.001 167.262 61.001 167.062L61.001 169.937L45.001 164.562C46.751 166.187 49.776 169.537 47.876 169.937C45.976 170.337 43.6677 170.854 42.751 171.062L34.501 169.937L34.501 172.687L36.3761 175.062C38.6677 174.479 45.2011 173.437 53.0011 173.937C60.8011 174.437 72.2511 178.229 77.0011 180.062L69.0011 183.062C74.2095 187.396 83.6262 196.037 79.6262 195.937C75.6262 195.837 66.4595 197.229 62.3762 197.937C63.5845 198.021 68.2012 198.262 77.0012 198.562C85.8012 198.862 113.335 204.354 126.001 207.062H33.0012Z" fill="#3C3C3C"/>
<path d="M62.3758 120.312L134.251 135.062L64.2508 123.062M52.1257 111.062L122.876 127.687L123.751 121.187L129.001 121.812L126.751 129.062L131.751 129.562L134.251 123.062H139.001L137.001 130.062H141.001M34.5006 99.0625C37.5423 100.979 53.0007 106.312 53.0007 106.312C53.0007 106.312 99.5007 119.062 114.751 119.062M193.001 132.937C188.001 133.979 177.301 136.487 174.501 138.187C171.701 139.887 173.334 140.312 174.501 140.312L181.001 138.187L189.001 136.312H190.501L185.001 140.312H181.001H190.501H193.001L193.001 151.062H189.001L187.251 147.062L181.001 148.312L177.001 147.062L175.501 151.062L166.501 155.062L158.501 159.062L157.001 156.187L153.001 161.562L145.751 163.062H137.001L151.251 167.062L162.251 164.562L163.751 168.937L173.001 171.062H181.001L185.001 168.937L189.001 171.062L193.001 165.812M33.0005 71.0625H37.0005L45.0005 75.0625L43.2505 76.5625H41.0005L37.0006 92.5625H33.0006L47.0006 95.0625L45.0006 96.3125L61.0007 101.312L69.0007 103.062L94.2507 109.812L95.7507 107.062H98.5007L98.5007 103.062L105.001 107.062L105.001 109.812L109.001 113.562L118.501 116.562L126.751 119.062L130.001 117.562H133.001L137.001 107.812L136.376 106.312L137.001 104.687L147.251 107.062L147.251 109.187L145.751 109.812L143.251 120.312L135.626 117.562L145.001 121.187L149.001 123.062L149.001 125.812H145.751L145.001 133.812L143.751 151.062L137.001 155.062L133.001 156.187L122.876 155.062L123.751 147.062L118.501 145.687L118.501 140.312L65.0008 130.062L60.2508 127.687L61.0008 124.687L54.7507 114.312L55.6258 123.062H53.0008L53.0008 124.687L54.7508 129.062L53.0008 128.437L52.1258 132.062L50.2508 132.937L49.0008 129.562L49.0008 126.062L50.2508 124.687L50.2508 121.812L47.8757 113.562L33.0007 109.812L33.0007 105.437L47.8757 109.812L33.0007 103.812L33.0005 71.0625ZM33.0008 132.937L33.0012 207.062H126.001C113.335 204.354 85.8012 198.862 77.0012 198.562C68.2012 198.262 63.5845 198.021 62.3762 197.937C66.4595 197.229 75.6262 195.837 79.6262 195.937C83.6262 196.037 74.2095 187.396 69.0011 183.062L77.0011 180.062C72.2511 178.229 60.8011 174.437 53.0011 173.937C45.2011 173.437 38.6677 174.479 36.3761 175.062L34.501 172.687L34.501 169.937L42.751 171.062C43.6677 170.854 45.976 170.337 47.876 169.937C49.776 169.537 46.751 166.187 45.001 164.562L61.001 169.937C61.001 168.896 61.001 166.862 61.001 167.062C61.001 167.262 63.1677 168.396 64.251 168.937L64.251 164.562L71.626 167.062L81.001 169.937H86.126C83.4177 168.354 77.501 164.762 75.501 163.062C73.501 161.362 60.8343 150.771 54.7509 145.687L51.0009 143.062L45.0009 142.062L41.6259 138.187L37.0008 136.312L35.5008 134.187L33.0008 132.937Z" stroke="black" stroke-width="2"/>
<path d="M33.0002 66.3125L33 27.0625H52.25M160.375 27.0625H193L193 86.5625M193.001 165.437L193.001 207.062H165.001M128.251 207.062H131.001M133.251 207.062H136.001M138.501 207.062H141.251M143.876 207.062H146.626M149.376 207.062H152.126M154.626 207.062H157.376M159.751 207.062H162.501" stroke="black" stroke-width="2"/>
<path d="M72.3753 83.0625H69.5003L70.5002 77.4373L69.5002 76.0623L71.4257 74.498C71.4498 74.4768 71.4749 74.4565 71.5002 74.4375L71.4257 74.498C71.1329 74.7563 70.9892 75.1547 72.3752 75.0623C73.8752 74.9623 77.0002 73.2708 78.3752 72.4375L78.3752 74.4375L85.0002 69.8125L93.0001 64.4373C91.2918 65.6874 88.9002 67.9625 93.0002 67.0625C98.3751 60.1875 106.375 53.8125 106.375 53.8125C106.375 53.8125 103.458 60.7708 102.625 61.8125L106.375 60.1875L105.75 61.8125L110.25 59.0625L109 68.1875L109 69.8125L107.75 70.4375L107.75 73.1875L107.125 72.4375L103.875 74.4375L103.25 73.1875L106.375 71.8125H103.875L102.625 72.4375L99.1252 76.0623L97.0002 73.1875L97.0002 71.0625L97.9799 70.2886L96.2502 71.0625L96.2502 73.1875L97.0002 74.4375L91.7502 76.6875H94.3752L89.0002 78.4375L85.0002 79.0625L81.0002 81.9375L82.5002 79.0625L81.0002 79.9375L81.7502 78.4375L76.3752 80.5625H71.5002L70.5002 81.9375L72.3753 83.0625Z" fill="white"/>
<path d="M75.3753 85.6873H69.0003L67.8753 89.4373H74.5003L79.2503 92.1873C78.042 91.104 77.7503 89.4373 77.7503 89.4373C79.1253 89.4373 83.1253 92.1873 83.1253 92.1873L87.2503 94.6875C87.2503 94.6875 92.6253 96.2706 94.3753 97.1873L90.0003 98.4373L104.375 107.062L100 108.687L111.584 116.896C112.375 116.687 126.5 119.062 126.5 119.062C126.5 119.062 120.875 110.062 117 106.187C115.144 104.331 111.75 105.146 109 106.187C108.792 105.396 107.125 103.662 107.125 103.062C107.125 102.312 105 102.687 103.25 101.062C101.85 99.7623 100.5 99.6873 100 99.8123L100 98.4373H98.3753L99.1253 97.1873L95.0003 94.0623C93.2086 93.104 88.7503 91.9623 87.7503 91.0623C86.7503 90.1623 84.3336 89.979 82.5003 89.4373H86.3753L93.0003 91.0623L97.0003 92.1873C98.6253 93.229 102.025 95.3873 102.625 95.6873C103.375 96.0623 109 98.3123 112.375 101.062C115.075 103.262 122.584 104.979 126 105.562L132.125 107.062C130.834 105.896 126.6 102.662 120 99.0623C117.884 97.9079 94.3311 88.9673 103.875 91.0623C104.25 91.2706 105.275 91.7873 106.375 92.1873C107.475 92.5873 114.584 93.604 118 94.0623C116.542 93.4373 112.7 91.7873 109 90.1873C105.3 88.5873 101.75 86.0623 100 85.6873C98.9012 86.7864 102.635 90.6352 94.3753 88.3123L96.2503 87.0623L91.7503 86.3123L90.8753 87.0623L87.2503 86.3123L87.2503 87.0623L86.3753 86.3123L83.1253 85.6873L81.7503 86.3123L78.3753 85.6873H75.3753Z" fill="white"/>
<path d="M74.5001 60.1875L76.3751 61.1875L77.7501 56.8125L81.0001 55.0625L80.0001 56.8125L87.7501 53.8125L90.8751 48.8125L91.7501 52.4375L89.0001 59.0625L86.3751 61.8125L81.0001 64.4373L81.0001 61.8125L77.7502 65.4375L72.3752 67.0625L72.3752 68.9373L78.3752 68.1875C83.0418 66.3125 92.6501 62.0875 93.7501 60.1875C94.8501 58.2875 92.8751 59.3958 91.7501 60.1875L96.2501 51.0625L98.3751 53.8125L107.125 37.5625L108.375 40.5625L111 37.5625M69.5003 83.0625H72.3753L70.5002 81.9375L71.5002 80.5625H76.3752L81.7502 78.4375L81.0002 79.9375L82.5002 79.0625L81.0002 81.9375L85.0002 79.0625L89.0002 78.4375L94.3752 76.6875H91.7502L97.0002 74.4375L96.2502 73.1875L96.2502 71.0625L101 68.9373L98.3752 69.9764L97.0002 71.0625L97.0002 73.1875L99.1252 76.0623L102.625 72.4375L103.875 71.8125H106.375L103.25 73.1875L103.875 74.4375L107.125 72.4375L107.75 73.1875L107.75 70.4375L109 69.8125L109 68.1875L110.25 59.0625L105.75 61.8125L106.375 60.1875L102.625 61.8125C103.458 60.7708 106.375 53.8125 106.375 53.8125C106.375 53.8125 98.3751 60.1875 93.0002 67.0625C88.9002 67.9625 91.2918 65.6874 93.0001 64.4373L85.0002 69.8125L78.3752 74.4375L78.3752 72.4375C77.0002 73.2708 73.8752 74.9623 72.3752 75.0623C70.8752 75.1623 71.1669 74.6874 71.5002 74.4375L69.5002 76.0623L70.5002 77.4373L69.5003 83.0625ZM69.0003 85.6873H75.3753H78.3753L81.7503 86.3123L83.1253 85.6873L86.3753 86.3123L87.2503 87.0623L87.2503 86.3123L90.8753 87.0623L91.7503 86.3123L96.2503 87.0623L94.3753 88.3123C102.635 90.6352 98.9012 86.7864 100 85.6873C101.75 86.0623 105.3 88.5873 109 90.1873C112.7 91.7873 116.542 93.4373 118 94.0623C114.584 93.604 107.475 92.5873 106.375 92.1873C105.275 91.7873 104.25 91.2707 103.875 91.0623C94.3311 88.9673 117.884 97.9079 120 99.0623C126.6 102.662 130.834 105.896 132.125 107.062L126 105.562C122.584 104.979 115.075 103.262 112.375 101.062C109 98.3123 103.375 96.0623 102.625 95.6873C102.025 95.3873 98.6253 93.229 97.0003 92.1873L93.0003 91.0623L86.3753 89.4373H82.5003C84.3336 89.979 86.7503 90.1623 87.7503 91.0623C88.7503 91.9623 93.2086 93.104 95.0003 94.0623L99.1253 97.1873L98.3753 98.4373H100L100 99.8123C100.5 99.6873 101.85 99.7623 103.25 101.062C105 102.687 107.125 102.312 107.125 103.062C107.125 103.662 108.792 105.396 109 106.187C111.75 105.146 115.144 104.331 117 106.187C120.875 110.062 126.5 119.062 126.5 119.062C126.5 119.062 112.375 116.687 111.584 116.896L100 108.687L104.375 107.062L90.0003 98.4373L94.3753 97.1873C92.6253 96.2707 87.2503 94.6875 87.2503 94.6875L83.1253 92.1873C83.1253 92.1873 79.1253 89.4373 77.7503 89.4373C77.7503 89.4373 78.042 91.104 79.2503 92.1873L74.5003 89.4373H67.8753L69.0003 85.6873Z" stroke="black" stroke-width="2"/>
<path d="M82.1255 93.3125L82.1255 95.6875L69.7505 91.0625H66.8755L67.6255 93.3125L72.3755 95.6875L66.8755 95.0625L66.8755 97.6875L80.8755 100.754L78.8756 103.754C78.8756 103.754 70.0413 100.834 68.3755 99.9375C66.9944 99.1938 72.8904 108.571 80.0006 107.062L82.1256 104.562C85.7129 107.448 87.8756 113.062 87.8756 113.062L107.001 124.504L94.1256 111.062L89.0006 106.187L84.1255 101.812L93.0006 104.562L97.0006 110.062L109.626 111.062L100.126 107.062L95.7506 101.812L86.7505 98.8789L86.7505 95.6875L82.1255 93.3125Z" fill="white" stroke="black" stroke-width="2"/>
<path d="M163.376 139.062L165.001 141.187L165.001 142.312L171.501 140.312H178.626L171.501 141.687L171.001 143.062L167.626 144.687L165.001 145.437L169.001 147.812C166.584 146.937 161.176 145.362 158.876 146.062M149.751 149.687L154.001 147.812L154.001 146.062L156.001 143.062C156.001 142.479 156.201 141.287 157.001 141.187C157.801 141.087 160.667 139.729 162.001 139.062L162.751 137.437L162.001 136.812H163.376L165.751 125.562L167.626 116.437L171.5 101.562L165.75 100.062L162.75 101.562L162.001 105.062H159.876L149.751 149.687Z" stroke="black" stroke-width="2"/>
<path d="M47.3755 94.4375L49.0005 93.0625L55.3851 95.0625L57.0005 95.5685L58.2505 90.4553L57.0005 90.0982L53.0005 88.9553L53.0004 86.1875L56.0004 77.1875L57.0004 77.4511L56.0004 73.9375L65.0002 38.4375L63.8752 36.4375L65.6704 35.8125L63.8752 32.9375L63.2501 29.0625H70.6251L73.0001 31.8125L73.0002 35.0625L70.6252 36.4375L71.7502 38.4375L62.2504 75.0625L62.8754 79L69.0004 80.6148L70.6254 77.4511L70.6254 75.0625L78.7502 41.1875L79.6252 40.5625L79.6252 38.4375L79.6252 36.4375L82.2502 35.0625L73.0001 29.8125L74.5001 22.0625H67.3751L79.625 9.6875H87.25L75.8028 22.8474L84.2501 27.9375L94.5001 15.0625L101.813 13.375L109.125 11.6875L117.875 27.0625L119 42.4375L122.75 44.75L124.625 45.9062L126.5 47.0625L125.5 53.6875L125 53.3842L122.875 55.0625L122.875 57.4375L115.251 105.062L107.626 106.437L106.876 103.062H106.126L102.501 100.687L105 88.5625L111.5 53.3842L109.75 49.0625L115.25 48.3125L119 51.0625L117 53.3842L117 55.0625L109.001 101.562L106.126 103.062H106.876L107.626 106.437L115.251 105.062L122.875 57.4375L122.875 55.0625L125 53.3842L117.875 49.0625L119 42.4375H111.5L110.875 27.9375L101.813 13.375L94.5001 15.0625L84.2501 27.9375L75.8028 22.8474L74.5001 22.0625L73.0001 29.8125L82.2502 35.0625L79.6252 36.4375L79.6252 38.4375L79.6252 40.5625L78.7502 41.1875L70.6254 75.0625L70.6254 77.4511L69.0004 80.6148L69.7504 80.8125L68.0005 88.9553L65.6707 92.5754L67.3755 93.0625L68.0005 95.0625L65.6707 97.5898L68.0005 98.0625L69.0005 100.687L68.0005 103.062L58.2505 100.687L54.0629 99.3651L46.3755 96.9375L47.3755 94.4375Z" fill="#C4C4C4"/>
<path d="M50.2505 93.0625L49.6255 91.0625L51.6255 88.5625L53.0005 88.9553M65.6707 97.5898L59.3755 96.3125L57.0005 95.5685M65.6707 97.5898L68.0005 98.0625L69.0005 100.687L68.0005 103.062L58.2505 100.687L54.0629 99.3651M65.6707 97.5898L68.0005 95.0625L67.3755 93.0625L65.6707 92.5754M53.0005 88.9553L53.0004 86.1875L56.0004 77.1875L61.0004 78.5057M53.0005 88.9553L57.0005 90.0982M65.6707 92.5754L68.0005 88.9553L69.7504 80.8125L69.0004 80.6148M65.6707 92.5754L58.2505 90.4553M57.0004 77.4511L56.0004 73.9375L65.0002 38.4375L63.8752 36.4375L65.6704 35.8125L63.8752 32.9375L63.2501 29.0625H70.6251L73.0001 31.8125L73.0002 35.0625L70.6252 36.4375L71.7502 38.4375L62.2504 75.0625L62.8754 79M62.8754 79L69.0004 80.6148M62.8754 79L61.0004 78.5057M69.0004 80.6148L70.6254 77.4511L70.6254 75.0625L78.7502 41.1875L79.6252 40.5625L79.6252 38.4375L79.6252 36.4375L82.2502 35.0625L73.0001 29.8125L74.5001 22.0625M74.5001 22.0625H67.3751M74.5001 22.0625L75.8028 22.8474M84.2501 27.9375L82.7502 35.0625M84.2501 27.9375L94.5001 15.0625L101.813 13.375M84.2501 27.9375L75.8028 22.8474M109.125 11.6875L117.875 27.0625M109.125 11.6875L101.813 13.375M109.125 11.6875L110.875 5.3125M119 42.4375L117.875 49.0625L125 53.3842M119 42.4375L117.875 27.0625M119 42.4375H111.5M119 42.4375L122.75 44.75L124.625 45.9062M117.875 27.0625L110.875 27.9375M125 53.3842L125.5 53.6875L126.5 47.0625L124.625 45.9062M125 53.3842L122.875 55.0625L122.875 57.4375L115.251 105.062L107.626 106.437L106.876 103.062H106.126M106.126 103.062L109.001 101.562L117 55.0625L117 53.3842L119 51.0625L115.25 48.3125L109.75 49.0625L111.5 53.3842L105 88.5625L102.501 100.687L106.126 103.062ZM110.875 48.3125L111.5 42.4375M111.5 42.4375L110.875 27.9375M110.875 27.9375L101.813 13.375M65.0001 22.0625H67.3751M67.3751 22.0625L79.625 9.6875H87.25L75.8028 22.8474M124.625 45.9062L123.625 31.0625M61.0004 78.5057L57.0005 90.0982M57.0005 90.0982L58.2505 90.4553M58.2505 90.4553L57.0005 95.5685M57.0005 95.5685L55.3851 95.0625M55.3851 95.0625L49.0005 93.0625L47.3755 94.4375L46.3755 96.9375L54.0629 99.3651M55.3851 95.0625L54.0629 99.3651" stroke="black" stroke-width="2"/>
<path d="M161.001 104.562L170.501 107.062L169.751 109.062L182.501 111.062L177.001 113.312H182.501L179.149 113.93L197.001 119.062L207.501 121.062L202.001 123.062L193.001 121.062L173.001 115.062L179.149 113.93L177.001 113.312H169.001L169.751 109.062L169.001 111.062L159.251 108.562L161.001 104.562Z" fill="#E02323"/>
<path d="M137.001 109.062L145.001 111.062L145.001 113.062L153.001 115.062L151.751 119.062H155.751L154.751 123.062H149.001L150.501 116.812H143.251L144.214 114.748L135.001 111.062L137.001 109.062Z" fill="#E02323"/>
<path d="M177.001 123.062H166.251L167.501 119.062H179.751L177.001 123.062Z" fill="#E02323"/>
<path d="M33.0005 75.0625L41.0005 77.8125L40.3755 79.3125L49.0005 83.0625L46.7505 84.8125L53.0006 87.0625L51.0006 88.8125L43.0005 84.8125L45.0005 83.0625H39.7505L40.3755 79.3125L39.7505 80.8125L33.0005 79.0625L33.0005 75.0625Z" fill="#E02323"/>
<path d="M169.751 109.062L170.501 107.062L161.001 104.562L159.251 108.562L169.001 111.062L169.751 109.062ZM169.751 109.062L182.501 111.062L177.001 113.312L197.001 119.062L207.501 121.062L202.001 123.062L193.001 121.062L173.001 115.062L182.501 113.312H169.001L169.751 109.062ZM145.001 113.062L145.001 111.062L137.001 109.062L135.001 111.062L145.001 115.062L145.001 113.062ZM145.001 113.062L153.001 115.062L151.751 119.062H155.751L154.751 123.062H149.001L150.501 116.812H143.251L145.001 113.062ZM40.3755 79.3125L41.0005 77.8125L33.0005 75.0625L33.0005 79.0625L39.7505 80.8125L40.3755 79.3125ZM40.3755 79.3125L49.0005 83.0625L46.7505 84.8125L53.0006 87.0625L51.0006 88.8125L43.0005 84.8125L45.0005 83.0625H39.7505L40.3755 79.3125ZM166.251 123.062H177.001L179.751 119.062H167.501L166.251 123.062Z" stroke="black" stroke-width="2"/>
<circle cx="4.125" cy="4.125" r="3.125" transform="matrix(1 0 5.51922e-06 1 152.75 103.062)" stroke="black" stroke-width="2"/>
<rect width="1" height="1" transform="matrix(1 0 5.51922e-06 1 103.5 24.9375)" fill="white"/>
<rect width="1" height="1" transform="matrix(1 0 5.51922e-06 1 94.5 30.0625)" fill="white"/>
<rect width="1" height="1" transform="matrix(1 0 5.51922e-06 1 104.5 48.9375)" fill="white"/>
<rect width="1" height="1" transform="matrix(1 0 5.51922e-06 1 83.9956 38.0625)" fill="white"/>
<path d="M21.0005 143L1.00049 143L1.00026 159L9.00014 167.5L1.00003 175L0.999808 191L10.9998 191L20.9998 191L21.0005 143Z" fill="#415188"/>
<path d="M21.0005 143L1.00049 143L1.00026 159L9.00014 167.5L1.00003 175L0.999808 191L10.9998 191L20.9998 191L21.0005 143Z" fill="black" fill-opacity="0.2"/>
<path d="M21.0005 143L1.00049 143L1.00026 159L9.00014 167.5L1.00003 175L0.999808 191L10.9998 191L20.9998 191L21.0005 143Z" stroke="black" stroke-width="2"/>
<path d="M12.9999 151L21 143L20.9999 151L12.9999 151Z" fill="black" fill-opacity="0.38" stroke="black" stroke-width="2" stroke-linejoin="bevel"/>
<path d="M205 143L225 143L225 159L217 167.5L225 175L225.001 191L215.001 191L205.001 191L205 143Z" fill="#415188"/>
<path d="M205 143L225 143L225 159L217 167.5L225 175L225.001 191L215.001 191L205.001 191L205 143Z" fill="black" fill-opacity="0.2"/>
<path d="M205 143L225 143L225 159L217 167.5L225 175L225.001 191L215.001 191L205.001 191L205 143Z" stroke="black" stroke-width="2"/>
<path d="M213.002 151L205.002 143L205.002 151L213.002 151Z" fill="black" fill-opacity="0.38" stroke="black" stroke-width="2" stroke-linejoin="bevel"/>
<path d="M212.99 150.977L12.9902 150.977L12.9896 198.977L212.99 198.977L212.99 150.977Z" fill="#415188" stroke="black" stroke-width="2"/>
<path d="M73.556 186.288C73.46 186.288 73.256 186.18 72.944 185.964L67.7243 166.524L65.4923 165.804L65.4923 164.256L74.2763 164.256L74.2763 165.984L71.8643 166.704L74.4201 177L75.5001 182.22L75.8961 182.22L76.9761 177.648C78.3442 171.936 79.1963 168.288 79.5323 166.704L77.0123 165.984L77.0123 164.256L85.2923 164.256L85.2923 165.804L83.0603 166.524L77.948 185.748C77.18 185.868 76.352 185.976 75.464 186.072C74.576 186.168 73.94 186.24 73.556 186.288ZM89.553 186.36C89.409 186.36 89.121 186.168 88.689 185.784C88.257 185.376 88.041 185.112 88.041 184.992L88.0412 171.996L86.7092 171.564L86.7092 170.052C88.8692 169.668 90.0692 169.476 90.3092 169.476C90.4532 169.476 90.7292 169.668 91.1372 170.052C91.5452 170.412 91.7492 170.676 91.7492 170.844L91.749 183.804L93.045 184.2L93.045 185.712C90.957 186.144 89.7929 186.36 89.553 186.36ZM87.7893 162.78L90.9213 162.6L91.5333 163.428L91.3172 166.668L88.0772 166.668L87.7893 162.78ZM100.797 186.36C99.8368 186.36 98.9488 186.072 98.1328 185.496C97.3168 184.92 96.6568 184.056 96.1528 182.904C95.6488 181.752 95.3968 180.348 95.3969 178.692C95.3969 177.54 95.4809 176.448 95.6489 175.416C95.8169 174.384 96.0329 173.616 96.297 173.112C96.561 172.752 97.077 172.284 97.845 171.708C98.613 171.108 99.381 170.58 100.149 170.124C100.941 169.668 101.481 169.44 101.769 169.44C102.345 169.44 103.005 169.512 103.749 169.656C104.517 169.776 105.237 169.944 105.909 170.16L105.801 174.948L103.425 174.948L102.885 172.392C102.621 172.248 102.285 172.116 101.877 171.996C101.493 171.876 101.145 171.816 100.833 171.816C100.617 171.816 100.449 171.864 100.329 171.96C100.017 172.2 99.777 172.884 99.6089 174.012C99.4409 175.116 99.3569 176.484 99.3569 178.116C99.3569 179.292 99.4768 180.288 99.7168 181.104C99.9808 181.896 100.305 182.484 100.689 182.868C101.073 183.252 101.457 183.444 101.841 183.444L105.909 183.444L105.909 185.1C104.949 185.388 103.941 185.676 102.885 185.964C101.829 186.228 101.133 186.36 100.797 186.36ZM112.048 186.36C111.76 186.36 111.4 186.18 110.968 185.82C110.536 185.46 110.152 185.04 109.816 184.56C109.48 184.08 109.312 183.696 109.312 183.408L109.312 171.888L106.972 171.888L106.972 170.592L109.312 169.476L111.652 166.704C111.868 166.68 112.336 166.848 113.056 167.208L113.056 169.8L116.584 169.8L116.584 172.032L113.056 172.032L113.056 181.824C113.056 182.52 113.116 183 113.236 183.264C113.356 183.504 113.584 183.624 113.92 183.624L116.944 183.732L116.944 185.64C116.2 185.808 115.264 185.964 114.136 186.108C113.032 186.276 112.336 186.36 112.048 186.36ZM126.375 186.36C123.807 186.36 121.875 185.724 120.579 184.452C119.283 183.156 118.635 181.164 118.635 178.476C118.635 177.396 118.719 176.352 118.887 175.344C119.055 174.336 119.271 173.592 119.535 173.112C119.799 172.752 120.327 172.272 121.119 171.672C121.911 171.048 122.715 170.508 123.531 170.052C124.347 169.572 124.899 169.332 125.187 169.332C127.683 169.332 129.567 169.992 130.839 171.312C132.111 172.608 132.747 174.504 132.747 177C132.747 178.152 132.663 179.244 132.495 180.276C132.351 181.284 132.159 182.1 131.919 182.724C131.511 183.252 130.587 183.996 129.147 184.956C127.731 185.892 126.807 186.36 126.375 186.36ZM126.519 184.164C126.663 184.116 127.227 183.84 128.211 183.336C128.595 181.632 128.787 179.676 128.787 177.468C128.787 175.668 128.463 174.24 127.815 173.184C127.191 172.104 126.255 171.564 125.007 171.564C124.479 171.564 124.047 171.648 123.711 171.816C123.375 171.984 123.099 172.608 122.883 173.688C122.691 174.768 122.595 176.196 122.595 177.972C122.595 180.276 122.967 181.884 123.711 182.796C124.479 183.708 125.415 184.164 126.519 184.164ZM151.689 192.552C151.593 192.552 151.413 192.324 151.149 191.868C150.909 191.412 150.789 191.112 150.789 190.968L152.481 185.964C151.857 186.06 151.485 186.108 151.365 186.108C151.293 186.108 151.101 186 150.789 185.784L147.045 172.032L145.605 171.636L145.605 170.016C147.717 169.68 148.881 169.512 149.097 169.512C149.217 169.512 149.481 169.656 149.889 169.944C150.297 170.232 150.525 170.46 150.573 170.628L152.553 178.944L153.273 182.724L153.633 182.724L156.513 171.924L154.317 171.672L154.317 169.8L158.853 169.512C158.997 169.512 159.213 169.692 159.501 170.052C159.813 170.412 159.957 170.676 159.933 170.844L155.181 185.892L154.173 189.924L155.685 190.572L155.649 192.084C153.225 192.396 151.905 192.552 151.689 192.552Z" fill="black" fill-opacity="0.6"/>
<path d="M137.712 186.36C137.592 186.36 137.34 186.18 136.956 185.82C136.596 185.46 136.416 185.22 136.416 185.1L136.416 172.032L135.084 171.564L135.084 170.052C137.22 169.668 138.408 169.476 138.648 169.476C138.768 169.476 139.032 169.68 139.44 170.088C139.872 170.472 140.088 170.712 140.088 170.808L140.016 172.14C141.768 170.244 142.716 169.296 142.86 169.296C143.292 169.296 144.12 169.488 145.344 169.872C145.416 170.04 145.476 170.244 145.524 170.484C145.572 170.7 145.596 170.904 145.596 171.096C145.596 171.288 145.428 171.708 145.092 172.356C144.78 172.98 144.576 173.316 144.48 173.364C143.544 173.004 142.884 172.824 142.5 172.824C142.332 172.824 142.02 172.932 141.564 173.148C141.108 173.34 140.64 173.58 140.16 173.868L140.16 183.48L142.104 184.056L142.104 185.712C139.416 186.144 137.952 186.36 137.712 186.36Z" fill="black" fill-opacity="0.32"/>
<defs>
<linearGradient id="paint0_linear_3567_9935" x1="80" y1="0" x2="80" y2="180" gradientUnits="userSpaceOnUse">
<stop stop-color="#FF0099"/>
<stop offset="1" stop-color="#0047FF" stop-opacity="0"/>
</linearGradient>
<linearGradient id="paint1_linear_3567_9935" x1="103.25" y1="56.0625" x2="73.7504" y2="84.5625" gradientUnits="userSpaceOnUse">
<stop stop-color="#0038FF"/>
<stop offset="1"/>
</linearGradient>
</defs>
</svg>
